<svg width="33" height="32" viewBox="0 0 33 32" fill="none" xmlns="http://www.w3.org/2000/svg">
<g clip-path="url(#clip0_464_1967)">
<path d="M16.5002 8.12698C16.9207 8.12698 17.2621 8.46839 17.2621 8.88889V12.1905H20.5637C20.9842 12.1905 21.3256 12.5319 21.3256 12.9524C21.3256 13.3729 20.9842 13.7143 20.5637 13.7143H16.5002C16.0797 13.7143 15.7383 13.3729 15.7383 12.9524V8.88889C15.7383 8.46839 16.0797 8.12698 16.5002 8.12698Z" fill="white"/>
<path fill-rule="evenodd" clip-rule="evenodd" d="M16.5002 4.06349C21.4007 4.06349 25.3891 8.05188 25.3891 12.9524C25.3891 17.8529 21.4007 21.8413 16.5002 21.8413C11.5997 21.8413 7.61136 17.8529 7.61136 12.9524C7.61136 8.05188 11.5997 4.06349 16.5002 4.06349ZM16.5002 5.5873C12.4387 5.5873 9.13517 8.89085 9.13517 12.9524C9.13517 17.0139 12.4387 20.3175 16.5002 20.3175C20.5618 20.3175 23.8653 17.0139 23.8653 12.9524C23.8653 8.89085 20.5618 5.5873 16.5002 5.5873Z" fill="white"/>
<path fill-rule="evenodd" clip-rule="evenodd" d="M28.6907 0C30.7915 0 32.5002 1.70877 32.5002 3.80952V22.0952C32.5002 24.196 30.7915 25.9048 28.6907 25.9048H14.9477L14.8772 25.9633L7.84449 31.8234L7.8435 31.8244C7.70667 31.9402 7.53392 32 7.35739 32C7.24824 32 7.13596 31.9752 7.03298 31.9276C6.76503 31.8002 6.59548 31.5326 6.59548 31.2381V25.9048H4.30977C2.20902 25.9048 0.500244 24.196 0.500244 22.0952V3.80952C0.500244 1.70877 2.20902 0 4.30977 0H28.6907ZM4.30977 1.52381C3.05001 1.52381 2.02405 2.54977 2.02405 3.80952V22.0952C2.02405 23.3572 3.05018 24.381 4.30977 24.381H7.35739C7.77789 24.381 8.11929 24.7224 8.11929 25.1429V29.6121L14.1838 24.5595L14.1858 24.5585C14.3225 24.4432 14.494 24.381 14.6719 24.381H28.6907C29.9525 24.381 30.9764 23.357 30.9764 22.0952V3.80952C30.9764 2.54993 29.9527 1.52381 28.6907 1.52381H4.30977Z" fill="white"/>
</g>
<defs>
<clipPath id="clip0_464_1967">
<rect width="32" height="32" fill="white" transform="translate(0.500244)"/>
</clipPath>
</defs>
</svg>
