<svg width="33" height="32" viewBox="0 0 33 32" fill="none" xmlns="http://www.w3.org/2000/svg">
<g clip-path="url(#clip0_464_1972)">
<path fill-rule="evenodd" clip-rule="evenodd" d="M2.80609 2.21786C1.6904 2.21786 0.77832 3.13759 0.77832 4.25382V10.8362C0.77832 11.9524 1.6904 12.8722 2.80609 12.8722H3.57864V14.7503C3.57959 14.863 3.61235 14.9731 3.67313 15.068C3.73392 15.1629 3.82026 15.2387 3.92222 15.2867C4.02418 15.3347 4.13762 15.3529 4.24949 15.3393C4.36135 15.3257 4.46709 15.2807 4.55454 15.2096L7.39459 12.8722H30.7459C31.8616 12.8722 32.7783 11.953 32.7783 10.8362V4.25382C32.7783 3.137 31.8616 2.21786 30.7459 2.21786H2.80609ZM2.80609 3.41466H30.7459C31.2157 3.41466 31.5815 3.77668 31.5815 4.25382V10.8362C31.5815 11.3133 31.2157 11.6754 30.7459 11.6754H7.17837C7.03974 11.6756 6.90549 11.7239 6.79853 11.8121L4.77543 13.4776V12.2714C4.7748 12.1127 4.71116 11.9608 4.5985 11.849C4.48584 11.7372 4.3334 11.6748 4.1747 11.6754H2.80609C2.33629 11.6754 1.97512 11.3139 1.97512 10.8362V4.25382C1.97512 3.77609 2.33629 3.41466 2.80609 3.41466ZM4.78011 5.54412C4.70153 5.54381 4.62365 5.55898 4.55093 5.58877C4.47822 5.61856 4.41208 5.66238 4.35629 5.71773C4.30051 5.77308 4.25618 5.83888 4.22582 5.91136C4.19546 5.98384 4.17968 6.0616 4.17938 6.14018C4.17907 6.21915 4.19439 6.29741 4.22447 6.37043C4.25456 6.44346 4.29879 6.5098 4.35464 6.56565C4.41048 6.62149 4.47683 6.66573 4.54985 6.69581C4.62288 6.72589 4.70113 6.74122 4.78011 6.74091H28.7765C28.8551 6.74061 28.9329 6.72482 29.0054 6.69447C29.0778 6.66411 29.1436 6.61978 29.199 6.56399C29.2543 6.50821 29.2981 6.44207 29.3279 6.36935C29.3577 6.29663 29.3729 6.21876 29.3726 6.14018C29.372 5.98228 29.309 5.83103 29.1973 5.71938C29.0857 5.60773 28.9344 5.54473 28.7765 5.54412H4.78011ZM4.78011 8.34911C4.70153 8.3488 4.62365 8.36398 4.55093 8.39376C4.47822 8.42355 4.41208 8.46737 4.35629 8.52272C4.30051 8.57807 4.25618 8.64387 4.22582 8.71635C4.19546 8.78883 4.17968 8.86659 4.17938 8.94517C4.17907 9.02414 4.19439 9.1024 4.22447 9.17543C4.25455 9.24845 4.29879 9.3148 4.35464 9.37064C4.41048 9.42649 4.47683 9.47073 4.54985 9.50081C4.62288 9.53089 4.70113 9.54621 4.78011 9.54591H26.1562C26.2352 9.54622 26.3134 9.53089 26.3865 9.50081C26.4595 9.47073 26.5258 9.42649 26.5817 9.37064C26.6375 9.3148 26.6818 9.24845 26.7118 9.17543C26.7419 9.1024 26.7572 9.02415 26.7569 8.94517C26.7566 8.86659 26.7409 8.78883 26.7105 8.71635C26.6801 8.64386 26.6358 8.57807 26.58 8.52272C26.5242 8.46737 26.4581 8.42355 26.3854 8.39376C26.3127 8.36398 26.2348 8.3488 26.1562 8.34911H4.78011Z" fill="white"/>
<path fill-rule="evenodd" clip-rule="evenodd" d="M2.80609 16.6563C1.6904 16.6563 0.77832 17.576 0.77832 18.6922V25.2746C0.77832 26.3908 1.6904 27.3106 2.80609 27.3106H3.57864V29.1887C3.57959 29.3014 3.61235 29.4116 3.67313 29.5065C3.73392 29.6013 3.82026 29.6772 3.92222 29.7251C4.02418 29.7731 4.13762 29.7914 4.24949 29.7777C4.36135 29.7641 4.46709 29.7191 4.55454 29.6481L7.39459 27.3106H30.7459C31.8616 27.3106 32.7783 26.3914 32.7783 25.2746V18.6922C32.7783 17.5754 31.8616 16.6563 30.7459 16.6563H2.80609ZM2.80609 17.8531H30.7459C31.2157 17.8531 31.5815 18.2151 31.5815 18.6922V25.2746C31.5815 25.7518 31.2157 26.1138 30.7459 26.1138H7.17837C7.03974 26.114 6.90549 26.1623 6.79853 26.2505L4.77543 27.916V26.7098C4.7748 26.5511 4.71116 26.3992 4.5985 26.2874C4.48584 26.1756 4.3334 26.1132 4.1747 26.1138H2.80609C2.33629 26.1138 1.97512 25.7523 1.97512 25.2746V18.6922C1.97512 18.2145 2.33629 17.8531 2.80609 17.8531ZM4.78011 19.9825C4.70153 19.9822 4.62365 19.9974 4.55093 20.0272C4.47822 20.057 4.41208 20.1008 4.35629 20.1561C4.30051 20.2115 4.25618 20.2773 4.22582 20.3498C4.19546 20.4223 4.17968 20.5 4.17938 20.5786C4.17907 20.6576 4.19439 20.7358 4.22447 20.8088C4.25456 20.8819 4.29879 20.9482 4.35464 21.0041C4.41048 21.0599 4.47683 21.1041 4.54985 21.1342C4.62288 21.1643 4.70113 21.1796 4.78011 21.1793H28.7765C28.8551 21.179 28.9329 21.1632 29.0054 21.1329C29.0778 21.1025 29.1436 21.0582 29.199 21.0024C29.2543 20.9466 29.2981 20.8805 29.3279 20.8078C29.3577 20.735 29.3729 20.6572 29.3726 20.5786C29.372 20.4207 29.309 20.2694 29.1973 20.1578C29.0857 20.0461 28.9344 19.9831 28.7765 19.9825H4.78011ZM4.78011 22.7875C4.70153 22.7872 4.62365 22.8024 4.55093 22.8322C4.47822 22.862 4.41208 22.9058 4.35629 22.9611C4.30051 23.0165 4.25618 23.0823 4.22582 23.1548C4.19546 23.2272 4.17968 23.305 4.17938 23.3836C4.17907 23.4626 4.19439 23.5408 4.22447 23.6138C4.25455 23.6869 4.29879 23.7532 4.35464 23.8091C4.41048 23.8649 4.47683 23.9091 4.54985 23.9392C4.62288 23.9693 4.70113 23.9846 4.78011 23.9843H26.1562C26.2352 23.9846 26.3134 23.9693 26.3865 23.9392C26.4595 23.9091 26.5258 23.8649 26.5817 23.8091C26.6375 23.7532 26.6818 23.6869 26.7118 23.6138C26.7419 23.5408 26.7572 23.4626 26.7569 23.3836C26.7566 23.305 26.7409 23.2272 26.7105 23.1548C26.6801 23.0823 26.6358 23.0165 26.58 22.9611C26.5242 22.9058 26.4581 22.862 26.3854 22.8322C26.3127 22.8024 26.2348 22.7872 26.1562 22.7875H4.78011Z" fill="white"/>
</g>
<defs>
<clipPath id="clip0_464_1972">
<rect width="32" height="32" fill="white" transform="translate(0.77832)"/>
</clipPath>
</defs>
</svg>
