<svg width="33" height="32" viewBox="0 0 33 32" fill="none" xmlns="http://www.w3.org/2000/svg">
<path fill-rule="evenodd" clip-rule="evenodd" d="M17.4187 0C20.377 1.79648e-05 23.0698 0.74636 25.0286 1.96082C26.984 3.17332 28.2355 4.87344 28.2355 6.78233C28.2354 7.88118 27.8178 8.93496 27.0608 9.8716L28.3175 9.15595C28.5629 9.0148 28.8686 9.03133 29.0978 9.19549C29.3293 9.36049 29.4414 9.64436 29.3871 9.92272L28.8277 12.8114C30.4151 14.1148 31.198 15.7099 30.9014 17.2452C30.7712 17.908 30.4537 18.513 29.9639 19.043L29.9629 19.0439C29.82 19.1976 29.6245 19.2753 29.4315 19.2754C29.2568 19.2754 29.0791 19.2119 28.9396 19.0835C28.6465 18.8121 28.6276 18.3537 28.8991 18.0602C29.2105 17.7241 29.4037 17.3573 29.4788 16.9703C29.6768 15.9506 29.0409 14.7495 27.6048 13.6891L27.6038 13.6881C27.3799 13.5217 27.2719 13.2428 27.3241 12.9686L27.6674 11.192L25.7134 12.3079C25.5498 12.4016 25.3543 12.4274 25.1723 12.3803L25.0951 12.3552C24.7226 12.2116 24.3414 12.0883 23.9676 11.9887H23.9657C23.8195 11.9476 23.6867 11.9235 23.5221 11.8845C23.3441 11.8417 23.1854 11.7991 23.0234 11.7688L23.0224 11.7678C22.7481 11.7148 22.4729 11.6727 22.1988 11.6376C22.1619 11.6333 22.1244 11.6289 22.0859 11.6251C22.0472 11.6211 22.0064 11.6173 21.9654 11.6125C21.7682 11.5905 21.5726 11.5724 21.3789 11.5595H21.377C21.2909 11.5531 21.2054 11.549 21.1156 11.545C20.929 11.5372 20.7436 11.5334 20.5611 11.5334C20.4766 11.5334 20.3923 11.5321 20.3112 11.5334L20.3122 11.5344C20.1139 11.5382 19.9153 11.5491 19.719 11.5633L19.72 11.5643C19.6871 11.5673 19.6542 11.5694 19.6255 11.571C19.5959 11.5727 19.5702 11.5736 19.5454 11.5759C19.293 11.5992 19.0462 11.6305 18.8066 11.6704C18.7936 11.6729 18.7804 11.6758 18.7652 11.6791C18.7487 11.6826 18.7289 11.6869 18.7092 11.6906H18.7073C18.6071 11.7087 18.5085 11.7287 18.4112 11.7495L18.1238 11.816C18.09 11.8245 18.0609 11.8324 18.0312 11.8411C18.221 11.9793 18.4052 12.1199 18.58 12.2655C18.9083 12.5417 19.2052 12.8298 19.4779 13.121L26.0278 14.3922L26.0992 14.4095C26.45 14.5154 26.671 14.8727 26.5998 15.2409C26.5327 15.5866 26.2304 15.8273 25.8899 15.8274C25.8452 15.8273 25.7991 15.8241 25.751 15.8148L20.6806 14.8301C20.8302 15.1386 20.9463 15.4501 21.0269 15.7637L25.587 16.652C25.9803 16.7283 26.2349 17.1087 26.159 17.5008C26.0919 17.8464 25.7897 18.0871 25.4491 18.0872L25.3102 18.0746L21.1475 17.2635C21.1406 17.3264 21.1316 17.3953 21.1185 17.4612C21.0417 17.8541 20.6591 18.108 20.2688 18.0322C20.0032 17.9802 19.8176 17.789 19.7354 17.5673L19.7345 17.5654C19.7345 17.5654 19.7331 17.5611 19.7306 17.5557C19.7264 17.5464 19.7174 17.5263 19.7104 17.5017L19.7084 17.4969C19.693 17.4371 19.695 17.3612 19.6949 17.3445C19.6949 17.3445 19.6936 17.34 19.693 17.3368C19.6925 17.3338 19.6918 17.3289 19.6911 17.3243C19.6883 17.3055 19.6847 17.2704 19.6901 17.2288C19.7022 17.1333 19.7069 17.089 19.7104 17.0417C19.7146 16.9694 19.719 16.9122 19.719 16.8536C19.719 16.7312 19.712 16.6056 19.6949 16.4813C19.6027 15.7806 19.2188 15.0122 18.5655 14.2639C18.299 13.9643 17.9884 13.6645 17.6483 13.3785C17.1859 12.9949 16.6534 12.631 16.0694 12.3021L16.0684 12.3012C15.9306 12.2221 15.788 12.1533 15.6315 12.0716C15.4958 11.9996 15.3784 11.9325 15.2496 11.87C15.1135 11.8046 14.9771 11.7512 14.8242 11.6839C14.6676 11.6144 14.5307 11.5488 14.3825 11.4891L14.3815 11.4881C14.3815 11.4881 14.3769 11.4865 14.3738 11.4852L13.9234 11.3135C13.468 11.1487 12.9986 11.0043 12.5239 10.8824L12.523 10.8814C11.1699 10.5302 9.83954 10.3725 8.57335 10.4088C7.09992 10.4484 5.82869 10.7497 4.87837 11.2393C3.92738 11.7293 3.31365 12.3983 3.11238 13.1702C2.82595 14.3013 3.3945 15.6559 4.78289 16.9201L5.07223 17.1719C5.259 17.3287 5.35332 17.568 5.32783 17.8065L5.3095 17.9087L4.51861 20.9816L4.55719 21.0482L4.55816 21.0491C4.72263 21.3852 4.60218 21.788 4.29099 21.9818L4.22637 22.0184L3.95728 22.1496C3.85502 22.2004 3.74613 22.2239 3.639 22.2239C3.4751 22.2239 3.31377 22.1676 3.18279 22.0618L3.18182 22.0609C2.96361 21.8823 2.86714 21.5923 2.93781 21.3182L3.79717 17.9762C2.06452 16.3919 1.27458 14.5287 1.71194 12.8085C2.23822 10.7849 4.34108 9.44238 7.21823 9.06818C6.81256 8.34426 6.59817 7.57095 6.59806 6.78233C6.59806 4.8734 7.85062 3.17335 9.80694 1.96082C11.7664 0.746378 14.4592 6.47154e-05 17.4187 0ZM29.8183 18.9089L29.9658 18.7401C29.968 18.7375 29.9694 18.7341 29.9716 18.7314C29.9224 18.7912 29.8719 18.8509 29.8183 18.9089ZM25.9651 17.4631L25.9748 17.3696C25.9748 17.367 25.9738 17.3644 25.9738 17.3619C25.9738 17.3952 25.9717 17.4292 25.9651 17.4631ZM30.7644 16.6539C30.7629 16.7467 30.7577 16.8394 30.748 16.9317C30.7672 16.7471 30.7704 16.5614 30.7577 16.3752L30.7644 16.6539ZM25.8899 15.6306L25.9815 15.6219C25.9516 15.6272 25.9209 15.6306 25.8899 15.6306C25.8557 15.6306 25.8228 15.6275 25.7886 15.621L25.8899 15.6306ZM27.7215 13.5299C27.8124 13.5971 27.9006 13.6649 27.9857 13.7334C28.0713 13.8023 28.1541 13.8716 28.2336 13.9418C28.3921 14.0816 28.5383 14.2242 28.6725 14.3681C28.4041 14.0801 28.0861 13.7991 27.7215 13.5299ZM14.4471 11.3019L14.4519 11.3039L14.4462 11.301L14.4471 11.3019ZM21.3915 11.3627C21.302 11.3561 21.2138 11.3512 21.1243 11.3473L21.3915 11.3627ZM20.3074 11.3367C20.1034 11.3406 19.9004 11.3531 19.7017 11.3675C19.9004 11.3531 20.1044 11.3416 20.3084 11.3376L20.3074 11.3367ZM17.4207 1.44867C14.81 1.44867 12.452 2.06272 10.7541 3.04394C9.05118 4.02814 8.04692 5.35722 8.04674 6.78136C8.04681 7.51947 8.33183 8.2641 8.88585 8.95437C8.90144 8.95432 8.91711 8.95437 8.93214 8.95437C9.05352 8.95438 9.20508 8.96467 9.30733 8.96691H9.30926C9.44882 8.97078 9.59388 8.97329 9.73942 8.98137C9.949 8.99348 10.1604 9.01378 10.3663 9.03346C10.4956 9.04612 10.6363 9.05739 10.7753 9.07493C11.0105 9.1045 11.2465 9.14461 11.4784 9.18392C11.5755 9.20085 11.7099 9.21887 11.8227 9.24082C12.1622 9.30606 12.5047 9.38247 12.847 9.47037L12.8769 9.47712L12.8856 9.47905L12.9155 9.48773C12.9206 9.48937 12.9238 9.4909 12.9261 9.49159C13.2563 9.57682 13.5826 9.67118 13.9012 9.77515C13.9488 9.79056 14.0024 9.81103 14.0401 9.82434C14.1829 9.87196 14.3239 9.921 14.4645 9.97191L14.885 10.1311L14.8879 10.132C14.9542 10.1596 15.0334 10.1957 15.0924 10.2207C15.3294 10.3195 15.5682 10.421 15.8003 10.5323C15.9125 10.585 16.0262 10.647 16.1253 10.6972C16.2242 10.7476 16.3393 10.8038 16.4484 10.8602C16.4644 10.854 16.4797 10.8475 16.4947 10.8419C16.54 10.8248 16.5795 10.8102 16.6172 10.7946L16.9567 10.6596L17.3869 10.5217L17.7495 10.4165C17.9022 10.3771 18.0588 10.3463 18.2087 10.3153C18.3265 10.2914 18.458 10.2618 18.5887 10.24C18.7521 10.2128 18.9201 10.1939 19.0796 10.1745C19.2054 10.159 19.3373 10.1413 19.4731 10.1291C19.6453 10.1142 19.8254 10.1079 19.992 10.1002L20.3923 10.0828C20.5782 10.0801 20.767 10.0883 20.9459 10.0934C21.0635 10.097 21.2062 10.0962 21.3394 10.104C21.547 10.1149 21.757 10.1382 21.9586 10.159L22.3106 10.1928L22.7736 10.2584L23.2385 10.3394L23.2433 10.3403L23.2578 10.3423C23.2659 10.3435 23.2812 10.3465 23.2973 10.35L23.2964 10.3519C23.299 10.3524 23.3017 10.3524 23.3041 10.3529L23.305 10.351C23.5541 10.3969 23.8036 10.4536 24.0516 10.5159C25.8259 9.49221 26.7887 8.13486 26.7888 6.78136C26.7886 5.35723 25.7845 4.02814 24.0824 3.04394C22.3853 2.06274 20.0292 1.44871 17.4207 1.44867ZM29.201 9.74429C29.2044 9.79033 29.2024 9.83728 29.1933 9.88414L29.202 9.81759C29.2036 9.79299 29.2028 9.76852 29.201 9.74429ZM7.9609 7.60215C7.99595 7.73423 8.03654 7.86633 8.08821 7.99662L7.98404 7.6957C7.9749 7.66482 7.96912 7.63312 7.9609 7.60215ZM6.79579 6.78233L6.80736 7.09772C6.81487 7.19643 6.82662 7.29476 6.84112 7.39285C6.81122 7.1904 6.79579 6.98712 6.79579 6.78233ZM27.7031 5.13786C27.9218 5.66339 28.0387 6.21408 28.0388 6.78136C28.0388 6.94614 28.0273 7.11035 28.0079 7.27325C28.0165 7.20076 28.0243 7.12817 28.0291 7.05528L28.0388 6.78136C28.0388 6.21437 27.9225 5.66411 27.7041 5.13883L27.7031 5.13786ZM13.6977 1.68594C13.6309 1.70228 13.565 1.72083 13.499 1.73802C13.7066 1.68394 13.9176 1.63218 14.1327 1.58659L13.6977 1.68594ZM12.359 0.993429C12.3198 1.00665 12.2812 1.02139 12.2423 1.0349C12.4306 0.969486 12.622 0.906164 12.8171 0.847791L12.359 0.993429ZM16.3337 0.231479C16.3208 0.232292 16.308 0.23353 16.2951 0.234372C16.4862 0.221858 16.6788 0.212521 16.8728 0.206402L16.3337 0.231479Z" fill="white"/>
<path fill-rule="evenodd" clip-rule="evenodd" d="M6.68776 15.6537C6.68805 15.656 6.68842 15.6582 6.68873 15.6605L6.68776 15.6537Z" fill="white"/>
<path fill-rule="evenodd" clip-rule="evenodd" d="M21.5535 5.27868C21.5473 5.27983 21.5411 5.28094 21.5348 5.28198L21.5535 5.27868Z" fill="white"/>
<path fill-rule="evenodd" clip-rule="evenodd" d="M14.6446 7.97366C14.6389 7.97269 14.6332 7.97166 14.6275 7.97058L14.6446 7.97366Z" fill="white"/>
<path fill-rule="evenodd" clip-rule="evenodd" d="M7.39184 14.8879L14.3555 16.6848C14.7425 16.7846 14.9759 17.179 14.8763 17.5663C14.7912 17.8915 14.4977 18.1093 14.1751 18.1094C14.1156 18.1093 14.0553 18.1024 13.9938 18.0862L7.03112 16.2903C6.64399 16.1908 6.41017 15.7961 6.50933 15.4088L6.5103 15.4078C6.61148 15.021 7.00564 14.7882 7.39184 14.8879ZM6.68873 15.6605L6.68776 15.6537C6.68419 15.6243 6.68338 15.5933 6.68487 15.5631L6.68776 15.6537C6.68805 15.656 6.68842 15.6582 6.68873 15.6605Z" fill="white"/>
<path d="M7.16615 12.8471C7.26742 12.4609 7.66229 12.2275 8.04866 12.3272L15.7328 14.3073C16.1199 14.407 16.3531 14.8015 16.2536 15.1889C16.17 15.5156 15.8751 15.7326 15.5534 15.7328C15.4939 15.7328 15.4335 15.7249 15.3721 15.7087L7.68698 13.7296C7.29973 13.63 7.06575 13.2355 7.16519 12.848L7.16615 12.8471Z" fill="white"/>
<path fill-rule="evenodd" clip-rule="evenodd" d="M20.1097 6.73024C20.5113 6.73046 20.833 7.05497 20.835 7.45361C20.8348 7.85356 20.5106 8.17886 20.1106 8.17891H14.7259C14.3259 8.1789 14.0017 7.85455 14.0015 7.45458C14.0017 7.0546 14.3258 6.73026 14.7259 6.73024H20.1097ZM14.6323 7.97251L14.6275 7.97058L14.6446 7.97366L14.7259 7.98119C14.6982 7.98119 14.6711 7.97811 14.6446 7.97366L14.6323 7.97251ZM14.2378 7.6523L14.2359 7.64748L14.2099 7.56067C14.2163 7.59239 14.2259 7.62294 14.2378 7.6523Z" fill="white"/>
<path fill-rule="evenodd" clip-rule="evenodd" d="M21.4561 4.03834C21.8561 4.0384 22.1803 4.36271 22.1804 4.76267C22.1803 5.16262 21.8561 5.48695 21.4561 5.48701H13.3804C12.9787 5.48701 12.6562 5.16233 12.6561 4.76267C12.6562 4.36268 12.9804 4.03834 13.3804 4.03834H21.4561ZM21.5535 5.27868L21.5497 5.28061L21.5348 5.28198C21.5092 5.28624 21.4829 5.28929 21.4561 5.28929L21.5348 5.28198L21.5535 5.27868ZM12.8856 4.94303C12.8769 4.91907 12.8696 4.89425 12.8644 4.86877L12.8856 4.94303Z" fill="white"/>
<path fill-rule="evenodd" clip-rule="evenodd" d="M17.5875 18.4402H17.5943C17.5983 18.4399 17.5974 18.4397 17.6049 18.4392C17.6134 18.4386 17.6338 18.4372 17.657 18.4392L28.2018 19.4934L28.2857 19.5069C28.451 19.5437 28.5987 19.6365 28.7024 19.7702L28.7506 19.8406L30.3304 22.4747C30.4637 22.6984 30.4679 22.978 30.3391 23.2048C30.2107 23.4305 29.9703 23.5722 29.7093 23.5722H28.8538V30.2224C28.8534 30.5931 28.5709 30.9056 28.2008 30.9419L17.6666 31.9961L17.6618 31.9971C17.6452 31.9984 17.6198 32 17.5943 32C17.5674 32 17.543 31.9974 17.5268 31.9961H17.5219L6.98676 30.9429C6.61682 30.9064 6.33512 30.593 6.33476 30.2224V23.5722H5.47925C5.21658 23.5722 4.97673 23.4304 4.84847 23.2048C4.71967 22.9779 4.72464 22.6985 4.85812 22.4747L6.43796 19.8406C6.55499 19.6462 6.75754 19.5156 6.98676 19.4934L17.5316 18.4392H17.5817C17.5839 18.4394 17.5875 18.4402 17.5875 18.4402ZM15.4878 23.5722C15.7481 23.5721 15.9871 23.4323 16.1157 23.2067L16.8699 21.8873V30.4751L7.78343 29.5666V23.5722H15.4878ZM27.4051 29.5666L18.3186 30.4751V21.8873L19.0728 23.2067L19.0738 23.2077C19.1011 23.2545 19.1348 23.2937 19.1568 23.3192L19.1587 23.3215L19.1558 23.3186C19.1602 23.325 19.1725 23.3394 19.1895 23.3562L19.1886 23.3581C19.1907 23.3602 19.1942 23.3619 19.1963 23.3639C19.1983 23.3658 19.1999 23.3688 19.2021 23.3707V23.3687C19.2383 23.4024 19.2751 23.429 19.2976 23.444C19.3045 23.4498 19.3183 23.4582 19.3352 23.4681V23.47C19.3398 23.4728 19.345 23.475 19.3496 23.4777C19.3521 23.479 19.3548 23.4804 19.3574 23.4816C19.4621 23.5403 19.5805 23.5722 19.7017 23.5722H27.4051V29.5666ZM6.54212 30.3208C6.536 30.2889 6.53252 30.256 6.53248 30.2224C6.53248 30.2873 6.5445 30.3489 6.56624 30.4067C6.55586 30.379 6.54778 30.3503 6.54212 30.3208ZM28.6561 30.2224C28.656 30.2534 28.6528 30.2836 28.6472 30.313L28.6464 30.3208C28.6407 30.3505 28.6309 30.3788 28.6204 30.4067C28.6318 30.3765 28.641 30.3452 28.6472 30.313L28.6561 30.2224ZM30.1674 23.1064C30.1599 23.1196 30.1517 23.1322 30.1429 23.1444L30.1288 23.1662C30.1255 23.1705 30.1207 23.1736 30.1173 23.1778C30.1261 23.1669 30.1347 23.1559 30.1429 23.1444L30.1674 23.1064ZM6.75817 22.1236L7.49119 20.8977L16.2671 20.02L15.0673 22.1236H6.75817ZM28.4294 22.1236H20.1212L18.9204 20.021L27.6945 20.8967L28.4294 22.1236Z" fill="white"/>
</svg>
