<svg width="33" height="32" viewBox="0 0 33 32" fill="none" xmlns="http://www.w3.org/2000/svg">
<g clip-path="url(#clip0_464_1985)">
<path d="M25.5783 2.39999H7.97832C4.00832 2.39999 0.77832 5.62959 0.77832 9.59999V17.6C0.77832 21.5704 4.00832 24.8 7.97832 24.8H10.3783V28.8C10.3783 29.1236 10.5731 29.4156 10.8719 29.5392C10.9711 29.5804 11.0751 29.6 11.1783 29.6C11.3867 29.6 11.5907 29.5188 11.7439 29.3656L16.3095 24.8H25.5783C29.5483 24.8 32.7783 21.5704 32.7783 17.6V9.59999C32.7783 5.62959 29.5483 2.39999 25.5783 2.39999ZM31.1783 17.6C31.1783 20.6876 28.6663 23.2 25.5783 23.2H15.9783C15.7663 23.2 15.5627 23.2844 15.4127 23.4344L11.9783 26.8688V24C11.9783 23.558 11.6199 23.2 11.1783 23.2H7.97832C4.89032 23.2 2.37832 20.6876 2.37832 17.6V9.59999C2.37832 6.51239 4.89032 3.99999 7.97832 3.99999H25.5783C28.6663 3.99999 31.1783 6.51239 31.1783 9.59999V17.6ZM7.65249 16.5776C7.96609 16.8884 7.96849 17.3948 7.65769 17.7088C7.5009 17.8668 7.29529 17.9456 7.08929 17.9456C6.88569 17.9456 6.68209 17.8684 6.52609 17.7136C5.46529 16.6624 4.88129 15.2564 4.88129 13.7532C4.88129 10.772 7.22489 8.33398 10.1661 8.16918L9.91569 7.91877C9.60329 7.60637 9.60329 7.09997 9.91569 6.78757C10.2281 6.47517 10.7345 6.47517 11.0469 6.78757L12.6469 8.38757C12.9593 8.69997 12.9593 9.20638 12.6469 9.51877L11.0469 11.1188C10.8905 11.2752 10.6861 11.3532 10.4813 11.3532C10.2765 11.3532 10.0721 11.2752 9.91569 11.1188C9.60329 10.8064 9.60329 10.3 9.91569 9.98757L10.1129 9.79037C8.08209 9.97997 6.48129 11.674 6.48129 13.7532C6.48129 14.826 6.89729 15.8288 7.65249 16.5776ZM27.2277 9.63999C28.2881 10.6908 28.8721 12.0968 28.8721 13.6C28.8721 16.5812 26.5285 19.0192 23.5873 19.184L23.8377 19.4344C24.1501 19.7468 24.1501 20.2532 23.8377 20.5656C23.6813 20.722 23.4769 20.8 23.2721 20.8C23.0673 20.8 22.8629 20.722 22.7065 20.5656L21.1065 18.9656C20.7941 18.6532 20.7941 18.1468 21.1065 17.8344L22.7065 16.2344C23.0189 15.922 23.5253 15.922 23.8377 16.2344C24.1501 16.5468 24.1501 17.0532 23.8377 17.3656L23.6405 17.5628C25.6713 17.3732 27.2721 15.6792 27.2721 13.6C27.2721 12.5272 26.8561 11.5244 26.1009 10.7756C25.7873 10.4648 25.7849 9.95839 26.0957 9.64439C26.4069 9.32959 26.9129 9.32799 27.2277 9.63999Z" fill="white"/>
<path d="M18.9283 15.9895C18.6281 16.2897 18.1414 16.2897 17.8412 15.9895L14.6283 12.7766C14.3281 12.4764 14.3281 11.9897 14.6283 11.6895C14.9285 11.3892 15.4152 11.3892 15.7155 11.6895L18.9283 14.9023C19.2286 15.2026 19.2286 15.6893 18.9283 15.9895ZM15.7155 15.9895C15.4152 16.2897 14.9285 16.2897 14.6283 15.9895C14.3281 15.6893 14.3281 15.2026 14.6283 14.9023L17.8412 11.6895C18.1414 11.3892 18.6281 11.3892 18.9283 11.6895C19.2286 11.9897 19.2286 12.4764 18.9283 12.7766L15.7155 15.9895Z" fill="white"/>
</g>
<defs>
<clipPath id="clip0_464_1985">
<rect width="32" height="32" fill="white" transform="translate(0.77832)"/>
</clipPath>
</defs>
</svg>
