<svg width="33" height="32" viewBox="0 0 33 32" fill="none" xmlns="http://www.w3.org/2000/svg">
<path d="M23.8 16.1173V22.8887C23.8 24.3819 22.5895 25.5925 21.0963 25.5925H12.9848L7.57745 31V25.5925H4.87368C3.38046 25.5925 2.16992 24.3819 2.16992 22.8887V12.0737C2.16992 10.5804 3.38046 9.3699 4.87368 9.3699H12.985H17.0406H19.0684" stroke="white" stroke-width="1.5" stroke-miterlimit="10" stroke-linecap="round" stroke-linejoin="round"/>
<circle cx="22.7948" cy="5.49453" r="4.49453" stroke="white" stroke-width="1.5" stroke-linecap="round"/>
<path d="M30.387 16.154C30.387 14.1405 29.5871 12.2093 28.1633 10.7855C26.7395 9.36173 24.8084 10.1141 22.7948 10.1141C20.7812 10.1141 18.8501 9.36173 17.4263 10.7855C16.0025 12.2093 15.2026 14.1404 15.2026 16.154L22.7948 16.154H30.387Z" stroke="white" stroke-width="1.5" stroke-linecap="round"/>
</svg>
