<?xml version="1.0" encoding="utf-8"?>
<!-- Generator: Adobe Illustrator 24.3.0, SVG Export Plug-In . SVG Version: 6.00 Build 0)  -->
<svg version="1.1" id="Layer_1" xmlns="http://www.w3.org/2000/svg" xmlns:xlink="http://www.w3.org/1999/xlink" x="0px" y="0px"
	 width="25.5px" height="34px" viewBox="0 0 25.5 34" style="enable-background:new 0 0 25.5 34;" xml:space="preserve">
<style type="text/css">
	.st0{fill:#FFFFFF;}
	.st1{fill-rule:evenodd;clip-rule:evenodd;fill:#FFFFFF;}
</style>
<g>
	<path class="st0" d="M19.3,10.9c-1.8-0.8-4.1-1.2-6.6-1.2c-2.5,0-4.8,0.4-6.6,1.2c-1.9,0.8-3,2-3,3.3h0v15.2c0,1.3,1.1,2.5,3,3.3
		c1.8,0.8,4.1,1.2,6.6,1.2s4.8-0.4,6.6-1.2c1.9-0.8,3-2,3-3.3V14.2C22.3,12.9,21.2,11.8,19.3,10.9z M18.9,31.7
		c-1.6,0.7-3.8,1.1-6.1,1.1c-2.3,0-4.5-0.4-6.1-1.1c-1.5-0.6-2.3-1.5-2.3-2.3v-1.6c0.5,0.4,1.1,0.8,1.9,1.2c1.8,0.8,4.1,1.2,6.6,1.2
		s4.8-0.4,6.6-1.2c0.8-0.3,1.4-0.7,1.9-1.2v1.6C21.2,30.3,20.4,31.1,18.9,31.7L18.9,31.7z M18.9,27.9c-1.6,0.7-3.8,1.1-6.1,1.1
		c-2.3,0-4.5-0.4-6.1-1.1c-1.5-0.6-2.3-1.5-2.3-2.3V24c0.5,0.4,1.1,0.8,1.9,1.2c1.8,0.8,4.1,1.2,6.6,1.2s4.8-0.4,6.6-1.2
		c0.8-0.3,1.4-0.7,1.9-1.2v1.6C21.2,26.4,20.4,27.3,18.9,27.9L18.9,27.9z M18.9,24.1c-1.6,0.7-3.8,1.1-6.1,1.1
		c-2.3,0-4.5-0.4-6.1-1.1c-1.5-0.6-2.3-1.5-2.3-2.3v-1.6c0.5,0.4,1.1,0.8,1.9,1.2c1.8,0.8,4.1,1.2,6.6,1.2s4.8-0.4,6.6-1.2
		c0.8-0.3,1.4-0.7,1.9-1.2v1.6C21.2,22.6,20.4,23.5,18.9,24.1L18.9,24.1z M18.9,20.3c-1.6,0.7-3.8,1.1-6.1,1.1
		c-2.3,0-4.5-0.4-6.1-1.1c-1.5-0.6-2.3-1.5-2.3-2.3v-1.6c0.5,0.4,1.1,0.8,1.9,1.2c1.8,0.8,4.1,1.2,6.6,1.2s4.8-0.4,6.6-1.2
		c0.8-0.3,1.4-0.7,1.9-1.2V18C21.2,18.8,20.4,19.7,18.9,20.3L18.9,20.3z M18.9,16.5c-1.6,0.7-3.8,1.1-6.1,1.1
		c-2.3,0-4.5-0.4-6.1-1.1c-1.5-0.6-2.3-1.5-2.3-2.3v0c0-0.8,0.8-1.7,2.3-2.3c1.6-0.7,3.8-1.1,6.1-1.1s4.5,0.4,6.1,1.1
		c1.5,0.6,2.3,1.5,2.3,2.3C21.2,15,20.4,15.9,18.9,16.5L18.9,16.5z M15,15.2c0.1,0.4,0,0.7-0.3,1c-0.4,0.4-1,0.6-1.5,0.7V17
		c0,0.3-0.2,0.5-0.5,0.5s-0.5-0.2-0.5-0.5v-0.1c-0.9-0.1-1.5-0.6-1.7-1.3c-0.1-0.3,0.1-0.6,0.4-0.7c0.3-0.1,0.6,0.1,0.7,0.4
		c0,0,0,0,0,0c0.1,0.3,0.7,0.6,1.3,0.6c0.5,0,0.9-0.2,1.1-0.3c0,0,0-0.1,0-0.1c-0.1-0.3-0.7-0.5-1.3-0.6c-1.6-0.2-2-0.9-2-1.5
		c0-0.7,0.5-1.3,1.3-1.6c0.1,0,0.1,0,0.2-0.1v-0.1c0-0.3,0.2-0.5,0.5-0.5s0.5,0.2,0.5,0.5v0.1c0.6,0.1,1.2,0.5,1.5,1
		c0.1,0.3,0,0.6-0.2,0.7c-0.3,0.1-0.6,0-0.7-0.2l0,0c-0.3-0.5-1-0.6-1.6-0.5c-0.3,0.1-0.6,0.2-0.5,0.5c0,0.2,0.4,0.4,1.1,0.5
		C13.3,13.7,14.8,13.9,15,15.2L15,15.2z M10.9,6.5c-0.2-0.3-0.1-0.6,0.1-0.8c0.2-0.2,0.6-0.1,0.8,0.1l0.4,0.6V0.5
		c0-0.3,0.2-0.5,0.5-0.5s0.5,0.2,0.5,0.5v5.9l0.4-0.6c0.2-0.3,0.5-0.3,0.8-0.1s0.3,0.5,0.1,0.8l-1.4,2.1c-0.2,0.3-0.5,0.3-0.8,0.1
		c-0.1,0-0.1-0.1-0.1-0.1L10.9,6.5z M25.4,10.2L24,12.3c-0.2,0.3-0.5,0.3-0.8,0.1c-0.1,0-0.1-0.1-0.1-0.1l-1.4-2.1
		c-0.2-0.3-0.1-0.6,0.2-0.8c0.2-0.2,0.6-0.1,0.8,0.1l0.4,0.6V4.3c0-0.3,0.2-0.5,0.5-0.5c0.3,0,0.5,0.2,0.5,0.5v5.9l0.4-0.6
		c0.2-0.3,0.5-0.3,0.8-0.1C25.5,9.7,25.6,10,25.4,10.2L25.4,10.2z M3.8,10.2l-1.4,2.1c-0.2,0.3-0.5,0.3-0.8,0.1
		c-0.1,0-0.1-0.1-0.1-0.1l-1.4-2.1C-0.1,10,0,9.7,0.2,9.5C0.5,9.3,0.8,9.4,1,9.6c0,0,0,0,0,0l0.4,0.6V4.3C1.4,4,1.7,3.8,2,3.8
		S2.5,4,2.5,4.3v5.9l0.4-0.6c0.2-0.3,0.5-0.3,0.8-0.1C3.9,9.7,4,10,3.8,10.2z"/>
</g>
</svg>
