<?xml version="1.0" encoding="utf-8"?>
<!-- Generator: Adobe Illustrator 24.3.0, SVG Export Plug-In . SVG Version: 6.00 Build 0)  -->
<svg version="1.1" id="Layer_1" xmlns="http://www.w3.org/2000/svg" xmlns:xlink="http://www.w3.org/1999/xlink" x="0px" y="0px"
	 width="28.3px" height="27.2px" viewBox="0 0 28.3 27.2" style="enable-background:new 0 0 28.3 27.2;" xml:space="preserve">
<style type="text/css">
	.st0{fill:#FFFFFF;}
	.st1{fill-rule:evenodd;clip-rule:evenodd;fill:#FFFFFF;}
</style>
<g>
	<path class="st0" d="M2.6,27.2c-0.2,0-0.4-0.2-0.4-0.4V25c0-0.1-0.1-0.2-0.2-0.2H0.4c-0.2,0-0.4-0.2-0.4-0.4s0.2-0.4,0.4-0.4H2
		c0.1,0,0.2-0.1,0.2-0.2V1.6c0-0.1,0-0.1-0.1-0.2c0,0-0.1,0-0.1,0c0,0-0.1,0-0.1,0L1.4,1.9C1.3,1.9,1.2,2,1.1,2C1,2,0.9,1.9,0.9,1.8
		c-0.1-0.2-0.1-0.4,0-0.5l1.5-1.2c0,0,0.1-0.1,0.1-0.1c0,0,0.1,0,0.1,0l0.1,0l0.1,0l1.5,1.3c0.1,0.1,0.1,0.1,0.1,0.2
		c0,0.1,0,0.2-0.1,0.3C4.3,1.9,4.2,2,4.1,2C4,2,3.9,1.9,3.8,1.9L3.3,1.4c0,0-0.1,0-0.1,0c0,0-0.1,0-0.1,0C3,1.4,3,1.5,3,1.6v4.2
		C3,5.9,3.1,6,3.2,6h4.5c0.2,0,0.4,0.2,0.4,0.4S7.9,6.7,7.7,6.7H3.2C3.1,6.7,3,6.8,3,6.9v6.6c0,0.1,0.1,0.2,0.2,0.2h7.3
		c0.1,0,0.1,0,0.1-0.1L17.2,7c0.1-0.1,0.1-0.1,0-0.2c0-0.1-0.1-0.1-0.2-0.1h-4.4c-0.2,0-0.4-0.2-0.4-0.4S12.4,6,12.6,6h5.5
		c0.1,0,0.1,0,0.1-0.1l2.5-2.5c0.1-0.1,0.1-0.2,0-0.3l-1.4-1.4c-0.1-0.1-0.1-0.3-0.1-0.4c0.1-0.1,0.2-0.2,0.3-0.2l5.9,0
		c0.1,0,0.2,0,0.3,0.1c0.1,0.1,0.1,0.2,0.1,0.3v5.9c0,0.1-0.1,0.3-0.2,0.3c0,0-0.1,0-0.1,0c-0.1,0-0.2,0-0.3-0.1l-1.3-1.3
		c0,0-0.1-0.1-0.1-0.1s-0.1,0-0.1,0.1l-2.5,2.5c0,0-0.1,0.1-0.1,0.1v14.9c0,0.1,0.1,0.2,0.2,0.2h5.5c0.1,0,0.1,0,0.2-0.1
		c0-0.1,0-0.2,0-0.2l-0.5-0.5c-0.1-0.1-0.1-0.2-0.1-0.3c0-0.1,0.1-0.2,0.1-0.2c0.1-0.1,0.1-0.1,0.2-0.1c0.1,0,0.2,0,0.3,0.1l1.2,1.5
		c0,0,0.1,0.1,0.1,0.1c0,0,0,0.1,0,0.1l0,0.1l0,0.1c0,0-0.1,0.1-0.1,0.1l0.1-0.1L27,26.1c-0.1,0.1-0.2,0.1-0.3,0.1
		c-0.1,0-0.2,0-0.2-0.1c-0.1-0.1-0.1-0.1-0.1-0.2c0-0.1,0-0.2,0.1-0.3l0.5-0.5c0.1-0.1,0.1-0.1,0-0.2c0-0.1-0.1-0.1-0.2-0.1H3.2
		C3.1,24.8,3,24.9,3,25v1.9C3,27.1,2.8,27.2,2.6,27.2z M20.1,9.9c-0.1,0-0.1,0-0.1,0.1l-6.6,6.6c0,0-0.1,0.1-0.1,0.1v7.2
		c0,0.1,0.1,0.2,0.2,0.2h6.6c0.1,0,0.2-0.1,0.2-0.2V10.1C20.3,10,20.3,9.9,20.1,9.9C20.2,9.9,20.1,9.9,20.1,9.9z M12.4,17.6
		c-0.1,0-0.1,0-0.1,0.1l-6.1,6.1c-0.1,0.1-0.1,0.1,0,0.2c0,0.1,0.1,0.1,0.2,0.1h6.1c0.1,0,0.2-0.1,0.2-0.2v-6.1
		C12.6,17.7,12.5,17.6,12.4,17.6C12.4,17.6,12.4,17.6,12.4,17.6z M21,1.9c-0.1,0-0.2,0-0.2,0.1s0,0.2,0,0.2l0.8,0.8
		c0.1,0.1,0.1,0.4,0,0.5L3,22.2c0,0-0.1,0.1-0.1,0.1v1.5c0,0.1,0.1,0.2,0.2,0.2h1.6c0.1,0,0.1,0,0.1-0.1L23.5,5.4
		c0.1-0.1,0.2-0.1,0.3-0.1c0.1,0,0.2,0,0.3,0.1l0.8,0.8c0,0,0.1,0.1,0.1,0.1c0,0,0.1,0,0.1,0c0.1,0,0.1-0.1,0.1-0.2v-4
		c0-0.1,0-0.1-0.1-0.1c0,0-0.1-0.1-0.1-0.1C24.9,1.9,21,1.9,21,1.9z M3.2,14.4c-0.1,0-0.2,0.1-0.2,0.2v6.1c0,0.1,0,0.2,0.1,0.2
		c0,0,0.1,0,0.1,0c0.1,0,0.1,0,0.1-0.1l6.1-6.1c0.1-0.1,0.1-0.1,0-0.2c0-0.1-0.1-0.1-0.2-0.1H3.2z"/>
	<path class="st0" d="M9.9,6.8C10,6.8,10,6.8,9.9,6.8c0.1,0.1,0.2,0.1,0.2,0.1c0,0,0.1,0,0.1,0c0,0,0.1,0,0.1,0c0,0,0.1,0,0.1,0
		c0,0,0.1,0,0.1-0.1c0,0,0.1,0,0.1-0.1c0.1-0.1,0.2-0.2,0.2-0.4c0,0,0-0.1,0-0.1c0,0,0-0.1,0-0.1c0,0,0-0.1-0.1-0.1
		c0,0,0-0.1-0.1-0.1c0,0-0.1,0-0.1-0.1c0,0-0.1,0-0.1-0.1c0,0-0.1,0-0.1,0c-0.1,0-0.1,0-0.2,0c0,0-0.1,0-0.1,0c0,0-0.1,0-0.1,0.1
		c0,0-0.1,0-0.1,0.1c0,0,0,0.1-0.1,0.1c0,0,0,0.1-0.1,0.1c0,0,0,0.1,0,0.1c0,0,0,0.1,0,0.1C9.7,6.5,9.8,6.6,9.9,6.8
		C9.9,6.8,9.9,6.8,9.9,6.8z"/>
</g>
</svg>
