<?xml version="1.0" encoding="utf-8"?>
<!-- Generator: Adobe Illustrator 24.3.0, SVG Export Plug-In . SVG Version: 6.00 Build 0)  -->
<svg version="1.1" id="Layer_1" xmlns="http://www.w3.org/2000/svg" xmlns:xlink="http://www.w3.org/1999/xlink" x="0px" y="0px"
	 width="31.7px" height="34px" viewBox="0 0 31.7 34" style="enable-background:new 0 0 31.7 34;" xml:space="preserve">
<style type="text/css">
	.st0{fill:#FFFFFF;}
	.st1{fill-rule:evenodd;clip-rule:evenodd;fill:#FFFFFF;}
</style>
<g>
	<path class="st1" d="M28.9,32.9h2.2c0.3,0,0.5,0.2,0.5,0.5S31.4,34,31.1,34H0.5C0.2,34,0,33.7,0,33.4s0.2-0.5,0.5-0.5h2.2V20.6h0
		c0,0,0,0,0-0.1c0-0.5,0.3-0.9,0.8-1.3C4.1,18.9,5,18.6,6,18.6s1.9,0.3,2.5,0.6C9,19.6,9.3,20,9.3,20.5c0,0,0,0,0,0.1h0v12.3h3.3
		V14.6c0-0.5,0.3-0.9,0.8-1.3c0.6-0.4,1.5-0.6,2.5-0.6s1.9,0.3,2.5,0.6c0.5,0.3,0.8,0.8,0.8,1.3v18.3h3.3V7.6c0-0.5,0.3-0.9,0.8-1.3
		c0.6-0.4,1.5-0.6,2.5-0.6s1.9,0.3,2.5,0.6c0.5,0.3,0.8,0.8,0.8,1.3V32.9z M3.8,32.9h4.3V21.9c-0.6,0.3-1.3,0.5-2.2,0.5
		s-1.6-0.2-2.2-0.5V32.9z M13.7,32.9H18V16c-0.6,0.3-1.3,0.5-2.2,0.5s-1.6-0.2-2.2-0.5L13.7,32.9z M23.5,32.9h4.3V9
		c-0.6,0.3-1.3,0.5-2.2,0.5c-0.8,0-1.6-0.2-2.2-0.5L23.5,32.9z M18,14.6c0-0.1-0.1-0.2-0.3-0.3c-0.4-0.3-1.1-0.5-1.9-0.5
		c-0.8,0-1.5,0.2-1.9,0.5c-0.2,0.1-0.3,0.2-0.3,0.3s0.1,0.2,0.3,0.3c0.4,0.3,1.1,0.5,1.9,0.5c0.8,0,1.5-0.2,1.9-0.5
		C17.9,14.8,18,14.7,18,14.6z M27.8,7.6c0-0.1-0.1-0.2-0.3-0.3c-0.4-0.3-1.1-0.5-1.9-0.5S24.2,7,23.8,7.2c-0.2,0.1-0.3,0.2-0.3,0.3
		c0,0.1,0.1,0.2,0.3,0.3c0.4,0.3,1.1,0.5,1.9,0.5s1.5-0.2,1.9-0.5C27.7,7.8,27.8,7.7,27.8,7.6z M6,19.7c-0.8,0-1.5,0.2-1.9,0.5
		c-0.2,0.1-0.3,0.2-0.3,0.3c0,0.1,0.1,0.2,0.3,0.3c0.4,0.3,1.1,0.5,1.9,0.5s1.5-0.2,1.9-0.5c0.2-0.1,0.3-0.2,0.3-0.3
		s-0.1-0.2-0.3-0.3C7.5,19.9,6.8,19.7,6,19.7z M26.1,1.9C19.3,7.7,12,11.3,5,13.7c-0.3,0.1-0.6-0.1-0.7-0.3
		c-0.1-0.3,0.1-0.6,0.3-0.7c6.8-2.3,14-5.8,20.6-11.4l-1.1,0.1c-0.3,0-0.6-0.2-0.6-0.5c0-0.3,0.2-0.6,0.5-0.6L26.8,0
		c0.3,0,0.6,0.2,0.6,0.5c0,0,0,0.1,0,0.1L27,3.2c0,0.3-0.3,0.5-0.6,0.5c-0.3,0-0.5-0.3-0.5-0.6L26.1,1.9z"/>
</g>
</svg>
