<?xml version="1.0" encoding="utf-8"?>
<!-- Generator: Adobe Illustrator 24.3.0, SVG Export Plug-In . SVG Version: 6.00 Build 0)  -->
<svg version="1.1" id="Layer_1" xmlns="http://www.w3.org/2000/svg" xmlns:xlink="http://www.w3.org/1999/xlink" x="0px" y="0px"
	 width="36.9px" height="33.5px" viewBox="0 0 36.9 33.5" style="enable-background:new 0 0 36.9 33.5;" xml:space="preserve">
<style type="text/css">
	.st0{fill:#FFFFFF;}
	.st1{fill-rule:evenodd;clip-rule:evenodd;fill:#FFFFFF;}
</style>
<g>
	<path class="st0" d="M5.4,10.4H0.6C0.3,10.4,0,10.7,0,11v21.8c0,0.3,0.3,0.6,0.6,0.6h4.8c0.4,0,0.6-0.3,0.6-0.6V11
		C6,10.7,5.8,10.4,5.4,10.4z M4.8,32.2H1.3V11.6h3.5V32.2z"/>
	<path class="st0" d="M32.6,15c-0.1,0.2-0.1,0.4-0.1,0.7c0,1.2,1,2.2,2.2,2.2s2.2-1,2.2-2.2c0-1.2-1-2.2-2.2-2.2
		c-0.5,0-1,0.2-1.4,0.5l-9.8-8c0.1-0.2,0.1-0.4,0.1-0.6c0-1.2-1-2.2-2.2-2.2s-2.2,1-2.2,2.2c0,0.2,0,0.4,0.1,0.6l-5.7,3.5
		c-0.4-0.3-0.9-0.6-1.5-0.6c-0.4,0-0.8,0.1-1.1,0.3L4.6,3.3C4.8,3,4.9,2.6,4.9,2.2C4.9,1,3.9,0,2.7,0S0.5,1,0.5,2.2s1,2.2,2.2,2.2
		c0.4,0,0.7-0.1,1-0.2l6.5,5.9c-0.1,0.3-0.2,0.6-0.2,1c0,1.2,1,2.2,2.2,2.2c1.2,0,2.2-1,2.2-2.2c0-0.2,0-0.4-0.1-0.6L20,7
		c0.4,0.3,0.9,0.5,1.4,0.5c0.5,0,1-0.2,1.4-0.5L32.6,15z M34.7,14.7c0.5,0,0.9,0.4,0.9,0.9s-0.4,0.9-0.9,0.9c-0.5,0-0.9-0.4-0.9-0.9
		c0-0.2,0.1-0.4,0.1-0.5c0,0,0,0,0,0C34,14.9,34.3,14.7,34.7,14.7z M1.8,2.2c0-0.5,0.4-0.9,0.9-0.9c0.5,0,0.9,0.4,0.9,0.9
		S3.2,3.1,2.7,3.1C2.2,3.1,1.8,2.7,1.8,2.2z M12.1,12c-0.5,0-0.9-0.4-0.9-0.9c0-0.2,0.1-0.4,0.2-0.6c0,0,0,0,0.1-0.1c0,0,0,0,0,0
		c0.2-0.2,0.4-0.3,0.6-0.3c0.5,0,0.9,0.4,0.9,0.9C13.1,11.6,12.7,12,12.1,12z M21.4,6.2c-0.5,0-0.9-0.4-0.9-0.9
		c0-0.5,0.4-0.9,0.9-0.9c0.5,0,0.9,0.4,0.9,0.9S21.9,6.2,21.4,6.2z"/>
	<path class="st0" d="M36,20.7h-4.8c-0.3,0-0.6,0.3-0.6,0.6v11.5c0,0.3,0.3,0.6,0.6,0.6H36c0.3,0,0.6-0.3,0.6-0.6V21.3
		C36.6,21,36.3,20.7,36,20.7z M35.4,32.2h-3.5V21.9h3.5V32.2z"/>
	<path class="st0" d="M27.9,16.6h-4.8c-0.3,0-0.6,0.3-0.6,0.6v15.6c0,0.3,0.3,0.6,0.6,0.6h4.8c0.3,0,0.6-0.3,0.6-0.6V17.2
		C28.6,16.9,28.3,16.6,27.9,16.6z M27.3,32.2h-3.5V17.9h3.5V32.2z"/>
	<path class="st0" d="M20.4,12.6h-4.8c-0.3,0-0.6,0.3-0.6,0.6v19.5c0,0.3,0.3,0.6,0.6,0.6h4.8c0.3,0,0.6-0.3,0.6-0.6V13.3
		C21.1,12.9,20.8,12.6,20.4,12.6z M19.8,32.2h-3.5V13.9h3.5V32.2z"/>
	<path class="st0" d="M12.7,17.6H8c-0.3,0-0.6,0.3-0.6,0.6v14.6c0,0.3,0.3,0.6,0.6,0.6h4.8c0.3,0,0.6-0.3,0.6-0.6V18.2
		C13.4,17.8,13.1,17.6,12.7,17.6z M12.1,32.2H8.6V18.8h3.5V32.2z"/>
</g>
</svg>
