<?xml version="1.0" encoding="utf-8"?>
<!-- Generator: Adobe Illustrator 24.3.0, SVG Export Plug-In . SVG Version: 6.00 Build 0)  -->
<svg version="1.1" id="Layer_1" xmlns="http://www.w3.org/2000/svg" xmlns:xlink="http://www.w3.org/1999/xlink" x="0px" y="0px"
	 width="34px" height="34px" viewBox="0 0 34 34" style="enable-background:new 0 0 34 34;" xml:space="preserve">
<style type="text/css">
	.st0{fill:#FFFFFF;}
	.st1{fill-rule:evenodd;clip-rule:evenodd;fill:#FFFFFF;}
</style>
<g>
	<path class="st1" d="M17,7.5c5.3,0,9.5,4.3,9.5,9.5s-4.3,9.5-9.5,9.5S7.5,22.3,7.5,17S11.7,7.5,17,7.5z M23.6,22.3
		c1.2-1.4,1.9-3.3,1.9-5.3c0-4.7-3.8-8.4-8.4-8.4S8.6,12.4,8.6,17c0,2,0.7,3.8,1.9,5.3c0.6-2.2,2.3-3.9,4.4-4.6
		c-0.9-0.7-1.5-1.8-1.5-3c0-2,1.7-3.7,3.7-3.7s3.7,1.7,3.7,3.7c0,1.2-0.6,2.3-1.5,3C21.3,18.4,23,20.2,23.6,22.3L23.6,22.3z
		 M11.4,23.3c1.5,1.4,3.5,2.2,5.7,2.2s4.2-0.8,5.7-2.2c-0.4-2.7-2.8-4.8-5.7-4.8S11.8,20.5,11.4,23.3L11.4,23.3z M17,17.3
		c1.4,0,2.6-1.2,2.6-2.6c0-1.4-1.2-2.6-2.6-2.6s-2.6,1.2-2.6,2.6C14.4,16.2,15.6,17.3,17,17.3L17,17.3z M32.9,17.6h-3.2l0.4,0.5
		c0.2,0.2,0.2,0.6-0.1,0.8c-0.2,0.2-0.6,0.2-0.8-0.1l-1.2-1.4c-0.2-0.2-0.2-0.5,0-0.7l1.2-1.4c0.2-0.2,0.5-0.3,0.8-0.1
		c0.2,0.2,0.3,0.5,0.1,0.8l-0.4,0.5h3.7c0.3,0,0.5,0.2,0.5,0.5c0,8.3-5.9,15.2-13.7,16.7c-0.3,0.1-0.6-0.1-0.6-0.4
		c-0.1-0.3,0.1-0.6,0.4-0.6C27.2,31.2,32.7,25,32.9,17.6z M16.5,4.3V0.5C16.5,0.2,16.7,0,17,0c8.3,0,15.2,5.9,16.7,13.7
		c0.1,0.3-0.1,0.6-0.4,0.6c-0.3,0.1-0.6-0.1-0.6-0.4C31.2,6.8,25,1.4,17.6,1.1v3.2l0.5-0.4c0.2-0.2,0.6-0.2,0.8,0.1
		c0.2,0.2,0.2,0.6-0.1,0.8l-1.4,1.2c-0.2,0.2-0.5,0.2-0.7,0l-1.4-1.2C15,4.5,15,4.1,15.2,3.9c0.2-0.2,0.5-0.3,0.8-0.1L16.5,4.3z
		 M1.1,16.5h3.2l-0.4-0.5c-0.2-0.2-0.2-0.6,0.1-0.8C4.1,15,4.5,15,4.7,15.2l1.2,1.4c0.2,0.2,0.2,0.5,0,0.7l-1.2,1.4
		c-0.2,0.2-0.5,0.3-0.8,0.1c-0.2-0.2-0.3-0.5-0.1-0.8l0.4-0.5H0.5C0.2,17.6,0,17.3,0,17C0,8.7,5.9,1.9,13.7,0.3
		c0.3-0.1,0.6,0.1,0.6,0.4c0.1,0.3-0.1,0.6-0.4,0.6C6.8,2.8,1.4,9,1.1,16.5z M16.5,32.9v-3.2l-0.5,0.4c-0.2,0.2-0.6,0.2-0.8-0.1
		c-0.2-0.2-0.2-0.6,0.1-0.8l1.4-1.2c0.2-0.2,0.5-0.2,0.7,0l1.4,1.2c0.2,0.2,0.3,0.5,0.1,0.8c-0.2,0.2-0.5,0.3-0.8,0.1l-0.5-0.4v3.7
		c0,0.3-0.2,0.5-0.5,0.5C8.7,34,1.9,28.1,0.3,20.3c-0.1-0.3,0.1-0.6,0.4-0.6c0.3-0.1,0.6,0.1,0.6,0.4C2.8,27.2,9,32.7,16.5,32.9z"/>
</g>
</svg>
