<?xml version="1.0" encoding="utf-8"?>
<!-- Generator: Adobe Illustrator 24.3.0, SVG Export Plug-In . SVG Version: 6.00 Build 0)  -->
<svg version="1.1" id="Layer_1" xmlns="http://www.w3.org/2000/svg" xmlns:xlink="http://www.w3.org/1999/xlink" x="0px" y="0px"
	 width="22.6px" height="25.9px" viewBox="0 0 22.6 25.9" style="enable-background:new 0 0 22.6 25.9;" xml:space="preserve">
<style type="text/css">
	.st0{fill:#FFFFFF;}
	.st1{fill-rule:evenodd;clip-rule:evenodd;fill:#FFFFFF;}
</style>
<g>
	<path class="st0" d="M8.9,25.9c-0.1,0-0.3-0.1-0.3-0.3v-2.1c0-0.1,0-0.1,0.1-0.2c0,0,0.1-0.1,0.2-0.1h1.9c0.1,0,0.2-0.1,0.2-0.2v-1
		c0-0.1-0.1-0.2-0.2-0.2c-4.2-0.2-7.7-3.4-8.4-7.5c0-0.1-0.1-0.2-0.2-0.2H0.3C0.1,14.3,0,14.2,0,14v-2.1c0-0.1,0.1-0.3,0.3-0.3h1.9
		c0.1,0,0.2-0.1,0.2-0.2C3.1,7.4,6.6,4.2,10.8,4C10.9,4,11,3.9,11,3.8v-1c0-0.1-0.1-0.2-0.2-0.2H8.9c-0.1,0-0.3-0.1-0.3-0.3V0.3
		C8.6,0.1,8.7,0,8.9,0h4.7c0.1,0,0.3,0.1,0.3,0.3v2.1c0,0.1-0.1,0.3-0.3,0.3h-1.9c-0.1,0-0.2,0.1-0.2,0.2v1c0,0.1,0.1,0.2,0.2,0.2
		c4.2,0.2,7.7,3.4,8.4,7.5c0,0.1,0.1,0.2,0.2,0.2h2c0.1,0,0.3,0.1,0.3,0.3V14c0,0.1-0.1,0.3-0.3,0.3h-2c-0.1,0-0.2,0.1-0.2,0.2
		c-0.7,4.1-4.2,7.3-8.4,7.5c-0.1,0-0.2,0.1-0.2,0.2v1c0,0.1,0.1,0.2,0.2,0.2h1.9c0.1,0,0.3,0.1,0.3,0.3v2.1c0,0.1-0.1,0.3-0.3,0.3
		H8.9z M9.3,23.8c-0.1,0-0.2,0.1-0.2,0.2v1.2c0,0.1,0.1,0.2,0.2,0.2h3.8c0.1,0,0.2-0.1,0.2-0.2V24c0-0.1-0.1-0.2-0.2-0.2H9.3z
		 M3.1,14.3c-0.1,0-0.1,0-0.2,0.1c0,0-0.1,0.1,0,0.2c0.7,4,4.2,6.9,8.3,6.9c4.1,0,7.6-2.9,8.3-6.9c0-0.1,0-0.1,0-0.2
		c0,0-0.1-0.1-0.2-0.1h-1.8c-0.1,0-0.3-0.1-0.3-0.3v-2.1c0-0.1,0.1-0.3,0.3-0.3h1.8c0.1,0,0.1,0,0.2-0.1c0,0,0.1-0.1,0-0.2
		c-0.7-4-4.2-6.9-8.3-6.9c-4.1,0-7.6,2.9-8.3,6.9c0,0.1,0,0.1,0,0.2c0,0,0.1,0.1,0.2,0.1h1.7c0.1,0,0.3,0.1,0.3,0.3V14
		c0,0.1-0.1,0.3-0.3,0.3H3.1z M18.1,12.2c-0.1,0-0.2,0.1-0.2,0.2v1.2c0,0.1,0.1,0.2,0.2,0.2h3.8c0.1,0,0.2-0.1,0.2-0.2v-1.2
		c0-0.1-0.1-0.2-0.2-0.2H18.1z M0.7,12.2c-0.1,0-0.2,0.1-0.2,0.2v1.2c0,0.1,0.1,0.2,0.2,0.2h3.6c0.1,0,0.2-0.1,0.2-0.2v-1.2
		c0-0.1-0.1-0.2-0.2-0.2H0.7z M9.3,0.5c-0.1,0-0.2,0.1-0.2,0.2v1.2c0,0.1,0.1,0.2,0.2,0.2h3.8c0.1,0,0.2-0.1,0.2-0.2V0.7
		c0-0.1-0.1-0.2-0.2-0.2H9.3z M16.4,23.6c0,0-0.1,0-0.1,0L15.4,23c-0.1-0.1-0.2-0.2-0.2-0.3l0.1-1c0-0.1,0.1-0.2,0.2-0.2
		c0.1,0,0.2,0,0.2,0.1c0,0.1,0.1,0.1,0.1,0.2l0,0.2c0,0.1,0,0.1,0.1,0.2c0,0,0.1,0,0.1,0c0,0,0.1,0,0.1,0c2.2-1.1,3.9-3,4.8-5.3
		c0-0.1,0.1-0.2,0.2-0.2c0.2,0,0.2,0.1,0.2,0.2c0,0.1,0,0.1,0,0.2c-1,2.4-2.8,4.3-5,5.5c-0.1,0-0.1,0.1-0.1,0.2c0,0.1,0,0.1,0.1,0.2
		l0.2,0.1c0.1,0,0.1,0.1,0.1,0.2s0,0.1,0,0.2C16.6,23.6,16.5,23.6,16.4,23.6z M7.3,23.2C7.3,23.2,7.2,23.2,7.3,23.2
		c-2.6-1-4.7-2.9-5.9-5.3c0-0.1-0.1-0.1-0.2-0.1c0,0,0,0,0,0c-0.1,0-0.1,0-0.2,0.1l-0.2,0.2c0,0.1-0.1,0.1-0.2,0.1
		c-0.1,0-0.1,0-0.1,0c-0.1-0.1-0.1-0.2-0.1-0.3l0.6-0.9c0-0.1,0.1-0.1,0.2-0.1L2.4,17c0.1,0,0.1,0,0.2,0.1s0.1,0.1,0,0.2
		c0,0.1-0.1,0.2-0.2,0.2c0,0-0.2,0-0.3,0c-0.1,0-0.1,0-0.2,0.1c0,0.1-0.1,0.1,0,0.2c1.2,2.3,3.1,4,5.5,5c0.1,0.1,0.2,0.2,0.1,0.3
		C7.5,23.1,7.4,23.2,7.3,23.2z M11,18.3c-0.4,0-0.8-0.4-0.8-0.8c0-0.2-0.1-0.3-0.3-0.4c-0.1,0-0.2-0.1-0.4-0.1
		c-0.1-0.1-0.3-0.1-0.4-0.2c0,0-0.1,0-0.1,0c-0.1,0-0.2,0.1-0.2,0.1c-0.2,0.2-0.4,0.2-0.6,0.2c0,0,0,0,0,0c-0.2,0-0.4-0.1-0.5-0.2
		l-0.4-0.4C7.1,16.4,7,16.2,7,16c0-0.2,0.1-0.4,0.2-0.6c0.2-0.2,0.2-0.3,0.1-0.5c0-0.1-0.1-0.2-0.2-0.4C7.1,14.5,7,14.4,7,14.3
		C7,14.1,6.9,14,6.7,14c-0.4,0-0.8-0.4-0.8-0.8v-0.5c0-0.4,0.3-0.8,0.8-0.8c0.2,0,0.3-0.1,0.4-0.3c0-0.1,0.1-0.2,0.1-0.4
		c0.1-0.2,0.1-0.3,0.2-0.4c0.1-0.2,0-0.3-0.1-0.4C7.1,10.3,7,10.1,7,9.9c0-0.2,0.1-0.4,0.2-0.6L7.6,9C7.8,8.8,8,8.8,8.2,8.8
		c0.2,0,0.4,0.1,0.6,0.2C8.8,9.1,8.9,9.1,9,9.1c0.1,0,0.1,0,0.2-0.1C9.2,9,9.4,9,9.5,8.9c0.2-0.1,0.3-0.1,0.4-0.1
		c0.2-0.1,0.3-0.1,0.3-0.4c0-0.4,0.4-0.8,0.8-0.8l0.5,0c0.4,0,0.8,0.3,0.8,0.8c0,0.2,0.1,0.3,0.3,0.4c0.1,0,0.2,0.1,0.4,0.1
		C13.1,9,13.2,9,13.3,9c0.1,0,0.1,0.1,0.2,0.1c0.1,0,0.2-0.1,0.2-0.1c0,0,0,0,0,0c0.1-0.1,0.3-0.2,0.5-0.2c0.2,0,0.4,0.1,0.6,0.2
		l0.4,0.4c0.2,0.2,0.2,0.4,0.2,0.6c0,0.2-0.1,0.4-0.2,0.6c-0.1,0.1-0.1,0.3-0.1,0.4c0.2,0.3,0.3,0.6,0.4,0.9c0,0.1,0.1,0.2,0.3,0.2
		c0,0,0,0,0,0c0.5,0,0.8,0.3,0.8,0.8v0.5c0,0.4-0.3,0.8-0.8,0.8c0,0,0,0,0,0c-0.2,0-0.3,0.1-0.3,0.3c0,0.1-0.1,0.2-0.1,0.4
		c-0.1,0.1-0.1,0.3-0.2,0.4c-0.1,0.1,0,0.2,0.1,0.4c0,0,0,0,0,0c0.3,0.3,0.3,0.8,0,1.1l-0.4,0.4c-0.1,0.1-0.3,0.2-0.6,0.2
		c-0.2,0-0.4-0.1-0.6-0.2c0,0-0.2-0.1-0.2-0.1c0,0-0.1,0-0.1,0c-0.3,0.2-0.6,0.3-0.9,0.4c-0.1,0-0.2,0.1-0.2,0.3
		c0,0.5-0.3,0.8-0.8,0.8H11z M9,16.3c0.2,0,0.3,0.1,0.5,0.2c0.1,0,0.2,0.1,0.3,0.1c0.1,0,0.2,0.1,0.3,0.1c0.2,0.1,0.4,0.1,0.5,0.3
		c0.1,0.2,0.2,0.3,0.2,0.5c0,0.1,0,0.3,0.3,0.3h0.5c0.3,0,0.3-0.3,0.3-0.3c0-0.1,0-0.3,0.2-0.5c0.1-0.2,0.3-0.2,0.5-0.3
		c0.1,0,0.2-0.1,0.3-0.1c0.1,0,0.2-0.1,0.3-0.1c0.2-0.1,0.3-0.2,0.5-0.2c0,0,0.1,0,0.1,0c0.2,0,0.3,0.1,0.4,0.2c0,0,0,0,0,0
		c0,0,0.1,0.1,0.2,0.1c0.1,0,0.2,0,0.2-0.1l0.4-0.4c0.1-0.1,0.1-0.3,0-0.4c-0.2-0.2-0.2-0.3-0.3-0.5c0-0.2,0-0.4,0.1-0.6
		c0-0.1,0.1-0.2,0.1-0.3c0-0.1,0.1-0.2,0.1-0.3c0.1-0.2,0.1-0.4,0.3-0.5c0.2-0.1,0.3-0.2,0.5-0.2c0.1,0,0.2,0,0.2-0.1
		c0.1-0.1,0.1-0.1,0.1-0.2v-0.5c0-0.3-0.3-0.3-0.3-0.3c-0.1,0-0.3,0-0.5-0.2C15.1,12.1,15,12,15,11.8c0-0.1-0.1-0.2-0.1-0.3
		c0-0.1-0.1-0.2-0.1-0.3c-0.1-0.2-0.2-0.4-0.1-0.6c0-0.2,0.1-0.3,0.2-0.4c0,0,0,0,0,0c0,0,0.1-0.1,0.1-0.3c0-0.1,0-0.2-0.1-0.2
		l-0.4-0.4c0,0-0.1-0.1-0.2-0.1c-0.1,0-0.1,0-0.2,0.1c-0.2,0.2-0.3,0.2-0.5,0.3c0,0-0.1,0-0.1,0c-0.2,0-0.3-0.1-0.5-0.2
		c-0.1,0-0.2-0.1-0.3-0.1c-0.1,0-0.2-0.1-0.3-0.1c-0.2-0.1-0.4-0.1-0.5-0.3c-0.1-0.2-0.2-0.3-0.2-0.5c0-0.1,0-0.3-0.3-0.3
		c0,0-0.5,0-0.5,0c-0.3,0-0.3,0.3-0.3,0.4c0,0.1,0,0.3-0.2,0.5c-0.1,0.2-0.3,0.2-0.5,0.3c-0.1,0-0.2,0.1-0.3,0.1
		c-0.1,0-0.2,0.1-0.3,0.1C9.3,9.6,9.1,9.6,9,9.6c0,0-0.1,0-0.1,0c-0.2,0-0.4-0.1-0.4-0.2C8.4,9.3,8.3,9.3,8.2,9.3
		C8.1,9.3,8,9.3,8,9.3L7.6,9.7c0,0-0.1,0.1-0.1,0.2c0,0.1,0,0.1,0.1,0.2c0.2,0.2,0.2,0.3,0.3,0.5c0,0.2,0,0.4-0.1,0.6
		c0,0.1-0.1,0.2-0.1,0.3c0,0.1-0.1,0.2-0.1,0.3c-0.1,0.2-0.1,0.4-0.3,0.5c-0.2,0.1-0.3,0.2-0.5,0.2c-0.1,0-0.4,0-0.4,0.3v0.5
		c0,0.3,0.3,0.3,0.3,0.3c0.1,0,0.3,0,0.5,0.2c0.2,0.1,0.2,0.3,0.3,0.5c0,0.1,0.1,0.2,0.1,0.3c0,0.1,0.1,0.2,0.1,0.3
		c0.1,0.2,0.2,0.4,0.1,0.6c0,0.2-0.1,0.4-0.2,0.4c-0.1,0.1-0.2,0.3-0.1,0.4L8,16.6c0,0,0.1,0.1,0.2,0.1c0,0,0,0,0,0
		c0.1,0,0.2-0.1,0.2-0.1c0.1-0.1,0.2-0.2,0.4-0.2C8.9,16.3,8.9,16.3,9,16.3z M11.2,15.2C10,15.2,9,14.2,9,13s1-2.2,2.2-2.2
		c1.2,0,2.2,1,2.2,2.2S12.5,15.2,11.2,15.2z M11.2,11.2c-0.8,0-1.8,0.7-1.8,1.7c0,1.1,0.9,1.7,1.7,1.7c0.5,0,0.9-0.2,1.2-0.5
		c0.7-0.7,0.7-1.8,0-2.5C12.1,11.4,11.7,11.2,11.2,11.2z M20.1,9C20,9,20,9,19.9,8.9c0-0.1-0.1-0.1-0.1-0.2c0-0.1,0.1-0.2,0.2-0.2
		c0,0,0.3,0,0.3,0c0.1,0,0.1,0,0.2-0.1c0-0.1,0-0.1,0-0.2c-1.1-2.2-3-3.9-5.2-4.9c-0.1-0.1-0.2-0.2-0.1-0.3c0-0.1,0.1-0.2,0.2-0.2
		c0,0,0.1,0,0.1,0c2.3,1,4.3,2.8,5.4,5.1c0,0.1,0.1,0.1,0.2,0.1c0,0,0,0,0,0c0.1,0,0.1,0,0.2-0.1l0.1-0.2c0-0.1,0.1-0.1,0.2-0.1
		c0,0,0.1,0,0.1,0c0.1,0,0.1,0.1,0.1,0.2c0,0.1,0,0.1,0,0.2L21.4,9c0,0.1-0.1,0.2-0.2,0.2L20.1,9z M1.3,9.1C1.3,9.1,1.3,9.1,1.3,9.1
		C1.2,9.1,1.1,9,1.1,9c0-0.1,0-0.1,0-0.2c1-2.5,2.9-4.5,5.3-5.7c0.1,0,0.1-0.1,0.1-0.2c0-0.1,0-0.1-0.1-0.2L6.2,2.7
		C6.1,2.6,6.1,2.4,6.1,2.3c0-0.1,0.1-0.1,0.2-0.1c0,0,0.1,0,0.1,0l0.9,0.5C7.5,2.8,7.6,2.9,7.5,3l-0.1,1c0,0.1-0.1,0.2-0.2,0.2
		C7,4.3,6.9,4.1,6.9,4l0-0.3c0-0.1,0-0.1-0.1-0.2c0,0-0.1,0-0.1,0c0,0-0.1,0-0.1,0C4.4,4.7,2.5,6.6,1.5,9C1.5,9.1,1.4,9.1,1.3,9.1z"
		/>
</g>
</svg>
