<?xml version="1.0" encoding="utf-8"?>
<!-- Generator: Adobe Illustrator 24.3.0, SVG Export Plug-In . SVG Version: 6.00 Build 0)  -->
<svg version="1.1" id="Layer_1" xmlns="http://www.w3.org/2000/svg" xmlns:xlink="http://www.w3.org/1999/xlink" x="0px" y="0px"
	 width="28.7px" height="27.6px" viewBox="0 0 28.7 27.6" style="enable-background:new 0 0 28.7 27.6;" xml:space="preserve">
<style type="text/css">
	.st0{fill:#FFFFFF;}
	.st1{fill-rule:evenodd;clip-rule:evenodd;fill:#FFFFFF;}
</style>
<g>
	<path class="st0" d="M3.4,20.5c-3.2-0.7-4.1-4.2-2.6-5.9c-1.6-2.2-0.7-4.7,1.3-5.4C1.7,7.8,1.8,6.4,2.6,5.3c0.8-1.2,2-1.7,3.4-1.8
		c0.2-0.6,0.4-1.2,0.7-1.6c0.6-0.9,1.5-1.4,2.5-1.6C10.8-0.2,12.3,0,13.6,1c0.9,0.6,1.3,1.5,1.3,2.6c0,6.9,0,13.8,0,20.8
		c0,1-0.4,1.7-1.1,2.2c-1.2,0.8-2.5,1.3-3.9,1c-1.6-0.2-2.7-1.1-3.4-2.6c-0.1-0.1-0.1-0.3-0.3-0.3c-2.2-0.2-3.1-2.2-2.9-4
		C3.3,20.6,3.4,20.5,3.4,20.5z M1.3,15c-0.4,0.4-0.5,0.9-0.6,1.5c-0.1,1.5,0.9,2.8,2.4,3.2c0.4,0.1,0.7,0.1,0.9-0.2
		c0.1-0.1,0.3-0.2,0.3-0.4c0.5-0.7,1.2-0.9,2-0.8c0.6,0.1,1.2,0,1.9,0c0.2,0,0.4,0,0.4,0.3c0,0.3-0.2,0.3-0.4,0.3C8.1,19,8,19,8,19
		c-0.8,0-1.5,0-2.3,0c-0.1,0-0.3,0.1-0.4,0.2c-0.3,0.3-0.6,0.6-0.9,0.8C4.1,20.2,4,20.4,4,20.8c-0.2,1.8,0.8,3.1,2.6,3.3
		c0.3,0,0.4,0.1,0.5,0.4c0.1,0.5,0.4,1,0.8,1.3c1.6,1.6,4.6,1.5,6.1-0.3c0.2-0.3,0.3-0.6,0.3-0.9c0-7,0-13.9,0-20.9
		c0-1.2-0.5-1.9-1.5-2.5c-1.2-0.6-2.4-0.7-3.6-0.4C7.8,1.2,6.9,2.1,6.8,3.4c0,0.1,0.1,0.3,0.1,0.4c0.3,0.3,0.6,0.6,0.9,0.9
		C8.1,5,8.2,5.2,8,5.3c-0.3,0.2-0.4,0-0.6-0.2C7.1,4.9,6.8,4.5,6.5,4.2C6.4,4.2,6.3,4.1,6.2,4.1C4.7,4.1,3.6,4.7,2.9,6
		C2.4,7,2.4,8,2.8,9.1c0.1,0.4,0.1,0.5-0.3,0.6C2.2,9.8,2,9.9,1.8,10c-1.4,0.9-1.5,3-0.4,4.2c0.6,0.7,1.3,1.3,1.9,1.9
		c0.1,0.1,0.3,0.2,0.4,0.2c0.5,0,1,0,1.6,0c0.2,0,0.4,0.1,0.4,0.3c0,0.3-0.2,0.3-0.4,0.3c-0.6,0-1.1,0-1.7,0c-0.2,0-0.4-0.1-0.6-0.2
		C2.4,16.1,1.9,15.6,1.3,15z"/>
	<path class="st0" d="M20.2,24.3c-0.4,0-0.7,0-1-0.1c-0.2,0-0.4-0.1-0.4-0.4c0-0.3,0.2-0.3,0.4-0.3c1.4,0.1,2.7,0.1,4.1,0.2
		c0.2,0,0.3,0,0.5,0c0.7,0,1.1-0.4,1.2-1c0.1-0.5,0.1-1,0.2-1.6c0.1-0.8,0.1-1.6,0.2-2.3c0.1-0.7,0.4-1,1.1-1c0.4,0,0.8,0,1.2,0
		c0.3,0,0.4-0.1,0.3-0.4c-0.3-0.7-0.5-1.4-0.8-2.2c-0.6-1.3-0.9-2.7-0.8-4.2c0.1-1.7-0.2-3.2-1.1-4.7c-1.2-2.1-3.1-3.2-5.3-3.7
		c-1.1-0.3-2.3-0.3-3.5-0.1c-0.2,0-0.4,0.1-0.5-0.2c-0.1-0.2,0.1-0.4,0.4-0.4c1.5-0.3,2.9-0.2,4.4,0.2c2,0.6,3.6,1.6,4.8,3.4
		c0.9,1.4,1.4,3,1.4,4.7c0,0.3,0,0.7,0,1c-0.1,1.2,0.2,2.3,0.6,3.3c0.3,0.8,0.6,1.6,0.9,2.5c0,0.1,0.1,0.2,0.1,0.3
		c0.1,0.6-0.2,1-0.8,1.1c-0.4,0-0.9,0-1.3,0c-0.4,0-0.5,0-0.5,0.5c-0.1,1-0.2,2-0.3,3c0,0.4-0.1,0.7-0.2,1.1
		c-0.2,0.8-0.8,1.3-1.6,1.3c-0.9,0-1.8,0-2.6,0c-0.6,0-0.5-0.1-0.6,0.4c-0.2,0.5-0.4,1.1-0.5,1.6c0,0.1,0,0.2-0.1,0.3
		c-0.1,0.1-0.3,0.2-0.4,0.2c-0.2,0-0.2-0.2-0.2-0.4C19.7,25.7,19.9,25,20.2,24.3z"/>
	<path class="st0" d="M21.3,11.9c0.3,0,0.6,0,0.9,0c0.5,0,0.8,0.3,0.9,0.8c0,0.4,0,0.9,0,1.3c0,0.5-0.3,0.8-0.8,0.9
		c-0.2,0-0.4,0-0.5,0c-0.1,0-0.1,0-0.2,0c-0.1,0.1-0.3,0.1-0.3,0.2c0,0.3-0.5,0.5-0.2,0.9c0.1,0.2,0.3,0.3,0.5,0.5
		c0.3,0.4,0.4,0.8,0,1.2c-0.3,0.3-0.6,0.6-0.9,0.9c-0.4,0.3-0.8,0.3-1.2,0c0,0,0,0,0,0C19,18,18.6,18,18,18.3
		c-0.1,0.1-0.2,0.1-0.2,0.3c0,0.2,0,0.4,0,0.7c0,0.4-0.2,0.7-0.6,0.8c-0.3,0.1-0.6,0.1-0.9,0c-0.1,0-0.3-0.2-0.2-0.3
		c0-0.1,0.2-0.2,0.3-0.3c0.1,0,0.3,0,0.4,0c0.4,0,0.4,0,0.4-0.4c0-0.3,0-0.5,0-0.8c0-0.2,0.1-0.4,0.3-0.5c0.4-0.1,0.8-0.3,1.1-0.5
		c0.2-0.1,0.4-0.1,0.5,0.1c0.2,0.2,0.4,0.4,0.6,0.6c0.2,0.2,0.3,0.2,0.5,0c0.3-0.3,0.5-0.5,0.8-0.8c0.2-0.2,0.2-0.3,0-0.5
		c-0.2-0.2-0.4-0.4-0.6-0.6c-0.2-0.2-0.2-0.3-0.1-0.5c0.2-0.4,0.3-0.7,0.5-1.1c0.1-0.2,0.2-0.3,0.5-0.3c0.3,0,0.6,0,0.9,0
		c0.2,0,0.3-0.1,0.3-0.3c0-0.4,0-0.8,0-1.2c0-0.2-0.1-0.3-0.3-0.3c-0.3,0-0.6,0-0.9,0c-0.2,0-0.4-0.1-0.4-0.3
		c-0.1-0.4-0.3-0.8-0.5-1.1c-0.1-0.2-0.1-0.4,0.1-0.5c0.2-0.2,0.4-0.4,0.6-0.6c0.2-0.2,0.2-0.3,0-0.5c-0.3-0.2-0.5-0.5-0.8-0.8
		c-0.2-0.2-0.3-0.2-0.4,0c-0.2,0.2-0.4,0.4-0.7,0.7c-0.2,0.2-0.3,0.2-0.5,0.1c-0.4-0.2-0.8-0.3-1.2-0.5c-0.2-0.1-0.3-0.2-0.3-0.4
		c0-0.3,0-0.6,0-1c0-0.2-0.1-0.3-0.3-0.3c-0.2,0-0.4,0-0.6,0c-0.2,0-0.3-0.1-0.3-0.3c0-0.2,0.1-0.3,0.3-0.3c0.2,0,0.4,0,0.7,0
		c0.5,0,0.8,0.3,0.8,0.8c0,0.2,0,0.5,0,0.7c0,0.2,0.1,0.2,0.2,0.3c0.6,0.4,1,0.3,1.4-0.3c0.3-0.4,0.8-0.4,1.2,0
		c0.3,0.3,0.6,0.6,0.9,0.9c0.3,0.4,0.4,0.9,0,1.2c-0.5,0.4-0.6,0.8-0.3,1.4C21.3,11.7,21.3,11.8,21.3,11.9z"/>
	<path class="st0" d="M19.2,13.1c0,1.9-1.3,3.2-2.8,3.2c-0.2,0-0.4-0.1-0.4-0.3c0-0.2,0.2-0.3,0.4-0.3c1.3-0.1,2.2-1,2.2-2.2
		c0-1.3-0.8-2.2-2.1-2.4c-0.1,0-0.1,0-0.2,0C16.2,11,16,10.9,16,10.8c0-0.2,0.1-0.3,0.3-0.3c0.6,0,1.1,0.2,1.6,0.5
		C18.8,11.6,19.2,12.4,19.2,13.1z"/>
	<path class="st0" d="M10.6,17.5c-0.8,0-1.5,0-2.3,0c-0.2,0-0.4-0.1-0.5-0.2c-1-1-2.1-2.1-3.1-3.1c-0.1-0.1-0.2-0.4-0.2-0.5
		c0.1-0.8-0.2-1.4-0.8-1.9c-0.1-0.1-0.2-0.1-0.2-0.2c0-0.1-0.1-0.3,0-0.4c0.1-0.1,0.3-0.1,0.4,0c0.4,0.4,0.8,0.8,1.2,1.2
		c0.1,0.1,0.1,0.3,0.1,0.5c-0.1,0.7,0.2,1.2,0.7,1.7c0.8,0.7,1.5,1.5,2.3,2.2c0.1,0.1,0.3,0.2,0.5,0.2c1.5,0,2.9,0,4.4,0
		c0.1,0,0.2,0,0.3,0c0.1,0.1,0.2,0.2,0.2,0.3c0,0.1-0.1,0.2-0.2,0.3c-0.1,0.1-0.2,0-0.3,0C12.2,17.5,11.4,17.5,10.6,17.5z"/>
	<path class="st0" d="M12.5,12.9c-0.4,0.1-0.8-0.1-1.1-0.5c-0.8-0.9-1.7-1.7-2.5-2.5c-0.3-0.3-0.4-0.6-0.4-1c0-0.3,0-0.5-0.3-0.7
		C7.7,8,7.6,7.4,7.8,6.9C8,6.5,8.4,6.2,8.9,6.2c0.5,0,1,0.4,1.1,0.9c0.1,0.5-0.1,1-0.6,1.2C9.1,8.5,9,9.1,9.2,9.3
		c0.9,0.9,1.9,1.9,2.8,2.8c0.1,0.1,0.2,0.1,0.3,0.1c0.3,0,0.5,0,0.8,0c0.2,0,0.4,0.1,0.4,0.3c0,0.2-0.1,0.3-0.4,0.3
		C13,12.9,12.8,12.9,12.5,12.9z M8.8,7.9c0.3,0,0.5-0.2,0.5-0.5c0-0.3-0.2-0.5-0.5-0.5c-0.3,0-0.5,0.2-0.5,0.5
		C8.3,7.6,8.6,7.9,8.8,7.9z"/>
	<path class="st0" d="M11.6,19.7c-0.5,0-1,0-1.4,0c-0.1,0-0.2,0.1-0.3,0.1c-0.5,0.5-0.9,0.9-1.4,1.4c-0.1,0.1-0.1,0.2-0.1,0.3
		c0.2,0.7-0.2,1.3-0.9,1.5c-0.6,0.1-1.3-0.3-1.4-1c-0.1-0.6,0.4-1.2,1.1-1.3c0.1,0,0.2,0,0.3,0c0.3,0.2,0.4,0,0.6-0.2
		c0.4-0.4,0.9-0.9,1.3-1.3C9.6,19.1,9.8,19,10,19c1,0,2.1,0,3.1,0c0.2,0,0.4,0.1,0.4,0.3c0,0.3-0.2,0.3-0.4,0.3
		C12.6,19.7,12.1,19.7,11.6,19.7z M7.8,21.8c0-0.3-0.2-0.5-0.5-0.5c-0.3,0-0.5,0.2-0.5,0.5c0,0.3,0.2,0.5,0.5,0.5
		C7.5,22.4,7.8,22.1,7.8,21.8z"/>
	<path class="st0" d="M11.8,15.2c-0.8,0.3-1.5-0.2-2.1-0.9C9.5,14,9.2,13.8,9,13.5c-0.1-0.1-0.2-0.2-0.4-0.1
		c-0.6,0.2-1.3-0.2-1.5-0.9c-0.1-0.7,0.3-1.3,1-1.4c0.7-0.1,1.3,0.4,1.3,1.1c0,0.1,0,0.2,0,0.3c-0.1,0.3,0,0.5,0.2,0.7
		c0.4,0.4,0.7,0.8,1.1,1.1c0.1,0.1,0.3,0.2,0.5,0.2c0.6,0,1.2,0,1.9,0c0.2,0,0.5,0,0.5,0.3c0,0.3-0.2,0.3-0.5,0.3
		C12.7,15.2,12.3,15.2,11.8,15.2z M8.2,12.8c0.3,0,0.5-0.2,0.5-0.5c0-0.3-0.2-0.5-0.5-0.5c-0.3,0-0.5,0.2-0.5,0.5
		C7.7,12.6,8,12.8,8.2,12.8z"/>
	<path class="st0" d="M11,5.5c-0.6-0.2-1-0.6-0.9-1.2c0-0.5,0.4-1,0.9-1.1c0.5-0.1,1.1,0.2,1.3,0.6c0.2,0.5,0.1,1.1-0.3,1.4
		c-0.2,0.1-0.3,0.3-0.3,0.6c0,0.4,0,0.9,0,1.3c0,0.2,0.1,0.3,0.2,0.5c0.5,0.5,1,1,1.5,1.5c0.2,0.2,0.2,0.5,0,0.5
		c-0.1,0-0.3,0-0.4-0.1c-0.6-0.6-1.2-1.2-1.8-1.8C11,7.7,11,7.5,11,7.4C11,6.8,11,6.1,11,5.5z M11.2,4.9c0.3,0,0.5-0.2,0.5-0.5
		c0-0.3-0.2-0.5-0.5-0.5c-0.3,0-0.5,0.2-0.5,0.5C10.7,4.6,10.9,4.9,11.2,4.9z"/>
	<path class="st0" d="M8.2,24.1c0-1,0.7-1.5,1.5-1.3c0.2,0.1,0.3,0,0.4-0.1c0.4-0.4,0.8-0.9,1.3-1.3c0.1-0.1,0.3-0.2,0.5-0.2
		c0.4,0,0.8,0,1.3,0c0.2,0,0.4,0.1,0.4,0.3c0,0.2-0.2,0.3-0.4,0.3c-0.4,0-0.9-0.1-1.3,0.1c-0.4,0.2-0.6,0.6-0.9,0.9
		c-0.1,0.1-0.2,0.2-0.3,0.3c-0.1,0.1-0.2,0.2-0.1,0.4c0.2,0.5,0,0.9-0.3,1.2c-0.4,0.3-0.8,0.4-1.2,0.2C8.5,24.7,8.2,24.4,8.2,24.1z
		 M9.4,23.4c-0.3,0-0.5,0.2-0.5,0.5c0,0.3,0.2,0.5,0.5,0.5c0.3,0,0.5-0.2,0.5-0.5C9.9,23.6,9.7,23.4,9.4,23.4z"/>
</g>
</svg>
