<?xml version="1.0" encoding="utf-8"?>
<!-- Generator: Adobe Illustrator 24.3.0, SVG Export Plug-In . SVG Version: 6.00 Build 0)  -->
<svg version="1.1" id="Layer_1" xmlns="http://www.w3.org/2000/svg" xmlns:xlink="http://www.w3.org/1999/xlink" x="0px" y="0px"
	 width="32.5px" height="25.9px" viewBox="0 0 32.5 25.9" style="enable-background:new 0 0 32.5 25.9;" xml:space="preserve">
<style type="text/css">
	.st0{fill:#FFFFFF;}
	.st1{fill-rule:evenodd;clip-rule:evenodd;fill:#FFFFFF;}
</style>
<g>
	<path class="st0" d="M11.3,25.9c-0.8,0-1.4-0.6-1.4-1.4v-4.9c0-0.1-0.1-0.2-0.2-0.2H6.4c-0.4,0-0.9,0-1.3-0.1
		c-3.4-0.7-5.7-4.1-4.9-7.6c0.6-2.9,3.2-5.1,6.2-5.1c0.4,0,0.9,0,1.3,0.1c0,0,0,0,0,0c0.1,0,0.2-0.1,0.2-0.2
		c0.8-3.1,3.2-5.6,6.3-6.3c0.7-0.2,1.3-0.2,2-0.2c4,0,7.4,2.7,8.3,6.6c0,0.1,0.1,0.2,0.2,0.2c0,0,0,0,0,0c0.4-0.1,0.9-0.1,1.3-0.1
		c3.5,0,6.4,2.9,6.4,6.4s-2.9,6.4-6.4,6.4h-3.3c-0.1,0-0.2,0.1-0.2,0.2v4.9c0,0.8-0.6,1.4-1.4,1.4H11.3z M11.3,16.1
		c-0.4,0-0.7,0.3-0.7,0.7v7.7c0,0.4,0.3,0.7,0.7,0.7h9.9c0.4,0,0.7-0.3,0.7-0.7v-7.7c0-0.4-0.3-0.7-0.7-0.7H11.3z M16.3,7.7
		c2.9,0,5.3,2.4,5.3,5.3v2.3c0,0.1,0.1,0.2,0.1,0.2c0.6,0.2,1,0.7,1,1.4v1.6c0,0.1,0.1,0.2,0.2,0.2h3.3c0.6,0,1.1-0.1,1.7-0.2
		c1.5-0.4,2.6-1.4,3.4-2.8s0.9-2.9,0.4-4.3c-0.7-2.4-2.9-4-5.4-4c-0.6,0-1.1,0.1-1.7,0.3l-0.1,0c-0.2,0-0.3-0.1-0.3-0.3
		c-0.6-3.3-3.1-5.9-6.4-6.4c-0.4-0.1-0.9-0.1-1.3-0.1c-3.8,0-7.1,2.8-7.7,6.6C8.4,7.4,8.3,7.5,8.2,7.5c0,0-0.1,0-0.1,0
		C7.5,7.4,7,7.3,6.4,7.3c-3.1,0-5.7,2.5-5.7,5.7c0,3.1,2.5,5.7,5.7,5.7h3.3c0.1,0,0.2-0.1,0.2-0.2v-1.6c0-0.6,0.4-1.2,1-1.4
		c0.1,0,0.1-0.1,0.1-0.2V13C11,10.1,13.3,7.7,16.3,7.7z M16.3,9.9c1.7,0,3.1,1.4,3.1,3.1v2.2c0,0.1,0.1,0.2,0.2,0.2h1.1
		c0.1,0,0.2-0.1,0.2-0.2V13c0-2.5-2.1-4.6-4.6-4.6c-2.5,0-4.6,2.1-4.6,4.6v2.2c0,0.1,0.1,0.2,0.2,0.2H13c0.1,0,0.2-0.1,0.2-0.2V13
		C13.2,11.3,14.5,9.9,16.3,9.9z M16.3,10.6c-1.3,0-2.4,1.1-2.4,2.4v2.2c0,0.1,0.1,0.2,0.2,0.2h4.4c0.1,0,0.2-0.1,0.2-0.2V13
		C18.6,11.6,17.6,10.6,16.3,10.6z"/>
	<path class="st0" d="M16.3,23.2c-0.2,0-0.3-0.2-0.3-0.3v-1.7c0-0.1-0.1-0.2-0.1-0.2c-0.6-0.2-1-0.8-1-1.4c0-0.8,0.6-1.4,1.4-1.4
		c0.6,0,1.2,0.4,1.4,1c0.3,0.7-0.1,1.6-0.9,1.8c-0.1,0-0.1,0.1-0.1,0.2v1.7C16.6,23,16.4,23.2,16.3,23.2z M16.3,18.8
		c-0.4,0-0.7,0.3-0.7,0.7s0.3,0.7,0.7,0.7c0.4,0,0.7-0.3,0.7-0.7S16.7,18.8,16.3,18.8z"/>
</g>
</svg>
