<?xml version="1.0" encoding="utf-8"?>
<!-- Generator: Adobe Illustrator 24.3.0, SVG Export Plug-In . SVG Version: 6.00 Build 0)  -->
<svg version="1.1" id="Layer_1" xmlns="http://www.w3.org/2000/svg" xmlns:xlink="http://www.w3.org/1999/xlink" x="0px" y="0px"
	 width="29.4px" height="31.3px" viewBox="0 0 29.4 31.3" style="enable-background:new 0 0 29.4 31.3;" xml:space="preserve">
<style type="text/css">
	.st0{fill:#FFFFFF;}
	.st1{fill-rule:evenodd;clip-rule:evenodd;fill:#FFFFFF;}
</style>
<g>
	<path class="st0" d="M17.6,12.3h4.6c0.4,0,0.6-0.3,0.6-0.6V7.1c0-0.4-0.3-0.6-0.6-0.6h-1.2c0,0-0.1,0-0.1,0c0,0,0,0-0.1,0h-3.2
		c-0.4,0-0.6,0.3-0.6,0.6v4.6C16.9,12,17.2,12.3,17.6,12.3z M17.7,7.3c0-0.1,0-0.1,0.1-0.1h3c0,0,0.1,0,0.1,0c0,0,0,0,0.1,0h1
		c0.1,0,0.1,0,0.1,0.1v4.2c0,0.1,0,0.1-0.1,0.1h-4.2c-0.1,0-0.1,0-0.1-0.1V7.3z"/>
	<path class="st0" d="M20.1,3.6h2.3c0.2,0,0.3-0.1,0.5-0.2s0.2-0.3,0.2-0.5V0.6c0-0.4-0.3-0.6-0.6-0.6h-2.3c-0.4,0-0.6,0.3-0.6,0.6
		V3c0,0.2,0.1,0.3,0.2,0.5C19.8,3.6,20,3.6,20.1,3.6z M20.2,0.8c0-0.1,0-0.1,0.1-0.1h2c0.1,0,0.1,0,0.1,0.1v2c0,0.1,0,0.1-0.1,0.1
		h-2c-0.1,0-0.1,0-0.1-0.1V0.8z"/>
	<path class="st0" d="M28.8,3.7h-4.1c-0.2,0-0.3,0.1-0.5,0.2s-0.2,0.3-0.2,0.5v4.1c0,0.2,0.1,0.3,0.2,0.5c0.1,0.1,0.3,0.2,0.5,0.2
		h4.1c0.2,0,0.3-0.1,0.5-0.2c0.1-0.1,0.2-0.3,0.2-0.5V4.4C29.4,4,29.1,3.7,28.8,3.7z M28.7,8.2c0,0.1,0,0.1-0.1,0.1h-3.7
		c-0.1,0-0.1,0-0.1-0.1V4.5c0-0.1,0-0.1,0.1-0.1h3.7c0.1,0,0.1,0,0.1,0.1V8.2z"/>
	<path class="st0" d="M12.3,16.1c-1.6,0-2.9,1.3-2.9,2.9s1.3,2.9,2.9,2.9c1.6,0,2.9-1.3,2.9-2.9S13.9,16.1,12.3,16.1z M12.3,21.1
		c-1.2,0-2.2-1-2.2-2.2s1-2.2,2.2-2.2c1.2,0,2.2,1,2.2,2.2S13.5,21.1,12.3,21.1z"/>
	<path class="st0" d="M27.4,11.1h-2.3c-0.4,0-0.6,0.3-0.6,0.6v2.3c0,0.2,0.1,0.3,0.2,0.5c0.1,0.1,0.3,0.2,0.5,0.2h2.3
		c0.2,0,0.3-0.1,0.5-0.2s0.2-0.3,0.2-0.5v-2.3c0-0.2-0.1-0.3-0.2-0.5C27.8,11.2,27.6,11.1,27.4,11.1z M27.3,13.9
		c0,0.1,0,0.1-0.1,0.1h-2c-0.1,0-0.1,0-0.1-0.1v-2c0-0.1,0-0.1,0.1-0.1h2c0.1,0,0.1,0,0.1,0.1V13.9z"/>
	<path class="st0" d="M16.5,17.5h2.3c0.2,0,0.3-0.1,0.5-0.2c0.1-0.1,0.2-0.3,0.2-0.5v-2.3c0-0.4-0.3-0.6-0.6-0.6h-2.3
		c-0.4,0-0.6,0.3-0.6,0.6v2.3c0,0.2,0.1,0.3,0.2,0.5C16.2,17.4,16.3,17.5,16.5,17.5z M16.6,14.7c0-0.1,0-0.1,0.1-0.1h2
		c0.1,0,0.1,0,0.1,0.1v2c0,0.1,0,0.1-0.1,0.1h-2c-0.1,0-0.1,0-0.1-0.1V14.7z"/>
	<path class="st0" d="M23.6,16.5h-2.5c-0.4,0-0.7,0.3-0.7,0.7v1.4c0,0.1,0,0.1-0.1,0.1h-1.5c-0.4,0-0.7,0.3-0.7,0.6
		c-0.1,3.1-2.7,5.6-5.9,5.6c0,0,0,0,0,0c-3.1,0-5.7-2.6-5.8-5.8c0-1.6,0.6-3.1,1.7-4.2c1.1-1.1,2.6-1.7,4.2-1.7
		c0.6,0,1.1,0.1,1.7,0.2c0.1,0,0.1,0,0.2,0c0.1,0,0.3,0,0.4-0.1c0.2-0.1,0.3-0.3,0.3-0.5V12v-0.8V7.7c0-0.6-0.5-1-1-1h-3
		c-0.6,0-1,0.5-1,1v1.6c0,0.1-0.1,0.2-0.2,0.3c-0.7,0.2-1.4,0.5-2,0.8c0,0-0.1,0-0.1,0c-0.1,0-0.1,0-0.2-0.1L6.1,9.2
		C5.9,9,5.7,8.9,5.4,8.9S4.9,9,4.7,9.2l-2.2,2.2c-0.2,0.2-0.3,0.4-0.3,0.7c0,0.3,0.1,0.5,0.3,0.7l1.2,1.2c0.1,0.1,0.1,0.2,0,0.3
		c-0.3,0.6-0.6,1.3-0.8,2c0,0.1-0.1,0.2-0.3,0.2H1c-0.6,0-1,0.5-1,1v3c0,0.6,0.5,1,1,1h1.6c0.1,0,0.2,0.1,0.3,0.2
		c0.2,0.7,0.5,1.4,0.8,2c0.1,0.1,0,0.2,0,0.3l-1.2,1.2c-0.2,0.2-0.3,0.4-0.3,0.7c0,0.3,0.1,0.5,0.3,0.7l2.2,2.2
		c0.2,0.2,0.4,0.3,0.7,0.3c0.3,0,0.5-0.1,0.7-0.3l1.2-1.2c0.1-0.1,0.1-0.1,0.2-0.1c0,0,0.1,0,0.1,0c0.6,0.3,1.3,0.6,2,0.8
		c0.1,0,0.2,0.1,0.2,0.3v1.6c0,0.6,0.5,1,1,1h3c0.6,0,1-0.5,1-1v-1.6c0-0.1,0.1-0.2,0.2-0.3c0.7-0.2,1.4-0.5,2-0.8c0,0,0.1,0,0.1,0
		c0.1,0,0.1,0,0.2,0.1l1.2,1.2c0.2,0.2,0.4,0.3,0.7,0.3c0.3,0,0.5-0.1,0.7-0.3l2.2-2.2c0.2-0.2,0.3-0.4,0.3-0.7
		c0-0.3-0.1-0.5-0.3-0.7L21,24c-0.1-0.1-0.1-0.2,0-0.3c0.3-0.6,0.6-1.3,0.8-2c0-0.1,0.1-0.2,0.3-0.2h1.6c0.6,0,1-0.5,1-1v-3
		C24.6,16.9,24.2,16.5,23.6,16.5z M23.9,20.5c0,0.2-0.1,0.3-0.3,0.3H22c-0.4,0-0.8,0.3-1,0.7c-0.2,0.6-0.4,1.3-0.8,1.8
		c-0.2,0.4-0.1,0.9,0.2,1.2l1.2,1.2c0.1,0.1,0.1,0.1,0.1,0.2s0,0.1-0.1,0.2l-2.2,2.2c-0.1,0.1-0.1,0.1-0.2,0.1s-0.1,0-0.2-0.1
		l-1.2-1.2c-0.2-0.2-0.4-0.3-0.7-0.3c-0.2,0-0.3,0-0.5,0.1c-0.6,0.3-1.2,0.6-1.8,0.8c-0.4,0.1-0.7,0.5-0.7,1v1.6
		c0,0.2-0.1,0.3-0.3,0.3h-3c-0.2,0-0.3-0.1-0.3-0.3v-1.6c0-0.4-0.3-0.8-0.7-1c-0.6-0.2-1.3-0.4-1.8-0.8c-0.1-0.1-0.3-0.1-0.5-0.1
		c-0.3,0-0.5,0.1-0.7,0.3l-1.2,1.2c-0.1,0.1-0.1,0.1-0.2,0.1s-0.1,0-0.2-0.1L3,26.1C3,26.1,3,26,3,25.9s0-0.1,0.1-0.2l1.2-1.2
		c0.3-0.3,0.4-0.8,0.2-1.2c-0.3-0.6-0.6-1.2-0.8-1.8c-0.1-0.4-0.5-0.7-1-0.7H1c-0.2,0-0.3-0.1-0.3-0.3v-3c0-0.2,0.1-0.3,0.3-0.3h1.6
		c0.4,0,0.8-0.3,1-0.7c0.2-0.6,0.4-1.3,0.8-1.8c0.2-0.4,0.1-0.9-0.2-1.2L3,12.3C3,12.2,3,12.1,3,12.1c0,0,0-0.1,0.1-0.2l2.2-2.2
		c0.1-0.1,0.2-0.1,0.2-0.1s0.1,0,0.2,0.1l1.2,1.2c0.2,0.2,0.4,0.3,0.7,0.3c0.2,0,0.3,0,0.5-0.1c0.6-0.3,1.2-0.6,1.8-0.8
		c0.4-0.1,0.7-0.5,0.7-1V7.7c0-0.2,0.1-0.3,0.3-0.3h3c0.2,0,0.3,0.1,0.3,0.3v3.5V12v0.5c0,0,0,0.1,0,0.1c0,0,0,0-0.1,0c0,0,0,0,0,0
		c-0.5-0.1-1.1-0.2-1.7-0.2c-1.8,0-3.4,0.7-4.7,2c-1.2,1.3-1.9,2.9-1.9,4.7c0,1.7,0.7,3.3,1.9,4.6c1.2,1.2,2.8,1.9,4.6,1.9
		c1.7,0,3.3-0.6,4.5-1.8c1.2-1.1,1.9-2.7,2-4.3c0-0.1,0-0.1,0.1-0.1h1.5c0.4,0,0.7-0.3,0.7-0.7v-1.4c0-0.1,0-0.1,0.1-0.1h2.4
		c0.2,0,0.3,0.1,0.3,0.3V20.5z"/>
</g>
</svg>
