<?xml version="1.0" encoding="utf-8"?>
<!-- Generator: Adobe Illustrator 24.3.0, SVG Export Plug-In . SVG Version: 6.00 Build 0)  -->
<svg version="1.1" id="Layer_1" xmlns="http://www.w3.org/2000/svg" xmlns:xlink="http://www.w3.org/1999/xlink" x="0px" y="0px"
	 width="27.6px" height="27.6px" viewBox="0 0 27.6 27.6" style="enable-background:new 0 0 27.6 27.6;" xml:space="preserve">
<style type="text/css">
	.st0{fill:#FFFFFF;}
	.st1{fill-rule:evenodd;clip-rule:evenodd;fill:#FFFFFF;}
</style>
<g>
	<path class="st1" d="M15.5,27.6h-3.3c-0.2,0-0.4-0.2-0.4-0.4v-3.6c-1.9-0.4-3.7-1.4-5-2.7c-1.4-1.4-2.3-3.1-2.7-5H0.4
		c-0.2,0-0.4-0.2-0.4-0.4l0,0v-3.3c0-0.2,0.2-0.4,0.4-0.4H4c0.4-1.9,1.4-3.7,2.7-5c1.4-1.4,3.1-2.3,5-2.7V0.4c0-0.2,0.2-0.4,0.4-0.4
		h3.3c0.2,0,0.4,0.2,0.4,0.4v0V4c1.9,0.4,3.7,1.4,5,2.7c1.4,1.4,2.3,3.1,2.7,5h3.6c0.2,0,0.4,0.2,0.4,0.4v0v3.3
		c0,0.2-0.2,0.4-0.4,0.4h0h-3.6c-0.4,1.9-1.4,3.7-2.7,5c-1.4,1.4-3.1,2.3-5,2.7v3.6C15.9,27.4,15.7,27.6,15.5,27.6
		C15.5,27.6,15.5,27.6,15.5,27.6L15.5,27.6z M17.3,2.3c1.9,0.6,3.7,1.6,5,3c1.4,1.4,2.4,3.1,3,5c0.1,0.2,0.3,0.3,0.5,0.3
		c0.2-0.1,0.3-0.3,0.3-0.5c-0.6-2.1-1.7-3.9-3.2-5.4c-1.5-1.5-3.3-2.6-5.4-3.2C17.3,1.5,17,1.6,17,1.8C16.9,2,17,2.3,17.3,2.3
		C17.2,2.3,17.3,2.3,17.3,2.3L17.3,2.3z M25.3,17.3c-0.6,1.9-1.6,3.7-3,5c-1.4,1.4-3.1,2.4-5,3c-0.2,0.1-0.3,0.3-0.3,0.5
		c0.1,0.2,0.3,0.3,0.5,0.3c2.1-0.6,3.9-1.7,5.4-3.2c1.5-1.5,2.6-3.3,3.2-5.4c0.1-0.2-0.1-0.5-0.3-0.5C25.6,16.9,25.4,17,25.3,17.3
		L25.3,17.3z M10.4,25.3c-1.9-0.6-3.7-1.6-5-3c-1.4-1.4-2.4-3.1-3-5C2.3,17,2,16.9,1.8,17c-0.2,0.1-0.3,0.3-0.3,0.5
		c0.6,2.1,1.7,3.9,3.2,5.4c1.5,1.5,3.3,2.6,5.4,3.2c0.2,0.1,0.5-0.1,0.5-0.3C10.7,25.6,10.6,25.4,10.4,25.3z M2.3,10.4
		c0.6-1.9,1.6-3.7,3-5c1.4-1.4,3.1-2.4,5-3c0.2-0.1,0.3-0.3,0.3-0.5c-0.1-0.2-0.3-0.3-0.5-0.3C8.1,2.1,6.2,3.3,4.7,4.7
		s-2.6,3.3-3.2,5.4c-0.1,0.2,0.1,0.5,0.3,0.5C2,10.7,2.3,10.6,2.3,10.4z M9.8,14l2.1,2.4c0.2,0.2,0.4,0.2,0.6,0l0,0l5.2-4.6
		c0.2-0.2,0.2-0.4,0-0.6c-0.2-0.2-0.4-0.2-0.6,0l-4.9,4.3l-1.9-2.1c-0.2-0.2-0.4-0.2-0.6,0C9.7,13.5,9.7,13.8,9.8,14L9.8,14z
		 M13.8,6.8c-1.9,0-3.7,0.8-5,2.1c-1.3,1.3-2.1,3-2.1,5s0.8,3.7,2.1,5c1.3,1.3,3,2.1,5,2.1s3.7-0.8,5-2.1c1.3-1.3,2.1-3,2.1-5
		s-0.8-3.7-2.1-5C17.5,7.5,15.8,6.8,13.8,6.8L13.8,6.8z M18.2,9.4c-1.1-1.1-2.7-1.8-4.4-1.8s-3.3,0.7-4.4,1.8s-1.8,2.7-1.8,4.4
		c0,1.7,0.7,3.3,1.8,4.4c1.1,1.1,2.7,1.8,4.4,1.8c1.7,0,3.3-0.7,4.4-1.8c1.1-1.1,1.8-2.7,1.8-4.4C20,12.1,19.3,10.5,18.2,9.4
		L18.2,9.4z M12.6,26.8h2.5v-3.5h0c0-0.2,0.1-0.4,0.3-0.4c1.9-0.3,3.6-1.2,4.9-2.6c1.3-1.3,2.2-3,2.6-4.9c0-0.2,0.2-0.4,0.4-0.4h3.5
		v-2.5h-3.5v0c-0.2,0-0.4-0.1-0.4-0.3c-0.3-1.9-1.2-3.6-2.6-4.9c-1.3-1.3-3-2.2-4.9-2.6c-0.2,0-0.4-0.2-0.4-0.4V0.8h-2.5v3.5h0
		c0,0.2-0.1,0.4-0.3,0.4C10.3,5.1,8.6,6,7.3,7.3c-1.3,1.3-2.2,3-2.6,4.9c0,0.2-0.2,0.4-0.4,0.4H0.8v2.5h3.5v0c0.2,0,0.4,0.1,0.4,0.3
		C5.1,17.3,6,19,7.3,20.3c1.3,1.3,3,2.2,4.9,2.6c0.2,0,0.4,0.2,0.4,0.4V26.8z"/>
</g>
</svg>
