<?xml version="1.0" encoding="utf-8"?>
<!-- Generator: Adobe Illustrator 24.3.0, SVG Export Plug-In . SVG Version: 6.00 Build 0)  -->
<svg version="1.1" id="Layer_1" xmlns="http://www.w3.org/2000/svg" xmlns:xlink="http://www.w3.org/1999/xlink" x="0px" y="0px"
	 width="75.8px" height="75.8px" viewBox="0 0 75.8 75.8" style="enable-background:new 0 0 75.8 75.8;" xml:space="preserve">
<style type="text/css">
	.st0{fill:#FFFFFF;}
	.st1{fill-rule:evenodd;clip-rule:evenodd;fill:#FFFFFF;}
</style>
<g>
	<path class="st0" d="M39.3,35V14.6c0-0.8-0.6-1.4-1.4-1.4s-1.4,0.6-1.4,1.4V35c-1.2,0.5-1.9,1.7-1.9,3c0,0.3,0,0.5,0.1,0.8L25.6,46
		c-0.6,0.5-0.7,1.3-0.2,1.9c0.5,0.6,1.3,0.7,1.9,0.2l9.2-7.4c0.4,0.2,0.9,0.4,1.4,0.4c1.8,0,3.3-1.5,3.3-3.3
		C41.2,36.6,40.4,35.5,39.3,35L39.3,35z"/>
	<path class="st0" d="M37.9,0C17,0,0,17,0,37.9s17,37.9,37.9,37.9c4.2,0,8.3-0.7,12.2-2c2.5,1.3,5.3,2,8.2,2
		c9.7,0,17.5-7.9,17.5-17.5c0-2.9-0.7-5.7-2-8.2c1.3-3.9,2-8.1,2-12.2C75.8,17,58.8,0,37.9,0z M47.2,71.9c-3,0.8-6.1,1.2-9.3,1.2
		c-19.4,0-35.2-15.8-35.2-35.2S18.5,2.7,37.9,2.7s35.2,15.8,35.2,35.2c0,3.1-0.4,6.3-1.2,9.3c-1.1-1.3-2.3-2.4-3.6-3.3
		c0.4-2,0.6-4,0.6-6C68.8,20.9,55,7,37.9,7S7,20.9,7,37.9s13.9,30.9,30.9,30.9c2,0,4-0.2,6-0.6C44.8,69.6,45.9,70.8,47.2,71.9
		L47.2,71.9z M42.4,65.7c-1.5,0.2-3,0.4-4.5,0.4c-15.5,0-28.2-12.6-28.2-28.2S22.4,9.7,37.9,9.7s28.2,12.6,28.2,28.2
		c0,1.5-0.1,3-0.4,4.5c-2.3-1.1-4.9-1.6-7.4-1.6c-9.7,0-17.5,7.9-17.5,17.5C40.8,60.9,41.3,63.4,42.4,65.7L42.4,65.7z M58.3,73.1
		c-8.1,0-14.7-6.7-14.8-14.7c-0.1-8.2,6.6-14.9,14.8-14.9c8,0,14.8,6.7,14.8,14.8C73.1,66.5,66.5,73.1,58.3,73.1L58.3,73.1z"/>
	<path class="st0" d="M64.9,53.2l-9.5,9.7l-5-4.8c-0.5-0.5-1.4-0.5-1.9,0c-0.5,0.5-0.5,1.4,0,1.9l6,5.8c0.5,0.5,1.4,0.5,1.9,0
		l10.5-10.7c0.5-0.6,0.5-1.4-0.1-1.9C66.2,52.7,65.4,52.7,64.9,53.2z"/>
</g>
</svg>
