<?xml version="1.0" encoding="utf-8"?>
<!-- Generator: Adobe Illustrator 24.3.0, SVG Export Plug-In . SVG Version: 6.00 Build 0)  -->
<svg version="1.1" id="Layer_1" xmlns="http://www.w3.org/2000/svg" xmlns:xlink="http://www.w3.org/1999/xlink" x="0px" y="0px"
	 width="90.7px" height="90.8px" viewBox="0 0 90.7 90.8" style="enable-background:new 0 0 90.7 90.8;" xml:space="preserve">
<style type="text/css">
	.st0{fill:#FFFFFF;}
	.st1{fill-rule:evenodd;clip-rule:evenodd;fill:#FFFFFF;}
</style>
<g>
	<path class="st0" d="M41.8,54.3c-0.5,0-0.9-0.2-1.3-0.5l-7.9-8.1c-0.7-0.7-0.7-1.8,0-2.5c0.3-0.3,0.8-0.5,1.2-0.5
		c0.5,0,0.9,0.2,1.3,0.5l6.6,6.7c0,0,0,0,0.1,0c0,0,0,0,0.1,0L55.6,37c0.3-0.3,0.8-0.5,1.2-0.5c0.5,0,1,0.2,1.3,0.6
		c0.3,0.3,0.5,0.8,0.5,1.3c0,0.5-0.2,0.9-0.6,1.2L43,53.8C42.7,54.1,42.3,54.3,41.8,54.3L41.8,54.3z"/>
	<path class="st0" d="M45.4,73.6c-15.6,0-28.2-12.7-28.2-28.2c0-15.6,12.7-28.2,28.2-28.2c15.6,0,28.2,12.7,28.2,28.2
		C73.6,60.9,60.9,73.6,45.4,73.6z M45.4,20.8c-13.6,0-24.6,11-24.6,24.6C20.7,59,31.8,70,45.4,70C58.9,70,70,59,70,45.4
		C70,31.8,58.9,20.8,45.4,20.8z"/>
	<path class="st0" d="M45.3,90.8c-0.4,0-0.7-0.1-1-0.3L35,84.3c0,0-11.3,0.6-11.3,0.6c-0.8,0-1.4-0.4-1.7-1l-5.1-10L6.9,68.8
		c-0.6-0.3-1-1-1-1.7l0.6-11.2l-6.2-9.5c-0.4-0.6-0.4-1.4,0-2L6.5,35L5.9,23.7c0-0.7,0.4-1.4,1-1.7l10-5.1L22,6.9
		c0.3-0.6,0.9-1,1.6-1l11.3,0.6l9.4-6.2C44.7,0.1,45,0,45.4,0c0.4,0,0.7,0.1,1,0.3l9.4,6.2c0,0,11.3-0.6,11.3-0.6
		c0.8,0,1.4,0.4,1.7,1l5.1,10L83.9,22c0.6,0.3,1,1,1,1.7L84.2,35l6.2,9.4c0.4,0.6,0.4,1.4,0,2l-6.2,9.4l0.6,11.3
		c0,0.7-0.4,1.4-1,1.7l-10,5.1l-5.1,10.1c-0.3,0.6-0.9,1-1.6,1l-11.3-0.6l-9.4,6.2C46,90.7,45.7,90.8,45.3,90.8z M35.5,80.6
		c0.4,0,0.7,0.1,1,0.3l8.9,5.9c0,0,0,0,0.1,0s0,0,0.1,0l8.9-5.9c0.3-0.2,0.7-0.3,1-0.3c0,0,10.7,0.6,10.7,0.6c0,0,0.1,0,0.1-0.1
		l4.8-9.5c0.2-0.3,0.5-0.6,0.8-0.8l9.5-4.8c0,0,0.1-0.1,0.1-0.1l-0.6-10.6c0-0.4,0.1-0.8,0.3-1.1l5.9-8.9c0,0,0-0.1,0-0.1l-5.9-8.9
		c-0.2-0.3-0.3-0.7-0.3-1.1l0.6-10.6c0,0,0-0.1-0.1-0.1l-9.5-4.8c-0.3-0.2-0.6-0.5-0.8-0.8l-4.8-9.5c0,0-0.1-0.1-0.1-0.1
		c0,0-10.7,0.6-10.8,0.6c-0.3,0-0.7-0.1-0.9-0.3L45.4,4c0,0,0,0-0.1,0s0,0-0.1,0l-8.9,5.9c-0.3,0.2-0.7,0.3-1,0.3
		c0,0-10.7-0.6-10.7-0.6c0,0-0.1,0-0.1,0.1l-4.8,9.5c-0.2,0.3-0.5,0.6-0.8,0.8l-9.5,4.8c0,0-0.1,0.1-0.1,0.1l0.6,10.6
		c0,0.4-0.1,0.8-0.3,1.1L4,45.3c0,0,0,0.1,0,0.1l5.9,8.9c0.2,0.3,0.3,0.7,0.3,1.1L9.5,66c0,0,0,0.1,0.1,0.1l9.5,4.8
		c0.3,0.2,0.6,0.5,0.8,0.8l4.8,9.5c0,0,0.1,0.1,0.1,0.1C24.7,81.2,35.4,80.6,35.5,80.6L35.5,80.6z"/>
</g>
</svg>
