<?xml version="1.0" encoding="utf-8"?>
<!-- Generator: Adobe Illustrator 24.3.0, SVG Export Plug-In . SVG Version: 6.00 Build 0)  -->
<svg version="1.1" id="Layer_1" xmlns="http://www.w3.org/2000/svg" xmlns:xlink="http://www.w3.org/1999/xlink" x="0px" y="0px"
	 width="89.7px" height="74.8px" viewBox="0 0 89.7 74.8" style="enable-background:new 0 0 89.7 74.8;" xml:space="preserve">
<style type="text/css">
	.st0{fill:#FFFFFF;}
	.st1{fill-rule:evenodd;clip-rule:evenodd;fill:#FFFFFF;}
</style>
<g>
	<path class="st0" d="M65.9,74.8c-0.1,0-0.1,0-0.2,0c-0.8-0.1-1.4-0.9-1.3-1.7l1-6.6l-4.9-4.7c-0.2-0.2-0.4-0.5-0.4-0.8
		c-0.1-0.4,0-0.8,0.3-1.1c0.2-0.3,0.6-0.6,1-0.6l6.6-1.1l2.9-6.1c0.1-0.3,0.4-0.5,0.7-0.7c0.2-0.1,0.4-0.2,0.7-0.2
		c0.6,0,1.1,0.3,1.3,0.8l3.1,6l6.7,0.9c0.3,0,0.6,0.2,0.8,0.4c0.3,0.3,0.5,0.7,0.5,1.1c0,0.4-0.1,0.8-0.4,1.1l-4.7,4.8l1.2,6.7
		c0.1,0.3,0,0.7-0.1,1c-0.3,0.5-0.8,0.8-1.3,0.8l0,0c-0.2,0-0.5-0.1-0.7-0.2l-6-3l-6,3.2C66.4,74.8,66.1,74.8,65.9,74.8z M72.2,56.2
		C72.2,56.2,72.2,56.2,72.2,56.2l-1.9,3.9c-0.2,0.4-0.6,0.8-1.1,0.8L65,61.7c0,0-0.1,0-0.1,0.1c0,0,0,0.1,0,0.1l3.1,2.9
		c0.4,0.3,0.5,0.8,0.5,1.3l-0.7,4.2c0,0,0,0.1,0,0.1c0,0,0,0,0.1,0c0,0,0,0,0,0l3.8-2.1c0.2-0.1,0.5-0.2,0.7-0.2
		c0.2,0,0.5,0.1,0.7,0.2l3.8,1.9c0,0,0,0,0,0c0,0,0,0,0.1,0c0,0,0-0.1,0-0.1L76.3,66c-0.1-0.5,0.1-1,0.4-1.3l3-3.1c0,0,0-0.1,0-0.1
		c0,0,0-0.1-0.1-0.1l-4.3-0.5c-0.5-0.1-0.9-0.4-1.1-0.8L72.2,56.2C72.3,56.2,72.3,56.2,72.2,56.2C72.2,56.2,72.2,56.2,72.2,56.2z
		 M38.4,74.8c-0.1,0-0.1,0-0.2,0c-0.4-0.1-0.8-0.3-1-0.6c-0.2-0.3-0.3-0.7-0.3-1.1l1-6.6L33,61.8c-0.2-0.2-0.4-0.5-0.4-0.8
		c-0.1-0.4,0-0.8,0.3-1.1c0.2-0.3,0.6-0.6,1-0.6l6.6-1.1l2.9-6.1c0.1-0.3,0.4-0.5,0.7-0.7c0.2-0.1,0.4-0.2,0.7-0.2
		c0.6,0,1.1,0.3,1.3,0.8l3.1,6l6.7,0.9c0.3,0,0.6,0.2,0.8,0.4c0.6,0.6,0.6,1.5,0,2.1L52,66.2l1.2,6.7c0.1,0.3,0,0.7-0.1,1
		c-0.3,0.5-0.8,0.8-1.3,0.8l0,0c-0.2,0-0.5-0.1-0.7-0.2l-6-3l-6,3.2C38.9,74.8,38.6,74.8,38.4,74.8z M44.8,56.2
		C44.7,56.2,44.7,56.2,44.8,56.2l-1.9,3.9c-0.2,0.4-0.6,0.8-1.1,0.8l-4.2,0.7c0,0-0.1,0-0.1,0.1c0,0,0,0.1,0,0.1l3.1,2.9
		c0.4,0.3,0.5,0.8,0.5,1.3l-0.7,4.2c0,0,0,0.1,0,0.1c0,0,0,0,0.1,0c0,0,0,0,0,0l3.8-2.1c0.2-0.1,0.5-0.2,0.7-0.2
		c0.2,0,0.5,0.1,0.7,0.2l3.8,1.9c0,0,0,0,0,0c0,0,0,0,0.1,0c0,0,0-0.1,0-0.1L48.9,66c-0.1-0.5,0.1-1,0.4-1.3l3-3.1c0,0,0-0.1,0-0.1
		c0,0,0-0.1-0.1-0.1L48,60.9c-0.5-0.1-0.9-0.4-1.1-0.8L44.8,56.2C44.8,56.2,44.8,56.2,44.8,56.2C44.8,56.2,44.8,56.2,44.8,56.2z
		 M10.9,74.8c-0.1,0-0.1,0-0.2,0c-0.4-0.1-0.8-0.3-1-0.6c-0.2-0.3-0.3-0.7-0.3-1.1l1-6.6l-4.9-4.7c-0.2-0.2-0.4-0.5-0.4-0.8
		c-0.1-0.8,0.4-1.6,1.2-1.8l6.6-1.1l2.9-6.1c0.2-0.5,0.8-0.9,1.3-0.9c0,0,0,0,0,0c0.6,0,1.1,0.3,1.4,0.8l3.1,6l6.7,0.9
		c0.3,0,0.6,0.2,0.8,0.4c0.6,0.6,0.6,1.5,0,2.1l-4.7,4.8l1.2,6.7c0.1,0.3,0,0.7-0.1,1c-0.3,0.5-0.8,0.8-1.3,0.8l0,0
		c-0.2,0-0.5-0.1-0.7-0.2l-6-3l-6,3.2C11.4,74.8,11.2,74.8,10.9,74.8z M17.3,56.2C17.3,56.2,17.2,56.2,17.3,56.2l-1.9,3.9
		c-0.2,0.4-0.6,0.8-1.1,0.8L10,61.7c0,0-0.1,0-0.1,0.1c0,0,0,0.1,0,0.1l3.1,2.9c0.4,0.3,0.5,0.8,0.5,1.3l-0.7,4.2c0,0,0,0.1,0,0.1
		c0,0,0,0,0.1,0c0,0,0,0,0,0l3.8-2.1c0.2-0.1,0.5-0.2,0.7-0.2c0.2,0,0.5,0.1,0.7,0.2l3.8,1.9c0,0,0,0,0,0c0,0,0,0,0.1,0
		c0,0,0-0.1,0-0.1L21.4,66c-0.1-0.5,0.1-1,0.4-1.3l3-3.1c0,0,0-0.1,0-0.1c0,0,0-0.1-0.1-0.1l-4.3-0.5c-0.5-0.1-0.9-0.4-1.1-0.8
		L17.3,56.2C17.4,56.2,17.3,56.2,17.3,56.2C17.3,56.2,17.3,56.2,17.3,56.2z M1.5,49.2c-0.8,0-1.5-0.7-1.5-1.5s0.7-1.5,1.5-1.5h86.7
		c0.8,0,1.5,0.7,1.5,1.5s-0.7,1.5-1.5,1.5H1.5z M19.3,40.7c-0.7,0-1.3-0.6-1.5-1.3c0.7-8.3,5.5-15.5,12.8-19.5c0,0,0.1-0.1,0-0.1
		c-0.5-1.6-0.8-3.2-0.8-4.9C30.3,4.7,38,0,44.9,0c6.9,0,14.6,4.7,15,14.9c0,1.7-0.3,3.3-0.8,4.9c0,0,0,0.1,0,0.1
		c7.3,3.9,12,11.2,12.8,19.5c-0.1,0.7-0.7,1.2-1.5,1.3h0H19.3z M32,22.7C32,22.7,31.9,22.7,32,22.7c-5.7,3.2-9.6,8.6-10.9,14.9
		c0,0,0,0.1,0,0.1c0,0,0,0,0.1,0h47.4c0,0,0.1,0,0.1,0c0,0,0-0.1,0-0.1c-1.3-6.3-5.2-11.7-10.8-14.8c0,0,0,0,0,0c0,0-0.1,0-0.1,0
		c-1.2,2-2.9,3.7-4.9,4.9c-2.4,1.5-5.1,2.2-7.9,2.2C39.6,29.9,34.8,27.2,32,22.7C32,22.7,32,22.7,32,22.7z M44.9,2.9
		c-1.7,0-3.3,0.4-4.8,1.1C34,6.7,31.3,13.8,34,19.9c1.8,4.3,6,7,10.9,7c4.9,0,9-2.7,10.9-7c0.7-1.5,1.1-3.2,1.1-4.9
		C56.9,8.4,51.5,3,44.9,2.9C44.9,2.9,44.9,2.9,44.9,2.9z"/>
</g>
</svg>
