<?xml version="1.0" encoding="utf-8"?>
<!-- Generator: Adobe Illustrator 24.3.0, SVG Export Plug-In . SVG Version: 6.00 Build 0)  -->
<svg version="1.1" id="Layer_1" xmlns="http://www.w3.org/2000/svg" xmlns:xlink="http://www.w3.org/1999/xlink" x="0px" y="0px"
	 width="102.9px" height="78.5px" viewBox="0 0 102.9 78.5" style="enable-background:new 0 0 102.9 78.5;" xml:space="preserve">
<style type="text/css">
	.st0{fill:#FFFFFF;}
	.st1{fill-rule:evenodd;clip-rule:evenodd;fill:#FFFFFF;}
</style>
<g>
	<path class="st0" d="M78.5,78.5c-0.4,0-0.9-0.2-1.2-0.5l-9.7-11.5c0,0,0,0-0.1,0c0,0,0,0,0,0c0,0-0.1,0-0.1,0
		c-7.4,7.7-17.7,12.1-28.3,12.1C17.6,78.5,0,60.9,0,39.2C0,17.6,17.6,0,39.2,0c10.7,0,21.1,4.5,28.5,12.3l22.3,0
		c0.8,0,1.5,0.7,1.5,1.5v34.3c0,0.1,0,0.1,0.1,0.1h9.8c0.6,0,1.1,0.3,1.4,0.9c0.2,0.5,0.2,1.2-0.2,1.6L79.7,77.9
		C79.4,78.3,79,78.5,78.5,78.5z M39.2,3C19.2,3,3,19.3,3,39.2c0,20,16.2,36.2,36.2,36.2c9.9,0,19.5-4.2,26.3-11.4c0,0,0-0.1,0-0.1
		l-3-3.6c0,0,0,0-0.1,0c0,0,0,0,0,0c0,0-0.1,0-0.1,0C56.4,66.8,48,70.5,39.2,70.5c-17.2,0-31.3-14-31.3-31.3s14-31.3,31.3-31.3
		c6.5,0,12.7,2,18,5.7c3.3,2.3,6,5.1,8.2,8.4c0,0,0.1,0,0.1,0c0,0,0,0,0,0c0,0,0.1-0.1,0.1-0.1v-7.5C58.7,7.2,49.1,3,39.2,3z
		 M59.1,51.3C59,51.3,59,51.3,59.1,51.3C59,51.4,59,51.4,59,51.5l19.4,23.1c0,0,0,0,0.1,0s0.1,0,0.1,0L98,51.5c0,0,0-0.1,0-0.1
		c0,0-0.1-0.1-0.1-0.1h-8c-0.8,0-1.5-0.7-1.5-1.5V15.4c0-0.1,0-0.1-0.1-0.1H68.7c-0.1,0-0.1,0-0.1,0.1v34.4c0,0.8-0.7,1.5-1.5,1.5
		H59.1z M39.2,10.9c-15.6,0-28.3,12.7-28.3,28.3c0,15.6,12.7,28.3,28.3,28.3c8.1,0,15.8-3.5,21.2-9.6c0,0,0-0.1,0-0.1l-5.9-7
		c-0.4-0.4-0.5-1.1-0.2-1.6c0.2-0.5,0.8-0.9,1.4-0.9h9.8c0.1,0,0.1,0,0.1-0.1V29C61.3,18.2,50.7,10.9,39.2,10.9z M39.2,60.4
		c-0.8,0-1.5-0.7-1.5-1.5v-3.1c0,0,0-0.1-0.1-0.1c-4.9-0.7-8.4-4.5-8.4-8.9c0-0.8,0.7-1.5,1.5-1.5s1.5,0.7,1.5,1.5
		c0,2.8,2.2,5.2,5.4,5.9c0,0,0,0,0,0c0,0,0,0,0.1,0c0,0,0,0,0-0.1v-12c0,0,0-0.1-0.1-0.1c-1.8-0.4-3.6-0.9-5.1-1.9
		c-2.2-1.5-3.3-3.8-3.3-6.8c0-4.5,3.5-8.2,8.4-8.9c0,0,0.1,0,0.1-0.1v-3.1c0-0.8,0.7-1.5,1.5-1.5s1.5,0.7,1.5,1.5v3.1
		c0,0,0,0.1,0.1,0.1c4.9,0.7,8.4,4.5,8.4,8.9c0,0.8-0.7,1.5-1.5,1.5s-1.5-0.7-1.5-1.5c0-2.8-2.2-5.2-5.4-5.9c0,0,0,0,0,0
		c0,0,0,0-0.1,0c0,0,0,0,0,0.1v12c0,0,0,0.1,0.1,0.1c1.8,0.4,3.6,0.9,5.1,1.9c2.2,1.5,3.3,3.8,3.3,6.8c0,4.5-3.5,8.2-8.4,8.9
		c0,0-0.1,0-0.1,0.1v3.1C40.7,59.7,40,60.4,39.2,60.4z M40.8,41.2C40.8,41.2,40.8,41.2,40.8,41.2c-0.1,0-0.1,0.1-0.1,0.1v11.3
		c0,0,0,0.1,0,0.1c0,0,0,0,0.1,0c0,0,0,0,0,0c3.2-0.7,5.4-3.1,5.4-5.9C46.2,43.2,44.3,42,40.8,41.2C40.8,41.2,40.8,41.2,40.8,41.2z
		 M37.6,25.9c-3.2,0.7-5.4,3.1-5.4,5.9c0,3.6,1.9,4.7,5.4,5.6c0,0,0,0,0,0c0,0,0,0,0.1,0c0,0,0,0,0-0.1V26
		C37.7,25.9,37.7,25.9,37.6,25.9C37.6,25.9,37.6,25.9,37.6,25.9C37.6,25.9,37.6,25.9,37.6,25.9z"/>
</g>
</svg>
