<?xml version="1.0" encoding="utf-8"?>
<!-- Generator: Adobe Illustrator 24.3.0, SVG Export Plug-In . SVG Version: 6.00 Build 0)  -->
<svg version="1.1" id="Layer_1" xmlns="http://www.w3.org/2000/svg" xmlns:xlink="http://www.w3.org/1999/xlink" x="0px" y="0px"
	 width="75.8px" height="76.4px" viewBox="0 0 75.8 76.4" style="enable-background:new 0 0 75.8 76.4;" xml:space="preserve">
<style type="text/css">
	.st0{fill:#FFFFFF;}
	.st1{fill-rule:evenodd;clip-rule:evenodd;fill:#FFFFFF;}
</style>
<g>
	<path class="st0" d="M69,40.1h-2.2v-2.2H69V40.1z M65.3,40.1H63v-2.2h2.2V40.1z M64.9,26l-1.6-1.6L61.8,26l4.3,4.3l4.3-4.3
		l-1.6-1.6l-1.7,1.7V8.5H55v2.2h9.9L64.9,26z M53.2,65.6L51.6,64l-4.3,4.3l4.3,4.3l1.6-1.6l-1.6-1.6h3.5v-2.2h-3.5L53.2,65.6z"/>
	<path class="st0" d="M39,49.1l9.2-9.2h2.3l-1.6,1.6l1.6,1.6l4.3-4.3l-4.3-4.3l-1.6,1.6l1.6,1.6h-2.3L39,28.5v-9.3
		c4.4-0.5,8-4,8.5-8.5h4.5V8.5h-4.5C47,3.7,42.9,0,37.9,0c-5.3,0-9.7,4.3-9.7,9.7c0,4.9,3.7,9,8.5,9.6v9.3l-9.2,9.2h-2.3l1.6-1.6
		l-1.6-1.6l-4.3,4.3l4.3,4.3l1.6-1.6l-1.6-1.6h2.3l9.2,9.2v11.2h-6.9v16.1H46v-6.2h-2.2v4H32.1V62.5h11.7v4.7H46v-6.9H39L39,49.1z
		 M30.5,9.7c0-4.1,3.3-7.4,7.4-7.4c4.1,0,7.4,3.3,7.4,7.4c0,4.1-3.3,7.4-7.4,7.4C33.8,17.1,30.5,13.8,30.5,9.7z M37.9,30.6l8.2,8.2
		L37.9,47l-8.2-8.2L37.9,30.6z M72.9,31.7H59.1l-2.9,2.9V43l2.9,2.9h5.8v21.3h-6.8v2.2h9V45.9h5.8l2.9-2.9v-8.5L72.9,31.7z
		 M73.6,42.1L72,43.7H60l-1.6-1.6v-6.6l1.6-1.6h12l1.6,1.6L73.6,42.1z"/>
	<path class="st0" d="M22.6,65.6l1.6,1.6H10.9V58H8.7v11.4h15.5l-1.6,1.6l1.6,1.6l4.3-4.3L24.2,64L22.6,65.6z M8.7,55h2.2v-9.1h5.8
		l2.9-2.9v-8.5l-2.9-2.9H2.9L0,34.6V43l2.9,2.9h5.8L8.7,55z M2.2,42.1v-6.6l1.6-1.6h12l1.6,1.6v6.6l-1.6,1.6h-12L2.2,42.1z"/>
</g>
</svg>
