<?xml version="1.0" encoding="utf-8"?>
<!-- Generator: Adobe Illustrator 24.3.0, SVG Export Plug-In . SVG Version: 6.00 Build 0)  -->
<svg version="1.1" id="Layer_1" xmlns="http://www.w3.org/2000/svg" xmlns:xlink="http://www.w3.org/1999/xlink" x="0px" y="0px"
	 width="68.1px" height="74.2px" viewBox="0 0 68.1 74.2" style="enable-background:new 0 0 68.1 74.2;" xml:space="preserve">
<style type="text/css">
	.st0{fill:#FFFFFF;}
	.st1{fill-rule:evenodd;clip-rule:evenodd;fill:#FFFFFF;}
</style>
<g>
	<path class="st1" d="M19.3,71.9c-1.2,0-2.1-1-2.1-2.1c0-1.2,1-2.1,2.1-2.1s2.1,1,2.1,2.1C21.5,71,20.5,71.9,19.3,71.9z M19.3,2.2
		c1.2,0,2.1,1,2.1,2.1c0,1.2-1,2.1-2.1,2.1s-2.1-1-2.1-2.1C17.2,3.2,18.2,2.2,19.3,2.2z M19.3,65.4c-1.2,0-2.3,0.5-3.1,1.3l-14-7.9
		V15.4l14-7.9c0.8,0.8,1.9,1.3,3.1,1.3c2.4,0,4.4-2,4.4-4.4c0-2.4-2-4.4-4.4-4.4c-2.9,0-5,2.8-4.2,5.5L0.6,13.8
		C0.2,14,0,14.3,0,14.7v44.7c0,0.4,0.2,0.8,0.6,1l14.5,8.3c-0.7,2.7,1.3,5.5,4.2,5.5c2.4,0,4.4-2,4.4-4.4
		C23.7,67.4,21.8,65.4,19.3,65.4L19.3,65.4z M48.7,71.9c-1.2,0-2.1-1-2.1-2.1c0-1.2,1-2.1,2.1-2.1c1.2,0,2.1,1,2.1,2.1
		C50.9,71,49.9,71.9,48.7,71.9z M48.7,6.5c-1.2,0-2.1-1-2.1-2.1c0-1.2,1-2.1,2.1-2.1c1.2,0,2.1,1,2.1,2.1
		C50.9,5.6,49.9,6.5,48.7,6.5z M67.5,13.8L53,5.5C53.7,2.8,51.6,0,48.7,0c-2.4,0-4.4,2-4.4,4.4c0,2.4,2,4.4,4.4,4.4
		c1.2,0,2.3-0.5,3.1-1.3l14,7.9v43.4l-14,7.9c-0.8-0.8-1.9-1.3-3.1-1.3c-2.4,0-4.4,2-4.4,4.4c0,2.4,2,4.4,4.4,4.4
		c2.9,0,5-2.8,4.2-5.5l14.5-8.3c0.4-0.2,0.6-0.6,0.6-1V14.7C68.1,14.3,67.8,14,67.5,13.8z M34,59.4L11.6,48.3l8.8-4.4l13.1,6.5
		c0.3,0.2,0.7,0.2,1,0l13.1-6.5l8.8,4.4L34,59.4z M11.6,37.1l8.8-4.4l13.1,6.5c0.3,0.2,0.7,0.2,1,0l13.1-6.5l8.8,4.4L34,48.1
		L11.6,37.1z M11.6,25.9L34,14.8l22.4,11.1L34,36.9L11.6,25.9z M60.1,48.3c0,0.4-0.2,0.8-0.6,1L34.5,61.6c-0.3,0.2-0.7,0.2-1,0
		L8.6,49.3c-0.8-0.4-0.8-1.6,0-2l9.3-4.6l-9.3-4.6c-0.8-0.4-0.8-1.6,0-2l9.3-4.6l-9.3-4.6c-0.8-0.4-0.8-1.6,0-2l24.9-12.3
		c0.3-0.2,0.7-0.2,1,0l24.9,12.3c0.8,0.4,0.8,1.6,0,2l-9.3,4.6l9.3,4.6c0.8,0.4,0.8,1.6,0,2l-9.3,4.6l9.3,4.6
		C59.8,47.5,60.1,47.9,60.1,48.3L60.1,48.3z"/>
</g>
</svg>
