<?xml version="1.0" encoding="utf-8"?>
<!-- Generator: Adobe Illustrator 24.3.0, SVG Export Plug-In . SVG Version: 6.00 Build 0)  -->
<svg version="1.1" id="Layer_1" xmlns="http://www.w3.org/2000/svg" xmlns:xlink="http://www.w3.org/1999/xlink" x="0px" y="0px"
	 width="77.5px" height="77.5px" viewBox="0 0 77.5 77.5" style="enable-background:new 0 0 77.5 77.5;" xml:space="preserve">
<style type="text/css">
	.st0{fill:#FFFFFF;}
	.st1{fill-rule:evenodd;clip-rule:evenodd;fill:#FFFFFF;}
</style>
<g>
	<path class="st0" d="M39.6,77.5c-0.2,0-0.3,0-0.5-0.1L21.6,68c-0.3-0.2-0.5-0.5-0.5-0.8c0-0.3,0.2-0.7,0.5-0.9l16.9-10.5
		c0.3-0.2,0.7-0.2,1,0c0.3,0.2,0.5,0.5,0.5,0.8l0.1,2.8c6.9-0.4,13-4.1,16.5-10.1c0.2-0.3,0.5-0.5,0.8-0.5c0.3,0,0.7,0.2,0.8,0.5
		l7.1,11.3c0.2,0.4,0.2,0.8-0.1,1.1c-6.2,7.2-15.2,11.5-24.6,12l0.1,2.8c0,0.3-0.2,0.7-0.5,0.9C40,77.5,39.8,77.5,39.6,77.5
		L39.6,77.5z M24,67.1l14.6,7.8l-0.1-2.1c0-0.3,0.1-0.5,0.3-0.7c0.2-0.2,0.4-0.3,0.7-0.3c9-0.2,17.6-4.1,23.7-10.8l-5.9-9.4
		c-1.9,2.7-4.3,5-7.1,6.6c-3.4,2-7.2,3.1-11.1,3.1c-0.5,0-1-0.4-1-0.9l-0.1-2.1L24,67.1z M16.4,65.4c-0.2,0-0.5-0.1-0.6-0.2
		c-7.4-6.4-11.7-15.6-12-25.3l-2.8,0h0c-0.3,0-0.7-0.2-0.8-0.5c-0.2-0.3-0.2-0.7,0-1l9.7-17.4c0.2-0.3,0.5-0.5,0.8-0.5h0
		c0.3,0,0.7,0.2,0.8,0.5l10.2,17.1c0.2,0.3,0.2,0.7,0,1c-0.2,0.3-0.5,0.5-0.8,0.5l-2.8,0.1c0.3,6.9,4.1,13.3,10.1,16.9
		c0.3,0.2,0.5,0.5,0.5,0.8c0,0.3-0.2,0.7-0.5,0.8L17,65.3C16.8,65.3,16.6,65.4,16.4,65.4L16.4,65.4z M4.7,37.9
		c0.3,0,0.5,0.1,0.7,0.3c0.2,0.2,0.3,0.4,0.3,0.7c0,9.3,4,18.1,10.8,24.3l9.4-5.9c-2.7-1.9-5-4.4-6.7-7.2c-2-3.4-3.1-7.4-3.1-11.4
		c0-0.5,0.4-1,0.9-1l2.1,0l-8.5-14.3L2.6,38L4.7,37.9L4.7,37.9z M67.1,56.4c-0.3,0-0.6-0.2-0.8-0.5L55.8,39c-0.2-0.3-0.2-0.7,0-1
		c0.2-0.3,0.5-0.5,0.8-0.5h0l2.7,0c-0.3-6.6-4-12.8-9.8-16.4c-0.3-0.2-0.5-0.5-0.5-0.8c0-0.3,0.2-0.6,0.5-0.8l11.5-6.8
		c0.4-0.2,0.8-0.2,1.1,0.1c3.5,3.2,6.3,6.9,8.2,11.2c1.9,4.1,3,8.5,3.2,13l2.8-0.1c0.3,0,0.7,0.2,0.9,0.5c0.2,0.3,0.2,0.7,0,1
		L68,55.9C67.8,56.2,67.5,56.4,67.1,56.4L67.1,56.4L67.1,56.4z M58.4,39.5l8.7,14l7.8-14.6L72.8,39c-0.3,0-0.5-0.1-0.7-0.3
		c-0.2-0.2-0.3-0.4-0.3-0.7c-0.2-8.9-3.9-17.2-10.3-23.3l-9.6,5.7c5.8,4.2,9.4,11,9.4,18.2c0,0.3-0.1,0.5-0.3,0.7
		c-0.2,0.2-0.4,0.3-0.7,0.3L58.4,39.5z M20.3,28.4L20.3,28.4c-0.3,0-0.7-0.2-0.8-0.5l-6.9-11.5c-0.2-0.4-0.2-0.8,0.1-1.1
		C19.2,8.3,28.2,4.1,37.7,3.8l0-2.8c0-0.3,0.2-0.7,0.5-0.8c0.3-0.2,0.7-0.2,1,0l17.4,9.8c0.5,0.3,0.6,0.8,0.4,1.3
		c-0.1,0.1-0.2,0.3-0.3,0.4L39.4,21.7c-0.3,0.2-0.7,0.2-1,0c-0.3-0.2-0.5-0.5-0.5-0.8l-0.1-2.8C31,18.4,24.8,22.1,21.2,28
		C21,28.2,20.7,28.4,20.3,28.4L20.3,28.4z M14.7,16.1l5.7,9.5c4.2-5.9,11-9.5,18.4-9.5c0.5,0,1,0.4,1,0.9l0.1,2.1l14.3-8.5L39.6,2.6
		l0,2.1c0,0.3-0.1,0.5-0.3,0.7c-0.2,0.2-0.4,0.3-0.7,0.3C29.6,5.7,20.9,9.5,14.7,16.1L14.7,16.1z"/>
</g>
</svg>
