<?xml version="1.0" encoding="utf-8"?>
<!-- Generator: Adobe Illustrator 24.3.0, SVG Export Plug-In . SVG Version: 6.00 Build 0)  -->
<svg version="1.1" id="Layer_1" xmlns="http://www.w3.org/2000/svg" xmlns:xlink="http://www.w3.org/1999/xlink" x="0px" y="0px"
	 width="79.7px" height="79.7px" viewBox="0 0 79.7 79.7" style="enable-background:new 0 0 79.7 79.7;" xml:space="preserve">
<style type="text/css">
	.st0{fill:#FFFFFF;}
	.st1{fill-rule:evenodd;clip-rule:evenodd;fill:#FFFFFF;}
</style>
<g>
	<path class="st0" d="M65.1,79.7c-0.7,0-1.2-0.6-1.2-1.2V39.8c0-2.1,1.7-3.9,3.9-3.9h8c2.1,0,3.9,1.7,3.9,3.9v38.6
		c0,0.7-0.6,1.2-1.2,1.2H65.1z M67.8,38.4c-0.8,0-1.4,0.6-1.4,1.4v37.3c0,0.1,0,0.1,0.1,0.1h10.6c0.1,0,0.1,0,0.1-0.1V39.8
		c0-0.8-0.6-1.4-1.4-1.4H67.8z M43.8,79.7c-0.7,0-1.2-0.6-1.2-1.2V50.5c0-2.1,1.7-3.9,3.9-3.9h8c2.1,0,3.9,1.7,3.9,3.9v27.9
		c0,0.7-0.6,1.2-1.2,1.2H43.8z M46.5,49.1c-0.8,0-1.4,0.6-1.4,1.4v26.6c0,0.1,0,0.1,0.1,0.1h10.6c0.1,0,0.1,0,0.1-0.1V50.5
		c0-0.8-0.6-1.4-1.4-1.4H46.5z M22.5,79.7c-0.7,0-1.2-0.6-1.2-1.2V42.5c0-2.1,1.7-3.9,3.9-3.9h8c2.1,0,3.9,1.7,3.9,3.9v35.9
		c0,0.7-0.6,1.2-1.2,1.2H22.5z M25.2,41.1c-0.8,0-1.4,0.6-1.4,1.4v34.6c0,0.1,0,0.1,0.1,0.1h10.6c0.1,0,0.1,0,0.1-0.1V42.5
		c0-0.8-0.6-1.4-1.4-1.4H25.2z M1.2,79.7c-0.7,0-1.2-0.6-1.2-1.2V61.1c0-2.1,1.7-3.9,3.9-3.9h8c2.1,0,3.9,1.7,3.9,3.9v17.3
		c0,0.7-0.6,1.2-1.2,1.2H1.2z M3.9,59.7c-0.8,0-1.4,0.6-1.4,1.4v16c0,0.1,0,0.1,0.1,0.1h10.6c0.1,0,0.1,0,0.1-0.1v-16
		c0-0.8-0.6-1.4-1.4-1.4H3.9z M7.9,41.1c-1.9,0-3.7-0.7-5.1-1.9c-3.1-2.6-3.7-7.3-1.4-10.6c1.5-2.1,3.9-3.3,6.4-3.3
		c1.4,0,2.8,0.4,4,1.1c0,0,0,0,0.1,0c0,0,0.1,0,0.1,0l11.2-13.3c0,0,0-0.1,0-0.1c-2.6-3-2.5-7.5,0.2-10.4C24.8,0.9,27,0,29.2,0
		c1.6,0,3.2,0.5,4.5,1.4C36.9,3.7,38,8,36.2,11.5c0,0,0,0.1,0,0.1l8.7,6.5c0,0,0,0,0.1,0c0,0,0.1,0,0.1,0c0.1-0.1,0.2-0.1,0.2-0.2
		c1.4-1.3,3.3-2,5.2-2c2.3,0,4.4,1,5.9,2.7c0,0,0,0,0.1,0c0,0,0,0,0.1,0l8-5c0,0,0.1-0.1,0-0.1c-0.4-1-0.6-2-0.6-3
		c0-4.3,3.5-7.9,7.9-7.9c3.6,0,6.8,2.5,7.7,6c0.9,3.5-0.8,7.2-4,8.9c-1.1,0.6-2.4,0.9-3.7,0.9c-2.3,0-4.4-1-5.9-2.6c0,0,0,0-0.1,0
		c0,0,0,0-0.1,0l-8,5c0,0-0.1,0.1,0,0.1c1.4,3.4,0.3,7.3-2.7,9.4c-1.4,1-2.9,1.5-4.6,1.5l0,0c-1.9,0-3.7-0.7-5.1-1.9
		c-2.8-2.4-3.5-6.3-1.9-9.6c0,0,0-0.1,0-0.1l-8.7-6.5c0,0,0,0-0.1,0c0,0,0,0-0.1,0c-1.5,1.4-3.4,2.2-5.4,2.2c-1.4,0-2.8-0.4-4-1.1
		c0,0,0,0-0.1,0c0,0-0.1,0-0.1,0L13.9,28c0,0,0,0.1,0,0.1c2.6,3.1,2.4,7.8-0.4,10.7C12,40.3,10,41.1,7.9,41.1z M7.9,27.8
		c-3,0-5.4,2.4-5.4,5.4c0,3,2.4,5.4,5.4,5.4c3,0,5.4-2.4,5.4-5.4C13.3,30.2,10.9,27.8,7.9,27.8z M50.5,18.4c-3,0-5.4,2.4-5.4,5.4
		c0,3,2.4,5.4,5.4,5.4c3,0,5.4-2.4,5.4-5.4C55.9,20.9,53.5,18.4,50.5,18.4z M71.8,5.1c-3,0-5.4,2.4-5.4,5.4c0,3,2.4,5.4,5.4,5.4
		c3,0,5.4-2.4,5.4-5.4C77.2,7.6,74.8,5.1,71.8,5.1z M29.2,2.5c-3,0-5.4,2.4-5.4,5.4c0,3,2.4,5.4,5.4,5.4c3,0,5.4-2.4,5.4-5.4
		C34.6,4.9,32.2,2.5,29.2,2.5z"/>
</g>
</svg>
