<?xml version="1.0" encoding="utf-8"?>
<!-- Generator: Adobe Illustrator 24.3.0, SVG Export Plug-In . SVG Version: 6.00 Build 0)  -->
<svg version="1.1" id="Layer_1" xmlns="http://www.w3.org/2000/svg" xmlns:xlink="http://www.w3.org/1999/xlink" x="0px" y="0px"
	 width="77.8px" height="77.9px" viewBox="0 0 77.8 77.9" style="enable-background:new 0 0 77.8 77.9;" xml:space="preserve">
<style type="text/css">
	.st0{fill:#FFFFFF;}
	.st1{fill-rule:evenodd;clip-rule:evenodd;fill:#FFFFFF;}
</style>
<g>
	<path class="st0" d="M36.4,67.8c-1.1,0-2.1-0.9-2.1-2.1v-2c0,0,0-0.1-0.1-0.1c-1.9-0.4-3.8-1-5.6-1.8c0,0,0,0,0,0c0,0-0.1,0-0.1,0
		l-1.2,1.6c-0.4,0.5-1,0.9-1.7,0.9c-0.4,0-0.9-0.1-1.2-0.4l-4.5-3.3c-0.5-0.3-0.7-0.8-0.8-1.4c-0.1-0.6,0-1.1,0.4-1.6l1.2-1.6
		c0,0,0-0.1,0-0.1c-1.3-1.4-2.5-3-3.5-4.8c0,0-0.1-0.1-0.1-0.1c0,0,0,0,0,0l-1.9,0.6c-0.2,0.1-0.4,0.1-0.7,0.1
		c-0.3,0-0.6-0.1-0.9-0.2c-0.5-0.3-0.9-0.7-1-1.2l-2-6.2c-0.1-0.3-0.1-0.6,0.1-0.9c0.1-0.3,0.4-0.5,0.7-0.6L14,42
		c0,0,0.1-0.1,0.1-0.1c-0.1-1-0.2-2-0.2-2.9S14,37,14.1,36c0,0,0-0.1-0.1-0.1l-1.9-0.6c-0.5-0.2-1-0.5-1.2-1
		c-0.2-0.5-0.3-1.1-0.1-1.6l1.7-5.3c0.3-0.9,1.1-1.4,2-1.4c0.2,0,0.4,0,0.7,0.1l1.9,0.6c0,0,0,0,0,0c0,0,0.1,0,0.1-0.1
		c1-1.7,2.1-3.3,3.5-4.8c0,0,0-0.1,0-0.1l-1.2-1.6c-0.3-0.4-0.5-1-0.4-1.6c0.1-0.6,0.4-1,0.8-1.4l4.5-3.3c0.4-0.3,0.8-0.4,1.2-0.4
		c0.7,0,1.3,0.3,1.7,0.9l1.2,1.6c0,0,0,0,0.1,0c0,0,0,0,0,0c1.8-0.8,3.7-1.4,5.6-1.8c0,0,0.1-0.1,0.1-0.1v-2c0-1.1,0.9-2.1,2.1-2.1
		h5.5c1.1,0,2.1,0.9,2.1,2.1v2c0,0,0,0.1,0.1,0.1c1.9,0.4,3.8,1,5.6,1.8c0,0,0,0,0,0c0,0,0.1,0,0.1,0l1.2-1.6c0.4-0.5,1-0.9,1.7-0.9
		c0.4,0,0.9,0.1,1.2,0.4l4.5,3.3c0.9,0.7,1.1,2,0.5,2.9l-1.2,1.6c0,0,0,0.1,0,0.1c1.3,1.4,2.5,3,3.5,4.8c0,0,0.1,0.1,0.1,0.1
		c0,0,0,0,0,0l1.9-0.6c0.2-0.1,0.4-0.1,0.6-0.1c0.9,0,1.7,0.6,2,1.4l1.7,5.3c0.2,0.5,0.1,1.1-0.1,1.6c-0.3,0.5-0.7,0.9-1.2,1
		l-1.9,0.6c0,0-0.1,0.1-0.1,0.1c0.1,1,0.2,2,0.2,2.9c0,0.9-0.1,1.9-0.2,2.9c0,0,0,0.1,0.1,0.1l2.8,0.9c0.3,0.1,0.5,0.3,0.7,0.6
		c0.1,0.3,0.2,0.6,0.1,0.9l-2,6.2c-0.3,0.9-1.1,1.4-2,1.4l0,0c-0.2,0-0.4,0-0.6-0.1l-1.9-0.6c0,0,0,0,0,0c0,0-0.1,0-0.1,0.1
		c-1,1.7-2.1,3.3-3.5,4.8c0,0,0,0.1,0,0.1l1.2,1.6c0.3,0.4,0.5,1,0.4,1.5c-0.1,0.6-0.4,1-0.8,1.4L53.8,64c-0.4,0.3-0.8,0.4-1.2,0.4
		c-0.7,0-1.3-0.3-1.7-0.9l-1.2-1.6c0,0,0,0-0.1,0c0,0,0,0,0,0c-1.8,0.8-3.7,1.4-5.6,1.8c0,0-0.1,0.1-0.1,0.1v2
		c0,1.1-0.9,2.1-2.1,2.1H36.4z M28.4,59.4c0.3,0,0.6,0.1,0.9,0.2c1.8,0.8,3.6,1.4,5.5,1.8c1,0.2,1.7,1,1.7,2v1.9
		c0,0.1,0,0.1,0.1,0.1h4.9c0.1,0,0.1,0,0.1-0.1v-1.9c0-1,0.7-1.9,1.7-2c1.9-0.4,3.8-1,5.5-1.8c0.3-0.1,0.6-0.2,0.9-0.2
		c0.7,0,1.3,0.3,1.7,0.9l1.1,1.6c0,0,0,0,0.1,0c0,0,0,0,0.1,0l3.9-2.9c0,0,0,0,0-0.1s0-0.1,0-0.1l-1.1-1.6c-0.6-0.8-0.5-1.9,0.2-2.7
		c1.3-1.4,2.5-3,3.4-4.7c0,0,0,0,0,0c0.4-0.7,1.1-1.1,1.8-1.1c0.2,0,0.4,0,0.6,0.1l1.9,0.6c0,0,0,0,0,0c0,0,0,0,0,0c0,0,0,0,0-0.1
		l1.5-4.6c0-0.1,0-0.1-0.1-0.1l-1.9-0.6c-1-0.3-1.6-1.3-1.4-2.3c0.3-1.9,0.3-3.9,0-5.8c-0.1-1,0.5-1.9,1.4-2.3l1.9-0.6
		c0.1,0,0.1-0.1,0.1-0.1l-1.5-4.6c0,0,0,0,0-0.1c0,0,0,0,0,0c0,0,0,0,0,0l-1.9,0.6C61.4,29,61.2,29,61,29c-0.8,0-1.5-0.4-1.8-1.1
		c-0.9-1.7-2.1-3.3-3.4-4.7c-0.7-0.7-0.8-1.9-0.2-2.7l1.1-1.6c0,0,0,0,0-0.1s0,0,0-0.1L52.8,16c0,0,0,0-0.1,0c0,0-0.1,0-0.1,0
		l-1.1,1.6c-0.4,0.5-1,0.9-1.7,0.9c-0.3,0-0.6-0.1-0.9-0.2c-1.8-0.8-3.6-1.4-5.5-1.8c-1-0.2-1.7-1-1.7-2v-1.9c0-0.1,0-0.1-0.1-0.1
		h-4.9c-0.1,0-0.1,0-0.1,0.1v1.9c0,1-0.7,1.9-1.7,2c-1.9,0.4-3.8,1-5.5,1.8c-0.3,0.1-0.6,0.2-0.9,0.2c-0.7,0-1.3-0.3-1.7-0.9
		L25.6,16c0,0,0,0-0.1,0c0,0,0,0-0.1,0l-3.9,2.9c0,0,0,0,0,0.1s0,0.1,0,0.1l1.1,1.6c0.6,0.8,0.5,1.9-0.2,2.7c-1.3,1.4-2.5,3-3.4,4.7
		C18.7,28.6,18,29,17.2,29c-0.2,0-0.4,0-0.6-0.1l-1.9-0.6c0,0,0,0,0,0c0,0,0,0,0,0c0,0,0,0,0,0.1L13.1,33c0,0.1,0,0.1,0.1,0.1
		l1.9,0.6c1,0.3,1.6,1.3,1.4,2.3c-0.3,1.9-0.3,3.9,0,5.8c0.1,1-0.5,1.9-1.4,2.3l-1.9,0.6c-0.1,0-0.1,0.1-0.1,0.1l1.5,4.6
		c0,0,0,0,0,0.1c0,0,0,0,0,0c0,0,0,0,0,0l1.9-0.6c0.2-0.1,0.4-0.1,0.6-0.1c0.8,0,1.5,0.4,1.8,1.1c0.9,1.7,2.1,3.3,3.4,4.7
		c0.7,0.7,0.8,1.8,0.2,2.7l-1.1,1.6c0,0,0,0,0,0.1s0,0,0,0.1l3.9,2.9c0,0,0,0,0.1,0c0,0,0.1,0,0.1,0l1.1-1.6
		C27.1,59.7,27.8,59.4,28.4,59.4z"/>
	<path class="st0" d="M38.9,57.7c-10.4,0-18.8-8.4-18.8-18.8s8.4-18.8,18.8-18.8s18.8,8.4,18.8,18.8S49.3,57.7,38.9,57.7z
		 M38.9,22.5c-9.1,0-16.5,7.4-16.5,16.5s7.4,16.5,16.5,16.5S55.4,48,55.4,38.9S48,22.5,38.9,22.5z"/>
	<path class="st0" d="M38.9,77.9c-10,0-19.4-3.8-26.7-10.6c0,0,0,0-0.1,0c0,0,0,0,0,0c0,0-0.1,0.1-0.1,0.1l0.4,2.4l-2.3,0.3L9.2,64
		c0-0.1,0-0.2,0-0.4c0.1-0.6,0.6-1,1.1-1c0.1,0,0.1,0,0.2,0l6.1,0.9l-0.3,2.3c0,0-2.3-0.3-2.3-0.3c0,0-0.1,0-0.1,0.1
		c0,0,0,0.1,0,0.1c6.8,6.3,15.7,9.8,25,9.8c6.4,0,12.7-1.7,18.2-4.9l1.2,2C52.5,76.1,45.8,77.9,38.9,77.9L38.9,77.9z M63.9,68.6
		c-0.3,0-0.6-0.1-0.8-0.3c-0.2-0.3-0.4-0.6-0.3-1l0.9-6.1l2.3,0.3l-0.3,2.3c0,0,0,0.1,0.1,0.1c0,0,0,0,0,0c0,0,0.1,0,0.1,0
		c10.9-11.8,13-29,5.1-42.9l2-1.2c8.3,14.7,5.9,33.5-5.6,45.8c0,0,0,0.1,0,0.1c0,0,0.1,0.1,0.1,0.1c0,0,2.5-0.4,2.5-0.4l0.3,2.3
		L64,68.6H63.9z M4.9,58.1c-8.3-14.7-6-33.5,5.6-45.8c0,0,0-0.1,0-0.1c0,0-0.1-0.1-0.1-0.1c0,0-2.5,0.4-2.5,0.4l-0.3-2.3l6.1-0.9
		c0.1,0,0.1,0,0.2,0c0.3,0,0.6,0.1,0.8,0.3c0.2,0.3,0.4,0.6,0.3,1l-0.9,6.1l-2.3-0.3l0.3-2.3c0,0,0-0.1-0.1-0.1c0,0,0,0,0,0
		c0,0-0.1,0-0.1,0C1.2,25.8-0.9,43,7,56.9L4.9,58.1z M41.9,44.5v-2.3h1.8c0.1,0,0.1,0,0.1-0.1v-6.3c0-0.1,0-0.1-0.1-0.1h-1.8v-2.3
		H48v2.3h-1.8c-0.1,0-0.1,0-0.1,0.1v6.3c0,0.1,0,0.1,0.1,0.1H48v2.3H41.9z M36.8,44.5l-0.5-2.4c0,0-0.1-0.1-0.1-0.1h-3.3
		c0,0-0.1,0-0.1,0.1l-0.5,2.4h-2.4l2.3-10.2c0.1-0.5,0.6-0.9,1.1-0.9c0,0,2.5,0,2.5,0c0.5,0,1,0.4,1.1,0.9l2.3,10.2H36.8z
		 M34.2,35.7C34.2,35.7,34.2,35.7,34.2,35.7l-0.9,3.9c0,0,0,0.1,0,0.1c0,0,0,0,0.1,0h2.2c0,0,0.1,0,0.1,0c0,0,0-0.1,0-0.1l-0.8-3.8
		c0,0-0.1-0.1-0.1-0.1H34.2z M67.2,15.2l-6.1-0.9l0.3-2.3c0,0,2.3,0.3,2.3,0.3c0,0,0.1,0,0.1-0.1c0,0,0-0.1,0-0.1
		c-6.8-6.3-15.7-9.8-25-9.8c-6.3,0-12.4,1.6-17.9,4.7l-1.1-2c5.8-3.3,12.4-5,19-5c10,0,19.5,3.8,26.8,10.6c0,0,0,0,0.1,0
		c0,0,0,0,0,0c0,0,0.1-0.1,0.1-0.1L65.4,8l2.3-0.3l0.9,6.1c0,0.1,0,0.1,0,0.2c0,0.6-0.5,1.1-1.2,1.1H67.2z"/>
</g>
</svg>
