<svg width="190" height="32" viewBox="0 0 190 32" fill="none" xmlns="http://www.w3.org/2000/svg">
<mask id="mask0_5266_6154" style="mask-type:luminance" maskUnits="userSpaceOnUse" x="12" y="5" width="166" height="22">
<path d="M178 5.76904H12V26.2308H178V5.76904Z" fill="white"/>
</mask>
<g mask="url(#mask0_5266_6154)">
<path d="M53.6445 11.5332H58.832V25.6547H64.5959V11.5332H69.7834V6.3457H53.6445V11.5332Z" fill="#D9D9E8"/>
<path d="M80.8211 13.7232L78.6308 13.1468C77.4492 12.8298 76.844 12.3975 76.844 11.8787C76.844 11.1006 77.7374 10.6683 79.3513 10.6683C81.3398 10.6683 83.5013 11.4464 85.3458 12.8298V7.35409C83.2131 6.28775 81.0517 5.76904 78.7749 5.76904C74.0485 5.76904 71.0801 8.16103 71.0801 11.9941C71.0801 14.9336 72.7516 16.8357 76.1235 17.7291L78.919 18.4784C80.043 18.7666 80.5905 19.2277 80.5905 19.8617C80.5905 20.8127 79.6107 21.3315 77.8527 21.3315C75.5472 21.3315 73.1551 20.4381 71.2242 18.8531V24.3287C73.4722 25.5968 75.8641 26.2308 78.429 26.2308C83.2996 26.2308 86.3544 23.7235 86.3544 19.7177C86.3544 16.6916 84.51 14.703 80.8211 13.7232Z" fill="#D9D9E8"/>
<path d="M46.1508 18.0176C46.1508 19.6315 44.8828 20.8995 43.2688 20.8995C41.6549 20.8995 40.3869 19.6315 40.3869 18.0176V6.3457H34.623V17.5853C34.623 22.6575 38.1966 26.2311 43.2688 26.2311C48.3411 26.2311 51.9147 22.6575 51.9147 17.5853V6.3457H46.1508V18.0176Z" fill="#D9D9E8"/>
<path d="M22.375 5.76904C16.5535 5.76904 12 10.2649 12 15.9999C12 21.735 16.5535 26.2308 22.375 26.2308C28.1965 26.2308 32.75 21.735 32.75 15.9999C32.75 10.2649 28.1965 5.76904 22.375 5.76904ZM22.375 20.8992C19.8677 20.8992 17.908 18.7378 17.908 15.9999C17.908 13.2621 19.8677 11.1006 22.375 11.1006C24.8823 11.1006 26.842 13.2621 26.842 15.9999C26.842 18.7378 24.8823 20.8992 22.375 20.8992Z" fill="#D9D9E8"/>
<path d="M170.219 20.4672V6.3457H164.455V25.6547H178V20.4672H170.219Z" fill="#D9D9E8"/>
<path d="M152.206 5.76904C149.815 5.76904 148.114 6.34542 146.011 7.84406C144.742 8.65099 144.108 8.93923 143.561 8.93923C142.898 8.93923 142.293 8.65099 141.111 7.84406C139.007 6.34542 137.307 5.76904 134.915 5.76904C129.094 5.76904 124.54 10.2649 124.54 15.9999C124.54 21.735 129.094 26.2308 134.915 26.2308C137.278 26.2308 138.979 25.6545 141.111 24.1558C142.264 23.3201 142.869 23.0606 143.561 23.0606C144.281 23.0606 144.887 23.3201 146.011 24.1558C148.114 25.6545 149.815 26.2308 152.206 26.2308C158.029 26.2308 162.581 21.735 162.581 15.9999C162.581 10.2649 158.029 5.76904 152.206 5.76904ZM152.177 20.7552C150.823 20.7552 148.806 19.9482 147.308 18.8242C145.896 17.7579 144.771 17.2968 143.561 17.2968C142.379 17.2968 141.227 17.7579 139.815 18.8531C138.315 19.9771 136.298 20.7552 134.944 20.7552C132.436 20.7552 130.448 18.6513 130.448 15.9999C130.448 13.3486 132.436 11.2447 134.944 11.2447C136.298 11.2447 138.315 12.0228 139.815 13.1468C141.284 14.242 142.437 14.703 143.561 14.703C144.771 14.703 145.896 14.242 147.308 13.1757C148.806 12.0516 150.823 11.2447 152.177 11.2447C154.685 11.2447 156.673 13.3486 156.673 15.9999C156.673 18.6513 154.685 20.7552 152.177 20.7552Z" fill="#D9D9E8"/>
<path d="M116.903 13.2623H111.139V6.3457H105.375V25.6547H111.139V18.4499H116.903V25.6547H122.667V6.3457H116.903V13.2623Z" fill="#D9D9E8"/>
<path d="M87.5068 15.9999C87.5068 21.9944 91.8009 26.2308 97.8818 26.2308C99.4669 26.2308 101.484 25.885 103.069 25.3374V19.8617C101.772 20.5534 100.331 20.8992 98.7464 20.8992C95.6051 20.8992 93.4148 18.8819 93.4148 15.9999C93.4148 13.118 95.6051 11.1006 98.7464 11.1006C100.245 11.1006 101.686 11.4753 103.069 12.1958V6.72005C101.571 6.14368 99.5822 5.76904 97.8818 5.76904C91.8009 5.76904 87.5068 10.0055 87.5068 15.9999Z" fill="#D9D9E8"/>
</g>
</svg>
