<svg width="190" height="76" viewBox="0 0 190 76" fill="none" xmlns="http://www.w3.org/2000/svg">
<path d="M12 24V30.5587H33.0684V51.9874H39.5169V24H12Z" fill="#9B98AE"/>
<path d="M24.8396 35.4326H12V48.4918L24.8396 35.4326Z" fill="#9B98AE"/>
<path d="M15.4297 51.9879H28.2693V38.9287L15.4297 51.9879Z" fill="#9B98AE"/>
<path d="M44.8838 37.8423C44.9915 40.6393 46.2712 43.4111 50.5164 43.4111C54.4095 43.4111 56.207 40.9721 56.207 38.0108C56.207 34.8809 54.7119 33.3771 51.4151 31.8311C49.2656 30.8075 48.6651 30.1714 48.6651 28.815C48.6651 27.5513 49.2366 26.6793 50.5454 26.6793C52.231 26.6793 52.5044 28.259 52.5872 29.3416H55.826C55.7763 26.9026 54.7698 24.0508 50.6034 24.0508C47.2901 24.0508 45.3725 26.098 45.3725 29.1057C45.3725 31.9027 46.615 33.2634 49.7875 34.784C52.0985 35.8919 52.8357 36.806 52.8357 38.3309C52.8357 39.7421 52.2352 40.7657 50.6282 40.7657C48.9426 40.7657 48.3172 39.4093 48.1432 37.8591L44.8838 37.8423ZM59.0398 24.3288V43.0783H62.3531V24.3288H59.0398ZM66.1552 43.0783H75.4407L75.7679 40.2265H69.4477V24.3288H66.1344L66.1552 43.0783ZM82.9991 43.0783L87.6295 24.3288H84.1712L82.5394 32.3577C82.0217 34.822 81.3383 37.619 81.123 39.5188H81.065C80.8496 37.5769 80.3609 34.8093 79.8225 32.2903L78.1244 24.3288H74.5585L79.1143 43.0783H82.9991ZM98.9734 31.8311H93.0343V27.2606H99.2467V24.312H89.7955V43.0783H99.2716L99.6857 40.197H93.0591V34.7209H98.9734V31.8311ZM106.938 35.0747C109.037 35.0747 109.609 35.9172 109.609 38.4446V39.1102C109.609 40.7151 109.634 42.2105 109.907 43.0699H113.092C112.905 41.7674 112.823 40.4515 112.848 39.1355V38.3983C112.848 35.6265 112.169 34.4091 110.752 33.7141C111.705 33.3265 113.146 32.1639 113.146 29.4511C113.146 26.1275 111.241 24.3288 107.89 24.3288H102.249V43.0783H105.517V35.0747H106.938ZM105.517 27.0416H107.397C109.087 27.0416 109.849 27.981 109.849 29.6154C109.849 31.4983 109.058 32.3577 107.07 32.3577H105.517V27.0416ZM115.432 37.8423C115.54 40.6393 116.82 43.4111 121.069 43.4111C124.962 43.4111 126.759 40.9721 126.759 38.0108C126.759 34.8809 125.26 33.3771 121.968 31.8311C119.814 30.8075 119.218 30.1714 119.218 28.815C119.218 27.5513 119.789 26.6793 121.094 26.6793C122.784 26.6793 123.057 28.259 123.136 29.3416H126.378C126.308 26.9026 125.314 24.0508 121.148 24.0508C117.834 24.0508 115.921 26.098 115.921 29.1057C115.921 31.9027 117.163 33.2634 120.332 34.784C122.647 35.8919 123.38 36.806 123.38 38.3309C123.38 39.7421 122.784 40.7657 121.177 40.7657C119.487 40.7657 118.861 39.4093 118.692 37.8591L115.432 37.8423ZM140.837 43.0783H143.993V24.3288H139.176C138.224 29.2826 137.076 34.9525 136.695 37.48H136.662C136.281 34.7377 135.42 29.5017 134.484 24.3246H129.555V43.0783H132.549V36.4311C132.549 33.1917 132.467 29.27 132.359 27.0669H132.467C133.067 30.698 134.123 37.4252 135.026 43.0741H137.996C139.193 37.0082 140.228 30.6938 140.853 27.1216H140.936C140.882 29.2531 140.829 32.9095 140.829 36.0941L140.837 43.0783ZM147.737 24.3288V43.0783H151.05V24.3288H147.737ZM157.329 43.0783H160.642V27.2606H164.593V24.312H153.411V27.2606H157.362L157.329 43.0783ZM166.933 43.0783H170.247V34.6535H174.686V43.0783H178V24.3288H174.686V31.7511H170.23V24.3288H166.917L166.933 43.0783Z" fill="#9B98AE"/>
<path d="M49.2126 50.4584C49.0992 50.7671 48.8876 51.0285 48.6115 51.201C48.3354 51.3735 48.0105 51.4472 47.6885 51.4104C46.5785 51.4104 45.9158 50.5426 45.9158 49.4348C45.9158 48.3269 46.5826 47.4802 47.6843 47.4802C48.0124 47.4467 48.342 47.526 48.6205 47.7055C48.8991 47.8849 49.1104 48.1541 49.2209 48.4701H49.9166C49.7261 47.6655 49.0883 46.9115 47.6885 46.9115C47.3592 46.9004 47.0311 46.9581 46.7247 47.0812C46.4182 47.2043 46.1399 47.39 45.9069 47.627C45.674 47.8639 45.4913 48.147 45.3703 48.4587C45.2493 48.7704 45.1925 49.104 45.2035 49.439C45.2035 50.8375 46.0649 51.9664 47.6553 51.9664C49.0262 51.9664 49.6267 51.2756 49.8959 50.4373L49.2126 50.4584ZM57.9928 50.412L58.6348 51.8864H59.3761L57.2307 47.0168H56.4024L54.3316 51.8864H55.073L55.6942 50.412H57.9928ZM55.9013 49.8223C56.39 48.6597 56.7296 47.8256 56.8124 47.5097C56.9201 47.8382 57.1976 48.4743 57.7816 49.8223H55.9013ZM64.1845 51.8864H64.8638V49.936H66.4541C67.5227 49.936 68.1688 49.4011 68.1688 48.449C68.1688 47.6403 67.6221 47.0168 66.4376 47.0168H64.1845V51.8864ZM64.8679 47.5897H66.3672C67.1209 47.5897 67.4854 47.9056 67.4854 48.4575C67.4854 49.1609 67.0257 49.3547 66.3672 49.3547H64.8679V47.5897ZM73.1884 47.0168V51.8864H73.8676V47.0168H73.1884ZM80.5398 51.8864H81.2232V47.5897H83.0413V47.0168H78.7133V47.5897H80.5398V51.8864ZM90.2767 50.412L90.9187 51.8864H91.66L89.5147 47.0168H88.6864L86.6155 51.8864H87.3155L87.9367 50.412H90.2767ZM88.1687 49.8223C88.6532 48.6597 88.9763 47.8256 89.0798 47.5097C89.1875 47.8382 89.465 48.4743 90.0531 49.8223H88.1687ZM96.4519 51.8864H99.9101L100.014 51.3009H97.1145V47.0168H96.4892L96.4519 51.8864ZM110.873 51.8864H111.552V49.936H113.147C114.211 49.936 114.857 49.4011 114.857 48.449C114.857 47.6403 114.311 47.0168 113.126 47.0168H110.873V51.8864ZM111.569 47.5897H113.056C113.809 47.5897 114.174 47.9056 114.174 48.4575C114.174 49.1609 113.718 49.3547 113.056 49.3547H111.556L111.569 47.5897ZM122.436 50.412L123.078 51.8864H123.824L121.679 47.0168H120.85L118.779 51.8864H119.479L120.101 50.412H122.436ZM120.324 49.8223C120.813 48.6597 121.153 47.8256 121.235 47.5097C121.343 47.8382 121.621 48.4743 122.204 49.8223H120.324ZM130.62 49.7844C131.449 49.7844 131.738 50.0119 131.738 50.7322V50.8923C131.715 51.225 131.736 51.5594 131.801 51.8864H132.488C132.438 51.559 132.42 51.2274 132.434 50.8965V50.6858C132.434 49.8434 132.02 49.5864 131.685 49.4979C131.945 49.4453 132.179 49.2978 132.34 49.083C132.502 48.8682 132.581 48.6009 132.563 48.3311C132.563 47.4886 131.9 47.0168 130.906 47.0168H128.62V51.8864H129.287V49.7802L130.62 49.7844ZM129.303 47.5897H130.773C131.498 47.5897 131.867 47.8593 131.867 48.3859C131.867 48.9124 131.498 49.2283 130.749 49.2283H129.303V47.5897ZM138.995 51.899H139.674V47.5897H141.496V47.0168H137.168V47.5897H138.995V51.899ZM146.98 51.899V49.8981C146.98 49.0304 146.98 48.3479 146.947 47.7161C147.29 48.2848 149.166 50.9133 149.879 51.8864H150.641V47.0168H150.007V48.8534C150.007 49.6454 150.007 50.4205 150.049 51.0481C149.779 50.551 148.235 48.5459 147.149 47.0252H146.342V51.8864L146.98 51.899ZM159.653 49.043H156.783V47.5897H159.802V47.0168H156.1V51.8864H159.856L159.951 51.3009H156.783V49.6159H159.653V49.043ZM166.971 49.797C167.8 49.797 168.09 50.0245 168.09 50.7448V50.9049C168.063 51.2328 168.08 51.5629 168.139 51.8864H168.827C168.777 51.559 168.759 51.2274 168.773 50.8965V50.6858C168.773 49.8434 168.359 49.5864 168.023 49.4979C168.284 49.4453 168.517 49.2978 168.679 49.083C168.84 48.8682 168.919 48.6009 168.901 48.3311C168.901 47.4886 168.239 47.0168 167.245 47.0168H164.958V51.8864H165.654V49.7802L166.971 49.797ZM165.654 47.5897H167.124C167.849 47.5897 168.218 47.8593 168.218 48.3859C168.218 48.9124 167.849 49.2283 167.1 49.2283H165.654V47.5897ZM173.689 50.4794C173.85 51.3767 174.517 52.0001 175.859 52.0001C177.3 52.0001 177.909 51.3346 177.909 50.5595C177.909 49.8813 177.632 49.3379 175.905 49.0388C174.815 48.8534 174.617 48.6175 174.617 48.1963C174.617 47.7077 175.064 47.4676 175.751 47.4676C176.762 47.4676 176.965 47.9099 177.064 48.2426H177.748C177.694 47.7498 177.334 46.9199 175.772 46.9199C174.724 46.9199 173.929 47.4086 173.929 48.2637C173.929 48.9293 174.273 49.3884 175.71 49.637C176.953 49.8518 177.213 50.1467 177.213 50.6269C177.213 51.1071 176.849 51.4694 175.905 51.4694C174.96 51.4694 174.559 51.0481 174.381 50.4963L173.689 50.4794Z" fill="#9B98AE"/>
</svg>
