<svg width="190" height="76" viewBox="0 0 190 76" fill="none" xmlns="http://www.w3.org/2000/svg">
<path d="M17.8113 37.64C17.3795 37.64 17.0278 37.512 16.7563 37.2562C16.4972 37.0003 16.3676 36.6592 16.3676 36.2327V26.9851H13.3692C12.4561 26.9851 11.9995 26.5952 11.9995 25.8154C11.9995 25.0479 12.4561 24.6641 13.3692 24.6641H22.2535C23.1666 24.6641 23.6232 25.0479 23.6232 25.8154C23.6232 26.5952 23.1666 26.9851 22.2535 26.9851H19.2551V36.2327C19.2551 36.6592 19.1255 37.0003 18.8664 37.2562C18.6072 37.512 18.2556 37.64 17.8113 37.64Z" fill="#9B98AE"/>
<path d="M26.7706 37.5486C26.3387 37.5486 26.0055 37.4329 25.7711 37.2013C25.5366 36.9698 25.4194 36.6409 25.4194 36.2144V25.9982C25.4194 25.5718 25.5366 25.2428 25.7711 25.0113C26.0055 24.7798 26.3387 24.6641 26.7706 24.6641H33.3228C34.2359 24.6641 34.6924 25.0296 34.6924 25.7606C34.6924 26.5038 34.2359 26.8754 33.3228 26.8754H28.2328V29.891H32.9526C33.8657 29.891 34.3223 30.2626 34.3223 31.0058C34.3223 31.7368 33.8657 32.1024 32.9526 32.1024H28.2328V35.3372H33.3228C34.2359 35.3372 34.6924 35.7088 34.6924 36.4521C34.6924 37.183 34.2359 37.5486 33.3228 37.5486H26.7706Z" fill="#9B98AE"/>
<path d="M42.9438 37.7135C41.6605 37.7135 40.5376 37.4454 39.5751 36.9093C38.6127 36.3732 37.8723 35.6056 37.3541 34.6065C36.8358 33.6075 36.5767 32.4378 36.5767 31.0976C36.5767 29.7574 36.8358 28.5938 37.3541 27.6069C37.8723 26.6078 38.6127 25.8402 39.5751 25.3041C40.5376 24.768 41.6605 24.5 42.9438 24.5C44.5602 24.5 45.9546 24.9386 47.1268 25.8159C47.3119 25.9621 47.4415 26.1083 47.5155 26.2545C47.5896 26.4007 47.6265 26.5835 47.6265 26.8028C47.6265 27.1195 47.534 27.3937 47.3489 27.6252C47.1761 27.8445 46.9602 27.9541 46.7011 27.9541C46.5284 27.9541 46.3741 27.9359 46.2384 27.8993C46.115 27.8506 45.9731 27.7714 45.8127 27.6617C45.3191 27.3449 44.8626 27.1195 44.443 26.9855C44.0234 26.8393 43.5731 26.7662 43.0919 26.7662C41.9073 26.7662 41.0126 27.1317 40.408 27.8628C39.8157 28.5816 39.5196 29.6599 39.5196 31.0976C39.5196 33.9974 40.7104 35.4472 43.0919 35.4472C43.5484 35.4472 43.9803 35.3802 44.3874 35.2462C44.7947 35.1 45.2698 34.8685 45.8127 34.5518C45.9978 34.4421 46.152 34.369 46.2754 34.3324C46.3988 34.2837 46.5407 34.2593 46.7011 34.2593C46.9602 34.2593 47.1761 34.3751 47.3489 34.6065C47.534 34.8259 47.6265 35.0939 47.6265 35.4107C47.6265 35.6301 47.5833 35.8189 47.497 35.9773C47.4229 36.1235 47.2996 36.2636 47.1268 36.3976C45.9546 37.2749 44.5602 37.7135 42.9438 37.7135Z" fill="#9B98AE"/>
<path d="M60.3003 24.5732C60.7323 24.5732 61.0777 24.7012 61.3369 24.957C61.596 25.2129 61.7256 25.554 61.7256 25.9805V36.2333C61.7256 36.6597 61.596 37.007 61.3369 37.275C61.0777 37.5309 60.7323 37.6588 60.3003 37.6588C59.8685 37.6588 59.523 37.5309 59.2638 37.275C59.017 37.0191 58.8937 36.6719 58.8937 36.2333V32.1394H52.8783V36.2333C52.8783 36.6597 52.7487 37.007 52.4895 37.275C52.2304 37.5309 51.8911 37.6588 51.4716 37.6588C51.0397 37.6588 50.6941 37.5309 50.4351 37.275C50.1759 37.0191 50.0464 36.6719 50.0464 36.2333V25.9805C50.0464 25.554 50.1759 25.2129 50.4351 24.957C50.6941 24.7012 51.0397 24.5732 51.4716 24.5732C51.9034 24.5732 52.2427 24.7012 52.4895 24.957C52.7487 25.2129 52.8783 25.554 52.8783 25.9805V29.8733H58.8937V25.9805C58.8937 25.554 59.017 25.2129 59.2638 24.957C59.523 24.7012 59.8685 24.5732 60.3003 24.5732Z" fill="#9B98AE"/>
<path d="M70.6557 37.6955C69.4465 37.6955 68.3914 37.4274 67.4907 36.8913C66.6023 36.3552 65.9174 35.5938 65.4362 34.6068C64.9549 33.62 64.7144 32.4564 64.7144 31.1162C64.7144 29.7637 64.9488 28.5941 65.4177 27.6072C65.8989 26.6081 66.5838 25.8466 67.4722 25.3227C68.3729 24.7866 69.4342 24.5186 70.6557 24.5186C71.8773 24.5186 72.9323 24.7866 73.8208 25.3227C74.7216 25.8466 75.4064 26.6081 75.8753 27.6072C76.3565 28.5941 76.5971 29.7577 76.5971 31.0979C76.5971 32.4381 76.3565 33.6077 75.8753 34.6068C75.3941 35.5938 74.703 36.3552 73.8023 36.8913C72.9138 37.4274 71.865 37.6955 70.6557 37.6955ZM70.6557 36.4162C72.0377 36.4162 73.1113 35.9592 73.8763 35.0455C74.6537 34.1195 75.0424 32.8036 75.0424 31.0979C75.0424 29.3921 74.6599 28.0824 73.8948 27.1686C73.1298 26.2548 72.0501 25.7979 70.6557 25.7979C69.2738 25.7979 68.1941 26.2609 67.4167 27.1868C66.6516 28.1006 66.2691 29.4043 66.2691 31.0979C66.2691 32.7915 66.6516 34.1012 67.4167 35.0272C68.1941 35.9532 69.2738 36.4162 70.6557 36.4162Z" fill="#9B98AE"/>
<path d="M80.6451 37.64C80.4107 37.64 80.2256 37.5729 80.0899 37.4389C79.9541 37.2927 79.8862 37.1039 79.8862 36.8723V25.3951C79.8862 25.1758 79.9541 24.9991 80.0899 24.8651C80.2379 24.7311 80.4292 24.6641 80.6636 24.6641H85.0503C86.42 24.6641 87.481 24.993 88.2339 25.651C88.9988 26.3089 89.3813 27.241 89.3813 28.4472C89.3813 29.6534 88.9988 30.5915 88.2339 31.2617C87.469 31.9318 86.408 32.2668 85.0503 32.2668H81.404V36.8723C81.404 37.1039 81.3361 37.2927 81.2004 37.4389C81.0647 37.5729 80.8796 37.64 80.6451 37.64ZM84.9022 31.0241C86.8886 31.0241 87.8822 30.1651 87.8822 28.4472C87.8822 26.7536 86.8886 25.9068 84.9022 25.9068H81.404V31.0241H84.9022Z" fill="#9B98AE"/>
<path d="M93.1482 37.5486C92.9135 37.5486 92.7223 37.4816 92.5746 37.3476C92.4388 37.2135 92.3706 37.0369 92.3706 36.8175V25.3951C92.3706 25.1758 92.4388 24.9991 92.5746 24.8651C92.7223 24.7311 92.9135 24.6641 93.1482 24.6641H100.07C100.292 24.6641 100.466 24.7189 100.589 24.8285C100.712 24.9382 100.774 25.0905 100.774 25.2854C100.774 25.4804 100.712 25.6327 100.589 25.7423C100.466 25.852 100.292 25.9068 100.07 25.9068H93.8696V30.3844H99.7C99.922 30.3844 100.095 30.4393 100.218 30.5489C100.342 30.6586 100.403 30.8109 100.403 31.0058C100.403 31.2007 100.342 31.353 100.218 31.4627C100.095 31.5724 99.922 31.6272 99.7 31.6272H93.8696V36.3058H100.07C100.292 36.3058 100.466 36.3606 100.589 36.4703C100.712 36.5678 100.774 36.7201 100.774 36.9272C100.774 37.1222 100.712 37.2745 100.589 37.3841C100.466 37.4937 100.292 37.5486 100.07 37.5486H93.1482Z" fill="#9B98AE"/>
<path d="M113.657 36.6165C113.744 36.7505 113.786 36.8906 113.786 37.0369C113.786 37.2196 113.713 37.3719 113.564 37.4937C113.429 37.6034 113.268 37.6582 113.083 37.6582C112.799 37.6582 112.577 37.5364 112.417 37.2927L109.936 33.4182C109.616 32.9186 109.282 32.5775 108.937 32.3948C108.592 32.1998 108.123 32.1024 107.531 32.1024H105.199V36.8723C105.199 37.1039 105.13 37.2927 104.995 37.4389C104.859 37.5729 104.68 37.64 104.458 37.64C104.224 37.64 104.038 37.5729 103.903 37.4389C103.767 37.2927 103.699 37.1039 103.699 36.8723V25.3951C103.699 25.1758 103.767 24.9991 103.903 24.8651C104.05 24.7311 104.242 24.6641 104.476 24.6641H109.066C110.486 24.6641 111.565 24.9747 112.306 25.5961C113.058 26.2175 113.435 27.1313 113.435 28.3375C113.435 29.361 113.132 30.1834 112.528 30.8048C111.936 31.4261 111.084 31.8038 109.974 31.9378C110.282 32.0354 110.559 32.1937 110.806 32.4131C111.054 32.6324 111.3 32.9369 111.547 33.3269L113.657 36.6165ZM108.937 30.8596C109.949 30.8596 110.702 30.6525 111.195 30.2382C111.701 29.824 111.954 29.1965 111.954 28.3558C111.954 27.5273 111.708 26.912 111.213 26.5099C110.72 26.1079 109.961 25.9068 108.937 25.9068H105.199V30.8596H108.937Z" fill="#9B98AE"/>
<path d="M128.069 36.6899C128.119 36.7874 128.143 36.8909 128.143 37.0006C128.143 37.1833 128.069 37.3356 127.921 37.4575C127.786 37.5793 127.619 37.6402 127.421 37.6402C127.113 37.6402 126.897 37.494 126.774 37.2016L125.46 34.2409H118.482L117.149 37.2016C117.026 37.494 116.81 37.6402 116.501 37.6402C116.304 37.6402 116.131 37.5793 115.983 37.4575C115.835 37.3235 115.761 37.1651 115.761 36.9823C115.761 36.8848 115.786 36.7874 115.835 36.6899L121.128 25.0664C121.202 24.8958 121.313 24.7679 121.462 24.6826C121.61 24.5973 121.77 24.5547 121.943 24.5547C122.128 24.5547 122.294 24.6034 122.443 24.7009C122.59 24.7862 122.701 24.908 122.776 25.0664L128.069 36.6899ZM119.037 32.9982H124.905L121.961 26.4371L119.037 32.9982Z" fill="#9B98AE"/>
<path d="M133.225 37.64C132.99 37.64 132.799 37.5729 132.651 37.4389C132.515 37.2927 132.447 37.1039 132.447 36.8723V25.9434H128.468C128.246 25.9434 128.073 25.8885 127.949 25.7789C127.826 25.6692 127.764 25.5108 127.764 25.3037C127.764 25.0966 127.826 24.9382 127.949 24.8285C128.073 24.7189 128.246 24.6641 128.468 24.6641H137.963C138.185 24.6641 138.358 24.7189 138.481 24.8285C138.605 24.9382 138.666 25.0966 138.666 25.3037C138.666 25.5108 138.605 25.6692 138.481 25.7789C138.358 25.8885 138.185 25.9434 137.963 25.9434H133.984V36.8723C133.984 37.1039 133.916 37.2927 133.78 37.4389C133.644 37.5729 133.459 37.64 133.225 37.64Z" fill="#9B98AE"/>
<path d="M145.566 37.6955C144.356 37.6955 143.301 37.4274 142.401 36.8913C141.512 36.3552 140.827 35.5938 140.346 34.6068C139.864 33.62 139.625 32.4564 139.625 31.1162C139.625 29.7637 139.858 28.5941 140.328 27.6072C140.809 26.6081 141.494 25.8466 142.382 25.3227C143.282 24.7866 144.344 24.5186 145.566 24.5186C146.787 24.5186 147.843 24.7866 148.73 25.3227C149.631 25.8466 150.316 26.6081 150.785 27.6072C151.267 28.5941 151.507 29.7577 151.507 31.0979C151.507 32.4381 151.267 33.6077 150.785 34.6068C150.304 35.5938 149.613 36.3552 148.712 36.8913C147.824 37.4274 146.775 37.6955 145.566 37.6955ZM145.566 36.4162C146.948 36.4162 148.021 35.9592 148.786 35.0455C149.564 34.1195 149.952 32.8036 149.952 31.0979C149.952 29.3921 149.57 28.0824 148.805 27.1686C148.04 26.2548 146.96 25.7979 145.566 25.7979C144.184 25.7979 143.104 26.2609 142.326 27.1868C141.561 28.1006 141.179 29.4043 141.179 31.0979C141.179 32.7915 141.561 34.1012 142.326 35.0272C143.104 35.9532 144.184 36.4162 145.566 36.4162Z" fill="#9B98AE"/>
<path d="M164.753 36.6165C164.839 36.7505 164.883 36.8906 164.883 37.0369C164.883 37.2196 164.809 37.3719 164.661 37.4937C164.525 37.6034 164.365 37.6582 164.18 37.6582C163.895 37.6582 163.673 37.5364 163.513 37.2927L161.033 33.4182C160.712 32.9186 160.379 32.5775 160.033 32.3948C159.688 32.1998 159.219 32.1024 158.627 32.1024H156.294V36.8723C156.294 37.1039 156.227 37.2927 156.091 37.4389C155.955 37.5729 155.776 37.64 155.554 37.64C155.32 37.64 155.134 37.5729 154.999 37.4389C154.863 37.2927 154.795 37.1039 154.795 36.8723V25.3951C154.795 25.1758 154.863 24.9991 154.999 24.8651C155.147 24.7311 155.338 24.6641 155.573 24.6641H160.163C161.582 24.6641 162.662 24.9747 163.402 25.5961C164.155 26.2175 164.531 27.1313 164.531 28.3375C164.531 29.361 164.229 30.1834 163.624 30.8048C163.032 31.4261 162.18 31.8038 161.07 31.9378C161.379 32.0354 161.656 32.1937 161.903 32.4131C162.15 32.6324 162.396 32.9369 162.643 33.3269L164.753 36.6165ZM160.033 30.8596C161.045 30.8596 161.798 30.6525 162.291 30.2382C162.797 29.824 163.05 29.1965 163.05 28.3558C163.05 27.5273 162.803 26.912 162.31 26.5099C161.817 26.1079 161.058 25.9068 160.033 25.9068H156.294V30.8596H160.033Z" fill="#9B98AE"/>
<path d="M172.186 37.6955C171.26 37.6955 170.372 37.5614 169.52 37.2934C168.681 37.0132 168.009 36.6416 167.503 36.1786C167.317 36.008 167.225 35.7948 167.225 35.5389C167.225 35.3684 167.275 35.2221 167.373 35.1003C167.472 34.9663 167.589 34.8993 167.725 34.8993C167.885 34.8993 168.058 34.9663 168.243 35.1003C169.391 35.9775 170.699 36.4162 172.167 36.4162C173.228 36.4162 174.042 36.2151 174.61 35.8131C175.178 35.411 175.461 34.8384 175.461 34.0951C175.461 33.6687 175.325 33.3276 175.054 33.0717C174.782 32.8036 174.425 32.5904 173.981 32.4321C173.537 32.2736 172.938 32.1091 172.186 31.9385C171.173 31.7071 170.341 31.4634 169.687 31.2075C169.045 30.9517 168.521 30.5862 168.114 30.111C167.719 29.6358 167.521 29.0144 167.521 28.2468C167.521 27.5158 167.719 26.8701 168.114 26.3096C168.521 25.7369 169.082 25.2983 169.798 24.9937C170.526 24.6769 171.352 24.5186 172.278 24.5186C173.142 24.5186 173.944 24.6526 174.684 24.9206C175.437 25.1765 176.066 25.5481 176.572 26.0355C176.77 26.2304 176.868 26.4436 176.868 26.6751C176.868 26.8457 176.819 26.998 176.72 27.132C176.621 27.2538 176.504 27.3148 176.369 27.3148C176.233 27.3148 176.054 27.2478 175.832 27.1137C175.227 26.6264 174.666 26.2852 174.147 26.0903C173.629 25.8953 173.006 25.7979 172.278 25.7979C171.254 25.7979 170.458 26.0111 169.89 26.4375C169.323 26.8518 169.039 27.4366 169.039 28.192C169.039 28.8378 169.286 29.3251 169.779 29.6541C170.285 29.9709 171.056 30.2511 172.093 30.4948C173.216 30.7628 174.098 31.0126 174.74 31.2441C175.382 31.4634 175.912 31.7985 176.332 32.2492C176.763 32.7001 176.979 33.3032 176.979 34.0586C176.979 34.7774 176.776 35.411 176.369 35.9592C175.973 36.5075 175.412 36.934 174.684 37.2386C173.956 37.5432 173.123 37.6955 172.186 37.6955Z" fill="#9B98AE"/>
<path d="M18.0204 45.4484C18.1157 45.2484 18.2735 45.1484 18.4939 45.1484C18.6428 45.1484 18.7768 45.1955 18.896 45.2896C19.0151 45.3837 19.0746 45.5013 19.0746 45.6425C19.0746 45.7071 19.0568 45.7806 19.0211 45.863L16.5462 51.1207C16.4926 51.2325 16.4092 51.3207 16.2961 51.3854C16.1889 51.4442 16.0727 51.4736 15.9476 51.4736C15.8226 51.4736 15.7034 51.4442 15.5903 51.3854C15.4831 51.3207 15.4027 51.2325 15.3491 51.1207L12.8832 45.863C12.8475 45.7806 12.8296 45.7101 12.8296 45.6513C12.8296 45.5042 12.8892 45.3837 13.0083 45.2896C13.1334 45.1955 13.2733 45.1484 13.4282 45.1484C13.5294 45.1484 13.6218 45.1749 13.7051 45.2278C13.7945 45.2748 13.863 45.3484 13.9106 45.4484L15.9655 49.9562L18.0204 45.4484Z" fill="#9B98AE"/>
<path d="M26.3542 51.4205C26.1815 51.4205 26.0445 51.3734 25.9433 51.2793C25.848 51.1852 25.8003 51.0528 25.8003 50.8823V45.7393C25.8003 45.5687 25.848 45.4364 25.9433 45.3423C26.0445 45.2482 26.1815 45.2012 26.3542 45.2012H29.5795C29.7522 45.2012 29.8862 45.2394 29.9815 45.3158C30.0768 45.3923 30.1245 45.5011 30.1245 45.6423C30.1245 45.7892 30.0768 45.9039 29.9815 45.9863C29.8862 46.0628 29.7522 46.101 29.5795 46.101H26.926V47.8124H29.4008C29.5735 47.8124 29.7075 47.8506 29.8028 47.9271C29.8981 48.0035 29.9458 48.1153 29.9458 48.2623C29.9458 48.4035 29.8981 48.5122 29.8028 48.5887C29.7075 48.6651 29.5735 48.7033 29.4008 48.7033H26.926V50.5206H29.5795C29.7522 50.5206 29.8862 50.5618 29.9815 50.6441C30.0768 50.7206 30.1245 50.8323 30.1245 50.9794C30.1245 51.1205 30.0768 51.2293 29.9815 51.3058C29.8862 51.3822 29.7522 51.4205 29.5795 51.4205H26.3542Z" fill="#9B98AE"/>
<path d="M41.8182 45.1572C41.985 45.1572 42.1161 45.2102 42.2114 45.316C42.3126 45.416 42.3633 45.5512 42.3633 45.7218V50.9001C42.3633 51.0707 42.3126 51.2089 42.2114 51.3148C42.1101 51.4207 41.9791 51.4735 41.8182 51.4735C41.6277 51.4735 41.4818 51.4059 41.3805 51.2706L38.1195 47.0804V50.9001C38.1195 51.0707 38.0719 51.2089 37.9766 51.3148C37.8812 51.4207 37.7502 51.4735 37.5835 51.4735C37.4167 51.4735 37.2857 51.4207 37.1904 51.3148C37.0951 51.2089 37.0474 51.0707 37.0474 50.9001V45.7218C37.0474 45.5512 37.0981 45.416 37.1993 45.316C37.3005 45.2102 37.4345 45.1572 37.6013 45.1572C37.7859 45.1572 37.9289 45.2248 38.0302 45.3601L41.2822 49.5328V45.7218C41.2822 45.5512 41.3298 45.416 41.4251 45.316C41.5265 45.2102 41.6575 45.1572 41.8182 45.1572Z" fill="#9B98AE"/>
<path d="M51.7716 51.4645C51.593 51.4645 51.45 51.4146 51.3428 51.3146C51.2415 51.2087 51.1909 51.0705 51.1909 50.8999V46.1362H49.5649C49.2075 46.1362 49.0288 45.9804 49.0288 45.6687C49.0288 45.357 49.2075 45.2012 49.5649 45.2012H53.9695C54.3269 45.2012 54.5055 45.357 54.5055 45.6687C54.5055 45.9804 54.3269 46.1362 53.9695 46.1362H52.3434V50.8999C52.3434 51.0705 52.2899 51.2087 52.1826 51.3146C52.0814 51.4146 51.9444 51.4645 51.7716 51.4645Z" fill="#9B98AE"/>
<path d="M63.7728 51.5C62.9092 51.5 62.254 51.2795 61.8073 50.8384C61.3606 50.3973 61.1372 49.7533 61.1372 48.9065V45.7218C61.1372 45.5512 61.1878 45.416 61.2891 45.316C61.3904 45.2102 61.5274 45.1572 61.7001 45.1572C61.8728 45.1572 62.0098 45.2102 62.111 45.316C62.2123 45.416 62.2629 45.5512 62.2629 45.7218V48.9682C62.2629 49.5034 62.391 49.9092 62.6471 50.1856C62.9032 50.4562 63.2784 50.5914 63.7728 50.5914C64.2613 50.5914 64.6335 50.4532 64.8896 50.1768C65.1457 49.9004 65.2738 49.4975 65.2738 48.9682V45.7218C65.2738 45.5512 65.3244 45.416 65.4257 45.316C65.5269 45.2102 65.6639 45.1572 65.8366 45.1572C66.0093 45.1572 66.1463 45.2102 66.2476 45.316C66.3489 45.416 66.3995 45.5512 66.3995 45.7218V48.9065C66.3995 49.7475 66.1761 50.3914 65.7294 50.8384C65.2827 51.2795 64.6305 51.5 63.7728 51.5Z" fill="#9B98AE"/>
<path d="M78.7504 50.7059C78.8219 50.8118 78.8576 50.9147 78.8576 51.0146C78.8576 51.1499 78.801 51.2617 78.6879 51.3499C78.5806 51.4381 78.4525 51.4822 78.3037 51.4822C78.2084 51.4822 78.1161 51.4616 78.0267 51.4205C77.9433 51.3734 77.8718 51.3058 77.8123 51.2175L76.624 49.4356C76.5049 49.2473 76.3768 49.115 76.2398 49.0386C76.1088 48.9621 75.9361 48.9239 75.7217 48.9239H74.8461V50.8999C74.8461 51.0764 74.7955 51.2175 74.6942 51.3234C74.593 51.4234 74.456 51.4733 74.2832 51.4733C74.1105 51.4733 73.9705 51.4234 73.8634 51.3234C73.7621 51.2175 73.7114 51.0764 73.7114 50.8999V45.7393C73.7114 45.5687 73.7591 45.4364 73.8544 45.3423C73.9557 45.2482 74.0927 45.2012 74.2654 45.2012H76.4989C77.2136 45.2012 77.7557 45.3599 78.125 45.6775C78.5002 45.9892 78.6879 46.4421 78.6879 47.0361C78.6879 47.5183 78.5478 47.9153 78.2679 48.227C77.9939 48.5328 77.6038 48.7298 77.0976 48.818C77.2703 48.8592 77.4221 48.9327 77.5532 49.0386C77.6842 49.1444 77.8123 49.2915 77.9374 49.4797L78.7504 50.7059ZM76.3381 48.0506C76.7729 48.0506 77.0916 47.9712 77.2941 47.8124C77.4966 47.6477 77.5978 47.3978 77.5978 47.0625C77.5978 46.7214 77.4966 46.4744 77.2941 46.3215C77.0916 46.1627 76.7729 46.0833 76.3381 46.0833H74.8372V48.0506H76.3381Z" fill="#9B98AE"/>
<path d="M86.463 51.4205C86.2899 51.4205 86.1529 51.3734 86.0517 51.2793C85.9564 51.1852 85.9087 51.0528 85.9087 50.8823V45.7393C85.9087 45.5687 85.9564 45.4364 86.0517 45.3423C86.1529 45.2482 86.2899 45.2012 86.463 45.2012H89.6875C89.8608 45.2012 89.995 45.2394 90.0902 45.3158C90.1855 45.3923 90.2327 45.5011 90.2327 45.6423C90.2327 45.7892 90.1855 45.9039 90.0902 45.9863C89.995 46.0628 89.8608 46.101 89.6875 46.101H87.0344V47.8124H89.5091C89.6823 47.8124 89.8158 47.8506 89.911 47.9271C90.0062 48.0035 90.0542 48.1153 90.0542 48.2623C90.0542 48.4035 90.0062 48.5122 89.911 48.5887C89.8158 48.6651 89.6823 48.7033 89.5091 48.7033H87.0344V50.5206H89.6875C89.8608 50.5206 89.995 50.5618 90.0902 50.6441C90.1855 50.7206 90.2327 50.8323 90.2327 50.9794C90.2327 51.1205 90.1855 51.2293 90.0902 51.3058C89.995 51.3822 89.8608 51.4205 89.6875 51.4205H86.463Z" fill="#9B98AE"/>
<path d="M108.382 51.5002C107.775 51.5002 107.242 51.3708 106.783 51.1121C106.331 50.8533 105.982 50.4828 105.738 50.0005C105.494 49.5182 105.372 48.9537 105.372 48.3067C105.372 47.6598 105.494 47.0982 105.738 46.6218C105.982 46.1395 106.331 45.769 106.783 45.5103C107.242 45.2515 107.775 45.1221 108.382 45.1221C108.775 45.1221 109.145 45.1809 109.49 45.2985C109.836 45.4103 110.142 45.5749 110.41 45.7925C110.488 45.8513 110.541 45.9131 110.571 45.9778C110.601 46.0425 110.616 46.1219 110.616 46.216C110.616 46.3454 110.58 46.4542 110.508 46.5424C110.437 46.6306 110.351 46.6747 110.25 46.6747C110.13 46.6747 110.008 46.6335 109.883 46.5512C109.627 46.363 109.389 46.2336 109.168 46.1631C108.948 46.0866 108.704 46.0484 108.436 46.0484C107.816 46.0484 107.346 46.2395 107.024 46.6218C106.709 47.0041 106.55 47.5657 106.55 48.3067C106.55 49.0536 106.709 49.6182 107.024 50.0005C107.346 50.3828 107.816 50.5739 108.436 50.5739C108.692 50.5739 108.928 50.5357 109.142 50.4592C109.362 50.3828 109.609 50.2534 109.883 50.0711C109.943 50.0358 110.002 50.0064 110.062 49.9829C110.121 49.9593 110.184 49.9476 110.25 49.9476C110.351 49.9476 110.437 49.9917 110.508 50.0799C110.58 50.1681 110.616 50.2769 110.616 50.4063C110.616 50.4945 110.601 50.5739 110.571 50.6445C110.541 50.7092 110.488 50.7709 110.41 50.8297C110.142 51.0473 109.836 51.215 109.49 51.3326C109.145 51.4443 108.775 51.5002 108.382 51.5002Z" fill="#9B98AE"/>
<path d="M123.205 50.7414C123.24 50.8178 123.258 50.8943 123.258 50.9707C123.258 51.106 123.202 51.2207 123.089 51.3148C122.982 51.4089 122.856 51.4559 122.713 51.4559C122.618 51.4559 122.529 51.4324 122.445 51.3854C122.362 51.3324 122.297 51.253 122.249 51.1472L121.713 49.965H118.568L118.032 51.1472C117.984 51.253 117.919 51.3324 117.835 51.3854C117.752 51.4324 117.66 51.4559 117.558 51.4559C117.421 51.4559 117.297 51.4089 117.183 51.3148C117.07 51.2207 117.013 51.106 117.013 50.9707C117.013 50.8943 117.031 50.8178 117.067 50.7414L119.533 45.5101C119.587 45.3925 119.667 45.3043 119.774 45.2454C119.888 45.1808 120.007 45.1484 120.131 45.1484C120.256 45.1484 120.373 45.1808 120.48 45.2454C120.593 45.3043 120.676 45.3925 120.73 45.5101L123.205 50.7414ZM118.961 49.0829H121.32L120.14 46.4629L118.961 49.0829Z" fill="#9B98AE"/>
<path d="M130.684 51.4733C130.512 51.4733 130.372 51.4234 130.264 51.3234C130.163 51.2175 130.113 51.0764 130.113 50.8999V45.7393C130.113 45.5687 130.16 45.4364 130.255 45.3423C130.357 45.2482 130.494 45.2012 130.666 45.2012H132.864C133.538 45.2012 134.062 45.3687 134.437 45.704C134.812 46.0334 135 46.4979 135 47.0978C135 47.6977 134.812 48.1653 134.437 48.5005C134.062 48.8357 133.538 49.0033 132.864 49.0033H131.265V50.8999C131.265 51.0764 131.211 51.2175 131.104 51.3234C131.003 51.4234 130.863 51.4733 130.684 51.4733ZM132.721 48.1299C133.514 48.1299 133.909 47.7888 133.909 47.1066C133.909 46.4244 133.514 46.0833 132.721 46.0833H131.265V48.1299H132.721Z" fill="#9B98AE"/>
<path d="M142.569 51.4735C142.396 51.4735 142.256 51.4207 142.149 51.3148C142.048 51.2089 141.997 51.0707 141.997 50.9001V45.7218C141.997 45.5512 142.048 45.416 142.149 45.316C142.256 45.2102 142.396 45.1572 142.569 45.1572C142.747 45.1572 142.887 45.2102 142.989 45.316C143.096 45.416 143.149 45.5512 143.149 45.7218V50.9001C143.149 51.0707 143.096 51.2089 142.989 51.3148C142.887 51.4207 142.747 51.4735 142.569 51.4735Z" fill="#9B98AE"/>
<path d="M152.559 51.4645C152.38 51.4645 152.237 51.4146 152.13 51.3146C152.029 51.2087 151.978 51.0705 151.978 50.8999V46.1362H150.352C149.994 46.1362 149.816 45.9804 149.816 45.6687C149.816 45.357 149.994 45.2012 150.352 45.2012H154.756C155.114 45.2012 155.292 45.357 155.292 45.6687C155.292 45.9804 155.114 46.1362 154.756 46.1362H153.13V50.8999C153.13 51.0705 153.076 51.2087 152.97 51.3146C152.869 51.4146 152.731 51.4645 152.559 51.4645Z" fill="#9B98AE"/>
<path d="M166.893 50.7414C166.929 50.8178 166.946 50.8943 166.946 50.9707C166.946 51.106 166.89 51.2207 166.777 51.3148C166.669 51.4089 166.544 51.4559 166.402 51.4559C166.306 51.4559 166.217 51.4324 166.133 51.3854C166.05 51.3324 165.985 51.253 165.937 51.1472L165.4 49.965H162.256L161.72 51.1472C161.672 51.253 161.607 51.3324 161.524 51.3854C161.44 51.4324 161.347 51.4559 161.246 51.4559C161.11 51.4559 160.984 51.4089 160.871 51.3148C160.758 51.2207 160.702 51.106 160.702 50.9707C160.702 50.8943 160.719 50.8178 160.755 50.7414L163.221 45.5101C163.275 45.3925 163.355 45.3043 163.462 45.2454C163.575 45.1808 163.694 45.1484 163.82 45.1484C163.944 45.1484 164.06 45.1808 164.168 45.2454C164.281 45.3043 164.364 45.3925 164.418 45.5101L166.893 50.7414ZM162.649 49.0829H165.008L163.828 46.4629L162.649 49.0829Z" fill="#9B98AE"/>
<path d="M174.346 51.4207C174.173 51.4207 174.04 51.3736 173.944 51.2795C173.849 51.1854 173.801 51.056 173.801 50.8913V45.7218C173.801 45.5512 173.852 45.416 173.953 45.316C174.06 45.2102 174.2 45.1572 174.373 45.1572C174.552 45.1572 174.691 45.2102 174.793 45.316C174.9 45.416 174.954 45.5512 174.954 45.7218V50.4856H177.464C177.821 50.4856 178 50.6414 178 50.9531C178 51.2648 177.821 51.4207 177.464 51.4207H174.346Z" fill="#9B98AE"/>
</svg>
