<svg width="190" height="76" viewBox="0 0 190 76" fill="none" xmlns="http://www.w3.org/2000/svg">
<path d="M46.1963 44.248H47.4136L49.3503 49.2129L51.2316 44.248H52.449L49.793 50.7191H48.797L46.1963 44.248Z" fill="#9B98AE"/>
<path d="M54.1084 44.248H58.8671V45.2522H55.2704V46.9257H58.4797V47.9299H55.2704V49.6592H58.9224V50.6633H54.1637V44.248H54.1084Z" fill="#9B98AE"/>
<path d="M60.8594 44.248H61.9107L65.3414 48.7109V44.248H66.448V50.6633H65.5074L61.966 46.089V50.6633H60.8594V44.248Z" fill="#9B98AE"/>
<path d="M70.1001 45.308H68.0527V44.248H73.1987V45.308H71.2067V50.7191H70.1001V45.308Z" fill="#9B98AE"/>
<path d="M74.9141 47.9299V44.248H76.0207V47.9299C76.0207 49.1014 76.6294 49.7708 77.6254 49.7708C78.6214 49.7708 79.2301 49.1571 79.2301 47.9856V44.3038H80.3367V47.9299C80.3367 49.8266 79.2301 50.8307 77.5701 50.8307C75.9101 50.8307 74.9141 49.8266 74.9141 47.9299Z" fill="#9B98AE"/>
<path d="M82.5498 44.2476H85.3718C86.0358 44.1918 86.6998 44.415 87.1978 44.917C87.5298 45.3075 87.7511 45.8096 87.7511 46.3117C87.8065 47.26 87.1425 48.041 86.2571 48.2642L87.9725 50.7187H86.6445L85.0951 48.4873H83.7118V50.7187H82.6051V44.2476H82.5498ZM85.3165 47.4274C86.1465 47.4274 86.6445 46.9811 86.6445 46.3675C86.6445 45.698 86.1465 45.3075 85.3165 45.3075H83.6565V47.4832L85.3165 47.4274Z" fill="#9B98AE"/>
<path d="M89.7988 44.248H94.5575V45.2522H90.9608V46.9257H94.1702V47.9299H90.9608V49.6592H94.6128V50.6633H89.8542V44.248H89.7988Z" fill="#9B98AE"/>
<path d="M96.1064 49.771L96.7704 48.9342C97.3238 49.4363 98.0431 49.771 98.7624 49.771C99.4818 49.771 99.8691 49.4363 99.8691 48.9342C99.8691 48.488 99.5924 48.209 98.4304 47.9301C97.0471 47.5954 96.3278 47.2049 96.3278 46.0334C96.3278 44.9177 97.2131 44.1367 98.4858 44.1367C99.3158 44.1367 100.146 44.4156 100.81 44.9735L100.201 45.8103C99.7031 45.4198 99.0944 45.1966 98.4858 45.1409C97.8218 45.1409 97.4344 45.4756 97.4344 45.9218C97.4344 46.4239 97.7111 46.647 98.9838 46.926C100.367 47.2607 101.031 47.7628 101.031 48.8227C101.031 50.0499 100.09 50.7194 98.7624 50.7194C97.8218 50.7751 96.8811 50.3847 96.1064 49.771Z" fill="#9B98AE"/>
<path d="M24.45 48.4318C19.0827 47.6508 15.0987 43.188 15.0987 38C15.0987 32.812 19.0827 28.3492 24.45 27.5682V24.5C17.3673 25.281 12 31.0826 12 38C12 44.9174 17.3673 50.719 24.45 51.5V48.4318Z" fill="#9B98AE"/>
<path d="M27.7148 24.5V27.5682C33.0822 28.3492 37.0662 32.812 37.0662 38C37.0662 43.188 33.0822 47.6508 27.7148 48.4318V51.5C34.8528 50.6632 40.2202 44.8616 40.2202 38C40.2202 31.1384 34.8528 25.281 27.7148 24.5Z" fill="#9B98AE"/>
<path d="M46.1406 25.6719H48.6306V37.6657H56.1006V39.9529H46.1406V25.6719Z" fill="#9B98AE"/>
<path d="M59.0889 25.6719H61.5789V39.9529H59.0889V25.6719Z" fill="#9B98AE"/>
<path d="M65.1198 32.8673C65.0645 28.795 68.2738 25.5037 72.2578 25.3921C72.3132 25.3921 72.3685 25.3921 72.4238 25.3921C74.4158 25.2805 76.3525 26.0057 77.8465 27.3446L76.2418 29.2413C75.1905 28.2371 73.7518 27.6793 72.2578 27.7351C69.6572 27.7351 67.6652 30.0222 67.6652 32.7557V32.8115C67.6652 35.7681 69.6018 37.9437 72.4792 37.9437C73.6965 37.9437 74.9138 37.5532 75.9098 36.828V34.2061H72.3132V32.0305H78.3998V38.0553C76.7398 39.5057 74.6372 40.2867 72.4792 40.2867C67.9972 40.2309 65.1198 36.9954 65.1198 32.8673Z" fill="#9B98AE"/>
<path d="M81.8857 25.6719H84.3757V31.6409H91.1264V25.6719H93.6164V39.9529H91.1264V33.9281H84.3757V39.9529H81.8857V25.6719Z" fill="#9B98AE"/>
<path d="M100.866 27.9591H96.3838V25.6719H107.893V28.0149H103.411V40.0086H100.921L100.866 27.9591Z" fill="#9B98AE"/>
<path d="M108.889 37.8886L110.383 36.1035C111.6 37.275 113.205 37.9444 114.865 37.9444C116.414 37.9444 117.355 37.2192 117.355 36.1593V36.1035C117.355 35.0994 116.801 34.5415 114.145 33.9279C111.102 33.2027 109.442 32.2543 109.442 29.6324V29.5766C109.442 27.1221 111.489 25.4485 114.311 25.4485C116.193 25.3928 118.019 26.0622 119.457 27.2894L118.129 29.1861C117.023 28.2936 115.695 27.7915 114.256 27.7357C112.817 27.7357 111.932 28.5167 111.932 29.4093V29.4651C111.932 30.5808 112.596 31.0828 115.307 31.6965C118.295 32.4217 119.845 33.5374 119.845 35.8804V35.9361C119.845 38.6138 117.742 40.2316 114.754 40.2316C112.651 40.1758 110.549 39.339 108.889 37.8886Z" fill="#9B98AE"/>
<path d="M125.655 27.9591H121.173V25.6719H132.682V28.0149H128.2V40.0086H125.655V27.9591Z" fill="#9B98AE"/>
<path d="M133.125 32.8677C133.069 28.7954 136.334 25.4483 140.318 25.3925C140.373 25.3925 140.484 25.3925 140.539 25.3925C144.523 25.2809 147.843 28.4607 147.954 32.4772C147.954 32.5888 147.954 32.7003 147.954 32.7561V32.8119C148.009 36.8842 144.745 40.1756 140.761 40.2313C140.705 40.2313 140.595 40.2313 140.539 40.2313C136.555 40.3429 133.235 37.1632 133.125 33.2024C133.125 33.0351 133.125 32.9235 133.125 32.8677ZM145.353 32.8677C145.353 30.0227 143.361 27.7355 140.539 27.7355C137.717 27.7355 135.781 30.0227 135.781 32.7561V32.8119C135.67 35.4896 137.773 37.7768 140.429 37.8884C140.484 37.8884 140.539 37.8884 140.595 37.8884C143.417 37.8884 145.353 35.657 145.353 32.8677Z" fill="#9B98AE"/>
<path d="M150.278 25.6719H152.602L160.183 35.5458V25.6719H162.618V39.9529H160.515L152.713 29.8V39.9529H150.278V25.6719Z" fill="#9B98AE"/>
<path d="M167.376 25.6719H177.889V27.9033H169.866V31.6409H177.004V33.8723H169.866V37.7215H178V39.9529H167.376V25.6719Z" fill="#9B98AE"/>
</svg>
