<svg width="190" height="88" viewBox="0 0 190 88" fill="none" xmlns="http://www.w3.org/2000/svg">
<path d="M27.2726 54.8835C25.2033 54.91 23.1501 54.5127 21.2368 53.7154C19.4164 52.9174 17.7616 51.7785 16.3598 50.3588C14.9603 48.959 13.8686 47.2765 13.156 45.4212C12.3792 43.5267 11.9863 41.4939 12.0007 39.4431C11.9753 37.3533 12.3683 35.2798 13.156 33.3475C13.9509 31.5367 15.0356 29.8708 16.3664 28.4167C17.7484 27.0001 19.4102 25.8941 21.2435 25.1708C23.1151 24.386 25.1235 23.9888 27.1497 24.0028C28.5363 23.9755 29.9195 24.1507 31.2565 24.523C32.5083 24.9063 33.7141 25.4286 34.8521 26.0805C35.9835 26.7129 37.0208 27.5039 37.933 28.4301C38.8656 29.4018 39.7246 30.4431 40.5027 31.545L36.6515 34.0121C35.7636 32.3338 34.4809 30.902 32.9165 29.8432C31.2705 28.7884 29.3538 28.2467 27.4054 28.2858C25.9421 28.2468 24.4904 28.5585 23.1691 29.1954C21.8924 29.778 20.7209 30.5721 19.703 31.545C18.5936 32.5241 17.7531 33.7763 17.2628 35.1802C16.7515 36.5419 16.4904 37.9866 16.4926 39.4431C16.4768 40.9074 16.7382 42.3612 17.2628 43.7261C17.7912 45.0432 18.5823 46.2361 19.5868 47.2304C20.5477 48.2732 21.7339 49.0773 23.0529 49.58C24.3892 50.1517 25.8218 50.4583 27.2726 50.483C29.5965 50.483 31.5089 49.9627 33.1788 48.8047C34.7805 47.6842 36.0637 46.1589 36.9005 44.3807L40.8845 46.5893C40.2587 47.8516 39.4779 49.029 38.5605 50.0936C37.6881 51.1306 36.646 52.0082 35.4795 52.6883C34.3269 53.431 33.0715 53.9966 31.7545 54.3666C30.2775 54.6656 28.7782 54.8385 27.2726 54.8835ZM54.2308 50.8556C55.1209 50.8927 56.0074 50.7203 56.8204 50.3521C57.5797 49.9983 58.2737 49.5158 58.8721 48.9255C59.4125 48.3138 59.8419 47.6104 60.1403 46.8478C60.5073 46.0333 60.6834 45.1443 60.6549 44.2498C60.683 43.3564 60.5069 42.4685 60.1403 41.6551C59.8188 40.9007 59.3855 40.2001 58.8555 39.5774C58.3442 38.9296 57.574 38.5402 56.8038 38.1508C55.9902 37.8075 55.1173 37.6307 54.2358 37.6307C53.3542 37.6307 52.4813 37.8075 51.6678 38.1508C50.1229 38.8445 48.8878 40.0932 48.2017 41.6551C47.8352 42.4685 47.6591 43.3564 47.6871 44.2498C47.6587 45.1443 47.8348 46.0333 48.2017 46.8478C48.5492 47.6561 49.0259 48.4012 49.6127 49.0531C50.2119 49.6449 50.907 50.1285 51.6678 50.483C52.4999 50.7382 53.3645 50.8694 54.2341 50.8723M53.7228 54.9003C52.441 54.906 51.1722 54.6407 49.9978 54.1215C48.7812 53.6342 47.686 52.8812 46.7907 51.9162C45.8462 50.928 45.0619 49.7952 44.4667 48.5596C43.8998 47.1572 43.5959 45.6605 43.5703 44.1457C43.5189 42.6234 43.8261 41.1105 44.4667 39.7318C44.9656 38.4765 45.7084 37.3351 46.6513 36.3752C47.5828 35.4516 48.67 34.7036 49.8617 34.1665C51.0844 33.6604 52.3917 33.396 53.7129 33.3878C55.0364 33.3709 56.3487 33.6362 57.564 34.1665C58.6962 34.6749 59.7039 35.429 60.5155 36.3752V33.8678H64.8813V54.5042H60.5288V51.6511C59.76 52.6767 58.7438 53.4858 57.5773 54.0007C56.3823 54.6057 55.0626 54.9162 53.7261 54.907M79.6585 50.879C80.5421 50.9078 81.4204 50.7297 82.2248 50.3588C82.9852 50.0051 83.6803 49.5227 84.2799 48.9322C84.8994 48.2999 85.3841 47.546 85.7042 46.7169C86.071 45.9036 86.2471 45.0156 86.2188 44.1222C86.2472 43.2277 86.0711 42.3387 85.7042 41.5242C85.319 40.7455 84.9339 39.9667 84.2932 39.4498C83.6943 38.8576 82.9992 38.3739 82.2381 38.0199C81.4246 37.6787 80.5525 37.503 79.6718 37.503C78.791 37.503 77.9189 37.6787 77.1054 38.0199C76.3401 38.3705 75.6404 38.852 75.0371 39.4431C74.4894 40.0538 74.0543 40.7586 73.7522 41.5242C73.3853 42.3387 73.2092 43.2277 73.2376 44.1222C73.2096 45.0156 73.3857 45.9035 73.7522 46.7169C74.0738 47.4713 74.507 48.1719 75.0371 48.7946C75.5517 49.4424 76.3219 49.8318 77.0921 50.2212C77.8624 50.7414 78.6326 50.8723 79.6585 50.8723M80.2992 54.9003C78.9336 54.907 77.58 54.6424 76.3153 54.1215C75.1816 53.6156 74.1726 52.8625 73.3605 51.9162V64H69.0014V33.8678H73.3671V36.7243C74.1674 35.6989 75.1747 34.8578 76.3219 34.2572C77.5064 33.6227 78.8332 33.3093 80.1731 33.3475C81.4942 33.3564 82.8014 33.6208 84.0242 34.1263C85.2575 34.5829 86.3595 35.3418 87.2313 36.3349C88.1742 37.2948 88.917 38.4362 89.4159 39.6915C89.9854 41.0932 90.2906 42.5903 90.3156 44.1054C90.3659 45.628 90.0575 47.1409 89.4159 48.5194C88.9124 49.8071 88.1163 50.9569 87.0919 51.876C86.1611 52.7996 85.0736 53.5465 83.8815 54.0812C82.7584 54.6061 81.5365 54.8797 80.2992 54.8835M93.7817 54.4941H98.1441V33.8678H93.7817V54.4941ZM101.484 33.8577H104.96V26.8592L109.326 24.3921V33.8678H113.688V37.7648H109.316V46.069C109.282 46.8066 109.325 47.5456 109.442 48.2743C109.571 48.7946 109.701 49.3149 110.086 49.5733C110.455 49.8912 110.895 50.1135 111.368 50.2212C112.089 50.3427 112.821 50.3866 113.552 50.3521V54.5042H112.908C111.614 54.5314 110.32 54.4007 109.057 54.1148C108.129 53.8793 107.284 53.385 106.62 52.6883C105.967 51.9573 105.523 51.0604 105.335 50.0936C105.055 48.7703 104.925 47.4188 104.95 46.0657V37.8924H101.484V33.8577ZM126.517 50.8623C127.401 50.891 128.281 50.713 129.086 50.342C129.846 49.9875 130.541 49.5051 131.141 48.9154C131.686 48.3041 132.119 47.6008 132.423 46.8377C132.79 46.0233 132.966 45.1342 132.937 44.2397C132.965 43.3463 132.789 42.4584 132.423 41.645C132.101 40.8914 131.669 40.191 131.141 39.5673C130.531 38.9906 129.838 38.5098 129.086 38.1408C128.273 37.7974 127.4 37.6206 126.518 37.6206C125.637 37.6206 124.764 37.7974 123.95 38.1408C122.405 38.8344 121.17 40.0832 120.484 41.645C120.118 42.4584 119.942 43.3463 119.97 44.2397C119.941 45.1342 120.117 46.0233 120.484 46.8377C120.83 47.6494 121.305 48.3979 121.892 49.0531C122.491 49.6449 123.186 50.1285 123.947 50.483C124.777 50.748 125.643 50.8794 126.513 50.8723M125.876 54.8835C124.595 54.8892 123.327 54.624 122.154 54.1047C120.937 53.6167 119.841 52.8638 118.944 51.8995C117.998 50.9121 117.214 49.7791 116.62 48.5429C116.05 47.1411 115.745 45.6441 115.72 44.1289C115.67 42.6063 115.978 41.0934 116.62 39.715C117.119 38.4605 117.86 37.3194 118.801 36.3584C119.733 35.4348 120.82 34.6868 122.011 34.1498C123.237 33.6342 124.549 33.3618 125.876 33.3475C127.199 33.3306 128.512 33.596 129.727 34.1263C130.86 34.6346 131.869 35.3886 132.682 36.3349V33.8678H137.044V54.5042H132.682V51.6511C131.912 52.6769 130.895 53.4859 129.727 54.0007C128.54 54.6256 127.213 54.9296 125.876 54.8835ZM141.281 54.4941H145.646V24.3921H141.281V54.4941ZM164.647 41.3866V45.8207H173.634V54.8835H178V41.3967L164.647 41.3866ZM164.647 50.4729C163.264 50.5116 161.894 50.1989 160.663 49.5633C159.385 48.9803 158.213 48.1863 157.193 47.2136C156.167 46.1765 155.533 45.0084 154.869 43.7094C154.354 42.3483 154.099 40.9005 154.119 39.4431C154.103 37.9788 154.364 36.525 154.889 35.1601C155.386 33.8265 156.182 32.6272 157.213 31.6558C158.232 30.6832 159.405 29.8891 160.683 29.3062C162.024 28.7328 163.462 28.4251 164.919 28.3999C167.1 28.3999 168.903 28.9168 170.437 29.9574C171.993 31.0187 173.267 32.4503 174.148 34.1263L178 31.6625C177.375 30.4853 176.549 29.4295 175.559 28.5442C174.645 27.62 173.608 26.8292 172.478 26.1946C171.34 25.5441 170.134 25.0219 168.883 24.6371C167.545 24.2705 166.162 24.1009 164.776 24.1337C162.709 24.1197 160.659 24.5166 158.744 25.3018C156.926 26.0562 155.269 27.1571 153.863 28.5442C152.464 29.9441 151.37 31.625 150.653 33.4784C149.864 35.4117 149.471 37.4864 149.498 39.5774C149.471 41.6271 149.864 43.6603 150.653 45.5488C151.401 47.3859 152.491 49.0609 153.863 50.483C155.276 51.8904 156.93 53.0276 158.744 53.8396C160.57 54.6244 162.536 55.022 164.52 55.0077V50.483L164.647 50.4729Z" fill="#9B98AE"/>
</svg>
