<svg width="190" height="84" viewBox="0 0 190 84" fill="none" xmlns="http://www.w3.org/2000/svg">
<path fill-rule="evenodd" clip-rule="evenodd" d="M74.5749 50.0845V50.3009H66.5088V47.1773L66.5665 47.1681H66.5062C66.5089 47.1655 66.5062 38.9655 66.5062 38.9655C66.4892 38.487 66.6661 36.3503 64.223 36.3738C64.2243 36.3803 61.7143 36.4155 61.772 39.4218V39.4244L61.7641 47.541C61.8362 50.0388 63.3356 50.091 63.3409 50.091V50.2996H55.1857L50.5406 50.2983C50.361 50.3191 44.691 50.5029 44.4629 45.2505V42.4111C44.4629 42.4111 42.2164 42.9078 41.5138 43.4436C41.5138 43.4436 39.7155 44.5778 40.9017 46.5241C40.9017 46.5241 41.7838 48.0625 44.6346 47.4941L43.2439 50.3061H40.4967C40.4967 50.3061 34.0848 50.4364 33.3338 45.7511C33.3338 45.7185 32.757 42.0747 37.1348 40.599C37.1348 40.599 38.6329 40.0749 41.4811 39.5743C41.5125 39.5743 43.915 39.2327 44.1392 37.9369C44.1953 37.6747 44.1673 37.4016 44.0592 37.156C44.0985 37.2577 42.9674 34.3036 36.0508 37.2903C36.0797 37.3229 37.4743 32.9725 37.4743 32.9725C37.4743 32.9725 43.9884 31.0679 48.5339 33.8434C48.5038 33.8734 50.9089 35.1444 50.8761 39.1324L50.9482 44.6469C50.9391 44.7251 50.943 47.4719 53.6614 47.6257C53.6614 47.6518 54.6261 47.644 55.1792 47.6414V35.6033C55.1792 35.5355 55.3273 33.0299 53.6457 32.9178V32.687L61.7746 32.3728L61.772 34.4196C62.2137 33.9855 64.008 32.3963 66.6609 32.3468C66.6609 32.3468 72.9876 32.1264 72.9771 38.2915C72.9798 38.2915 72.9876 47.1642 72.9876 47.1642C72.9378 50.0427 74.5762 50.0845 74.5762 50.0845H74.5749ZM11.9995 24.8064V24.5417H20.8205L27.1512 42.9273L31.833 28.1763C31.833 28.1763 32.7898 25.6942 30.2287 24.7112V24.5H37.2947L28.3662 50.4977L24.6504 49.0728C24.6504 49.0728 21.641 48.1889 20.0393 43.6991L14.2303 27.7461C14.2303 27.7461 13.499 25.1688 11.9995 24.8064ZM169.22 47.1681C169.179 50.2513 170.827 50.0884 170.83 50.0884V50.3061L162.531 50.3009V50.2983L162.528 50.3009V39.2106L162.525 38.9811C162.525 39.0854 162.525 36.1483 159.937 36.117C159.905 36.1483 156.899 35.8302 156.899 41.419C156.868 41.449 156.868 47.9556 161.951 47.1199C161.951 47.146 160.169 50.2891 160.169 50.2891C160.169 50.2891 156.048 51.7023 152.631 48.0716C152.631 48.0716 150.032 45.8241 150.032 41.419C150.062 41.449 149.945 37.2707 152.631 34.6217C152.603 34.7077 156.777 30.0184 162.525 33.6361V27.7722C162.525 27.7083 162.671 25.2001 160.989 25.088V24.8611L169.214 24.5443L169.22 47.1681ZM144.522 34.6986C146.324 31.3247 149.783 32.3702 149.783 32.3702V36.7818C144.298 35.8771 144.527 39.985 144.522 39.9602H144.519L144.516 47.1603C144.481 50.2135 146.055 50.0936 146.132 50.0897V50.3009H137.928V50.2983H133.18C133.008 50.3191 127.334 50.5029 127.112 45.2505V42.4111C127.112 42.4111 124.857 42.9078 124.156 43.4436C124.156 43.4436 122.363 44.5778 123.549 46.5241C123.549 46.5241 124.427 48.0625 127.279 47.4941L125.889 50.3087H123.136C123.136 50.3087 116.73 50.4364 115.979 45.7498C115.979 45.7172 115.402 42.0721 119.78 40.6016C119.78 40.6016 121.276 40.0749 124.123 39.5743C124.156 39.5743 126.557 39.2327 126.781 37.9382C126.84 37.6758 126.812 37.4017 126.703 37.156C126.737 37.2603 125.611 34.3036 118.692 37.2903C118.731 37.3229 120.12 32.9725 120.12 32.9725C120.12 32.9725 126.637 31.0679 131.183 33.8434C131.149 33.8773 133.551 35.147 133.522 39.1284L133.593 44.6469C133.581 44.729 133.584 47.4719 136.306 47.6231C136.306 47.6492 137.394 47.644 137.924 47.6414V46.2204L137.926 35.6033C137.926 35.5355 138.07 33.026 136.391 32.9152V32.6909L144.522 32.3741V34.6986Z" fill="#9B98AE"/>
<path fill-rule="evenodd" clip-rule="evenodd" d="M83.9652 42.1193C86.4516 42.1193 86.1632 38.6815 86.1632 38.6294C86.1108 35.6779 83.9704 35.7652 83.9704 35.7652C81.6125 35.7652 81.7068 38.7115 81.6793 38.6815C81.4211 41.9498 83.7882 42.1597 83.9652 42.1193ZM102.535 32.3483V43.8388C102.535 43.8388 102.477 46.3288 104.761 46.3067C104.75 46.2663 107.175 46.6704 107.264 43.2431C107.268 43.247 107.268 43.2522 107.272 43.2522L107.275 41.1637V35.6036C107.275 35.5358 107.42 33.0301 105.739 32.918V32.6873L113.867 32.3731V47.1645C113.864 47.2271 113.718 50.0091 115.48 50.0899V50.2985H107.264L107.267 48.1996C106.933 48.5399 105.1 50.2698 102.335 50.322C102.335 50.322 95.8939 50.5462 95.907 44.3746C95.8834 44.3277 95.8965 37.8029 95.903 35.5749H90.9486C91.136 35.7287 91.3798 36.0533 91.3811 36.0533C94.1624 39.5954 91.4598 42.5417 91.4348 42.5691C89.651 45.0526 83.8918 45.75 83.8918 45.75L83.534 45.7904C81.5836 45.8582 82.2036 46.8425 82.2101 46.8477C82.4919 47.5034 83.897 47.4005 83.897 47.4005H87.1947C93.8714 47.3783 94.5831 51.7286 94.6107 51.7286C95.7077 57.8311 89.5317 59.651 83.3649 59.4907C77.2465 59.5298 74.979 56.8807 75.0026 56.9016C73.4494 55.1116 74.2699 52.6125 77.0211 51.8551C79.0553 51.2971 81.4591 51.8551 81.4591 51.8551C79.632 52.1093 79.9557 53.9592 79.9597 53.9722C80.5718 56.1585 83.6978 56.1807 83.8865 56.1833C87.8789 55.9786 87.993 54.0452 87.993 53.1001C87.993 51.8525 86.9509 51.1029 86.9509 51.1029C85.5039 50.0456 82.7659 50.3793 80.8601 50.2972C78.1889 50.146 77.4956 47.6495 77.3684 46.8855C77.2439 46.1137 77.3881 45.8035 77.8337 45.5193C78.6398 45.0473 80.4722 44.8401 80.2638 44.844L80.3031 44.8361C80.269 44.8283 80.248 44.8283 80.2454 44.8283C77.9478 44.1022 76.5833 42.178 76.5584 42.178C73.6382 38.0245 77.0434 34.7497 77.0434 34.7497C78.9976 32.875 81.4801 32.4552 83.6978 32.3483H102.535ZM171.883 27.8024C171.883 29.3408 173.153 30.5949 174.715 30.5949C176.275 30.5949 177.543 29.3408 177.543 27.8024C177.543 26.2641 176.276 25.0087 174.715 25.0087C173.153 25.0087 171.883 26.2628 171.883 27.8024ZM171.429 27.8024C171.429 26.0177 172.9 24.5615 174.715 24.5615C176.525 24.5615 178 26.0177 178 27.8024C178 29.5885 176.525 31.0434 174.715 31.0434C173.848 31.0465 173.014 30.7069 172.398 30.0992C171.782 29.4915 171.434 28.6655 171.429 27.8024Z" fill="#9B98AE"/>
<path fill-rule="evenodd" clip-rule="evenodd" d="M174.004 28.0068V29.7302H173.462V25.9131H174.846C175.498 25.9131 176.165 26.1152 176.165 26.87C176.172 27.0835 176.104 27.2926 175.971 27.4609C175.839 27.6292 175.652 27.7458 175.442 27.7904V27.8021C175.904 27.9103 175.966 28.1567 176.026 28.583C176.085 28.9637 176.13 29.3704 176.27 29.7302H175.693C175.646 29.5047 175.583 29.2557 175.556 29.0262C175.514 28.6847 175.514 28.3731 175.337 28.1789C175.182 28.0068 174.966 28.0224 174.752 28.0068H174.004ZM173.991 27.5531H174.877C175.472 27.5257 175.605 27.2598 175.605 26.9599C175.605 26.6575 175.472 26.3915 174.877 26.3668H173.989L173.991 27.5531Z" fill="#9B98AE"/>
</svg>
