<svg width="190" height="32" viewBox="0 0 190 32" fill="none" xmlns="http://www.w3.org/2000/svg">
<mask id="mask0_5266_6155" style="mask-type:luminance" maskUnits="userSpaceOnUse" x="12" y="3" width="166" height="26">
<path d="M178 3H12V29H178V3Z" fill="white"/>
</mask>
<g mask="url(#mask0_5266_6155)">
<path fill-rule="evenodd" clip-rule="evenodd" d="M26.2063 19.0221C26.4302 18.7942 26.4302 18.4105 26.2063 18.1827C26.2063 18.1827 21.9303 13.8173 21.9067 13.8173C21.7889 13.6974 21.73 13.5535 21.73 13.3976C21.7418 13.2417 21.8007 13.0978 21.9067 12.9778L30.6944 4.0313C30.8122 3.9114 30.8828 3.7675 30.8828 3.5876C30.8828 3.2638 30.6237 3 30.3057 3H21.7536C21.6005 3 21.4473 3.0719 21.3413 3.1799L12.483 12.1983C12.1885 12.5101 12 12.9299 12 13.3976C12 13.8653 12.1767 14.273 12.4712 14.5848L21.1057 23.3754C21.3295 23.6032 21.7065 23.6032 21.9303 23.3754L26.2063 19.0221ZM32.0962 12.9779C31.8724 13.2057 31.8724 13.5895 32.0962 13.8174L36.3958 18.1827C36.5018 18.3026 36.5607 18.4465 36.5607 18.6025C36.5607 18.7584 36.5135 18.9142 36.3958 19.0221L27.6081 27.9686C27.4904 28.0765 27.4196 28.2325 27.4196 28.4124C27.4196 28.7362 27.6788 29 27.9969 29H36.5489C36.7021 29 36.8551 28.928 36.9612 28.8201L45.8196 19.8017C46.1139 19.4898 46.3026 19.0701 46.3026 18.6025C46.3026 18.1347 46.1139 17.7269 45.8313 17.4151L37.1968 8.6246C36.9729 8.3967 36.596 8.3967 36.3722 8.6246L32.0962 12.9779ZM66.6815 9.6199C65.2324 9.1042 62.9825 8.6605 61.0624 8.6605C57.5874 8.6605 55.3965 10.3395 55.3965 13.1337C55.3965 15.6042 56.8453 16.6356 59.9552 17.2952C60.134 17.333 60.3111 17.3691 60.4848 17.4044C62.0156 17.7159 63.2889 17.9749 63.2889 18.9981C63.2889 19.8136 62.5114 20.2214 61.0389 20.2094C59.8138 20.1854 57.9879 19.8496 55.7617 18.9981L54.9841 22.1042C57.1516 22.9317 59.4015 23.3274 61.1802 23.3274C64.6788 23.3274 66.9877 21.7924 66.9877 18.7703C66.9877 16.048 65.0911 15.1245 62.2287 14.5009C62.0976 14.4729 61.9702 14.446 61.8467 14.42L61.8448 14.4196C60.1167 14.0552 59.1424 13.8498 59.1424 12.9658C59.1424 12.0904 59.8727 11.7186 61.086 11.7186C62.2757 11.7186 64.0073 12.0544 65.9511 12.654L66.6815 9.6199ZM71.0044 9.0562C72.6419 8.9723 74.4676 8.8883 76.3642 8.8883C80.0395 8.8883 82.4072 10.6153 82.4072 13.9253C82.4072 17.1512 80.0277 19.1901 76.3525 19.1901H74.4324V22.9676H71.0044V9.0562ZM74.4441 11.8025V16.1319H76.5645C77.978 16.1319 78.9793 15.3284 78.9793 13.9492C78.9793 12.5341 77.978 11.7666 76.5645 11.7666C75.8577 11.7666 75.1391 11.7786 74.4441 11.8025ZM109.995 9.0563V17.1033L103.552 9.0563H100.383V22.9678H103.811V14.9927L110.266 22.9678H113.412V9.0563H109.995ZM117.97 9.0442C119.478 8.9603 121.222 8.8763 123.141 8.8763C127.665 8.8763 130.705 11.4907 130.692 15.9279C130.692 20.4012 127.653 23.1475 123.484 23.1475C121.421 23.1475 119.478 23.0636 117.97 22.9797V9.0442ZM121.41 19.9455C122.128 19.9814 122.883 19.9814 123.577 19.9814C125.556 19.9814 127.147 18.4224 127.158 15.892C127.158 13.4215 125.568 12.0064 123.294 12.0064C122.694 12.0064 122.046 12.0064 121.41 12.0424V19.9455ZM160.354 9.6199C158.904 9.1042 156.655 8.6605 154.734 8.6605C151.26 8.6605 149.068 10.3395 149.068 13.1337C149.068 15.6042 150.517 16.6356 153.627 17.2952C153.806 17.333 153.983 17.3691 154.157 17.4044C155.688 17.7159 156.961 17.9749 156.961 18.9981C156.961 19.8136 156.183 20.2214 154.71 20.2094C153.486 20.1854 151.66 19.8496 149.434 18.9981L148.656 22.1042C150.823 22.9317 153.074 23.3274 154.853 23.3274C158.351 23.3274 160.66 21.7924 160.66 18.7703C160.66 16.048 158.763 15.1245 155.9 14.5009C155.769 14.4728 155.641 14.4458 155.517 14.4196C153.789 14.0552 152.814 13.8498 152.814 12.9658C152.814 12.0904 153.544 11.7186 154.759 11.7186C155.948 11.7186 157.68 12.0544 159.624 12.654L160.354 9.6199ZM170.261 18.2546H168.116V22.9678H164.689V9.0563H168.128V14.8367H168.8L173.335 9.0563H177.505L172.452 15.4604L177.823 22.9678H173.618L170.261 18.2546ZM89.216 14.5249V12.0064H96.2837V9.0443H85.7762V22.9557H96.2837V19.9936H89.216V17.475H95.1176V14.5249H89.216ZM138.055 12.0064V14.5249H143.956V17.475H138.055V19.9936H145.122V22.9557H134.615V9.0443H145.122V12.0064H138.055Z" fill="#D9D9E8"/>
</g>
</svg>
