<svg width="190" height="32" viewBox="0 0 190 32" fill="none" xmlns="http://www.w3.org/2000/svg">
<path d="M18.0382 15.0965C17.9777 15.0174 17.8979 14.9552 17.8063 14.9159C17.7148 14.8768 17.6147 14.8618 17.5156 14.8725C17.4166 14.8833 17.322 14.9194 17.2411 14.9774C17.1601 15.0354 17.0954 15.1133 17.0534 15.2035L12.063 25.1813C12.0175 25.2722 11.996 25.3733 12.0006 25.4748C12.0052 25.5763 12.0356 25.6751 12.0891 25.7615C12.1425 25.848 12.2172 25.9194 12.306 25.9689C12.3948 26.0184 12.4947 26.0444 12.5964 26.0444H19.5453C19.6566 26.047 19.7662 26.0173 19.8609 25.9587C19.9556 25.9002 20.0313 25.8154 20.0787 25.7147C21.5777 22.6173 20.6693 17.9076 18.0382 15.0965Z" fill="#D9D9E8"/>
<path d="M21.698 6.02131C20.4546 7.93455 19.7299 10.1383 19.5952 12.4162C19.4605 14.6941 19.9204 16.9678 20.9297 19.0144L24.2798 25.7146C24.3294 25.8137 24.4054 25.897 24.4997 25.9553C24.5939 26.0135 24.7025 26.0444 24.8133 26.0444H31.7609C31.8626 26.0444 31.9625 26.0184 32.0513 25.9689C32.1402 25.9194 32.2148 25.848 32.2682 25.7615C32.3217 25.675 32.3521 25.5763 32.3567 25.4748C32.3613 25.3731 32.3399 25.2721 32.2944 25.1812C32.2944 25.1812 22.9474 6.48514 22.7125 6.01754C22.6661 5.92238 22.5937 5.84218 22.5039 5.7862C22.4139 5.73032 22.31 5.70079 22.2041 5.70118C22.0982 5.70156 21.9946 5.73187 21.905 5.78842C21.8155 5.84508 21.7437 5.92576 21.698 6.02131Z" fill="#D9D9E8"/>
<path d="M103.191 14.0213C103.191 16.4921 104.337 18.4537 108.82 19.3197C111.495 19.8812 112.055 20.3129 112.055 21.2045C112.055 22.0705 111.494 22.6311 109.61 22.6311C107.333 22.5902 105.101 21.9864 103.114 20.8736V24.8978C104.464 25.5601 106.247 26.2989 109.559 26.2989C114.245 26.2989 116.105 24.2087 116.105 21.1025L103.191 14.0213ZM116.105 21.1025C116.105 18.1733 114.551 16.7975 110.171 15.8554C107.75 15.3204 107.164 14.7857 107.164 14.0213C107.164 13.0543 108.03 12.646 109.635 12.646C111.571 12.646 113.482 13.2318 115.29 14.0469V10.2005C113.556 9.41127 111.667 9.01963 109.762 9.05437C105.432 9.05437 103.191 10.9392 103.191 14.0213" fill="#D9D9E8"/>
<path d="M163.404 9.30908V26.0445H166.97V13.2829L168.473 16.6704L173.517 26.0445H178V9.30908H174.434V20.1094L173.083 16.9761L169.033 9.30908H163.404Z" fill="#D9D9E8"/>
<path d="M140.723 9.30908H136.825V26.0445H140.723V9.30908Z" fill="#D9D9E8"/>
<path d="M132.329 21.1025C132.329 18.1733 130.775 16.7975 126.394 15.8554C123.974 15.3204 123.388 14.7857 123.388 14.0213C123.388 13.0543 124.254 12.646 125.859 12.646C127.795 12.646 129.705 13.2318 131.514 14.0469V10.2005C129.779 9.41127 127.892 9.01963 125.987 9.05437C121.656 9.05437 119.414 10.9392 119.414 14.0213C119.414 16.4921 120.561 18.4537 125.044 19.3197C127.719 19.8812 128.279 20.3129 128.279 21.2045C128.279 22.0705 127.717 22.6311 125.833 22.6311C123.556 22.5902 121.325 21.9864 119.338 20.8736V24.8978C120.688 25.5601 122.472 26.2989 125.783 26.2989C130.47 26.2989 132.329 24.2087 132.329 21.1025Z" fill="#D9D9E8"/>
<path d="M72.916 9.30908V26.0445H80.9266L82.1878 22.4273H76.8386V9.30908H72.916Z" fill="#D9D9E8"/>
<path d="M57.0889 9.30908V12.926H61.4192V26.0445H65.3417V12.926H69.9777V9.30908H57.0889Z" fill="#D9D9E8"/>
<path d="M51.4004 9.30908H46.2597L40.4238 26.0445H44.8804L45.7078 23.2259C47.7454 23.8242 49.9119 23.8242 51.9494 23.2259L52.7768 26.0445H57.2344L51.4004 9.30908ZM48.8299 20.208C48.1039 20.2079 47.3817 20.1041 46.6852 19.8995L48.8299 12.5962L50.9746 19.902C50.278 20.1057 49.5558 20.2088 48.8299 20.208Z" fill="#D9D9E8"/>
<path d="M94.736 9.30908H89.5956L83.7598 26.0445H88.2174L89.0447 23.2259C91.0822 23.8242 93.2488 23.8242 95.2864 23.2259L96.1136 26.0445H100.571L94.736 9.30908ZM92.1658 20.208C91.4399 20.2079 90.7177 20.1041 90.0212 19.8995L92.1658 12.5962L94.3105 19.902C93.6139 20.1057 92.8917 20.2088 92.1658 20.208Z" fill="#D9D9E8"/>
<path d="M154.766 9.30908H149.626L143.79 26.0445H148.248L149.075 23.2259C151.112 23.8242 153.279 23.8242 155.316 23.2259L156.144 26.0445H160.601L154.766 9.30908ZM152.194 20.208C151.468 20.2079 150.747 20.1041 150.05 19.8995L152.194 12.5962L154.339 19.902C153.643 20.1057 152.92 20.2088 152.194 20.208Z" fill="#D9D9E8"/>
</svg>
