<svg width="190" height="32" viewBox="0 0 190 32" fill="none" xmlns="http://www.w3.org/2000/svg">
<mask id="mask0_5266_6157" style="mask-type:luminance" maskUnits="userSpaceOnUse" x="12" y="0" width="166" height="32">
<path d="M178 0.467773H12V31.5322H178V0.467773Z" fill="white"/>
</mask>
<g mask="url(#mask0_5266_6157)">
<path fill-rule="evenodd" clip-rule="evenodd" d="M149.45 2.0293H153.288V5.4177H149.45V2.0293ZM149.45 7.82126H153.288V23.3701H149.45V7.82126ZM50.2842 7.82188H53.8144L54.1292 9.34021H54.2827C54.2827 9.34021 55.6602 7.50917 58.5805 7.50917C62.1107 7.50917 64.72 10.1004 64.72 14.0652V23.3707H60.8828V14.3819C60.8828 12.4003 59.5053 11.0285 57.506 11.0285C55.5067 11.0285 54.1292 12.3964 54.1292 14.3819V23.3707H50.2919L50.2842 7.82188ZM82.3638 18.7977C82.0569 20.017 80.0615 23.6829 75.1498 23.6829C70.5432 23.6829 67.1664 20.3297 67.1664 15.6046C67.1664 10.8796 70.5432 7.52439 75.1498 7.52439C79.4475 7.52439 82.8243 10.8777 82.8243 15.2998C82.8301 15.812 82.7786 16.3232 82.6708 16.8239H71.0035C71.3125 18.95 73.0009 20.4782 75.1498 20.4782C76.9916 20.4782 78.066 19.4113 78.373 18.8015L82.3638 18.7977ZM78.987 14.2251C78.6801 12.2435 77.2986 10.7194 75.1498 10.7194C72.8474 10.7194 71.466 12.2435 71.0035 14.2251H78.987ZM87.5839 7.82043H83.601L87.5839 23.3692H92.2634L94.8648 13.3095H95.0932L97.7025 23.3692H102.374L106.365 7.82043H102.374L99.7647 18.0346H99.5443L96.935 7.82043H93.0308L90.4215 18.0346H90.201L87.5839 7.82043ZM114.035 7.82043H117.261L117.568 9.1883H117.721C118.043 8.76417 118.46 8.41987 118.937 8.18244C119.415 7.9451 119.941 7.82116 120.477 7.82043H123.153V11.4882H120.791C118.794 11.4882 117.872 12.4027 117.872 14.3842V23.3731H114.035V7.82043ZM131.643 23.6829C136.556 23.6829 138.551 20.017 138.858 18.7977L134.868 18.8054C134.559 19.4151 133.486 20.4821 131.643 20.4821C129.496 20.4821 127.807 18.9579 127.497 16.8239H139.165C139.273 16.3232 139.324 15.812 139.318 15.2998C139.318 10.8777 135.942 7.52439 131.643 7.52439C127.037 7.52439 123.66 10.8796 123.66 15.6046C123.66 20.3297 127.037 23.6829 131.643 23.6829ZM131.643 10.7194C133.793 10.7194 135.174 12.2435 135.481 14.2251H127.497C127.96 12.2435 129.341 10.7194 131.643 10.7194ZM163.88 23.6756C168.791 23.6756 170.786 20.0175 171.247 17.5787H167.41C167.103 18.6457 166.184 20.1699 163.88 20.1699C161.576 20.1699 159.734 18.3408 159.734 15.5973C159.734 12.8537 161.578 11.0247 163.88 11.0247C166.182 11.0247 167.103 12.547 167.41 13.4634H171.247C170.786 11.1771 168.799 7.51704 163.88 7.51704C159.273 7.51704 155.896 10.8723 155.896 15.5973C155.896 20.3223 159.273 23.6756 163.88 23.6756ZM139.905 2.03189V5.41843H142.084V23.3708H145.921V2.03189H139.905ZM172.162 20.9718C171.967 21.2522 171.86 21.5836 171.854 21.9244C171.846 22.1552 171.884 22.3853 171.969 22.6006C172.053 22.816 172.18 23.0119 172.344 23.1766C172.506 23.3413 172.702 23.4711 172.918 23.5582C173.133 23.6453 173.364 23.6877 173.596 23.6831C173.94 23.6831 174.274 23.5823 174.561 23.3935C174.847 23.2048 175.069 22.9364 175.202 22.6221C175.334 22.3078 175.371 21.9617 175.306 21.6269C175.241 21.2923 175.079 20.9842 174.837 20.7412C174.597 20.4982 174.289 20.3312 173.953 20.2612C173.618 20.1912 173.269 20.2212 172.95 20.3478C172.631 20.4741 172.357 20.6913 172.162 20.9718ZM174.806 21.1186C174.972 21.356 175.062 21.6362 175.066 21.9244C175.074 22.1194 175.042 22.3141 174.972 22.4963C174.9 22.6783 174.793 22.8442 174.655 22.9834C174.517 23.1226 174.352 23.2323 174.17 23.3055C173.988 23.3788 173.793 23.4142 173.596 23.4096C173.306 23.4098 173.022 23.3251 172.781 23.1657C172.539 23.0063 172.349 22.7795 172.237 22.5138C172.125 22.2481 172.094 21.9555 172.148 21.6725C172.204 21.3894 172.341 21.1287 172.545 20.9232C172.748 20.7178 173.008 20.5765 173.292 20.5174C173.575 20.4582 173.871 20.4836 174.14 20.5906C174.411 20.6977 174.642 20.8813 174.806 21.1186ZM173.688 20.9982H172.902L172.911 22.8253H173.181V22.194H173.418L174.054 22.8271H174.398L173.76 22.194C173.918 22.194 174.068 22.1323 174.179 22.0224C174.29 21.9124 174.352 21.7633 174.352 21.6078C174.352 21.5238 174.333 21.4406 174.299 21.3638C174.265 21.2868 174.215 21.2177 174.153 21.1605C174.091 21.1034 174.017 21.0595 173.937 21.0315C173.858 21.0037 173.773 20.9923 173.688 20.9982ZM174.082 21.6078C174.082 21.8013 173.958 21.9244 173.688 21.9244H173.181V21.2659H173.688C173.738 21.2598 173.787 21.2641 173.835 21.2785C173.882 21.2929 173.925 21.317 173.963 21.3493C174 21.3815 174.03 21.4214 174.05 21.4659C174.071 21.5104 174.081 21.5588 174.082 21.6078Z" fill="#D9D9E8"/>
<path opacity="0.6" d="M33.8786 11.2217V20.7793L25.5449 25.559V31.5327L39.0914 23.767V8.23389L33.8786 11.2217Z" fill="#D9D9E8"/>
<path opacity="0.4" d="M25.5465 6.44343L33.8801 11.2212L39.0929 8.23336L25.5465 0.467773L12 8.23336L17.2108 11.2212L25.5465 6.44343Z" fill="#D9D9E8"/>
<path d="M20.3357 18.9892V28.5468L25.5465 31.5327V16.0014L12 8.23389V14.2095L20.3357 18.9892Z" fill="#D9D9E8"/>
</g>
</svg>
