<svg width="190" height="32" viewBox="0 0 190 32" fill="none" xmlns="http://www.w3.org/2000/svg">
<mask id="mask0_5266_6158" style="mask-type:luminance" maskUnits="userSpaceOnUse" x="12" y="3" width="166" height="26">
<path d="M178 3.95166H12V28.0484H178V3.95166Z" fill="white"/>
</mask>
<g mask="url(#mask0_5266_6158)">
<path d="M29.2478 17.4967C29.3122 17.6041 29.3344 17.7316 29.3102 17.8543C29.0825 18.8884 28.5288 19.8221 27.7306 20.5177C27.6868 20.5508 27.65 20.5923 27.6222 20.6396C27.6122 20.6613 27.6071 20.6849 27.6071 20.7087C27.6071 20.7326 27.6122 20.7561 27.6222 20.7777C27.6381 20.7963 27.6583 20.8109 27.6808 20.8202C27.7034 20.8297 27.7279 20.8337 27.7523 20.832C27.8678 20.8012 27.9796 20.7576 28.0855 20.7019C28.5537 20.436 28.9674 20.0839 29.3047 19.6642C29.5079 19.4176 29.7084 19.1711 29.9007 18.9164C30.263 18.4133 30.5311 17.8488 30.6919 17.2502C30.8382 16.7653 30.9628 16.2748 31.1146 15.7898C31.1765 15.612 31.2517 15.439 31.3395 15.2724C31.3748 15.2211 31.4157 15.1738 31.4613 15.1314H31.4993C31.5372 15.2588 31.5833 15.3807 31.6103 15.5108C31.6813 15.9198 31.6912 16.337 31.6402 16.749C31.584 17.2852 31.4742 17.8143 31.3123 18.3285C31.199 18.6446 31.0461 18.945 30.8572 19.2226C30.3824 20.0051 29.8217 20.7321 29.1855 21.39C28.7168 21.8427 28.2101 22.2542 27.6709 22.6201C27.6316 22.6403 27.5959 22.6669 27.5653 22.6987C27.5338 22.7367 27.5174 22.7849 27.5192 22.8342C27.5305 22.8562 27.5471 22.8751 27.5674 22.8893C27.5877 22.9034 27.6112 22.9125 27.6357 22.9155C27.749 22.9147 27.8619 22.9002 27.9717 22.8721C28.4723 22.7279 28.9405 22.4886 29.3507 22.1676C30.4983 21.3217 31.4302 20.2171 32.071 18.9435C32.4792 18.1126 32.744 17.2186 32.854 16.2991C32.9198 15.7189 32.9263 15.1333 32.8729 14.5517C32.8265 14.2536 32.8356 13.9495 32.9 13.6549C32.917 13.5873 32.9416 13.5218 32.9732 13.4598C33.0463 13.3188 33.152 13.3107 33.2225 13.4598C33.2966 13.6008 33.3512 13.7512 33.3851 13.9069C33.5337 14.6521 33.5803 15.414 33.5231 16.1718C33.418 17.403 33.1085 18.608 32.6074 19.7374C32.0999 20.9002 31.338 21.9344 30.3777 22.7637C30.066 23.0347 29.768 23.3057 29.4456 23.5603C29.0584 23.8419 28.6435 24.0834 28.2074 24.2809C27.2452 24.759 26.2212 25.101 25.1648 25.297C24.5173 25.4093 23.8599 25.453 23.2032 25.4271C22.8808 25.4271 22.5556 25.4054 22.2333 25.3891C21.5044 25.3487 20.7852 25.2027 20.0983 24.9556C19.1035 24.6095 18.1474 24.1609 17.2453 23.6172C16.1933 22.9721 15.2961 22.1036 14.6172 21.0731C14.2821 20.5885 13.9902 20.0753 13.7448 19.5396C13.7323 19.5078 13.7122 19.4795 13.6862 19.4573C13.6602 19.4352 13.6292 19.4196 13.5958 19.4123C13.4177 19.368 13.2519 19.2837 13.1111 19.1658C12.9703 19.0481 12.8581 18.8997 12.783 18.7322C12.5821 18.2415 12.4261 17.7338 12.317 17.2149C12.1184 16.3774 12.0121 15.5207 12 14.6601C12.0081 14.1151 12.058 13.5716 12.149 13.0344C12.2519 12.3043 12.4335 11.5876 12.6909 10.8968C12.9185 10.2921 13.2384 9.72636 13.6392 9.21965C13.8722 8.92697 14.0645 8.59922 14.2921 8.30115C15.7365 6.39215 17.8045 5.04993 20.1362 4.50805C20.5859 4.39963 21.0358 4.28592 21.4909 4.20188C21.8973 4.12604 22.3037 4.07728 22.7209 4.0393C23.2032 3.99594 23.6855 3.95807 24.1705 3.95257C26.1161 3.92549 28.0221 4.504 29.6244 5.608C29.807 5.7185 29.9716 5.85649 30.1121 6.01719C30.2159 6.14356 30.285 6.29483 30.3126 6.45606C30.3233 6.49403 30.345 6.52796 30.375 6.55358C30.757 6.9221 31.1634 7.27163 31.5156 7.66713C32.0753 8.27863 32.4804 9.01546 32.6969 9.81569C32.7961 10.1389 32.8306 10.4785 32.7986 10.8151C32.7664 11.1516 32.6684 11.4786 32.5099 11.7773C32.2449 12.2234 31.8723 12.596 31.4262 12.8611C30.9298 13.1987 30.3344 13.36 29.7355 13.3188C29.1756 13.2933 28.6441 13.0651 28.24 12.6767C27.8153 12.2356 27.3628 11.8219 26.8852 11.4385C26.571 11.2001 26.2458 10.9753 25.9181 10.7613C25.5217 10.5231 25.0827 10.3648 24.6256 10.2952C24.1058 10.2002 23.5763 10.1683 23.0488 10.2004C21.8955 10.2224 20.7797 10.6136 19.8653 11.3166C19.18 11.8345 18.6159 12.4956 18.2126 13.2539C17.9841 13.714 17.8401 14.2114 17.7872 14.7223C17.7431 15.0375 17.7178 15.3551 17.7113 15.6733C17.7369 16.5804 17.9734 17.4691 18.4022 18.2688C18.719 18.8893 19.1407 19.4502 19.6485 19.9271C20.1209 20.3515 20.6442 20.7156 21.2064 21.0107C21.8463 21.3577 22.553 21.5636 23.2791 21.615C24.2325 21.7145 25.1955 21.57 26.0778 21.195C26.5007 20.9962 26.8901 20.733 27.2321 20.4147C27.8227 19.9067 28.3181 19.2975 28.6951 18.6157C28.836 18.3691 28.9336 18.0982 29.0528 17.8382C29.0879 17.7595 29.1286 17.681 29.1692 17.6051C29.1941 17.5683 29.2231 17.5347 29.256 17.5049" fill="#D9D9E8"/>
<path d="M171.14 13.3676C173.091 13.3676 174.391 14.8198 174.391 16.9656C174.391 19.1115 173.091 20.542 171.14 20.542C169.19 20.542 167.868 19.1115 167.868 16.9439C167.868 14.7765 169.167 13.3676 171.14 13.3676ZM114.027 13.1508C115.544 13.1508 116.541 13.9962 116.78 15.3399H111.296C111.534 13.9853 112.531 13.1508 114.027 13.1508ZM64.8681 18.4395C64.8681 19.7617 64.0878 20.542 62.7006 20.542C61.3134 20.542 60.4898 19.7617 60.4898 18.4395V11.0267C60.4898 10.9548 60.4613 10.886 60.4104 10.8351C60.3597 10.7843 60.2908 10.7557 60.2189 10.7557H57.4011C57.3292 10.7557 57.2603 10.7843 57.2096 10.8351C57.1588 10.886 57.1301 10.9548 57.1301 11.0267V18.5696C57.1301 21.8642 59.0593 23.5115 61.4868 23.5115C63.2209 23.5115 64.3913 22.4494 64.8898 20.8454V22.9046C64.8936 22.9752 64.9235 23.0418 64.9735 23.0917C65.0234 23.1417 65.0901 23.1715 65.1608 23.1755H68.0001C68.072 23.1755 68.1409 23.1469 68.1917 23.0961C68.2426 23.0453 68.2711 22.9764 68.2711 22.9046V11.0267C68.2711 10.9548 68.2426 10.886 68.1917 10.8351C68.1409 10.7843 68.072 10.7557 68.0001 10.7557H65.1499C65.078 10.7557 65.0091 10.7843 64.9584 10.8351C64.9074 10.886 64.879 10.9548 64.879 11.0267L64.8681 18.4395ZM94.0425 18.4395C94.0425 19.7617 93.262 20.542 91.8751 20.542C90.4875 20.542 89.6643 19.7617 89.6643 18.4395V11.0267C89.6643 10.9548 89.6354 10.886 89.5846 10.8351C89.5344 10.7843 89.4655 10.7557 89.3932 10.7557H86.5758C86.5035 10.7557 86.4346 10.7843 86.3837 10.8351C86.3328 10.886 86.3047 10.9548 86.3047 11.0267V18.5696C86.3047 21.8642 88.2339 23.5115 90.6616 23.5115C92.3952 23.5115 93.5659 22.4494 94.0639 20.8454V22.9046C94.0679 22.9752 94.098 23.0418 94.1482 23.0917C94.1977 23.1417 94.2647 23.1715 94.335 23.1755H97.1744C97.2467 23.1755 97.3156 23.1469 97.3665 23.0961C97.4167 23.0453 97.4455 22.9764 97.4455 22.9046V11.0267C97.4455 10.9548 97.4167 10.886 97.3665 10.8351C97.3156 10.7843 97.2467 10.7557 97.1744 10.7557H94.3243C94.2526 10.7557 94.1837 10.7843 94.1329 10.8351C94.0819 10.886 94.0532 10.9548 94.0532 11.0267L94.0425 18.4395ZM100.22 22.9046C100.22 22.9764 100.249 23.0453 100.299 23.0961C100.35 23.1469 100.419 23.1755 100.491 23.1755H103.287C103.359 23.1755 103.428 23.1469 103.478 23.0961C103.529 23.0453 103.558 22.9764 103.558 22.9046V16.0987C103.558 14.3863 104.642 14.0611 106.159 14.0611H107.286C107.358 14.0611 107.427 14.0327 107.478 13.9819C107.529 13.931 107.557 13.8621 107.557 13.7902V11.0267C107.557 10.9548 107.529 10.886 107.478 10.8351C107.427 10.7843 107.358 10.7557 107.286 10.7557H107.015C105.195 10.7557 104.067 11.6011 103.547 13.6602V11.0375C103.547 10.9656 103.519 10.8967 103.468 10.8459C103.417 10.7951 103.348 10.7666 103.276 10.7666H100.48C100.408 10.7666 100.339 10.7951 100.288 10.8459C100.237 10.8967 100.209 10.9656 100.209 11.0375L100.22 22.9046ZM143.765 22.9046C143.765 22.9764 143.794 23.0453 143.845 23.0961C143.895 23.1469 143.964 23.1755 144.036 23.1755H146.854C146.925 23.1755 146.995 23.1469 147.045 23.0961C147.095 23.0453 147.124 22.9764 147.124 22.9046V15.3399C147.124 14.1263 147.797 13.3676 149.075 13.3676C150.354 13.3676 151.07 14.1263 151.07 15.3399V22.9046C151.07 22.9764 151.098 23.0453 151.149 23.0961C151.2 23.1469 151.268 23.1755 151.34 23.1755H154.179C154.252 23.1755 154.32 23.1469 154.371 23.0961C154.422 23.0453 154.45 22.9764 154.45 22.9046V15.3399C154.45 14.1263 155.144 13.3676 156.402 13.3676C157.659 13.3676 158.396 14.1263 158.396 15.3399V22.9046C158.399 22.9752 158.429 23.0418 158.48 23.0917C158.529 23.1417 158.596 23.1715 158.667 23.1755H161.484C161.556 23.1755 161.624 23.1469 161.675 23.0961C161.726 23.0453 161.755 22.9764 161.755 22.9046V15.2316C161.755 12.0237 159.859 10.3981 157.442 10.3981C155.405 10.3981 154.364 11.7203 153.821 13.3784C153.669 12.5513 153.235 11.8025 152.593 11.2592C151.951 10.716 151.14 10.4117 150.3 10.3981C148.523 10.3981 147.721 11.4819 147.114 13.0858V11.0267C147.114 10.9548 147.085 10.886 147.034 10.8351C146.983 10.7843 146.915 10.7557 146.842 10.7557H144.025C143.953 10.7557 143.884 10.7843 143.833 10.8351C143.783 10.886 143.755 10.9548 143.755 11.0267L143.765 22.9046ZM177.99 16.9656C177.99 13.3242 175.843 10.3981 172.397 10.3981C170.143 10.3981 168.409 11.5902 167.868 13.2809V11.0267C167.868 10.9548 167.839 10.886 167.788 10.8351C167.737 10.7843 167.668 10.7557 167.596 10.7557H164.768C164.696 10.7557 164.627 10.7843 164.576 10.8351C164.525 10.886 164.497 10.9548 164.497 11.0267V27.7164C164.497 27.7882 164.525 27.8572 164.576 27.908C164.627 27.9587 164.696 27.9873 164.768 27.9873H167.608C167.679 27.9873 167.748 27.9587 167.799 27.908C167.849 27.8572 167.878 27.7882 167.878 27.7164V20.6721C168.42 22.3627 170.154 23.5332 172.408 23.5332C175.855 23.5332 178 20.6287 178 16.9656H177.99ZM131.042 16.2341L133.228 10.3331L135.42 16.2341H131.042ZM120.204 16.9711C120.204 13.2646 117.993 10.2518 114.005 10.2518C110.256 10.2518 107.806 13.2646 107.806 16.9711C107.806 20.8076 110.537 23.6686 114.699 23.6686C116.953 23.6686 118.883 22.6715 119.792 21.3494C119.816 21.3184 119.833 21.2829 119.843 21.2452C119.853 21.2074 119.855 21.168 119.848 21.1295C119.842 21.0909 119.829 21.0541 119.808 21.0211C119.786 20.9881 119.76 20.9596 119.728 20.9375L117.831 19.247C117.805 19.2237 117.773 19.2064 117.74 19.196C117.707 19.1855 117.672 19.1822 117.637 19.1864C117.602 19.1904 117.568 19.2018 117.539 19.2198C117.509 19.2376 117.483 19.2617 117.462 19.2902C117.139 19.7576 116.704 20.1369 116.196 20.3942C115.689 20.6515 115.126 20.7787 114.558 20.7642C112.954 20.7642 111.48 20.0055 111.263 17.9248H119.934C119.97 17.9281 120.006 17.9233 120.04 17.9109C120.075 17.8984 120.107 17.8786 120.132 17.8528C120.158 17.8269 120.178 17.7957 120.19 17.7613C120.203 17.7269 120.207 17.6902 120.204 17.6538V16.9711ZM76.0416 13.3947C76.0416 13.4665 76.0701 13.5354 76.1209 13.5863C76.1717 13.6371 76.2406 13.6656 76.3125 13.6656H78.1332V19.4854C78.1332 21.8262 79.3254 23.1917 81.8181 23.1917H84.1374C84.209 23.1917 84.278 23.1632 84.3288 23.1124C84.3797 23.0615 84.4078 22.9926 84.4078 22.9209V20.4823C84.4111 20.4459 84.4064 20.4093 84.3944 20.3748C84.3817 20.3405 84.3622 20.3093 84.3362 20.2834C84.31 20.2575 84.2792 20.2377 84.2445 20.2252C84.2103 20.2128 84.1735 20.2081 84.1374 20.2114H82.5631C81.7826 20.2114 81.5229 19.9405 81.5229 19.2794V13.671H84.1019C84.1735 13.671 84.2425 13.6425 84.2933 13.5917C84.3442 13.5409 84.373 13.4719 84.373 13.4001V11.0375C84.373 10.9656 84.3442 10.8967 84.2933 10.8459C84.2425 10.7951 84.1735 10.7666 84.1019 10.7666H81.5229V7.19028C81.5229 7.11838 81.494 7.04949 81.4432 6.99865C81.3924 6.94781 81.3234 6.91928 81.2518 6.91928H78.3716C78.3352 6.91596 78.2984 6.92073 78.2641 6.93308C78.2297 6.94553 78.1984 6.96545 78.1726 6.99128C78.1468 7.01712 78.127 7.04835 78.1145 7.08269C78.1021 7.11713 78.0973 7.15386 78.1007 7.19028V10.745H76.28C76.2081 10.745 76.1392 10.7734 76.0884 10.8243C76.0375 10.8751 76.0091 10.944 76.0091 11.0159L76.0416 13.3947ZM124.724 22.9316C124.711 22.9608 124.707 22.9924 124.71 23.0237C124.713 23.055 124.724 23.0852 124.74 23.1116C124.757 23.1381 124.781 23.1602 124.808 23.1761C124.835 23.1918 124.866 23.201 124.897 23.2025H128.213C128.296 23.205 128.377 23.1797 128.444 23.1306C128.511 23.0816 128.559 23.0114 128.581 22.9316L129.904 19.3336H136.579L137.934 22.9316C137.957 23.0114 138.005 23.0816 138.072 23.1306C138.139 23.1797 138.219 23.205 138.302 23.2025H141.684C141.715 23.201 141.746 23.1918 141.774 23.1761C141.8 23.1602 141.824 23.1381 141.84 23.1116C141.857 23.0852 141.868 23.055 141.87 23.0237C141.874 22.9924 141.869 22.9608 141.857 22.9316L135.789 7.17399C135.764 7.10219 135.717 7.04025 135.655 6.9973C135.593 6.95435 135.518 6.93266 135.441 6.93557H131.128C131.049 6.92769 130.969 6.94709 130.903 6.99035C130.836 7.03361 130.786 7.09835 130.76 7.17399L124.724 22.9316ZM49.1863 20.1573C46.3036 20.1573 44.3745 18.0114 44.3745 15.042C44.3745 12.0725 46.3036 9.92668 49.1863 9.92668C49.9786 9.93488 50.7582 10.1271 51.4635 10.4882C52.1688 10.8493 52.7805 11.3694 53.2504 12.0075C53.2703 12.0427 53.2984 12.0725 53.3324 12.0948C53.3662 12.1169 53.4049 12.1306 53.4451 12.135C53.4854 12.1392 53.5261 12.1338 53.5638 12.1191C53.6016 12.1045 53.6353 12.0811 53.6622 12.0509L55.9597 10.0784C56.0131 10.0297 56.0468 9.9632 56.0548 9.89151C56.0626 9.81972 56.0444 9.74751 56.0031 9.68827C54.5942 7.62914 52.21 6.58873 49.1972 6.58873C44.0493 6.58873 40.6572 10.4252 40.6572 15.042C40.6572 19.7021 44.0602 23.5386 49.1972 23.5386C52.21 23.5386 54.746 22.2597 56.0031 20.3957C56.0449 20.3366 56.0636 20.2642 56.0556 20.1923C56.0476 20.1204 56.0135 20.0539 55.9597 20.0055L53.6405 18.1089C53.6156 18.0791 53.5836 18.0561 53.5475 18.0416C53.5115 18.0272 53.4724 18.0218 53.4338 18.0261C53.3952 18.0304 53.3583 18.0442 53.3262 18.0662C53.2943 18.0882 53.2682 18.1177 53.2504 18.1523C52.7722 18.7752 52.1568 19.2792 51.4518 19.6251C50.7468 19.9709 49.9716 20.1494 49.1863 20.1464V20.1573ZM74.1775 6.05774H71.3056C71.2692 6.05442 71.2325 6.05909 71.1981 6.07154C71.1637 6.08399 71.1324 6.10381 71.1066 6.12964C71.0808 6.15558 71.061 6.18681 71.0485 6.22115C71.0361 6.25549 71.0314 6.29222 71.0346 6.32863V22.91C71.0346 22.9818 71.0632 23.0507 71.114 23.1016C71.1648 23.1523 71.2337 23.181 71.3056 23.181H74.164C74.2358 23.181 74.3048 23.1523 74.3555 23.1016C74.4064 23.0507 74.4349 22.9818 74.4349 22.91V6.32324C74.4382 6.28682 74.4336 6.25009 74.4211 6.21575C74.4087 6.18131 74.3887 6.15008 74.3629 6.12425C74.3371 6.09841 74.3058 6.0786 74.2715 6.06615C74.2371 6.0537 74.2004 6.04892 74.164 6.05235" fill="#D9D9E8"/>
</g>
</svg>
