<svg width="190" height="78" viewBox="0 0 190 78" fill="none" xmlns="http://www.w3.org/2000/svg">
<path d="M175.854 48.0566V47.6059H176.144C176.297 47.6059 176.519 47.6225 176.519 47.8062C176.519 47.9898 176.399 48.0566 176.212 48.0566H175.854ZM175.854 48.3738H176.058L176.519 49.1584H177.012L176.501 48.3404C176.757 48.3571 176.962 48.1735 176.978 47.9231V47.8563C176.978 47.4222 176.672 47.2887 176.161 47.2887H175.428V49.1584H175.854V48.3738ZM178 48.2236C178 47.1217 177.131 46.4873 176.161 46.4873C175.19 46.4873 174.321 47.1217 174.321 48.2236C174.321 49.3254 175.19 49.9598 176.161 49.9598C177.131 49.9598 178 49.3254 178 48.2236ZM177.455 48.2236C177.489 48.9248 176.927 49.5257 176.212 49.5591H176.161C175.412 49.5925 174.781 49.0082 174.747 48.2737C174.713 47.5391 175.309 46.9214 176.058 46.888C176.808 46.8546 177.438 47.4389 177.472 48.1735C177.455 48.1901 177.455 48.2069 177.455 48.2236ZM110.472 29.676V49.3755H116.144V29.676H110.472ZM65.8516 29.6426V49.3588H71.5739V34.05L76.036 34.0666C77.5007 34.0666 78.5226 34.4172 79.2208 35.1517C80.1234 36.0867 80.4811 37.6058 80.4811 40.3605V49.3588H86.0335V38.474C86.0335 30.6943 80.975 29.6426 76.036 29.6426H65.8516ZM119.618 29.676V49.3755H128.815C133.72 49.3755 135.321 48.5742 137.041 46.7878C138.267 45.5357 139.05 42.7645 139.05 39.7428C139.05 36.9714 138.386 34.5007 137.211 32.9648C135.133 30.2102 132.102 29.676 127.571 29.676H119.618ZM125.238 33.9497H127.674C131.216 33.9497 133.498 35.5023 133.498 39.5424C133.498 43.5825 131.216 45.1518 127.674 45.1518H125.238V33.9497ZM102.298 29.676L97.5632 45.2853L93.0328 29.676H86.902L93.3738 49.3755H101.548L108.088 29.676H102.298ZM141.707 49.3755H147.378V29.676H141.707V49.3755ZM157.614 29.676L149.695 49.3588H155.281L156.541 45.8696H165.908L167.1 49.3421H173.18L165.193 29.676H157.614ZM161.292 33.2653L164.733 42.4807H157.751L161.292 33.2653Z" fill="#9B98AE"/>
<path d="M29.2523 32.9483V30.2437C29.5248 30.2271 29.7973 30.2104 30.0698 30.2104C37.6315 29.9766 42.5875 36.5877 42.5875 36.5877C42.5875 36.5877 37.2398 43.8664 31.5004 43.8664C30.734 43.8664 29.9847 43.7496 29.2694 43.5158V35.3022C32.2157 35.6527 32.8118 36.9215 34.566 39.8097L38.5001 36.5709C38.5001 36.5709 35.6219 32.8815 30.7851 32.8815C30.2742 32.8648 29.7632 32.8982 29.2523 32.9483ZM29.2523 24V28.0401L30.0698 27.99C40.5778 27.6394 47.4413 36.4374 47.4413 36.4374C47.4413 36.4374 39.5731 45.8197 31.3812 45.8197C30.6659 45.8197 29.9676 45.7529 29.2694 45.6361V48.1402C29.8484 48.207 30.4445 48.2571 31.0235 48.2571C38.6533 48.2571 44.1714 44.4341 49.5191 39.9265C50.4047 40.6277 54.0323 42.3139 54.7816 43.0485C49.7064 47.222 37.87 50.5777 31.1597 50.5777C30.5126 50.5777 29.8995 50.5443 29.2864 50.4775V54H58.273V24H29.2523ZM29.2523 43.5158V45.6528C22.2015 44.4174 20.2429 37.2221 20.2429 37.2221C20.2429 37.2221 23.6321 33.5492 29.2523 32.9483V35.2855H29.2352C26.2889 34.9349 23.9727 37.6394 23.9727 37.6394C23.9727 37.6394 25.2841 42.197 29.2523 43.5158ZM16.7346 36.9215C16.7346 36.9215 20.9072 30.8781 29.2694 30.2437V28.0401C20.0045 28.7746 12 36.4541 12 36.4541C12 36.4541 16.5302 49.3089 29.2523 50.4775V48.1402C19.9194 47.005 16.7346 36.9215 16.7346 36.9215Z" fill="#9B98AE"/>
</svg>
