<svg width="190" height="92" viewBox="0 0 190 92" fill="none" xmlns="http://www.w3.org/2000/svg">
<path fill-rule="evenodd" clip-rule="evenodd" d="M163.244 67.9999C163.387 67.9999 164.177 67.8661 164.385 67.8339C168.267 67.2324 171.111 65.5 172.678 60.7144C173.744 57.4567 178 44.2521 178 44.2521H173.483L169.87 56.7202H169.144L166.41 44.2521H161.718L166.29 60.6026H168.753C168.753 60.6026 168.654 60.9282 168.579 61.1851C168.054 63.0057 165.256 64.2371 162.664 64.5807L163.244 67.9999ZM118.903 60.5933V47.9333C119.386 47.7711 120.578 47.5756 121.931 47.5756C122.64 47.5756 123.764 47.6294 124.343 47.6944V44.0023C123.893 43.8719 122.672 43.8334 121.545 43.8334C118.71 43.8334 116.003 44.5818 114.586 45.2652V60.5933H118.903ZM161.681 60.5858L161.835 57.281C161.665 57.3195 161.199 57.4245 160.761 57.4245C159.298 57.4245 158.867 56.4653 158.867 55.1497V37.2354L154.549 39.201V55.9908C154.549 58.3962 155.732 60.7981 159.15 60.7981C160.506 60.7981 161.507 60.6191 161.681 60.5858ZM152.805 60.5858L152.959 57.281C152.789 57.3195 152.323 57.4245 151.885 57.4245C150.422 57.4245 149.991 56.4653 149.991 55.1497V37.2354L145.673 39.201V55.9908C145.673 58.3962 146.856 60.7981 150.274 60.7981C151.629 60.7981 152.631 60.6191 152.805 60.5858ZM137.318 60.5933V44.2296L141.635 44.2521V60.5933H137.318ZM139.444 42.3155C138.124 42.3155 137.125 41.7948 137.125 39.9076C137.125 38.1831 138.027 37.4668 139.444 37.4668C140.894 37.4668 141.829 38.0204 141.829 39.8751C141.829 41.6647 140.959 42.3155 139.444 42.3155ZM108.2 50.6022V50.2437C108.2 48.0313 107.23 47.0226 104.868 47.0226C102.452 47.0226 101.494 48.3565 101.429 50.6022H108.2ZM106.224 57.3703C108.652 57.3703 110.155 56.8305 110.905 56.598L111.324 59.8523C110.694 60.145 108.629 61.0153 105.954 61.0153C100.09 61.0153 97.048 57.9797 97.048 52.1223C97.048 46.1983 99.9572 43.8008 104.978 43.8008C110.452 43.8008 112.195 46.8596 112.195 52.0337C112.195 52.5866 112.162 53.3679 112.098 53.661H101.365C101.365 56.614 103.518 57.3703 106.224 57.3703ZM86.7868 60.5933V53.4005H87.8136L93.0284 60.5933H97.8612L91.1555 51.0916L97.2582 44.2521H92.5402L87.7044 49.7555H86.7868V37.2354L82.4696 39.201V60.5933H86.7868ZM131.16 60.7981C132.878 60.7981 133.994 60.5297 134.179 60.4815L134.372 57.1292C134.224 57.192 133.391 57.4257 132.86 57.4257C130.877 57.4257 130.248 56.0017 130.248 54.1141V48.1289H134.863V44.2521H130.248V40.7637L125.982 42.729V55.3407C125.982 59.0882 127.919 60.7981 131.16 60.7981ZM75.2484 53.7478C74.4729 53.6233 73.0383 53.4135 71.8494 53.4135C69.0498 53.4135 68.8144 54.5841 68.8144 55.6054C68.8144 57.2619 69.5579 57.8739 71.9616 57.8739C73.5309 57.8739 74.668 57.6212 75.2484 57.4586V53.7478ZM71.7036 60.9993C66.2601 60.9993 64.7299 59.2766 64.7299 55.7108C64.7299 52.0722 66.3071 50.4474 71.5604 50.4474C73.2126 50.4474 74.7594 50.6972 75.2484 50.7645V49.6792C75.2484 48.37 74.5629 47.4129 71.1132 47.4129C68.3717 47.4129 66.823 48.2003 66.2834 48.4137L65.9499 45.0297C66.6624 44.7459 68.9369 43.8008 72.3391 43.8008C77.4547 43.8008 79.5012 46.0039 79.5012 50.2463V59.7506C78.2768 60.3039 75.1292 60.9993 71.7036 60.9993ZM54.441 57.4776C57.7992 57.4776 58.8293 55.5523 58.8293 52.4184C58.8293 49.3794 57.7522 47.4477 54.441 47.4477C53.4746 47.4477 52.6 47.641 51.5692 47.9662V56.9599C52.3179 57.2077 53.3824 57.4776 54.441 57.4776ZM47.252 39.201L51.5692 37.2354V44.5168C52.697 44.1586 53.5864 43.8008 55.842 43.8008C60.7325 43.8008 63.1073 46.4312 63.1073 52.4187C63.1073 59.4343 60.3802 61.0153 54.1142 61.0153C51.118 61.0153 48.5408 60.4946 47.252 59.9087V39.201Z" fill="#9B98AE"/>
<path fill-rule="evenodd" clip-rule="evenodd" d="M31.4526 24.8038C30.3245 24.2415 28.5778 24 26.8937 24C19.2649 24 12 28.3437 12 35.6595C12 38.2435 12.8124 41.0063 14.2304 43.4815C15.8335 46.2805 18.0565 48.8391 20.7099 50.6578C22.7238 52.0381 25.056 53.0007 27.4656 53.0007C29.4724 53.0007 30.8201 52.4452 31.2868 52.0568C31.0847 52.0893 30.5995 52.1611 30.0002 52.1611C23.6603 52.1611 19.3456 46.4607 17.7296 42.32C17.1071 40.7244 16.6437 38.8069 16.6437 36.9033C16.6437 29.115 23.5474 24.8382 30.2901 24.8382C30.6676 24.8382 31.0477 24.8505 31.4293 24.8774C31.4589 24.8793 31.4774 24.861 31.4774 24.8404C31.4774 24.8273 31.4697 24.8135 31.4526 24.8038ZM32.6245 36.3762C29.2933 36.3762 26.521 38.8817 26.521 42.219C26.521 45.313 29.0287 48.248 32.6889 48.248C33.535 48.248 34.3778 48.0577 35.1506 47.7037C35.2831 47.6432 35.4567 47.5856 35.5704 47.4932C35.664 47.417 35.7084 47.2831 35.7713 47.1762C36.7481 45.5234 37.8408 41.739 37.9988 39.6185C38.0147 39.401 37.9548 39.3221 37.8267 39.1471C36.9617 37.9646 35.2787 36.3762 32.6245 36.3762ZM38.128 36.6386C38.128 36.9242 38.1217 37.5411 38.1146 37.8222C36.8736 35.6161 34.4611 34.3477 31.9645 34.3477C28.3217 34.3477 24.992 37.5732 24.992 41.8381C24.992 46.0315 28.3332 49.0574 32.0808 49.0574C33.1068 49.0574 34.132 48.8297 35.0707 48.371C34.668 48.9927 34.2168 49.5842 33.7127 50.1255C33.4869 50.3681 33.2526 50.6739 32.9402 50.7898C32.5845 50.9222 31.838 51.2231 30.5077 51.2231C26.0546 51.2231 23.0247 47.8891 21.6042 45.7448C20.1877 43.6064 18.9644 40.7401 18.9644 37.6742C18.9644 31.5595 23.9982 28.4084 29.5246 28.4084C35.5393 28.4084 38.128 33.2389 38.128 36.6386Z" fill="#9B98AE"/>
</svg>
