<svg width="190" height="70" viewBox="0 0 190 70" fill="none" xmlns="http://www.w3.org/2000/svg">
<path d="M70.699 45.7478L68.5686 42.0877C69.5646 40.1936 69.5646 37.961 69.5646 35.0238C69.5646 31.3637 69.5646 28.6187 67.4343 26.3952C66.7002 25.6005 65.7997 24.9748 64.796 24.5623C63.7923 24.1497 62.7097 23.9601 61.6243 24.007C60.5419 23.9833 59.4663 24.1834 58.466 24.5945C57.4658 25.0057 56.5627 25.6189 55.8143 26.3952C53.684 28.518 53.684 31.2082 53.684 34.9872C53.684 38.7662 53.5733 41.3923 55.8143 43.6066C56.557 44.3946 57.4589 45.0182 58.4611 45.4367C59.4633 45.8443 60.5418 46.0346 61.6243 45.9948C62.2299 45.986 62.8329 45.9124 63.4226 45.7752L70.699 45.7478ZM58.8392 41.0354C58.0645 40.1204 57.8432 39.1322 57.8432 34.9872C57.8432 30.8421 58.1106 29.8265 58.8392 28.9389C59.1937 28.5879 59.6133 28.3082 60.075 28.1154C60.5327 27.9219 61.0252 27.8223 61.5228 27.8226C62.0233 27.8233 62.5186 27.9228 62.98 28.1154C63.4387 28.3085 63.8553 28.5882 64.2065 28.9389C64.9812 29.8539 65.2025 30.8421 65.2025 34.9872C65.2025 39.1322 64.9812 40.1387 64.2065 41.0354C63.8636 41.3963 63.4491 41.683 62.9892 41.8773C62.5227 42.0602 62.0244 42.1504 61.5228 42.1426C61.0232 42.1525 60.5269 42.0591 60.0657 41.8681C59.6042 41.676 59.1869 41.3927 58.8392 41.0354ZM119.743 24.2266H123.865V45.7478H119.743V24.2266ZM19.8292 45.9674C16.6106 45.9674 14.1391 45.2994 11.9995 43.1674L14.6832 40.4773C15.3765 41.1045 16.1883 41.5892 17.0716 41.9033C17.9549 42.2174 18.8921 42.3547 19.8292 42.3073C22.2915 42.3073 23.6287 41.3923 23.6287 39.6172C23.6414 39.2868 23.5882 38.9571 23.472 38.6472C23.3594 38.3401 23.1835 38.0596 22.9555 37.8237C22.4219 37.3689 21.7569 37.0934 21.0557 37.0368L18.4551 36.68C16.912 36.5497 15.4589 35.9046 14.3327 34.8499C13.8148 34.2795 13.4139 33.6144 13.1523 32.8918C12.877 32.1583 12.7546 31.3769 12.7926 30.5951C12.7742 26.8069 15.5685 24.1168 20.2995 24.1168C23.2045 24.1168 25.4455 24.7756 27.2438 26.5782L24.5325 29.1677C23.9481 28.6311 23.2579 28.2207 22.5055 27.9624C21.7531 27.7041 20.9548 27.6035 20.1612 27.667C17.9202 27.667 16.8135 28.9115 16.8135 30.4121C16.8313 30.9947 17.0681 31.5496 17.4775 31.9676C18.0572 32.4447 18.7542 32.7605 19.4972 32.8826L22.0702 33.212C23.6075 33.2533 25.0754 33.8561 26.1925 34.9048C26.7647 35.5207 27.2096 36.2419 27.5021 37.0277C27.7881 37.8223 27.9165 38.6643 27.8802 39.5074C27.8802 43.6341 24.3112 45.9948 19.82 45.9948M33.9023 45.7478V24.2266H48.0953V27.8866H38.1353V32.965H46.6197V36.8172H38.1445V42.0969H48.1045V45.7569H33.9023M83.7576 45.9674C79.3863 45.9674 75.8173 42.9478 75.8173 38.3544V24.2266H80.0872V38.2263C80.0872 40.6969 81.5535 42.1426 83.7761 42.1426C85.9986 42.1426 87.465 40.6694 87.465 38.2263V24.2266H91.5873V38.3361C91.5873 42.9112 88.1566 45.9491 83.7853 45.9491M111.47 43.6066C110.736 44.3997 109.835 45.0236 108.831 45.4346C107.827 45.8456 106.745 46.0337 105.66 45.9857C104.579 46.015 103.504 45.8183 102.505 45.4084C101.506 44.9985 100.604 44.3846 99.8596 43.6066C97.7662 41.4747 97.7662 38.7845 97.7662 34.9872C97.7662 31.1899 97.6555 28.5821 99.9057 26.3677C100.633 25.5818 101.526 24.9632 102.52 24.5554C103.514 24.1476 104.586 23.9604 105.66 24.007C106.741 23.9919 107.813 24.1951 108.812 24.6041C109.811 25.0131 110.715 25.6193 111.47 26.386C113.601 28.518 113.601 31.2082 113.601 35.0055C113.601 38.8028 113.601 41.3923 111.47 43.6066ZM108.344 28.9664C107.993 28.6153 107.576 28.3366 107.116 28.1464C106.656 27.9563 106.163 27.8583 105.665 27.8583C105.167 27.8583 104.674 27.9563 104.214 28.1464C103.754 28.3366 103.337 28.6153 102.986 28.9664C102.202 29.8814 101.99 30.8696 101.99 35.0146C101.99 39.1597 102.202 40.1662 102.986 41.0537C103.335 41.407 103.752 41.6877 104.212 41.8793C104.672 42.0708 105.166 42.1695 105.665 42.1695C106.164 42.1695 106.658 42.0708 107.118 41.8793C107.578 41.6877 107.995 41.407 108.344 41.0537C109.119 40.1387 109.34 39.1597 109.34 35.0146C109.34 30.8696 109.146 29.8265 108.344 28.9389V28.9664ZM143.674 45.7478L142.448 41.9413H134.84L133.512 45.7478H129.122L136.979 24.2266H140.188L148.018 45.7478H143.674ZM138.63 30.4944L135.946 38.3361H141.314L138.63 30.4944ZM172.632 24.2266H178V29.6069H172.632V24.2266ZM159.214 41.1178V24.2266H156.53V43.8354L159.214 41.1178ZM161.095 43.0576L158.411 45.7478H178V43.0576H161.095ZM164.581 35.7649V24.2266H161.898V38.4551L164.581 35.7649ZM166.463 37.6773L163.77 40.3675H178V37.6773H166.463ZM169.939 30.4121V24.2266H167.256V33.0748L169.939 30.4121ZM171.83 32.297L169.155 34.9872H178V32.297H171.83Z" fill="#9B98AE"/>
</svg>
