<svg width="190" height="70" viewBox="0 0 190 70" fill="none" xmlns="http://www.w3.org/2000/svg">
<path d="M16.0679 43.9153H15.9338L15.5761 45.6008H11.9995V24H16.5597V29.2782L16.4256 31.6734H16.515C17.6774 30.5645 19.2422 29.8992 20.7175 29.8992C24.5624 29.8992 26.9319 32.9597 26.9319 37.6169C26.9319 42.8952 23.713 45.9113 20.2705 45.9113C18.8398 45.9556 17.3197 45.246 16.0679 43.9153ZM22.2376 37.75C22.2376 35 21.3434 33.625 19.421 33.625C18.4374 33.625 17.5433 34.0685 16.5597 35.0444V41.254C17.4092 42.0081 18.4374 42.2742 19.2422 42.2742C20.8964 42.2742 22.2376 40.8992 22.2376 37.75ZM28.7202 37.9718C28.7202 32.871 32.5204 29.9435 36.5888 29.9435C40.6572 29.9435 44.4574 32.871 44.4574 37.9718C44.4574 43.0726 40.6572 45.9556 36.5888 45.9556C32.5204 45.9556 28.7202 43.0282 28.7202 37.9718ZM39.763 37.9718C39.763 35.3105 38.6901 33.625 36.5888 33.625C34.4875 33.625 33.4145 35.3105 33.4145 37.9718C33.4145 40.6331 34.4875 42.3185 36.5888 42.3185C38.6901 42.3185 39.763 40.5887 39.763 37.9718ZM48.6152 39.6129V27.5927H44.0997V24H53.1754V39.7903C53.1754 41.6532 54.3825 42.2742 55.679 42.2742C56.3943 42.2742 57.1544 42.1411 58.0485 41.7863L59.0768 45.1129C57.4673 45.6452 56.3943 45.9556 54.4719 45.9556C50.627 45.9556 48.6152 43.5161 48.6152 39.6129ZM60.1498 37.9718C60.1498 33.004 63.3688 29.9435 66.7218 29.9435C68.4207 29.9435 69.5831 30.5202 70.6114 31.5847H70.7455L70.522 29.2339V24H75.0822V45.6008H71.3714L71.0138 44.0484H70.9244C69.762 45.1573 68.1972 46 66.6324 46C62.6981 45.9556 60.1498 42.9395 60.1498 37.9718ZM70.522 40.8548V34.6452C69.6726 33.8911 68.8678 33.625 67.9289 33.625C66.2748 33.625 64.8441 35 64.8441 37.8831C64.8441 40.8992 65.9171 42.2742 67.8395 42.2742C68.8231 42.2742 69.7173 41.875 70.522 40.8548ZM77.3623 43.6048L79.3294 40.7661C81.2072 41.9194 83.3531 42.5847 85.5438 42.5847C87.198 42.5847 88.0027 42.0524 88.0027 41.2984C88.0027 40.4556 87.2427 40.1452 84.2026 39.4798C80.0001 38.5927 78.3459 37.0847 78.3459 34.6895C78.3459 31.8508 81.0283 29.8992 85.4097 29.8992C88.1816 29.8992 90.4617 30.9637 92.0712 31.9839L90.0146 34.6895C88.4498 33.7581 86.7062 33.2258 85.0073 33.2258C83.5767 33.2258 82.8614 33.7137 82.8614 34.4234C82.8614 35.2661 83.8449 35.4879 86.438 36.0645C91.177 37.129 92.4735 38.4597 92.4735 40.9436C92.4735 43.6936 89.8358 45.8669 84.9179 45.8669C82.146 45.9556 79.3294 44.8911 77.3623 43.6048ZM98.1067 39.2581V33.8468H94.2171V30.4758L98.3302 30.2984L98.9114 25.5968H102.667V30.2984H109.194V33.8468H102.667V39.2137C102.667 41.5202 103.65 42.4073 105.931 42.4073C107.093 42.4073 108.032 42.1411 108.971 41.8306L109.775 45.1129C108.389 45.5121 106.78 45.9556 104.768 45.9556C99.8056 45.9556 98.1067 43.25 98.1067 39.2581ZM111.385 41.3427C111.385 37.9274 114.246 36.1976 121.534 35.754C121.399 34.379 120.326 33.5363 118.225 33.5363C116.75 33.5363 115.274 34.1129 113.531 34.9556L111.921 31.9839C114.023 30.7863 116.482 29.8992 119.119 29.8992C123.456 29.8992 126.094 32.1169 126.094 36.8185V45.5565H122.383L122.025 43.8266H121.891C120.326 44.9798 118.404 45.9113 116.437 45.9113C113.352 45.9556 111.385 43.9153 111.385 41.3427ZM121.534 40.9879V38.4597C117.018 38.7258 115.766 39.6573 115.766 40.9879C115.766 41.9637 116.616 42.4516 117.912 42.4516C119.253 42.4516 120.416 41.8306 121.534 40.9879ZM129.894 30.2984H133.605L133.962 33.625H134.052C135.572 31.1411 137.852 29.9435 140.311 29.9435C141.697 29.9435 142.412 30.1653 143.306 30.5645L142.367 34.3347C141.384 34.0685 140.803 33.8911 139.64 33.8911C137.763 33.8911 135.751 34.8669 134.454 37.6169V45.5565H129.894V30.2984ZM148.984 39.2581V33.8468H145.095V30.4758L149.208 30.2984L149.789 25.5968H153.544V30.2984H160.072V33.8468H153.544V39.2137C153.544 41.5202 154.528 42.4073 156.808 42.4073C157.97 42.4073 158.909 42.1411 159.848 41.8306L160.653 45.1129C159.267 45.5121 157.657 45.9556 155.646 45.9556C150.728 45.9556 148.984 43.25 148.984 39.2581Z" fill="#9B98AE"/>
<path d="M166.018 41.9196L174.244 36.8188V36.6858L166.018 31.585V27.46L178 35.1777V38.3269L166.018 46.0003V41.9196Z" fill="#9B98AE"/>
</svg>
