<svg width="151" height="195" viewBox="0 0 151 195" fill="none" xmlns="http://www.w3.org/2000/svg">
<g clip-path="url(#clip0_51_1517)">
<path d="M13.1152 143.675L76.1471 175.632L136.785 143.675V18.707H13.1152V143.675Z" fill="white"/>
<path d="M138.062 19.1836L11.8389 145.9L77.2644 178.175L138.062 147.172V19.1836Z" fill="#F2F3F2"/>
<path d="M8.96582 60.3619V146.376L11.1999 147.489L74.2318 179.447L76.1467 180.401L78.0616 179.447L138.859 147.489L141.093 146.376V14.5723H8.96582V60.3619ZM13.1148 143.992V18.7061H136.945V143.992L76.1467 175.949L13.1148 143.992Z" fill="#DCDEDC"/>
<path d="M75.0303 20.7729C75.6686 20.7729 76.3068 20.7729 76.9451 20.9319L75.0303 24.5887C72.1579 24.4298 69.6047 26.6556 69.4451 29.5175C69.2856 32.3793 71.5196 34.9232 74.392 35.0822H75.0303C76.3069 35.0822 77.5834 34.6052 78.5409 33.8103L80.6154 37.3081C79.0196 38.421 77.1047 39.057 75.0303 39.057C69.9239 39.216 65.6154 35.4002 65.4558 30.3125C65.2962 25.2247 69.126 20.9319 74.2324 20.7729H75.0303ZM81.5728 28.5635L83.9664 32.5383L81.5728 36.3541L79.3388 32.5383H74.7111L77.1047 28.5635H81.5728ZM77.743 27.1326C77.743 26.4967 77.9026 25.8607 78.2217 25.3837C78.5409 24.9067 79.1792 24.4298 79.6579 24.1118L79.9771 23.9528C80.6154 23.6348 80.7749 23.4758 80.7749 23.1578C80.7749 22.8398 80.2962 22.5219 79.9771 22.5219C79.3388 22.5219 78.86 22.8398 78.5409 23.4758L77.743 22.6808C77.9026 22.3629 78.2217 22.0449 78.5409 21.7269C79.0196 21.4089 79.4983 21.4089 79.9771 21.4089C80.4558 21.4089 81.0941 21.5679 81.4132 21.8859C81.7324 22.2039 82.0515 22.6808 82.0515 23.1578C82.0515 23.9528 81.5728 24.5887 80.6154 24.9067L80.1366 25.2247C79.6579 25.5427 79.3388 25.7017 79.1792 26.1787H82.0515V27.2916L77.743 27.1326ZM75.0303 47.0066L90.1898 38.421V14.5723H59.7111V38.262L75.0303 47.0066ZM144.126 103.29H5.93451L0.828125 114.419L5.93451 125.549H144.126L149.073 114.419L144.126 103.29Z" fill="#FF492C"/>
<path d="M27.796 79.4253C28.8492 79.4253 29.7747 79.6373 30.5726 80.0613C31.3705 80.4852 31.9875 81.0947 32.4237 81.8897C32.8599 82.674 33.0779 83.575 33.0779 84.5925C33.0779 85.5995 32.8545 86.4845 32.4077 87.2477C31.9503 88.0002 31.312 88.5885 30.4928 89.0125C29.6737 89.4365 28.7269 89.6485 27.6524 89.6485H24.2535C24.179 89.6485 24.1418 89.6909 24.1418 89.7757V95.8491C24.1418 95.9339 24.1099 96.0028 24.046 96.0558C23.9928 96.1088 23.9237 96.1353 23.8386 96.1353H21.046C20.9609 96.1353 20.8918 96.1088 20.8386 96.0558C20.7854 96.0028 20.7588 95.9339 20.7588 95.8491V79.7115C20.7588 79.6267 20.7854 79.5578 20.8386 79.5048C20.8918 79.4518 20.9609 79.4253 21.046 79.4253H27.796ZM27.2854 86.9615C28.0301 86.9615 28.6205 86.7495 29.0567 86.3255C29.5035 85.9016 29.7269 85.3504 29.7269 84.672C29.7269 83.9619 29.5035 83.3948 29.0567 82.9708C28.6205 82.5362 28.0301 82.3189 27.2854 82.3189H24.2535C24.179 82.3189 24.1418 82.3613 24.1418 82.4461V86.8343C24.1418 86.9191 24.179 86.9615 24.2535 86.9615H27.2854ZM45.1577 88.7422C45.2428 89.3464 45.2694 90.0194 45.2375 90.7614C45.2269 90.9628 45.1258 91.0635 44.9343 91.0635H37.546C37.4503 91.0635 37.413 91.1006 37.4343 91.1748C37.4875 91.4928 37.5779 91.8107 37.7056 92.1287C38.1205 93.0191 38.9662 93.4643 40.2428 93.4643C41.2641 93.4537 42.0673 93.0403 42.6524 92.2241C42.7269 92.1287 42.8013 92.081 42.8758 92.081C42.9184 92.081 42.9716 92.1128 43.0354 92.1764L44.7588 93.8617C44.8439 93.9465 44.8864 94.0207 44.8864 94.0843C44.8864 94.1161 44.8545 94.1797 44.7907 94.2751C44.2588 94.9323 43.5833 95.4358 42.7641 95.7855C41.9237 96.1459 41.0088 96.3261 40.0194 96.3261C38.6577 96.3261 37.4981 96.0187 36.5407 95.404C35.5939 94.7786 34.913 93.9094 34.4981 92.7965C34.1577 92.0015 33.9875 90.9628 33.9875 89.6803C33.9875 88.8005 34.1099 88.0267 34.3545 87.359C34.7269 86.2354 35.3705 85.3398 36.2854 84.672C37.2003 84.0043 38.2854 83.6704 39.5407 83.6704C41.1364 83.6704 42.4184 84.1314 43.3864 85.0536C44.3545 85.9757 44.945 87.2053 45.1577 88.7422ZM39.5726 86.5799C38.562 86.5799 37.8971 87.0463 37.5779 87.979C37.5141 88.191 37.4609 88.4454 37.4184 88.7422C37.4184 88.8164 37.4609 88.8535 37.546 88.8535H41.679C41.7747 88.8535 41.8067 88.8164 41.7747 88.7422C41.6896 88.2864 41.6471 88.0638 41.6471 88.0744C41.5088 87.5975 41.2588 87.2265 40.8971 86.9615C40.546 86.7071 40.1045 86.5799 39.5726 86.5799ZM53.4556 83.7181C54.0301 83.7181 54.4875 83.8294 54.8279 84.052C54.945 84.1155 54.9875 84.2321 54.9556 84.4017L54.4609 87.1205C54.4503 87.3113 54.3386 87.3696 54.1258 87.2954C53.8811 87.2106 53.6045 87.1682 53.296 87.1682C53.1684 87.1682 52.9875 87.1841 52.7535 87.2159C52.1896 87.2689 51.7056 87.4809 51.3013 87.8519C50.9077 88.2228 50.7109 88.721 50.7109 89.3464V95.8491C50.7109 95.9339 50.679 96.0028 50.6152 96.0558C50.562 96.1088 50.4981 96.1353 50.4237 96.1353H47.6152C47.5407 96.1353 47.4716 96.1088 47.4077 96.0558C47.3545 96.0028 47.3279 95.9339 47.3279 95.8491V84.1632C47.3279 84.0891 47.3545 84.0202 47.4077 83.9566C47.4716 83.9036 47.5407 83.8771 47.6152 83.8771H50.4237C50.4981 83.8771 50.562 83.9036 50.6152 83.9566C50.679 84.0202 50.7109 84.0891 50.7109 84.1632V85.0695C50.7109 85.1119 50.7269 85.1437 50.7588 85.1649C50.7801 85.1861 50.8013 85.1755 50.8226 85.1331C51.4822 84.1897 52.3599 83.7181 53.4556 83.7181ZM63.6524 83.8612C63.7375 83.8612 63.8067 83.8877 63.8599 83.9407C63.913 83.9937 63.9396 84.0625 63.9396 84.1473V86.405C63.9396 86.4898 63.913 86.5587 63.8599 86.6117C63.8067 86.6647 63.7375 86.6912 63.6524 86.6912H61.3386C61.2535 86.6912 61.2109 86.7283 61.2109 86.8025V95.8491C61.2109 95.9339 61.1843 96.0028 61.1311 96.0558C61.0779 96.1088 61.0088 96.1353 60.9237 96.1353H58.1311C58.046 96.1353 57.9769 96.1088 57.9237 96.0558C57.8705 96.0028 57.8439 95.9339 57.8439 95.8491V86.8025C57.8439 86.7283 57.8013 86.6912 57.7162 86.6912H56.312C56.2269 86.6912 56.1577 86.6647 56.1045 86.6117C56.0513 86.5587 56.0247 86.4898 56.0247 86.405V84.1473C56.0247 84.0625 56.0513 83.9937 56.1045 83.9407C56.1577 83.8877 56.2269 83.8612 56.312 83.8612H57.7162C57.8013 83.8612 57.8439 83.8188 57.8439 83.734V83.2093C57.8439 82.2235 57.9928 81.4551 58.2907 80.9039C58.5992 80.3633 59.0886 79.9765 59.7588 79.7433C60.4396 79.5101 61.3811 79.4094 62.5833 79.4412H63.4928C63.5673 79.4412 63.6311 79.4677 63.6843 79.5207C63.7481 79.5843 63.7801 79.6532 63.7801 79.7274V81.6512C63.7801 81.736 63.7481 81.8049 63.6843 81.8579C63.6311 81.9215 63.5673 81.9533 63.4928 81.9533H62.695C62.1418 81.9639 61.7535 82.0752 61.5301 82.2871C61.3173 82.5097 61.2109 82.9072 61.2109 83.4796V83.734C61.2109 83.8188 61.2535 83.8612 61.3386 83.8612H63.6524ZM70.5939 96.3261C69.2535 96.3261 68.1045 95.9763 67.1471 95.2768C66.1896 94.5772 65.5354 93.6233 65.1843 92.4149C64.9609 91.673 64.8492 90.8621 64.8492 89.9823C64.8492 89.0496 64.9609 88.2069 65.1843 87.4544C65.5567 86.2778 66.2216 85.3557 67.179 84.6879C68.1364 84.0202 69.2854 83.6863 70.6258 83.6863C71.9237 83.6863 73.0407 84.0149 73.9769 84.672C74.8918 85.3398 75.5407 86.2619 75.9237 87.4385C76.1896 88.2334 76.3226 89.0655 76.3226 89.9346C76.3226 90.7932 76.2109 91.5988 75.9875 92.3513C75.6364 93.5915 74.9822 94.5613 74.0247 95.2609C73.0779 95.971 71.9343 96.3261 70.5939 96.3261ZM70.5939 93.4484C71.1152 93.4484 71.562 93.2894 71.9343 92.9714C72.3067 92.6534 72.5726 92.2135 72.7322 91.6518C72.8492 91.143 72.9077 90.5865 72.9077 89.9823C72.9077 89.3146 72.8492 88.7528 72.7322 88.297C72.5513 87.7565 72.2801 87.3325 71.9184 87.0251C71.546 86.7283 71.0939 86.5799 70.562 86.5799C70.0301 86.5799 69.5833 86.7283 69.2215 87.0251C68.8598 87.3325 68.5992 87.7565 68.4396 88.297C68.312 88.668 68.2482 89.2298 68.2482 89.9823C68.2482 90.7031 68.3067 91.2596 68.4237 91.6518C68.5833 92.2135 68.8492 92.6534 69.2215 92.9714C69.5939 93.2894 70.0513 93.4484 70.5939 93.4484ZM84.6205 83.7181C85.195 83.7181 85.6524 83.8294 85.9928 84.052C86.1205 84.1155 86.163 84.2321 86.1205 84.4017L85.6258 87.1205C85.6152 87.3113 85.5035 87.3696 85.2907 87.2954C85.046 87.2106 84.7694 87.1682 84.4609 87.1682C84.3333 87.1682 84.1577 87.1841 83.9343 87.2159C83.3599 87.2689 82.8705 87.4809 82.4662 87.8519C82.0726 88.2228 81.8758 88.721 81.8758 89.3464V95.8491C81.8758 95.9339 81.8439 96.0028 81.7801 96.0558C81.7269 96.1088 81.6577 96.1353 81.5726 96.1353H78.7801C78.7056 96.1353 78.6364 96.1088 78.5726 96.0558C78.5194 96.0028 78.4928 95.9339 78.4928 95.8491V84.1632C78.4928 84.0891 78.5194 84.0202 78.5726 83.9566C78.6364 83.9036 78.7056 83.8771 78.7801 83.8771H81.5726C81.6577 83.8771 81.7269 83.9036 81.7801 83.9566C81.8439 84.0202 81.8758 84.0891 81.8758 84.1632V85.0695C81.8758 85.1119 81.8864 85.1437 81.9077 85.1649C81.9503 85.1861 81.9769 85.1755 81.9875 85.1331C82.6471 84.1897 83.5247 83.7181 84.6205 83.7181ZM101.296 83.6863C102.541 83.6863 103.514 84.0572 104.216 84.7992C104.918 85.5518 105.269 86.6064 105.269 87.9632V95.8491C105.269 95.9339 105.243 96.0028 105.19 96.0558C105.136 96.1088 105.073 96.1353 104.998 96.1353H102.19C102.115 96.1353 102.046 96.1088 101.982 96.0558C101.929 96.0028 101.902 95.9339 101.902 95.8491V88.6945C101.902 88.0479 101.738 87.5339 101.408 87.1523C101.067 86.7707 100.615 86.5799 100.051 86.5799C99.4982 86.5799 99.046 86.7707 98.695 87.1523C98.3439 87.5339 98.1684 88.0426 98.1684 88.6786V95.8491C98.1684 95.9339 98.1418 96.0028 98.0886 96.0558C98.0247 96.1088 97.9556 96.1353 97.8811 96.1353H95.1045C95.0194 96.1353 94.9503 96.1088 94.8971 96.0558C94.8439 96.0028 94.8173 95.9339 94.8173 95.8491V88.6945C94.8173 88.0585 94.6418 87.5445 94.2907 87.1523C93.9396 86.7707 93.4822 86.5799 92.9184 86.5799C92.4184 86.5799 91.9928 86.7283 91.6418 87.0251C91.3013 87.3325 91.0992 87.7565 91.0354 88.297V95.8491C91.0354 95.9339 91.0088 96.0028 90.9556 96.0558C90.8918 96.1088 90.8226 96.1353 90.7481 96.1353H87.9556C87.8705 96.1353 87.8013 96.1088 87.7481 96.0558C87.695 96.0028 87.6684 95.9339 87.6684 95.8491V84.1632C87.6684 84.0891 87.695 84.0202 87.7481 83.9566C87.8013 83.9036 87.8705 83.8771 87.9556 83.8771H90.7481C90.8226 83.8771 90.8918 83.9036 90.9556 83.9566C91.0088 84.0202 91.0354 84.0891 91.0354 84.1632V85.1013C91.0354 85.1437 91.0513 85.1755 91.0833 85.1967C91.1152 85.2073 91.1471 85.1861 91.179 85.1331C91.8386 84.1685 92.8545 83.6863 94.2269 83.6863C95.0247 83.6863 95.7216 83.8559 96.3173 84.195C96.913 84.5236 97.3705 85.0006 97.6896 85.626C97.7322 85.7214 97.7907 85.7214 97.8652 85.626C98.2056 84.9688 98.679 84.4812 99.2854 84.1632C99.8811 83.8453 100.551 83.6863 101.296 83.6863ZM118.466 88.7422C118.562 89.3464 118.594 90.0194 118.562 90.7614C118.541 90.9628 118.434 91.0635 118.243 91.0635H110.855C110.759 91.0635 110.727 91.1006 110.759 91.1748C110.801 91.4928 110.886 91.8107 111.014 92.1287C111.429 93.0191 112.275 93.4643 113.551 93.4643C114.573 93.4537 115.381 93.0403 115.977 92.2241C116.041 92.1287 116.11 92.081 116.184 92.081C116.238 92.081 116.296 92.1128 116.36 92.1764L118.083 93.8617C118.158 93.9465 118.195 94.0207 118.195 94.0843C118.195 94.1161 118.163 94.1797 118.099 94.2751C117.578 94.9323 116.902 95.4358 116.073 95.7855C115.243 96.1459 114.333 96.3261 113.344 96.3261C111.972 96.3261 110.812 96.0187 109.865 95.404C108.908 94.7786 108.222 93.9094 107.807 92.7965C107.477 92.0015 107.312 90.9628 107.312 89.6803C107.312 88.8005 107.429 88.0267 107.663 87.359C108.035 86.2354 108.679 85.3398 109.594 84.672C110.509 84.0043 111.599 83.6704 112.865 83.6704C114.461 83.6704 115.743 84.1314 116.711 85.0536C117.679 85.9757 118.264 87.2053 118.466 88.7422ZM112.881 86.5799C111.881 86.5799 111.222 87.0463 110.902 87.979C110.839 88.191 110.78 88.4454 110.727 88.7422C110.727 88.8164 110.769 88.8535 110.855 88.8535H114.988C115.083 88.8535 115.115 88.8164 115.083 88.7422C115.009 88.2864 114.972 88.0638 114.972 88.0744C114.823 87.5975 114.573 87.2265 114.222 86.9615C113.86 86.7071 113.413 86.5799 112.881 86.5799ZM126.764 83.7181C127.339 83.7181 127.796 83.8294 128.136 84.052C128.264 84.1155 128.312 84.2321 128.28 84.4017L127.785 87.1205C127.764 87.3113 127.647 87.3696 127.434 87.2954C127.2 87.2106 126.924 87.1682 126.605 87.1682C126.477 87.1682 126.301 87.1841 126.078 87.2159C125.503 87.2689 125.014 87.4809 124.61 87.8519C124.216 88.2228 124.019 88.721 124.019 89.3464V95.8491C124.019 95.9339 123.993 96.0028 123.94 96.0558C123.876 96.1088 123.807 96.1353 123.732 96.1353H120.924C120.849 96.1353 120.785 96.1088 120.732 96.0558C120.668 96.0028 120.636 95.9339 120.636 95.8491V84.1632C120.636 84.0891 120.668 84.0202 120.732 83.9566C120.785 83.9036 120.849 83.8771 120.924 83.8771H123.732C123.807 83.8771 123.876 83.9036 123.94 83.9566C123.993 84.0202 124.019 84.0891 124.019 84.1632V85.0695C124.019 85.1119 124.035 85.1437 124.067 85.1649C124.099 85.1861 124.126 85.1755 124.147 85.1331C124.796 84.1897 125.668 83.7181 126.764 83.7181ZM60.9237 55.8786C60.9237 55.8044 60.9503 55.7355 61.0035 55.6719C61.0567 55.6189 61.1205 55.5924 61.195 55.5924H64.0035C64.0779 55.5924 64.1471 55.6189 64.2109 55.6719C64.2641 55.7355 64.2907 55.8044 64.2907 55.8786V72.0004C64.2907 72.0852 64.2641 72.1541 64.2109 72.2071C64.1471 72.2601 64.0779 72.2866 64.0035 72.2866H61.195C61.1205 72.2866 61.0567 72.2601 61.0035 72.2071C60.9503 72.1541 60.9237 72.0852 60.9237 72.0004V65.4181C60.9237 65.3439 60.8811 65.3068 60.796 65.3068H55.4981C55.4237 65.3068 55.3864 65.3439 55.3864 65.4181V72.0004C55.3864 72.0852 55.3599 72.1541 55.3067 72.2071C55.2428 72.2601 55.1737 72.2866 55.0992 72.2866H52.2907C52.2162 72.2866 52.1524 72.2601 52.0992 72.2071C52.0354 72.1541 52.0035 72.0852 52.0035 72.0004V55.8786C52.0035 55.8044 52.0354 55.7355 52.0992 55.6719C52.1524 55.6189 52.2162 55.5924 52.2907 55.5924H55.0992C55.1737 55.5924 55.2428 55.6189 55.3067 55.6719C55.3599 55.7355 55.3864 55.8044 55.3864 55.8786V62.286C55.3864 62.3708 55.4237 62.4132 55.4981 62.4132H60.796C60.8811 62.4132 60.9237 62.3708 60.9237 62.286V55.8786ZM68.6471 58.6451C68.1045 58.6451 67.6524 58.4649 67.2907 58.1045C66.929 57.7547 66.7481 57.3095 66.7481 56.769C66.7481 56.2072 66.9237 55.7514 67.2747 55.4016C67.6258 55.0518 68.0833 54.877 68.6471 54.877C69.2109 54.877 69.6684 55.0518 70.0194 55.4016C70.3705 55.7514 70.546 56.2072 70.546 56.769C70.546 57.3095 70.3652 57.7547 70.0035 58.1045C69.6418 58.4649 69.1896 58.6451 68.6471 58.6451ZM67.2109 72.2866C67.1364 72.2866 67.0673 72.2601 67.0035 72.2071C66.9503 72.1541 66.9237 72.0852 66.9237 72.0004V60.2986C66.9237 60.2138 66.9503 60.1449 67.0035 60.0919C67.0673 60.0389 67.1364 60.0124 67.2109 60.0124H70.0194C70.0939 60.0124 70.1577 60.0389 70.2109 60.0919C70.2747 60.1449 70.3067 60.2138 70.3067 60.2986V72.0004C70.3067 72.0852 70.2747 72.1541 70.2109 72.2071C70.1577 72.2601 70.0939 72.2866 70.0194 72.2866H67.2109ZM80.4396 60.3145C80.4396 60.2403 80.4715 60.1714 80.5354 60.1078C80.5886 60.0548 80.6524 60.0283 80.7269 60.0283H83.5354C83.6099 60.0283 83.679 60.0548 83.7428 60.1078C83.796 60.1714 83.8226 60.2403 83.8226 60.3145V71.1895C83.8226 73.267 83.2215 74.7509 82.0194 75.6413C80.8173 76.5422 79.2641 76.9927 77.3599 76.9927C76.796 76.9927 76.1737 76.9503 75.4928 76.8655C75.3333 76.8443 75.2535 76.7436 75.2535 76.5634L75.3492 74.0991C75.3492 73.8871 75.4609 73.797 75.6843 73.8288C76.2588 73.9242 76.7854 73.9719 77.2641 73.9719C78.2854 73.9719 79.0726 73.7546 79.6258 73.32C80.1684 72.8642 80.4396 72.1488 80.4396 71.1736C80.4396 71.1206 80.4237 71.0888 80.3918 71.0782C80.3598 71.0676 80.3279 71.0835 80.296 71.1259C79.6896 71.7725 78.8067 72.0958 77.6471 72.0958C76.6045 72.0958 75.6524 71.8467 74.7907 71.3485C73.9184 70.8503 73.296 70.0448 72.9237 68.9318C72.6896 68.2005 72.5726 67.2518 72.5726 66.0859C72.5726 64.8457 72.7162 63.8388 73.0035 63.065C73.3333 62.0899 73.8971 61.3108 74.695 60.7279C75.4928 60.1343 76.4237 59.8375 77.4875 59.8375C78.7109 59.8375 79.6471 60.2032 80.296 60.9345C80.3279 60.9663 80.3598 60.9769 80.3918 60.9663C80.4237 60.9557 80.4396 60.9292 80.4396 60.8868V60.3145ZM80.2481 68.0097C80.3758 67.5433 80.4396 66.8914 80.4396 66.0541C80.4396 65.5665 80.4237 65.1902 80.3918 64.9252C80.3598 64.6496 80.3067 64.39 80.2322 64.1462C80.0833 63.7222 79.8439 63.3777 79.5141 63.1127C79.1843 62.8583 78.7694 62.7312 78.2694 62.7312C77.7907 62.7312 77.3864 62.8583 77.0567 63.1127C76.7162 63.3777 76.4662 63.7222 76.3067 64.1462C76.0833 64.6232 75.9716 65.2697 75.9716 66.0859C75.9716 66.9762 76.0673 67.6122 76.2588 67.9938C76.3971 68.4284 76.6471 68.7728 77.0088 69.0272C77.3705 69.2922 77.796 69.4247 78.2854 69.4247C78.796 69.4247 79.2216 69.2922 79.562 69.0272C79.8918 68.7728 80.1205 68.4337 80.2481 68.0097ZM92.663 59.8375C93.9396 59.8375 94.9662 60.2297 95.7428 61.014C96.5194 61.7878 96.9077 62.8424 96.9077 64.178V72.0004C96.9077 72.0852 96.8811 72.1541 96.8279 72.2071C96.7747 72.2601 96.7109 72.2866 96.6364 72.2866H93.8279C93.7535 72.2866 93.6843 72.2601 93.6205 72.2071C93.5673 72.1541 93.5407 72.0852 93.5407 72.0004V64.8616C93.5407 64.2363 93.3598 63.7222 92.9981 63.3194C92.6471 62.9272 92.1737 62.7312 91.5779 62.7312C90.9928 62.7312 90.5194 62.9272 90.1577 63.3194C89.796 63.7222 89.6152 64.2363 89.6152 64.8616V72.0004C89.6152 72.0852 89.5886 72.1541 89.5354 72.2071C89.4822 72.2601 89.413 72.2866 89.3279 72.2866H86.5354C86.4503 72.2866 86.3811 72.2601 86.3279 72.2071C86.2747 72.1541 86.2481 72.0852 86.2481 72.0004V55.8786C86.2481 55.8044 86.2747 55.7355 86.3279 55.6719C86.3811 55.6189 86.4503 55.5924 86.5354 55.5924H89.3279C89.413 55.5924 89.4822 55.6189 89.5354 55.6719C89.5886 55.7355 89.6152 55.8044 89.6152 55.8786V61.1571C89.6152 61.1995 89.6311 61.2313 89.663 61.2525C89.695 61.2631 89.7162 61.2525 89.7269 61.2207C90.3864 60.2986 91.3652 59.8375 92.663 59.8375Z" fill="#252530"/>
<path d="M49.9766 120.62C49.8596 120.62 49.7851 120.567 49.7532 120.461L46.849 109.697L46.833 109.633C46.833 109.538 46.8915 109.49 47.0085 109.49H48.5724C48.6894 109.49 48.7639 109.543 48.7958 109.649L50.6149 116.899C50.6256 116.931 50.6415 116.947 50.6628 116.947C50.6841 116.947 50.7 116.931 50.7107 116.899L52.45 109.649C52.4819 109.543 52.5511 109.49 52.6575 109.49H54.1894C54.3064 109.49 54.3809 109.543 54.4128 109.649L56.2639 116.915C56.2745 116.947 56.2905 116.963 56.3117 116.963C56.333 116.963 56.349 116.947 56.3596 116.915L58.1468 109.649C58.1788 109.543 58.2532 109.49 58.3702 109.49H59.8543C60.0032 109.49 60.0617 109.559 60.0298 109.697L57.2692 120.461C57.2373 120.567 57.1628 120.62 57.0458 120.62H55.5617C55.4447 120.62 55.3702 120.567 55.3383 120.461L53.4713 112.877C53.4607 112.845 53.4447 112.824 53.4234 112.813C53.4022 112.813 53.3862 112.834 53.3756 112.877L51.5883 120.461C51.5564 120.567 51.4873 120.62 51.3809 120.62H49.9766ZM61.8011 120.62C61.7479 120.62 61.7 120.598 61.6575 120.556C61.6256 120.524 61.6096 120.482 61.6096 120.429V109.681C61.6096 109.628 61.6256 109.586 61.6575 109.554C61.7 109.511 61.7479 109.49 61.8011 109.49H63.2692C63.3224 109.49 63.3649 109.511 63.3968 109.554C63.4394 109.586 63.4607 109.628 63.4607 109.681V120.429C63.4607 120.482 63.4394 120.524 63.3968 120.556C63.3649 120.598 63.3224 120.62 63.2692 120.62H61.8011ZM72.2851 109.681C72.2851 109.628 72.3011 109.586 72.333 109.554C72.3756 109.511 72.4234 109.49 72.4766 109.49H73.9447C73.9979 109.49 74.0405 109.511 74.0724 109.554C74.1149 109.586 74.1362 109.628 74.1362 109.681V120.429C74.1362 120.482 74.1149 120.524 74.0724 120.556C74.0405 120.598 73.9979 120.62 73.9447 120.62H72.5245C72.4181 120.62 72.3436 120.577 72.3011 120.492L67.7054 112.988C67.6841 112.956 67.6628 112.94 67.6415 112.94C67.6202 112.951 67.6096 112.977 67.6096 113.02L67.6415 120.429C67.6415 120.482 67.6202 120.524 67.5777 120.556C67.5458 120.598 67.5032 120.62 67.45 120.62H65.9819C65.9288 120.62 65.8809 120.598 65.8383 120.556C65.8064 120.524 65.7905 120.482 65.7905 120.429V109.681C65.7905 109.628 65.8064 109.586 65.8383 109.554C65.8809 109.511 65.9288 109.49 65.9819 109.49H67.4022C67.5085 109.49 67.583 109.533 67.6256 109.617L72.2054 117.122C72.2266 117.154 72.2479 117.164 72.2692 117.154C72.2905 117.154 72.3011 117.132 72.3011 117.09L72.2851 109.681ZM83.8064 109.49C83.8596 109.49 83.9022 109.511 83.9341 109.554C83.9766 109.586 83.9979 109.628 83.9979 109.681V110.905C83.9979 110.958 83.9766 111.001 83.9341 111.032C83.9022 111.075 83.8596 111.096 83.8064 111.096H80.8702C80.8171 111.096 80.7905 111.123 80.7905 111.176V120.429C80.7905 120.482 80.7745 120.524 80.7426 120.556C80.7 120.598 80.6522 120.62 80.599 120.62H79.1309C79.0777 120.62 79.0351 120.598 79.0032 120.556C78.9607 120.524 78.9394 120.482 78.9394 120.429V111.176C78.9394 111.123 78.9128 111.096 78.8596 111.096H76.0351C75.9819 111.096 75.9341 111.075 75.8915 111.032C75.8596 111.001 75.8436 110.958 75.8436 110.905V109.681C75.8436 109.628 75.8596 109.586 75.8915 109.554C75.9341 109.511 75.9819 109.49 76.0351 109.49H83.8064ZM93.2692 110.889C93.2692 110.942 93.2479 110.985 93.2054 111.017C93.1734 111.059 93.1309 111.08 93.0777 111.08H87.6362C87.583 111.08 87.5564 111.107 87.5564 111.16V114.133C87.5564 114.186 87.583 114.212 87.6362 114.212H91.2905C91.3436 114.212 91.3915 114.228 91.4341 114.26C91.466 114.302 91.4819 114.35 91.4819 114.403V115.611C91.4819 115.664 91.466 115.712 91.4341 115.755C91.3915 115.786 91.3436 115.802 91.2905 115.802H87.6362C87.583 115.802 87.5564 115.829 87.5564 115.882V118.95C87.5564 119.003 87.583 119.03 87.6362 119.03H93.0777C93.1309 119.03 93.1734 119.051 93.2054 119.093C93.2479 119.125 93.2692 119.168 93.2692 119.221V120.429C93.2692 120.482 93.2479 120.524 93.2054 120.556C93.1734 120.598 93.1309 120.62 93.0777 120.62H85.8968C85.8436 120.62 85.7958 120.598 85.7532 120.556C85.7213 120.524 85.7053 120.482 85.7053 120.429V109.681C85.7053 109.628 85.7213 109.586 85.7532 109.554C85.7958 109.511 85.8436 109.49 85.8968 109.49H93.0777C93.1309 109.49 93.1734 109.511 93.2054 109.554C93.2479 109.586 93.2692 109.628 93.2692 109.681V110.889ZM101.423 120.62C101.317 120.62 101.243 120.572 101.2 120.477L99.0936 115.898C99.0724 115.855 99.0405 115.834 98.9979 115.834H97.083C97.0298 115.834 97.0032 115.861 97.0032 115.914V120.429C97.0032 120.482 96.9819 120.524 96.9394 120.556C96.9075 120.598 96.8649 120.62 96.8117 120.62H95.3437C95.2905 120.62 95.2426 120.598 95.2 120.556C95.1681 120.524 95.1522 120.482 95.1522 120.429V109.681C95.1522 109.628 95.1681 109.586 95.2 109.554C95.2426 109.511 95.2905 109.49 95.3437 109.49H99.7319C100.381 109.49 100.955 109.623 101.455 109.888C101.955 110.163 102.344 110.545 102.62 111.032C102.897 111.531 103.035 112.098 103.035 112.734C103.035 113.465 102.844 114.085 102.461 114.594C102.088 115.113 101.567 115.474 100.897 115.675C100.876 115.675 100.86 115.686 100.849 115.707C100.838 115.728 100.838 115.749 100.849 115.77L103.099 120.397C103.12 120.439 103.131 120.471 103.131 120.492C103.131 120.577 103.072 120.62 102.955 120.62H101.423ZM97.083 111.08C97.0298 111.08 97.0032 111.107 97.0032 111.16V114.324C97.0032 114.377 97.0298 114.403 97.083 114.403H99.4766C99.9873 114.403 100.402 114.249 100.721 113.942C101.03 113.645 101.184 113.248 101.184 112.75C101.184 112.251 101.03 111.849 100.721 111.541C100.402 111.234 99.9873 111.08 99.4766 111.08H97.083Z" fill="white"/>
<path d="M54.2217 149.335C54.1897 149.366 54.1791 149.398 54.1897 149.43C54.211 149.462 54.2429 149.478 54.2855 149.478H60.5568C60.6312 149.478 60.6951 149.504 60.7483 149.557C60.8121 149.61 60.844 149.674 60.844 149.748V151.99C60.844 152.064 60.8121 152.128 60.7483 152.181C60.6951 152.234 60.6312 152.26 60.5568 152.26H50.1525C50.0674 152.26 49.9983 152.234 49.9451 152.181C49.8919 152.128 49.8653 152.064 49.8653 151.99V149.859C49.8653 149.722 49.9131 149.605 50.0089 149.51C50.7642 148.778 51.5355 147.978 52.3227 147.109C53.11 146.24 53.6046 145.699 53.8068 145.487C54.2323 144.978 54.6685 144.491 55.1153 144.024C56.5195 142.477 57.2217 141.327 57.2217 140.574C57.2217 140.034 57.0302 139.588 56.6472 139.239C56.2642 138.899 55.7642 138.73 55.1472 138.73C54.5302 138.73 54.0302 138.899 53.6472 139.239C53.2536 139.588 53.0568 140.05 53.0568 140.622V141.194C53.0568 141.268 53.0302 141.332 52.977 141.385C52.9238 141.438 52.86 141.465 52.7855 141.465H50.0568C49.9823 141.465 49.9185 141.438 49.8653 141.385C49.8014 141.332 49.7695 141.268 49.7695 141.194V140.113C49.8227 139.286 50.0887 138.55 50.5674 137.903C51.0461 137.267 51.6791 136.78 52.4663 136.44C53.2642 136.101 54.1578 135.932 55.1472 135.932C56.2429 135.932 57.1951 136.138 58.0036 136.552C58.8121 136.954 59.4344 137.5 59.8706 138.189C60.3174 138.889 60.5408 139.657 60.5408 140.495C60.5408 141.141 60.3759 141.804 60.0461 142.482C59.727 143.16 59.2429 143.892 58.594 144.676C58.1153 145.27 57.5993 145.863 57.0461 146.457C56.4929 147.04 55.6685 147.883 54.5727 148.985L54.2217 149.335ZM68.36 152.514C66.6578 152.514 65.3174 152.043 64.3387 151.099C63.3493 150.156 62.8546 148.868 62.8546 147.236V141.147C62.8546 139.546 63.3493 138.279 64.3387 137.347C65.3174 136.403 66.6578 135.932 68.36 135.932C70.0514 135.932 71.3972 136.403 72.3972 137.347C73.3866 138.279 73.8812 139.546 73.8812 141.147V147.236C73.8812 148.868 73.3866 150.156 72.3972 151.099C71.3972 152.043 70.0514 152.514 68.36 152.514ZM68.36 149.732C69.0514 149.732 69.5993 149.52 70.0036 149.096C70.4185 148.672 70.6259 148.105 70.6259 147.395V141.051C70.6259 140.352 70.4185 139.79 70.0036 139.366C69.5993 138.942 69.0514 138.73 68.36 138.73C67.6791 138.73 67.1366 138.942 66.7323 139.366C66.3174 139.79 66.11 140.352 66.11 141.051V147.395C66.11 148.105 66.3174 148.672 66.7323 149.096C67.1366 149.52 67.6791 149.732 68.36 149.732ZM80.36 149.335C80.328 149.366 80.3227 149.398 80.344 149.43C80.3546 149.462 80.3866 149.478 80.4397 149.478H86.711C86.7855 149.478 86.8493 149.504 86.9025 149.557C86.9557 149.61 86.9823 149.674 86.9823 149.748V151.99C86.9823 152.064 86.9557 152.128 86.9025 152.181C86.8493 152.234 86.7855 152.26 86.711 152.26H76.2908C76.2163 152.26 76.1525 152.234 76.0993 152.181C76.0461 152.128 76.0195 152.064 76.0195 151.99V149.859C76.0195 149.722 76.0621 149.605 76.1472 149.51C76.9131 148.778 77.6844 147.978 78.461 147.109C79.2483 146.24 79.7429 145.699 79.9451 145.487C80.3812 144.978 80.8227 144.491 81.2695 144.024C82.6738 142.477 83.3759 141.327 83.3759 140.574C83.3759 140.034 83.1844 139.588 82.8014 139.239C82.4078 138.899 81.9025 138.73 81.2855 138.73C80.6685 138.73 80.1685 138.899 79.7855 139.239C79.4025 139.588 79.211 140.05 79.211 140.622V141.194C79.211 141.268 79.1844 141.332 79.1312 141.385C79.078 141.438 79.0089 141.465 78.9238 141.465H76.1951C76.1206 141.465 76.0568 141.438 76.0036 141.385C75.9504 141.332 75.9238 141.268 75.9238 141.194V140.113C75.9663 139.286 76.227 138.55 76.7057 137.903C77.1844 137.267 77.8227 136.78 78.6206 136.44C79.4185 136.101 80.3068 135.932 81.2855 135.932C82.3812 135.932 83.3334 136.138 84.1419 136.552C84.961 136.954 85.5887 137.5 86.0248 138.189C86.461 138.889 86.6791 139.657 86.6791 140.495C86.6791 141.141 86.5195 141.804 86.2004 142.482C85.8706 143.16 85.3812 143.892 84.7323 144.676C84.2536 145.27 83.7376 145.863 83.1844 146.457C82.6312 147.04 81.8068 147.883 80.711 148.985L80.36 149.335ZM99.2855 144.899C99.5195 145.651 99.6366 146.383 99.6366 147.093C99.6366 147.877 99.5142 148.587 99.2695 149.223C98.9185 150.199 98.2961 150.978 97.4025 151.561C96.4982 152.133 95.4451 152.419 94.2429 152.419C93.0727 152.419 92.0461 152.138 91.1631 151.576C90.2695 151.015 89.6419 150.252 89.2802 149.287C89.1206 148.884 89.0036 148.46 88.9291 148.015V147.967C88.9291 147.798 89.0195 147.713 89.2004 147.713H92.0089C92.1578 147.713 92.2589 147.798 92.3121 147.967C92.3227 148.063 92.344 148.142 92.3759 148.206C92.4078 148.269 92.4291 148.322 92.4397 148.365C92.5993 148.768 92.8334 149.075 93.1419 149.287C93.4504 149.499 93.8121 149.605 94.227 149.605C94.6631 149.605 95.0408 149.488 95.36 149.255C95.6791 149.033 95.9185 148.715 96.078 148.301C96.227 147.994 96.3014 147.591 96.3014 147.093C96.3014 146.648 96.2323 146.25 96.094 145.9C95.9876 145.498 95.7748 145.19 95.4557 144.978C95.1259 144.756 94.7483 144.644 94.3227 144.644C93.8866 144.644 93.4823 144.745 93.11 144.946C92.7483 145.148 92.5036 145.413 92.3759 145.741C92.3334 145.89 92.2323 145.964 92.0727 145.964H89.2323C89.1472 145.964 89.078 145.938 89.0248 145.885C88.9717 145.832 88.9451 145.768 88.9451 145.694V136.393C88.9451 136.319 88.9717 136.255 89.0248 136.202C89.078 136.149 89.1472 136.122 89.2323 136.122H98.7908C98.8653 136.122 98.9291 136.149 98.9823 136.202C99.0355 136.255 99.0621 136.319 99.0621 136.393V138.635C99.0621 138.709 99.0355 138.772 98.9823 138.825C98.9291 138.878 98.8653 138.905 98.7908 138.905H92.328C92.2536 138.905 92.2163 138.947 92.2163 139.032L92.1844 142.434C92.1844 142.54 92.2323 142.567 92.328 142.514C93.0195 142.069 93.8227 141.846 94.7376 141.846C95.8121 141.846 96.7536 142.116 97.5621 142.657C98.3812 143.208 98.9557 143.955 99.2855 144.899Z" fill="#252530"/>
</g>
<defs>
<clipPath id="clip0_51_1517">
<rect width="150" height="193.97" fill="white" transform="translate(0.189453 0.740234)"/>
</clipPath>
</defs>
</svg>
