<svg width="33" height="32" viewBox="0 0 33 32" fill="none" xmlns="http://www.w3.org/2000/svg">
<g clip-path="url(#clip0_469_2071)">
<path d="M24.3348 2.47327C26.995 2.47346 29.1542 4.54406 29.1544 7.09518V18.5405C29.1544 18.9053 28.8418 19.2057 28.4614 19.2058C28.081 19.2058 27.7676 18.9053 27.7676 18.5405V7.09518C27.7674 5.28369 26.2237 3.80331 24.3348 3.80311H5.76344C3.87447 3.80331 2.33078 5.28369 2.33057 7.09518V24.9048C2.33078 26.7163 3.87447 28.1967 5.76344 28.1969H27.471C27.8515 28.1969 28.1648 28.4973 28.1648 28.8622C28.1647 29.227 27.8514 29.5267 27.471 29.5267H5.76344C3.10321 29.5265 0.944052 27.4559 0.943848 24.9048V7.09518C0.944052 4.54406 3.10321 2.47346 5.76344 2.47327H24.3348Z" fill="white"/>
<path d="M27.1571 21.2712C27.5376 21.2712 27.8509 21.5717 27.8509 21.9365V23.6443L28.6822 24.4415C28.9523 24.7006 28.9524 25.1183 28.6822 25.3774C28.5448 25.5092 28.3756 25.5692 28.1894 25.5693C28.0109 25.5693 27.8351 25.5041 27.6896 25.3715L26.6643 24.3882C26.5341 24.2634 26.4642 24.0991 26.4642 23.9148V21.9365C26.4642 21.5717 26.7767 21.2713 27.1571 21.2712Z" fill="white"/>
<path fill-rule="evenodd" clip-rule="evenodd" d="M27.0919 18.3038C28.8802 18.3038 30.483 19.0758 31.5571 20.2909C32.4218 21.269 32.9438 22.5342 32.9438 23.9148C32.9438 27.0104 30.3199 29.5267 27.0919 29.5267C23.8641 29.5266 21.2409 27.0103 21.2409 23.9148C21.241 20.8194 23.8642 18.3039 27.0919 18.3038ZM27.0919 19.6328C24.6251 19.6329 22.6269 21.5492 22.6267 23.9148C22.6267 26.2806 24.625 28.1967 27.0919 28.1969C29.5589 28.1969 31.5571 26.2806 31.5571 23.9148C31.557 21.5491 29.5589 19.6328 27.0919 19.6328Z" fill="white"/>
<path d="M14.0177 23.2503C14.3979 23.2504 14.7104 23.5501 14.7106 23.9148C14.7106 24.2796 14.398 24.58 14.0177 24.5802H6.79577C6.4153 24.5802 6.10196 24.2797 6.10196 23.9148C6.1021 23.5501 6.41538 23.2503 6.79577 23.2503H14.0177Z" fill="white"/>
<path d="M19.1758 15.3355C19.5562 15.3355 19.8687 15.6351 19.8687 16C19.8687 16.3649 19.5562 16.6645 19.1758 16.6645H6.79577C6.4153 16.6645 6.10196 16.3649 6.10196 16C6.10196 15.6351 6.4153 15.3355 6.79577 15.3355H19.1758Z" fill="white"/>
<path d="M23.3024 7.41982C23.6829 7.41982 23.9962 7.7203 23.9962 8.08517C23.9961 8.44992 23.6828 8.74967 23.3024 8.74967H6.79577C6.41538 8.74967 6.1021 8.44992 6.10196 8.08517C6.10196 7.7203 6.4153 7.41982 6.79577 7.41982H23.3024Z" fill="white"/>
</g>
<defs>
<clipPath id="clip0_469_2071">
<rect width="32" height="32" fill="white" transform="translate(0.943848)"/>
</clipPath>
</defs>
</svg>
