<svg width="33" height="32" viewBox="0 0 33 32" fill="none" xmlns="http://www.w3.org/2000/svg">
<path fill-rule="evenodd" clip-rule="evenodd" d="M15.9849 0C17.5083 3.38276e-08 18.9775 0.563809 20.1097 1.58299C21.2241 2.58624 21.9328 3.96075 22.107 5.44841C22.551 5.61351 22.9368 5.90597 23.2139 6.29155C23.5052 6.69686 23.6625 7.18346 23.663 7.68256V9.19482C23.6623 9.68757 23.5096 10.1689 23.2252 10.5712C22.9566 10.9511 22.5823 11.2418 22.1507 11.4121V12.1587C22.1524 12.7808 22.0126 13.3954 21.7432 13.9561C21.5075 14.4467 21.1781 14.8859 20.7732 15.2472L20.5947 15.3966L20.213 15.7042L21.1987 17.6745L23.1387 18.9678L24.6689 19.3114C26.3105 19.6844 27.7786 20.6027 28.8319 21.916C29.8851 23.2294 30.4624 24.8613 30.4699 26.5449V28.1043C30.4684 29.1368 30.0581 30.1269 29.3281 30.8571C28.5977 31.5874 27.607 31.9987 26.5741 32H5.39573C4.36288 31.9987 3.37215 31.5874 2.64177 30.8571C1.91179 30.1269 1.50144 29.1368 1.5 28.1043V26.5449C1.50749 24.8608 2.0853 23.2285 3.13913 21.9149C4.19303 20.6014 5.66082 19.6838 7.30318 19.3114L8.83003 18.9678L10.7689 17.6734L11.7558 15.7042L11.3752 15.3966C10.8886 15.0093 10.4961 14.5167 10.2267 13.9561C9.95722 13.3954 9.81744 12.7808 9.81912 12.1587V11.4121C9.38753 11.2418 9.01328 10.9511 8.74471 10.5712C8.46026 10.1689 8.30752 9.68757 8.30686 9.19482V7.68256C8.30739 7.18346 8.4647 6.69686 8.75594 6.29155C9.03289 5.90626 9.41814 5.61357 9.86179 5.44841C10.0359 3.9607 10.7458 2.58627 11.8602 1.58299C12.9924 0.563808 14.4616 0 15.9849 0ZM21.1661 23.7954C21.0134 24.0257 20.8104 24.2191 20.5734 24.3612C20.3364 24.5032 20.0704 24.5899 19.7953 24.6161C19.7338 24.6225 19.672 24.6273 19.6101 24.6273C19.3654 24.6276 19.1232 24.5785 18.8972 24.4847C18.6713 24.391 18.4657 24.2538 18.2932 24.0806L15.9849 21.7723L13.6778 24.0806C13.5053 24.2539 13.2997 24.391 13.0738 24.4847C12.8478 24.5785 12.6055 24.6276 12.3609 24.6273C12.2988 24.6273 12.2362 24.6236 12.1745 24.6172C11.8998 24.591 11.6344 24.5031 11.3976 24.3612C11.1605 24.2191 10.9576 24.0258 10.8048 23.7954L8.784 20.7641L7.68152 21.0122C6.42484 21.2966 5.30161 21.9989 4.49533 23.0039C3.73961 23.946 3.30379 25.1023 3.24803 26.3046L3.24241 26.546V28.1031C3.24249 28.6743 3.46947 29.2227 3.87336 29.6266C4.27719 30.0303 4.82472 30.2575 5.39573 30.2576H26.5741C27.1451 30.2575 27.6927 30.0303 28.0965 29.6266C28.5004 29.2227 28.7274 28.6743 28.7274 28.1031V26.546C28.7226 25.2582 28.2811 24.0098 27.4756 23.005C26.6701 22.0003 25.5476 21.2982 24.2917 21.0134L23.1847 20.7641L21.1661 23.7954ZM19.0622 24.4241C19.0722 24.4274 19.0825 24.43 19.0925 24.4331C19.0414 24.4172 18.9906 24.3998 18.941 24.3792L19.0622 24.4241ZM13.03 24.3792L13.1468 24.3253C13.1548 24.3212 13.1623 24.316 13.1704 24.3118C13.1244 24.3359 13.078 24.3593 13.03 24.3792ZM27.5655 22.9332C27.6168 22.9972 27.6663 23.0626 27.7148 23.1285C27.8117 23.2604 27.9026 23.396 27.9876 23.5349C28.03 23.6043 28.0717 23.674 28.1111 23.7449C28.19 23.8868 28.2634 24.0316 28.33 24.1793C28.1303 23.7362 27.8736 23.3175 27.5655 22.9332ZM3.87673 23.7134C3.9908 23.5113 4.11779 23.3157 4.2562 23.1274L4.40552 22.932C4.20736 23.1791 4.03069 23.4405 3.87673 23.7134ZM20.5767 19.354C19.6736 20.0256 18.6769 20.5599 17.6184 20.9415L19.5248 22.8478C19.5374 22.8604 19.5529 22.871 19.5697 22.877C19.5866 22.883 19.6057 22.8856 19.6236 22.8838L19.6247 22.8826C19.6425 22.8811 19.661 22.8761 19.6763 22.8669C19.6915 22.8578 19.7048 22.8448 19.7145 22.8299L21.5838 20.0254L20.5767 19.354ZM10.385 20.0254L12.2554 22.8288C12.2651 22.8436 12.2783 22.8578 12.2935 22.8669C12.3089 22.8761 12.3273 22.8811 12.3452 22.8826C12.3633 22.8843 12.3819 22.882 12.3991 22.8759C12.4161 22.8698 12.4321 22.8605 12.4451 22.8478L14.3503 20.9415C13.292 20.5598 12.2951 20.0257 11.392 19.354L10.385 20.0254ZM2.87193 22.4695C2.81198 22.5582 2.75377 22.6479 2.69791 22.7389C2.80416 22.5659 2.9183 22.3971 3.03921 22.2326L2.87193 22.4695ZM20.2096 19.4787L20.5745 19.2148C20.4545 19.3054 20.3329 19.393 20.2096 19.4787ZM6.74857 19.5786C6.64548 19.611 6.54338 19.6461 6.44208 19.683C6.63383 19.6132 6.82903 19.5515 7.027 19.4977L6.74857 19.5786ZM12.5383 18.036C13.5794 18.7767 14.7472 19.3206 15.9849 19.6392C17.2224 19.3207 18.3895 18.7764 19.4305 18.036L18.8186 16.8156L18.5884 17.0009C18.08 17.4071 17.4486 17.6301 16.7978 17.6318H15.1721C14.5214 17.6302 13.8896 17.4073 13.3814 17.0009L13.1501 16.8145L12.5383 18.036ZM13.6172 17.0323C13.6212 17.0351 13.6255 17.0374 13.6295 17.0402C13.5694 16.9994 13.5103 16.9567 13.4533 16.9111L13.6172 17.0323ZM15.9849 1.7469C14.8119 1.7469 13.6866 2.213 12.8571 3.04249C12.0279 3.87194 11.5615 4.9974 11.5615 6.1703C11.5613 6.40101 11.4698 6.62233 11.3067 6.78553C11.1433 6.94884 10.9213 7.0415 10.6903 7.0415C10.5203 7.04157 10.357 7.10877 10.2368 7.22899C10.1167 7.34925 10.0493 7.51259 10.0493 7.68256V9.19482C10.0493 9.36468 10.1167 9.5282 10.2368 9.64839C10.357 9.76853 10.5204 9.83694 10.6903 9.837C10.9214 9.837 11.1433 9.92845 11.3067 10.0919C11.47 10.2552 11.5615 10.4772 11.5615 10.7082V12.1598C11.5606 12.52 11.6414 12.8759 11.7973 13.2006C11.9143 13.4441 12.0719 13.6661 12.2621 13.8562L12.4631 14.0359L14.4704 15.6413C14.6698 15.8 14.9172 15.8867 15.1721 15.8872H16.7978C16.9895 15.8868 17.1773 15.8384 17.3434 15.7468L17.5017 15.6402L19.5057 14.0359L19.7066 13.8562C19.897 13.6662 20.0554 13.4453 20.1726 13.2017C20.3287 12.8769 20.4093 12.5202 20.4083 12.1598V10.7082C20.4083 10.4772 20.4999 10.2552 20.6632 10.0919C20.8266 9.92845 21.0484 9.837 21.2795 9.837C21.4495 9.83694 21.6129 9.76853 21.7331 9.64839C21.8531 9.5282 21.9205 9.36468 21.9206 9.19482V7.68256C21.9206 7.51259 21.8532 7.34925 21.7331 7.22899C21.6129 7.10877 21.4495 7.04157 21.2795 7.0415C21.0485 7.0415 20.8266 6.94884 20.6632 6.78553C20.5001 6.62233 20.4085 6.40101 20.4083 6.1703C20.4083 4.9974 19.942 3.87194 19.1127 3.04249C18.2833 2.213 17.158 1.7469 15.9849 1.7469ZM11.2259 10.1727L11.1405 10.0997C11.1342 10.095 11.1268 10.0918 11.1203 10.0874C11.1573 10.113 11.1936 10.1404 11.2259 10.1727ZM21.0247 9.9953C21.0171 9.998 21.0097 10.0013 21.0022 10.0043C21.044 9.98783 21.0871 9.97493 21.1313 9.96611L21.0247 9.9953ZM23.5215 7.34463C23.5384 7.45594 23.5484 7.56898 23.5485 7.68256L23.5429 7.52651C23.5386 7.46545 23.5307 7.40491 23.5215 7.34463ZM10.1559 7.14704C10.1205 7.18247 10.089 7.2216 10.0616 7.26267L10.1559 7.14704ZM11.447 6.16918C11.447 6.26554 11.4268 6.35972 11.392 6.4476C11.4086 6.40563 11.4235 6.36293 11.4324 6.31849L11.447 6.16918ZM20.5228 6.1703C20.5229 6.22041 20.5277 6.27007 20.5374 6.31849C20.5463 6.3628 20.5602 6.40575 20.5767 6.4476C20.542 6.35983 20.5228 6.26652 20.5228 6.1703ZM15.5359 1.65372C15.5276 1.65454 15.5194 1.6551 15.5112 1.65597C15.5939 1.64728 15.677 1.64101 15.7604 1.63688L15.5359 1.65372Z" fill="white"/>
<path d="M26.5819 0.671517C27.0281 -0.253707 28.3927 -0.222775 28.7779 0.763891L29.0535 1.47027L29.8111 1.51452C30.9025 1.57789 31.3484 2.94862 30.5027 3.64143L29.9151 4.12193L30.1076 4.85626C30.3843 5.9136 29.2191 6.76031 28.299 6.17044L27.6601 5.76058L27.0213 6.17044C26.1012 6.76031 24.9359 5.91361 25.2126 4.85626L25.4051 4.12193L24.8175 3.64143C23.9719 2.94863 24.4177 1.57789 25.5091 1.51452L26.266 1.47027L26.5423 0.763891L26.5819 0.671517ZM27.6524 1.19704L27.1004 2.61213C27.0992 2.61482 27.0964 2.61662 27.0935 2.61679L25.5782 2.7045C25.571 2.70492 25.568 2.71467 25.5736 2.71925L26.748 3.68102C26.7504 3.683 26.7511 3.68659 26.7504 3.68956L26.3661 5.15822C26.3644 5.16512 26.3717 5.17055 26.3778 5.16676L27.6555 4.34704C27.6581 4.34536 27.6622 4.34536 27.6648 4.34704L28.9363 5.1621L28.9425 5.16676C28.9453 5.16856 28.9486 5.1683 28.951 5.16676L28.9541 5.15822L28.5699 3.68956C28.5691 3.68659 28.5699 3.683 28.5722 3.68102L29.7405 2.72391L29.7467 2.71925C29.7523 2.71467 29.7492 2.70492 29.742 2.7045L28.2268 2.61679C28.2238 2.61662 28.221 2.61482 28.2198 2.61213L27.6679 1.19704C27.6652 1.19051 27.6551 1.19051 27.6524 1.19704Z" fill="white"/>
</svg>
