<svg width="33" height="32" viewBox="0 0 33 32" fill="none" xmlns="http://www.w3.org/2000/svg">
<g clip-path="url(#clip0_469_2079)">
<path fill-rule="evenodd" clip-rule="evenodd" d="M25.731 5.72415C26.3108 5.72492 26.8671 5.95568 27.2771 6.36556C27.6872 6.77567 27.9178 7.33268 27.9185 7.91265V13.4432C32.4712 14.6049 34.3231 20.5079 31.1024 24.0375L31.1034 24.0385C30.4339 24.7944 29.6011 25.3881 28.668 25.7737C27.7385 26.1577 26.7338 26.3244 25.73 26.2636L2.91042 26.2646C2.33054 26.264 1.77446 26.0331 1.3643 25.6232C0.954147 25.213 0.722581 24.6562 0.721924 24.0761V7.91265C0.722645 7.33257 0.954053 6.77568 1.3643 6.36556C1.77447 5.95564 2.33054 5.72476 2.91042 5.72415H25.731ZM2.52944 26.0293C2.59027 26.0412 2.65164 26.051 2.71366 26.0572L2.91042 26.0669C2.78155 26.0667 2.6541 26.0537 2.52944 26.0293ZM25.5921 24.8998C25.7124 24.9142 25.8331 24.9267 25.9548 24.9326L25.9538 24.9316C25.8325 24.9257 25.712 24.9141 25.5921 24.8998ZM26.2065 21.5654C25.5077 21.5656 24.8212 21.7515 24.2177 22.1037C23.6586 22.4299 23.1895 22.8893 22.85 23.4385C23.7661 24.2743 24.9627 24.7405 26.2065 24.7407C27.4507 24.7405 28.6467 24.2737 29.563 23.4376C29.2233 22.8887 28.7553 22.4296 28.1963 22.1037C27.5925 21.7516 26.9055 21.5653 26.2065 21.5654ZM2.24683 24.0761C2.24695 24.2522 2.31724 24.4213 2.44167 24.5458C2.56616 24.6702 2.7354 24.7405 2.91139 24.7407H22.0205C17.3646 20.8946 20.1555 13.0284 26.3946 13.2204V10.0076L15.1733 16.4303C14.9196 16.5745 14.6318 16.6502 14.34 16.6502C14.0481 16.6502 13.7604 16.5746 13.5067 16.4303L2.24683 10.0057V24.0761ZM22.7834 23.6459C22.8843 23.7348 22.9891 23.8183 23.0959 23.8986C22.9849 23.8152 22.8764 23.728 22.7718 23.6353L22.7834 23.6459ZM29.3431 22.8029C29.4622 22.9406 29.5726 23.0861 29.673 23.2389L29.5158 23.0151C29.4608 22.9423 29.4027 22.8719 29.3431 22.8029ZM31.1902 19.4387C30.6464 13.1041 21.4693 13.204 21.2026 19.7454C21.2039 20.6045 21.43 21.4463 21.8527 22.1905C22.3806 21.4934 23.0682 20.933 23.8579 20.5575C23.4542 20.151 23.1606 19.6459 23.0101 19.0895C22.8325 18.4329 22.8614 17.7374 23.093 17.0978C23.3247 16.4582 23.7476 15.9047 24.3045 15.514C24.8613 15.1235 25.5254 14.9143 26.2055 14.9141C26.8857 14.914 27.5496 15.1236 28.1066 15.514C28.6636 15.9046 29.0872 16.4573 29.319 17.0968C29.5508 17.7363 29.5802 18.4319 29.4029 19.0886C29.2525 19.6452 28.9579 20.1499 28.5541 20.5566C29.3436 20.9316 30.0313 21.4912 30.5594 22.1876C30.9815 21.4439 31.208 20.6037 31.2095 19.7454L31.1902 19.4387ZM25.9326 21.3774C25.8412 21.3834 25.7501 21.3923 25.6596 21.4044C25.8403 21.3803 26.023 21.3687 26.2065 21.3687C26.115 21.3687 26.0236 21.3713 25.9326 21.3774ZM26.2055 16.4718C25.7366 16.472 25.286 16.6562 24.9517 16.9849C24.6173 17.3137 24.4253 17.7613 24.4173 18.2301C24.4269 18.6966 24.619 19.1412 24.9517 19.4686C25.286 19.7974 25.7366 19.9816 26.2055 19.9817C26.6746 19.9817 27.1249 19.7975 27.4594 19.4686C27.7924 19.1412 27.9842 18.6968 27.9938 18.2301C27.9857 17.7613 27.7938 17.3137 27.4594 16.9849C27.125 16.6564 26.6744 16.4718 26.2055 16.4718ZM25.1147 19.8534C25.138 19.8688 25.163 19.8815 25.187 19.8959C25.1559 19.8773 25.1245 19.8593 25.0944 19.839L25.1147 19.8534ZM27.3176 19.839C27.2913 19.8568 27.2637 19.8726 27.2366 19.8891C27.2567 19.8769 27.2777 19.8663 27.2974 19.8534L27.3176 19.839ZM24.8137 19.6104C24.8599 19.6558 24.9085 19.6983 24.9584 19.7386L24.8137 19.6104ZM27.5983 19.6104L27.4536 19.7386C27.4287 19.7588 27.4022 19.7767 27.3765 19.7956C27.4539 19.7389 27.5291 19.6784 27.5983 19.6104ZM29.1338 17.1643L29.0557 16.9705C29.0517 16.9614 29.0473 16.9525 29.0432 16.9435C29.0759 17.0158 29.1066 17.0893 29.1338 17.1643ZM25.2796 16.5036C25.1667 16.5631 25.0596 16.634 24.9594 16.7149C25.11 16.5933 25.2769 16.4952 25.4542 16.4226L25.2796 16.5036ZM13.7343 16.3242C13.7434 16.3283 13.7531 16.331 13.7623 16.3349C13.7087 16.3123 13.6559 16.2875 13.605 16.2587L13.7343 16.3242ZM14.1645 15.2787C14.191 15.2938 14.2191 15.3056 14.2484 15.3134C14.2191 15.3056 14.19 15.2929 14.1635 15.2777L14.1645 15.2787ZM2.78118 7.2616C2.65353 7.28714 2.53511 7.34957 2.44167 7.44293C2.31715 7.56745 2.24701 7.73656 2.24683 7.91265V8.2512L14.2619 15.107L14.2995 15.1215C14.3123 15.1248 14.3257 15.1272 14.339 15.1273C14.366 15.1272 14.3928 15.1204 14.4162 15.107L26.3946 8.25023V7.91265C26.3944 7.73656 26.3243 7.56745 26.1998 7.44293C26.0752 7.31854 25.9061 7.24821 25.73 7.2481H2.91139L2.78118 7.2616ZM25.7329 14.5852C25.6543 14.5919 25.5758 14.6002 25.4976 14.6103L25.7329 14.5852C25.8116 14.5785 25.8913 14.5731 25.9702 14.5698L25.7329 14.5852ZM28.5368 13.8464C28.9285 13.9967 29.2957 14.1851 29.6363 14.4058L29.2872 14.1955C29.1678 14.1294 29.0457 14.0668 28.9207 14.0084C28.7955 13.95 28.6675 13.8965 28.5368 13.8464ZM1.50319 6.50541C1.45662 6.55198 1.41244 6.60057 1.37105 6.65106C1.33141 6.6994 1.29485 6.74996 1.26013 6.80152C1.33118 6.69606 1.41195 6.59663 1.50319 6.50541ZM2.71366 5.93249C2.58387 5.94552 2.45633 5.97107 2.33267 6.00869C2.51853 5.95213 2.71358 5.92205 2.91139 5.92188C2.84537 5.92195 2.77878 5.92595 2.71366 5.93249Z" fill="white"/>
</g>
<defs>
<clipPath id="clip0_469_2079">
<rect width="32" height="32" fill="white" transform="translate(0.721924)"/>
</clipPath>
</defs>
</svg>
