<svg width="33" height="32" viewBox="0 0 33 32" fill="none" xmlns="http://www.w3.org/2000/svg">
<g clip-path="url(#clip0_469_2081)">
<path fill-rule="evenodd" clip-rule="evenodd" d="M28.2411 9.02807C28.6857 9.02834 29.0496 9.39219 29.0498 9.83682V27.6862H31.4132C31.8578 27.6865 32.2217 28.0504 32.2219 28.495C32.2217 28.9396 31.8578 29.3025 31.4132 29.3027H1.03067C0.585822 29.3027 0.222173 28.9398 0.221924 28.495C0.222187 28.0502 0.585813 27.6862 1.03067 27.6862H3.39402V18.6839C3.39428 18.2391 3.75791 17.8751 4.20276 17.8751H11.4058V14.2579C11.4062 13.8133 11.7689 13.4502 12.2136 13.4501H19.4166V9.83682C19.4169 9.39215 19.7797 9.02825 20.2244 9.02807H28.2411ZM5.01446 19.4976V27.6921H11.4088V19.4976H5.01446ZM13.0253 15.0696V27.6902H19.4196V15.0696H13.0253ZM21.0361 10.6485V27.6902H27.4363V10.6485H21.0361Z" fill="white"/>
<path d="M14.8511 3.30003C14.9685 2.86676 15.4103 2.6088 15.8416 2.72516L18.7543 3.50246C19.1865 3.6196 19.4419 4.06002 19.3292 4.49202L18.5519 7.40567C18.4557 7.76482 18.1266 8.00292 17.7716 8.00314C17.7028 8.00312 17.631 7.9953 17.5643 7.97562L17.5623 7.97464L17.4827 7.94909C17.0974 7.80252 16.8772 7.38968 16.9864 6.98508L17.2626 5.95523L7.33849 11.698L7.23826 11.7462C7.13807 11.7872 7.03458 11.807 6.93265 11.8071H6.81571C6.58066 11.772 6.36451 11.634 6.23593 11.4121C6.01348 11.0284 6.143 10.5307 6.53073 10.3085L16.4558 4.56572L15.4269 4.28959C14.9931 4.17245 14.7345 3.73165 14.8511 3.30003Z" fill="white"/>
</g>
<defs>
<clipPath id="clip0_469_2081">
<rect width="32" height="32" fill="white" transform="translate(0.221924)"/>
</clipPath>
</defs>
</svg>
