<?xml version="1.0" encoding="utf-8"?>
<!-- Generator: Adobe Illustrator 24.3.0, SVG Export Plug-In . SVG Version: 6.00 Build 0)  -->
<svg version="1.1" id="Layer_1" xmlns="http://www.w3.org/2000/svg" xmlns:xlink="http://www.w3.org/1999/xlink" x="0px" y="0px"
	 width="731.1px" height="769.4px" viewBox="0 0 731.1 769.4" style="enable-background:new 0 0 731.1 769.4;" xml:space="preserve"
	>
<style type="text/css">
	.st0{fill:none;stroke:#CCCCCC;stroke-width:10;stroke-miterlimit:10;}
	.st1{fill:#1B172F;}
	.st2{fill:url(#SVGID_1_);}
	.st3{fill:url(#SVGID_2_);}
	.st4{fill:url(#SVGID_3_);}
	.st5{fill:url(#SVGID_4_);}
	.st6{fill:#1F1B44;}
	.st7{fill:#13092D;}
	.st8{fill:#FFFFFF;}
</style>
<g>
	<path class="st0" d="M653.3,764.4H77.8C37.7,764.4,5,731.9,5,691.6V77.8C5,37.7,37.5,5,77.8,5h575.6c40.1,0,72.8,32.5,72.8,72.8
		v613.9C726.1,731.9,693.4,764.4,653.3,764.4z"/>
	<g>
		<path class="st1" d="M512.3,186.7l-34.7,57.7c-9.1-3-16.6-8-26-9.4l35.9-59.8C494.3,181.5,503.2,185.5,512.3,186.7L512.3,186.7z"
			/>
		<path class="st1" d="M280,235c-9.4,1.4-17.4,6.8-26.3,9.6l-34.9-58.1c9.4-1.2,18.1-5.2,25.1-11.5L280,235z"/>
		
			<linearGradient id="SVGID_1_" gradientUnits="userSpaceOnUse" x1="303.4173" y1="-183.0831" x2="430.2643" y2="-183.0831" gradientTransform="matrix(1 0 0 1 0 804)">
			<stop  offset="0" style="stop-color:#836AFC"/>
			<stop  offset="1" style="stop-color:#5D51AF"/>
		</linearGradient>
		<path class="st2" d="M331.3,583.6h71c15.5,0,27.9,12.4,27.9,27.9v18.8c0,15.5-12.4,27.9-27.9,27.9h-71
			c-15.5,0-27.9-12.4-27.9-27.9v-18.8C303.2,596.1,315.8,583.6,331.3,583.6z"/>
		<path class="st1" d="M560.2,500.6v33.1c0,40.6-32.8,73.4-73.4,73.4h-43.1c0.2,1.4,0.2,2.8,0.2,4.2v18.8c0,1.4,0,2.8-0.2,4.5h43.1
			c55.6,0,100.8-45.3,100.8-100.8v-72.9C580.3,475.3,571.2,488.7,560.2,500.6z"/>
		
			<linearGradient id="SVGID_2_" gradientUnits="userSpaceOnUse" x1="140.0009" y1="-418.2481" x2="591.1055" y2="-418.2481" gradientTransform="matrix(1 0 0 1 0 804)">
			<stop  offset="0" style="stop-color:#836AFC"/>
			<stop  offset="1" style="stop-color:#5D51AF"/>
		</linearGradient>
		<path class="st3" d="M435.7,230.3H295.4c-85.8,0-155.4,69.6-155.4,155.4s69.6,155.4,155.4,155.4h140.2
			c85.8,0,155.4-69.6,155.4-155.4C591.3,299.9,521.7,230.3,435.7,230.3z M435.7,504.6H295.4c-65.4,0-118.6-53.2-118.6-118.6
			S230,267.3,295.4,267.3h140.2c65.4,0,118.6,53.2,118.6,118.6C554.3,451.4,501.1,504.6,435.7,504.6L435.7,504.6z"/>
		
			<linearGradient id="SVGID_3_" gradientUnits="userSpaceOnUse" x1="486.6828" y1="-661.8538" x2="548.7497" y2="-661.8538" gradientTransform="matrix(1 0 0 1 0 804)">
			<stop  offset="0" style="stop-color:#836AFC"/>
			<stop  offset="1" style="stop-color:#5D51AF"/>
		</linearGradient>
		<circle class="st4" cx="517.7" cy="142.1" r="30.9"/>
		
			<linearGradient id="SVGID_4_" gradientUnits="userSpaceOnUse" x1="182.4384" y1="-661.8538" x2="244.5053" y2="-661.8538" gradientTransform="matrix(1 0 0 1 0 804)">
			<stop  offset="0" style="stop-color:#836AFC"/>
			<stop  offset="1" style="stop-color:#5D51AF"/>
		</linearGradient>
		<circle class="st5" cx="213.4" cy="142.1" r="30.9"/>
		<path class="st6" d="M295.4,513.5c-70.3,0-127.8-57.2-127.8-127.8c0-70.3,57.2-127.8,127.8-127.8h140.2
			c70.3,0,127.8,57.2,127.8,127.8c0,70.3-57.2,127.8-127.8,127.8H295.4z"/>
		<g>
			<path class="st7" d="M456.8,450H274.3c-32.4,0-58.8-26.3-58.8-58.8v-10.3c0-32.4,26.3-58.8,58.8-58.8h182.4
				c32.4,0,58.8,26.3,58.8,58.8v10.3C515.6,423.5,489.3,450,456.8,450z"/>
			<g>
				<circle class="st8" cx="290.5" cy="386" r="30.2"/>
				<circle class="st8" cx="440.6" cy="386" r="30.2"/>
			</g>
		</g>
	</g>
</g>
</svg>
