<svg
                            width="38"
                            height="38"
                            viewBox="0 0 38 38"
                            fill="none"
                            xmlns="http://www.w3.org/2000/svg"
                          >
                            <rect
                              x="0.5"
                              y="0.5"
                              width="37"
                              height="37"
                              rx="7.5"
                              fill="#221F33"
                              stroke="#363347"
                            />
                            <path
                              d="M13.8366 25.375C13.5034 25.375 13.2181 25.2564 12.9809 25.0191C12.7436 24.7819 12.625 24.4966 12.625 24.1634C12.625 23.8302 12.7436 23.5451 12.9809 23.3078C13.2181 23.0706 13.5034 22.9519 13.8366 22.9519C14.1697 22.9519 14.4549 23.0706 14.6922 23.3078C14.9294 23.5451 15.0481 23.8302 15.0481 24.1634C15.0481 24.4966 14.9294 24.7819 14.6922 25.0191C14.4549 25.2564 14.1697 25.375 13.8366 25.375ZM22.9519 25.375C22.9519 23.9365 22.6815 22.5934 22.1406 21.3456C21.5996 20.0977 20.8619 19.0066 19.9276 18.0722C18.9933 17.138 17.9022 16.4004 16.6544 15.8594C15.4065 15.3185 14.0634 15.0481 12.625 15.0481V13.375C14.2942 13.375 15.8531 13.6882 17.3016 14.3147C18.7502 14.9411 20.0197 15.7995 21.1101 16.8899C22.2005 17.9802 23.0589 19.2492 23.6852 20.6969C24.3117 22.1444 24.625 23.7037 24.625 25.375H22.9519ZM18.625 25.375C18.625 24.5375 18.4687 23.7594 18.1562 23.0406C17.8437 22.3219 17.4125 21.6875 16.8625 21.1375C16.3125 20.5875 15.6781 20.1562 14.9594 19.8437C14.2406 19.5312 13.4625 19.375 12.625 19.375V17.7019C13.6932 17.7019 14.6902 17.9021 15.616 18.3025C16.5416 18.7029 17.3537 19.2512 18.0524 19.9476C18.7487 20.6456 19.2971 21.4571 19.6975 22.3821C20.0979 23.307 20.2981 24.3046 20.2981 25.375H18.625Z"
                              fill="#9B98AE"
                            />
                          </svg>