<?xml version="1.0" encoding="utf-8"?>
<!-- Generator: Adobe Illustrator 24.3.0, SVG Export Plug-In . SVG Version: 6.00 Build 0)  -->
<svg version="1.1" id="Layer_1" xmlns="http://www.w3.org/2000/svg" xmlns:xlink="http://www.w3.org/1999/xlink" x="0px" y="0px"
	 width="731.1px" height="769.4px" viewBox="0 0 731.1 769.4" style="enable-background:new 0 0 731.1 769.4;" xml:space="preserve"
	>
<style type="text/css">
	.st0{fill:#1B172F;}
	.st1{fill:url(#SVGID_1_);}
	.st2{fill:url(#SVGID_2_);}
	.st3{fill:url(#SVGID_3_);}
	.st4{fill:url(#SVGID_4_);}
	.st5{fill:#1F1B44;}
	.st6{fill:#13092D;}
	.st7{fill:#FFFFFF;}
</style>
<g>
	<path class="st0" d="M562.7,118.8l-46.6,77.5c-12.2-4-22.3-10.7-34.9-12.6l48.2-80.3C538.5,111.8,550.5,117.2,562.7,118.8
		L562.7,118.8z"/>
	<path class="st0" d="M250.7,183.6c-12.6,1.9-23.4,9.1-35.3,12.9l-46.9-78c12.6-1.6,24.3-7,33.7-15.4L250.7,183.6z"/>
	
		<linearGradient id="SVGID_1_" gradientUnits="userSpaceOnUse" x1="282.1435" y1="871.9642" x2="452.4439" y2="871.9642" gradientTransform="matrix(1 0 0 -1 0 1573.8898)">
		<stop  offset="0" style="stop-color:#836AFC"/>
		<stop  offset="1" style="stop-color:#5D51AF"/>
	</linearGradient>
	<path class="st1" d="M319.6,651.8H415c20.8,0,37.5,16.7,37.5,37.5v25.2c0,20.8-16.7,37.5-37.5,37.5h-95.4
		c-20.8,0-37.5-16.7-37.5-37.5v-25.2C281.9,668.6,298.8,651.8,319.6,651.8z"/>
	<path class="st0" d="M627,540.4v44.5c0,54.5-44.1,98.6-98.6,98.6h-57.9c0.3,1.9,0.3,3.8,0.3,5.6v25.2c0,1.9,0,3.8-0.3,6h57.9
		c74.7,0,135.4-60.8,135.4-135.4V487C654,506.4,641.8,524.4,627,540.4z"/>
	
		<linearGradient id="SVGID_2_" gradientUnits="userSpaceOnUse" x1="62.6943" y1="1187.8467" x2="668.4057" y2="1187.8467" gradientTransform="matrix(1 0 0 -1 0 1573.8898)">
		<stop  offset="0" style="stop-color:#836AFC"/>
		<stop  offset="1" style="stop-color:#5D51AF"/>
	</linearGradient>
	<path class="st2" d="M459.8,177.3H271.4c-115.2,0-208.7,93.5-208.7,208.7s93.5,208.7,208.7,208.7h188.3
		c115.2,0,208.7-93.5,208.7-208.7C668.8,270.8,575.3,177.3,459.8,177.3z M459.8,545.7H271.4c-87.8,0-159.3-71.4-159.3-159.3
		S183.6,227,271.4,227h188.3c87.8,0,159.3,71.4,159.3,159.3C619.1,474.3,547.7,545.7,459.8,545.7L459.8,545.7z"/>
	
		<linearGradient id="SVGID_3_" gradientUnits="userSpaceOnUse" x1="528.3024" y1="1515.0107" x2="611.6606" y2="1515.0107" gradientTransform="matrix(1 0 0 -1 0 1573.8898)">
		<stop  offset="0" style="stop-color:#836AFC"/>
		<stop  offset="1" style="stop-color:#5D51AF"/>
	</linearGradient>
	<circle class="st3" cx="570" cy="58.9" r="41.5"/>
	
		<linearGradient id="SVGID_4_" gradientUnits="userSpaceOnUse" x1="119.7734" y1="1515.0107" x2="203.1316" y2="1515.0107" gradientTransform="matrix(1 0 0 -1 0 1573.8898)">
		<stop  offset="0" style="stop-color:#836AFC"/>
		<stop  offset="1" style="stop-color:#5D51AF"/>
	</linearGradient>
	<circle class="st4" cx="161.3" cy="58.9" r="41.5"/>
	<path class="st5" d="M271.4,557.7C177,557.7,99.8,480.9,99.8,386c0-94.4,76.8-171.6,171.6-171.6h188.3
		c94.4,0,171.6,76.8,171.6,171.6c0,94.4-76.8,171.6-171.6,171.6H271.4z"/>
	<g>
		<path class="st6" d="M488.2,472.4H243.1c-43.5,0-79-35.3-79-79v-13.8c0-43.5,35.3-79,79-79h245c43.5,0,79,35.3,79,79v13.8
			C567.1,436.8,531.8,472.4,488.2,472.4z"/>
		<g>
			<circle class="st7" cx="264.8" cy="386.4" r="40.6"/>
			<circle class="st7" cx="466.4" cy="386.4" r="40.6"/>
		</g>
	</g>
</g>
</svg>
