<svg
                            width="38"
                            height="38"
                            viewBox="0 0 38 38"
                            fill="none"
                            xmlns="http://www.w3.org/2000/svg"
                          >
                            <rect
                              x="0.5"
                              y="0.5"
                              width="37"
                              height="37"
                              rx="7.5"
                              fill="#221F33"
                              stroke="#363347"
                            />
                            <path
                              d="M20.4567 17.3095V16.3229C20.8644 16.1335 21.2911 15.9914 21.7368 15.8967C22.1825 15.8019 22.6453 15.7545 23.125 15.7545C23.426 15.7545 23.7183 15.776 24.0019 15.8189C24.2856 15.8616 24.5702 15.9181 24.8558 15.9884V16.9287C24.5751 16.8305 24.2959 16.7594 24.0184 16.7151C23.7411 16.6709 23.4433 16.6487 23.125 16.6487C22.6453 16.6487 22.1806 16.7057 21.7309 16.8197C21.2814 16.9337 20.8567 17.097 20.4567 17.3095ZM20.4567 21.42V20.419C20.8548 20.2296 21.2803 20.0875 21.7332 19.9928C22.1861 19.8982 22.65 19.8509 23.125 19.8509C23.426 19.8509 23.7183 19.8722 24.0019 19.915C24.2856 19.9577 24.5702 20.0142 24.8558 20.0845V21.0248C24.5751 20.9267 24.2959 20.8555 24.0184 20.8112C23.7411 20.7671 23.4433 20.745 23.125 20.745C22.6453 20.745 22.1806 20.8025 21.7309 20.9174C21.2814 21.0322 20.8567 21.1998 20.4567 21.42ZM20.4567 19.372V18.3709C20.8644 18.1815 21.2911 18.0395 21.7368 17.9447C22.1825 17.85 22.6453 17.8026 23.125 17.8026C23.426 17.8026 23.7183 17.824 24.0019 17.8669C24.2856 17.9097 24.5702 17.9662 24.8558 18.0364V18.9767C24.5751 18.8786 24.2959 18.8074 24.0184 18.7632C23.7411 18.719 23.4433 18.697 23.125 18.697C22.6453 18.697 22.1806 18.7564 21.7309 18.8751C21.2814 18.9939 20.8567 19.1595 20.4567 19.372ZM14.875 22.0142C15.4961 22.0142 16.1004 22.0847 16.6879 22.2255C17.2754 22.3664 17.8586 22.5874 18.4375 22.8884V15.5151C17.9106 15.1719 17.3404 14.9144 16.7269 14.7428C16.1134 14.5712 15.4961 14.4854 14.875 14.4854C14.425 14.4854 14.0046 14.5207 13.6137 14.5913C13.2228 14.662 12.8211 14.7777 12.4086 14.9382C12.351 14.9574 12.3101 14.9851 12.286 15.0212C12.262 15.0572 12.25 15.0969 12.25 15.1401V22.2334C12.25 22.3008 12.2741 22.3501 12.3222 22.3814C12.3702 22.4126 12.4231 22.4162 12.4808 22.392C12.8366 22.2709 13.212 22.1777 13.6071 22.1123C14.0024 22.0469 14.425 22.0142 14.875 22.0142ZM19.5625 22.8884C20.1414 22.5874 20.7246 22.3664 21.3121 22.2255C21.8996 22.0847 22.5039 22.0142 23.125 22.0142C23.575 22.0142 23.9976 22.0469 24.3929 22.1123C24.788 22.1777 25.1634 22.2709 25.5192 22.392C25.5769 22.4162 25.6298 22.4126 25.6778 22.3814C25.7259 22.3501 25.75 22.3008 25.75 22.2334V15.1401C25.75 15.0969 25.738 15.0584 25.714 15.0248C25.6899 14.9912 25.649 14.9623 25.5914 14.9382C25.1789 14.7777 24.7772 14.662 24.3863 14.5913C23.9954 14.5207 23.575 14.4854 23.125 14.4854C22.5039 14.4854 21.8866 14.5712 21.2731 14.7428C20.6596 14.9144 20.0894 15.1719 19.5625 15.5151V22.8884ZM19 24.5382C18.3953 24.092 17.7429 23.7474 17.0429 23.5041C16.3429 23.2609 15.6203 23.1392 14.875 23.1392C14.4174 23.1392 13.9679 23.1899 13.5265 23.2913C13.0851 23.3928 12.6596 23.5421 12.25 23.7392C11.9828 23.8622 11.7284 23.8427 11.4871 23.6807C11.2457 23.5187 11.125 23.2892 11.125 22.992V14.8489C11.125 14.6873 11.1666 14.5356 11.2499 14.3939C11.333 14.252 11.4529 14.1498 11.6097 14.0873C12.1173 13.8402 12.6464 13.6572 13.1969 13.5385C13.7474 13.4197 14.3068 13.3604 14.875 13.3604C15.6048 13.3604 16.3177 13.4601 17.014 13.6596C17.7101 13.8592 18.3721 14.1537 19 14.5431C19.6279 14.1537 20.2899 13.8592 20.986 13.6596C21.6823 13.4601 22.3953 13.3604 23.125 13.3604C23.6933 13.3604 24.2526 13.4197 24.8031 13.5385C25.3536 13.6572 25.8827 13.8402 26.3903 14.0873C26.5471 14.1498 26.667 14.252 26.7501 14.3939C26.8334 14.5356 26.875 14.6873 26.875 14.8489V22.992C26.875 23.2892 26.7495 23.5164 26.4985 23.6736C26.2475 23.8307 25.9836 23.8478 25.7067 23.7248C25.3019 23.5324 24.8825 23.3867 24.4484 23.2877C24.0143 23.1887 23.5731 23.1392 23.125 23.1392C22.3798 23.1392 21.6571 23.2609 20.9571 23.5041C20.2571 23.7474 19.6048 24.092 19 24.5382Z"
                              fill="#9B98AE"
                            />
                          </svg>