<svg id="my-svg" xmlns="http://www.w3.org/2000/svg" viewBox="0 0 863.2 433.08"><defs><style>.cls-1,.cls-6,.cls-9{fill:none;}.cls-1,.cls-2{stroke:#b3b3b3;stroke-miterlimit:2.18;stroke-width:1.09px;}.cls-11,.cls-13,.cls-15,.cls-2,.cls-4{fill:#fff;}.cls-11,.cls-12,.cls-15,.cls-3,.cls-4{isolation:isolate;}.cls-3,.cls-4{font-size:8.09px;}.cls-14,.cls-3{fill:#a17ac7;}.cls-15,.cls-3,.cls-4{font-family:ArialMT, Arial;}.cls-5{letter-spacing:-0.02em;}.cls-6{stroke:#fff;stroke-width:0.5px;}.cls-6,.cls-9{stroke-miterlimit:10;}.cls-7{fill:#5d51af;}.cls-8{opacity:0.5;}.cls-9{stroke:#5d51af;}.cls-10{fill:#010007;}.cls-11{font-size:6.07px;font-family:Helvetica;}.cls-15{font-size:7.08px;}</style></defs><line id="actor-man-torso0" class="cls-1" x1="7.9" y1="25.11" x2="7.9" y2="30.16"/><line id="actor-man-arms0" class="cls-1" x1="3.35" y1="27.13" x2="12.45" y2="27.13"/><line class="cls-1" x1="3.35" y1="33.96" x2="7.9" y2="30.16"/><line class="cls-1" x1="7.9" y1="30.16" x2="11.94" y2="33.96"/><circle class="cls-2" cx="7.9" cy="21.32" r="3.79"/><text class="cls-3" transform="translate(0 41.87)">User</text><text class="cls-4" transform="translate(62.66 42.13)"><tspan class="cls-5">V</tspan><tspan x="5.25" y="0">isit landing page\n</tspan><tspan x="-21.41" y="9.71">(select **Doctor-Appointment**)</tspan></text><line class="cls-6" x1="339" y1="31.01" x2="167.7" y2="31.01"/><rect class="cls-7" x="28.26" y="0.5" width="139.25" height="26.35" rx="2.53"/><g class="cls-8"><rect class="cls-7" x="97.43" y="61.52" width="0.89" height="2.13"/><rect class="cls-7" x="97.43" y="64.69" width="0.89" height="2.13"/><rect class="cls-7" x="97.43" y="67.85" width="0.89" height="2.13"/><rect class="cls-7" x="97.43" y="71.02" width="0.89" height="2.13"/><rect class="cls-7" x="97.43" y="74.19" width="0.89" height="2.13"/><rect class="cls-7" x="97.43" y="77.35" width="0.89" height="2.13"/><rect class="cls-7" x="97.43" y="80.52" width="0.89" height="2.13"/><rect class="cls-7" x="97.43" y="83.68" width="0.89" height="2.13"/><rect class="cls-7" x="97.43" y="86.85" width="0.89" height="2.13"/><rect class="cls-7" x="97.43" y="90.02" width="0.89" height="2.13"/><rect class="cls-7" x="97.43" y="93.18" width="0.89" height="2.13"/><rect class="cls-7" x="97.43" y="96.35" width="0.89" height="2.13"/><rect class="cls-7" x="97.43" y="99.52" width="0.89" height="2.13"/><rect class="cls-7" x="97.43" y="102.68" width="0.89" height="2.13"/><rect class="cls-7" x="97.43" y="105.85" width="0.89" height="2.13"/><rect class="cls-7" x="97.43" y="109.01" width="0.89" height="2.13"/><rect class="cls-7" x="97.43" y="112.18" width="0.89" height="2.13"/><rect class="cls-7" x="97.43" y="115.35" width="0.89" height="2.13"/><rect class="cls-7" x="97.43" y="118.51" width="0.89" height="2.13"/><rect class="cls-7" x="97.43" y="121.68" width="0.89" height="2.13"/><rect class="cls-7" x="97.43" y="124.84" width="0.89" height="2.13"/><rect class="cls-7" x="97.43" y="128.01" width="0.89" height="2.13"/><rect class="cls-7" x="97.43" y="131.18" width="0.89" height="2.13"/><rect class="cls-7" x="97.43" y="134.34" width="0.89" height="2.13"/><rect class="cls-7" x="97.43" y="137.51" width="0.89" height="2.13"/><rect class="cls-7" x="97.43" y="140.67" width="0.89" height="2.13"/><rect class="cls-7" x="97.43" y="143.84" width="0.89" height="2.13"/><rect class="cls-7" x="97.43" y="147.01" width="0.89" height="2.13"/><rect class="cls-7" x="97.43" y="150.17" width="0.89" height="2.13"/><rect class="cls-7" x="97.43" y="153.34" width="0.89" height="2.13"/><rect class="cls-7" x="97.43" y="156.51" width="0.89" height="2.13"/><rect class="cls-7" x="97.43" y="159.67" width="0.89" height="2.13"/><rect class="cls-7" x="97.43" y="162.84" width="0.89" height="2.13"/><rect class="cls-7" x="97.43" y="166" width="0.89" height="2.13"/><rect class="cls-7" x="97.43" y="169.17" width="0.89" height="2.13"/><rect class="cls-7" x="97.43" y="172.34" width="0.89" height="2.13"/><rect class="cls-7" x="97.43" y="175.5" width="0.89" height="2.13"/><rect class="cls-7" x="97.43" y="178.67" width="0.89" height="2.13"/><rect class="cls-7" x="97.43" y="181.84" width="0.89" height="2.13"/><rect class="cls-7" x="97.43" y="185" width="0.89" height="2.13"/><rect class="cls-7" x="97.43" y="188.17" width="0.89" height="2.13"/><rect class="cls-7" x="97.43" y="191.33" width="0.89" height="2.13"/><rect class="cls-7" x="97.43" y="258.83" width="0.89" height="2.29"/><rect class="cls-7" x="97.43" y="262.24" width="0.89" height="2.29"/><rect class="cls-7" x="97.43" y="265.65" width="0.89" height="2.29"/><rect class="cls-7" x="97.43" y="269.07" width="0.89" height="2.29"/><rect class="cls-7" x="97.43" y="272.48" width="0.89" height="2.29"/><rect class="cls-7" x="97.43" y="275.89" width="0.89" height="2.29"/><rect class="cls-7" x="97.43" y="279.3" width="0.89" height="2.29"/><rect class="cls-7" x="97.43" y="282.71" width="0.89" height="2.29"/><rect class="cls-7" x="97.43" y="286.12" width="0.89" height="2.29"/><rect class="cls-7" x="97.43" y="289.53" width="0.89" height="2.29"/><rect class="cls-7" x="97.43" y="292.94" width="0.89" height="2.29"/><rect class="cls-7" x="97.43" y="296.35" width="0.89" height="2.29"/><rect class="cls-7" x="97.43" y="299.76" width="0.89" height="2.29"/><rect class="cls-7" x="97.43" y="303.17" width="0.89" height="2.29"/><rect class="cls-7" x="97.43" y="306.58" width="0.89" height="2.29"/><rect class="cls-7" x="97.43" y="309.99" width="0.89" height="2.29"/><rect class="cls-7" x="97.43" y="313.4" width="0.89" height="2.29"/><rect class="cls-7" x="97.43" y="316.81" width="0.89" height="2.29"/><rect class="cls-7" x="97.43" y="320.22" width="0.89" height="2.29"/><rect class="cls-7" x="97.43" y="323.63" width="0.89" height="2.29"/><rect class="cls-7" x="97.43" y="327.04" width="0.89" height="2.29"/><rect class="cls-7" x="97.43" y="330.45" width="0.89" height="2.29"/><rect class="cls-7" x="97.43" y="333.86" width="0.89" height="2.29"/><rect class="cls-7" x="97.43" y="337.27" width="0.89" height="2.29"/><rect class="cls-7" x="97.43" y="340.68" width="0.89" height="2.29"/><rect class="cls-7" x="97.43" y="344.09" width="0.89" height="2.29"/><rect class="cls-7" x="97.43" y="347.51" width="0.89" height="2.29"/><rect class="cls-7" x="97.43" y="350.92" width="0.89" height="2.29"/><rect class="cls-7" x="97.43" y="354.33" width="0.89" height="2.29"/><rect class="cls-7" x="97.43" y="357.74" width="0.89" height="2.29"/><rect class="cls-7" x="97.43" y="361.15" width="0.89" height="2.29"/><rect class="cls-7" x="97.43" y="364.56" width="0.89" height="2.29"/><rect class="cls-7" x="97.43" y="367.97" width="0.89" height="2.29"/><rect class="cls-7" x="97.43" y="371.38" width="0.89" height="2.29"/><rect class="cls-7" x="97.43" y="374.79" width="0.89" height="2.29"/><rect class="cls-7" x="97.43" y="378.2" width="0.89" height="2.29"/><rect class="cls-7" x="97.43" y="381.61" width="0.89" height="2.29"/><rect class="cls-7" x="97.43" y="385.02" width="0.89" height="2.29"/><rect class="cls-7" x="97.43" y="388.43" width="0.89" height="2.29"/><rect class="cls-7" x="97.43" y="391.84" width="0.89" height="2.29"/><rect class="cls-7" x="97.43" y="395.25" width="0.89" height="2.29"/><rect class="cls-7" x="97.43" y="398.66" width="0.89" height="2.29"/></g><rect class="cls-9" x="28.26" y="0.5" width="139.25" height="61.02" rx="2.53"/><text class="cls-4" transform="translate(64.19 236.13)">POS<tspan class="cls-5" x="17.08" y="0">T</tspan><tspan x="21.87" y="0" xml:space="preserve"> /agents/start</tspan><tspan x="-23.63" y="9.71">{template: &quot;DoctorAppointment&quot;}</tspan></text><rect class="cls-7" x="28.88" y="194.5" width="139.25" height="26.35" rx="2.53"/><circle class="cls-10" cx="58.7" cy="208.67" r="5.05"/><text class="cls-11" transform="translate(56.99 210.82)">3</text><g class="cls-12"><text class="cls-4" transform="translate(69.73 210.83)">&quot;Chat-App Backend&quot;</text></g><rect class="cls-9" x="28.88" y="194.5" width="139.25" height="61.02" rx="2.53"/><text class="cls-4" transform="translate(745.16 240.13)">{agent_id, status: READY}</text><rect class="cls-7" x="722.97" y="194.5" width="139.25" height="26.35" rx="2.53"/><circle class="cls-10" cx="752.79" cy="208.67" r="5.05"/><text class="cls-11" transform="translate(751.07 210.82)">6</text><g class="cls-12"><text class="cls-4" transform="translate(763.82 210.83)">&quot;Chat-App Backend&quot;</text></g><line class="cls-6" x1="695.46" y1="364.63" x2="774.85" y2="255.85"/><rect class="cls-9" x="722.97" y="194.5" width="139.25" height="61.02" rx="2.53"/><line class="cls-6" x1="356.52" y1="402.07" x2="549.64" y2="402.07"/><polygon class="cls-13" points="350.29 401.81 357.57 405.71 357.57 398.43 350.29 401.81 350.29 401.81"/><text class="cls-4" transform="translate(585.61 417.19)">emit &quot;agentReady&quot;</text><rect class="cls-7" x="549.43" y="371.56" width="139.25" height="26.35" rx="2.53"/><circle class="cls-10" cx="564.2" cy="385.73" r="5.05"/><text class="cls-11" transform="translate(562.49 387.89)">7</text><g class="cls-12"><text class="cls-4" transform="translate(575.23 387.89)">&quot;System-Protocol\nGateway&quot;</text></g><rect class="cls-9" x="549.43" y="371.56" width="139.25" height="61.02" rx="2.53"/><text class="cls-4" transform="translate(214.4 417.19)">Agent greets user &amp; chat begins</text><rect class="cls-7" x="202.32" y="371.56" width="139.25" height="26.35" rx="2.53"/><circle class="cls-10" cx="226.76" cy="385.73" r="5.05"/><text class="cls-11" transform="translate(225.04 387.89)">8</text><g class="cls-12"><text class="cls-4" transform="translate(237.79 387.89)">&quot;Nexo Portal (browser)&quot;</text></g><rect class="cls-9" x="202.32" y="371.56" width="139.25" height="61.02" rx="2.53"/><line class="cls-6" x1="712.8" y1="68.97" x2="512.4" y2="210.83"/><g class="cls-8"><rect class="cls-7" x="445.06" y="61.52" width="0.89" height="2.35"/><rect class="cls-7" x="445.06" y="65.03" width="0.89" height="2.35"/><rect class="cls-7" x="445.06" y="68.53" width="0.89" height="2.35"/><rect class="cls-7" x="445.06" y="72.03" width="0.89" height="2.35"/><rect class="cls-7" x="445.06" y="75.54" width="0.89" height="2.35"/><rect class="cls-7" x="445.06" y="79.04" width="0.89" height="2.35"/><rect class="cls-7" x="445.06" y="82.54" width="0.89" height="2.35"/><rect class="cls-7" x="445.06" y="86.05" width="0.89" height="2.35"/><rect class="cls-7" x="445.06" y="89.55" width="0.89" height="2.35"/><rect class="cls-7" x="445.06" y="93.06" width="0.89" height="2.35"/><rect class="cls-7" x="445.06" y="96.56" width="0.89" height="2.35"/><rect class="cls-7" x="445.06" y="100.06" width="0.89" height="2.35"/><rect class="cls-7" x="445.06" y="103.57" width="0.89" height="2.35"/><rect class="cls-7" x="445.06" y="107.07" width="0.89" height="2.35"/><rect class="cls-7" x="445.06" y="110.57" width="0.89" height="2.35"/><rect class="cls-7" x="445.06" y="114.08" width="0.89" height="2.35"/><rect class="cls-7" x="445.06" y="117.58" width="0.89" height="2.35"/><rect class="cls-7" x="445.06" y="121.09" width="0.89" height="2.35"/><rect class="cls-7" x="445.06" y="124.59" width="0.89" height="2.35"/><rect class="cls-7" x="445.06" y="128.09" width="0.89" height="2.35"/><rect class="cls-7" x="445.06" y="131.6" width="0.89" height="2.35"/><rect class="cls-7" x="445.06" y="135.1" width="0.89" height="2.35"/><rect class="cls-7" x="445.06" y="138.6" width="0.89" height="2.35"/><rect class="cls-7" x="445.06" y="142.11" width="0.89" height="2.35"/><rect class="cls-7" x="445.06" y="145.61" width="0.89" height="2.35"/><rect class="cls-7" x="445.06" y="149.12" width="0.89" height="2.35"/><rect class="cls-7" x="445.06" y="152.62" width="0.89" height="2.35"/><rect class="cls-7" x="445.06" y="156.12" width="0.89" height="2.35"/><rect class="cls-7" x="445.06" y="159.63" width="0.89" height="2.35"/><rect class="cls-7" x="445.06" y="163.13" width="0.89" height="2.35"/><rect class="cls-7" x="445.06" y="166.63" width="0.89" height="2.35"/><rect class="cls-7" x="445.06" y="170.14" width="0.89" height="2.35"/><rect class="cls-7" x="445.06" y="173.64" width="0.89" height="2.35"/><rect class="cls-7" x="445.06" y="177.15" width="0.89" height="2.35"/><rect class="cls-7" x="445.06" y="180.65" width="0.89" height="2.35"/><rect class="cls-7" x="445.06" y="184.15" width="0.89" height="2.35"/><rect class="cls-7" x="445.06" y="187.66" width="0.89" height="2.35"/><rect class="cls-7" x="445.06" y="191.16" width="0.89" height="2.35"/><rect class="cls-7" x="445.06" y="194.67" width="0.89" height="2.35"/><rect class="cls-7" x="445.06" y="198.17" width="0.89" height="2.35"/><rect class="cls-7" x="445.06" y="201.67" width="0.89" height="2.35"/><rect class="cls-7" x="445.06" y="205.18" width="0.89" height="2.35"/></g><g class="cls-8"><rect class="cls-7" x="445.06" y="268.52" width="0.89" height="2.14"/><rect class="cls-7" x="445.06" y="271.7" width="0.89" height="2.14"/><rect class="cls-7" x="445.06" y="274.88" width="0.89" height="2.14"/><rect class="cls-7" x="445.06" y="278.06" width="0.89" height="2.13"/><rect class="cls-7" x="445.06" y="281.24" width="0.89" height="2.14"/><rect class="cls-7" x="445.06" y="284.42" width="0.89" height="2.13"/><rect class="cls-7" x="445.06" y="287.6" width="0.89" height="2.13"/><rect class="cls-7" x="445.06" y="290.78" width="0.89" height="2.14"/><rect class="cls-7" x="445.06" y="293.96" width="0.89" height="2.14"/><rect class="cls-7" x="445.06" y="297.14" width="0.89" height="2.14"/><rect class="cls-7" x="445.06" y="300.32" width="0.89" height="2.13"/><rect class="cls-7" x="445.06" y="303.5" width="0.89" height="2.14"/><rect class="cls-7" x="445.06" y="306.68" width="0.89" height="2.13"/><rect class="cls-7" x="445.06" y="309.86" width="0.89" height="2.13"/><rect class="cls-7" x="445.06" y="313.04" width="0.89" height="2.14"/><rect class="cls-7" x="445.06" y="316.22" width="0.89" height="2.14"/><rect class="cls-7" x="445.06" y="319.4" width="0.89" height="2.14"/><rect class="cls-7" x="445.06" y="322.58" width="0.89" height="2.13"/><rect class="cls-7" x="445.06" y="325.76" width="0.89" height="2.14"/><rect class="cls-7" x="445.06" y="328.94" width="0.89" height="2.13"/><rect class="cls-7" x="445.06" y="332.12" width="0.89" height="2.13"/><rect class="cls-7" x="445.06" y="335.3" width="0.89" height="2.14"/><rect class="cls-7" x="445.06" y="338.48" width="0.89" height="2.14"/><rect class="cls-7" x="445.06" y="341.66" width="0.89" height="2.14"/><rect class="cls-7" x="445.06" y="344.84" width="0.89" height="2.13"/><rect class="cls-7" x="445.06" y="348.02" width="0.89" height="2.14"/><rect class="cls-7" x="445.06" y="351.2" width="0.89" height="2.13"/><rect class="cls-7" x="445.06" y="354.37" width="0.89" height="2.13"/><rect class="cls-7" x="445.06" y="357.55" width="0.89" height="2.14"/><rect class="cls-7" x="445.06" y="360.73" width="0.89" height="2.14"/><rect class="cls-7" x="445.06" y="363.91" width="0.89" height="2.14"/><rect class="cls-7" x="445.06" y="367.09" width="0.89" height="2.13"/><rect class="cls-7" x="445.06" y="370.27" width="0.89" height="2.14"/><rect class="cls-7" x="445.06" y="373.45" width="0.89" height="2.13"/><rect class="cls-7" x="445.06" y="376.63" width="0.89" height="2.13"/><rect class="cls-7" x="445.06" y="379.81" width="0.89" height="2.14"/><rect class="cls-7" x="445.06" y="382.99" width="0.89" height="2.14"/><rect class="cls-7" x="445.06" y="386.17" width="0.89" height="2.14"/><rect class="cls-7" x="445.06" y="389.35" width="0.89" height="2.13"/><rect class="cls-7" x="445.06" y="392.53" width="0.89" height="2.14"/><rect class="cls-7" x="445.06" y="395.71" width="0.89" height="2.13"/><rect class="cls-7" x="445.06" y="398.89" width="0.89" height="2.13"/></g><text class="cls-4" transform="translate(412.59 249.13)">spinUp(template =<tspan x="-5.9" y="9.71">&quot;DoctorAppointment&quot;)</tspan></text><rect class="cls-7" x="375.89" y="207.5" width="139.25" height="26.35" rx="2.53"/><circle class="cls-10" cx="412.91" cy="221.67" r="5.05"/><text class="cls-11" transform="translate(411.19 223.82)">4</text><g class="cls-12"><text class="cls-4" transform="translate(423.94 223.83)">&quot;Agent Runtime&quot;</text></g><rect class="cls-9" x="375.89" y="207.5" width="139.25" height="61.02" rx="2.53"/><text class="cls-4" transform="translate(763.77 46.13)">status = READ<tspan class="cls-5" x="53.27" y="0">Y</tspan></text><rect class="cls-7" x="723.45" y="0.5" width="139.25" height="26.35" rx="2.53"/><circle class="cls-10" cx="760.47" cy="14.67" r="5.05"/><text class="cls-11" transform="translate(758.75 16.82)">5</text><g class="cls-12"><text class="cls-4" transform="translate(771.49 16.83)">&quot;Agent Runtime&quot;</text></g><line class="cls-6" x1="793.07" y1="179.72" x2="793.07" y2="61.52"/><g class="cls-8"><rect class="cls-7" x="721.21" y="30.55" width="2.23" height="0.89"/><rect class="cls-7" x="717.89" y="30.55" width="2.23" height="0.89"/><rect class="cls-7" x="714.56" y="30.55" width="2.23" height="0.89"/><rect class="cls-7" x="711.24" y="30.55" width="2.23" height="0.89"/><rect class="cls-7" x="707.91" y="30.55" width="2.23" height="0.89"/><rect class="cls-7" x="704.59" y="30.55" width="2.23" height="0.89"/><rect class="cls-7" x="701.26" y="30.55" width="2.23" height="0.89"/><rect class="cls-7" x="697.94" y="30.55" width="2.23" height="0.89"/><rect class="cls-7" x="694.61" y="30.55" width="2.23" height="0.89"/><rect class="cls-7" x="691.29" y="30.55" width="2.23" height="0.89"/><rect class="cls-7" x="687.96" y="30.55" width="2.23" height="0.89"/><rect class="cls-7" x="684.64" y="30.55" width="2.23" height="0.89"/><rect class="cls-7" x="681.31" y="30.55" width="2.23" height="0.89"/><rect class="cls-7" x="677.99" y="30.55" width="2.23" height="0.89"/><rect class="cls-7" x="674.66" y="30.55" width="2.23" height="0.89"/><rect class="cls-7" x="671.34" y="30.55" width="2.23" height="0.89"/><rect class="cls-7" x="668.01" y="30.55" width="2.23" height="0.89"/><rect class="cls-7" x="664.69" y="30.55" width="2.23" height="0.89"/><rect class="cls-7" x="661.36" y="30.55" width="2.23" height="0.89"/><rect class="cls-7" x="658.04" y="30.55" width="2.23" height="0.89"/><rect class="cls-7" x="654.71" y="30.55" width="2.23" height="0.89"/><rect class="cls-7" x="651.39" y="30.55" width="2.23" height="0.89"/><rect class="cls-7" x="648.06" y="30.55" width="2.23" height="0.89"/><rect class="cls-7" x="644.74" y="30.55" width="2.23" height="0.89"/><rect class="cls-7" x="641.41" y="30.55" width="2.23" height="0.89"/><rect class="cls-7" x="638.09" y="30.55" width="2.23" height="0.89"/><rect class="cls-7" x="634.76" y="30.55" width="2.23" height="0.89"/><rect class="cls-7" x="631.44" y="30.55" width="2.23" height="0.89"/><rect class="cls-7" x="628.11" y="30.55" width="2.23" height="0.89"/><rect class="cls-7" x="624.79" y="30.55" width="2.23" height="0.89"/><rect class="cls-7" x="621.46" y="30.55" width="2.23" height="0.89"/><rect class="cls-7" x="618.14" y="30.55" width="2.23" height="0.89"/><rect class="cls-7" x="614.81" y="30.55" width="2.23" height="0.89"/><rect class="cls-7" x="611.48" y="30.55" width="2.23" height="0.89"/><rect class="cls-7" x="608.16" y="30.55" width="2.23" height="0.89"/><rect class="cls-7" x="604.84" y="30.55" width="2.23" height="0.89"/><rect class="cls-7" x="601.51" y="30.55" width="2.23" height="0.89"/><rect class="cls-7" x="598.19" y="30.55" width="2.23" height="0.89"/><rect class="cls-7" x="594.86" y="30.55" width="2.23" height="0.89"/><rect class="cls-7" x="591.53" y="30.55" width="2.23" height="0.89"/><rect class="cls-7" x="588.21" y="30.55" width="2.23" height="0.89"/><rect class="cls-7" x="584.88" y="30.55" width="2.23" height="0.89"/><rect class="cls-7" x="581.56" y="30.55" width="2.23" height="0.89"/><rect class="cls-7" x="578.23" y="30.55" width="2.23" height="0.89"/><rect class="cls-7" x="574.91" y="30.55" width="2.23" height="0.89"/><rect class="cls-7" x="571.58" y="30.55" width="2.23" height="0.89"/><rect class="cls-7" x="568.26" y="30.55" width="2.23" height="0.89"/><rect class="cls-7" x="564.93" y="30.55" width="2.23" height="0.89"/><rect class="cls-7" x="561.61" y="30.55" width="2.23" height="0.89"/><rect class="cls-7" x="558.28" y="30.55" width="2.23" height="0.89"/><rect class="cls-7" x="554.96" y="30.55" width="2.23" height="0.89"/><rect class="cls-7" x="551.63" y="30.55" width="2.23" height="0.89"/><rect class="cls-7" x="548.31" y="30.55" width="2.23" height="0.89"/><rect class="cls-7" x="544.98" y="30.55" width="2.23" height="0.89"/><rect class="cls-7" x="541.66" y="30.55" width="2.23" height="0.89"/><rect class="cls-7" x="538.33" y="30.55" width="2.23" height="0.89"/></g><rect class="cls-9" x="723.45" y="0.5" width="139.25" height="61.02" rx="2.53"/><text class="cls-4" transform="translate(372.69 42.13)">SystemMessage {\n action: startAgent,\n<tspan x="12.86" y="9.71">template: &quot;DoctorAppointment&quot;\n}</tspan></text><rect class="cls-7" x="353.68" y="0.5" width="183.67" height="26.35" rx="2.53"/><line class="cls-6" x1="177.83" y1="188.06" x2="354.57" y2="60.73"/><rect class="cls-9" x="353.67" y="0.5" width="183.67" height="61.02" rx="2.53"/><polygon class="cls-13" points="344.64 30.75 337.36 34.65 337.36 27.37 344.64 30.75 344.64 30.75"/><line class="cls-6" x1="360.13" y1="238.01" x2="168.29" y2="238.01"/><polygon class="cls-13" points="366.64 237.75 359.36 241.65 359.36 234.37 366.64 237.75 366.64 237.75"/><g class="cls-12"><text class="cls-4" transform="translate(401.66 16.73)">&quot;System-Protocol\nGateway&quot;</text></g><circle class="cls-14" cx="390.69" cy="14.57" r="5.05"/><text class="cls-11" transform="translate(389 16.59)">2</text><text class="cls-15" transform="translate(363.49 78.15)">Quick-Launch Flow (“Doctor-Appointment” template)</text><g class="cls-12"><text class="cls-4" transform="translate(63.69 16.73)">&quot;Nexo Portal (browser)&quot;</text></g><circle class="cls-10" cx="52.74" cy="14.57" r="5.05"/><text class="cls-11" transform="translate(51.05 16.59)">1</text><polygon class="cls-13" points="175.57 190.59 179.08 183.12 183.43 188.96 175.57 190.59 175.57 190.59"/><polygon class="cls-13" points="716.96 66.48 708.75 67.37 712.86 73.38 716.96 66.48 716.96 66.48"/><polygon class="cls-13" points="792.81 185.9 796.71 178.62 789.43 178.62 792.81 185.9 792.81 185.9"/><polygon class="cls-13" points="693.82 366.38 701.26 362.8 695.38 358.51 693.82 366.38 693.82 366.38"/><line id="actor-man-torso0-2" data-name="actor-man-torso0" class="cls-1" x1="182.13" y1="379.14" x2="182.13" y2="384.2"/><line id="actor-man-arms0-2" data-name="actor-man-arms0" class="cls-1" x1="177.58" y1="381.17" x2="186.68" y2="381.17"/><line class="cls-1" x1="177.58" y1="387.99" x2="182.13" y2="384.2"/><line class="cls-1" x1="182.13" y1="384.2" x2="186.17" y2="387.99"/><circle class="cls-2" cx="182.13" cy="375.35" r="3.79"/><text class="cls-3" transform="translate(174.23 395.9)">User</text><g class="cls-8"><rect class="cls-7" x="97.43" y="401.64" width="2.52" height="0.89"/><rect class="cls-7" x="101.18" y="401.64" width="2.52" height="0.89"/><rect class="cls-7" x="104.92" y="401.64" width="2.52" height="0.89"/><rect class="cls-7" x="108.67" y="401.64" width="2.51" height="0.89"/><rect class="cls-7" x="112.42" y="401.64" width="2.52" height="0.89"/><rect class="cls-7" x="116.16" y="401.64" width="2.52" height="0.89"/><rect class="cls-7" x="119.91" y="401.64" width="2.51" height="0.89"/><rect class="cls-7" x="123.65" y="401.64" width="2.52" height="0.89"/><rect class="cls-7" x="127.4" y="401.64" width="2.52" height="0.89"/><rect class="cls-7" x="131.15" y="401.64" width="2.52" height="0.89"/><rect class="cls-7" x="134.89" y="401.64" width="2.51" height="0.89"/><rect class="cls-7" x="138.64" y="401.64" width="2.52" height="0.89"/><rect class="cls-7" x="142.38" y="401.64" width="2.51" height="0.89"/><rect class="cls-7" x="146.13" y="401.64" width="2.51" height="0.89"/><rect class="cls-7" x="149.88" y="401.64" width="2.52" height="0.89"/><rect class="cls-7" x="153.62" y="401.64" width="2.52" height="0.89"/><rect class="cls-7" x="157.37" y="401.64" width="2.52" height="0.89"/><rect class="cls-7" x="161.11" y="401.64" width="2.51" height="0.89"/><rect class="cls-7" x="164.86" y="401.64" width="2.52" height="0.89"/><rect class="cls-7" x="168.61" y="401.64" width="2.51" height="0.89"/><rect class="cls-7" x="172.35" y="401.64" width="2.51" height="0.89"/><rect class="cls-7" x="176.1" y="401.64" width="2.52" height="0.89"/><rect class="cls-7" x="179.84" y="401.64" width="2.52" height="0.89"/><rect class="cls-7" x="183.59" y="401.64" width="2.52" height="0.89"/><rect class="cls-7" x="187.34" y="401.64" width="2.51" height="0.89"/><rect class="cls-7" x="191.08" y="401.64" width="2.52" height="0.89"/><rect class="cls-7" x="194.83" y="401.64" width="2.52" height="0.89"/><rect class="cls-7" x="198.57" y="401.64" width="2.51" height="0.89"/></g></svg>