<?xml version="1.0" encoding="utf-8"?>
<!-- Generator: Adobe Illustrator 24.3.0, SVG Export Plug-In . SVG Version: 6.00 Build 0)  -->
<svg version="1.1" id="Layer_1" xmlns="http://www.w3.org/2000/svg" xmlns:xlink="http://www.w3.org/1999/xlink" x="0px" y="0px"
	 width="710.3px" height="1105.4px" viewBox="0 0 710.3 1105.4" style="enable-background:new 0 0 710.3 1105.4;"
	 xml:space="preserve">
<style type="text/css">
	.st0{fill:#FFFFFF;}
	.st1{clip-path:url(#SVGID_2_);}
	.st2{fill:#5D51AF;}
	.st3{opacity:0.4;enable-background:new    ;}
	.st4{fill:#4ADE80;}
	.st5{fill:#F3F4F6;}
	.st6{enable-background:new    ;}
	.st7{fill:#2B9357;}
</style>
<g>
	<g>
		<path class="st0" d="M698.9,1105.4H11.4c-6.3,0-11.4-5.1-11.4-11.4V11.4C0,5.1,5.1,0,11.4,0h687.5c6.3,0,11.4,5.1,11.4,11.4
			v1082.5C710.3,1100.2,705.2,1105.4,698.9,1105.4z"/>
	</g>
	<g>
		<g>
			<defs>
				<path id="SVGID_1_" d="M698.9,1105.4H11.4c-6.3,0-11.4-5.1-11.4-11.4V11.4C0,5.1,5.1,0,11.4,0h687.5c6.3,0,11.4,5.1,11.4,11.4
					v1082.5C710.3,1100.2,705.2,1105.4,698.9,1105.4z"/>
			</defs>
			<clipPath id="SVGID_2_">
				<use xlink:href="#SVGID_1_"  style="overflow:visible;"/>
			</clipPath>
			<g class="st1">
				<path class="st2" d="M710.3,112.7H0V11.4C0,5.1,5.1,0,11.4,0h687.5c6.3,0,11.4,5.1,11.4,11.4V112.7z"/>
			</g>
		</g>
	</g>
	<g class="st3">
		<path class="st4" d="M501.9,192.6H207.1c-3.6,0-6.4-2.9-6.4-6.4v-34.3c0-3.6,2.9-6.4,6.4-6.4h294.8c3.6,0,6.4,2.9,6.4,6.4v34.2
			C508.4,189.7,505.5,192.6,501.9,192.6z"/>
	</g>
	<g>
		<path d="M119.8,232.3c4.3,0,7.1,2.4,7.2,6.3h-3.7c-0.1-1.8-1.4-2.9-3.5-2.9c-2.3,0-3.8,1.1-3.8,2.9c0,1.5,0.8,2.4,2.6,2.8l3.4,0.7
			c3.7,0.8,5.4,2.7,5.4,5.9c0,4-3.1,6.6-7.8,6.6c-4.6,0-7.6-2.4-7.6-6.3h3.7c0,1.8,1.5,2.9,3.9,2.9c2.5,0,4.1-1.1,4.1-2.9
			c0-1.4-0.7-2.3-2.5-2.7l-3.4-0.8c-3.6-0.8-5.5-2.9-5.5-6.1C112.2,234.9,115.3,232.3,119.8,232.3z"/>
		<path d="M129.6,250c0-2.7,1.9-4.3,5.4-4.6l4.3-0.3v-0.3c0-2-1.2-2.8-3-2.8c-2.1,0-3.3,0.9-3.3,2.4h-3c0-3.1,2.6-5.2,6.5-5.2
			c3.9,0,6.3,2.1,6.3,6.1v8.8h-3.1l-0.3-2.1c-0.6,1.5-2.6,2.5-4.8,2.5C131.5,254.5,129.6,252.7,129.6,250z M139.3,248.3v-0.8l-3,0.2
			c-2.2,0.2-3.1,0.9-3.1,2.1c0,1.3,0.9,2,2.5,2C137.9,251.8,139.3,250.5,139.3,248.3z"/>
		<path d="M155.3,242.9H154c-2.6,0-4.2,1.4-4.2,4.2v7h-3.6v-14.4h3.4l0.2,2.1c0.6-1.4,2-2.4,3.9-2.4c0.5,0,1,0.1,1.6,0.2V242.9z"/>
		<path d="M156.5,250c0-2.7,1.9-4.3,5.4-4.6l4.3-0.3v-0.3c0-2-1.2-2.8-3-2.8c-2.1,0-3.3,0.9-3.3,2.4h-3c0-3.1,2.6-5.2,6.5-5.2
			c3.9,0,6.3,2.1,6.3,6.1v8.8h-3.1l-0.3-2.1c-0.6,1.5-2.6,2.5-4.8,2.5C158.4,254.5,156.5,252.7,156.5,250z M166.2,248.3v-0.8l-3,0.2
			c-2.2,0.2-3.1,0.9-3.1,2.1c0,1.3,0.9,2,2.5,2C164.8,251.8,166.2,250.5,166.2,248.3z"/>
		<path d="M173.2,254.1v-21.8h3.6v9.2c0.9-1.4,2.6-2.3,4.7-2.3c3.6,0,5.4,2.3,5.4,6v8.9h-3.6v-8c0-2.4-1.2-3.6-3-3.6
			c-2.3,0-3.6,1.6-3.6,3.7v7.9H173.2z"/>
	</g>
	<g>
		<circle class="st5" cx="52.5" cy="56.6" r="32.2"/>
	</g>
	<g>
		<circle class="st2" cx="64.3" cy="257.8" r="32.2"/>
	</g>
	<g>
		<g>
			<g class="st6">
				<path class="st0" d="M113.2,29.2h4.9l7.5,21.3h-4.8l-1.5-4.5h-7.8l-1.5,4.5h-4.6L113.2,29.2z M118.3,42.5l-2.7-8.4l-2.7,8.4
					H118.3z"/>
				<path class="st0" d="M132.5,29.2v21.3h-4.4V29.2H132.5z"/>
				<path class="st0" d="M150.6,29.2h4.9l7.5,21.3h-4.8l-1.5-4.5h-7.8l-1.5,4.5H143L150.6,29.2z M155.7,42.5l-2.7-8.4l-2.7,8.4
					H155.7z"/>
				<path class="st0" d="M164.5,45.5h4.2c0.2,0.8,0.5,1.4,1,1.7c0.5,0.3,1.2,0.5,2.3,0.5c0.9,0,1.5-0.1,2-0.4
					c0.5-0.3,0.7-0.6,0.7-1.1c0-0.2,0-0.4-0.1-0.5c-0.1-0.1-0.2-0.3-0.4-0.4c-0.1-0.1-0.3-0.2-0.5-0.2c-0.2-0.1-0.5-0.2-0.8-0.3
					l-4.6-1.6c-1.1-0.4-1.9-0.8-2.5-1.4c-0.5-0.6-0.8-1.4-0.8-2.2c0-1.5,0.6-2.7,1.9-3.6c1.2-0.9,2.9-1.4,4.8-1.4
					c1.4,0,2.6,0.2,3.6,0.7c1,0.5,1.8,1.1,2.3,2c0,0.1,0.1,0.1,0.1,0.2c0,0.1,0.1,0.1,0.1,0.2c0.1,0.2,0.2,0.4,0.2,0.7
					c0.1,0.2,0.1,0.5,0.2,0.9c0,0.1,0,0.2,0,0.3c0,0.1,0,0.2,0.1,0.3l-4,0c-0.1-0.7-0.4-1.2-0.8-1.4c-0.4-0.3-1-0.4-1.9-0.4
					c-0.8,0-1.5,0.1-1.9,0.4c-0.5,0.2-0.7,0.6-0.7,1c0,0.2,0.1,0.3,0.2,0.5c0.1,0.1,0.3,0.2,0.5,0.3l6.5,2.1c0.9,0.3,1.5,0.8,2,1.4
					c0.5,0.7,0.8,1.4,0.8,2.3c0,0.1,0,0.1,0,0.2s0,0.1,0,0.2c-0.1,0.9-0.5,1.8-1.2,2.7c-0.7,0.8-1.6,1.4-2.6,1.8c0,0-0.1,0-0.1,0
					c0,0-0.1,0-0.1,0c-0.5,0.1-0.9,0.2-1.4,0.3c-0.5,0.1-1,0.1-1.6,0.1c-2.3,0-4.1-0.5-5.3-1.4C165.2,48.7,164.6,47.3,164.5,45.5
					L164.5,45.5z"/>
				<path class="st0" d="M180.8,45.5h4.2c0.2,0.8,0.5,1.4,1,1.7c0.5,0.3,1.2,0.5,2.3,0.5c0.9,0,1.5-0.1,2-0.4
					c0.5-0.3,0.7-0.6,0.7-1.1c0-0.2,0-0.4-0.1-0.5c-0.1-0.1-0.2-0.3-0.4-0.4c-0.1-0.1-0.3-0.2-0.5-0.2c-0.2-0.1-0.5-0.2-0.8-0.3
					l-4.6-1.6c-1.1-0.4-1.9-0.8-2.5-1.4c-0.5-0.6-0.8-1.4-0.8-2.2c0-1.5,0.6-2.7,1.9-3.6c1.2-0.9,2.9-1.4,4.8-1.4
					c1.4,0,2.6,0.2,3.6,0.7c1,0.5,1.8,1.1,2.3,2c0,0.1,0.1,0.1,0.1,0.2c0,0.1,0.1,0.1,0.1,0.2c0.1,0.2,0.2,0.4,0.2,0.7
					c0.1,0.2,0.1,0.5,0.2,0.9c0,0.1,0,0.2,0,0.3c0,0.1,0,0.2,0.1,0.3l-4,0c-0.1-0.7-0.4-1.2-0.8-1.4c-0.4-0.3-1-0.4-1.9-0.4
					c-0.8,0-1.5,0.1-1.9,0.4c-0.5,0.2-0.7,0.6-0.7,1c0,0.2,0.1,0.3,0.2,0.5c0.1,0.1,0.3,0.2,0.5,0.3l6.5,2.1c0.9,0.3,1.5,0.8,2,1.4
					c0.5,0.7,0.8,1.4,0.8,2.3c0,0.1,0,0.1,0,0.2s0,0.1,0,0.2c-0.1,0.9-0.5,1.8-1.2,2.7c-0.7,0.8-1.6,1.4-2.6,1.8c0,0-0.1,0-0.1,0
					c0,0-0.1,0-0.1,0c-0.5,0.1-0.9,0.2-1.4,0.3c-0.5,0.1-1,0.1-1.6,0.1c-2.3,0-4.1-0.5-5.3-1.4C181.5,48.7,180.9,47.3,180.8,45.5
					L180.8,45.5z"/>
				<path class="st0" d="M202.3,29.2v3.8h-4.1v-3.8H202.3z M202.3,35v15.6h-4.2V35H202.3z"/>
				<path class="st0" d="M205.2,45.5h4.2c0.2,0.8,0.5,1.4,1,1.7c0.5,0.3,1.2,0.5,2.3,0.5c0.9,0,1.5-0.1,2-0.4
					c0.5-0.3,0.7-0.6,0.7-1.1c0-0.2,0-0.4-0.1-0.5c-0.1-0.1-0.2-0.3-0.4-0.4c-0.1-0.1-0.3-0.2-0.5-0.2c-0.2-0.1-0.5-0.2-0.8-0.3
					l-4.6-1.6c-1.1-0.4-1.9-0.8-2.5-1.4c-0.5-0.6-0.8-1.4-0.8-2.2c0-1.5,0.6-2.7,1.9-3.6c1.2-0.9,2.9-1.4,4.8-1.4
					c1.4,0,2.6,0.2,3.6,0.7c1,0.5,1.8,1.1,2.3,2c0,0.1,0.1,0.1,0.1,0.2c0,0.1,0.1,0.1,0.1,0.2c0.1,0.2,0.2,0.4,0.2,0.7
					c0.1,0.2,0.1,0.5,0.2,0.9c0,0.1,0,0.2,0,0.3c0,0.1,0,0.2,0.1,0.3l-4,0c-0.1-0.7-0.4-1.2-0.8-1.4c-0.4-0.3-1-0.4-1.9-0.4
					c-0.8,0-1.5,0.1-1.9,0.4c-0.5,0.2-0.7,0.6-0.7,1c0,0.2,0.1,0.3,0.2,0.5c0.1,0.1,0.3,0.2,0.5,0.3l6.5,2.1c0.9,0.3,1.5,0.8,2,1.4
					c0.5,0.7,0.8,1.4,0.8,2.3c0,0.1,0,0.1,0,0.2s0,0.1,0,0.2c-0.1,0.9-0.5,1.8-1.2,2.7c-0.7,0.8-1.6,1.4-2.6,1.8c0,0-0.1,0-0.1,0
					c0,0-0.1,0-0.1,0c-0.5,0.1-0.9,0.2-1.4,0.3c-0.5,0.1-1,0.1-1.6,0.1c-2.3,0-4.1-0.5-5.3-1.4C205.9,48.7,205.3,47.3,205.2,45.5
					L205.2,45.5z"/>
				<path class="st0" d="M222.9,35v-4.1h4.2V35h2.5v2.9h-2.5v8.4c0,0.7,0.1,1.1,0.3,1.3c0.2,0.2,0.8,0.2,1.7,0.2h0.6v3.1
					c-0.2,0-0.3,0-0.5,0c-0.2,0-0.3,0-0.5,0c-0.3,0-0.5,0-0.8,0s-0.5,0-0.7,0c-1.8,0-3-0.4-3.5-1.2c-0.5-0.8-0.8-2.1-0.8-3.7v-8.2
					h-2V35H222.9z"/>
				<path class="st0" d="M233.5,35.9c1.1-0.9,2.8-1.3,4.9-1.3c1.6,0,2.9,0.2,4,0.6c1,0.4,1.8,1,2.2,1.9c0,0,0,0,0,0.1
					c0.2,0.4,0.3,0.8,0.4,1.2c0.1,0.4,0.1,1.1,0.1,2v7.1v0.8c0,0.6,0.1,1,0.2,1.4c0.1,0.4,0.3,0.7,0.6,1h-4.2
					c-0.1-0.1-0.2-0.3-0.3-0.4c-0.1-0.1-0.1-0.2-0.2-0.4c-0.1-0.2-0.1-0.4-0.2-0.6c0-0.2-0.1-0.5-0.1-0.7c-0.3,0.3-0.5,0.6-0.8,0.8
					c-0.2,0.2-0.5,0.5-0.7,0.6c-0.5,0.4-1.1,0.7-1.6,0.8c-0.6,0.1-1.2,0.2-2,0.2c-1.4,0-2.5-0.4-3.3-1.3s-1.3-2-1.3-3.3
					c0-1.3,0.3-2.4,1-3.2s1.7-1.3,3.2-1.7c0.7-0.2,1.6-0.3,2.5-0.4c0.9-0.1,1.9-0.3,3-0.4c0-0.9-0.1-1.6-0.4-2.1
					c-0.3-0.5-0.9-0.7-2-0.7c-0.9,0-1.6,0.2-2,0.5c-0.4,0.3-0.7,0.9-0.9,1.7l-3.9,0C231.8,38.1,232.4,36.8,233.5,35.9z M241,43.3
					c-0.4,0.1-0.7,0.1-1,0.2c-0.3,0-0.5,0.1-0.7,0.1c-0.1,0-0.3,0.1-0.4,0.1c-0.1,0-0.2,0-0.4,0.1c-0.1,0-0.2,0-0.3,0.1
					s-0.2,0-0.3,0.1c-1,0.2-1.7,0.5-2,0.8c-0.4,0.3-0.6,0.8-0.6,1.4c0,0.5,0.2,1,0.6,1.3c0.4,0.3,0.9,0.5,1.6,0.5
					c1.4,0,2.4-0.4,2.8-1.3C240.8,45.6,241,44.5,241,43.3L241,43.3z"/>
				<path class="st0" d="M252.7,35v2.3c0.1-0.1,0.2-0.2,0.3-0.4c0.1-0.1,0.2-0.3,0.3-0.4c0.6-0.7,1.2-1.2,1.8-1.5
					c0.6-0.3,1.4-0.4,2.3-0.4c1.1,0,2.1,0.3,3,0.8s1.5,1.3,1.8,2.1c0.2,0.4,0.3,0.9,0.3,1.4c0.1,0.5,0.1,1.2,0.1,2v9.7h-4.2v-9.4
					c0-1-0.2-1.8-0.6-2.3c-0.4-0.5-1-0.8-1.9-0.8c-1.3,0-2.2,0.4-2.6,1.3c-0.4,0.9-0.7,1.9-0.7,3c0,0,0,0.1,0,0.1s0,0.1,0,0.1v7.9
					h-4.2V35H252.7z"/>
				<path class="st0" d="M266.8,35v-4.1h4.2V35h2.5v2.9H271v8.4c0,0.7,0.1,1.1,0.3,1.3c0.2,0.2,0.8,0.2,1.7,0.2h0.6v3.1
					c-0.2,0-0.3,0-0.5,0c-0.2,0-0.3,0-0.5,0c-0.3,0-0.5,0-0.8,0s-0.5,0-0.7,0c-1.8,0-3-0.4-3.5-1.2c-0.5-0.8-0.8-2.1-0.8-3.7v-8.2
					h-2V35H266.8z"/>
			</g>
		</g>
		<g>
			<g class="st6">
				<path class="st0" d="M133.7,73.8c0-2.6,0.7-4.7,2.2-6.2c1.5-1.6,3.4-2.4,5.7-2.4c2.3,0,4.2,0.8,5.7,2.3c1.4,1.5,2.2,3.5,2.2,6
					c0,2.6-0.7,4.7-2.2,6.3c-1.5,1.6-3.3,2.4-5.6,2.4c-2.4,0-4.3-0.8-5.7-2.3C134.4,78.4,133.7,76.4,133.7,73.8L133.7,73.8z
					 M137.2,73.5c0,0.1,0,0.2,0,0.3c0,0.1,0,0.2,0,0.3c0.1,1.3,0.4,2.5,1,3.6c0.6,1.1,1.7,1.6,3.3,1.6c1.3,0,2.4-0.5,3.2-1.6
					s1.2-2.4,1.2-4.2c0-1.7-0.4-3-1.2-4c-0.8-1-1.8-1.4-3.2-1.4c-1.3,0-2.4,0.5-3.1,1.4C137.7,70.6,137.3,71.9,137.2,73.5
					L137.2,73.5z"/>
				<path class="st0" d="M155.1,69.9v1.8c0.1-0.1,0.1-0.2,0.2-0.3c0.1-0.1,0.2-0.2,0.2-0.3c0.5-0.5,0.9-0.9,1.4-1.2
					c0.5-0.2,1.1-0.3,1.8-0.3c0.8,0,1.6,0.2,2.3,0.6c0.7,0.4,1.2,1,1.4,1.6c0.1,0.3,0.2,0.7,0.2,1.1c0,0.4,0.1,0.9,0.1,1.5V82h-3.2
					v-7.2c0-0.8-0.2-1.4-0.5-1.8c-0.3-0.4-0.8-0.6-1.5-0.6c-1,0-1.7,0.3-2,1c-0.3,0.7-0.5,1.5-0.5,2.3c0,0,0,0.1,0,0.1s0,0.1,0,0.1
					V82h-3.2v-12H155.1z"/>
				<path class="st0" d="M168.9,65.5V82h-3.2V65.5H168.9z"/>
				<path class="st0" d="M175.2,65.5v3H172v-3H175.2z M175.2,69.9v12H172v-12H175.2z"/>
				<path class="st0" d="M181.5,69.9v1.8c0.1-0.1,0.1-0.2,0.2-0.3c0.1-0.1,0.2-0.2,0.2-0.3c0.5-0.5,0.9-0.9,1.4-1.2
					c0.5-0.2,1.1-0.3,1.8-0.3c0.8,0,1.6,0.2,2.3,0.6c0.7,0.4,1.2,1,1.4,1.6c0.1,0.3,0.2,0.7,0.2,1.1c0,0.4,0.1,0.9,0.1,1.5V82h-3.2
					v-7.2c0-0.8-0.2-1.4-0.5-1.8c-0.3-0.4-0.8-0.6-1.5-0.6c-1,0-1.7,0.3-2,1c-0.3,0.7-0.5,1.5-0.5,2.3c0,0,0,0.1,0,0.1s0,0.1,0,0.1
					V82h-3.2v-12H181.5z"/>
				<path class="st0" d="M195.2,79c0.4,0.5,1,0.8,1.7,0.8c0.3,0,0.6-0.1,0.9-0.2c0.2-0.1,0.5-0.3,0.7-0.6c0.1-0.1,0.1-0.2,0.2-0.2
					s0.1-0.2,0.2-0.3l3.3,0c-0.5,1.3-1.2,2.3-2,2.9c-0.8,0.6-1.9,0.9-3.2,0.9c-1.8,0-3.1-0.6-4.1-1.7c-1-1.1-1.5-2.6-1.5-4.6
					c0-2,0.5-3.6,1.5-4.7c1-1.1,2.4-1.7,4.1-1.7c1.8,0,3.2,0.5,4.1,1.6c1,1.1,1.4,2.7,1.4,4.7c0,0,0,0.1,0,0.1c0,0,0,0,0,0.1
					c0,0.1,0,0.1,0,0.2s0,0.2,0,0.3h-7.8C194.6,77.7,194.8,78.5,195.2,79z M199,74.5c-0.1-0.7-0.3-1.3-0.7-1.7s-0.9-0.6-1.5-0.6
					s-1.2,0.2-1.5,0.6s-0.6,1-0.7,1.7H199z"/>
			</g>
		</g>
		<g>
			<path class="st4" d="M120.2,75.2c0,4.4-3.6,8-8,8s-8-3.6-8-8s3.6-8,8-8S120.2,70.7,120.2,75.2z"/>
		</g>
	</g>
	<g>
		<path class="st5" d="M128.9,273.4h451.9c9.5,0,17.1,6.2,17.1,13.9v48.8c0,7.7-7.7,13.9-17.1,13.9H128.9c-9.5,0-17.1-6.2-17.1-13.9
			v-48.8C111.8,279.6,119.5,273.4,128.9,273.4z"/>
	</g>
	<g class="st6">
		<path d="M160.4,321v-21h2.1v9.3h11.3v-9.3h2.1v21h-2.1v-9.7h-11.3v9.7H160.4z"/>
		<path d="M179.6,313.9c0-4.4,2.8-7.5,6.8-7.5c3.8,0,6.4,2.7,6.4,6.7v1h-11.3c0.1,3.5,2,5.4,5,5.4c2.3,0,3.8-1,4.3-2.9h1.9
			c-0.8,3-3,4.6-6.3,4.6C182.4,321.4,179.6,318.4,179.6,313.9z M181.6,312.7h9.2c0-2.7-1.8-4.5-4.4-4.5S182,309.9,181.6,312.7z"/>
		<path d="M194.3,325.5h1.6c1.2,0,2.5-0.1,3.2-2l0.6-1.7l-5.7-15h2.1l4.6,12.4l4.5-12.4h2.1l-6.5,17.4c-0.8,2.2-2.2,3.1-4.2,3.1
			c-0.8,0-1.5-0.1-2.1-0.2V325.5z"/>
		<path d="M218.9,321v-12.5H216v-1.7h2.8v-4.5h2v4.5h2.8v1.7h-2.8V321H218.9z"/>
		<path d="M226.3,321v-21.3h2v9.6c0.9-1.7,2.6-2.8,5-2.8c3.7,0,5.4,2.3,5.4,5.9v8.7h-2v-8.2c0-3.3-1.6-4.5-3.7-4.5
			c-3,0-4.6,2.3-4.6,5v7.7H226.3z"/>
		<path d="M241.8,313.9c0-4.4,2.8-7.5,6.8-7.5c3.8,0,6.4,2.7,6.4,6.7v1h-11.3c0.1,3.5,2,5.4,5,5.4c2.3,0,3.8-1,4.3-2.9h1.9
			c-0.8,3-3,4.6-6.3,4.6C244.5,321.4,241.8,318.4,241.8,313.9z M243.8,312.7h9.2c0-2.7-1.8-4.5-4.4-4.5S244.1,309.9,243.8,312.7z"/>
		<path d="M265.6,308.5h-1.1c-2.6,0-4.3,1.8-4.3,4.4v8.1h-2v-14.2h1.9l0.1,2.2c0.6-1.5,2-2.5,4-2.5c0.4,0,0.8,0,1.3,0.1V308.5z"/>
		<path d="M266.7,313.9c0-4.4,2.8-7.5,6.8-7.5c3.8,0,6.4,2.7,6.4,6.7v1h-11.3c0.1,3.5,2,5.4,5,5.4c2.3,0,3.8-1,4.3-2.9h1.9
			c-0.8,3-3,4.6-6.3,4.6C269.5,321.4,266.7,318.4,266.7,313.9z M268.8,312.7h9.2c0-2.7-1.8-4.5-4.4-4.5S269.1,309.9,268.8,312.7z"/>
		<path d="M282.7,323.7v-1.1c1.1-0.2,1.8-0.9,1.8-1.8c-0.2,0.1-0.4,0.2-0.8,0.2c-0.8,0-1.5-0.6-1.5-1.6c0-1,0.7-1.8,1.7-1.8
			c1.1,0,2,0.8,2,2.3C285.9,321.8,284.5,323.4,282.7,323.7z"/>
		<path d="M298.1,321v-21.3h2v9.6c0.9-1.7,2.6-2.8,5-2.8c3.7,0,5.4,2.3,5.4,5.9v8.7h-2v-8.2c0-3.3-1.6-4.5-3.7-4.5
			c-3,0-4.6,2.3-4.6,5v7.7H298.1z"/>
		<path d="M320.7,306.5c4.2,0,7.2,3.1,7.2,7.5c0,4.3-3,7.4-7.2,7.4s-7.2-3.1-7.2-7.4C313.5,309.6,316.6,306.5,320.7,306.5z
			 M320.7,319.5c3,0,5.2-2.3,5.2-5.6c0-3.3-2.1-5.6-5.2-5.6c-3,0-5.2,2.3-5.2,5.6C315.6,317.2,317.7,319.5,320.7,319.5z"/>
		<path d="M328.8,306.8h2.1l2.8,8.5c0.3,0.9,0.6,1.9,0.9,3c0.2-1.1,0.7-2.6,0.8-3l2.8-8.5h2.1l2.8,8.5c0.3,0.8,0.6,2,0.9,3
			c0.3-1.2,0.4-1.5,0.8-3l2.8-8.5h2.1l-4.8,14.2h-2l-2.9-8.9c-0.4-1.1-0.6-1.9-0.8-2.8c-0.2,0.8-0.4,1.6-0.8,2.8l-2.9,8.9h-2
			L328.8,306.8z"/>
		<path d="M366.2,306.5c3.3,0,5.7,1.9,6.2,4.8h-2c-0.5-2-2.2-3-4.2-3c-2.9,0-4.9,2.2-4.9,5.7c0,3.4,1.9,5.6,4.7,5.6
			c2.1,0,3.8-1.2,4.4-3h2c-0.7,2.9-3.2,4.8-6.4,4.8c-4,0-6.7-3-6.7-7.4C359.4,309.5,362.1,306.5,366.2,306.5z"/>
		<path d="M374.8,317.2c0-2.6,2-4.2,5.3-4.5l4.7-0.4v-0.5c0-2.8-1.7-3.7-3.7-3.7c-2.5,0-3.9,1.1-3.9,3h-1.8c0-2.9,2.3-4.7,5.8-4.7
			c3.3,0,5.7,1.6,5.7,5.4v9.2h-1.7l-0.3-2.5c-0.9,1.8-2.8,2.8-5.2,2.8C376.6,321.4,374.8,319.7,374.8,317.2z M384.8,314.6v-0.8
			l-4.2,0.3c-2.7,0.2-3.7,1.4-3.7,3c0,1.7,1.3,2.6,3.2,2.6C383.1,319.7,384.8,317.6,384.8,314.6z"/>
		<path d="M390.8,321v-14.2h1.8l0.3,2.5c0.9-1.8,2.8-2.8,4.9-2.8c3.9,0,5.5,2.3,5.5,5.9v8.7h-2v-8.2c0-3.3-1.5-4.5-3.8-4.5
			c-2.9,0-4.5,2.1-4.5,5.3v7.4H390.8z"/>
		<path d="M414.9,301.5c0-0.8,0.7-1.5,1.5-1.5c0.8,0,1.5,0.7,1.5,1.5s-0.7,1.5-1.5,1.5C415.6,302.9,414.9,302.3,414.9,301.5z
			 M415.4,306.8h2V321h-2V306.8z"/>
		<path d="M429.7,321v-21.3h2v9.6c0.9-1.7,2.6-2.8,5-2.8c3.7,0,5.4,2.3,5.4,5.9v8.7h-2v-8.2c0-3.3-1.6-4.5-3.7-4.5
			c-3,0-4.6,2.3-4.6,5v7.7H429.7z"/>
		<path d="M445.2,313.9c0-4.4,2.8-7.5,6.8-7.5c3.8,0,6.4,2.7,6.4,6.7v1h-11.3c0.1,3.5,2,5.4,5,5.4c2.3,0,3.8-1,4.3-2.9h1.9
			c-0.8,3-3,4.6-6.3,4.6C447.9,321.4,445.2,318.4,445.2,313.9z M447.2,312.7h9.2c0-2.7-1.8-4.5-4.4-4.5S447.5,309.9,447.2,312.7z"/>
		<path d="M461.7,321v-21.3h2V321H461.7z"/>
		<path d="M468,306.8h1.8l0.2,2.9c1-2.2,3-3.2,5.4-3.2c4.1,0,6.6,3.1,6.6,7.4c0,4.3-2.4,7.5-6.6,7.5c-2.4,0-4.3-1-5.3-3.1v8.9h-2
			V306.8z M475,319.5c3.1,0,4.9-2.4,4.9-5.6c0-3.3-1.8-5.6-4.9-5.6c-3.1,0-4.9,2.3-4.9,5.6C470.1,317.2,471.9,319.5,475,319.5z"/>
		<path d="M491.8,325.5h1.6c1.2,0,2.5-0.1,3.2-2l0.6-1.7l-5.7-15h2.1l4.6,12.4l4.5-12.4h2.1l-6.5,17.4c-0.8,2.2-2.2,3.1-4.2,3.1
			c-0.8,0-1.5-0.1-2.1-0.2V325.5z"/>
		<path d="M512.7,306.5c4.2,0,7.2,3.1,7.2,7.5c0,4.3-3,7.4-7.2,7.4c-4.2,0-7.2-3.1-7.2-7.4C505.5,309.6,508.5,306.5,512.7,306.5z
			 M512.7,319.5c3,0,5.2-2.3,5.2-5.6c0-3.3-2.1-5.6-5.2-5.6c-3,0-5.2,2.3-5.2,5.6C507.5,317.2,509.7,319.5,512.7,319.5z"/>
		<path d="M534.7,306.8V321H533l-0.3-2.4c-0.8,1.6-2.8,2.8-5,2.8c-3.3,0-5.2-2.3-5.2-5.7v-8.8h2v8.2c0,3.4,1.5,4.6,3.7,4.6
			c2.7,0,4.3-1.8,4.3-5.2v-7.5H534.7z"/>
		<path d="M542.7,316.2v-0.8c0-2.4,1.6-3.7,3.2-4.9c1.5-1.2,3-2.4,3-4.5c0-2.5-1.7-4.4-4.4-4.4c-2.5,0-4.5,2-4.5,4.6h-2
			c0-3.7,2.9-6.5,6.6-6.5c4,0,6.5,2.7,6.5,6.3c0,3-1.9,4.5-3.7,5.8c-1.6,1.2-2.7,2.1-2.7,3.7v0.8H542.7z M541.9,319.6
			c0-1,0.8-1.8,1.8-1.8c1,0,1.8,0.8,1.8,1.8c0,1-0.8,1.8-1.8,1.8C542.7,321.4,541.9,320.6,541.9,319.6z"/>
	</g>
	<g>
		<g>
			<g>
				<path class="st0" d="M612.3,52c-0.8,0-1.5-0.7-1.5-1.5v-4.4c0-2.4,2-4.4,4.4-4.4h4.4c0.8,0,1.5,0.7,1.5,1.5s-0.7,1.5-1.5,1.5
					h-4.4c-0.8,0-1.5,0.7-1.5,1.5v4.4C613.8,51.4,613.2,52,612.3,52z"/>
			</g>
		</g>
		<g>
			<g>
				<path class="st0" d="M638.6,52c-0.8,0-1.5-0.7-1.5-1.5v-4.4c0-0.8-0.7-1.5-1.5-1.5h-4.4c-0.8,0-1.5-0.7-1.5-1.5s0.7-1.5,1.5-1.5
					h4.4c2.4,0,4.4,2,4.4,4.4v4.4C640,51.4,639.4,52,638.6,52z"/>
			</g>
		</g>
		<g>
			<g>
				<path class="st0" d="M619.6,71h-4.4c-2.4,0-4.4-2-4.4-4.4v-4.4c0-0.8,0.7-1.5,1.5-1.5s1.5,0.7,1.5,1.5v4.4
					c0,0.8,0.7,1.5,1.5,1.5h4.4c0.8,0,1.5,0.7,1.5,1.5S620.4,71,619.6,71z"/>
			</g>
		</g>
		<g>
			<g>
				<path class="st0" d="M635.6,71h-4.4c-0.8,0-1.5-0.7-1.5-1.5s0.7-1.5,1.5-1.5h4.4c0.8,0,1.5-0.7,1.5-1.5v-4.4
					c0-0.8,0.7-1.5,1.5-1.5s1.5,0.7,1.5,1.5v4.4C640,69,638,71,635.6,71z"/>
			</g>
		</g>
	</g>
	<g>
		<g>
			<path class="st0" d="M680.7,57.4h-14c-0.6,0-1-0.4-1-1s0.4-1,1-1h14c0.6,0,1,0.4,1,1S681.3,57.4,680.7,57.4z"/>
		</g>
	</g>
	<g>
		<g>
			<g>
				<g>
					<path class="st7" d="M263.4,164.7H260c-0.2-1-0.6-1.7-1.2-2.1c-0.5-0.5-1.3-0.7-2.2-0.7c-1.4,0-2.4,0.5-3.2,1.5
						s-1.1,2.4-1.1,4.3c0,1.7,0.4,3,1.1,4s1.7,1.5,3,1.5c0.9,0,1.6-0.3,2.2-0.8s1-1.3,1.3-2.4h3.4c-0.1,0.6-0.2,1.1-0.3,1.5
						c-0.1,0.4-0.3,0.8-0.5,1.1c-0.1,0.1-0.2,0.2-0.2,0.4c-0.1,0.1-0.2,0.2-0.2,0.4c-0.7,0.9-1.5,1.6-2.4,2c-1,0.5-2.1,0.7-3.3,0.7
						c-2.3,0-4.2-0.8-5.5-2.3c-1.4-1.5-2-3.6-2-6.2c0-2.7,0.7-4.8,2.1-6.3c1.4-1.6,3.2-2.3,5.6-2.3c1.9,0,3.5,0.5,4.8,1.6
						S263.2,162.9,263.4,164.7L263.4,164.7z"/>
				</g>
				<g>
					<path class="st7" d="M265,169.7c0-1.9,0.6-3.5,1.7-4.6s2.6-1.7,4.5-1.7s3.4,0.6,4.6,1.7c1.1,1.1,1.7,2.7,1.7,4.7
						s-0.6,3.5-1.7,4.6s-2.6,1.7-4.6,1.7c-1.9,0-3.4-0.6-4.5-1.7C265.6,173.2,265,171.7,265,169.7L265,169.7z M268.3,169.7
						c0,1.2,0.3,2.1,0.8,2.8s1.2,1,2.2,1c0.9,0,1.6-0.3,2.1-1s0.8-1.6,0.8-2.8s-0.3-2.1-0.8-2.8s-1.2-1-2.1-1s-1.6,0.3-2.2,1
						S268.3,168.5,268.3,169.7L268.3,169.7z"/>
				</g>
				<g>
					<path class="st7" d="M282.9,163.6v1.8c0.1-0.1,0.2-0.2,0.2-0.3c0.1-0.1,0.2-0.2,0.2-0.3c0.5-0.5,0.9-0.9,1.4-1.2
						c0.5-0.2,1.1-0.3,1.8-0.3c0.8,0,1.6,0.2,2.3,0.6c0.7,0.4,1.2,1,1.4,1.6c0.1,0.3,0.2,0.7,0.2,1.1c0,0.4,0.1,0.9,0.1,1.5v7.5
						h-3.2v-7.3c0-0.8-0.2-1.4-0.5-1.8c-0.3-0.4-0.8-0.6-1.5-0.6c-1,0-1.7,0.3-2,1s-0.5,1.5-0.5,2.3v0.1v0.1v6.1h-3.2v-12.1h3.3
						V163.6z"/>
				</g>
				<g>
					<path class="st7" d="M296.8,163.6v1.8c0.1-0.1,0.2-0.2,0.2-0.3c0.1-0.1,0.2-0.2,0.2-0.3c0.5-0.5,0.9-0.9,1.4-1.2
						c0.5-0.2,1.1-0.3,1.8-0.3c0.8,0,1.6,0.2,2.3,0.6c0.7,0.4,1.2,1,1.4,1.6c0.1,0.3,0.2,0.7,0.2,1.1c0,0.4,0.1,0.9,0.1,1.5v7.5
						h-3.2v-7.3c0-0.8-0.2-1.4-0.5-1.8c-0.3-0.4-0.8-0.6-1.5-0.6c-1,0-1.7,0.3-2,1s-0.5,1.5-0.5,2.3v0.1v0.1v6.1h-3.2v-12.1h3.3
						V163.6z"/>
				</g>
				<g>
					<path class="st7" d="M310.6,172.7c0.4,0.5,1,0.8,1.7,0.8c0.3,0,0.6-0.1,0.9-0.2c0.2-0.1,0.5-0.3,0.7-0.6
						c0.1-0.1,0.1-0.2,0.2-0.2s0.1-0.2,0.2-0.3h3.3c-0.5,1.3-1.2,2.3-2,2.9s-1.9,0.9-3.2,0.9c-1.8,0-3.2-0.6-4.1-1.7
						c-1-1.1-1.5-2.6-1.5-4.6s0.5-3.6,1.5-4.7c1-1.1,2.4-1.7,4.1-1.7c1.8,0,3.2,0.5,4.1,1.6c1,1.1,1.4,2.7,1.4,4.7v0.1
						c0,0,0,0,0,0.1s0,0.1,0,0.2c0,0.1,0,0.2,0,0.3h-7.8C310,171.4,310.2,172.2,310.6,172.7z M314.4,168.2c-0.1-0.7-0.3-1.3-0.7-1.7
						c-0.4-0.4-0.9-0.6-1.6-0.6c-0.6,0-1.2,0.2-1.6,0.6s-0.6,1-0.7,1.7H314.4z"/>
				</g>
				<g>
					<path class="st7" d="M330.4,167.9h-3.2c-0.2-0.7-0.4-1.2-0.7-1.6s-0.8-0.5-1.4-0.5c-0.8,0-1.5,0.3-1.9,1s-0.7,1.6-0.7,2.9
						c0,0.1,0,0.2,0,0.4c0,0.1,0,0.3,0,0.4c0.1,0.8,0.3,1.5,0.6,2.1s1,1,1.9,1c0.6,0,1.1-0.2,1.4-0.5s0.6-0.9,0.8-1.7h3.2
						c-0.2,1.6-0.8,2.8-1.8,3.6s-2.2,1.2-3.8,1.2c-1.8,0-3.2-0.5-4.2-1.6s-1.5-2.6-1.5-4.7c0-2,0.5-3.5,1.5-4.7
						c1-1.1,2.4-1.7,4.2-1.7c1.6,0,2.9,0.4,3.9,1.2C329.7,165.3,330.2,166.5,330.4,167.9L330.4,167.9z"/>
				</g>
				<g>
					<path class="st7" d="M332.9,163.6v-3.2h3.2v3.2h2v2.2h-2v6.5c0,0.5,0.1,0.9,0.3,1c0.2,0.1,0.6,0.2,1.3,0.2h0.4v2.4
						c-0.1,0-0.2,0-0.4,0s-0.2,0-0.4,0c-0.2,0-0.4,0-0.6,0s-0.4,0-0.5,0c-1.4,0-2.3-0.3-2.7-1c-0.4-0.6-0.6-1.6-0.6-2.9v-6.3h-1.6
						v-2.2L332.9,163.6L332.9,163.6z"/>
				</g>
				<g>
					<path class="st7" d="M343.4,172.7c0.4,0.5,1,0.8,1.7,0.8c0.3,0,0.6-0.1,0.9-0.2c0.2-0.1,0.5-0.3,0.7-0.6
						c0.1-0.1,0.1-0.2,0.2-0.2s0.1-0.2,0.2-0.3h3.3c-0.5,1.3-1.2,2.3-2,2.9s-1.9,0.9-3.2,0.9c-1.8,0-3.2-0.6-4.1-1.7
						c-1-1.1-1.5-2.6-1.5-4.6s0.5-3.6,1.5-4.7c1-1.1,2.4-1.7,4.1-1.7c1.8,0,3.2,0.5,4.1,1.6c1,1.1,1.4,2.7,1.4,4.7v0.1
						c0,0,0,0,0,0.1s0,0.1,0,0.2c0,0.1,0,0.2,0,0.3h-7.8C342.7,171.4,343,172.2,343.4,172.7z M347.2,168.2c-0.1-0.7-0.3-1.3-0.7-1.7
						c-0.4-0.4-0.9-0.6-1.6-0.6c-0.6,0-1.2,0.2-1.6,0.6s-0.6,1-0.7,1.7H347.2z"/>
				</g>
				<g>
					<path class="st7" d="M360.3,165.4v-6.2h3.2v16.5h-3.2v-2.1c-0.3,0.8-0.8,1.5-1.4,1.9s-1.3,0.6-2.1,0.6c-1.5,0-2.6-0.6-3.5-1.7
						c-0.9-1.1-1.3-2.7-1.3-4.6c0-1.9,0.5-3.5,1.4-4.6s2.1-1.8,3.7-1.8c0.8,0,1.4,0.2,1.9,0.5S359.9,164.7,360.3,165.4L360.3,165.4z
						 M355.2,169.7c0,1.1,0.2,2,0.7,2.7c0.5,0.6,1.1,1,1.8,1c0.8,0,1.4-0.3,1.8-1s0.7-1.6,0.7-2.7c0-1.1-0.2-1.9-0.7-2.6
						c-0.5-0.6-1.1-1-1.8-1c-0.8,0-1.4,0.3-1.8,1C355.5,167.7,355.2,168.6,355.2,169.7L355.2,169.7z"/>
				</g>
				<g>
					<path class="st7" d="M373.3,163.6v-3.2h3.2v3.2h2v2.2h-2v6.5c0,0.5,0.1,0.9,0.3,1c0.2,0.1,0.6,0.2,1.3,0.2h0.4v2.4
						c-0.1,0-0.2,0-0.4,0s-0.2,0-0.4,0c-0.2,0-0.4,0-0.6,0s-0.4,0-0.5,0c-1.4,0-2.3-0.3-2.7-1c-0.4-0.6-0.6-1.6-0.6-2.9v-6.3h-1.6
						v-2.2L373.3,163.6L373.3,163.6z"/>
				</g>
				<g>
					<path class="st7" d="M379.7,169.7c0-1.9,0.6-3.5,1.7-4.6s2.6-1.7,4.5-1.7s3.4,0.6,4.6,1.7c1.1,1.1,1.7,2.7,1.7,4.7
						s-0.6,3.5-1.7,4.6s-2.6,1.7-4.6,1.7c-1.9,0-3.4-0.6-4.5-1.7C380.2,173.2,379.7,171.7,379.7,169.7L379.7,169.7z M382.9,169.7
						c0,1.2,0.3,2.1,0.8,2.8s1.2,1,2.2,1c0.9,0,1.6-0.3,2.1-1s0.8-1.6,0.8-2.8s-0.3-2.1-0.8-2.8s-1.2-1-2.1-1s-1.6,0.3-2.2,1
						S382.9,168.5,382.9,169.7L382.9,169.7z"/>
				</g>
				<g>
					<path class="st7" d="M405.4,159.2h3.8l5.8,16.5h-3.7l-1.1-3.5h-6l-1.1,3.5h-3.6L405.4,159.2z M409.3,169.5l-2.1-6.5l-2.1,6.5
						H409.3z"/>
				</g>
				<g>
					<path class="st7" d="M420.3,159.2v16.5h-3.4v-16.5H420.3z"/>
				</g>
				<g>
					<path class="st7" d="M434.4,159.2h3.8l5.8,16.5h-3.7l-1.1-3.5h-6l-1.1,3.5h-3.6L434.4,159.2z M438.3,169.5l-2.1-6.5l-2.1,6.5
						H438.3z"/>
				</g>
				<g>
					<path class="st7" d="M448.9,177c0.2,0.4,0.4,0.7,0.7,0.9s0.7,0.2,1.3,0.2c1,0,1.8-0.3,2.1-0.8c0.4-0.6,0.6-1.6,0.6-3.1v-0.5
						c-0.4,0.8-0.8,1.3-1.4,1.6s-1.3,0.5-2.1,0.5c-1.4,0-2.6-0.6-3.5-1.7c-0.9-1.1-1.4-2.5-1.4-4.3c0-2,0.4-3.6,1.3-4.7
						c0.9-1.2,2.1-1.8,3.6-1.8c0.8,0,1.5,0.2,2,0.5c0.6,0.3,1,0.9,1.5,1.6v-1.8h3.2v10.3c0,1.3,0,2.2-0.1,2.8s-0.3,1.1-0.5,1.6l0,0
						c-0.4,0.7-1,1.3-1.7,1.6s-1.5,0.6-2.3,0.6c-0.2,0-0.4,0-0.6,0c-0.2,0-0.4,0-0.6,0c-1.3,0-2.5-0.2-3.5-0.7s-1.6-1.5-1.9-2.9h3.3
						V177z M448.4,169.6c0,1.1,0.2,2,0.7,2.6c0.4,0.6,1.1,0.9,1.9,0.9c0.8,0,1.4-0.3,1.8-0.9c0.4-0.6,0.6-1.5,0.6-2.6
						s-0.2-2-0.7-2.6s-1.1-0.9-1.9-0.9c-0.8,0-1.4,0.3-1.8,0.9C448.7,167.6,448.4,168.5,448.4,169.6L448.4,169.6z"/>
				</g>
				<g>
					<path class="st7" d="M463,172.7c0.4,0.5,1,0.8,1.7,0.8c0.3,0,0.6-0.1,0.9-0.2c0.2-0.1,0.5-0.3,0.7-0.6c0.1-0.1,0.1-0.2,0.2-0.2
						s0.1-0.2,0.2-0.3h3.3c-0.5,1.3-1.2,2.3-2,2.9s-1.9,0.9-3.2,0.9c-1.8,0-3.2-0.6-4.1-1.7c-1-1.1-1.5-2.6-1.5-4.6s0.5-3.6,1.5-4.7
						c1-1.1,2.4-1.7,4.1-1.7c1.8,0,3.2,0.5,4.1,1.6c1,1.1,1.4,2.7,1.4,4.7v0.1c0,0,0,0,0,0.1s0,0.1,0,0.2c0,0.1,0,0.2,0,0.3h-7.8
						C462.4,171.4,462.7,172.2,463,172.7z M466.8,168.2c-0.1-0.7-0.3-1.3-0.7-1.7s-0.9-0.6-1.6-0.6c-0.6,0-1.2,0.2-1.6,0.6
						s-0.6,1-0.7,1.7H466.8z"/>
				</g>
				<g>
					<path class="st7" d="M475.7,163.6v1.8c0.1-0.1,0.2-0.2,0.2-0.3c0.1-0.1,0.2-0.2,0.2-0.3c0.5-0.5,0.9-0.9,1.4-1.2
						c0.5-0.2,1.1-0.3,1.8-0.3c0.8,0,1.6,0.2,2.3,0.6c0.7,0.4,1.2,1,1.4,1.6c0.1,0.3,0.2,0.7,0.2,1.1c0,0.4,0.1,0.9,0.1,1.5v7.5
						h-3.2v-7.3c0-0.8-0.2-1.4-0.5-1.8c-0.3-0.4-0.8-0.6-1.5-0.6c-1,0-1.7,0.3-2,1s-0.5,1.5-0.5,2.3v0.1v0.1v6.1h-3.2v-12.1h3.3
						V163.6z"/>
				</g>
				<g>
					<path class="st7" d="M486.6,163.6v-3.2h3.2v3.2h2v2.2h-2v6.5c0,0.5,0.1,0.9,0.3,1s0.6,0.2,1.3,0.2h0.4v2.4c-0.1,0-0.2,0-0.4,0
						s-0.2,0-0.4,0s-0.4,0-0.6,0s-0.4,0-0.5,0c-1.4,0-2.3-0.3-2.7-1c-0.4-0.6-0.6-1.6-0.6-2.9v-6.3h-1.5v-2.2L486.6,163.6
						L486.6,163.6z"/>
				</g>
			</g>
		</g>
		<g>
			<g>
				<g>
					<path class="st7" d="M229.5,164c-0.6,0-1.1-0.5-1.1-1.1v-3.4H225c-0.6,0-1.1-0.5-1.1-1.1s0.5-1.1,1.1-1.1h4.5
						c0.6,0,1.1,0.5,1.1,1.1v4.5C230.6,163.5,230.1,164,229.5,164z"/>
				</g>
			</g>
			<g>
				<g>
					<path class="st7" d="M236.2,177.4h-13.4c-1.8,0-3.4-1.5-3.4-3.4v-8.9c0-1.8,1.5-3.4,3.4-3.4h13.4c1.8,0,3.4,1.5,3.4,3.4v8.9
						C239.5,175.9,238,177.4,236.2,177.4z M222.8,164c-0.6,0-1.1,0.5-1.1,1.1v8.9c0,0.6,0.5,1.1,1.1,1.1h13.4c0.6,0,1.1-0.5,1.1-1.1
						v-8.9c0-0.6-0.5-1.1-1.1-1.1H222.8z"/>
				</g>
			</g>
			<g>
				<g>
					<path class="st7" d="M220.5,170.7h-2.2c-0.6,0-1.1-0.5-1.1-1.1s0.5-1.1,1.1-1.1h2.2c0.6,0,1.1,0.5,1.1,1.1
						C221.7,170.2,221.2,170.7,220.5,170.7z"/>
				</g>
			</g>
			<g>
				<g>
					<path class="st7" d="M240.7,170.7h-2.2c-0.6,0-1.1-0.5-1.1-1.1s0.5-1.1,1.1-1.1h2.2c0.6,0,1.1,0.5,1.1,1.1
						S241.3,170.7,240.7,170.7z"/>
				</g>
			</g>
			<g>
				<g>
					<path class="st7" d="M232.8,171.8c-0.6,0-1.1-0.5-1.1-1.1v-2.2c0-0.6,0.5-1.1,1.1-1.1s1.1,0.5,1.1,1.1v2.2
						C234,171.3,233.5,171.8,232.8,171.8z"/>
				</g>
			</g>
			<g>
				<g>
					<path class="st7" d="M226.1,171.8c-0.6,0-1.1-0.5-1.1-1.1v-2.2c0-0.6,0.5-1.1,1.1-1.1s1.1,0.5,1.1,1.1v2.2
						C227.2,171.3,226.7,171.8,226.1,171.8z"/>
				</g>
			</g>
		</g>
	</g>
	<g>
		<g>
			<g>
				<path class="st2" d="M52.5,51.2c-1,0-1.8-0.8-1.8-1.8V44h-5.4c-1,0-1.8-0.8-1.8-1.8s0.8-1.8,1.8-1.8h7.2c1,0,1.8,0.8,1.8,1.8
					v7.2C54.3,50.4,53.5,51.2,52.5,51.2z"/>
			</g>
		</g>
		<g>
			<g>
				<path class="st2" d="M63.2,72.7H41.6c-3,0-5.4-2.4-5.4-5.4V52.9c0-3,2.4-5.4,5.4-5.4h21.6c3,0,5.4,2.4,5.4,5.4v14.4
					C68.6,70.3,66.2,72.7,63.2,72.7z M41.7,51.2c-1,0-1.8,0.8-1.8,1.8v14.4c0,1,0.8,1.8,1.8,1.8h21.6c1,0,1.8-0.8,1.8-1.8V53
					c0-1-0.8-1.8-1.8-1.8H41.7z"/>
			</g>
		</g>
		<g>
			<g>
				<path class="st2" d="M38.1,62h-3.6c-1,0-1.8-0.8-1.8-1.8s0.8-1.8,1.8-1.8h3.6c1,0,1.8,0.8,1.8,1.8S39.1,62,38.1,62z"/>
			</g>
		</g>
		<g>
			<g>
				<path class="st2" d="M70.4,62h-3.6c-1,0-1.8-0.8-1.8-1.8s0.8-1.8,1.8-1.8h3.6c1,0,1.8,0.8,1.8,1.8S71.4,62,70.4,62z"/>
			</g>
		</g>
		<g>
			<g>
				<path class="st2" d="M57.9,63.8c-1,0-1.8-0.8-1.8-1.8v-3.6c0-1,0.8-1.8,1.8-1.8s1.8,0.8,1.8,1.8V62C59.7,63,58.8,63.8,57.9,63.8
					z"/>
			</g>
		</g>
		<g>
			<g>
				<path class="st2" d="M47.1,63.8c-1,0-1.8-0.8-1.8-1.8v-3.6c0-1,0.8-1.8,1.8-1.8s1.8,0.8,1.8,1.8V62C48.9,63,48.1,63.8,47.1,63.8
					z"/>
			</g>
		</g>
	</g>
	<g>
		<g>
			<g>
				<g>
					<path class="st0" d="M64.3,252.4c-1,0-1.8-0.8-1.8-1.8v-5.4h-5.4c-1,0-1.8-0.8-1.8-1.8s0.8-1.8,1.8-1.8h7.2
						c1,0,1.8,0.8,1.8,1.8v7.2C66.1,251.6,65.3,252.4,64.3,252.4z"/>
				</g>
			</g>
			<g>
				<g>
					<path class="st0" d="M75.1,274H53.5c-3,0-5.4-2.4-5.4-5.4v-14.4c0-3,2.4-5.4,5.4-5.4h21.6c3,0,5.4,2.4,5.4,5.4v14.4
						C80.5,271.6,78.1,274,75.1,274z M53.5,252.4c-1,0-1.8,0.8-1.8,1.8v14.4c0,1,0.8,1.8,1.8,1.8h21.6c1,0,1.8-0.8,1.8-1.8v-14.4
						c0-1-0.8-1.8-1.8-1.8H53.5z"/>
				</g>
			</g>
			<g>
				<g>
					<path class="st0" d="M49.9,263.2h-3.6c-1,0-1.8-0.8-1.8-1.8s0.8-1.8,1.8-1.8h3.6c1,0,1.8,0.8,1.8,1.8S50.9,263.2,49.9,263.2z"
						/>
				</g>
			</g>
			<g>
				<g>
					<path class="st0" d="M82.3,263.2h-3.6c-1,0-1.8-0.8-1.8-1.8s0.8-1.8,1.8-1.8h3.6c1,0,1.8,0.8,1.8,1.8S83.3,263.2,82.3,263.2z"
						/>
				</g>
			</g>
			<g>
				<g>
					<path class="st0" d="M69.7,265c-1,0-1.8-0.8-1.8-1.8v-3.6c0-1,0.8-1.8,1.8-1.8s1.8,0.8,1.8,1.8v3.6
						C71.5,264.2,70.7,265,69.7,265z"/>
				</g>
			</g>
			<g>
				<g>
					<path class="st0" d="M58.9,265c-1,0-1.8-0.8-1.8-1.8v-3.6c0-1,0.8-1.8,1.8-1.8s1.8,0.8,1.8,1.8v3.6
						C60.7,264.2,59.9,265,58.9,265z"/>
				</g>
			</g>
		</g>
	</g>
</g>
</svg>
