<svg
                            width="38"
                            height="38"
                            viewBox="0 0 38 38"
                            fill="none"
                            xmlns="http://www.w3.org/2000/svg"
                          >
                            <rect
                              x="0.5"
                              y="0.5"
                              width="37"
                              height="37"
                              rx="7.5"
                              fill="#221F33"
                              stroke="#363347"
                            />
                            <path
                              d="M16.1875 23.3125H21.8125V22.1875H16.1875V23.3125ZM16.1875 20.3125H21.8125V19.1875H16.1875V20.3125ZM14.7308 26.125C14.3519 26.125 14.0312 25.9937 13.7688 25.7312C13.5063 25.4687 13.375 25.1481 13.375 24.7692V13.2308C13.375 12.8519 13.5063 12.5312 13.7688 12.2687C14.0312 12.0062 14.3519 11.875 14.7308 11.875H20.6875L24.625 15.8125V24.7692C24.625 25.1481 24.4938 25.4687 24.2313 25.7312C23.9688 25.9937 23.6481 26.125 23.2692 26.125H14.7308ZM20.125 16.375V13H14.7308C14.6731 13 14.6202 13.0241 14.5722 13.0722C14.5241 13.1202 14.5 13.1731 14.5 13.2308V24.7692C14.5 24.8269 14.5241 24.8798 14.5722 24.9278C14.6202 24.9759 14.6731 25 14.7308 25H23.2692C23.3269 25 23.3798 24.9759 23.4278 24.9278C23.4759 24.8798 23.5 24.8269 23.5 24.7692V16.375H20.125Z"
                              fill="#9B98AE"
                            />
                          </svg>