<?xml version="1.0" encoding="utf-8"?>
<!-- Generator: Adobe Illustrator 24.3.0, SVG Export Plug-In . SVG Version: 6.00 Build 0)  -->
<svg version="1.1" id="Layer_1" xmlns="http://www.w3.org/2000/svg" xmlns:xlink="http://www.w3.org/1999/xlink" x="0px" y="0px"
	 width="791.5px" height="614.2px" viewBox="0 0 791.5 614.2" style="enable-background:new 0 0 791.5 614.2;" xml:space="preserve"
	>
<style type="text/css">
	.st0{fill:#06031E;}
	.st1{fill:none;stroke:#FB0057;stroke-miterlimit:10;}
	.st2{fill:#030012;}
	.st3{fill:none;stroke:#F5A906;stroke-miterlimit:10;}
	.st4{fill:none;stroke:#11D4A0;stroke-miterlimit:10;}
	.st5{fill:#5D51AF;stroke:#221F33;stroke-miterlimit:10;}
	.st6{fill:#118851;}
	.st7{fill:#FFFDF9;}
	.st8{fill:#5D51AF;}
	.st9{fill:#A3A3A3;}
	.st10{fill:#E91E63;}
	.st11{fill:#00BCD4;}
	.st12{fill:#4CAF50;}
	.st13{fill:#FF9800;}
	.st14{fill:#141323;}
	.st15{fill:none;stroke:#794BF5;stroke-miterlimit:10;}
	.st16{fill:#FC5410;}
	.st17{fill:none;stroke:#221F33;stroke-miterlimit:10;}
	.st18{fill:#136DF4;}
	.st19{fill:#4D9AFE;}
	.st20{fill:#FEFEFE;}
	.st21{fill:#2771DF;}
	.st22{fill:#3177D7;}
	.st23{fill:#397FD1;}
	.st24{fill:#6887B1;}
	.st25{fill-rule:evenodd;clip-rule:evenodd;fill:#FEFEFE;}
	.st26{fill:#FFFFFF;}
	.st27{fill-rule:evenodd;clip-rule:evenodd;fill:#FB0057;}
</style>
<g>
	
		<image style="overflow:visible;opacity:0.25;" width="1637" height="715" xlink:href="101FC0D2.png"  transform="matrix(0.24 0 0 0.24 184.1177 7.472627e-03)">
	</image>
	<g>
		<path class="st0" d="M230.6,132.1h300.2c5.4,0,9.7-4.4,9.7-9.7v-79c0-5.4-4.4-9.7-9.7-9.7H230.6c-5.4,0-9.7,4.4-9.7,9.7v79
			C220.8,127.7,225.2,132.1,230.6,132.1z"/>
		<path class="st1" d="M230.6,132.1h300.2c5.4,0,9.7-4.4,9.7-9.7v-79c0-5.4-4.4-9.7-9.7-9.7H230.6c-5.4,0-9.7,4.4-9.7,9.7v79
			C220.8,127.7,225.2,132.1,230.6,132.1z"/>
	</g>
</g>
<g>
	
		<image style="overflow:visible;opacity:0.25;" width="1470" height="715" xlink:href="101FC0D6.png"  transform="matrix(0.24 0 0 0.24 50.1977 442.5675)">
	</image>
	<g>
		<path class="st2" d="M356.6,476.1H96.4c-5.4,0-9.7,4.4-9.7,9.7v79c0,5.4,4.4,9.7,9.7,9.7h260.2c5.4,0,9.7-4.4,9.7-9.7v-79
			C366.3,480.5,362,476.1,356.6,476.1z"/>
		<path class="st1" d="M356.6,476.1H96.4c-5.4,0-9.7,4.4-9.7,9.7v79c0,5.4,4.4,9.7,9.7,9.7h260.2c5.4,0,9.7-4.4,9.7-9.7v-79
			C366.3,480.5,362,476.1,356.6,476.1z"/>
	</g>
</g>
<g>
	
		<image style="overflow:visible;opacity:0.25;" width="1721" height="715" xlink:href="101FC0D1.png"  transform="matrix(0.24 0 0 0.24 378.5177 442.5675)">
	</image>
	<g>
		<path class="st2" d="M745.1,476.1H424.9c-5.4,0-9.7,4.4-9.7,9.7v79c0,5.4,4.4,9.7,9.7,9.7h320.2c5.4,0,9.7-4.4,9.7-9.7v-79
			C754.8,480.5,750.5,476.1,745.1,476.1z"/>
		<path class="st3" d="M745.1,476.1H424.9c-5.4,0-9.7,4.4-9.7,9.7v79c0,5.4,4.4,9.7,9.7,9.7h320.2c5.4,0,9.7-4.4,9.7-9.7v-79
			C754.8,480.5,750.5,476.1,745.1,476.1z"/>
	</g>
</g>
<g>
	
		<image style="overflow:visible;opacity:0.25;" width="1679" height="715" xlink:href="101FC0D3.png"  transform="matrix(0.24 0 0 0.24 3.772931e-02 147.8475)">
	</image>
	<g>
		<path class="st2" d="M366.3,270.1v-79c0-5.4-4.4-9.7-9.7-9.7H46.4c-5.4,0-9.7,4.4-9.7,9.7v79c0,5.4,4.4,9.7,9.7,9.7h310.2
			C361.9,279.9,366.3,275.5,366.3,270.1z"/>
		<path class="st3" d="M366.3,270.1v-79c0-5.4-4.4-9.7-9.7-9.7H46.4c-5.4,0-9.7,4.4-9.7,9.7v79c0,5.4,4.4,9.7,9.7,9.7h310.2
			C361.9,279.9,366.3,275.5,366.3,270.1z"/>
	</g>
</g>
<g>
	
		<image style="overflow:visible;opacity:0.25;" width="1596" height="717" xlink:href="101FC0D0.png"  transform="matrix(0.24 0 0 0.24 378.9977 147.3675)">
	</image>
	<g>
		<path class="st2" d="M415.7,190.7v79.4c0,5.4,4.4,9.8,9.7,9.8h290.2c5.4,0,9.7-4.4,9.7-9.8v-79.4c0-5.4-4.4-9.8-9.7-9.8H425.4
			C420,180.9,415.7,185.3,415.7,190.7z"/>
		<path class="st4" d="M415.7,190.7v79.4c0,5.4,4.4,9.8,9.7,9.8h290.2c5.4,0,9.7-4.4,9.7-9.8v-79.4c0-5.4-4.4-9.8-9.7-9.8H425.4
			C420,180.9,415.7,185.3,415.7,190.7z"/>
	</g>
</g>
<g>
	<g>
		<path class="st5" d="M369.8,81.8H265.2c-1.3,0-2.4-1.1-2.4-2.4V52.7c0-1.3,1.1-2.4,2.4-2.4h104.6c1.3,0,2.4,1.1,2.4,2.4v26.7
			C372.2,80.7,371.1,81.8,369.8,81.8z M265.2,51.2c-0.8,0-1.5,0.7-1.5,1.5v26.7c0,0.8,0.7,1.5,1.5,1.5h104.6c0.8,0,1.5-0.7,1.5-1.5
			V52.7c0-0.8-0.7-1.5-1.5-1.5H265.2z"/>
	</g>
</g>
<g>
	<circle class="st6" cx="245.1" cy="65.5" r="8.8"/>
</g>
<g>
	<g>
		<path class="st7" d="M244.1,68.8c-0.1,0.1-0.2,0.1-0.3,0.1c-0.1,0-0.2,0-0.3-0.1l-2.6-2.6c-0.3-0.3-0.3-0.7,0-1l0.3-0.3
			c0.3-0.3,0.7-0.3,1,0l1.6,1.6l4.4-4.4c0.3-0.3,0.7-0.3,1,0l0.3,0.3c0.3,0.3,0.3,0.7,0,1L244.1,68.8z"/>
	</g>
</g>
<g>
	<circle class="st8" cx="516" cy="54.3" r="2.2"/>
</g>
<g>
	<circle class="st8" cx="516" cy="60.5" r="2.2"/>
</g>
<g>
	<circle class="st8" cx="516" cy="66.6" r="2.2"/>
</g>
<g>
	<g>
		<path class="st9" d="M516,106.7c-0.2,0-0.5-0.1-0.7-0.3l-5.7-5.7c-0.4-0.4-0.4-1,0-1.3c0.4-0.4,1-0.4,1.3,0l5.1,5.1l5.1-5.1
			c0.4-0.4,1-0.4,1.3,0c0.4,0.4,0.4,1,0,1.3l-5.7,5.7C516.5,106.6,516.2,106.7,516,106.7z"/>
	</g>
</g>
<g>
	<g>
		<path class="st5" d="M221.7,523.6H131c-1.3,0-2.4-1.1-2.4-2.4v-26.9c0-1.3,1.1-2.4,2.4-2.4h90.6c1.3,0,2.4,1.1,2.4,2.4v26.9
			C224,522.6,223,523.6,221.7,523.6z M131,492.9c-0.8,0-1.5,0.7-1.5,1.5v26.9c0,0.8,0.7,1.5,1.5,1.5h90.6c0.8,0,1.5-0.7,1.5-1.5
			v-26.9c0-0.8-0.7-1.5-1.5-1.5H131z"/>
	</g>
</g>
<g>
	<circle class="st6" cx="111" cy="507.9" r="8.8"/>
</g>
<g>
	<g>
		<path class="st7" d="M109.9,511.3c-0.1,0.1-0.2,0.1-0.3,0.1c-0.1,0-0.2,0-0.3-0.1l-2.6-2.6c-0.3-0.3-0.3-0.7,0-1l0.3-0.3
			c0.3-0.3,0.7-0.3,1,0l1.6,1.6l4.4-4.4c0.3-0.3,0.7-0.3,1,0l0.3,0.3c0.3,0.3,0.3,0.7,0,1L109.9,511.3z"/>
	</g>
</g>
<g>
	<circle class="st8" cx="341.8" cy="496.2" r="2.2"/>
</g>
<g>
	<circle class="st8" cx="341.9" cy="502.9" r="2.2"/>
</g>
<g>
	<circle class="st8" cx="341.9" cy="509.1" r="2.2"/>
</g>
<g>
	<g>
		<path class="st5" d="M528.6,523.6h-69.1c-1.3,0-2.4-1.1-2.4-2.4v-26.9c0-1.3,1.1-2.4,2.4-2.4h69.1c1.3,0,2.4,1.1,2.4,2.4v26.9
			C531,522.6,529.9,523.6,528.6,523.6z M459.5,492.9c-0.8,0-1.5,0.7-1.5,1.5v26.9c0,0.8,0.7,1.5,1.5,1.5h69.1c0.8,0,1.5-0.7,1.5-1.5
			v-26.9c0-0.8-0.7-1.5-1.5-1.5H459.5z"/>
	</g>
</g>
<g>
	<circle class="st6" cx="439.5" cy="507.9" r="8.8"/>
</g>
<g>
	<g>
		<path class="st7" d="M438.4,511.3c-0.1,0.1-0.2,0.1-0.3,0.1s-0.2,0-0.3-0.1l-2.6-2.6c-0.3-0.3-0.3-0.7,0-1l0.3-0.3
			c0.3-0.3,0.7-0.3,1,0l1.6,1.6l4.4-4.4c0.3-0.3,0.7-0.3,1,0l0.3,0.3c0.3,0.3,0.3,0.7,0,1L438.4,511.3z"/>
	</g>
</g>
<g>
	<circle class="st8" cx="730.3" cy="496.2" r="2.2"/>
</g>
<g>
	<circle class="st8" cx="730.3" cy="502.9" r="2.2"/>
</g>
<g>
	<circle class="st8" cx="730.3" cy="509.1" r="2.2"/>
</g>
<g>
	<g>
		<path class="st10" d="M471,508.3c-1,0-1.8,0.8-1.8,1.8v4.5c0,1,0.8,1.8,1.8,1.8c1,0,1.8-0.8,1.8-1.8v-4.5
			C472.8,509.1,472,508.3,471,508.3L471,508.3z M464.7,510.1c0,1,0.9,1.8,1.9,1.7c1,0,1.7-0.8,1.7-1.7v-1.8h-1.8
			C465.5,508.3,464.7,509.1,464.7,510.1z"/>
	</g>
	<g>
		<path class="st11" d="M471,499.3L471,499.3c-1,0-1.8,0.9-1.8,1.9c0,1,0.8,1.7,1.7,1.7h1.8v-1.8C472.8,500.1,472,499.3,471,499.3z
			 M466.5,507.4h4.5c1,0,1.8-0.9,1.7-1.9c0-1-0.8-1.7-1.7-1.7h-4.5c-1,0-1.8,0.9-1.7,1.9C464.8,506.6,465.5,507.3,466.5,507.4z"/>
	</g>
	<g>
		<path class="st12" d="M480,503.8c-1,0-1.8,0.8-1.8,1.8v1.8h1.8c1,0,1.8-0.9,1.7-1.9C481.7,504.6,480.9,503.8,480,503.8L480,503.8
			L480,503.8z M473.7,501.1v4.5c0,1,0.8,1.8,1.8,1.8c1,0,1.8-0.8,1.8-1.8v-4.5c0-1-0.8-1.8-1.8-1.8
			C474.5,499.3,473.7,500.1,473.7,501.1L473.7,501.1z"/>
	</g>
	<g>
		<g>
			<path class="st13" d="M477.3,514.6c0-1-0.8-1.8-1.8-1.8h-1.8v1.8c0,1,0.8,1.8,1.8,1.8C476.5,516.4,477.3,515.6,477.3,514.6z
				 M480,508.3h-4.5c-1,0-1.8,0.9-1.7,1.9c0,1,0.8,1.7,1.7,1.7h4.5c1,0,1.8-0.9,1.7-1.9C481.7,509.1,481,508.3,480,508.3z"/>
		</g>
	</g>
</g>
<g>
	<rect x="294.1" y="132.6" class="st8" width="1.1" height="15"/>
	<rect x="294.1" y="165.9" class="st8" width="1.1" height="15"/>
	<polygon class="st8" points="295.2,156 295.2,151.4 294.1,151.4 294.1,156 289.4,156 289.4,157.2 294.1,157.2 294.1,161.8 
		295.2,161.8 295.2,157.2 299.8,157.2 299.8,156 	"/>
</g>
<g>
	
		<image style="overflow:visible;opacity:0.25;" width="1554" height="591" xlink:href="101FC0DE.png"  transform="matrix(0.24 0 0 0.24 194.3177 309.0075)">
	</image>
	<g>
		<path class="st14" d="M225.6,328.7c-5.4,0-9.7,4.4-9.7,9.7v79c0,5.4,4.4,9.7,9.7,9.7h310.2c5.4,0,9.7-4.4,9.7-9.7v-79
			c0-5.4-4.4-9.7-9.7-9.7H225.6z"/>
		<path class="st15" d="M225.6,328.7c-5.4,0-9.7,4.4-9.7,9.7v79c0,5.4,4.4,9.7,9.7,9.7h310.2c5.4,0,9.7-4.4,9.7-9.7v-79
			c0-5.4-4.4-9.7-9.7-9.7H225.6z"/>
	</g>
</g>
<g>
	<g>
		<path class="st5" d="M331,377.7h-70.7c-1.3,0-2.4-1.1-2.4-2.4v-27c0-1.3,1.1-2.4,2.4-2.4H331c1.3,0,2.4,1.1,2.4,2.4v27
			C333.3,376.6,332.3,377.7,331,377.7z M260.3,346.8c-0.8,0-1.5,0.7-1.5,1.5v27c0,0.8,0.7,1.5,1.5,1.5H331c0.8,0,1.5-0.7,1.5-1.5
			v-27c0-0.8-0.7-1.5-1.5-1.5H260.3z"/>
	</g>
</g>
<g>
	<circle class="st6" cx="240.2" cy="360.6" r="8.8"/>
</g>
<g>
	<g>
		<path class="st7" d="M239.1,363.9c-0.1,0.1-0.2,0.1-0.3,0.1s-0.2,0-0.3-0.1l-2.6-2.6c-0.3-0.3-0.3-0.7,0-1l0.3-0.3
			c0.3-0.3,0.7-0.3,1,0l1.6,1.6l4.4-4.4c0.3-0.3,0.7-0.3,1,0l0.3,0.3c0.3,0.3,0.3,0.7,0,1L239.1,363.9z"/>
	</g>
</g>
<g>
	<g>
		<circle class="st8" cx="520.5" cy="349.4" r="2.2"/>
	</g>
	<g>
		<circle class="st8" cx="520.5" cy="355.5" r="2.2"/>
	</g>
	<g>
		<circle class="st8" cx="520.5" cy="361.7" r="2.2"/>
	</g>
</g>
<g>
	<g>
		<g>
			<path class="st16" d="M280.3,363.4l-2,3.4l-2-3.4h1.5v-5.7h-5.7v-0.8l6.6,0v6.5h0.2H280.3z"/>
		</g>
		<g>
			<path class="st16" d="M280.3,363.4l-2,3.4l-2-3.4h2.6H280.3z"/>
		</g>
	</g>
	<g>
		<g>
			<path class="st16" d="M268.7,353.6h0.9v13.1h0.2h1.3l-2,3.4l-2-3.4h1.5v-12.3L268.7,353.6z"/>
		</g>
		<g>
			<path class="st16" d="M271.1,366.7l-2,3.4l-2-3.4h2.6H271.1z"/>
		</g>
	</g>
</g>
<g>
	<g>
		<rect x="314.7" y="280.4" class="st8" width="1.1" height="15"/>
		<rect x="314.7" y="299.2" class="st8" width="1.1" height="10.4"/>
		<rect x="314.7" y="313.7" class="st8" width="1.1" height="15"/>
		
			<rect x="314.7" y="299.2" transform="matrix(-1.836970e-16 1 -1 -1.836970e-16 619.6573 -10.8284)" class="st8" width="1.1" height="10.4"/>
	</g>
	<g>
		<rect x="445.7" y="280.4" class="st8" width="1.1" height="15"/>
		<rect x="445.7" y="299.2" class="st8" width="1.1" height="10.4"/>
		<rect x="445.7" y="313.7" class="st8" width="1.1" height="15"/>
		
			<rect x="445.7" y="299.2" transform="matrix(-1.836970e-16 1 -1 -1.836970e-16 750.6573 -141.8284)" class="st8" width="1.1" height="10.4"/>
	</g>
</g>
<g>
	<g>
		<rect x="314.7" y="427.2" class="st8" width="1.1" height="15"/>
		<rect x="314.7" y="446" class="st8" width="1.1" height="10.4"/>
		<rect x="314.7" y="460.5" class="st8" width="1.1" height="15"/>
		
			<rect x="314.7" y="446" transform="matrix(-1.836970e-16 1 -1 -1.836970e-16 766.4586 135.9729)" class="st8" width="1.1" height="10.4"/>
	</g>
	<g>
		<rect x="445.7" y="427.2" class="st8" width="1.1" height="15"/>
		<rect x="445.7" y="446" class="st8" width="1.1" height="10.4"/>
		<rect x="445.7" y="460.5" class="st8" width="1.1" height="15"/>
		
			<rect x="445.7" y="446" transform="matrix(-1.836970e-16 1 -1 -1.836970e-16 897.4586 4.9729)" class="st8" width="1.1" height="10.4"/>
	</g>
</g>
<g>
	<g>
		<g>
			<g>
				<path class="st8" d="M173.8,229.6H81c-1.3,0-2.4-1.1-2.4-2.4v-26.7c0-1.3,1.1-2.4,2.4-2.4h92.7c1.3,0,2.4,1.1,2.4,2.4v26.7
					C176.1,228.5,175.1,229.6,173.8,229.6z M81,199c-0.8,0-1.5,0.7-1.5,1.5v26.7c0,0.8,0.7,1.5,1.5,1.5h92.7c0.8,0,1.5-0.7,1.5-1.5
					v-26.7c0-0.8-0.7-1.5-1.5-1.5H81z"/>
			</g>
			<g>
				<path class="st17" d="M173.8,229.6H81c-1.3,0-2.4-1.1-2.4-2.4v-26.7c0-1.3,1.1-2.4,2.4-2.4h92.7c1.3,0,2.4,1.1,2.4,2.4v26.7
					C176.1,228.5,175.1,229.6,173.8,229.6z M81,199c-0.8,0-1.5,0.7-1.5,1.5v26.7c0,0.8,0.7,1.5,1.5,1.5h92.7c0.8,0,1.5-0.7,1.5-1.5
					v-26.7c0-0.8-0.7-1.5-1.5-1.5H81z"/>
			</g>
		</g>
	</g>
</g>
<g>
	<circle class="st6" cx="60.9" cy="213.3" r="8.8"/>
</g>
<g>
	<g>
		<path class="st7" d="M59.9,216.6c-0.1,0.1-0.2,0.1-0.3,0.1c-0.1,0-0.2,0-0.3-0.1l-2.6-2.6c-0.3-0.3-0.3-0.7,0-1l0.3-0.3
			c0.3-0.3,0.7-0.3,1,0l1.6,1.6l4.4-4.4c0.3-0.3,0.7-0.3,1,0l0.3,0.3c0.3,0.3,0.3,0.7,0,1L59.9,216.6z"/>
	</g>
</g>
<g>
	<g>
		<path class="st18" d="M104.5,205c0,5.9,0,11.7,0,17.6c0,0.2,0,0.2-0.2,0.2c-5.8,0-11.6,0-17.5,0c-0.2,0-0.2,0-0.2-0.2
			c0-5.9,0-11.7,0-17.6c0.1,0,0.2,0,0.2,0c5.8,0,11.6,0,17.4,0C104.4,204.9,104.4,204.9,104.5,205z"/>
		<path class="st19" d="M104.5,205c-6,0-11.9,0-17.9,0c0-0.1,0.1,0,0.2,0c2.6,0,5.2,0,7.8,0c3.2,0,6.5,0,9.7,0
			C104.4,204.9,104.5,204.9,104.5,205z"/>
		<path class="st20" d="M95.5,215.1c-0.8,0.8-1.7,1.3-2.7,1.7c-0.7,0.3-1.4,0.4-2.2,0.5c-0.3,0-0.3,0-0.3-0.2c0-0.8,0-1.5,0-2.3
			c0-0.2,0-0.2,0.2-0.3c0.8-0.1,1.5-0.4,2.2-0.9c0.1-0.1,0.1-0.1,0.2-0.2c-0.1-0.1-0.2,0-0.2,0c-0.7,0-1.4,0-2.1,0
			c-0.2,0-0.2,0-0.2-0.2c0-0.9,0-1.7,0-2.6c0-0.2,0.1-0.2,0.2-0.2c0.9,0,1.7,0,2.6,0c0.2,0,0.2,0.1,0.2,0.2c0,0.7,0,1.3,0,2
			c0,0.1,0,0.2,0,0.2c0.1,0,0.1-0.1,0.1-0.1c0.3-0.7,0.7-1.4,1-2.1c0.1-0.2,0.2-0.2,0.4-0.2c0.6,0,1.2,0,1.8,0c0.2,0,0.2,0,0.2,0.2
			c0,0.6,0,1.3,0,1.9c0,0.1,0,0.2,0,0.3c0,0,0,0,0.1,0c0.2-0.4,0.4-0.8,0.6-1.2c0-0.1,0.1-0.2,0.2-0.3c0.2-0.3,0.3-0.6,0.5-0.9
			c0-0.1,0.1-0.1,0.2-0.1c1,0,2,0,2.9,0c0.2,0,0.2,0.1,0.1,0.2c-0.1,0.2-0.2,0.4-0.3,0.6c-0.1,0.1,0,0.3-0.2,0.4
			c-0.2,0.4-0.4,0.8-0.7,1.3c-0.3,0.5-0.5,1.1-0.8,1.6c-0.4,0.8-0.8,1.5-1.2,2.3c0,0,0,0,0,0.1c-0.1,0.5-0.4,0.6-0.9,0.5
			c-0.8,0-1.7,0-2.5,0c-0.2,0-0.2,0-0.1-0.2c0.3-0.6,0.6-1.1,0.9-1.7c0.1-0.2,0.1-0.5,0.3-0.6c0,0,0,0,0,0
			C95.8,214.9,95.7,215,95.5,215.1z"/>
		<path class="st21" d="M95.5,215.1c0.1-0.2,0.3-0.3,0.4-0.5c0.1,0,0.1,0.1,0,0.1c-0.1,0.2-0.2,0.5-0.4,0.7c0-0.1,0-0.1,0-0.2
			C95.7,215.1,95.6,215.1,95.5,215.1z"/>
		<path class="st22" d="M100.9,211.5c0.1-0.1,0.1-0.2,0.2-0.4C101.1,211.3,101.2,211.5,100.9,211.5z"/>
		<path class="st23" d="M97.7,211.4c0,0.1-0.1,0.2-0.2,0.3C97.5,211.5,97.6,211.4,97.7,211.4z"/>
		<path class="st24" d="M96,214.7c0,0,0-0.1,0-0.1c0-0.1,0.1-0.1,0.2-0.2C96.1,214.6,96,214.7,96,214.7z"/>
	</g>
</g>
<g>
	<circle class="st8" cx="341.8" cy="202" r="2.2"/>
</g>
<g>
	<circle class="st8" cx="341.8" cy="208.2" r="2.2"/>
</g>
<g>
	<circle class="st8" cx="341.8" cy="214.4" r="2.2"/>
</g>
<g>
	<ellipse class="st8" cx="700.8" cy="202.8" rx="2.2" ry="2.3"/>
</g>
<g>
	<ellipse class="st8" cx="700.8" cy="209.4" rx="2.2" ry="2.3"/>
</g>
<g>
	<ellipse class="st8" cx="700.8" cy="216" rx="2.2" ry="2.3"/>
</g>
<g>
	<ellipse class="st6" cx="445.6" cy="213.6" rx="9.4" ry="9.9"/>
</g>
<g>
	<g>
		<path class="st25" d="M445.6,212.1v-3.3c0-0.2-0.2-0.4-0.4-0.4c-0.1,0-0.3,0.1-0.3,0.2l-2.7,5.4c-0.2,0.4,0,0.8,0.3,1
			c0.1,0.1,0.2,0.1,0.3,0.1h2.7v3.3c0,0.2,0.2,0.4,0.4,0.4c0.1,0,0.3-0.1,0.3-0.2l2.7-5.4c0.2-0.4,0-0.8-0.3-1
			c-0.1-0.1-0.2-0.1-0.3-0.1L445.6,212.1z"/>
	</g>
</g>
<g>
	
		<rect x="407.1" y="225.8" transform="matrix(-1.836970e-16 1 -1 -1.836970e-16 640.992 -174.2896)" class="st8" width="1.1" height="15"/>
	
		<rect x="390.5" y="228.1" transform="matrix(-1.836970e-16 1 -1 -1.836970e-16 624.4547 -157.7522)" class="st8" width="1.1" height="10.4"/>
	
		<rect x="373.7" y="225.8" transform="matrix(-1.836970e-16 1 -1 -1.836970e-16 607.6395 -140.937)" class="st8" width="1.1" height="15"/>
	
		<rect x="390.5" y="228.1" transform="matrix(-1 -1.224647e-16 1.224647e-16 -1 782.207 466.7025)" class="st8" width="1.1" height="10.4"/>
</g>
<g>
	<path class="st26" d="M137.3,499.7l9.8-0.7c1.2-0.1,1.5,0,2.3,0.5l3.1,2.2c0.5,0.4,0.7,0.5,0.7,0.9v12.1c0,0.8-0.3,1.2-1.2,1.3
		l-11.4,0.7c-0.7,0-1.1-0.1-1.4-0.5l-2.3-3c-0.4-0.6-0.6-1-0.6-1.4V501C136.3,500.3,136.5,499.8,137.3,499.7L137.3,499.7z"/>
	<path class="st27" d="M147.1,499l-9.8,0.7c-0.8,0.1-1.1,0.6-1.1,1.2v10.7c0,0.5,0.2,0.9,0.6,1.4l2.3,3c0.4,0.5,0.7,0.6,1.4,0.5
		l11.4-0.7c1-0.1,1.2-0.5,1.2-1.3v-12.1c0-0.4-0.1-0.5-0.6-0.8c0,0-0.1,0-0.1-0.1l-3.1-2.2C148.6,499,148.3,498.9,147.1,499
		L147.1,499z M140.8,502.4c-0.9,0.1-1.1,0.1-1.7-0.4l-1.3-1c-0.1-0.1-0.1-0.3,0.3-0.3l9.4-0.7c0.8-0.1,1.2,0.2,1.5,0.5l1.6,1.2
		c0.1,0,0.3,0.2,0,0.2l-9.7,0.6H140.8z M139.8,514.6v-10.3c0-0.5,0.1-0.6,0.5-0.7l11.2-0.6c0.4,0,0.5,0.2,0.5,0.6v10.2
		c0,0.5-0.1,0.8-0.7,0.8l-10.7,0.6C140,515.4,139.8,515.1,139.8,514.6L139.8,514.6z M150.3,504.9c0.1,0.3,0,0.6-0.3,0.6l-0.5,0.1
		v7.6c-0.5,0.3-0.8,0.4-1.2,0.4c-0.5,0-0.7-0.2-1.1-0.7l-3.4-5.3v5.1l1.1,0.3c0,0,0,0.6-0.8,0.6l-2.4,0.1c-0.1-0.1,0-0.5,0.2-0.5
		l0.6-0.2v-6.8l-0.8-0.1c-0.1-0.3,0.1-0.8,0.6-0.8l2.5-0.2l3.5,5.4v-4.7l-0.9-0.1c-0.1-0.4,0.2-0.6,0.5-0.7L150.3,504.9z"/>
</g>
<g>
	<path class="st20" d="M112,209.6l1.4,5.9l0.3,1.7l0.3-1.6l1.2-6h2.3l1.2,5.9l0.3,1.7l0.3-1.6l1.4-6h2.2L120,220h-2.1l-1.3-6.1
		l-0.4-2l-0.4,2l-1.3,6.1h-2l-2.9-10.4H112z"/>
	<path class="st20" d="M128.8,212.4c0.5,0.2,1,0.6,1.3,1.1c0.3,0.5,0.5,1,0.6,1.6c0.1,0.4,0.1,0.9,0.1,1.5h-5.6
		c0,0.8,0.3,1.3,0.8,1.6c0.3,0.2,0.7,0.3,1.1,0.3c0.5,0,0.8-0.1,1.1-0.4c0.2-0.1,0.3-0.3,0.4-0.5h2.1c-0.1,0.5-0.3,0.9-0.7,1.4
		c-0.7,0.7-1.7,1.1-2.9,1.1c-1,0-1.9-0.3-2.7-0.9c-0.8-0.6-1.2-1.7-1.2-3.1c0-1.3,0.4-2.4,1.1-3.1c0.7-0.7,1.6-1.1,2.7-1.1
		C127.7,212.1,128.3,212.2,128.8,212.4z M125.8,214.2c-0.3,0.3-0.5,0.7-0.5,1.2h3.5c0-0.5-0.2-0.9-0.5-1.2c-0.3-0.3-0.7-0.4-1.2-0.4
		C126.5,213.7,126.1,213.9,125.8,214.2z"/>
	<path class="st20" d="M138.4,213.2c0.6,0.7,0.9,1.7,0.9,2.8c0,1.2-0.3,2.2-0.8,3c-0.6,0.8-1.4,1.2-2.4,1.2c-0.6,0-1.1-0.1-1.5-0.4
		c-0.2-0.2-0.5-0.4-0.8-0.8v1h-2v-10.4h2v3.7c0.3-0.4,0.5-0.6,0.8-0.8c0.4-0.2,0.8-0.4,1.4-0.4C137,212.1,137.8,212.5,138.4,213.2z
		 M136.7,217.9c0.3-0.4,0.4-1,0.4-1.6c0-0.5-0.1-1-0.2-1.4c-0.3-0.7-0.8-1-1.5-1c-0.7,0-1.2,0.3-1.5,1c-0.1,0.4-0.2,0.8-0.2,1.4
		c0,0.7,0.1,1.2,0.4,1.6c0.3,0.4,0.7,0.6,1.3,0.6C136,218.5,136.4,218.3,136.7,217.9z"/>
	<path class="st20" d="M143.9,209.5c0.1,0,0.2,0,0.4,0v1.6c-0.1,0-0.3,0-0.6,0c-0.3,0-0.4,0.1-0.5,0.2c-0.1,0.1-0.2,0.3-0.2,0.4
		s0,0.4,0,0.6h1.3v1.4H143v6.2h-2v-6.2h-1.1v-1.4h1.1v-0.5c0-0.8,0.1-1.4,0.4-1.7c0.3-0.5,1-0.7,2.1-0.7
		C143.6,209.5,143.8,209.5,143.9,209.5z"/>
	<path class="st20" d="M147.5,220h-2v-10.4h2V220z"/>
	<path class="st20" d="M155.9,219c-0.6,0.8-1.6,1.2-3,1.2s-2.3-0.4-3-1.2s-1-1.8-1-2.9c0-1.1,0.3-2.1,1-2.9c0.6-0.8,1.6-1.2,3-1.2
		s2.3,0.4,3,1.2c0.6,0.8,1,1.8,1,2.9C156.9,217.3,156.5,218.2,155.9,219z M154.3,217.9c0.3-0.4,0.5-1,0.5-1.8c0-0.8-0.2-1.4-0.5-1.8
		c-0.3-0.4-0.8-0.6-1.4-0.6c-0.6,0-1,0.2-1.4,0.6c-0.3,0.4-0.5,1-0.5,1.8c0,0.8,0.2,1.4,0.5,1.8c0.3,0.4,0.8,0.6,1.4,0.6
		C153.5,218.6,154,218.3,154.3,217.9z"/>
	<path class="st20" d="M161.9,212.3h2l1.2,5.5l1.2-5.5h2.1l-2.2,7.7h-2.1l-1.2-5.6l-1.2,5.6h-2.1l-2.2-7.7h2.2l1.2,5.5L161.9,212.3z
		"/>
</g>
<g>
	<path class="st20" d="M464.1,208h2.5l3.7,10.4h-2.4l-0.7-2.1h-3.8l-0.7,2.1h-2.3L464.1,208z M464,214.4h2.7l-1.3-4.1L464,214.4z"/>
	<path class="st20" d="M476,213.4c0-0.3-0.1-0.5-0.3-0.8c-0.2-0.3-0.6-0.5-1.1-0.5c-0.7,0-1.1,0.3-1.4,1c-0.1,0.4-0.2,0.8-0.2,1.4
		c0,0.6,0.1,1,0.2,1.4c0.2,0.6,0.7,1,1.4,1c0.5,0,0.8-0.1,1-0.4c0.2-0.3,0.3-0.6,0.4-1h2.1c0,0.6-0.3,1.2-0.7,1.7
		c-0.6,0.9-1.6,1.3-2.8,1.3s-2.1-0.4-2.7-1.1s-0.9-1.7-0.9-2.9c0-1.3,0.3-2.3,1-3.1s1.5-1.1,2.7-1.1c1,0,1.8,0.2,2.4,0.6
		c0.6,0.4,1,1.2,1.1,2.3H476z"/>
	<path class="st20" d="M478.6,212.2v-1.4h1.1v-2.1h2v2.1h1.2v1.4h-1.2v4.1c0,0.3,0,0.5,0.1,0.6c0.1,0.1,0.3,0.1,0.7,0.1
		c0.1,0,0.1,0,0.2,0c0.1,0,0.1,0,0.2,0v1.5l-1,0c-0.9,0-1.6-0.1-1.9-0.5c-0.2-0.2-0.3-0.6-0.3-1.1v-4.7H478.6z"/>
	<path class="st20" d="M486.3,209.8h-2v-1.9h2V209.8z M484.3,210.7h2v7.7h-2V210.7z"/>
	<path class="st20" d="M494.6,217.4c-0.6,0.8-1.6,1.2-3,1.2s-2.3-0.4-3-1.2s-1-1.8-1-2.9c0-1.1,0.3-2.1,1-2.9c0.6-0.8,1.6-1.2,3-1.2
		s2.3,0.4,3,1.2c0.6,0.8,1,1.8,1,2.9C495.6,215.7,495.3,216.6,494.6,217.4z M493,216.3c0.3-0.4,0.5-1,0.5-1.8c0-0.8-0.2-1.4-0.5-1.8
		c-0.3-0.4-0.8-0.6-1.4-0.6c-0.6,0-1,0.2-1.4,0.6c-0.3,0.4-0.5,1-0.5,1.8c0,0.8,0.2,1.4,0.5,1.8c0.3,0.4,0.8,0.6,1.4,0.6
		C492.3,216.9,492.7,216.7,493,216.3z"/>
	<path class="st20" d="M503.3,211.1c0.5,0.4,0.8,1.1,0.8,2.1v5.2h-2.1v-4.7c0-0.4-0.1-0.7-0.2-0.9c-0.2-0.4-0.6-0.6-1.1-0.6
		c-0.7,0-1.1,0.3-1.4,0.9c-0.1,0.3-0.2,0.7-0.2,1.2v4.2h-2v-7.7h1.9v1.1c0.3-0.4,0.5-0.7,0.7-0.9c0.4-0.3,0.9-0.5,1.6-0.5
		C502.1,210.5,502.8,210.7,503.3,211.1z"/>
</g>
<g>
	<path class="st20" d="M292.1,362.2c-0.6,0.5-1.5,0.8-2.6,0.8h-2.2v3.7h-2.2v-10.4h4.5c1,0,1.8,0.3,2.5,0.8s0.9,1.4,0.9,2.5
		C293,360.8,292.7,361.7,292.1,362.2z M290.5,358.5c-0.3-0.2-0.7-0.3-1.2-0.3h-2v3.1h2c0.5,0,0.9-0.1,1.2-0.4
		c0.3-0.2,0.4-0.6,0.4-1.2C290.9,359.1,290.7,358.7,290.5,358.5z"/>
	<path class="st20" d="M297.7,362c0.4,0,0.6-0.1,0.8-0.2c0.3-0.1,0.4-0.3,0.4-0.6c0-0.3-0.1-0.5-0.3-0.7c-0.2-0.1-0.5-0.2-1-0.2
		c-0.5,0-0.8,0.1-1,0.4c-0.1,0.2-0.2,0.4-0.3,0.7h-1.9c0-0.7,0.2-1.2,0.6-1.7c0.5-0.7,1.4-1,2.7-1c0.8,0,1.6,0.2,2.3,0.5s1,1,1,1.9
		v3.5c0,0.2,0,0.5,0,0.9c0,0.3,0.1,0.4,0.1,0.5c0.1,0.1,0.2,0.2,0.3,0.2v0.3h-2.2c-0.1-0.2-0.1-0.3-0.1-0.4s0-0.3-0.1-0.5
		c-0.3,0.3-0.6,0.6-1,0.8c-0.4,0.2-0.9,0.4-1.5,0.4c-0.7,0-1.3-0.2-1.7-0.6s-0.7-1-0.7-1.7c0-0.9,0.4-1.6,1.1-2.1
		c0.4-0.2,1-0.4,1.8-0.5L297.7,362z M298.9,363c-0.1,0.1-0.3,0.1-0.4,0.2s-0.3,0.1-0.5,0.1l-0.5,0.1c-0.4,0.1-0.7,0.2-0.9,0.3
		c-0.3,0.2-0.5,0.5-0.5,0.9c0,0.3,0.1,0.6,0.3,0.7c0.2,0.2,0.4,0.2,0.7,0.2c0.4,0,0.8-0.1,1.2-0.4c0.4-0.3,0.6-0.7,0.6-1.4V363z"/>
	<path class="st20" d="M301.9,360.5v-1.4h1.1v-2.1h2v2.1h1.2v1.4h-1.2v4.1c0,0.3,0,0.5,0.1,0.6c0.1,0.1,0.3,0.1,0.7,0.1
		c0.1,0,0.1,0,0.2,0c0.1,0,0.1,0,0.2,0v1.5l-1,0c-0.9,0-1.6-0.1-1.9-0.5c-0.2-0.2-0.3-0.6-0.3-1.1v-4.7H301.9z"/>
	<path class="st20" d="M313,359c0.4,0.2,0.7,0.4,1,0.8c0.2,0.3,0.3,0.6,0.4,0.9s0.1,0.8,0.1,1.5v4.5h-2.1V362c0-0.4-0.1-0.7-0.2-1
		c-0.2-0.4-0.5-0.5-1-0.5c-0.5,0-0.9,0.2-1.2,0.5c-0.3,0.4-0.4,0.9-0.4,1.5v4.2h-2v-10.4h2v3.7c0.3-0.4,0.6-0.8,1-0.9
		c0.4-0.2,0.8-0.3,1.2-0.3C312.2,358.8,312.6,358.9,313,359z"/>
	<path class="st20" d="M317.8,364.2c0,0.4,0.1,0.6,0.3,0.8c0.2,0.3,0.7,0.4,1.4,0.4c0.4,0,0.7-0.1,0.9-0.2c0.2-0.1,0.4-0.3,0.4-0.5
		c0-0.2-0.1-0.4-0.3-0.5c-0.2-0.1-0.9-0.3-2.1-0.6c-0.9-0.2-1.5-0.5-1.8-0.8c-0.4-0.3-0.5-0.8-0.5-1.4c0-0.7,0.3-1.3,0.8-1.8
		c0.6-0.5,1.3-0.8,2.4-0.8c1,0,1.7,0.2,2.3,0.6c0.6,0.4,1,1,1,2h-2c0-0.3-0.1-0.5-0.2-0.6c-0.2-0.3-0.6-0.4-1.1-0.4
		c-0.4,0-0.8,0.1-0.9,0.2c-0.2,0.1-0.3,0.3-0.3,0.5c0,0.2,0.1,0.4,0.3,0.5c0.2,0.1,0.9,0.3,2.1,0.6c0.8,0.2,1.4,0.5,1.8,0.9
		c0.4,0.4,0.6,0.9,0.6,1.4c0,0.8-0.3,1.4-0.9,1.9c-0.6,0.5-1.4,0.7-2.6,0.7c-1.2,0-2.1-0.3-2.7-0.8c-0.6-0.5-0.9-1.2-0.9-1.9H317.8z
		"/>
</g>
<g>
	<path class="st20" d="M158.5,503.4h2.3l4.1,7.2v-7.2h2v10.4h-2.2l-4.2-7.4v7.4h-2V503.4z"/>
	<path class="st20" d="M175.2,512.8c-0.6,0.8-1.6,1.2-3,1.2s-2.3-0.4-3-1.2s-1-1.8-1-2.9c0-1.1,0.3-2.1,1-2.9c0.6-0.8,1.6-1.2,3-1.2
		s2.3,0.4,3,1.2c0.6,0.8,1,1.8,1,2.9C176.2,511.1,175.9,512,175.2,512.8z M173.6,511.7c0.3-0.4,0.5-1,0.5-1.8c0-0.8-0.2-1.4-0.5-1.8
		c-0.3-0.4-0.8-0.6-1.4-0.6c-0.6,0-1,0.2-1.4,0.6c-0.3,0.4-0.5,1-0.5,1.8c0,0.8,0.2,1.4,0.5,1.8c0.3,0.4,0.8,0.6,1.4,0.6
		C172.9,512.4,173.3,512.2,173.6,511.7z"/>
	<path class="st20" d="M176.8,507.6v-1.4h1.1V504h2v2.1h1.2v1.4h-1.2v4.1c0,0.3,0,0.5,0.1,0.6s0.3,0.1,0.7,0.1c0.1,0,0.1,0,0.2,0
		c0.1,0,0.1,0,0.2,0v1.5l-1,0c-0.9,0-1.6-0.1-1.9-0.5c-0.2-0.2-0.3-0.6-0.3-1.1v-4.7H176.8z"/>
	<path class="st20" d="M184.5,505.2h-2v-1.9h2V505.2z M182.5,506.1h2v7.7h-2V506.1z"/>
	<path class="st20" d="M192.9,512.8c-0.6,0.8-1.6,1.2-3,1.2s-2.3-0.4-3-1.2s-1-1.8-1-2.9c0-1.1,0.3-2.1,1-2.9c0.6-0.8,1.6-1.2,3-1.2
		s2.3,0.4,3,1.2c0.6,0.8,1,1.8,1,2.9C193.8,511.1,193.5,512,192.9,512.8z M191.3,511.7c0.3-0.4,0.5-1,0.5-1.8c0-0.8-0.2-1.4-0.5-1.8
		c-0.3-0.4-0.8-0.6-1.4-0.6c-0.6,0-1,0.2-1.4,0.6c-0.3,0.4-0.5,1-0.5,1.8c0,0.8,0.2,1.4,0.5,1.8c0.3,0.4,0.8,0.6,1.4,0.6
		C190.5,512.4,190.9,512.2,191.3,511.7z"/>
	<path class="st20" d="M201.5,506.5c0.5,0.4,0.8,1.1,0.8,2.1v5.2h-2.1v-4.7c0-0.4-0.1-0.7-0.2-0.9c-0.2-0.4-0.6-0.6-1.1-0.6
		c-0.7,0-1.1,0.3-1.4,0.9c-0.1,0.3-0.2,0.7-0.2,1.2v4.2h-2v-7.7h1.9v1.1c0.3-0.4,0.5-0.7,0.7-0.9c0.4-0.3,0.9-0.5,1.6-0.5
		C200.3,505.9,201,506.1,201.5,506.5z"/>
</g>
<g>
	<path class="st20" d="M488.4,510.6c0.1,0.5,0.2,0.8,0.4,1.1c0.4,0.4,1,0.6,1.8,0.6c0.5,0,0.9-0.1,1.3-0.2c0.6-0.2,0.9-0.6,0.9-1.2
		c0-0.3-0.2-0.6-0.5-0.8c-0.3-0.2-0.8-0.3-1.4-0.5l-1.1-0.2c-1.1-0.2-1.9-0.5-2.3-0.8c-0.7-0.5-1.1-1.2-1.1-2.2c0-0.9,0.3-1.7,1-2.3
		c0.7-0.6,1.7-0.9,3-0.9c1.1,0,2.1,0.3,2.8,0.9c0.8,0.6,1.2,1.4,1.2,2.5h-2.1c0-0.6-0.3-1.1-0.8-1.3c-0.3-0.2-0.8-0.3-1.3-0.3
		c-0.6,0-1,0.1-1.4,0.3c-0.3,0.2-0.5,0.5-0.5,0.9c0,0.4,0.2,0.6,0.5,0.8c0.2,0.1,0.7,0.3,1.4,0.4l1.8,0.4c0.8,0.2,1.4,0.4,1.8,0.8
		c0.6,0.5,0.9,1.2,0.9,2.1c0,0.9-0.4,1.7-1.1,2.4c-0.7,0.6-1.8,0.9-3.1,0.9c-1.4,0-2.4-0.3-3.2-0.9c-0.8-0.6-1.2-1.5-1.2-2.5H488.4z
		"/>
	<path class="st20" d="M498.4,513.8h-2v-10.4h2V513.8z"/>
	<path class="st20" d="M503.4,509.1c0.4,0,0.6-0.1,0.8-0.2c0.3-0.1,0.4-0.3,0.4-0.6c0-0.3-0.1-0.5-0.3-0.7c-0.2-0.1-0.5-0.2-1-0.2
		c-0.5,0-0.8,0.1-1,0.4c-0.1,0.2-0.2,0.4-0.3,0.7H500c0-0.7,0.2-1.2,0.6-1.7c0.5-0.7,1.4-1,2.7-1c0.8,0,1.6,0.2,2.3,0.5
		c0.7,0.3,1,1,1,1.9v3.5c0,0.2,0,0.5,0,0.9c0,0.3,0.1,0.4,0.1,0.5c0.1,0.1,0.2,0.2,0.3,0.2v0.3h-2.2c-0.1-0.2-0.1-0.3-0.1-0.4
		s0-0.3-0.1-0.5c-0.3,0.3-0.6,0.6-1,0.8c-0.4,0.2-0.9,0.4-1.5,0.4c-0.7,0-1.3-0.2-1.7-0.6s-0.7-1-0.7-1.7c0-0.9,0.4-1.6,1.1-2.1
		c0.4-0.2,1-0.4,1.8-0.5L503.4,509.1z M504.6,510.1c-0.1,0.1-0.3,0.1-0.4,0.2s-0.3,0.1-0.5,0.1l-0.5,0.1c-0.4,0.1-0.7,0.2-0.9,0.3
		c-0.3,0.2-0.5,0.5-0.5,0.9c0,0.3,0.1,0.6,0.3,0.7c0.2,0.2,0.4,0.2,0.7,0.2c0.4,0,0.8-0.1,1.2-0.4s0.6-0.7,0.6-1.4V510.1z"/>
	<path class="st20" d="M512.9,508.9c0-0.3-0.1-0.5-0.3-0.8c-0.2-0.3-0.6-0.5-1.1-0.5c-0.7,0-1.1,0.3-1.4,1c-0.1,0.4-0.2,0.8-0.2,1.4
		c0,0.6,0.1,1,0.2,1.4c0.2,0.6,0.7,1,1.4,1c0.5,0,0.8-0.1,1-0.4c0.2-0.3,0.3-0.6,0.4-1h2.1c0,0.6-0.3,1.2-0.7,1.7
		c-0.6,0.9-1.6,1.3-2.8,1.3c-1.2,0-2.1-0.4-2.7-1.1c-0.6-0.7-0.9-1.7-0.9-2.9c0-1.3,0.3-2.3,1-3.1c0.6-0.7,1.5-1.1,2.7-1.1
		c1,0,1.8,0.2,2.4,0.6c0.6,0.4,1,1.2,1.1,2.3H512.9z"/>
	<path class="st20" d="M516.4,503.4h2v5.6l2.5-2.9h2.5l-2.8,2.9l2.9,4.8H521l-1.9-3.3l-0.8,0.9v2.4h-2V503.4z"/>
</g>
<g>
	<g>
		<path class="st16" d="M283.1,71.1c-0.1-0.2-0.3-0.4-0.5-0.3c-0.4,0-0.8,0.1-1.2,0.1c-3.3,0-6-2.7-6-6v-1.8c0-0.8,0.7-1.5,1.5-1.5
			h9.4c0.8,0,1.5,0.7,1.5,1.5l0,0v1.4c0,0.3,0.2,0.5,0.5,0.5l0,0h0.7c0.3,0,0.5-0.2,0.5-0.5l0,0v-1.4c0-1.7-1.4-3.1-3.1-3.1h0h-3.9
			v-1.5c0-0.3-0.2-0.5-0.5-0.5l0,0h-0.7c-0.3,0-0.5,0.2-0.5,0.5V60h-3.9c-1.7,0-3.1,1.4-3.1,3.1v1.8c0,4.2,3.4,7.6,7.6,7.6
			c0.5,0,1,0,1.5-0.1c0.2,0,0.4-0.3,0.4-0.5c0,0,0,0,0,0L283.1,71.1z"/>
		<circle class="st16" cx="279" cy="65.2" r="1.3"/>
		<circle class="st16" cx="284.2" cy="65.2" r="1.3"/>
		<path class="st16" d="M289.3,71.3l-1.4-0.7l0.5-3.2c0-0.2-0.1-0.3-0.2-0.3c-0.1,0-0.2,0-0.2,0.1l-3.4,3.1c-0.1,0.1-0.1,0.3,0,0.4
			c0,0,0.1,0,0.1,0.1l1.4,0.7l-0.5,3.2c0,0.2,0.1,0.3,0.2,0.3c0.1,0,0.2,0,0.2-0.1l3.4-3C289.5,71.6,289.5,71.4,289.3,71.3
			C289.3,71.3,289.3,71.3,289.3,71.3L289.3,71.3z"/>
	</g>
</g>
<g>
	<path class="st20" d="M298.5,60.8h2.5l3.7,10.4h-2.4l-0.7-2.1h-3.8l-0.7,2.1h-2.3L298.5,60.8z M298.3,67.2h2.7l-1.3-4.1L298.3,67.2
		z"/>
	<path class="st20" d="M307.9,71.1h-2.2V60.8h2.2V71.1z"/>
	<path class="st20" d="M316.4,60.8h2.5l3.7,10.4h-2.4l-0.7-2.1h-3.8l-0.7,2.1h-2.3L316.4,60.8z M316.2,67.2h2.7l-1.3-4.1L316.2,67.2
		z"/>
	<path class="st20" d="M327.5,63.5c0.5,0.2,0.9,0.6,1.2,1.1v-1.1h2v7.3c0,1-0.2,1.7-0.5,2.2c-0.6,0.9-1.7,1.3-3.3,1.3
		c-1,0-1.8-0.2-2.4-0.6c-0.6-0.4-1-1-1-1.7h2.2c0.1,0.2,0.1,0.4,0.3,0.5c0.2,0.2,0.6,0.3,1.1,0.3c0.7,0,1.2-0.2,1.5-0.7
		c0.2-0.3,0.2-0.8,0.2-1.6V70c-0.2,0.3-0.4,0.6-0.6,0.7c-0.4,0.3-0.9,0.5-1.6,0.5c-1,0-1.8-0.3-2.4-1c-0.6-0.7-0.9-1.6-0.9-2.8
		c0-1.1,0.3-2.1,0.9-2.9c0.6-0.8,1.4-1.2,2.4-1.2C326.9,63.3,327.2,63.3,327.5,63.5z M328.2,69c0.3-0.4,0.5-0.9,0.5-1.7
		c0-0.7-0.2-1.3-0.5-1.7c-0.3-0.4-0.7-0.6-1.2-0.6c-0.7,0-1.2,0.3-1.5,1c-0.1,0.4-0.2,0.8-0.2,1.3c0,0.4,0.1,0.8,0.2,1.2
		c0.3,0.6,0.8,1,1.5,1C327.4,69.5,327.8,69.3,328.2,69z"/>
	<path class="st20" d="M337.5,63.6c0.5,0.2,1,0.6,1.3,1.1c0.3,0.5,0.5,1,0.6,1.6c0.1,0.4,0.1,0.9,0.1,1.5h-5.6
		c0,0.8,0.3,1.3,0.8,1.6c0.3,0.2,0.7,0.3,1.1,0.3c0.5,0,0.8-0.1,1.1-0.4c0.2-0.1,0.3-0.3,0.4-0.5h2.1c-0.1,0.5-0.3,0.9-0.7,1.4
		c-0.7,0.7-1.7,1.1-2.9,1.1c-1,0-1.9-0.3-2.7-0.9c-0.8-0.6-1.2-1.7-1.2-3.1c0-1.3,0.4-2.4,1.1-3.1c0.7-0.7,1.6-1.1,2.7-1.1
		C336.4,63.3,337,63.4,337.5,63.6z M334.5,65.4c-0.3,0.3-0.5,0.7-0.5,1.2h3.5c0-0.5-0.2-0.9-0.5-1.2c-0.3-0.3-0.7-0.4-1.2-0.4
		C335.2,64.9,334.8,65.1,334.5,65.4z"/>
	<path class="st20" d="M346.7,63.9c0.5,0.4,0.8,1.1,0.8,2.1v5.2h-2.1v-4.7c0-0.4-0.1-0.7-0.2-0.9c-0.2-0.4-0.6-0.6-1.1-0.6
		c-0.7,0-1.1,0.3-1.4,0.9c-0.1,0.3-0.2,0.7-0.2,1.2v4.2h-2v-7.7h1.9v1.1c0.3-0.4,0.5-0.7,0.7-0.9c0.4-0.3,0.9-0.5,1.6-0.5
		C345.6,63.3,346.2,63.5,346.7,63.9z"/>
	<path class="st20" d="M348.5,65v-1.4h1.1v-2.1h2v2.1h1.2V65h-1.2V69c0,0.3,0,0.5,0.1,0.6s0.3,0.1,0.7,0.1c0.1,0,0.1,0,0.2,0
		c0.1,0,0.1,0,0.2,0v1.5l-1,0c-0.9,0-1.6-0.1-1.9-0.5c-0.2-0.2-0.3-0.6-0.3-1.1V65H348.5z"/>
	<path class="st20" d="M355.7,68.7c0,0.4,0.1,0.6,0.3,0.8c0.2,0.3,0.7,0.4,1.4,0.4c0.4,0,0.7-0.1,0.9-0.2c0.2-0.1,0.4-0.3,0.4-0.5
		c0-0.2-0.1-0.4-0.3-0.5c-0.2-0.1-0.9-0.3-2.1-0.6c-0.9-0.2-1.5-0.5-1.8-0.8c-0.4-0.3-0.5-0.8-0.5-1.4c0-0.7,0.3-1.3,0.8-1.8
		c0.6-0.5,1.3-0.8,2.4-0.8c1,0,1.7,0.2,2.3,0.6c0.6,0.4,1,1,1,2h-2c0-0.3-0.1-0.5-0.2-0.6c-0.2-0.3-0.6-0.4-1.1-0.4
		c-0.4,0-0.8,0.1-0.9,0.2c-0.2,0.1-0.3,0.3-0.3,0.5c0,0.2,0.1,0.4,0.3,0.5c0.2,0.1,0.9,0.3,2.1,0.6c0.8,0.2,1.4,0.5,1.8,0.9
		c0.4,0.4,0.6,0.9,0.6,1.4c0,0.8-0.3,1.4-0.9,1.9c-0.6,0.5-1.4,0.7-2.6,0.7c-1.2,0-2.1-0.3-2.7-0.8c-0.6-0.5-0.9-1.2-0.9-1.9H355.7z
		"/>
</g>
<g>
	<path class="st20" d="M243.9,99.7c0.6,1,0.9,2.5,0.9,4.4c0,1.9-0.3,3.4-0.9,4.4c-0.6,1-1.6,1.6-3.1,1.6c-1.5,0-2.5-0.5-3.1-1.6
		c-0.6-1-0.9-2.5-0.9-4.4c0-1.9,0.3-3.4,0.9-4.4s1.6-1.6,3.1-1.6C242.3,98.1,243.3,98.7,243.9,99.7z M239.5,107.2
		c0.2,0.7,0.7,1.1,1.3,1.1c0.7,0,1.1-0.4,1.3-1.1s0.3-1.7,0.3-3.1c0-1.4-0.1-2.4-0.3-3.1s-0.7-1-1.3-1c-0.7,0-1.1,0.3-1.3,1
		s-0.3,1.7-0.3,3.1C239.1,105.5,239.2,106.5,239.5,107.2z"/>
	<path class="st20" d="M246.5,101.8v-1.6c0.7,0,1.2-0.1,1.5-0.1c0.5-0.1,0.8-0.3,1.1-0.6c0.2-0.2,0.3-0.5,0.4-0.8
		c0.1-0.2,0.1-0.4,0.1-0.5h1.9v11.6h-2.3v-8H246.5z"/>
	<path class="st20" d="M255.5,107.4h2.4v2.4h-2.4V107.4z"/>
	<path class="st20" d="M267.6,98h2.8l4.2,11.8h-2.7l-0.8-2.4h-4.3l-0.8,2.4h-2.6L267.6,98z M267.5,105.4h3l-1.5-4.6L267.5,105.4z"/>
	<path class="st20" d="M280.5,101.2c0.4,0.2,0.7,0.6,1,1V98h2.3v11.8h-2.2v-1.2c-0.3,0.5-0.7,0.9-1.1,1.1c-0.4,0.2-0.9,0.4-1.6,0.4
		c-1,0-1.9-0.4-2.6-1.2c-0.7-0.8-1-1.9-1-3.2c0-1.5,0.3-2.7,1-3.5c0.7-0.9,1.6-1.3,2.7-1.3C279.7,100.9,280.1,101,280.5,101.2z
		 M281.1,107.4c0.3-0.5,0.5-1.1,0.5-1.9c0-1.1-0.3-1.8-0.8-2.3c-0.3-0.3-0.7-0.4-1.2-0.4c-0.7,0-1.2,0.3-1.5,0.8
		c-0.3,0.5-0.5,1.1-0.5,1.9c0,0.8,0.2,1.4,0.5,1.9c0.3,0.5,0.8,0.7,1.4,0.7C280.3,108.2,280.8,107.9,281.1,107.4z"/>
	<path class="st20" d="M290.5,101.2c0.4,0.2,0.7,0.6,1,1V98h2.3v11.8h-2.2v-1.2c-0.3,0.5-0.7,0.9-1.1,1.1c-0.4,0.2-0.9,0.4-1.6,0.4
		c-1,0-1.9-0.4-2.6-1.2c-0.7-0.8-1-1.9-1-3.2c0-1.5,0.3-2.7,1-3.5c0.7-0.9,1.6-1.3,2.7-1.3C289.7,100.9,290.1,101,290.5,101.2z
		 M291.1,107.4c0.3-0.5,0.5-1.1,0.5-1.9c0-1.1-0.3-1.8-0.8-2.3c-0.3-0.3-0.7-0.4-1.2-0.4c-0.7,0-1.2,0.3-1.5,0.8
		c-0.3,0.5-0.5,1.1-0.5,1.9c0,0.8,0.2,1.4,0.5,1.9c0.3,0.5,0.8,0.7,1.4,0.7S290.8,107.9,291.1,107.4z"/>
	<path class="st20" d="M303.9,104.5c0.4-0.1,0.7-0.1,0.9-0.2c0.3-0.1,0.5-0.4,0.5-0.6c0-0.4-0.1-0.6-0.4-0.7
		c-0.3-0.1-0.6-0.2-1.1-0.2c-0.5,0-0.9,0.1-1.2,0.4c-0.2,0.2-0.3,0.5-0.3,0.8h-2.2c0-0.8,0.3-1.4,0.6-1.9c0.6-0.8,1.6-1.2,3.1-1.2
		c1,0,1.8,0.2,2.6,0.6c0.7,0.4,1.1,1.1,1.1,2.1v4c0,0.3,0,0.6,0,1c0,0.3,0.1,0.5,0.1,0.6c0.1,0.1,0.2,0.2,0.3,0.3v0.3h-2.5
		c-0.1-0.2-0.1-0.3-0.1-0.5c0-0.2,0-0.3-0.1-0.5c-0.3,0.3-0.7,0.6-1.1,0.9c-0.5,0.3-1.1,0.4-1.7,0.4c-0.8,0-1.5-0.2-2-0.7
		c-0.5-0.5-0.8-1.1-0.8-1.9c0-1.1,0.4-1.8,1.2-2.3c0.5-0.3,1.1-0.4,2-0.6L303.9,104.5z M305.3,105.6c-0.1,0.1-0.3,0.2-0.4,0.2
		c-0.1,0.1-0.4,0.1-0.6,0.2l-0.5,0.1c-0.5,0.1-0.8,0.2-1,0.3c-0.4,0.2-0.5,0.5-0.5,1c0,0.4,0.1,0.7,0.3,0.8c0.2,0.2,0.5,0.3,0.8,0.3
		c0.5,0,1-0.1,1.4-0.4s0.6-0.8,0.7-1.6V105.6z"/>
	<path class="st20" d="M321.2,101.6c0.6,0.5,0.9,1.3,0.9,2.3v5.9h-2.3v-5.3c0-0.5-0.1-0.8-0.2-1.1c-0.2-0.4-0.6-0.7-1.3-0.7
		c-0.8,0-1.3,0.3-1.6,1c-0.1,0.3-0.2,0.8-0.2,1.3v4.7h-2.3v-8.7h2.2v1.3c0.3-0.4,0.6-0.8,0.8-1c0.5-0.4,1.1-0.5,1.8-0.5
		C319.9,100.9,320.6,101.1,321.2,101.6z"/>
	<path class="st20" d="M329.8,101.3c0.6,0.3,1.1,0.7,1.5,1.3c0.4,0.5,0.6,1.1,0.7,1.8c0.1,0.4,0.1,1,0.1,1.7h-6.4
		c0,0.9,0.3,1.5,0.9,1.8c0.3,0.2,0.8,0.3,1.3,0.3c0.5,0,0.9-0.1,1.3-0.4c0.2-0.1,0.3-0.3,0.5-0.6h2.3c-0.1,0.5-0.3,1-0.8,1.6
		c-0.8,0.8-1.9,1.3-3.3,1.3c-1.2,0-2.2-0.4-3.1-1.1c-0.9-0.7-1.3-1.9-1.3-3.5c0-1.5,0.4-2.7,1.2-3.5c0.8-0.8,1.8-1.2,3.1-1.2
		C328.5,100.9,329.2,101,329.8,101.3z M326.4,103.2c-0.3,0.3-0.5,0.8-0.6,1.3h3.9c0-0.6-0.2-1.1-0.6-1.4c-0.4-0.3-0.8-0.5-1.4-0.5
		C327.2,102.7,326.7,102.9,326.4,103.2z"/>
	<path class="st20" d="M337.4,101.1h2.3l1.3,6.3l1.4-6.3h2.4l-2.5,8.7h-2.3l-1.4-6.4l-1.4,6.4h-2.4l-2.4-8.7h2.4l1.4,6.3
		L337.4,101.1z"/>
	<path class="st20" d="M355.4,100.9c0,0,0.1,0,0.2,0v2.3c-0.1,0-0.3,0-0.4,0c-0.1,0-0.2,0-0.3,0c-0.9,0-1.5,0.3-1.8,0.9
		c-0.2,0.3-0.3,0.9-0.3,1.6v4.2h-2.3v-8.7h2.2v1.5c0.4-0.6,0.7-1,0.9-1.2c0.4-0.4,1-0.5,1.7-0.5
		C355.3,100.9,355.4,100.9,355.4,100.9z"/>
	<path class="st20" d="M362.6,101.3c0.6,0.3,1.1,0.7,1.5,1.3c0.4,0.5,0.6,1.1,0.7,1.8c0.1,0.4,0.1,1,0.1,1.7h-6.4
		c0,0.9,0.3,1.5,0.9,1.8c0.3,0.2,0.8,0.3,1.3,0.3c0.5,0,0.9-0.1,1.3-0.4c0.2-0.1,0.3-0.3,0.5-0.6h2.3c-0.1,0.5-0.3,1-0.8,1.6
		c-0.8,0.8-1.9,1.3-3.3,1.3c-1.2,0-2.2-0.4-3.1-1.1c-0.9-0.7-1.3-1.9-1.3-3.5c0-1.5,0.4-2.7,1.2-3.5c0.8-0.8,1.8-1.2,3.1-1.2
		C361.3,100.9,362,101,362.6,101.3z M359.2,103.2c-0.3,0.3-0.5,0.8-0.6,1.3h3.9c0-0.6-0.2-1.1-0.6-1.4s-0.8-0.5-1.4-0.5
		C360,102.7,359.5,102.9,359.2,103.2z"/>
	<path class="st20" d="M371.3,104.2c0-0.3-0.2-0.6-0.3-0.9c-0.3-0.4-0.7-0.5-1.2-0.5c-0.8,0-1.3,0.4-1.6,1.1
		c-0.1,0.4-0.2,0.9-0.2,1.6c0,0.6,0.1,1.2,0.2,1.5c0.3,0.7,0.8,1.1,1.5,1.1c0.5,0,0.9-0.1,1.1-0.4s0.4-0.7,0.4-1.1h2.3
		c-0.1,0.7-0.3,1.3-0.8,2c-0.7,1-1.8,1.5-3.2,1.5c-1.4,0-2.4-0.4-3.1-1.2c-0.7-0.8-1-1.9-1-3.2c0-1.5,0.4-2.7,1.1-3.5s1.7-1.2,3-1.2
		c1.1,0,2,0.2,2.7,0.7c0.7,0.5,1.1,1.4,1.2,2.6H371.3z"/>
	<path class="st20" d="M382.4,108.7c-0.7,0.9-1.9,1.4-3.4,1.4c-1.5,0-2.6-0.5-3.4-1.4c-0.7-0.9-1.1-2-1.1-3.3c0-1.3,0.4-2.3,1.1-3.3
		c0.7-0.9,1.9-1.4,3.4-1.4c1.5,0,2.6,0.5,3.4,1.4c0.7,0.9,1.1,2,1.1,3.3C383.5,106.7,383.2,107.8,382.4,108.7z M380.6,107.5
		c0.4-0.5,0.5-1.1,0.5-2s-0.2-1.5-0.5-2s-0.9-0.7-1.5-0.7s-1.2,0.2-1.5,0.7s-0.5,1.1-0.5,2s0.2,1.5,0.5,2c0.4,0.5,0.9,0.7,1.5,0.7
		S380.2,108,380.6,107.5z"/>
	<path class="st20" d="M390,100.9c0,0,0.1,0,0.2,0v2.3c-0.1,0-0.3,0-0.4,0c-0.1,0-0.2,0-0.3,0c-0.9,0-1.5,0.3-1.8,0.9
		c-0.2,0.3-0.3,0.9-0.3,1.6v4.2h-2.3v-8.7h2.2v1.5c0.4-0.6,0.7-1,0.9-1.2c0.4-0.4,1-0.5,1.7-0.5C389.9,100.9,390,100.9,390,100.9z"
		/>
	<path class="st20" d="M396.2,101.2c0.4,0.2,0.7,0.6,1,1V98h2.3v11.8h-2.2v-1.2c-0.3,0.5-0.7,0.9-1.1,1.1c-0.4,0.2-0.9,0.4-1.6,0.4
		c-1,0-1.9-0.4-2.6-1.2c-0.7-0.8-1-1.9-1-3.2c0-1.5,0.3-2.7,1-3.5c0.7-0.9,1.6-1.3,2.7-1.3C395.3,100.9,395.8,101,396.2,101.2z
		 M396.7,107.4c0.3-0.5,0.5-1.1,0.5-1.9c0-1.1-0.3-1.8-0.8-2.3c-0.3-0.3-0.7-0.4-1.2-0.4c-0.7,0-1.2,0.3-1.5,0.8
		c-0.3,0.5-0.5,1.1-0.5,1.9c0,0.8,0.2,1.4,0.5,1.9c0.3,0.5,0.8,0.7,1.4,0.7C395.9,108.2,396.4,107.9,396.7,107.4z"/>
</g>
<g>
	<path class="st20" d="M59.7,247.2c0.6,1,0.9,2.5,0.9,4.4c0,1.9-0.3,3.4-0.9,4.4c-0.6,1-1.6,1.6-3.1,1.6c-1.5,0-2.5-0.5-3.1-1.6
		c-0.6-1-0.9-2.5-0.9-4.4c0-1.9,0.3-3.4,0.9-4.4s1.6-1.6,3.1-1.6C58.1,245.6,59.1,246.1,59.7,247.2z M55.3,254.7
		c0.2,0.7,0.7,1.1,1.3,1.1c0.7,0,1.1-0.4,1.3-1.1s0.3-1.7,0.3-3.1c0-1.4-0.1-2.4-0.3-3.1s-0.7-1-1.3-1c-0.7,0-1.1,0.3-1.3,1
		s-0.3,1.7-0.3,3.1C54.9,252.9,55,254,55.3,254.7z"/>
	<path class="st20" d="M62.3,255c0.3-0.8,1.1-1.6,2.3-2.5c1.1-0.8,1.7-1.3,2-1.6c0.5-0.5,0.7-1.1,0.7-1.7c0-0.5-0.1-0.9-0.4-1.2
		c-0.3-0.3-0.7-0.5-1.2-0.5c-0.7,0-1.2,0.3-1.4,0.8c-0.1,0.3-0.2,0.8-0.3,1.4h-2.2c0-1,0.2-1.8,0.5-2.4c0.6-1.2,1.7-1.7,3.2-1.7
		c1.2,0,2.2,0.3,2.9,1c0.7,0.7,1.1,1.6,1.1,2.7c0,0.9-0.3,1.6-0.8,2.3c-0.3,0.4-0.9,0.9-1.7,1.5l-0.9,0.6c-0.6,0.4-1,0.7-1.2,0.9
		c-0.2,0.2-0.4,0.4-0.5,0.6h5.1v2h-7.9C61.7,256.5,61.9,255.7,62.3,255z"/>
	<path class="st20" d="M71.3,254.9h2.4v2.4h-2.4V254.9z"/>
	<path class="st20" d="M80.6,245.5h2.6l4.7,8.2v-8.2h2.3v11.8h-2.5l-4.8-8.4v8.4h-2.3V245.5z"/>
	<path class="st20" d="M98,248.8c0.6,0.3,1.1,0.7,1.5,1.3c0.4,0.5,0.6,1.1,0.7,1.8c0.1,0.4,0.1,1,0.1,1.7h-6.4
		c0,0.9,0.3,1.5,0.9,1.8c0.3,0.2,0.8,0.3,1.3,0.3c0.5,0,0.9-0.1,1.3-0.4c0.2-0.1,0.3-0.3,0.5-0.6h2.3c-0.1,0.5-0.3,1-0.8,1.6
		c-0.8,0.8-1.9,1.3-3.3,1.3c-1.2,0-2.2-0.4-3.1-1.1c-0.9-0.7-1.3-1.9-1.3-3.5c0-1.5,0.4-2.7,1.2-3.5c0.8-0.8,1.8-1.2,3.1-1.2
		C96.7,248.3,97.4,248.5,98,248.8z M94.6,250.7c-0.3,0.3-0.5,0.8-0.6,1.3h3.9c0-0.6-0.2-1.1-0.6-1.4s-0.8-0.5-1.4-0.5
		C95.4,250.2,94.9,250.4,94.6,250.7z"/>
	<path class="st20" d="M105.5,248.6h2.3l1.3,6.3l1.4-6.3h2.4l-2.5,8.7h-2.3l-1.4-6.4l-1.4,6.4h-2.4l-2.4-8.7h2.4l1.4,6.3
		L105.5,248.6z"/>
	<path class="st20" d="M122.8,248.6h2.3l1.3,6.3l1.4-6.3h2.4l-2.5,8.7h-2.3l-1.4-6.4l-1.4,6.4h-2.4l-2.4-8.7h2.4l1.4,6.3
		L122.8,248.6z"/>
	<path class="st20" d="M137.2,248.8c0.6,0.3,1.1,0.7,1.5,1.3c0.4,0.5,0.6,1.1,0.7,1.8c0.1,0.4,0.1,1,0.1,1.7h-6.4
		c0,0.9,0.3,1.5,0.9,1.8c0.3,0.2,0.8,0.3,1.3,0.3c0.5,0,0.9-0.1,1.3-0.4c0.2-0.1,0.3-0.3,0.5-0.6h2.3c-0.1,0.5-0.3,1-0.8,1.6
		c-0.8,0.8-1.9,1.3-3.3,1.3c-1.2,0-2.2-0.4-3.1-1.1c-0.9-0.7-1.3-1.9-1.3-3.5c0-1.5,0.4-2.7,1.2-3.5c0.8-0.8,1.8-1.2,3.1-1.2
		C135.9,248.3,136.5,248.5,137.2,248.8z M133.7,250.7c-0.3,0.3-0.5,0.8-0.6,1.3h3.9c0-0.6-0.2-1.1-0.6-1.4s-0.8-0.5-1.4-0.5
		C134.5,250.2,134.1,250.4,133.7,250.7z"/>
	<path class="st20" d="M148,249.6c0.7,0.8,1,1.9,1,3.2c0,1.4-0.3,2.5-1,3.4c-0.6,0.9-1.5,1.3-2.7,1.3c-0.7,0-1.3-0.1-1.7-0.4
		c-0.3-0.2-0.5-0.5-0.9-0.9v1.1h-2.2v-11.8h2.3v4.2c0.3-0.4,0.6-0.7,1-0.9c0.4-0.3,0.9-0.4,1.6-0.4
		C146.5,248.4,147.4,248.8,148,249.6z M146.1,254.9c0.3-0.5,0.5-1.1,0.5-1.9c0-0.6-0.1-1.1-0.2-1.5c-0.3-0.8-0.9-1.2-1.7-1.2
		c-0.8,0-1.4,0.4-1.7,1.1c-0.2,0.4-0.2,0.9-0.2,1.6c0,0.7,0.2,1.4,0.5,1.9c0.3,0.5,0.8,0.7,1.5,0.7
		C145.3,255.7,145.8,255.4,146.1,254.9z"/>
	<path class="st20" d="M152.4,254.5c0,0.4,0.2,0.7,0.3,0.9c0.3,0.3,0.8,0.5,1.6,0.5c0.5,0,0.8-0.1,1.1-0.2c0.3-0.1,0.4-0.3,0.4-0.6
		c0-0.3-0.1-0.5-0.3-0.6s-1-0.4-2.4-0.7c-1-0.2-1.7-0.6-2.1-0.9c-0.4-0.4-0.6-0.9-0.6-1.6c0-0.8,0.3-1.5,0.9-2.1
		c0.6-0.6,1.5-0.9,2.7-0.9c1.1,0,2,0.2,2.7,0.7c0.7,0.4,1.1,1.2,1.2,2.3h-2.3c0-0.3-0.1-0.5-0.2-0.7c-0.3-0.3-0.7-0.5-1.3-0.5
		c-0.5,0-0.9,0.1-1.1,0.2c-0.2,0.2-0.3,0.3-0.3,0.5c0,0.3,0.1,0.5,0.3,0.6c0.2,0.1,1,0.3,2.4,0.6c0.9,0.2,1.6,0.5,2,1
		c0.4,0.4,0.7,1,0.7,1.6c0,0.9-0.3,1.6-1,2.1c-0.6,0.5-1.6,0.8-3,0.8c-1.4,0-2.4-0.3-3-0.9c-0.7-0.6-1-1.3-1-2.2H152.4z"/>
	<path class="st20" d="M162,247.5h-2.3v-2.1h2.3V247.5z M159.7,248.6h2.3v8.7h-2.3V248.6z"/>
	<path class="st20" d="M163.4,250.3v-1.6h1.2v-2.4h2.3v2.4h1.4v1.6h-1.4v4.6c0,0.4,0,0.6,0.1,0.7c0.1,0.1,0.4,0.1,0.8,0.1
		c0.1,0,0.1,0,0.2,0c0.1,0,0.2,0,0.2,0v1.7l-1.1,0c-1.1,0-1.8-0.1-2.2-0.6c-0.3-0.3-0.4-0.7-0.4-1.2v-5.4H163.4z"/>
	<path class="st20" d="M175.4,248.8c0.6,0.3,1.1,0.7,1.5,1.3c0.4,0.5,0.6,1.1,0.7,1.8c0.1,0.4,0.1,1,0.1,1.7h-6.4
		c0,0.9,0.3,1.5,0.9,1.8c0.3,0.2,0.8,0.3,1.3,0.3c0.5,0,0.9-0.1,1.3-0.4c0.2-0.1,0.3-0.3,0.5-0.6h2.3c-0.1,0.5-0.3,1-0.8,1.6
		c-0.8,0.8-1.9,1.3-3.3,1.3c-1.2,0-2.2-0.4-3.1-1.1c-0.9-0.7-1.3-1.9-1.3-3.5c0-1.5,0.4-2.7,1.2-3.5c0.8-0.8,1.8-1.2,3.1-1.2
		C174.1,248.3,174.8,248.5,175.4,248.8z M172,250.7c-0.3,0.3-0.5,0.8-0.6,1.3h3.9c0-0.6-0.2-1.1-0.6-1.4c-0.4-0.3-0.8-0.5-1.4-0.5
		C172.8,250.2,172.3,250.4,172,250.7z"/>
	<path class="st20" d="M187,245.4c0.1,0,0.3,0,0.5,0v1.9c-0.1,0-0.3,0-0.6,0c-0.3,0-0.5,0.1-0.6,0.2c-0.1,0.1-0.2,0.3-0.2,0.5
		c0,0.2,0,0.4,0,0.7h1.5v1.6H186v7h-2.3v-7h-1.3v-1.6h1.2v-0.6c0-0.9,0.2-1.6,0.5-1.9c0.3-0.5,1.1-0.8,2.4-0.8
		C186.7,245.4,186.9,245.4,187,245.4z"/>
	<path class="st20" d="M193.7,248.4c0,0,0.1,0,0.2,0v2.3c-0.1,0-0.3,0-0.4,0c-0.1,0-0.2,0-0.3,0c-0.9,0-1.5,0.3-1.8,0.9
		c-0.2,0.3-0.3,0.9-0.3,1.6v4.2h-2.3v-8.7h2.2v1.5c0.4-0.6,0.7-1,0.9-1.2c0.4-0.4,1-0.5,1.7-0.5
		C193.6,248.4,193.6,248.4,193.7,248.4z"/>
	<path class="st20" d="M202.5,256.2c-0.7,0.9-1.9,1.4-3.4,1.4c-1.5,0-2.6-0.5-3.4-1.4c-0.7-0.9-1.1-2-1.1-3.3c0-1.3,0.4-2.3,1.1-3.3
		c0.7-0.9,1.9-1.4,3.4-1.4c1.5,0,2.6,0.5,3.4,1.4s1.1,2,1.1,3.3C203.6,254.2,203.2,255.3,202.5,256.2z M200.7,255
		c0.4-0.5,0.5-1.1,0.5-2s-0.2-1.5-0.5-2s-0.9-0.7-1.5-0.7c-0.7,0-1.2,0.2-1.5,0.7c-0.4,0.5-0.5,1.1-0.5,2s0.2,1.5,0.5,2
		c0.4,0.5,0.9,0.7,1.5,0.7C199.8,255.7,200.3,255.4,200.7,255z"/>
	<path class="st20" d="M216.1,248.6c0.4,0.1,0.7,0.4,1,0.8c0.2,0.3,0.4,0.7,0.5,1.1c0.1,0.3,0.1,0.7,0.1,1.3l0,5.5h-2.3v-5.6
		c0-0.3-0.1-0.6-0.2-0.8c-0.2-0.4-0.6-0.6-1.1-0.6c-0.6,0-1.1,0.3-1.3,0.8c-0.1,0.3-0.2,0.6-0.2,1v5.2h-2.3v-5.2
		c0-0.5-0.1-0.9-0.2-1.1c-0.2-0.4-0.6-0.6-1.1-0.6c-0.7,0-1.1,0.2-1.3,0.6c-0.1,0.2-0.2,0.6-0.2,1.1v5.2h-2.3v-8.7h2.2v1.3
		c0.3-0.5,0.5-0.8,0.8-1c0.4-0.3,1-0.5,1.7-0.5c0.7,0,1.2,0.1,1.6,0.4c0.3,0.3,0.6,0.6,0.8,1c0.3-0.5,0.7-0.9,1.1-1.1
		c0.5-0.2,1-0.4,1.6-0.4C215.3,248.4,215.7,248.5,216.1,248.6z"/>
	<path class="st20" d="M226.1,254.5c0,0.4,0.2,0.7,0.3,0.9c0.3,0.3,0.8,0.5,1.6,0.5c0.5,0,0.8-0.1,1.1-0.2c0.3-0.1,0.4-0.3,0.4-0.6
		c0-0.3-0.1-0.5-0.3-0.6c-0.2-0.1-1-0.4-2.4-0.7c-1-0.2-1.7-0.6-2.1-0.9c-0.4-0.4-0.6-0.9-0.6-1.6c0-0.8,0.3-1.5,1-2.1
		c0.6-0.6,1.5-0.9,2.7-0.9c1.1,0,2,0.2,2.7,0.7c0.7,0.4,1.1,1.2,1.2,2.3h-2.3c0-0.3-0.1-0.5-0.2-0.7c-0.3-0.3-0.7-0.5-1.3-0.5
		c-0.5,0-0.9,0.1-1.1,0.2s-0.3,0.3-0.3,0.5c0,0.3,0.1,0.5,0.3,0.6c0.2,0.1,1,0.3,2.4,0.6c0.9,0.2,1.6,0.5,2,1c0.4,0.4,0.7,1,0.7,1.6
		c0,0.9-0.3,1.6-1,2.1c-0.6,0.5-1.6,0.8-3,0.8c-1.4,0-2.4-0.3-3-0.9c-0.7-0.6-1-1.3-1-2.2H226.1z"/>
	<path class="st20" d="M235.7,248.6v5.3c0,0.5,0.1,0.9,0.2,1.1c0.2,0.4,0.6,0.7,1.2,0.7c0.8,0,1.3-0.3,1.6-0.9
		c0.1-0.3,0.2-0.8,0.2-1.4v-4.7h2.3v8.7H239v-1.2c0,0-0.1,0.1-0.2,0.2c-0.1,0.1-0.2,0.3-0.3,0.4c-0.4,0.3-0.7,0.5-1,0.7
		c-0.3,0.1-0.7,0.2-1.2,0.2c-1.3,0-2.2-0.5-2.6-1.4c-0.2-0.5-0.4-1.3-0.4-2.3v-5.3H235.7z"/>
	<path class="st20" d="M250.9,249.6c0.7,0.8,1,1.9,1,3.2c0,1.4-0.3,2.5-1,3.4c-0.6,0.9-1.5,1.3-2.7,1.3c-0.7,0-1.3-0.1-1.7-0.4
		c-0.3-0.2-0.5-0.5-0.9-0.9v1.1h-2.2v-11.8h2.3v4.2c0.3-0.4,0.6-0.7,1-0.9c0.4-0.3,0.9-0.4,1.6-0.4
		C249.3,248.4,250.2,248.8,250.9,249.6z M249,254.9c0.3-0.5,0.5-1.1,0.5-1.9c0-0.6-0.1-1.1-0.2-1.5c-0.3-0.8-0.9-1.2-1.7-1.2
		c-0.8,0-1.4,0.4-1.7,1.1c-0.2,0.4-0.2,0.9-0.2,1.6c0,0.7,0.2,1.4,0.5,1.9s0.8,0.7,1.5,0.7C248.2,255.7,248.7,255.4,249,254.9z"/>
	<path class="st20" d="M264.3,248.6c0.4,0.1,0.7,0.4,1,0.8c0.2,0.3,0.4,0.7,0.5,1.1c0.1,0.3,0.1,0.7,0.1,1.3l0,5.5h-2.3v-5.6
		c0-0.3-0.1-0.6-0.2-0.8c-0.2-0.4-0.6-0.6-1.1-0.6c-0.6,0-1.1,0.3-1.3,0.8c-0.1,0.3-0.2,0.6-0.2,1v5.2h-2.3v-5.2
		c0-0.5-0.1-0.9-0.2-1.1c-0.2-0.4-0.6-0.6-1.1-0.6c-0.7,0-1.1,0.2-1.3,0.6c-0.1,0.2-0.2,0.6-0.2,1.1v5.2h-2.3v-8.7h2.2v1.3
		c0.3-0.5,0.5-0.8,0.8-1c0.4-0.3,1-0.5,1.7-0.5c0.7,0,1.2,0.1,1.6,0.4c0.3,0.3,0.6,0.6,0.8,1c0.3-0.5,0.7-0.9,1.1-1.1
		c0.5-0.2,1-0.4,1.6-0.4C263.6,248.4,264,248.5,264.3,248.6z"/>
	<path class="st20" d="M270.4,247.5h-2.3v-2.1h2.3V247.5z M268.1,248.6h2.3v8.7h-2.3V248.6z"/>
	<path class="st20" d="M274.3,254.5c0,0.4,0.2,0.7,0.3,0.9c0.3,0.3,0.8,0.5,1.6,0.5c0.5,0,0.8-0.1,1.1-0.2c0.3-0.1,0.4-0.3,0.4-0.6
		c0-0.3-0.1-0.5-0.3-0.6c-0.2-0.1-1-0.4-2.4-0.7c-1-0.2-1.7-0.6-2.1-0.9c-0.4-0.4-0.6-0.9-0.6-1.6c0-0.8,0.3-1.5,1-2.1
		c0.6-0.6,1.5-0.9,2.7-0.9c1.1,0,2,0.2,2.7,0.7c0.7,0.4,1.1,1.2,1.2,2.3h-2.3c0-0.3-0.1-0.5-0.2-0.7c-0.3-0.3-0.7-0.5-1.3-0.5
		c-0.5,0-0.9,0.1-1.1,0.2s-0.3,0.3-0.3,0.5c0,0.3,0.1,0.5,0.3,0.6c0.2,0.1,1,0.3,2.4,0.6c0.9,0.2,1.6,0.5,2,1c0.4,0.4,0.7,1,0.7,1.6
		c0,0.9-0.3,1.6-1,2.1c-0.6,0.5-1.6,0.8-3,0.8c-1.4,0-2.4-0.3-3-0.9c-0.7-0.6-1-1.3-1-2.2H274.3z"/>
	<path class="st20" d="M283.5,254.5c0,0.4,0.2,0.7,0.3,0.9c0.3,0.3,0.8,0.5,1.6,0.5c0.5,0,0.8-0.1,1.1-0.2c0.3-0.1,0.4-0.3,0.4-0.6
		c0-0.3-0.1-0.5-0.3-0.6s-1-0.4-2.4-0.7c-1-0.2-1.7-0.6-2.1-0.9c-0.4-0.4-0.6-0.9-0.6-1.6c0-0.8,0.3-1.5,0.9-2.1
		c0.6-0.6,1.5-0.9,2.7-0.9c1.1,0,2,0.2,2.7,0.7c0.7,0.4,1.1,1.2,1.2,2.3h-2.3c0-0.3-0.1-0.5-0.2-0.7c-0.3-0.3-0.7-0.5-1.3-0.5
		c-0.5,0-0.9,0.1-1.1,0.2c-0.2,0.2-0.3,0.3-0.3,0.5c0,0.3,0.1,0.5,0.3,0.6c0.2,0.1,1,0.3,2.4,0.6c0.9,0.2,1.6,0.5,2,1
		c0.4,0.4,0.7,1,0.7,1.6c0,0.9-0.3,1.6-1,2.1c-0.6,0.5-1.6,0.8-3,0.8c-1.4,0-2.4-0.3-3-0.9c-0.7-0.6-1-1.3-1-2.2H283.5z"/>
	<path class="st20" d="M293.1,247.5h-2.3v-2.1h2.3V247.5z M290.8,248.6h2.3v8.7h-2.3V248.6z"/>
	<path class="st20" d="M302.6,256.2c-0.7,0.9-1.9,1.4-3.4,1.4c-1.5,0-2.6-0.5-3.4-1.4c-0.7-0.9-1.1-2-1.1-3.3c0-1.3,0.4-2.3,1.1-3.3
		s1.9-1.4,3.4-1.4c1.5,0,2.6,0.5,3.4,1.4c0.7,0.9,1.1,2,1.1,3.3C303.7,254.2,303.4,255.3,302.6,256.2z M300.8,255
		c0.4-0.5,0.5-1.1,0.5-2s-0.2-1.5-0.5-2s-0.9-0.7-1.5-0.7s-1.2,0.2-1.5,0.7c-0.4,0.5-0.5,1.1-0.5,2s0.2,1.5,0.5,2
		c0.4,0.5,0.9,0.7,1.5,0.7S300.4,255.4,300.8,255z"/>
	<path class="st20" d="M312.4,249.1c0.6,0.5,0.9,1.3,0.9,2.3v5.9h-2.3V252c0-0.5-0.1-0.8-0.2-1.1c-0.2-0.4-0.6-0.7-1.3-0.7
		c-0.8,0-1.3,0.3-1.6,1c-0.1,0.3-0.2,0.8-0.2,1.3v4.7h-2.3v-8.7h2.2v1.3c0.3-0.4,0.6-0.8,0.8-1c0.5-0.4,1.1-0.5,1.8-0.5
		C311.1,248.4,311.8,248.6,312.4,249.1z"/>
</g>
<g>
	<path class="st20" d="M443.9,250.8c0.6,1,0.9,2.5,0.9,4.4c0,1.9-0.3,3.4-0.9,4.4c-0.6,1-1.6,1.6-3.1,1.6c-1.5,0-2.5-0.5-3.1-1.6
		c-0.6-1-0.9-2.5-0.9-4.4c0-1.9,0.3-3.4,0.9-4.4s1.6-1.6,3.1-1.6C442.2,249.3,443.3,249.8,443.9,250.8z M439.4,258.3
		c0.2,0.7,0.7,1.1,1.3,1.1c0.7,0,1.1-0.4,1.3-1.1s0.3-1.7,0.3-3.1c0-1.4-0.1-2.4-0.3-3.1s-0.7-1-1.3-1c-0.7,0-1.1,0.3-1.3,1
		s-0.3,1.7-0.3,3.1C439.1,256.6,439.2,257.6,439.4,258.3z"/>
	<path class="st20" d="M448,257.4c0,0.5,0.1,0.8,0.2,1.2c0.3,0.6,0.8,0.8,1.5,0.8c0.4,0,0.8-0.2,1.2-0.5c0.3-0.3,0.5-0.7,0.5-1.3
		c0-0.8-0.3-1.3-0.9-1.5c-0.4-0.1-0.9-0.2-1.7-0.2v-1.6c0.7,0,1.3-0.1,1.5-0.2c0.5-0.2,0.8-0.7,0.8-1.4c0-0.4-0.1-0.8-0.4-1.1
		c-0.3-0.3-0.6-0.4-1.1-0.4c-0.5,0-0.9,0.2-1.2,0.5c-0.3,0.3-0.4,0.8-0.4,1.4H446c0-0.6,0.1-1.1,0.3-1.6c0.2-0.5,0.5-0.9,0.9-1.3
		c0.3-0.3,0.7-0.5,1.1-0.6s0.9-0.2,1.5-0.2c1.1,0,2,0.3,2.7,0.9c0.7,0.6,1,1.3,1,2.3c0,0.7-0.2,1.3-0.6,1.7
		c-0.3,0.3-0.5,0.5-0.8,0.6c0.2,0,0.5,0.2,0.9,0.5c0.6,0.5,0.9,1.3,0.9,2.2c0,1-0.3,1.8-1,2.6c-0.7,0.7-1.7,1.1-3,1.1
		c-1.6,0-2.8-0.5-3.4-1.6c-0.3-0.6-0.5-1.3-0.6-2.2H448z"/>
	<path class="st20" d="M455.5,258.6h2.4v2.4h-2.4V258.6z"/>
	<path class="st20" d="M467.6,249.2h2.8l4.2,11.8h-2.7l-0.8-2.4h-4.3L466,261h-2.6L467.6,249.2z M467.4,256.5h3l-1.5-4.6
		L467.4,256.5z"/>
	<path class="st20" d="M480.5,252.4c0.4,0.2,0.7,0.6,1,1v-4.2h2.3V261h-2.2v-1.2c-0.3,0.5-0.7,0.9-1.1,1.1c-0.4,0.2-0.9,0.4-1.6,0.4
		c-1,0-1.9-0.4-2.6-1.2c-0.7-0.8-1-1.9-1-3.2c0-1.5,0.3-2.7,1-3.5c0.7-0.9,1.6-1.3,2.7-1.3C479.6,252,480.1,252.1,480.5,252.4z
		 M481.1,258.6c0.3-0.5,0.5-1.1,0.5-1.9c0-1.1-0.3-1.8-0.8-2.3c-0.3-0.3-0.7-0.4-1.2-0.4c-0.7,0-1.2,0.3-1.5,0.8
		c-0.3,0.5-0.5,1.1-0.5,1.9c0,0.8,0.2,1.4,0.5,1.9c0.3,0.5,0.8,0.7,1.4,0.7C480.2,259.3,480.7,259.1,481.1,258.6z"/>
	<path class="st20" d="M490.5,252.4c0.4,0.2,0.7,0.6,1,1v-4.2h2.3V261h-2.2v-1.2c-0.3,0.5-0.7,0.9-1.1,1.1c-0.4,0.2-0.9,0.4-1.6,0.4
		c-1,0-1.9-0.4-2.6-1.2c-0.7-0.8-1-1.9-1-3.2c0-1.5,0.3-2.7,1-3.5c0.7-0.9,1.6-1.3,2.7-1.3C489.6,252,490.1,252.1,490.5,252.4z
		 M491.1,258.6c0.3-0.5,0.5-1.1,0.5-1.9c0-1.1-0.3-1.8-0.8-2.3c-0.3-0.3-0.7-0.4-1.2-0.4c-0.7,0-1.2,0.3-1.5,0.8
		c-0.3,0.5-0.5,1.1-0.5,1.9c0,0.8,0.2,1.4,0.5,1.9c0.3,0.5,0.8,0.7,1.4,0.7S490.7,259.1,491.1,258.6z"/>
	<path class="st20" d="M503.9,255.7c0.4-0.1,0.7-0.1,0.9-0.2c0.3-0.1,0.5-0.4,0.5-0.6c0-0.4-0.1-0.6-0.4-0.7
		c-0.3-0.1-0.6-0.2-1.1-0.2c-0.5,0-0.9,0.1-1.2,0.4c-0.2,0.2-0.3,0.5-0.3,0.8h-2.2c0-0.8,0.3-1.4,0.6-1.9c0.6-0.8,1.6-1.2,3.1-1.2
		c1,0,1.8,0.2,2.6,0.6c0.7,0.4,1.1,1.1,1.1,2.1v4c0,0.3,0,0.6,0,1c0,0.3,0.1,0.5,0.1,0.6c0.1,0.1,0.2,0.2,0.3,0.3v0.3h-2.5
		c-0.1-0.2-0.1-0.3-0.1-0.5c0-0.2,0-0.3-0.1-0.5c-0.3,0.3-0.7,0.6-1.1,0.9c-0.5,0.3-1.1,0.4-1.7,0.4c-0.8,0-1.5-0.2-2-0.7
		c-0.5-0.5-0.8-1.1-0.8-1.9c0-1.1,0.4-1.8,1.2-2.3c0.5-0.3,1.1-0.4,2-0.6L503.9,255.7z M505.3,256.7c-0.1,0.1-0.3,0.2-0.4,0.2
		c-0.1,0.1-0.4,0.1-0.6,0.2l-0.5,0.1c-0.5,0.1-0.8,0.2-1,0.3c-0.4,0.2-0.5,0.5-0.5,1c0,0.4,0.1,0.7,0.3,0.8c0.2,0.2,0.5,0.3,0.8,0.3
		c0.5,0,1-0.1,1.4-0.4s0.6-0.8,0.7-1.6V256.7z"/>
	<path class="st20" d="M521.1,252.7c0.6,0.5,0.9,1.3,0.9,2.3v5.9h-2.3v-5.3c0-0.5-0.1-0.8-0.2-1.1c-0.2-0.4-0.6-0.7-1.3-0.7
		c-0.8,0-1.3,0.3-1.6,1c-0.1,0.3-0.2,0.8-0.2,1.3v4.7h-2.3v-8.7h2.2v1.3c0.3-0.4,0.6-0.8,0.8-1c0.5-0.4,1.1-0.5,1.8-0.5
		C519.8,252,520.6,252.3,521.1,252.7z"/>
	<path class="st20" d="M529.8,252.4c0.6,0.3,1.1,0.7,1.5,1.3c0.4,0.5,0.6,1.1,0.7,1.8c0.1,0.4,0.1,1,0.1,1.7h-6.4
		c0,0.9,0.3,1.5,0.9,1.8c0.3,0.2,0.8,0.3,1.3,0.3c0.5,0,0.9-0.1,1.3-0.4c0.2-0.1,0.3-0.3,0.5-0.6h2.3c-0.1,0.5-0.3,1-0.8,1.6
		c-0.8,0.8-1.9,1.3-3.3,1.3c-1.2,0-2.2-0.4-3.1-1.1c-0.9-0.7-1.3-1.9-1.3-3.5c0-1.5,0.4-2.7,1.2-3.5c0.8-0.8,1.8-1.2,3.1-1.2
		C528.5,252,529.2,252.1,529.8,252.4z M526.4,254.4c-0.3,0.3-0.5,0.8-0.6,1.3h3.9c0-0.6-0.2-1.1-0.6-1.4c-0.4-0.3-0.8-0.5-1.4-0.5
		C527.2,253.9,526.7,254.1,526.4,254.4z"/>
	<path class="st20" d="M537.3,252.2h2.3l1.3,6.3l1.4-6.3h2.4l-2.5,8.7h-2.3l-1.4-6.4l-1.4,6.4h-2.4l-2.4-8.7h2.4l1.4,6.3
		L537.3,252.2z"/>
	<path class="st20" d="M554,255.7c0.4-0.1,0.7-0.1,0.9-0.2c0.3-0.1,0.5-0.4,0.5-0.6c0-0.4-0.1-0.6-0.4-0.7c-0.3-0.1-0.6-0.2-1.1-0.2
		c-0.5,0-0.9,0.1-1.2,0.4c-0.2,0.2-0.3,0.5-0.3,0.8h-2.2c0-0.8,0.3-1.4,0.6-1.9c0.6-0.8,1.6-1.2,3.1-1.2c1,0,1.8,0.2,2.6,0.6
		c0.7,0.4,1.1,1.1,1.1,2.1v4c0,0.3,0,0.6,0,1c0,0.3,0.1,0.5,0.1,0.6c0.1,0.1,0.2,0.2,0.3,0.3v0.3h-2.5c-0.1-0.2-0.1-0.3-0.1-0.5
		c0-0.2,0-0.3-0.1-0.5c-0.3,0.3-0.7,0.6-1.1,0.9c-0.5,0.3-1.1,0.4-1.7,0.4c-0.8,0-1.5-0.2-2-0.7c-0.5-0.5-0.8-1.1-0.8-1.9
		c0-1.1,0.4-1.8,1.2-2.3c0.5-0.3,1.1-0.4,2-0.6L554,255.7z M555.4,256.7c-0.1,0.1-0.3,0.2-0.4,0.2c-0.1,0.1-0.4,0.1-0.6,0.2
		l-0.5,0.1c-0.5,0.1-0.8,0.2-1,0.3c-0.4,0.2-0.5,0.5-0.5,1c0,0.4,0.1,0.7,0.3,0.8c0.2,0.2,0.5,0.3,0.8,0.3c0.5,0,1-0.1,1.4-0.4
		s0.6-0.8,0.7-1.6V256.7z"/>
	<path class="st20" d="M567,253.2c0.7,0.8,1.1,1.9,1.1,3.3c0,1.5-0.3,2.7-1,3.5s-1.6,1.2-2.7,1.2c-0.7,0-1.3-0.2-1.7-0.5
		c-0.3-0.2-0.5-0.5-0.7-0.8v4.5h-2.3v-12.2h2.2v1.3c0.2-0.4,0.5-0.7,0.8-0.9c0.5-0.4,1.1-0.6,1.8-0.6
		C565.4,252,566.2,252.4,567,253.2z M565.2,254.8c-0.3-0.5-0.8-0.8-1.5-0.8c-0.8,0-1.4,0.4-1.7,1.2c-0.2,0.4-0.2,0.9-0.2,1.6
		c0,1,0.3,1.7,0.8,2.1c0.3,0.2,0.7,0.4,1.1,0.4c0.6,0,1.1-0.2,1.5-0.7s0.5-1.1,0.5-2C565.7,255.9,565.5,255.3,565.2,254.8z"/>
	<path class="st20" d="M577,253.2c0.7,0.8,1.1,1.9,1.1,3.3c0,1.5-0.3,2.7-1,3.5s-1.6,1.2-2.7,1.2c-0.7,0-1.3-0.2-1.7-0.5
		c-0.3-0.2-0.5-0.5-0.7-0.8v4.5h-2.3v-12.2h2.2v1.3c0.2-0.4,0.5-0.7,0.8-0.9c0.5-0.4,1.1-0.6,1.8-0.6
		C575.4,252,576.3,252.4,577,253.2z M575.2,254.8c-0.3-0.5-0.8-0.8-1.5-0.8c-0.8,0-1.4,0.4-1.7,1.2c-0.2,0.4-0.2,0.9-0.2,1.6
		c0,1,0.3,1.7,0.8,2.1c0.3,0.2,0.7,0.4,1.1,0.4c0.6,0,1.1-0.2,1.5-0.7s0.5-1.1,0.5-2C575.7,255.9,575.5,255.3,575.2,254.8z"/>
	<path class="st20" d="M583.3,253.9v-1.6h1.2v-2.4h2.3v2.4h1.4v1.6h-1.4v4.6c0,0.4,0,0.6,0.1,0.7c0.1,0.1,0.4,0.1,0.8,0.1
		c0.1,0,0.1,0,0.2,0c0.1,0,0.2,0,0.2,0v1.7l-1.1,0c-1.1,0-1.8-0.1-2.2-0.6c-0.3-0.3-0.4-0.7-0.4-1.2v-5.4H583.3z"/>
	<path class="st20" d="M596.9,259.9c-0.7,0.9-1.9,1.4-3.4,1.4c-1.5,0-2.6-0.5-3.4-1.4c-0.7-0.9-1.1-2-1.1-3.3c0-1.3,0.4-2.3,1.1-3.3
		c0.7-0.9,1.9-1.4,3.4-1.4c1.5,0,2.6,0.5,3.4,1.4s1.1,2,1.1,3.3C598,257.9,597.7,259,596.9,259.9z M595.1,258.6
		c0.4-0.5,0.5-1.1,0.5-2c0-0.9-0.2-1.5-0.5-2s-0.9-0.7-1.5-0.7c-0.7,0-1.2,0.2-1.5,0.7c-0.4,0.5-0.5,1.1-0.5,2c0,0.9,0.2,1.5,0.5,2
		c0.4,0.5,0.9,0.7,1.5,0.7C594.2,259.3,594.7,259.1,595.1,258.6z"/>
	<path class="st20" d="M604.5,262.6l0.3,0c0.2,0,0.4,0,0.6,0c0.2,0,0.4-0.1,0.5-0.2c0.1-0.1,0.3-0.3,0.4-0.6
		c0.1-0.3,0.2-0.5,0.1-0.5l-3.2-9.1h2.5l1.9,6.4l1.8-6.4h2.4l-3,8.6c-0.6,1.7-1,2.7-1.4,3.1c-0.3,0.4-1,0.6-2,0.6
		c-0.2,0-0.4,0-0.5,0c-0.1,0-0.3,0-0.6,0V262.6z"/>
	<path class="st20" d="M620.6,259.9c-0.7,0.9-1.9,1.4-3.4,1.4c-1.5,0-2.6-0.5-3.4-1.4c-0.7-0.9-1.1-2-1.1-3.3c0-1.3,0.4-2.3,1.1-3.3
		c0.7-0.9,1.9-1.4,3.4-1.4c1.5,0,2.6,0.5,3.4,1.4s1.1,2,1.1,3.3C621.7,257.9,621.3,259,620.6,259.9z M618.8,258.6
		c0.4-0.5,0.5-1.1,0.5-2c0-0.9-0.2-1.5-0.5-2s-0.9-0.7-1.5-0.7c-0.7,0-1.2,0.2-1.5,0.7c-0.4,0.5-0.5,1.1-0.5,2c0,0.9,0.2,1.5,0.5,2
		c0.4,0.5,0.9,0.7,1.5,0.7C617.9,259.3,618.4,259.1,618.8,258.6z"/>
	<path class="st20" d="M625.6,252.2v5.3c0,0.5,0.1,0.9,0.2,1.1c0.2,0.4,0.6,0.7,1.2,0.7c0.8,0,1.3-0.3,1.6-0.9
		c0.1-0.3,0.2-0.8,0.2-1.4v-4.7h2.3v8.7h-2.2v-1.2c0,0-0.1,0.1-0.2,0.2c-0.1,0.1-0.2,0.3-0.3,0.4c-0.4,0.3-0.7,0.5-1,0.7
		c-0.3,0.1-0.7,0.2-1.2,0.2c-1.3,0-2.2-0.5-2.6-1.4c-0.2-0.5-0.4-1.3-0.4-2.3v-5.3H625.6z"/>
	<path class="st20" d="M638.2,252c0,0,0.1,0,0.2,0v2.3c-0.1,0-0.3,0-0.4,0c-0.1,0-0.2,0-0.3,0c-0.9,0-1.5,0.3-1.8,0.9
		c-0.2,0.3-0.3,0.9-0.3,1.6v4.2h-2.3v-8.7h2.2v1.5c0.4-0.6,0.7-1,0.9-1.2c0.4-0.4,1-0.5,1.7-0.5C638.1,252,638.1,252,638.2,252z"/>
	<path class="st20" d="M643.8,254.1v-1.9h6.9v1.9l-4.3,5h4.4v1.9h-7.4v-1.8l4.3-5.1H643.8z"/>
	<path class="st20" d="M655.9,255.7c0.4-0.1,0.7-0.1,0.9-0.2c0.3-0.1,0.5-0.4,0.5-0.6c0-0.4-0.1-0.6-0.4-0.7
		c-0.3-0.1-0.6-0.2-1.1-0.2c-0.5,0-0.9,0.1-1.2,0.4c-0.2,0.2-0.3,0.5-0.3,0.8h-2.2c0-0.8,0.3-1.4,0.6-1.9c0.6-0.8,1.6-1.2,3.1-1.2
		c1,0,1.8,0.2,2.6,0.6c0.7,0.4,1.1,1.1,1.1,2.1v4c0,0.3,0,0.6,0,1c0,0.3,0.1,0.5,0.1,0.6c0.1,0.1,0.2,0.2,0.3,0.3v0.3h-2.5
		c-0.1-0.2-0.1-0.3-0.1-0.5c0-0.2,0-0.3-0.1-0.5c-0.3,0.3-0.7,0.6-1.1,0.9c-0.5,0.3-1.1,0.4-1.7,0.4c-0.8,0-1.5-0.2-2-0.7
		c-0.5-0.5-0.8-1.1-0.8-1.9c0-1.1,0.4-1.8,1.2-2.3c0.5-0.3,1.1-0.4,2-0.6L655.9,255.7z M657.3,256.7c-0.1,0.1-0.3,0.2-0.4,0.2
		c-0.1,0.1-0.4,0.1-0.6,0.2l-0.5,0.1c-0.5,0.1-0.8,0.2-1,0.3c-0.4,0.2-0.5,0.5-0.5,1c0,0.4,0.1,0.7,0.3,0.8c0.2,0.2,0.5,0.3,0.8,0.3
		c0.5,0,1-0.1,1.4-0.4s0.6-0.8,0.7-1.6V256.7z"/>
	<path class="st20" d="M668.9,253.2c0.7,0.8,1.1,1.9,1.1,3.3c0,1.5-0.3,2.7-1,3.5s-1.6,1.2-2.7,1.2c-0.7,0-1.3-0.2-1.7-0.5
		c-0.3-0.2-0.5-0.5-0.7-0.8v4.5h-2.3v-12.2h2.2v1.3c0.2-0.4,0.5-0.7,0.8-0.9c0.5-0.4,1.1-0.6,1.8-0.6
		C667.3,252,668.2,252.4,668.9,253.2z M667.1,254.8c-0.3-0.5-0.8-0.8-1.5-0.8c-0.8,0-1.4,0.4-1.7,1.2c-0.2,0.4-0.2,0.9-0.2,1.6
		c0,1,0.3,1.7,0.8,2.1c0.3,0.2,0.7,0.4,1.1,0.4c0.6,0,1.1-0.2,1.5-0.7s0.5-1.1,0.5-2C667.6,255.9,667.5,255.3,667.1,254.8z"/>
</g>
<g>
	<path class="st20" d="M239,394.8c0.6,1,0.9,2.5,0.9,4.4c0,1.9-0.3,3.4-0.9,4.4c-0.6,1-1.6,1.6-3.1,1.6s-2.5-0.5-3.1-1.6
		c-0.6-1-0.9-2.5-0.9-4.4c0-1.9,0.3-3.4,0.9-4.4c0.6-1,1.6-1.6,3.1-1.6S238.4,393.8,239,394.8z M234.5,402.3
		c0.2,0.7,0.7,1.1,1.3,1.1s1.1-0.4,1.3-1.1c0.2-0.7,0.3-1.7,0.3-3.1c0-1.4-0.1-2.4-0.3-3.1c-0.2-0.7-0.7-1-1.3-1s-1.1,0.3-1.3,1
		s-0.3,1.7-0.3,3.1C234.2,400.6,234.3,401.6,234.5,402.3z"/>
	<path class="st20" d="M249,402.4h-1.3v2.5h-2.2v-2.5h-4.6v-2l4.3-7h2.6v7.2h1.3V402.4z M245.5,400.6v-5l-2.9,5H245.5z"/>
	<path class="st20" d="M250.6,402.5h2.4v2.4h-2.4V402.5z"/>
	<path class="st20" d="M261.7,401.3c0.1,0.5,0.2,0.9,0.4,1.2c0.4,0.5,1.1,0.7,2.1,0.7c0.6,0,1.1-0.1,1.4-0.2
		c0.7-0.2,1.1-0.7,1.1-1.4c0-0.4-0.2-0.7-0.5-0.9c-0.3-0.2-0.9-0.4-1.6-0.6l-1.3-0.3c-1.3-0.3-2.1-0.6-2.6-0.9
		c-0.8-0.5-1.2-1.4-1.2-2.6c0-1.1,0.4-1.9,1.2-2.6s1.9-1,3.4-1c1.3,0,2.3,0.3,3.2,1c0.9,0.7,1.4,1.6,1.4,2.9h-2.4
		c0-0.7-0.4-1.2-1-1.5c-0.4-0.2-0.9-0.3-1.5-0.3c-0.7,0-1.2,0.1-1.6,0.4s-0.6,0.6-0.6,1.1c0,0.4,0.2,0.7,0.6,0.9
		c0.2,0.1,0.8,0.3,1.6,0.5l2.1,0.5c0.9,0.2,1.6,0.5,2,0.9c0.7,0.6,1.1,1.4,1.1,2.4c0,1.1-0.4,2-1.2,2.7c-0.8,0.7-2,1.1-3.5,1.1
		c-1.6,0-2.8-0.4-3.7-1.1c-0.9-0.7-1.3-1.7-1.3-2.9H261.7z"/>
	<path class="st20" d="M278,397.1c0.7,0.8,1.1,1.9,1.1,3.3c0,1.5-0.3,2.7-1,3.5s-1.6,1.2-2.7,1.2c-0.7,0-1.3-0.2-1.7-0.5
		c-0.3-0.2-0.5-0.5-0.7-0.8v4.5h-2.3v-12.2h2.2v1.3c0.2-0.4,0.5-0.7,0.8-0.9c0.5-0.4,1.1-0.6,1.8-0.6
		C276.4,396,277.3,396.4,278,397.1z M276.3,398.8c-0.3-0.5-0.8-0.8-1.5-0.8c-0.8,0-1.4,0.4-1.7,1.2c-0.2,0.4-0.2,0.9-0.2,1.6
		c0,1,0.3,1.7,0.8,2.1c0.3,0.2,0.7,0.4,1.1,0.4c0.6,0,1.1-0.2,1.5-0.7c0.3-0.5,0.5-1.1,0.5-2C276.7,399.9,276.6,399.3,276.3,398.8z"
		/>
	<path class="st20" d="M283,404.9h-2.3v-11.8h2.3V404.9z"/>
	<path class="st20" d="M287.6,395.2h-2.3v-2.1h2.3V395.2z M285.3,396.2h2.3v8.7h-2.3V396.2z"/>
	<path class="st20" d="M288.9,397.9v-1.6h1.2v-2.4h2.3v2.4h1.4v1.6h-1.4v4.6c0,0.4,0,0.6,0.1,0.7c0.1,0.1,0.4,0.1,0.8,0.1
		c0.1,0,0.1,0,0.2,0c0.1,0,0.2,0,0.2,0v1.7l-1.1,0c-1.1,0-1.8-0.1-2.2-0.6c-0.3-0.3-0.4-0.7-0.4-1.2v-5.4H288.9z"/>
	<path class="st20" d="M302.1,395.2h-2.3v-2.1h2.3V395.2z M299.8,396.2h2.3v8.7h-2.3V396.2z"/>
	<path class="st20" d="M311.4,396.7c0.6,0.5,0.9,1.3,0.9,2.3v5.9h-2.3v-5.3c0-0.5-0.1-0.8-0.2-1.1c-0.2-0.4-0.6-0.7-1.3-0.7
		c-0.8,0-1.3,0.3-1.6,1c-0.1,0.3-0.2,0.8-0.2,1.3v4.7h-2.3v-8.7h2.2v1.3c0.3-0.4,0.6-0.8,0.8-1c0.5-0.4,1.1-0.5,1.8-0.5
		C310.1,396,310.8,396.2,311.4,396.7z"/>
	<path class="st20" d="M313.5,397.9v-1.6h1.2v-2.4h2.3v2.4h1.4v1.6h-1.4v4.6c0,0.4,0,0.6,0.1,0.7c0.1,0.1,0.4,0.1,0.8,0.1
		c0.1,0,0.1,0,0.2,0c0.1,0,0.2,0,0.2,0v1.7l-1.1,0c-1.1,0-1.8-0.1-2.2-0.6c-0.3-0.3-0.4-0.7-0.4-1.2v-5.4H313.5z"/>
	<path class="st20" d="M327.1,403.9c-0.7,0.9-1.9,1.4-3.4,1.4s-2.6-0.5-3.4-1.4c-0.7-0.9-1.1-2-1.1-3.3c0-1.3,0.4-2.3,1.1-3.3
		c0.7-0.9,1.9-1.4,3.4-1.4s2.6,0.5,3.4,1.4s1.1,2,1.1,3.3C328.2,401.8,327.8,402.9,327.1,403.9z M325.3,402.6c0.4-0.5,0.5-1.1,0.5-2
		s-0.2-1.5-0.5-2s-0.9-0.7-1.5-0.7c-0.7,0-1.2,0.2-1.5,0.7s-0.5,1.1-0.5,2s0.2,1.5,0.5,2c0.4,0.5,0.9,0.7,1.5,0.7
		C324.4,403.3,324.9,403.1,325.3,402.6z"/>
	<path class="st20" d="M341.7,397.1c0.7,0.8,1.1,1.9,1.1,3.3c0,1.5-0.3,2.7-1,3.5s-1.6,1.2-2.7,1.2c-0.7,0-1.3-0.2-1.7-0.5
		c-0.3-0.2-0.5-0.5-0.7-0.8v4.5h-2.3v-12.2h2.2v1.3c0.2-0.4,0.5-0.7,0.8-0.9c0.5-0.4,1.1-0.6,1.8-0.6
		C340.1,396,341,396.4,341.7,397.1z M340,398.8c-0.3-0.5-0.8-0.8-1.5-0.8c-0.8,0-1.4,0.4-1.7,1.2c-0.2,0.4-0.2,0.9-0.2,1.6
		c0,1,0.3,1.7,0.8,2.1c0.3,0.2,0.7,0.4,1.1,0.4c0.6,0,1.1-0.2,1.5-0.7c0.3-0.5,0.5-1.1,0.5-2C340.4,399.9,340.3,399.3,340,398.8z"/>
	<path class="st20" d="M347.8,399.6c0.4-0.1,0.7-0.1,0.9-0.2c0.3-0.1,0.5-0.4,0.5-0.6c0-0.4-0.1-0.6-0.4-0.7
		c-0.3-0.1-0.6-0.2-1.1-0.2c-0.5,0-0.9,0.1-1.2,0.4c-0.2,0.2-0.3,0.5-0.3,0.8h-2.2c0-0.8,0.3-1.4,0.6-1.9c0.6-0.8,1.6-1.2,3.1-1.2
		c1,0,1.8,0.2,2.6,0.6c0.7,0.4,1.1,1.1,1.1,2.1v4c0,0.3,0,0.6,0,1c0,0.3,0.1,0.5,0.1,0.6c0.1,0.1,0.2,0.2,0.3,0.3v0.3h-2.5
		c-0.1-0.2-0.1-0.3-0.1-0.5c0-0.2,0-0.3-0.1-0.5c-0.3,0.3-0.7,0.6-1.1,0.9c-0.5,0.3-1.1,0.4-1.7,0.4c-0.8,0-1.4-0.2-2-0.7
		c-0.5-0.5-0.8-1.1-0.8-1.9c0-1.1,0.4-1.8,1.2-2.3c0.5-0.3,1.1-0.4,2-0.6L347.8,399.6z M349.2,400.7c-0.1,0.1-0.3,0.2-0.4,0.2
		c-0.1,0.1-0.4,0.1-0.6,0.2l-0.5,0.1c-0.5,0.1-0.8,0.2-1,0.3c-0.4,0.2-0.5,0.5-0.5,1c0,0.4,0.1,0.7,0.3,0.8c0.2,0.2,0.5,0.3,0.8,0.3
		c0.5,0,1-0.1,1.4-0.4s0.6-0.8,0.7-1.6V400.7z"/>
	<path class="st20" d="M352.6,397.9v-1.6h1.2v-2.4h2.3v2.4h1.4v1.6h-1.4v4.6c0,0.4,0,0.6,0.1,0.7c0.1,0.1,0.4,0.1,0.8,0.1
		c0.1,0,0.1,0,0.2,0c0.1,0,0.2,0,0.2,0v1.7l-1.1,0c-1.1,0-1.8-0.1-2.2-0.6c-0.3-0.3-0.4-0.7-0.4-1.2v-5.4H352.6z"/>
	<path class="st20" d="M365.2,396.2c0.4,0.2,0.8,0.5,1.1,0.9c0.2,0.3,0.4,0.7,0.4,1c0.1,0.3,0.1,0.9,0.1,1.7v5.1h-2.3v-5.3
		c0-0.5-0.1-0.8-0.2-1.1c-0.2-0.4-0.6-0.6-1.2-0.6c-0.6,0-1.1,0.2-1.4,0.6c-0.3,0.4-0.5,1-0.5,1.7v4.7H359v-11.8h2.3v4.2
		c0.3-0.5,0.7-0.9,1.1-1.1c0.4-0.2,0.9-0.3,1.4-0.3C364.3,396,364.8,396.1,365.2,396.2z"/>
	<path class="st20" d="M370.7,402.1c0,0.4,0.2,0.7,0.3,0.9c0.3,0.3,0.8,0.5,1.6,0.5c0.5,0,0.8-0.1,1.1-0.2s0.4-0.3,0.4-0.6
		c0-0.3-0.1-0.5-0.3-0.6c-0.2-0.1-1-0.4-2.4-0.7c-1-0.2-1.7-0.6-2.1-0.9c-0.4-0.4-0.6-0.9-0.6-1.6c0-0.8,0.3-1.5,1-2.1
		c0.6-0.6,1.5-0.9,2.7-0.9c1.1,0,2,0.2,2.7,0.7c0.7,0.4,1.1,1.2,1.2,2.3h-2.3c0-0.3-0.1-0.5-0.2-0.7c-0.3-0.3-0.7-0.5-1.3-0.5
		c-0.5,0-0.9,0.1-1.1,0.2s-0.3,0.3-0.3,0.5c0,0.3,0.1,0.5,0.3,0.6c0.2,0.1,1,0.3,2.4,0.6c0.9,0.2,1.6,0.5,2,1c0.4,0.4,0.7,1,0.7,1.6
		c0,0.9-0.3,1.6-1,2.1c-0.6,0.5-1.6,0.8-3,0.8c-1.4,0-2.4-0.3-3-0.9s-1-1.3-1-2.2H370.7z"/>
</g>
<g>
	<path class="st20" d="M109.8,542c0.6,1,0.9,2.5,0.9,4.4c0,1.9-0.3,3.4-0.9,4.4c-0.6,1-1.6,1.6-3.1,1.6c-1.5,0-2.5-0.5-3.1-1.6
		c-0.6-1-0.9-2.5-0.9-4.4c0-1.9,0.3-3.4,0.9-4.4s1.6-1.6,3.1-1.6C108.1,540.4,109.2,540.9,109.8,542z M105.3,549.5
		c0.2,0.7,0.7,1.1,1.3,1.1c0.7,0,1.1-0.4,1.3-1.1s0.3-1.7,0.3-3.1c0-1.4-0.1-2.4-0.3-3.1s-0.7-1-1.3-1c-0.7,0-1.1,0.3-1.3,1
		s-0.3,1.7-0.3,3.1C105,547.7,105.1,548.8,105.3,549.5z"/>
	<path class="st20" d="M114,549c0.1,0.5,0.3,0.9,0.5,1.1c0.3,0.3,0.6,0.4,1.1,0.4c0.6,0,1-0.2,1.3-0.6c0.3-0.4,0.4-0.9,0.4-1.5
		c0-0.6-0.1-1.1-0.4-1.5c-0.3-0.4-0.7-0.6-1.3-0.6c-0.3,0-0.5,0-0.7,0.1c-0.4,0.1-0.6,0.4-0.8,0.7l-2-0.1l0.8-6.4h6.4v1.9h-4.7
		l-0.4,2.5c0.4-0.2,0.6-0.4,0.8-0.5c0.3-0.1,0.7-0.2,1.2-0.2c1,0,1.8,0.3,2.5,1c0.7,0.6,1.1,1.6,1.1,2.8c0,1.1-0.3,2-1,2.9
		c-0.7,0.8-1.7,1.3-3.1,1.3c-1.1,0-2-0.3-2.7-0.9c-0.7-0.6-1.1-1.4-1.2-2.5H114z"/>
	<path class="st20" d="M121.4,549.7h2.4v2.4h-2.4V549.7z"/>
	<path class="st20" d="M133.5,540.3h2.8l4.2,11.8h-2.7l-0.8-2.4h-4.3l-0.8,2.4h-2.6L133.5,540.3z M133.3,547.6h3l-1.5-4.6
		L133.3,547.6z"/>
	<path class="st20" d="M146.4,543.5c0.4,0.2,0.7,0.6,1,1v-4.2h2.3v11.8h-2.2v-1.2c-0.3,0.5-0.7,0.9-1.1,1.1
		c-0.4,0.2-0.9,0.4-1.6,0.4c-1,0-1.9-0.4-2.6-1.2c-0.7-0.8-1-1.9-1-3.2c0-1.5,0.3-2.7,1-3.5c0.7-0.9,1.6-1.3,2.7-1.3
		C145.5,543.2,146,543.3,146.4,543.5z M147,549.7c0.3-0.5,0.5-1.1,0.5-1.9c0-1.1-0.3-1.8-0.8-2.3c-0.3-0.3-0.7-0.4-1.2-0.4
		c-0.7,0-1.2,0.3-1.5,0.8c-0.3,0.5-0.5,1.1-0.5,1.9c0,0.8,0.2,1.4,0.5,1.9c0.3,0.5,0.8,0.7,1.4,0.7
		C146.1,550.4,146.6,550.2,147,549.7z"/>
	<path class="st20" d="M156.4,543.5c0.4,0.2,0.7,0.6,1,1v-4.2h2.3v11.8h-2.2v-1.2c-0.3,0.5-0.7,0.9-1.1,1.1
		c-0.4,0.2-0.9,0.4-1.6,0.4c-1,0-1.9-0.4-2.6-1.2c-0.7-0.8-1-1.9-1-3.2c0-1.5,0.3-2.7,1-3.5c0.7-0.9,1.6-1.3,2.7-1.3
		C155.5,543.2,156,543.3,156.4,543.5z M157,549.7c0.3-0.5,0.5-1.1,0.5-1.9c0-1.1-0.3-1.8-0.8-2.3c-0.3-0.3-0.7-0.4-1.2-0.4
		c-0.7,0-1.2,0.3-1.5,0.8c-0.3,0.5-0.5,1.1-0.5,1.9c0,0.8,0.2,1.4,0.5,1.9c0.3,0.5,0.8,0.7,1.4,0.7S156.6,550.2,157,549.7z"/>
	<path class="st20" d="M169.8,546.8c0.4-0.1,0.7-0.1,0.9-0.2c0.3-0.1,0.5-0.4,0.5-0.6c0-0.4-0.1-0.6-0.4-0.7
		c-0.3-0.1-0.6-0.2-1.1-0.2c-0.5,0-0.9,0.1-1.2,0.4c-0.2,0.2-0.3,0.5-0.3,0.8H166c0-0.8,0.3-1.4,0.6-1.9c0.6-0.8,1.6-1.2,3.1-1.2
		c1,0,1.8,0.2,2.6,0.6c0.7,0.4,1.1,1.1,1.1,2.1v4c0,0.3,0,0.6,0,1c0,0.3,0.1,0.5,0.1,0.6c0.1,0.1,0.2,0.2,0.3,0.3v0.3h-2.5
		c-0.1-0.2-0.1-0.3-0.1-0.5c0-0.2,0-0.3-0.1-0.5c-0.3,0.3-0.7,0.6-1.1,0.9c-0.5,0.3-1.1,0.4-1.7,0.4c-0.8,0-1.5-0.2-2-0.7
		c-0.5-0.5-0.8-1.1-0.8-1.9c0-1.1,0.4-1.8,1.2-2.3c0.5-0.3,1.1-0.4,2-0.6L169.8,546.8z M171.2,547.9c-0.1,0.1-0.3,0.2-0.4,0.2
		c-0.1,0.1-0.4,0.1-0.6,0.2l-0.5,0.1c-0.5,0.1-0.8,0.2-1,0.3c-0.4,0.2-0.5,0.5-0.5,1c0,0.4,0.1,0.7,0.3,0.8c0.2,0.2,0.5,0.3,0.8,0.3
		c0.5,0,1-0.1,1.4-0.4s0.6-0.8,0.7-1.6V547.9z"/>
	<path class="st20" d="M187,543.9c0.6,0.5,0.9,1.3,0.9,2.3v5.9h-2.3v-5.3c0-0.5-0.1-0.8-0.2-1.1c-0.2-0.4-0.6-0.7-1.3-0.7
		c-0.8,0-1.3,0.3-1.6,1c-0.1,0.3-0.2,0.8-0.2,1.3v4.7H180v-8.7h2.2v1.3c0.3-0.4,0.6-0.8,0.8-1c0.5-0.4,1.1-0.5,1.8-0.5
		C185.7,543.2,186.5,543.4,187,543.9z"/>
	<path class="st20" d="M195.7,543.6c0.6,0.3,1.1,0.7,1.5,1.3c0.4,0.5,0.6,1.1,0.7,1.8c0.1,0.4,0.1,1,0.1,1.7h-6.4
		c0,0.9,0.3,1.5,0.9,1.8c0.3,0.2,0.8,0.3,1.3,0.3c0.5,0,0.9-0.1,1.3-0.4c0.2-0.1,0.3-0.3,0.5-0.6h2.3c-0.1,0.5-0.3,1-0.8,1.6
		c-0.8,0.8-1.9,1.3-3.3,1.3c-1.2,0-2.2-0.4-3.1-1.1c-0.9-0.7-1.3-1.9-1.3-3.5c0-1.5,0.4-2.7,1.2-3.5c0.8-0.8,1.8-1.2,3.1-1.2
		C194.4,543.1,195.1,543.3,195.7,543.6z M192.3,545.5c-0.3,0.3-0.5,0.8-0.6,1.3h3.9c0-0.6-0.2-1.1-0.6-1.4c-0.4-0.3-0.8-0.5-1.4-0.5
		C193.1,545,192.6,545.2,192.3,545.5z"/>
	<path class="st20" d="M203.2,543.4h2.3l1.3,6.3l1.4-6.3h2.4l-2.5,8.7h-2.3l-1.4-6.4l-1.4,6.4h-2.4l-2.4-8.7h2.4l1.4,6.3
		L203.2,543.4z"/>
	<path class="st20" d="M221.6,546.5c0-0.3-0.2-0.6-0.3-0.9c-0.3-0.4-0.7-0.5-1.2-0.5c-0.8,0-1.3,0.4-1.6,1.1
		c-0.1,0.4-0.2,0.9-0.2,1.6c0,0.6,0.1,1.2,0.2,1.5c0.3,0.7,0.8,1.1,1.5,1.1c0.5,0,0.9-0.1,1.1-0.4s0.4-0.7,0.4-1.1h2.3
		c-0.1,0.7-0.3,1.3-0.8,2c-0.7,1-1.8,1.5-3.2,1.5c-1.4,0-2.4-0.4-3.1-1.2c-0.7-0.8-1-1.9-1-3.2c0-1.5,0.4-2.7,1.1-3.5s1.7-1.2,3-1.2
		c1.1,0,2,0.2,2.7,0.7c0.7,0.5,1.1,1.4,1.2,2.6H221.6z"/>
	<path class="st20" d="M232.8,551c-0.7,0.9-1.9,1.4-3.4,1.4c-1.5,0-2.6-0.5-3.4-1.4c-0.7-0.9-1.1-2-1.1-3.3c0-1.3,0.4-2.3,1.1-3.3
		c0.7-0.9,1.9-1.4,3.4-1.4c1.5,0,2.6,0.5,3.4,1.4c0.7,0.9,1.1,2,1.1,3.3C233.9,549,233.5,550.1,232.8,551z M231,549.8
		c0.4-0.5,0.5-1.1,0.5-2s-0.2-1.5-0.5-2s-0.9-0.7-1.5-0.7s-1.2,0.2-1.5,0.7s-0.5,1.1-0.5,2s0.2,1.5,0.5,2c0.4,0.5,0.9,0.7,1.5,0.7
		S230.6,550.2,231,549.8z"/>
	<path class="st20" d="M242.6,543.9c0.6,0.5,0.9,1.3,0.9,2.3v5.9h-2.3v-5.3c0-0.5-0.1-0.8-0.2-1.1c-0.2-0.4-0.6-0.7-1.3-0.7
		c-0.8,0-1.3,0.3-1.6,1c-0.1,0.3-0.2,0.8-0.2,1.3v4.7h-2.3v-8.7h2.2v1.3c0.3-0.4,0.6-0.8,0.8-1c0.5-0.4,1.1-0.5,1.8-0.5
		C241.3,543.2,242,543.4,242.6,543.9z"/>
	<path class="st20" d="M244.6,545.1v-1.6h1.2V541h2.3v2.4h1.4v1.6h-1.4v4.6c0,0.4,0,0.6,0.1,0.7c0.1,0.1,0.4,0.1,0.8,0.1
		c0.1,0,0.1,0,0.2,0c0.1,0,0.2,0,0.2,0v1.7l-1.1,0c-1.1,0-1.8-0.1-2.2-0.6c-0.3-0.3-0.4-0.7-0.4-1.2v-5.4H244.6z"/>
	<path class="st20" d="M254.5,546.8c0.4-0.1,0.7-0.1,0.9-0.2c0.3-0.1,0.5-0.4,0.5-0.6c0-0.4-0.1-0.6-0.4-0.7
		c-0.3-0.1-0.6-0.2-1.1-0.2c-0.5,0-0.9,0.1-1.2,0.4c-0.2,0.2-0.3,0.5-0.3,0.8h-2.2c0-0.8,0.3-1.4,0.6-1.9c0.6-0.8,1.6-1.2,3.1-1.2
		c1,0,1.8,0.2,2.6,0.6c0.7,0.4,1.1,1.1,1.1,2.1v4c0,0.3,0,0.6,0,1c0,0.3,0.1,0.5,0.1,0.6c0.1,0.1,0.2,0.2,0.3,0.3v0.3h-2.5
		c-0.1-0.2-0.1-0.3-0.1-0.5c0-0.2,0-0.3-0.1-0.5c-0.3,0.3-0.7,0.6-1.1,0.9c-0.5,0.3-1.1,0.4-1.7,0.4c-0.8,0-1.4-0.2-2-0.7
		c-0.5-0.5-0.8-1.1-0.8-1.9c0-1.1,0.4-1.8,1.2-2.3c0.5-0.3,1.1-0.4,2-0.6L254.5,546.8z M255.8,547.9c-0.1,0.1-0.3,0.2-0.4,0.2
		c-0.1,0.1-0.4,0.1-0.6,0.2l-0.5,0.1c-0.5,0.1-0.8,0.2-1,0.3c-0.4,0.2-0.5,0.5-0.5,1c0,0.4,0.1,0.7,0.3,0.8s0.5,0.3,0.8,0.3
		c0.5,0,1-0.1,1.4-0.4s0.6-0.8,0.7-1.6V547.9z"/>
	<path class="st20" d="M265.3,546.5c0-0.3-0.2-0.6-0.3-0.9c-0.3-0.4-0.7-0.5-1.2-0.5c-0.8,0-1.3,0.4-1.6,1.1
		c-0.1,0.4-0.2,0.9-0.2,1.6c0,0.6,0.1,1.2,0.2,1.5c0.3,0.7,0.8,1.1,1.5,1.1c0.5,0,0.9-0.1,1.1-0.4c0.2-0.3,0.4-0.7,0.4-1.1h2.3
		c-0.1,0.7-0.3,1.3-0.8,2c-0.7,1-1.8,1.5-3.2,1.5s-2.4-0.4-3.1-1.2c-0.7-0.8-1-1.9-1-3.2c0-1.5,0.4-2.7,1.1-3.5s1.7-1.2,3-1.2
		c1.1,0,2,0.2,2.7,0.7c0.7,0.5,1.1,1.4,1.2,2.6H265.3z"/>
	<path class="st20" d="M268.3,545.1v-1.6h1.2V541h2.3v2.4h1.4v1.6h-1.4v4.6c0,0.4,0,0.6,0.1,0.7c0.1,0.1,0.4,0.1,0.8,0.1
		c0.1,0,0.1,0,0.2,0c0.1,0,0.2,0,0.2,0v1.7l-1.1,0c-1.1,0-1.8-0.1-2.2-0.6c-0.3-0.3-0.4-0.7-0.4-1.2v-5.4H268.3z"/>
</g>
<g>
	<path class="st20" d="M438.3,542.2c0.6,1,0.9,2.5,0.9,4.4c0,1.9-0.3,3.4-0.9,4.4c-0.6,1-1.6,1.6-3.1,1.6c-1.5,0-2.5-0.5-3.1-1.6
		c-0.6-1-0.9-2.5-0.9-4.4c0-1.9,0.3-3.4,0.9-4.4s1.6-1.6,3.1-1.6C436.6,540.6,437.7,541.1,438.3,542.2z M433.8,549.6
		c0.2,0.7,0.7,1.1,1.3,1.1c0.7,0,1.1-0.4,1.3-1.1c0.2-0.7,0.3-1.7,0.3-3.1c0-1.4-0.1-2.4-0.3-3.1c-0.2-0.7-0.7-1-1.3-1
		c-0.7,0-1.1,0.3-1.3,1s-0.3,1.7-0.3,3.1C433.5,547.9,433.6,548.9,433.8,549.6z"/>
	<path class="st20" d="M445.8,543.6c0-0.2-0.1-0.4-0.2-0.6c-0.2-0.4-0.6-0.5-1.1-0.5c-0.7,0-1.3,0.4-1.6,1.2c-0.2,0.5-0.3,1.1-0.4,2
		c0.3-0.3,0.6-0.6,1-0.7c0.4-0.2,0.8-0.2,1.3-0.2c1,0,1.9,0.3,2.5,1c0.7,0.7,1,1.6,1,2.7c0,1.1-0.3,2-1,2.9c-0.6,0.8-1.6,1.2-3,1.2
		c-1.5,0-2.5-0.6-3.2-1.8c-0.5-1-0.8-2.2-0.8-3.7c0-0.9,0-1.6,0.1-2.2c0.1-1,0.4-1.8,0.8-2.5c0.3-0.6,0.8-1,1.3-1.4s1.2-0.5,1.9-0.5
		c1.1,0,1.9,0.3,2.6,0.8c0.6,0.6,1,1.3,1.1,2.2H445.8z M443.1,550.1c0.3,0.4,0.8,0.6,1.3,0.6c0.5,0,0.9-0.2,1.2-0.6
		c0.3-0.4,0.4-0.9,0.4-1.5c0-0.7-0.2-1.2-0.5-1.6c-0.3-0.4-0.7-0.5-1.2-0.5c-0.4,0-0.7,0.1-1,0.4c-0.4,0.3-0.7,0.9-0.7,1.7
		C442.5,549.2,442.7,549.7,443.1,550.1z"/>
	<path class="st20" d="M449.9,549.9h2.4v2.4h-2.4V549.9z"/>
	<path class="st20" d="M461,548.6c0.1,0.5,0.2,0.9,0.4,1.2c0.4,0.5,1.1,0.7,2.1,0.7c0.6,0,1.1-0.1,1.4-0.2c0.7-0.2,1.1-0.7,1.1-1.4
		c0-0.4-0.2-0.7-0.5-0.9c-0.3-0.2-0.9-0.4-1.6-0.6l-1.3-0.3c-1.3-0.3-2.1-0.6-2.6-0.9c-0.8-0.5-1.2-1.4-1.2-2.6
		c0-1.1,0.4-1.9,1.2-2.6s1.9-1,3.4-1c1.3,0,2.3,0.3,3.2,1s1.4,1.6,1.4,2.9h-2.4c0-0.7-0.4-1.2-1-1.5c-0.4-0.2-0.9-0.3-1.5-0.3
		c-0.7,0-1.2,0.1-1.6,0.4c-0.4,0.3-0.6,0.6-0.6,1.1c0,0.4,0.2,0.7,0.6,0.9c0.2,0.1,0.8,0.3,1.6,0.5l2.1,0.5c0.9,0.2,1.6,0.5,2,0.9
		c0.7,0.6,1.1,1.4,1.1,2.4c0,1.1-0.4,2-1.2,2.7c-0.8,0.7-2,1.1-3.5,1.1c-1.6,0-2.8-0.4-3.7-1.1c-0.9-0.7-1.3-1.7-1.3-2.9H461z"/>
	<path class="st20" d="M475.6,543.7c0.6,0.3,1.1,0.7,1.5,1.3c0.4,0.5,0.6,1.1,0.7,1.8c0.1,0.4,0.1,1,0.1,1.7h-6.4
		c0,0.9,0.3,1.5,0.9,1.8c0.3,0.2,0.8,0.3,1.3,0.3c0.5,0,0.9-0.1,1.3-0.4c0.2-0.1,0.3-0.3,0.5-0.6h2.3c-0.1,0.5-0.3,1-0.8,1.6
		c-0.8,0.8-1.9,1.3-3.3,1.3c-1.2,0-2.2-0.4-3.1-1.1c-0.9-0.7-1.3-1.9-1.3-3.5c0-1.5,0.4-2.7,1.2-3.5c0.8-0.8,1.8-1.2,3.1-1.2
		C474.3,543.3,475,543.5,475.6,543.7z M472.2,545.7c-0.3,0.3-0.5,0.8-0.6,1.3h3.9c0-0.6-0.2-1.1-0.6-1.4s-0.8-0.5-1.4-0.5
		C473,545.2,472.5,545.4,472.2,545.7z"/>
	<path class="st20" d="M486.1,544.1c0.6,0.5,0.9,1.3,0.9,2.3v5.9h-2.3V547c0-0.5-0.1-0.8-0.2-1.1c-0.2-0.4-0.6-0.7-1.3-0.7
		c-0.8,0-1.3,0.3-1.6,1c-0.1,0.3-0.2,0.8-0.2,1.3v4.7h-2.3v-8.7h2.2v1.3c0.3-0.4,0.6-0.8,0.8-1c0.5-0.4,1.1-0.5,1.8-0.5
		C484.8,543.3,485.5,543.6,486.1,544.1z"/>
	<path class="st20" d="M493.7,543.7c0.4,0.2,0.7,0.6,1,1v-4.2h2.3v11.8h-2.2v-1.2c-0.3,0.5-0.7,0.9-1.1,1.1
		c-0.4,0.2-0.9,0.4-1.6,0.4c-1,0-1.9-0.4-2.6-1.2c-0.7-0.8-1-1.9-1-3.2c0-1.5,0.3-2.7,1-3.5c0.7-0.9,1.6-1.3,2.7-1.3
		C492.8,543.3,493.3,543.5,493.7,543.7z M494.3,549.9c0.3-0.5,0.5-1.1,0.5-1.9c0-1.1-0.3-1.8-0.8-2.3c-0.3-0.3-0.7-0.4-1.2-0.4
		c-0.7,0-1.2,0.3-1.5,0.8c-0.3,0.5-0.5,1.1-0.5,1.9c0,0.8,0.2,1.4,0.5,1.9c0.3,0.5,0.8,0.7,1.4,0.7
		C493.4,550.6,493.9,550.4,494.3,549.9z"/>
	<path class="st20" d="M514.5,543.6c0.4,0.1,0.7,0.4,1,0.8c0.2,0.3,0.4,0.7,0.5,1.1c0.1,0.3,0.1,0.7,0.1,1.3l0,5.5h-2.3v-5.6
		c0-0.3-0.1-0.6-0.2-0.8c-0.2-0.4-0.6-0.6-1.1-0.6c-0.6,0-1.1,0.3-1.3,0.8c-0.1,0.3-0.2,0.6-0.2,1v5.2h-2.3v-5.2
		c0-0.5-0.1-0.9-0.2-1.1c-0.2-0.4-0.6-0.6-1.1-0.6c-0.7,0-1.1,0.2-1.3,0.6c-0.1,0.2-0.2,0.6-0.2,1.1v5.2h-2.3v-8.7h2.2v1.3
		c0.3-0.5,0.5-0.8,0.8-1c0.4-0.3,1-0.5,1.7-0.5c0.7,0,1.2,0.1,1.6,0.4c0.3,0.3,0.6,0.6,0.8,1c0.3-0.5,0.7-0.9,1.1-1.1
		c0.5-0.2,1-0.4,1.6-0.4C513.8,543.4,514.1,543.4,514.5,543.6z"/>
	<path class="st20" d="M523.9,543.7c0.6,0.3,1.1,0.7,1.5,1.3c0.4,0.5,0.6,1.1,0.7,1.8c0.1,0.4,0.1,1,0.1,1.7h-6.4
		c0,0.9,0.3,1.5,0.9,1.8c0.3,0.2,0.8,0.3,1.3,0.3c0.5,0,0.9-0.1,1.3-0.4c0.2-0.1,0.3-0.3,0.5-0.6h2.3c-0.1,0.5-0.3,1-0.8,1.6
		c-0.8,0.8-1.9,1.3-3.3,1.3c-1.2,0-2.2-0.4-3.1-1.1c-0.9-0.7-1.3-1.9-1.3-3.5c0-1.5,0.4-2.7,1.2-3.5c0.8-0.8,1.8-1.2,3.1-1.2
		C522.6,543.3,523.3,543.5,523.9,543.7z M520.5,545.7c-0.3,0.3-0.5,0.8-0.6,1.3h3.9c0-0.6-0.2-1.1-0.6-1.4s-0.8-0.5-1.4-0.5
		C521.2,545.2,520.8,545.4,520.5,545.7z"/>
	<path class="st20" d="M529.1,549.5c0,0.4,0.2,0.7,0.3,0.9c0.3,0.3,0.8,0.5,1.6,0.5c0.5,0,0.8-0.1,1.1-0.2c0.3-0.1,0.4-0.3,0.4-0.6
		c0-0.3-0.1-0.5-0.3-0.6s-1-0.4-2.4-0.7c-1-0.2-1.7-0.6-2.1-0.9c-0.4-0.4-0.6-0.9-0.6-1.6c0-0.8,0.3-1.5,0.9-2.1
		c0.6-0.6,1.5-0.9,2.7-0.9c1.1,0,2,0.2,2.7,0.7c0.7,0.4,1.1,1.2,1.2,2.3h-2.3c0-0.3-0.1-0.5-0.2-0.7c-0.3-0.3-0.7-0.5-1.3-0.5
		c-0.5,0-0.9,0.1-1.1,0.2c-0.2,0.2-0.3,0.3-0.3,0.5c0,0.3,0.1,0.5,0.3,0.6c0.2,0.1,1,0.3,2.4,0.6c0.9,0.2,1.6,0.5,2,1
		c0.4,0.4,0.7,1,0.7,1.6c0,0.9-0.3,1.6-1,2.1c-0.6,0.5-1.6,0.8-3,0.8c-1.4,0-2.4-0.3-3-0.9c-0.7-0.6-1-1.3-1-2.2H529.1z"/>
	<path class="st20" d="M538.2,549.5c0,0.4,0.2,0.7,0.3,0.9c0.3,0.3,0.8,0.5,1.6,0.5c0.5,0,0.8-0.1,1.1-0.2c0.3-0.1,0.4-0.3,0.4-0.6
		c0-0.3-0.1-0.5-0.3-0.6s-1-0.4-2.4-0.7c-1-0.2-1.7-0.6-2.1-0.9c-0.4-0.4-0.6-0.9-0.6-1.6c0-0.8,0.3-1.5,0.9-2.1
		c0.6-0.6,1.5-0.9,2.7-0.9c1.1,0,2,0.2,2.7,0.7c0.7,0.4,1.1,1.2,1.2,2.3h-2.3c0-0.3-0.1-0.5-0.2-0.7c-0.3-0.3-0.7-0.5-1.3-0.5
		c-0.5,0-0.9,0.1-1.1,0.2c-0.2,0.2-0.3,0.3-0.3,0.5c0,0.3,0.1,0.5,0.3,0.6c0.2,0.1,1,0.3,2.4,0.6c0.9,0.2,1.6,0.5,2,1
		c0.4,0.4,0.7,1,0.7,1.6c0,0.9-0.3,1.6-1,2.1c-0.6,0.5-1.6,0.8-3,0.8c-1.4,0-2.4-0.3-3-0.9c-0.7-0.6-1-1.3-1-2.2H538.2z"/>
	<path class="st20" d="M549,547c0.4-0.1,0.7-0.1,0.9-0.2c0.3-0.1,0.5-0.4,0.5-0.6c0-0.4-0.1-0.6-0.4-0.7c-0.3-0.1-0.6-0.2-1.1-0.2
		c-0.5,0-0.9,0.1-1.2,0.4c-0.2,0.2-0.3,0.5-0.3,0.8h-2.2c0-0.8,0.3-1.4,0.6-1.9c0.6-0.8,1.6-1.2,3.1-1.2c1,0,1.8,0.2,2.6,0.6
		c0.7,0.4,1.1,1.1,1.1,2.1v4c0,0.3,0,0.6,0,1c0,0.3,0.1,0.5,0.1,0.6c0.1,0.1,0.2,0.2,0.3,0.3v0.3h-2.5c-0.1-0.2-0.1-0.3-0.1-0.5
		c0-0.2,0-0.3-0.1-0.5c-0.3,0.3-0.7,0.6-1.1,0.9c-0.5,0.3-1.1,0.4-1.7,0.4c-0.8,0-1.4-0.2-2-0.7c-0.5-0.5-0.8-1.1-0.8-1.9
		c0-1.1,0.4-1.8,1.2-2.3c0.5-0.3,1.1-0.4,2-0.6L549,547z M550.4,548c-0.1,0.1-0.3,0.2-0.4,0.2c-0.1,0.1-0.4,0.1-0.6,0.2l-0.5,0.1
		c-0.5,0.1-0.8,0.2-1,0.3c-0.4,0.2-0.5,0.5-0.5,1c0,0.4,0.1,0.7,0.3,0.8s0.5,0.3,0.8,0.3c0.5,0,1-0.1,1.4-0.4s0.6-0.8,0.7-1.6V548z"
		/>
	<path class="st20" d="M559,543.5c0.6,0.2,1,0.7,1.3,1.3v-1.3h2.2v8.3c0,1.1-0.2,2-0.6,2.5c-0.7,1-1.9,1.5-3.7,1.5
		c-1.1,0-2-0.2-2.7-0.7c-0.7-0.4-1.1-1.1-1.2-2h2.5c0.1,0.3,0.2,0.5,0.3,0.6c0.2,0.2,0.7,0.3,1.2,0.3c0.8,0,1.4-0.3,1.6-0.8
		c0.2-0.4,0.3-0.9,0.3-1.8V551c-0.2,0.4-0.5,0.7-0.7,0.8c-0.5,0.3-1,0.5-1.8,0.5c-1.1,0-2-0.4-2.7-1.2c-0.7-0.8-1-1.9-1-3.2
		c0-1.3,0.3-2.4,1-3.3c0.6-0.9,1.6-1.3,2.7-1.3C558.3,543.3,558.6,543.4,559,543.5z M559.7,549.8c0.4-0.4,0.5-1,0.5-1.9
		c0-0.8-0.2-1.5-0.5-1.9c-0.3-0.4-0.8-0.6-1.4-0.6c-0.8,0-1.3,0.4-1.6,1.1c-0.2,0.4-0.2,0.9-0.2,1.5c0,0.5,0.1,1,0.3,1.4
		c0.3,0.7,0.9,1.1,1.7,1.1C558.9,550.4,559.4,550.2,559.7,549.8z"/>
	<path class="st20" d="M570.3,543.7c0.6,0.3,1.1,0.7,1.5,1.3c0.4,0.5,0.6,1.1,0.7,1.8c0.1,0.4,0.1,1,0.1,1.7h-6.4
		c0,0.9,0.3,1.5,0.9,1.8c0.3,0.2,0.8,0.3,1.3,0.3c0.5,0,0.9-0.1,1.3-0.4c0.2-0.1,0.3-0.3,0.5-0.6h2.3c-0.1,0.5-0.3,1-0.8,1.6
		c-0.8,0.8-1.9,1.3-3.3,1.3c-1.2,0-2.2-0.4-3.1-1.1c-0.9-0.7-1.3-1.9-1.3-3.5c0-1.5,0.4-2.7,1.2-3.5c0.8-0.8,1.8-1.2,3.1-1.2
		C569,543.3,569.7,543.5,570.3,543.7z M566.9,545.7c-0.3,0.3-0.5,0.8-0.6,1.3h3.9c0-0.6-0.2-1.1-0.6-1.4s-0.8-0.5-1.4-0.5
		C567.7,545.2,567.2,545.4,566.9,545.7z"/>
	<path class="st20" d="M577.4,545.3v-1.6h1.2v-2.4h2.3v2.4h1.4v1.6h-1.4v4.6c0,0.4,0,0.6,0.1,0.7c0.1,0.1,0.4,0.1,0.8,0.1
		c0.1,0,0.1,0,0.2,0c0.1,0,0.2,0,0.2,0v1.7l-1.1,0c-1.1,0-1.8-0.1-2.2-0.6c-0.3-0.3-0.4-0.7-0.4-1.2v-5.4H577.4z"/>
	<path class="st20" d="M591,551.2c-0.7,0.9-1.9,1.4-3.4,1.4c-1.5,0-2.6-0.5-3.4-1.4c-0.7-0.9-1.1-2-1.1-3.3c0-1.3,0.4-2.3,1.1-3.3
		c0.7-0.9,1.9-1.4,3.4-1.4c1.5,0,2.6,0.5,3.4,1.4s1.1,2,1.1,3.3C592.1,549.2,591.8,550.3,591,551.2z M589.2,549.9
		c0.4-0.5,0.5-1.1,0.5-2s-0.2-1.5-0.5-2s-0.9-0.7-1.5-0.7c-0.7,0-1.2,0.2-1.5,0.7c-0.4,0.5-0.5,1.1-0.5,2s0.2,1.5,0.5,2
		c0.4,0.5,0.9,0.7,1.5,0.7C588.4,550.7,588.9,550.4,589.2,549.9z"/>
	<path class="st20" d="M600.3,548.6c0.1,0.5,0.2,0.9,0.4,1.2c0.4,0.5,1.1,0.7,2.1,0.7c0.6,0,1.1-0.1,1.4-0.2
		c0.7-0.2,1.1-0.7,1.1-1.4c0-0.4-0.2-0.7-0.5-0.9c-0.3-0.2-0.9-0.4-1.6-0.6l-1.3-0.3c-1.3-0.3-2.1-0.6-2.6-0.9
		c-0.8-0.5-1.2-1.4-1.2-2.6c0-1.1,0.4-1.9,1.2-2.6s1.9-1,3.4-1c1.3,0,2.3,0.3,3.2,1s1.4,1.6,1.4,2.9H605c0-0.7-0.4-1.2-1-1.5
		c-0.4-0.2-0.9-0.3-1.5-0.3c-0.7,0-1.2,0.1-1.6,0.4c-0.4,0.3-0.6,0.6-0.6,1.1c0,0.4,0.2,0.7,0.6,0.9c0.2,0.1,0.8,0.3,1.6,0.5
		l2.1,0.5c0.9,0.2,1.6,0.5,2,0.9c0.7,0.6,1.1,1.4,1.1,2.4c0,1.1-0.4,2-1.2,2.7c-0.8,0.7-2,1.1-3.5,1.1c-1.6,0-2.8-0.4-3.7-1.1
		c-0.9-0.7-1.3-1.7-1.3-2.9H600.3z"/>
	<path class="st20" d="M612.7,547c0.4-0.1,0.7-0.1,0.9-0.2c0.3-0.1,0.5-0.4,0.5-0.6c0-0.4-0.1-0.6-0.4-0.7c-0.3-0.1-0.6-0.2-1.1-0.2
		c-0.5,0-0.9,0.1-1.2,0.4c-0.2,0.2-0.3,0.5-0.3,0.8h-2.2c0-0.8,0.3-1.4,0.6-1.9c0.6-0.8,1.6-1.2,3.1-1.2c1,0,1.8,0.2,2.6,0.6
		c0.7,0.4,1.1,1.1,1.1,2.1v4c0,0.3,0,0.6,0,1c0,0.3,0.1,0.5,0.1,0.6c0.1,0.1,0.2,0.2,0.3,0.3v0.3h-2.5c-0.1-0.2-0.1-0.3-0.1-0.5
		c0-0.2,0-0.3-0.1-0.5c-0.3,0.3-0.7,0.6-1.1,0.9c-0.5,0.3-1.1,0.4-1.7,0.4c-0.8,0-1.5-0.2-2-0.7c-0.5-0.5-0.8-1.1-0.8-1.9
		c0-1.1,0.4-1.8,1.2-2.3c0.5-0.3,1.1-0.4,2-0.6L612.7,547z M614.1,548c-0.1,0.1-0.3,0.2-0.4,0.2c-0.1,0.1-0.4,0.1-0.6,0.2l-0.5,0.1
		c-0.5,0.1-0.8,0.2-1,0.3c-0.4,0.2-0.5,0.5-0.5,1c0,0.4,0.1,0.7,0.3,0.8c0.2,0.2,0.5,0.3,0.8,0.3c0.5,0,1-0.1,1.4-0.4
		s0.6-0.8,0.7-1.6V548z"/>
	<path class="st20" d="M620.7,552.3h-2.3v-11.8h2.3V552.3z"/>
	<path class="st20" d="M628.6,543.7c0.6,0.3,1.1,0.7,1.5,1.3c0.4,0.5,0.6,1.1,0.7,1.8c0.1,0.4,0.1,1,0.1,1.7h-6.4
		c0,0.9,0.3,1.5,0.9,1.8c0.3,0.2,0.8,0.3,1.3,0.3c0.5,0,0.9-0.1,1.3-0.4c0.2-0.1,0.3-0.3,0.5-0.6h2.3c-0.1,0.5-0.3,1-0.8,1.6
		c-0.8,0.8-1.9,1.3-3.3,1.3c-1.2,0-2.2-0.4-3.1-1.1c-0.9-0.7-1.3-1.9-1.3-3.5c0-1.5,0.4-2.7,1.2-3.5c0.8-0.8,1.8-1.2,3.1-1.2
		C627.3,543.3,628,543.5,628.6,543.7z M625.2,545.7c-0.3,0.3-0.5,0.8-0.6,1.3h3.9c0-0.6-0.2-1.1-0.6-1.4s-0.8-0.5-1.4-0.5
		C626,545.2,625.5,545.4,625.2,545.7z"/>
	<path class="st20" d="M633.8,549.5c0,0.4,0.2,0.7,0.3,0.9c0.3,0.3,0.8,0.5,1.6,0.5c0.5,0,0.8-0.1,1.1-0.2c0.3-0.1,0.4-0.3,0.4-0.6
		c0-0.3-0.1-0.5-0.3-0.6s-1-0.4-2.4-0.7c-1-0.2-1.7-0.6-2.1-0.9c-0.4-0.4-0.6-0.9-0.6-1.6c0-0.8,0.3-1.5,0.9-2.1
		c0.6-0.6,1.5-0.9,2.7-0.9c1.1,0,2,0.2,2.7,0.7c0.7,0.4,1.1,1.2,1.2,2.3h-2.3c0-0.3-0.1-0.5-0.2-0.7c-0.3-0.3-0.7-0.5-1.3-0.5
		c-0.5,0-0.9,0.1-1.1,0.2c-0.2,0.2-0.3,0.3-0.3,0.5c0,0.3,0.1,0.5,0.3,0.6c0.2,0.1,1,0.3,2.4,0.6c0.9,0.2,1.6,0.5,2,1
		c0.4,0.4,0.7,1,0.7,1.6c0,0.9-0.3,1.6-1,2.1c-0.6,0.5-1.6,0.8-3,0.8c-1.4,0-2.4-0.3-3-0.9c-0.7-0.6-1-1.3-1-2.2H633.8z"/>
	<path class="st20" d="M650.9,546.7c0-0.3-0.2-0.6-0.3-0.9c-0.3-0.4-0.7-0.5-1.2-0.5c-0.8,0-1.3,0.4-1.6,1.1
		c-0.1,0.4-0.2,0.9-0.2,1.6c0,0.6,0.1,1.2,0.2,1.5c0.3,0.7,0.8,1.1,1.5,1.1c0.5,0,0.9-0.1,1.1-0.4c0.2-0.3,0.4-0.7,0.4-1.1h2.3
		c-0.1,0.7-0.3,1.3-0.8,2c-0.7,1-1.8,1.5-3.2,1.5s-2.4-0.4-3.1-1.2c-0.7-0.8-1-1.9-1-3.2c0-1.5,0.4-2.7,1.1-3.5s1.7-1.2,3-1.2
		c1.1,0,2,0.2,2.7,0.7c0.7,0.5,1.1,1.4,1.2,2.6H650.9z"/>
	<path class="st20" d="M661.1,543.6c0.4,0.2,0.8,0.5,1.1,0.9c0.2,0.3,0.4,0.7,0.4,1c0.1,0.3,0.1,0.9,0.1,1.7v5.1h-2.3V547
		c0-0.5-0.1-0.8-0.2-1.1c-0.2-0.4-0.6-0.6-1.2-0.6c-0.6,0-1.1,0.2-1.4,0.6c-0.3,0.4-0.5,1-0.5,1.7v4.7h-2.3v-11.8h2.3v4.2
		c0.3-0.5,0.7-0.9,1.1-1.1c0.4-0.2,0.9-0.3,1.4-0.3C660.2,543.3,660.6,543.4,661.1,543.6z"/>
	<path class="st20" d="M668.3,547c0.4-0.1,0.7-0.1,0.9-0.2c0.3-0.1,0.5-0.4,0.5-0.6c0-0.4-0.1-0.6-0.4-0.7c-0.3-0.1-0.6-0.2-1.1-0.2
		c-0.5,0-0.9,0.1-1.2,0.4c-0.2,0.2-0.3,0.5-0.3,0.8h-2.2c0-0.8,0.3-1.4,0.6-1.9c0.6-0.8,1.6-1.2,3.1-1.2c1,0,1.8,0.2,2.6,0.6
		c0.7,0.4,1.1,1.1,1.1,2.1v4c0,0.3,0,0.6,0,1c0,0.3,0.1,0.5,0.1,0.6c0.1,0.1,0.2,0.2,0.3,0.3v0.3h-2.5c-0.1-0.2-0.1-0.3-0.1-0.5
		c0-0.2,0-0.3-0.1-0.5c-0.3,0.3-0.7,0.6-1.1,0.9c-0.5,0.3-1.1,0.4-1.7,0.4c-0.8,0-1.4-0.2-2-0.7c-0.5-0.5-0.8-1.1-0.8-1.9
		c0-1.1,0.4-1.8,1.2-2.3c0.5-0.3,1.1-0.4,2-0.6L668.3,547z M669.7,548c-0.1,0.1-0.3,0.2-0.4,0.2c-0.1,0.1-0.4,0.1-0.6,0.2l-0.5,0.1
		c-0.5,0.1-0.8,0.2-1,0.3c-0.4,0.2-0.5,0.5-0.5,1c0,0.4,0.1,0.7,0.3,0.8s0.5,0.3,0.8,0.3c0.5,0,1-0.1,1.4-0.4s0.6-0.8,0.7-1.6V548z"
		/>
	<path class="st20" d="M681,544.1c0.6,0.5,0.9,1.3,0.9,2.3v5.9h-2.3V547c0-0.5-0.1-0.8-0.2-1.1c-0.2-0.4-0.6-0.7-1.3-0.7
		c-0.8,0-1.3,0.3-1.6,1c-0.1,0.3-0.2,0.8-0.2,1.3v4.7h-2.3v-8.7h2.2v1.3c0.3-0.4,0.6-0.8,0.8-1c0.5-0.4,1.1-0.5,1.8-0.5
		C679.7,543.3,680.4,543.6,681,544.1z"/>
	<path class="st20" d="M691,544.1c0.6,0.5,0.9,1.3,0.9,2.3v5.9h-2.3V547c0-0.5-0.1-0.8-0.2-1.1c-0.2-0.4-0.6-0.7-1.3-0.7
		c-0.8,0-1.3,0.3-1.6,1c-0.1,0.3-0.2,0.8-0.2,1.3v4.7H684v-8.7h2.2v1.3c0.3-0.4,0.6-0.8,0.8-1c0.5-0.4,1.1-0.5,1.8-0.5
		C689.7,543.3,690.4,543.6,691,544.1z"/>
	<path class="st20" d="M699.6,543.7c0.6,0.3,1.1,0.7,1.5,1.3c0.4,0.5,0.6,1.1,0.7,1.8c0.1,0.4,0.1,1,0.1,1.7h-6.4
		c0,0.9,0.3,1.5,0.9,1.8c0.3,0.2,0.8,0.3,1.3,0.3c0.5,0,0.9-0.1,1.3-0.4c0.2-0.1,0.3-0.3,0.5-0.6h2.3c-0.1,0.5-0.3,1-0.8,1.6
		c-0.8,0.8-1.9,1.3-3.3,1.3c-1.2,0-2.2-0.4-3.1-1.1c-0.9-0.7-1.3-1.9-1.3-3.5c0-1.5,0.4-2.7,1.2-3.5c0.8-0.8,1.8-1.2,3.1-1.2
		C698.3,543.3,699,543.5,699.6,543.7z M696.2,545.7c-0.3,0.3-0.5,0.8-0.6,1.3h3.9c0-0.6-0.2-1.1-0.6-1.4c-0.4-0.3-0.8-0.5-1.4-0.5
		C697,545.2,696.5,545.4,696.2,545.7z"/>
	<path class="st20" d="M705.4,552.3h-2.3v-11.8h2.3V552.3z"/>
</g>
</svg>
