<?xml version="1.0" encoding="utf-8"?>
<!-- Generator: Adobe Illustrator 24.3.0, SVG Export Plug-In . SVG Version: 6.00 Build 0)  -->
<svg version="1.1" id="Layer_1" xmlns="http://www.w3.org/2000/svg" xmlns:xlink="http://www.w3.org/1999/xlink" x="0px" y="0px"
	 width="1140.9px" height="552.3px" viewBox="0 0 1140.9 552.3" style="enable-background:new 0 0 1140.9 552.3;"
	 xml:space="preserve">
<style type="text/css">
	.st0{fill:none;stroke:#FFFFFF;stroke-width:0.5;stroke-miterlimit:10;}
	.st1{fill:#FFFFFF;}
	.st2{fill:none;stroke:#B3B3B3;stroke-width:1.0904;stroke-miterlimit:2.1807;}
	.st3{fill:#FFFFFF;stroke:#B3B3B3;stroke-width:1.0904;stroke-miterlimit:2.1807;}
	.st4{fill:#A17AC7;}
	.st5{font-family:'ArialMT';}
	.st6{font-size:12.566px;}
	.st7{enable-background:new    ;}
	.st8{fill:#5D51AF;}
	.st9{opacity:0.5;}
	.st10{fill:none;stroke:#5D51AF;stroke-miterlimit:10;}
	.st11{fill:#010007;}
	.st12{font-family:'Helvetica';}
	.st13{font-size:9.4245px;}
	.st14{font-size:10.9952px;}
</style>
<g>
	<g>
		<line class="st0" x1="432.8" y1="47.9" x2="260.3" y2="47.9"/>
		<polygon class="st1" points="438.5,47.6 431.2,51.5 431.2,44.3 438.5,47.6 		"/>
	</g>
	<g>
		<g>
			<line id="actor-man-torso0_8_" class="st2" x1="12.3" y1="38.7" x2="12.3" y2="46.6"/>
			<line id="actor-man-arms0_8_" class="st2" x1="5.2" y1="41.9" x2="19.3" y2="41.9"/>
			<line class="st2" x1="5.2" y1="52.5" x2="12.3" y2="46.6"/>
			<line class="st2" x1="12.3" y1="46.6" x2="18.6" y2="52.5"/>
			<circle class="st3" cx="12.3" cy="32.8" r="5.9"/>
		</g>
		<g>
			<text transform="matrix(1 0 0 1 -3.662109e-04 64.7727)" class="st4 st5 st6">User</text>
		</g>
	</g>
	<text transform="matrix(1 0 0 1 97.2399 65.1779)" class="st7"><tspan x="0" y="0" class="st1 st5 st6">Visit landing page\n</tspan><tspan x="-33.2" y="15.1" class="st1 st5 st6">(select **Doctor-Appointment**)</tspan></text>
	<path class="st8" d="M257.7,41.4H46.4c-1.4,0-2.5-1.1-2.5-2.5V3c0-1.4,1.1-2.5,2.5-2.5h211.3c1.4,0,2.5,1.1,2.5,2.5v35.9
		C260.3,40.3,259.1,41.4,257.7,41.4z"/>
	<g class="st9">
		<g>
			<rect x="151.4" y="95.3" class="st8" width="1.4" height="3.4"/>
			<rect x="151.4" y="100.4" class="st8" width="1.4" height="3.4"/>
			<rect x="151.4" y="105.5" class="st8" width="1.4" height="3.4"/>
			<rect x="151.4" y="110.6" class="st8" width="1.4" height="3.4"/>
			<rect x="151.4" y="115.7" class="st8" width="1.4" height="3.4"/>
			<rect x="151.4" y="120.8" class="st8" width="1.4" height="3.4"/>
			<rect x="151.4" y="125.9" class="st8" width="1.4" height="3.4"/>
		</g>
		<g>
			<rect x="151.4" y="131" class="st8" width="1.4" height="3.4"/>
			<rect x="151.4" y="136.2" class="st8" width="1.4" height="3.4"/>
			<rect x="151.4" y="141.3" class="st8" width="1.4" height="3.4"/>
			<rect x="151.4" y="146.4" class="st8" width="1.4" height="3.4"/>
			<rect x="151.4" y="151.5" class="st8" width="1.4" height="3.4"/>
			<rect x="151.4" y="156.6" class="st8" width="1.4" height="3.4"/>
			<rect x="151.4" y="161.7" class="st8" width="1.4" height="3.4"/>
		</g>
		<g>
			<rect x="151.4" y="166.8" class="st8" width="1.4" height="3.4"/>
			<rect x="151.4" y="171.9" class="st8" width="1.4" height="3.4"/>
			<rect x="151.4" y="177" class="st8" width="1.4" height="3.4"/>
			<rect x="151.4" y="182.1" class="st8" width="1.4" height="3.4"/>
			<rect x="151.4" y="187.2" class="st8" width="1.4" height="3.4"/>
			<rect x="151.4" y="192.3" class="st8" width="1.4" height="3.4"/>
			<rect x="151.4" y="197.4" class="st8" width="1.4" height="3.4"/>
		</g>
		<g>
			<rect x="151.4" y="202.5" class="st8" width="1.4" height="3.4"/>
			<rect x="151.4" y="207.6" class="st8" width="1.4" height="3.4"/>
			<rect x="151.4" y="212.7" class="st8" width="1.4" height="3.4"/>
			<rect x="151.4" y="217.8" class="st8" width="1.4" height="3.4"/>
			<rect x="151.4" y="223" class="st8" width="1.4" height="3.4"/>
			<rect x="151.4" y="228.1" class="st8" width="1.4" height="3.4"/>
			<rect x="151.4" y="233.2" class="st8" width="1.4" height="3.4"/>
		</g>
		<g>
			<rect x="151.4" y="238.3" class="st8" width="1.4" height="3.4"/>
			<rect x="151.4" y="243.4" class="st8" width="1.4" height="3.4"/>
			<rect x="151.4" y="248.5" class="st8" width="1.4" height="3.4"/>
			<rect x="151.4" y="253.6" class="st8" width="1.4" height="3.4"/>
			<rect x="151.4" y="258.7" class="st8" width="1.4" height="3.4"/>
			<rect x="151.4" y="263.8" class="st8" width="1.4" height="3.4"/>
			<rect x="151.4" y="268.9" class="st8" width="1.4" height="3.4"/>
		</g>
		<g>
			<rect x="151.4" y="274" class="st8" width="1.4" height="3.4"/>
			<rect x="151.4" y="279.1" class="st8" width="1.4" height="3.4"/>
			<rect x="151.4" y="284.2" class="st8" width="1.4" height="3.4"/>
			<rect x="151.4" y="289.3" class="st8" width="1.4" height="3.4"/>
			<rect x="151.4" y="294.4" class="st8" width="1.4" height="3.4"/>
			<rect x="151.4" y="299.5" class="st8" width="1.4" height="3.4"/>
			<rect x="151.4" y="304.6" class="st8" width="1.4" height="3.4"/>
		</g>
	</g>
	<g class="st9">
		<g>
			<rect x="151.4" y="337" class="st8" width="1.4" height="3.7"/>
			<rect x="151.4" y="342.5" class="st8" width="1.4" height="3.7"/>
			<rect x="151.4" y="348" class="st8" width="1.4" height="3.7"/>
			<rect x="151.4" y="353.5" class="st8" width="1.4" height="3.7"/>
			<rect x="151.4" y="359" class="st8" width="1.4" height="3.7"/>
			<rect x="151.4" y="364.5" class="st8" width="1.4" height="3.7"/>
			<rect x="151.4" y="370" class="st8" width="1.4" height="3.7"/>
		</g>
		<g>
			<rect x="151.4" y="375.5" class="st8" width="1.4" height="3.7"/>
			<rect x="151.4" y="381" class="st8" width="1.4" height="3.7"/>
			<rect x="151.4" y="386.5" class="st8" width="1.4" height="3.7"/>
			<rect x="151.4" y="392" class="st8" width="1.4" height="3.7"/>
			<rect x="151.4" y="397.5" class="st8" width="1.4" height="3.7"/>
			<rect x="151.4" y="403" class="st8" width="1.4" height="3.7"/>
			<rect x="151.4" y="408.5" class="st8" width="1.4" height="3.7"/>
		</g>
		<g>
			<rect x="151.4" y="414" class="st8" width="1.4" height="3.7"/>
			<rect x="151.4" y="419.5" class="st8" width="1.4" height="3.7"/>
			<rect x="151.4" y="425" class="st8" width="1.4" height="3.7"/>
			<rect x="151.4" y="430.5" class="st8" width="1.4" height="3.7"/>
			<rect x="151.4" y="436" class="st8" width="1.4" height="3.7"/>
			<rect x="151.4" y="441.5" class="st8" width="1.4" height="3.7"/>
			<rect x="151.4" y="447" class="st8" width="1.4" height="3.7"/>
		</g>
		<g>
			<rect x="151.4" y="452.5" class="st8" width="1.4" height="3.7"/>
			<rect x="151.4" y="458" class="st8" width="1.4" height="3.7"/>
			<rect x="151.4" y="463.5" class="st8" width="1.4" height="3.7"/>
			<rect x="151.4" y="469" class="st8" width="1.4" height="3.7"/>
			<rect x="151.4" y="474.5" class="st8" width="1.4" height="3.7"/>
			<rect x="151.4" y="480" class="st8" width="1.4" height="3.7"/>
			<rect x="151.4" y="485.5" class="st8" width="1.4" height="3.7"/>
		</g>
		<g>
			<rect x="151.4" y="491" class="st8" width="1.4" height="3.7"/>
			<rect x="151.4" y="496.5" class="st8" width="1.4" height="3.7"/>
			<rect x="151.4" y="502" class="st8" width="1.4" height="3.7"/>
		</g>
	</g>
	<g class="st9">
		<g>
			<rect x="591.5" y="95.3" class="st8" width="1.4" height="3.4"/>
			<rect x="591.5" y="100.4" class="st8" width="1.4" height="3.4"/>
			<rect x="591.5" y="105.5" class="st8" width="1.4" height="3.4"/>
			<rect x="591.5" y="110.6" class="st8" width="1.4" height="3.4"/>
			<rect x="591.5" y="115.7" class="st8" width="1.4" height="3.4"/>
			<rect x="591.5" y="120.8" class="st8" width="1.4" height="3.4"/>
			<rect x="591.5" y="125.9" class="st8" width="1.4" height="3.4"/>
		</g>
		<g>
			<rect x="591.5" y="131" class="st8" width="1.4" height="3.4"/>
			<rect x="591.5" y="136.2" class="st8" width="1.4" height="3.4"/>
			<rect x="591.5" y="141.3" class="st8" width="1.4" height="3.4"/>
			<rect x="591.5" y="146.4" class="st8" width="1.4" height="3.4"/>
			<rect x="591.5" y="151.5" class="st8" width="1.4" height="3.4"/>
			<rect x="591.5" y="156.6" class="st8" width="1.4" height="3.4"/>
			<rect x="591.5" y="161.7" class="st8" width="1.4" height="3.4"/>
		</g>
		<g>
			<rect x="591.5" y="166.8" class="st8" width="1.4" height="3.4"/>
			<rect x="591.5" y="171.9" class="st8" width="1.4" height="3.4"/>
			<rect x="591.5" y="177" class="st8" width="1.4" height="3.4"/>
			<rect x="591.5" y="182.1" class="st8" width="1.4" height="3.4"/>
			<rect x="591.5" y="187.2" class="st8" width="1.4" height="3.4"/>
			<rect x="591.5" y="192.3" class="st8" width="1.4" height="3.4"/>
			<rect x="591.5" y="197.4" class="st8" width="1.4" height="3.4"/>
		</g>
		<g>
			<rect x="591.5" y="202.5" class="st8" width="1.4" height="3.4"/>
			<rect x="591.5" y="207.6" class="st8" width="1.4" height="3.4"/>
			<rect x="591.5" y="212.7" class="st8" width="1.4" height="3.4"/>
			<rect x="591.5" y="217.8" class="st8" width="1.4" height="3.4"/>
			<rect x="591.5" y="223" class="st8" width="1.4" height="3.4"/>
			<rect x="591.5" y="228.1" class="st8" width="1.4" height="3.4"/>
			<rect x="591.5" y="233.2" class="st8" width="1.4" height="3.4"/>
		</g>
		<g>
			<rect x="591.5" y="238.3" class="st8" width="1.4" height="3.4"/>
			<rect x="591.5" y="243.4" class="st8" width="1.4" height="3.4"/>
			<rect x="591.5" y="248.5" class="st8" width="1.4" height="3.4"/>
			<rect x="591.5" y="253.6" class="st8" width="1.4" height="3.4"/>
			<rect x="591.5" y="258.7" class="st8" width="1.4" height="3.4"/>
			<rect x="591.5" y="263.8" class="st8" width="1.4" height="3.4"/>
			<rect x="591.5" y="268.9" class="st8" width="1.4" height="3.4"/>
		</g>
		<g>
			<rect x="591.5" y="274" class="st8" width="1.4" height="3.4"/>
			<rect x="591.5" y="279.1" class="st8" width="1.4" height="3.4"/>
			<rect x="591.5" y="284.2" class="st8" width="1.4" height="3.4"/>
			<rect x="591.5" y="289.3" class="st8" width="1.4" height="3.4"/>
			<rect x="591.5" y="294.4" class="st8" width="1.4" height="3.4"/>
			<rect x="591.5" y="299.5" class="st8" width="1.4" height="3.4"/>
		</g>
	</g>
	<g class="st9">
		<g>
			<rect x="591.5" y="357.7" class="st8" width="1.4" height="3.7"/>
			<rect x="591.5" y="363.2" class="st8" width="1.4" height="3.7"/>
			<rect x="591.5" y="368.7" class="st8" width="1.4" height="3.7"/>
		</g>
		<g>
			<rect x="591.5" y="374.2" class="st8" width="1.4" height="3.7"/>
			<rect x="591.5" y="379.7" class="st8" width="1.4" height="3.7"/>
			<rect x="591.5" y="385.2" class="st8" width="1.4" height="3.7"/>
			<rect x="591.5" y="390.7" class="st8" width="1.4" height="3.7"/>
			<rect x="591.5" y="396.2" class="st8" width="1.4" height="3.7"/>
			<rect x="591.5" y="401.7" class="st8" width="1.4" height="3.7"/>
			<rect x="591.5" y="407.2" class="st8" width="1.4" height="3.7"/>
		</g>
		<g>
			<rect x="591.5" y="412.7" class="st8" width="1.4" height="3.7"/>
			<rect x="591.5" y="418.2" class="st8" width="1.4" height="3.7"/>
			<rect x="591.5" y="423.7" class="st8" width="1.4" height="3.7"/>
			<rect x="591.5" y="429.2" class="st8" width="1.4" height="3.7"/>
			<rect x="591.5" y="434.7" class="st8" width="1.4" height="3.7"/>
			<rect x="591.5" y="440.2" class="st8" width="1.4" height="3.7"/>
			<rect x="591.5" y="445.7" class="st8" width="1.4" height="3.7"/>
		</g>
		<g>
			<rect x="591.5" y="451.2" class="st8" width="1.4" height="3.7"/>
			<rect x="591.5" y="456.7" class="st8" width="1.4" height="3.7"/>
			<rect x="591.5" y="462.2" class="st8" width="1.4" height="3.7"/>
			<rect x="591.5" y="467.7" class="st8" width="1.4" height="3.7"/>
			<rect x="591.5" y="473.2" class="st8" width="1.4" height="3.7"/>
			<rect x="591.5" y="478.7" class="st8" width="1.4" height="3.7"/>
			<rect x="591.5" y="484.2" class="st8" width="1.4" height="3.7"/>
		</g>
		<g>
			<rect x="591.5" y="489.7" class="st8" width="1.4" height="3.7"/>
			<rect x="591.5" y="495.2" class="st8" width="1.4" height="3.7"/>
			<rect x="591.5" y="500.7" class="st8" width="1.4" height="3.7"/>
		</g>
	</g>
	<path class="st10" d="M257.7,95.3H46.4c-1.4,0-2.5-1.1-2.5-2.5V3c0-1.4,1.1-2.5,2.5-2.5h211.3c1.4,0,2.5,1.1,2.5,2.5v89.7
		C260.3,94.2,259.1,95.3,257.7,95.3z"/>
	<text transform="matrix(1 0 0 1 99.6217 306.5949)" class="st7"><tspan x="0" y="0" class="st1 st5 st6">POST /agents/start</tspan><tspan x="-36.6" y="15.1" class="st1 st5 st6">{template: &quot;DoctorAppointment&quot;}</tspan></text>
	<path class="st8" d="M258.7,282.9H47.4c-1.4,0-2.5-1.1-2.5-2.5v-35.9c0-1.4,1.1-2.5,2.5-2.5h211.3c1.4,0,2.5,1.1,2.5,2.5v35.9
		C261.2,281.7,260.1,282.9,258.7,282.9z"/>
	<g>
		<g>
			<circle class="st11" cx="91.2" cy="263.9" r="7.9"/>
			<text transform="matrix(1 0 0 1 88.5387 267.2805)" class="st1 st12 st13">3</text>
		</g>
		<text transform="matrix(1 0 0 1 108.3424 267.2951)" class="st1 st5 st6">&quot;Chat-App Backend&quot;</text>
	</g>
	<line class="st0" x1="466.3" y1="309.5" x2="261.2" y2="309.5"/>
	<path class="st10" d="M258.7,336.7H47.4c-1.4,0-2.5-1.1-2.5-2.5v-89.7c0-1.4,1.1-2.5,2.5-2.5h211.3c1.4,0,2.5,1.1,2.5,2.5v89.7
		C261.2,335.6,260.1,336.7,258.7,336.7z"/>
	<text transform="matrix(1 0 0 1 957.7516 312.8098)" class="st1 st5 st6">{agent_id, status: READY}</text>
	<path class="st8" d="M1137.1,282.9H925.8c-1.4,0-2.5-1.1-2.5-2.5v-35.9c0-1.4,1.1-2.5,2.5-2.5h211.3c1.4,0,2.5,1.1,2.5,2.5v35.9
		C1139.6,281.7,1138.5,282.9,1137.1,282.9z"/>
	<g>
		<g>
			<circle class="st11" cx="969.6" cy="263.9" r="7.9"/>
			<text transform="matrix(1 0 0 1 966.9391 267.2805)" class="st1 st12 st13">6</text>
		</g>
		<text transform="matrix(1 0 0 1 986.7418 267.2951)" class="st1 st5 st6">&quot;Chat-App Backend&quot;</text>
	</g>
	<line class="st0" x1="875.6" y1="451.9" x2="959.4" y2="337.1"/>
	<path class="st10" d="M1137.1,336.7H925.8c-1.4,0-2.5-1.1-2.5-2.5v-89.7c0-1.4,1.1-2.5,2.5-2.5h211.3c1.4,0,2.5,1.1,2.5,2.5v89.7
		C1139.6,335.6,1138.5,336.7,1137.1,336.7z"/>
	<line class="st0" x1="547.6" y1="504.4" x2="653.6" y2="504.4"/>
	<g>
		<text transform="matrix(1 0 0 1 709.8619 527.9094)" class="st1 st5 st6">emit &quot;agentReady&quot;</text>
		<path class="st8" d="M867.5,498H656.2c-1.4,0-2.5-1.1-2.5-2.5v-35.9c0-1.4,1.1-2.5,2.5-2.5h211.3c1.4,0,2.5,1.1,2.5,2.5v35.9
			C870,496.8,868.9,498,867.5,498z"/>
		<g>
			<g>
				<circle class="st11" cx="676.6" cy="479" r="7.9"/>
				<text transform="matrix(1 0 0 1 673.9303 482.3801)" class="st1 st12 st13">7</text>
			</g>
			<text transform="matrix(1 0 0 1 693.7321 482.3947)" class="st1 st5 st6">&quot;System-Protocol\nGateway&quot;</text>
		</g>
		<path class="st10" d="M867.5,551.8H656.2c-1.4,0-2.5-1.1-2.5-2.5v-89.7c0-1.4,1.1-2.5,2.5-2.5h211.3c1.4,0,2.5,1.1,2.5,2.5v89.7
			C870,550.7,868.9,551.8,867.5,551.8z"/>
	</g>
	<g>
		<text transform="matrix(1 0 0 1 333.1168 527.9094)" class="st1 st5 st6">Agent greets user &amp; chat begins</text>
		<path class="st8" d="M528.2,498H316.9c-1.4,0-2.5-1.1-2.5-2.5v-35.9c0-1.4,1.1-2.5,2.5-2.5h211.3c1.4,0,2.5,1.1,2.5,2.5v35.9
			C530.7,496.8,529.6,498,528.2,498z"/>
		<g>
			<g>
				<circle class="st11" cx="352.3" cy="479" r="7.9"/>
				<text transform="matrix(1 0 0 1 349.6461 482.3801)" class="st1 st12 st13">8</text>
			</g>
			<text transform="matrix(1 0 0 1 369.4489 482.3947)" class="st1 st5 st6">&quot;Nexo Portal (browser)&quot;</text>
		</g>
		<path class="st10" d="M528.2,551.8H316.9c-1.4,0-2.5-1.1-2.5-2.5v-89.7c0-1.4,1.1-2.5,2.5-2.5h211.3c1.4,0,2.5,1.1,2.5,2.5v89.7
			C530.7,550.7,529.6,551.8,528.2,551.8z"/>
	</g>
	<line class="st0" x1="914.5" y1="102.1" x2="695.1" y2="265.4"/>
	<text transform="matrix(1 0 0 1 541.0338 326.7932)" class="st7"><tspan x="0" y="0" class="st1 st5 st6">spinUp(template =</tspan><tspan x="-9.2" y="15.1" class="st1 st5 st6">&quot;DoctorAppointment&quot;)</tspan></text>
	<path class="st8" d="M697.8,303.1H486.6c-1.4,0-2.5-1.1-2.5-2.5v-35.9c0-1.4,1.1-2.5,2.5-2.5h211.3c1.4,0,2.5,1.1,2.5,2.5v35.9
		C700.4,301.9,699.2,303.1,697.8,303.1z"/>
	<g>
		<g>
			<circle class="st11" cx="541.5" cy="284.1" r="7.9"/>
			<text transform="matrix(1 0 0 1 538.8658 287.4778)" class="st1 st12 st13">4</text>
		</g>
		<text transform="matrix(1 0 0 1 558.6686 287.4934)" class="st1 st5 st6">&quot;Agent Runtime&quot;</text>
	</g>
	<path class="st10" d="M697.8,356.9H486.6c-1.4,0-2.5-1.1-2.5-2.5v-89.7c0-1.4,1.1-2.5,2.5-2.5h211.3c1.4,0,2.5,1.1,2.5,2.5v89.7
		C700.4,355.8,699.2,356.9,697.8,356.9z"/>
	<text transform="matrix(1 0 0 1 986.6686 71.3928)" class="st1 st5 st6">status = READY</text>
	<path class="st8" d="M1137.8,41.4H926.6c-1.4,0-2.5-1.1-2.5-2.5V3c0-1.4,1.1-2.5,2.5-2.5h211.3c1.4,0,2.5,1.1,2.5,2.5v35.9
		C1140.4,40.3,1139.2,41.4,1137.8,41.4z"/>
	<g>
		<g>
			<circle class="st11" cx="981.5" cy="22.5" r="7.9"/>
			<text transform="matrix(1 0 0 1 978.8639 25.8635)" class="st1 st12 st13">5</text>
		</g>
		<text transform="matrix(1 0 0 1 998.6656 25.8781)" class="st1 st5 st6">&quot;Agent Runtime&quot;</text>
	</g>
	<line class="st0" x1="1031.4" y1="225.5" x2="1031.4" y2="95.6"/>
	<path class="st10" d="M1137.8,95.3H926.6c-1.4,0-2.5-1.1-2.5-2.5V3c0-1.4,1.1-2.5,2.5-2.5h211.3c1.4,0,2.5,1.1,2.5,2.5v89.7
		C1140.4,94.2,1139.2,95.3,1137.8,95.3z"/>
	<text transform="matrix(1 0 0 1 479.0436 65.1779)" class="st7"><tspan x="0" y="0" class="st1 st5 st6">SystemMessage {\n action: startAgent,\n</tspan><tspan x="20" y="15.1" class="st1 st5 st6">template: &quot;DoctorAppointment&quot;\n}</tspan></text>
	<path class="st8" d="M732.3,41.4H452.1c-1.4,0-2.5-1.1-2.5-2.5V3c0-1.4,1.1-2.5,2.5-2.5h280.3c1.4,0,2.5,1.1,2.5,2.5v35.9
		C734.9,40.3,733.7,41.4,732.3,41.4z"/>
	<line class="st0" x1="271.3" y1="234.8" x2="450.3" y2="94.7"/>
	<path class="st10" d="M732.3,95.3H452c-1.4,0-2.5-1.1-2.5-2.5V3c0-1.4,1.1-2.5,2.5-2.5h280.3c1.4,0,2.5,1.1,2.5,2.5v89.7
		C734.8,94.2,733.7,95.3,732.3,95.3z"/>
	<g>
		<text transform="matrix(1 0 0 1 524.0631 25.715)" class="st1 st5 st6">&quot;System-Protocol\nGateway&quot;</text>
		<g>
			<circle class="st11" cx="507" cy="22.4" r="7.9"/>
			<text transform="matrix(1 0 0 1 504.3942 25.5041)" class="st1 st12 st13">2</text>
		</g>
	</g>
	<text transform="matrix(1 0 0 1 464.7604 121.1428)" class="st1 st5 st14">Quick-Launch Flow (“Doctor-Appointment” template)</text>
	<g>
		<text transform="matrix(1 0 0 1 98.9489 25.715)" class="st1 st5 st6">&quot;Nexo Portal (browser)&quot;</text>
		<g>
			<circle class="st11" cx="81.9" cy="22.4" r="7.9"/>
			<text transform="matrix(1 0 0 1 79.3209 25.5041)" class="st1 st12 st13">1</text>
		</g>
	</g>
	<polygon class="st1" points="269.2,237.4 272.3,229.8 276.9,235.5 269.2,237.4 	"/>
	<g>
		<g>
			<line id="actor-man-torso0_7_" class="st2" x1="283" y1="468.8" x2="283" y2="476.7"/>
			<line id="actor-man-arms0_7_" class="st2" x1="275.9" y1="471.9" x2="290" y2="471.9"/>
			<line class="st2" x1="275.9" y1="482.5" x2="283" y2="476.7"/>
			<line class="st2" x1="283" y1="476.7" x2="289.3" y2="482.5"/>
			<circle class="st3" cx="283" cy="462.9" r="5.9"/>
		</g>
		<g>
			<text transform="matrix(1 0 0 1 270.6979 494.8332)" class="st4 st5 st6">User</text>
		</g>
	</g>
	<polygon class="st1" points="472.8,309.3 465.5,313.2 465.5,305.9 472.8,309.3 	"/>
	<polygon class="st1" points="918.6,99.5 910.4,100.5 914.6,106.5 918.6,99.5 	"/>
	<polygon class="st1" points="1031.2,231.7 1035.1,224.4 1027.8,224.4 1031.2,231.7 	"/>
	<polygon class="st1" points="874,453.6 881.4,450 875.5,445.7 874,453.6 	"/>
	<polygon class="st1" points="541.1,504.2 548.4,508.1 548.4,500.8 541.1,504.2 	"/>
	<g class="st9">
		<g>
			<rect x="153.9" y="503.7" class="st8" width="3.7" height="1.4"/>
			<rect x="159.4" y="503.7" class="st8" width="3.7" height="1.4"/>
			<rect x="164.9" y="503.7" class="st8" width="3.7" height="1.4"/>
		</g>
		<g>
			<rect x="170.4" y="503.7" class="st8" width="3.7" height="1.4"/>
			<rect x="175.9" y="503.7" class="st8" width="3.7" height="1.4"/>
			<rect x="181.4" y="503.7" class="st8" width="3.7" height="1.4"/>
			<rect x="186.9" y="503.7" class="st8" width="3.7" height="1.4"/>
			<rect x="192.4" y="503.7" class="st8" width="3.7" height="1.4"/>
			<rect x="197.9" y="503.7" class="st8" width="3.7" height="1.4"/>
			<rect x="203.4" y="503.7" class="st8" width="3.7" height="1.4"/>
		</g>
		<g>
			<rect x="208.9" y="503.7" class="st8" width="3.7" height="1.4"/>
			<rect x="214.4" y="503.7" class="st8" width="3.7" height="1.4"/>
			<rect x="219.9" y="503.7" class="st8" width="3.7" height="1.4"/>
			<rect x="225.4" y="503.7" class="st8" width="3.7" height="1.4"/>
			<rect x="230.9" y="503.7" class="st8" width="3.7" height="1.4"/>
			<rect x="236.4" y="503.7" class="st8" width="3.7" height="1.4"/>
			<rect x="241.9" y="503.7" class="st8" width="3.7" height="1.4"/>
		</g>
		<g>
			<rect x="247.4" y="503.7" class="st8" width="3.7" height="1.4"/>
			<rect x="252.9" y="503.7" class="st8" width="3.7" height="1.4"/>
			<rect x="258.4" y="503.7" class="st8" width="3.7" height="1.4"/>
			<rect x="263.9" y="503.7" class="st8" width="3.7" height="1.4"/>
			<rect x="269.4" y="503.7" class="st8" width="3.7" height="1.4"/>
			<rect x="274.9" y="503.7" class="st8" width="3.7" height="1.4"/>
			<rect x="280.4" y="503.7" class="st8" width="3.7" height="1.4"/>
		</g>
		<g>
			<rect x="285.9" y="503.7" class="st8" width="3.7" height="1.4"/>
			<rect x="291.4" y="503.7" class="st8" width="3.7" height="1.4"/>
			<rect x="296.9" y="503.7" class="st8" width="3.7" height="1.4"/>
			<rect x="302.4" y="503.7" class="st8" width="3.7" height="1.4"/>
			<rect x="307.9" y="503.7" class="st8" width="3.7" height="1.4"/>
			<rect x="313.4" y="503.7" class="st8" width="3.7" height="1.4"/>
			<rect x="318.9" y="503.7" class="st8" width="3.7" height="1.4"/>
		</g>
	</g>
	<g class="st9">
		<g>
			<rect x="735" y="47.2" class="st8" width="3.7" height="1.4"/>
			<rect x="740.5" y="47.2" class="st8" width="3.7" height="1.4"/>
			<rect x="746" y="47.2" class="st8" width="3.7" height="1.4"/>
		</g>
		<g>
			<rect x="751.5" y="47.2" class="st8" width="3.7" height="1.4"/>
			<rect x="757" y="47.2" class="st8" width="3.7" height="1.4"/>
			<rect x="762.5" y="47.2" class="st8" width="3.7" height="1.4"/>
			<rect x="768" y="47.2" class="st8" width="3.7" height="1.4"/>
			<rect x="773.5" y="47.2" class="st8" width="3.7" height="1.4"/>
			<rect x="779" y="47.2" class="st8" width="3.7" height="1.4"/>
			<rect x="784.5" y="47.2" class="st8" width="3.7" height="1.4"/>
		</g>
		<g>
			<rect x="790" y="47.2" class="st8" width="3.7" height="1.4"/>
			<rect x="795.5" y="47.2" class="st8" width="3.7" height="1.4"/>
			<rect x="801" y="47.2" class="st8" width="3.7" height="1.4"/>
			<rect x="806.5" y="47.2" class="st8" width="3.7" height="1.4"/>
			<rect x="812" y="47.2" class="st8" width="3.7" height="1.4"/>
			<rect x="817.5" y="47.2" class="st8" width="3.7" height="1.4"/>
			<rect x="823" y="47.2" class="st8" width="3.7" height="1.4"/>
		</g>
		<g>
			<rect x="828.5" y="47.2" class="st8" width="3.7" height="1.4"/>
			<rect x="834" y="47.2" class="st8" width="3.7" height="1.4"/>
			<rect x="839.5" y="47.2" class="st8" width="3.7" height="1.4"/>
			<rect x="845" y="47.2" class="st8" width="3.7" height="1.4"/>
			<rect x="850.5" y="47.2" class="st8" width="3.7" height="1.4"/>
			<rect x="856" y="47.2" class="st8" width="3.7" height="1.4"/>
			<rect x="861.5" y="47.2" class="st8" width="3.7" height="1.4"/>
		</g>
		<g>
			<rect x="867" y="47.2" class="st8" width="3.7" height="1.4"/>
			<rect x="872.5" y="47.2" class="st8" width="3.7" height="1.4"/>
			<rect x="878" y="47.2" class="st8" width="3.7" height="1.4"/>
			<rect x="883.5" y="47.2" class="st8" width="3.7" height="1.4"/>
			<rect x="889" y="47.2" class="st8" width="3.7" height="1.4"/>
			<rect x="894.5" y="47.2" class="st8" width="3.7" height="1.4"/>
			<rect x="900" y="47.2" class="st8" width="3.7" height="1.4"/>
		</g>
	</g>
	<g class="st9">
		<g>
			<rect x="906" y="47.2" class="st8" width="3.7" height="1.4"/>
			<rect x="911.5" y="47.2" class="st8" width="3.7" height="1.4"/>
			<rect x="917" y="47.2" class="st8" width="3.7" height="1.4"/>
		</g>
	</g>
</g>
</svg>
