<?xml version="1.0" encoding="utf-8"?>
<!-- Generator: Adobe Illustrator 24.3.0, SVG Export Plug-In . SVG Version: 6.00 Build 0)  -->
<svg version="1.1" id="Layer_1" xmlns="http://www.w3.org/2000/svg" xmlns:xlink="http://www.w3.org/1999/xlink" x="0px" y="0px"
	 width="791.5px" height="614.2px" viewBox="0 0 791.5 614.2" style="enable-background:new 0 0 791.5 614.2;" xml:space="preserve"
	>
<style type="text/css">
	.st0{fill:#06031E;}
	.st1{fill:none;stroke:#FB0057;stroke-miterlimit:10;}
	.st2{fill:#030012;}
	.st3{fill:none;stroke:#F5A906;stroke-miterlimit:10;}
	.st4{fill:none;stroke:#11D4A0;stroke-miterlimit:10;}
	.st5{fill:#5D51AF;stroke:#221F33;stroke-miterlimit:10;}
	.st6{fill:#118851;}
	.st7{fill:#FFFDF9;}
	.st8{fill:#5D51AF;}
	.st9{fill:#A3A3A3;}
	.st10{fill:#E91E63;}
	.st11{fill:#00BCD4;}
	.st12{fill:#4CAF50;}
	.st13{fill:#FF9800;}
	.st14{fill:#141323;}
	.st15{fill:none;stroke:#794BF5;stroke-miterlimit:10;}
	.st16{fill:#FC5410;}
	.st17{fill:none;stroke:#221F33;stroke-miterlimit:10;}
	.st18{fill:#136DF4;}
	.st19{fill:#4D9AFE;}
	.st20{fill:#FEFEFE;}
	.st21{fill:#2771DF;}
	.st22{fill:#3177D7;}
	.st23{fill:#397FD1;}
	.st24{fill:#6887B1;}
	.st25{fill-rule:evenodd;clip-rule:evenodd;fill:#FEFEFE;}
	.st26{fill:#FFFFFF;}
	.st27{fill-rule:evenodd;clip-rule:evenodd;fill:#FB0057;}
	.st28{font-family:'Helvetica-Bold';}
	.st29{font-size:14.4354px;}
	.st30{font-size:16.3833px;}
</style>
<g>
	<g>
		
			<image style="overflow:visible;opacity:0.25;" width="1637" height="715" xlink:href="101FC0D2.png"  transform="matrix(0.24 0 0 0.24 184.32 0)">
		</image>
		<g>
			<path class="st0" d="M230.6,132.1h300.2c5.4,0,9.7-4.4,9.7-9.7v-79c0-5.4-4.4-9.7-9.7-9.7H230.6c-5.4,0-9.7,4.4-9.7,9.7v79
				C220.8,127.7,225.2,132.1,230.6,132.1z"/>
			<path class="st1" d="M230.6,132.1h300.2c5.4,0,9.7-4.4,9.7-9.7v-79c0-5.4-4.4-9.7-9.7-9.7H230.6c-5.4,0-9.7,4.4-9.7,9.7v79
				C220.8,127.7,225.2,132.1,230.6,132.1z"/>
		</g>
	</g>
	<g>
		
			<image style="overflow:visible;opacity:0.25;" width="1470" height="715" xlink:href="101FC0D6.png"  transform="matrix(0.24 0 0 0.24 50.16 442.56)">
		</image>
		<g>
			<path class="st2" d="M356.6,476.1H96.4c-5.4,0-9.7,4.4-9.7,9.7v79c0,5.4,4.4,9.7,9.7,9.7h260.2c5.4,0,9.7-4.4,9.7-9.7v-79
				C366.3,480.5,362,476.1,356.6,476.1z"/>
			<path class="st1" d="M356.6,476.1H96.4c-5.4,0-9.7,4.4-9.7,9.7v79c0,5.4,4.4,9.7,9.7,9.7h260.2c5.4,0,9.7-4.4,9.7-9.7v-79
				C366.3,480.5,362,476.1,356.6,476.1z"/>
		</g>
	</g>
	<g>
		
			<image style="overflow:visible;opacity:0.25;" width="1721" height="715" xlink:href="101FC0D1.png"  transform="matrix(0.24 0 0 0.24 378.48 442.56)">
		</image>
		<g>
			<path class="st2" d="M745.1,476.1H424.9c-5.4,0-9.7,4.4-9.7,9.7v79c0,5.4,4.4,9.7,9.7,9.7h320.2c5.4,0,9.7-4.4,9.7-9.7v-79
				C754.8,480.5,750.5,476.1,745.1,476.1z"/>
			<path class="st3" d="M745.1,476.1H424.9c-5.4,0-9.7,4.4-9.7,9.7v79c0,5.4,4.4,9.7,9.7,9.7h320.2c5.4,0,9.7-4.4,9.7-9.7v-79
				C754.8,480.5,750.5,476.1,745.1,476.1z"/>
		</g>
	</g>
	<g>
		
			<image style="overflow:visible;opacity:0.25;" width="1679" height="715" xlink:href="101FC0D3.png"  transform="matrix(0.24 0 0 0.24 0 147.84)">
		</image>
		<g>
			<path class="st2" d="M366.3,270.1v-79c0-5.4-4.4-9.7-9.7-9.7H46.4c-5.4,0-9.7,4.4-9.7,9.7v79c0,5.4,4.4,9.7,9.7,9.7h310.2
				C361.9,279.9,366.3,275.5,366.3,270.1z"/>
			<path class="st3" d="M366.3,270.1v-79c0-5.4-4.4-9.7-9.7-9.7H46.4c-5.4,0-9.7,4.4-9.7,9.7v79c0,5.4,4.4,9.7,9.7,9.7h310.2
				C361.9,279.9,366.3,275.5,366.3,270.1z"/>
		</g>
	</g>
	<g>
		
			<image style="overflow:visible;opacity:0.25;" width="1596" height="717" xlink:href="101FC0D0.png"  transform="matrix(0.24 0 0 0.24 378.96 147.36)">
		</image>
		<g>
			<path class="st2" d="M415.7,190.7v79.4c0,5.4,4.4,9.8,9.7,9.8h290.2c5.4,0,9.7-4.4,9.7-9.8v-79.4c0-5.4-4.4-9.8-9.7-9.8H425.4
				C420,180.9,415.7,185.3,415.7,190.7z"/>
			<path class="st4" d="M415.7,190.7v79.4c0,5.4,4.4,9.8,9.7,9.8h290.2c5.4,0,9.7-4.4,9.7-9.8v-79.4c0-5.4-4.4-9.8-9.7-9.8H425.4
				C420,180.9,415.7,185.3,415.7,190.7z"/>
		</g>
	</g>
	<g>
		<g>
			<path class="st5" d="M369.8,81.8H265.2c-1.3,0-2.4-1.1-2.4-2.4V52.7c0-1.3,1.1-2.4,2.4-2.4h104.6c1.3,0,2.4,1.1,2.4,2.4v26.7
				C372.2,80.7,371.1,81.8,369.8,81.8z M265.2,51.2c-0.8,0-1.5,0.7-1.5,1.5v26.7c0,0.8,0.7,1.5,1.5,1.5h104.6c0.8,0,1.5-0.7,1.5-1.5
				V52.7c0-0.8-0.7-1.5-1.5-1.5H265.2z"/>
		</g>
	</g>
	<g>
		<circle class="st6" cx="245.1" cy="65.5" r="8.8"/>
	</g>
	<g>
		<g>
			<path class="st7" d="M244.1,68.8c-0.1,0.1-0.2,0.1-0.3,0.1c-0.1,0-0.2,0-0.3-0.1l-2.6-2.6c-0.3-0.3-0.3-0.7,0-1l0.3-0.3
				c0.3-0.3,0.7-0.3,1,0l1.6,1.6l4.4-4.4c0.3-0.3,0.7-0.3,1,0l0.3,0.3c0.3,0.3,0.3,0.7,0,1L244.1,68.8z"/>
		</g>
	</g>
	<g>
		<circle class="st8" cx="516" cy="54.3" r="2.2"/>
	</g>
	<g>
		<circle class="st8" cx="516" cy="60.5" r="2.2"/>
	</g>
	<g>
		<circle class="st8" cx="516" cy="66.6" r="2.2"/>
	</g>
	<g>
		<g>
			<path class="st9" d="M516,106.7c-0.2,0-0.5-0.1-0.7-0.3l-5.7-5.7c-0.4-0.4-0.4-1,0-1.3c0.4-0.4,1-0.4,1.3,0l5.1,5.1l5.1-5.1
				c0.4-0.4,1-0.4,1.3,0c0.4,0.4,0.4,1,0,1.3l-5.7,5.7C516.5,106.6,516.2,106.7,516,106.7z"/>
		</g>
	</g>
	<g>
		<g>
			<path class="st5" d="M221.7,523.6H131c-1.3,0-2.4-1.1-2.4-2.4v-26.9c0-1.3,1.1-2.4,2.4-2.4h90.6c1.3,0,2.4,1.1,2.4,2.4v26.9
				C224,522.6,223,523.6,221.7,523.6z M131,492.9c-0.8,0-1.5,0.7-1.5,1.5v26.9c0,0.8,0.7,1.5,1.5,1.5h90.6c0.8,0,1.5-0.7,1.5-1.5
				v-26.9c0-0.8-0.7-1.5-1.5-1.5H131z"/>
		</g>
	</g>
	<g>
		<circle class="st6" cx="111" cy="507.9" r="8.8"/>
	</g>
	<g>
		<g>
			<path class="st7" d="M109.9,511.3c-0.1,0.1-0.2,0.1-0.3,0.1c-0.1,0-0.2,0-0.3-0.1l-2.6-2.6c-0.3-0.3-0.3-0.7,0-1l0.3-0.3
				c0.3-0.3,0.7-0.3,1,0l1.6,1.6l4.4-4.4c0.3-0.3,0.7-0.3,1,0l0.3,0.3c0.3,0.3,0.3,0.7,0,1L109.9,511.3z"/>
		</g>
	</g>
	<g>
		<circle class="st8" cx="341.8" cy="496.2" r="2.2"/>
	</g>
	<g>
		<circle class="st8" cx="341.9" cy="502.9" r="2.2"/>
	</g>
	<g>
		<circle class="st8" cx="341.9" cy="509.1" r="2.2"/>
	</g>
	<g>
		<g>
			<path class="st5" d="M528.6,523.6h-69.1c-1.3,0-2.4-1.1-2.4-2.4v-26.9c0-1.3,1.1-2.4,2.4-2.4h69.1c1.3,0,2.4,1.1,2.4,2.4v26.9
				C531,522.6,529.9,523.6,528.6,523.6z M459.5,492.9c-0.8,0-1.5,0.7-1.5,1.5v26.9c0,0.8,0.7,1.5,1.5,1.5h69.1
				c0.8,0,1.5-0.7,1.5-1.5v-26.9c0-0.8-0.7-1.5-1.5-1.5H459.5z"/>
		</g>
	</g>
	<g>
		<circle class="st6" cx="439.5" cy="507.9" r="8.8"/>
	</g>
	<g>
		<g>
			<path class="st7" d="M438.4,511.3c-0.1,0.1-0.2,0.1-0.3,0.1s-0.2,0-0.3-0.1l-2.6-2.6c-0.3-0.3-0.3-0.7,0-1l0.3-0.3
				c0.3-0.3,0.7-0.3,1,0l1.6,1.6l4.4-4.4c0.3-0.3,0.7-0.3,1,0l0.3,0.3c0.3,0.3,0.3,0.7,0,1L438.4,511.3z"/>
		</g>
	</g>
	<g>
		<circle class="st8" cx="730.3" cy="496.2" r="2.2"/>
	</g>
	<g>
		<circle class="st8" cx="730.3" cy="502.9" r="2.2"/>
	</g>
	<g>
		<circle class="st8" cx="730.3" cy="509.1" r="2.2"/>
	</g>
	<g>
		<g>
			<path class="st10" d="M471,508.3c-1,0-1.8,0.8-1.8,1.8v4.5c0,1,0.8,1.8,1.8,1.8c1,0,1.8-0.8,1.8-1.8v-4.5
				C472.8,509.1,472,508.3,471,508.3L471,508.3z M464.7,510.1c0,1,0.9,1.8,1.9,1.7c1,0,1.7-0.8,1.7-1.7v-1.8h-1.8
				C465.5,508.3,464.7,509.1,464.7,510.1z"/>
		</g>
		<g>
			<path class="st11" d="M471,499.3L471,499.3c-1,0-1.8,0.9-1.8,1.9c0,1,0.8,1.7,1.7,1.7h1.8v-1.8C472.8,500.1,472,499.3,471,499.3z
				 M466.5,507.4h4.5c1,0,1.8-0.9,1.7-1.9c0-1-0.8-1.7-1.7-1.7h-4.5c-1,0-1.8,0.9-1.7,1.9C464.8,506.6,465.5,507.3,466.5,507.4z"/>
		</g>
		<g>
			<path class="st12" d="M480,503.8c-1,0-1.8,0.8-1.8,1.8v1.8h1.8c1,0,1.8-0.9,1.7-1.9C481.7,504.6,480.9,503.8,480,503.8L480,503.8
				L480,503.8z M473.7,501.1v4.5c0,1,0.8,1.8,1.8,1.8c1,0,1.8-0.8,1.8-1.8v-4.5c0-1-0.8-1.8-1.8-1.8
				C474.5,499.3,473.7,500.1,473.7,501.1L473.7,501.1z"/>
		</g>
		<g>
			<g>
				<path class="st13" d="M477.3,514.6c0-1-0.8-1.8-1.8-1.8h-1.8v1.8c0,1,0.8,1.8,1.8,1.8C476.5,516.4,477.3,515.6,477.3,514.6z
					 M480,508.3h-4.5c-1,0-1.8,0.9-1.7,1.9c0,1,0.8,1.7,1.7,1.7h4.5c1,0,1.8-0.9,1.7-1.9C481.7,509.1,481,508.3,480,508.3z"/>
			</g>
		</g>
	</g>
	<g>
		<rect x="294.1" y="132.6" class="st8" width="1.1" height="15"/>
		<rect x="294.1" y="165.9" class="st8" width="1.1" height="15"/>
		<polygon class="st8" points="295.2,156 295.2,151.4 294.1,151.4 294.1,156 289.4,156 289.4,157.2 294.1,157.2 294.1,161.8 
			295.2,161.8 295.2,157.2 299.8,157.2 299.8,156 		"/>
	</g>
	<g>
		
			<image style="overflow:visible;opacity:0.25;" width="1554" height="591" xlink:href="101FC0DE.png"  transform="matrix(0.24 0 0 0.24 194.28 309)">
		</image>
		<g>
			<path class="st14" d="M225.6,328.7c-5.4,0-9.7,4.4-9.7,9.7v79c0,5.4,4.4,9.7,9.7,9.7h310.2c5.4,0,9.7-4.4,9.7-9.7v-79
				c0-5.4-4.4-9.7-9.7-9.7H225.6z"/>
			<path class="st15" d="M225.6,328.7c-5.4,0-9.7,4.4-9.7,9.7v79c0,5.4,4.4,9.7,9.7,9.7h310.2c5.4,0,9.7-4.4,9.7-9.7v-79
				c0-5.4-4.4-9.7-9.7-9.7H225.6z"/>
		</g>
	</g>
	<g>
		<g>
			<path class="st5" d="M331,377.7h-70.7c-1.3,0-2.4-1.1-2.4-2.4v-27c0-1.3,1.1-2.4,2.4-2.4H331c1.3,0,2.4,1.1,2.4,2.4v27
				C333.3,376.6,332.3,377.7,331,377.7z M260.3,346.8c-0.8,0-1.5,0.7-1.5,1.5v27c0,0.8,0.7,1.5,1.5,1.5H331c0.8,0,1.5-0.7,1.5-1.5
				v-27c0-0.8-0.7-1.5-1.5-1.5H260.3z"/>
		</g>
	</g>
	<g>
		<circle class="st6" cx="240.2" cy="360.6" r="8.8"/>
	</g>
	<g>
		<g>
			<path class="st7" d="M239.1,363.9c-0.1,0.1-0.2,0.1-0.3,0.1s-0.2,0-0.3-0.1l-2.6-2.6c-0.3-0.3-0.3-0.7,0-1l0.3-0.3
				c0.3-0.3,0.7-0.3,1,0l1.6,1.6l4.4-4.4c0.3-0.3,0.7-0.3,1,0l0.3,0.3c0.3,0.3,0.3,0.7,0,1L239.1,363.9z"/>
		</g>
	</g>
	<g>
		<g>
			<circle class="st8" cx="520.5" cy="349.4" r="2.2"/>
		</g>
		<g>
			<circle class="st8" cx="520.5" cy="355.5" r="2.2"/>
		</g>
		<g>
			<circle class="st8" cx="520.5" cy="361.7" r="2.2"/>
		</g>
	</g>
	<g>
		<g>
			<g>
				<path class="st16" d="M280.3,363.4l-2,3.4l-2-3.4h1.5v-5.7h-5.7v-0.8l6.6,0v6.5h0.2H280.3z"/>
			</g>
			<g>
				<path class="st16" d="M280.3,363.4l-2,3.4l-2-3.4h2.6H280.3z"/>
			</g>
		</g>
		<g>
			<g>
				<path class="st16" d="M268.7,353.6h0.9v13.1h0.2h1.3l-2,3.4l-2-3.4h1.5v-12.3L268.7,353.6z"/>
			</g>
			<g>
				<path class="st16" d="M271.1,366.7l-2,3.4l-2-3.4h2.6H271.1z"/>
			</g>
		</g>
	</g>
	<g>
		<g>
			<rect x="314.7" y="280.4" class="st8" width="1.1" height="15"/>
			<rect x="314.7" y="299.2" class="st8" width="1.1" height="10.4"/>
			<rect x="314.7" y="313.7" class="st8" width="1.1" height="15"/>
			
				<rect x="314.7" y="299.2" transform="matrix(-1.836970e-16 1 -1 -1.836970e-16 619.6573 -10.8284)" class="st8" width="1.1" height="10.4"/>
		</g>
		<g>
			<rect x="445.7" y="280.4" class="st8" width="1.1" height="15"/>
			<rect x="445.7" y="299.2" class="st8" width="1.1" height="10.4"/>
			<rect x="445.7" y="313.7" class="st8" width="1.1" height="15"/>
			
				<rect x="445.7" y="299.2" transform="matrix(-1.836970e-16 1 -1 -1.836970e-16 750.6573 -141.8284)" class="st8" width="1.1" height="10.4"/>
		</g>
	</g>
	<g>
		<g>
			<rect x="314.7" y="427.2" class="st8" width="1.1" height="15"/>
			<rect x="314.7" y="446" class="st8" width="1.1" height="10.4"/>
			<rect x="314.7" y="460.5" class="st8" width="1.1" height="15"/>
			
				<rect x="314.7" y="446" transform="matrix(-1.836970e-16 1 -1 -1.836970e-16 766.4586 135.9729)" class="st8" width="1.1" height="10.4"/>
		</g>
		<g>
			<rect x="445.7" y="427.2" class="st8" width="1.1" height="15"/>
			<rect x="445.7" y="446" class="st8" width="1.1" height="10.4"/>
			<rect x="445.7" y="460.5" class="st8" width="1.1" height="15"/>
			
				<rect x="445.7" y="446" transform="matrix(-1.836970e-16 1 -1 -1.836970e-16 897.4586 4.9729)" class="st8" width="1.1" height="10.4"/>
		</g>
	</g>
	<g>
		<g>
			<g>
				<g>
					<path class="st8" d="M173.8,229.6H81c-1.3,0-2.4-1.1-2.4-2.4v-26.7c0-1.3,1.1-2.4,2.4-2.4h92.7c1.3,0,2.4,1.1,2.4,2.4v26.7
						C176.1,228.5,175.1,229.6,173.8,229.6z M81,199c-0.8,0-1.5,0.7-1.5,1.5v26.7c0,0.8,0.7,1.5,1.5,1.5h92.7c0.8,0,1.5-0.7,1.5-1.5
						v-26.7c0-0.8-0.7-1.5-1.5-1.5H81z"/>
				</g>
				<g>
					<path class="st17" d="M173.8,229.6H81c-1.3,0-2.4-1.1-2.4-2.4v-26.7c0-1.3,1.1-2.4,2.4-2.4h92.7c1.3,0,2.4,1.1,2.4,2.4v26.7
						C176.1,228.5,175.1,229.6,173.8,229.6z M81,199c-0.8,0-1.5,0.7-1.5,1.5v26.7c0,0.8,0.7,1.5,1.5,1.5h92.7c0.8,0,1.5-0.7,1.5-1.5
						v-26.7c0-0.8-0.7-1.5-1.5-1.5H81z"/>
				</g>
			</g>
		</g>
	</g>
	<g>
		<circle class="st6" cx="60.9" cy="213.3" r="8.8"/>
	</g>
	<g>
		<g>
			<path class="st7" d="M59.9,216.6c-0.1,0.1-0.2,0.1-0.3,0.1c-0.1,0-0.2,0-0.3-0.1l-2.6-2.6c-0.3-0.3-0.3-0.7,0-1l0.3-0.3
				c0.3-0.3,0.7-0.3,1,0l1.6,1.6l4.4-4.4c0.3-0.3,0.7-0.3,1,0l0.3,0.3c0.3,0.3,0.3,0.7,0,1L59.9,216.6z"/>
		</g>
	</g>
	<g>
		<g>
			<path class="st18" d="M104.5,205c0,5.9,0,11.7,0,17.6c0,0.2,0,0.2-0.2,0.2c-5.8,0-11.6,0-17.5,0c-0.2,0-0.2,0-0.2-0.2
				c0-5.9,0-11.7,0-17.6c0.1,0,0.2,0,0.2,0c5.8,0,11.6,0,17.4,0C104.4,204.9,104.4,204.9,104.5,205z"/>
			<path class="st19" d="M104.5,205c-6,0-11.9,0-17.9,0c0-0.1,0.1,0,0.2,0c2.6,0,5.2,0,7.8,0c3.2,0,6.5,0,9.7,0
				C104.4,204.9,104.5,204.9,104.5,205z"/>
			<path class="st20" d="M95.5,215.1c-0.8,0.8-1.7,1.3-2.7,1.7c-0.7,0.3-1.4,0.4-2.2,0.5c-0.3,0-0.3,0-0.3-0.2c0-0.8,0-1.5,0-2.3
				c0-0.2,0-0.2,0.2-0.3c0.8-0.1,1.5-0.4,2.2-0.9c0.1-0.1,0.1-0.1,0.2-0.2c-0.1-0.1-0.2,0-0.2,0c-0.7,0-1.4,0-2.1,0
				c-0.2,0-0.2,0-0.2-0.2c0-0.9,0-1.7,0-2.6c0-0.2,0.1-0.2,0.2-0.2c0.9,0,1.7,0,2.6,0c0.2,0,0.2,0.1,0.2,0.2c0,0.7,0,1.3,0,2
				c0,0.1,0,0.2,0,0.2c0.1,0,0.1-0.1,0.1-0.1c0.3-0.7,0.7-1.4,1-2.1c0.1-0.2,0.2-0.2,0.4-0.2c0.6,0,1.2,0,1.8,0c0.2,0,0.2,0,0.2,0.2
				c0,0.6,0,1.3,0,1.9c0,0.1,0,0.2,0,0.3c0,0,0,0,0.1,0c0.2-0.4,0.4-0.8,0.6-1.2c0-0.1,0.1-0.2,0.2-0.3c0.2-0.3,0.3-0.6,0.5-0.9
				c0-0.1,0.1-0.1,0.2-0.1c1,0,2,0,2.9,0c0.2,0,0.2,0.1,0.1,0.2c-0.1,0.2-0.2,0.4-0.3,0.6c-0.1,0.1,0,0.3-0.2,0.4
				c-0.2,0.4-0.4,0.8-0.7,1.3c-0.3,0.5-0.5,1.1-0.8,1.6c-0.4,0.8-0.8,1.5-1.2,2.3c0,0,0,0,0,0.1c-0.1,0.5-0.4,0.6-0.9,0.5
				c-0.8,0-1.7,0-2.5,0c-0.2,0-0.2,0-0.1-0.2c0.3-0.6,0.6-1.1,0.9-1.7c0.1-0.2,0.1-0.5,0.3-0.6c0,0,0,0,0,0
				C95.8,214.9,95.7,215,95.5,215.1z"/>
			<path class="st21" d="M95.5,215.1c0.1-0.2,0.3-0.3,0.4-0.5c0.1,0,0.1,0.1,0,0.1c-0.1,0.2-0.2,0.5-0.4,0.7c0-0.1,0-0.1,0-0.2
				C95.7,215.1,95.6,215.1,95.5,215.1z"/>
			<path class="st22" d="M100.9,211.5c0.1-0.1,0.1-0.2,0.2-0.4C101.1,211.3,101.2,211.5,100.9,211.5z"/>
			<path class="st23" d="M97.7,211.4c0,0.1-0.1,0.2-0.2,0.3C97.5,211.5,97.6,211.4,97.7,211.4z"/>
			<path class="st24" d="M96,214.7c0,0,0-0.1,0-0.1c0-0.1,0.1-0.1,0.2-0.2C96.1,214.6,96,214.7,96,214.7z"/>
		</g>
	</g>
	<g>
		<circle class="st8" cx="341.8" cy="202" r="2.2"/>
	</g>
	<g>
		<circle class="st8" cx="341.8" cy="208.2" r="2.2"/>
	</g>
	<g>
		<circle class="st8" cx="341.8" cy="214.4" r="2.2"/>
	</g>
	<g>
		<ellipse class="st8" cx="700.8" cy="202.8" rx="2.2" ry="2.3"/>
	</g>
	<g>
		<ellipse class="st8" cx="700.8" cy="209.4" rx="2.2" ry="2.3"/>
	</g>
	<g>
		<ellipse class="st8" cx="700.8" cy="216" rx="2.2" ry="2.3"/>
	</g>
	<g>
		<ellipse class="st6" cx="445.6" cy="213.6" rx="9.4" ry="9.9"/>
	</g>
	<g>
		<g>
			<path class="st25" d="M445.6,212.1v-3.3c0-0.2-0.2-0.4-0.4-0.4c-0.1,0-0.3,0.1-0.3,0.2l-2.7,5.4c-0.2,0.4,0,0.8,0.3,1
				c0.1,0.1,0.2,0.1,0.3,0.1h2.7v3.3c0,0.2,0.2,0.4,0.4,0.4c0.1,0,0.3-0.1,0.3-0.2l2.7-5.4c0.2-0.4,0-0.8-0.3-1
				c-0.1-0.1-0.2-0.1-0.3-0.1L445.6,212.1z"/>
		</g>
	</g>
	<g>
		
			<rect x="407.1" y="225.8" transform="matrix(-1.836970e-16 1 -1 -1.836970e-16 640.992 -174.2896)" class="st8" width="1.1" height="15"/>
		
			<rect x="390.5" y="228.1" transform="matrix(-1.836970e-16 1 -1 -1.836970e-16 624.4547 -157.7522)" class="st8" width="1.1" height="10.4"/>
		
			<rect x="373.7" y="225.8" transform="matrix(-1.836970e-16 1 -1 -1.836970e-16 607.6395 -140.937)" class="st8" width="1.1" height="15"/>
		
			<rect x="390.5" y="228.1" transform="matrix(-1 -1.224647e-16 1.224647e-16 -1 782.207 466.7025)" class="st8" width="1.1" height="10.4"/>
	</g>
	<g>
		<path class="st26" d="M137.3,499.7l9.8-0.7c1.2-0.1,1.5,0,2.3,0.5l3.1,2.2c0.5,0.4,0.7,0.5,0.7,0.9v12.1c0,0.8-0.3,1.2-1.2,1.3
			l-11.4,0.7c-0.7,0-1.1-0.1-1.4-0.5l-2.3-3c-0.4-0.6-0.6-1-0.6-1.4V501C136.3,500.3,136.5,499.8,137.3,499.7L137.3,499.7z"/>
		<path class="st27" d="M147.1,499l-9.8,0.7c-0.8,0.1-1.1,0.6-1.1,1.2v10.7c0,0.5,0.2,0.9,0.6,1.4l2.3,3c0.4,0.5,0.7,0.6,1.4,0.5
			l11.4-0.7c1-0.1,1.2-0.5,1.2-1.3v-12.1c0-0.4-0.1-0.5-0.6-0.8c0,0-0.1,0-0.1-0.1l-3.1-2.2C148.6,499,148.3,498.9,147.1,499
			L147.1,499z M140.8,502.4c-0.9,0.1-1.1,0.1-1.7-0.4l-1.3-1c-0.1-0.1-0.1-0.3,0.3-0.3l9.4-0.7c0.8-0.1,1.2,0.2,1.5,0.5l1.6,1.2
			c0.1,0,0.3,0.2,0,0.2l-9.7,0.6H140.8z M139.8,514.6v-10.3c0-0.5,0.1-0.6,0.5-0.7l11.2-0.6c0.4,0,0.5,0.2,0.5,0.6v10.2
			c0,0.5-0.1,0.8-0.7,0.8l-10.7,0.6C140,515.4,139.8,515.1,139.8,514.6L139.8,514.6z M150.3,504.9c0.1,0.3,0,0.6-0.3,0.6l-0.5,0.1
			v7.6c-0.5,0.3-0.8,0.4-1.2,0.4c-0.5,0-0.7-0.2-1.1-0.7l-3.4-5.3v5.1l1.1,0.3c0,0,0,0.6-0.8,0.6l-2.4,0.1c-0.1-0.1,0-0.5,0.2-0.5
			l0.6-0.2v-6.8l-0.8-0.1c-0.1-0.3,0.1-0.8,0.6-0.8l2.5-0.2l3.5,5.4v-4.7l-0.9-0.1c-0.1-0.4,0.2-0.6,0.5-0.7L150.3,504.9z"/>
	</g>
	<text transform="matrix(1 0 0 1 109.5201 219.977)" class="st20 st28 st29">Webflow</text>
	<text transform="matrix(1 0 0 1 460.0324 218.3555)" class="st20 st28 st29">Action</text>
	<text transform="matrix(1 0 0 1 284.0533 366.6899)" class="st20 st28 st29">Paths</text>
	<text transform="matrix(1 0 0 1 157.4555 513.7874)" class="st20 st28 st29">Notion</text>
	<text transform="matrix(1 0 0 1 485.7462 513.7874)" class="st20 st28 st29">Slack</text>
	<g>
		<g>
			<g>
				<path class="st16" d="M283.1,71.1c-0.1-0.2-0.3-0.4-0.5-0.3c-0.4,0-0.8,0.1-1.2,0.1c-3.3,0-6-2.7-6-6v-1.8
					c0-0.8,0.7-1.5,1.5-1.5h9.4c0.8,0,1.5,0.7,1.5,1.5l0,0v1.4c0,0.3,0.2,0.5,0.5,0.5l0,0h0.7c0.3,0,0.5-0.2,0.5-0.5l0,0v-1.4
					c0-1.7-1.4-3.1-3.1-3.1h0h-3.9v-1.5c0-0.3-0.2-0.5-0.5-0.5l0,0h-0.7c-0.3,0-0.5,0.2-0.5,0.5V60h-3.9c-1.7,0-3.1,1.4-3.1,3.1v1.8
					c0,4.2,3.4,7.6,7.6,7.6c0.5,0,1,0,1.5-0.1c0.2,0,0.4-0.3,0.4-0.5c0,0,0,0,0,0L283.1,71.1z"/>
				<circle class="st16" cx="279" cy="65.2" r="1.3"/>
				<circle class="st16" cx="284.2" cy="65.2" r="1.3"/>
				<path class="st16" d="M289.3,71.3l-1.4-0.7l0.5-3.2c0-0.2-0.1-0.3-0.2-0.3c-0.1,0-0.2,0-0.2,0.1l-3.4,3.1
					c-0.1,0.1-0.1,0.3,0,0.4c0,0,0.1,0,0.1,0.1l1.4,0.7l-0.5,3.2c0,0.2,0.1,0.3,0.2,0.3c0.1,0,0.2,0,0.2-0.1l3.4-3
					C289.5,71.6,289.5,71.4,289.3,71.3C289.3,71.3,289.3,71.3,289.3,71.3L289.3,71.3z"/>
			</g>
		</g>
		<text transform="matrix(1 0 0 1 294.3942 71.1451)" class="st20 st28 st29">AI Agents</text>
	</g>
	<text transform="matrix(1 0 0 1 236.2899 109.8155)" class="st20 st28 st30">01. Add a new record</text>
	<text transform="matrix(1 0 0 1 52.1003 257.3015)" class="st20 st28 st30">02. New website from submission</text>
	<text transform="matrix(1 0 0 1 436.2449 260.9587)" class="st20 st28 st30">03. Add a new app to your zap</text>
	<text transform="matrix(1 0 0 1 231.3696 404.9176)" class="st20 st28 st30">04. Split into paths</text>
	<text transform="matrix(1 0 0 1 102.1483 552.0933)" class="st20 st28 st30">05. Add a new contact</text>
	<text transform="matrix(1 0 0 1 430.637 552.2729)" class="st20 st28 st30">06. Send message to Sales channel</text>
</g>
</svg>
