<svg version="1.1" id="Layer_1" xmlns="http://www.w3.org/2000/svg" x="0" y="0" width="729.6" height="552.6" style="enable-background:new 0 0 729.6 552.6" xml:space="preserve"><style>.st1{fill:none;stroke:#fb0057;stroke-miterlimit:10}.st2{fill:#030012}.st3,.st5{fill:none;stroke:#f5a906;stroke-miterlimit:10}.st5{fill:#5d51af;stroke:#221f33}.st6{fill:#118851}.st7{fill:#fffdf9}.st8{fill:#5d51af}.st16{fill:#fc5410}.st20{fill:#fefefe}</style><path d="M200 103.5h300.2c5.4 0 9.7-4.4 9.7-9.7v-79c0-5.4-4.4-9.7-9.7-9.7H200c-5.4 0-9.7 4.4-9.7 9.7v79c-.1 5.3 4.3 9.7 9.7 9.7z" style="fill:#06031e"/><path class="st1" d="M200 103.5h300.2c5.4 0 9.7-4.4 9.7-9.7v-79c0-5.4-4.4-9.7-9.7-9.7H200c-5.4 0-9.7 4.4-9.7 9.7v79c-.1 5.3 4.3 9.7 9.7 9.7z"/><path class="st2" d="M326 447.5H65.8c-5.4 0-9.7 4.4-9.7 9.7v79c0 5.4 4.4 9.7 9.7 9.7H326c5.4 0 9.7-4.4 9.7-9.7v-79c0-5.3-4.3-9.7-9.7-9.7z"/><path class="st1" d="M326 447.5H65.8c-5.4 0-9.7 4.4-9.7 9.7v79c0 5.4 4.4 9.7 9.7 9.7H326c5.4 0 9.7-4.4 9.7-9.7v-79c0-5.3-4.3-9.7-9.7-9.7z"/><path class="st2" d="M714.5 447.5H394.3c-5.4 0-9.7 4.4-9.7 9.7v79c0 5.4 4.4 9.7 9.7 9.7h320.2c5.4 0 9.7-4.4 9.7-9.7v-79c0-5.3-4.3-9.7-9.7-9.7z"/><path class="st3" d="M714.5 447.5H394.3c-5.4 0-9.7 4.4-9.7 9.7v79c0 5.4 4.4 9.7 9.7 9.7h320.2c5.4 0 9.7-4.4 9.7-9.7v-79c0-5.3-4.3-9.7-9.7-9.7z"/><path class="st2" d="M335.7 241.5v-79c0-5.4-4.4-9.7-9.7-9.7H15.8c-5.4 0-9.7 4.4-9.7 9.7v79c0 5.4 4.4 9.7 9.7 9.7H326c5.3.1 9.7-4.3 9.7-9.7z"/><path class="st3" d="M335.7 241.5v-79c0-5.4-4.4-9.7-9.7-9.7H15.8c-5.4 0-9.7 4.4-9.7 9.7v79c0 5.4 4.4 9.7 9.7 9.7H326c5.3.1 9.7-4.3 9.7-9.7z"/><path class="st2" d="M385.1 162.1v79.4c0 5.4 4.4 9.8 9.7 9.8H685c5.4 0 9.7-4.4 9.7-9.8v-79.4c0-5.4-4.4-9.8-9.7-9.8H394.8c-5.4 0-9.7 4.4-9.7 9.8z"/><path d="M385.1 162.1v79.4c0 5.4 4.4 9.8 9.7 9.8H685c5.4 0 9.7-4.4 9.7-9.8v-79.4c0-5.4-4.4-9.8-9.7-9.8H394.8c-5.4 0-9.7 4.4-9.7 9.8z" style="fill:none;stroke:#11d4a0;stroke-miterlimit:10"/><path class="st5" d="M339.2 53.2H234.6c-1.3 0-2.4-1.1-2.4-2.4V24.1c0-1.3 1.1-2.4 2.4-2.4h104.6c1.3 0 2.4 1.1 2.4 2.4v26.7c0 1.3-1.1 2.4-2.4 2.4zM234.6 22.6c-.8 0-1.5.7-1.5 1.5v26.7c0 .8.7 1.5 1.5 1.5h104.6c.8 0 1.5-.7 1.5-1.5V24.1c0-.8-.7-1.5-1.5-1.5H234.6z"/><circle class="st6" cx="214.5" cy="36.9" r="8.8"/><path class="st7" d="M213.5 40.2c-.1.1-.2.1-.3.1s-.2 0-.3-.1l-2.6-2.6c-.3-.3-.3-.7 0-1l.3-.3c.3-.3.7-.3 1 0l1.6 1.6 4.4-4.4c.3-.3.7-.3 1 0l.3.3c.3.3.3.7 0 1l-5.4 5.4z"/><circle class="st8" cx="485.4" cy="25.7" r="2.2"/><circle class="st8" cx="485.4" cy="31.9" r="2.2"/><circle class="st8" cx="485.4" cy="38" r="2.2"/><path d="M485.4 78.1c-.2 0-.5-.1-.7-.3l-5.7-5.7c-.4-.4-.4-1 0-1.3.4-.4 1-.4 1.3 0l5.1 5.1 5.1-5.1c.4-.4 1-.4 1.3 0 .4.4.4 1 0 1.3l-5.7 5.7c-.2.2-.5.3-.7.3z" style="fill:#a3a3a3"/><path class="st5" d="M191.1 495h-90.7c-1.3 0-2.4-1.1-2.4-2.4v-26.9c0-1.3 1.1-2.4 2.4-2.4H191c1.3 0 2.4 1.1 2.4 2.4v26.9c0 1.4-1 2.4-2.3 2.4zm-90.7-30.7c-.8 0-1.5.7-1.5 1.5v26.9c0 .8.7 1.5 1.5 1.5H191c.8 0 1.5-.7 1.5-1.5v-26.9c0-.8-.7-1.5-1.5-1.5h-90.6z"/><circle class="st6" cx="80.4" cy="479.3" r="8.8"/><path class="st7" d="M79.3 482.7c-.1.1-.2.1-.3.1-.1 0-.2 0-.3-.1l-2.6-2.6c-.3-.3-.3-.7 0-1l.3-.3c.3-.3.7-.3 1 0l1.6 1.6 4.4-4.4c.3-.3.7-.3 1 0l.3.3c.3.3.3.7 0 1l-5.4 5.4z"/><circle class="st8" cx="311.2" cy="467.6" r="2.2"/><circle class="st8" cx="311.3" cy="474.3" r="2.2"/><circle class="st8" cx="311.3" cy="480.5" r="2.2"/><path class="st5" d="M498 495h-69.1c-1.3 0-2.4-1.1-2.4-2.4v-26.9c0-1.3 1.1-2.4 2.4-2.4H498c1.3 0 2.4 1.1 2.4 2.4v26.9c0 1.4-1.1 2.4-2.4 2.4zm-69.1-30.7c-.8 0-1.5.7-1.5 1.5v26.9c0 .8.7 1.5 1.5 1.5H498c.8 0 1.5-.7 1.5-1.5v-26.9c0-.8-.7-1.5-1.5-1.5h-69.1z"/><circle class="st6" cx="408.9" cy="479.3" r="8.8"/><path class="st7" d="M407.8 482.7c-.1.1-.2.1-.3.1s-.2 0-.3-.1l-2.6-2.6c-.3-.3-.3-.7 0-1l.3-.3c.3-.3.7-.3 1 0l1.6 1.6 4.4-4.4c.3-.3.7-.3 1 0l.3.3c.3.3.3.7 0 1l-5.4 5.4z"/><circle class="st8" cx="699.7" cy="467.6" r="2.2"/><circle class="st8" cx="699.7" cy="474.3" r="2.2"/><circle class="st8" cx="699.7" cy="480.5" r="2.2"/><path d="M440.4 479.7c-1 0-1.8.8-1.8 1.8v4.5c0 1 .8 1.8 1.8 1.8s1.8-.8 1.8-1.8v-4.5c0-1-.8-1.8-1.8-1.8zm-6.3 1.8c0 1 .9 1.8 1.9 1.7 1 0 1.7-.8 1.7-1.7v-1.8h-1.8c-1 0-1.8.8-1.8 1.8z" style="fill:#e91e63"/><path d="M440.4 470.7c-1 0-1.8.9-1.8 1.9s.8 1.7 1.7 1.7h1.8v-1.8c.1-1-.7-1.8-1.7-1.8zm-4.5 8.1h4.5c1 0 1.8-.9 1.7-1.9 0-1-.8-1.7-1.7-1.7h-4.5c-1 0-1.8.9-1.7 1.9 0 .9.7 1.6 1.7 1.7z" style="fill:#00bcd4"/><path d="M449.4 475.2c-1 0-1.8.8-1.8 1.8v1.8h1.8c1 0 1.8-.9 1.7-1.9 0-.9-.8-1.7-1.7-1.7zm-6.3-2.7v4.5c0 1 .8 1.8 1.8 1.8s1.8-.8 1.8-1.8v-4.5c0-1-.8-1.8-1.8-1.8s-1.8.8-1.8 1.8z" style="fill:#4caf50"/><path d="M446.7 486c0-1-.8-1.8-1.8-1.8h-1.8v1.8c0 1 .8 1.8 1.8 1.8s1.8-.8 1.8-1.8zm2.7-6.3h-4.5c-1 0-1.8.9-1.7 1.9 0 1 .8 1.7 1.7 1.7h4.5c1 0 1.8-.9 1.7-1.9 0-.9-.7-1.7-1.7-1.7z" style="fill:#ff9800"/><path class="st8" d="M263.5 104h1.1v15h-1.1zM263.5 137.3h1.1v15h-1.1zM264.6 127.4v-4.6h-1.1v4.6h-4.7v1.2h4.7v4.6h1.1v-4.6h4.6v-1.2z"/><path d="M195 300.1c-5.4 0-9.7 4.4-9.7 9.7v79c0 5.4 4.4 9.7 9.7 9.7h310.2c5.4 0 9.7-4.4 9.7-9.7v-79c0-5.4-4.4-9.7-9.7-9.7H195z" style="fill:#141323"/><path d="M195 300.1c-5.4 0-9.7 4.4-9.7 9.7v79c0 5.4 4.4 9.7 9.7 9.7h310.2c5.4 0 9.7-4.4 9.7-9.7v-79c0-5.4-4.4-9.7-9.7-9.7H195z" style="fill:none;stroke:#794bf5;stroke-miterlimit:10"/><path class="st5" d="M300.4 349.1h-70.7c-1.3 0-2.4-1.1-2.4-2.4v-27c0-1.3 1.1-2.4 2.4-2.4h70.7c1.3 0 2.4 1.1 2.4 2.4v27c-.1 1.3-1.1 2.4-2.4 2.4zm-70.7-30.9c-.8 0-1.5.7-1.5 1.5v27c0 .8.7 1.5 1.5 1.5h70.7c.8 0 1.5-.7 1.5-1.5v-27c0-.8-.7-1.5-1.5-1.5h-70.7z"/><circle class="st6" cx="209.6" cy="332" r="8.8"/><path class="st7" d="M208.5 335.3c-.1.1-.2.1-.3.1s-.2 0-.3-.1l-2.6-2.6c-.3-.3-.3-.7 0-1l.3-.3c.3-.3.7-.3 1 0l1.6 1.6 4.4-4.4c.3-.3.7-.3 1 0l.3.3c.3.3.3.7 0 1l-5.4 5.4z"/><circle class="st8" cx="489.9" cy="320.8" r="2.2"/><circle class="st8" cx="489.9" cy="326.9" r="2.2"/><circle class="st8" cx="489.9" cy="333.1" r="2.2"/><path class="st16" d="m249.7 334.8-2 3.4-2-3.4h1.5v-5.7h-5.7v-.8h6.6v6.5H249.7z"/><path class="st16" d="m249.7 334.8-2 3.4-2-3.4h4zM238.1 325h.9v13.1h1.5l-2 3.4-2-3.4h1.5v-12.3l.1-.8z"/><path class="st16" d="m240.5 338.1-2 3.4-2-3.4h4z"/><path class="st8" d="M284.1 251.8h1.1v15h-1.1zM284.1 270.6h1.1V281h-1.1zM284.1 285.1h1.1v15h-1.1z"/><path class="st8" d="M279.5 275.3h10.4v1.1h-10.4zM415.1 251.8h1.1v15h-1.1zM415.1 270.6h1.1V281h-1.1zM415.1 285.1h1.1v15h-1.1z"/><path class="st8" d="M410.5 275.3h10.4v1.1h-10.4zM284.1 398.6h1.1v15h-1.1zM284.1 417.4h1.1v10.4h-1.1zM284.1 431.9h1.1v15h-1.1z"/><path class="st8" d="M279.5 422.1h10.4v1.1h-10.4zM415.1 398.6h1.1v15h-1.1zM415.1 417.4h1.1v10.4h-1.1zM415.1 431.9h1.1v15h-1.1z"/><path class="st8" d="M410.5 422.1h10.4v1.1h-10.4z"/><g><path class="st8" d="M143.2 201H50.4c-1.3 0-2.4-1.1-2.4-2.4v-26.7c0-1.3 1.1-2.4 2.4-2.4h92.7c1.3 0 2.4 1.1 2.4 2.4v26.7c0 1.3-1 2.4-2.3 2.4zm-92.8-30.6c-.8 0-1.5.7-1.5 1.5v26.7c0 .8.7 1.5 1.5 1.5h92.7c.8 0 1.5-.7 1.5-1.5v-26.7c0-.8-.7-1.5-1.5-1.5H50.4z"/><path d="M143.2 201H50.4c-1.3 0-2.4-1.1-2.4-2.4v-26.7c0-1.3 1.1-2.4 2.4-2.4h92.7c1.3 0 2.4 1.1 2.4 2.4v26.7c0 1.3-1 2.4-2.3 2.4zm-92.8-30.6c-.8 0-1.5.7-1.5 1.5v26.7c0 .8.7 1.5 1.5 1.5h92.7c.8 0 1.5-.7 1.5-1.5v-26.7c0-.8-.7-1.5-1.5-1.5H50.4z" style="fill:none;stroke:#221f33;stroke-miterlimit:10"/></g><g><circle class="st6" cx="30.3" cy="184.7" r="8.8"/></g><g><path class="st7" d="M29.3 188c-.1.1-.2.1-.3.1s-.2 0-.3-.1l-2.6-2.6c-.3-.3-.3-.7 0-1l.3-.3c.3-.3.7-.3 1 0l1.6 1.6 4.4-4.4c.3-.3.7-.3 1 0l.3.3c.3.3.3.7 0 1l-5.4 5.4z"/></g><g><path d="M73.9 176.4V194c0 .2 0 .2-.2.2H56.2c-.2 0-.2 0-.2-.2v-17.6H73.6c.2-.1.2-.1.3 0z" style="fill:#136df4"/><path d="M73.9 176.4H56c0-.1.1 0 .2 0h17.5c.1-.1.2-.1.2 0z" style="fill:#4d9afe"/><path class="st20" d="M64.9 186.5c-.8.8-1.7 1.3-2.7 1.7-.7.3-1.4.4-2.2.5-.3 0-.3 0-.3-.2v-2.3c0-.2 0-.2.2-.3.8-.1 1.5-.4 2.2-.9l.2-.2c-.1-.1-.2 0-.2 0H60c-.2 0-.2 0-.2-.2V182c0-.2.1-.2.2-.2h2.6c.2 0 .2.1.2.2v2.2c.1 0 .1-.1.1-.1.3-.7.7-1.4 1-2.1.1-.2.2-.2.4-.2h1.8c.2 0 .2 0 .2.2V184.2h.1l.6-1.2c0-.1.1-.2.2-.3.2-.3.3-.6.5-.9 0-.1.1-.1.2-.1h2.9c.2 0 .2.1.1.2l-.3.6c-.1.1 0 .3-.2.4-.2.4-.4.8-.7 1.3-.3.5-.5 1.1-.8 1.6-.4.8-.8 1.5-1.2 2.3v.1c-.1.5-.4.6-.9.5h-2.5c-.2 0-.2 0-.1-.2.3-.6.6-1.1.9-1.7.1-.2.1-.5.3-.6-.2.1-.3.2-.5.3z"/><path d="M64.9 186.5c.1-.2.3-.3.4-.5.1 0 .1.1 0 .1-.1.2-.2.5-.4.7v-.2c.2-.1.1-.1 0-.1z" style="fill:#2771df"/><path d="M70.3 182.9c.1-.1.1-.2.2-.4 0 .2.1.4-.2.4z" style="fill:#3177d7"/><path d="M67.1 182.8c0 .1-.1.2-.2.3 0-.2.1-.3.2-.3z" style="fill:#397fd1"/><path d="M65.4 186.1v-.1c0-.1.1-.1.2-.2-.1.2-.2.3-.2.3z" style="fill:#6887b1"/></g><g><circle class="st8" cx="311.2" cy="173.4" r="2.2"/></g><g><circle class="st8" cx="311.2" cy="179.6" r="2.2"/></g><g><circle class="st8" cx="311.2" cy="185.8" r="2.2"/></g><g><ellipse class="st8" cx="670.2" cy="174.2" rx="2.2" ry="2.3"/></g><g><ellipse class="st8" cx="670.2" cy="180.8" rx="2.2" ry="2.3"/></g><g><ellipse class="st8" cx="670.2" cy="187.4" rx="2.2" ry="2.3"/></g><g><ellipse class="st6" cx="415" cy="185" rx="9.4" ry="9.9"/></g><g><path d="M415 183.5v-3.3c0-.2-.2-.4-.4-.4-.1 0-.3.1-.3.2l-2.7 5.4c-.2.4 0 .8.3 1 .1.1.2.1.3.1h2.7v3.3c0 .2.2.4.4.4.1 0 .3-.1.3-.2l2.7-5.4c.2-.4 0-.8-.3-1-.1-.1-.2-.1-.3-.1H415z" style="fill-rule:evenodd;clip-rule:evenodd;fill:#fefefe"/></g><g><path class="st8" d="M369.6 204.2h15v1.1h-15zM355.4 204.1h10.4v1.1h-10.4zM336.3 204.1h15v1.1h-15z"/><path class="st8" d="M360.1 199.6h1.1V210h-1.1z"/></g><g><path d="m106.7 471.1 9.8-.7c1.2-.1 1.5 0 2.3.5l3.1 2.2c.5.4.7.5.7.9v12.1c0 .8-.3 1.2-1.2 1.3l-11.4.7c-.7 0-1.1-.1-1.4-.5l-2.3-3c-.4-.6-.6-1-.6-1.4v-10.8c0-.7.2-1.2 1-1.3z" style="fill:#fff"/><path d="m116.5 470.4-9.8.7c-.8.1-1.1.6-1.1 1.2V483c0 .5.2.9.6 1.4l2.3 3c.4.5.7.6 1.4.5l11.4-.7c1-.1 1.2-.5 1.2-1.3v-12.1c0-.4-.1-.5-.6-.8 0 0-.1 0-.1-.1l-3.1-2.2c-.7-.3-1-.4-2.2-.3zm-6.3 3.4c-.9.1-1.1.1-1.7-.4l-1.3-1c-.1-.1-.1-.3.3-.3l9.4-.7c.8-.1 1.2.2 1.5.5l1.6 1.2c.1 0 .3.2 0 .2l-9.7.6h-.1v-.1zm-1 12.2v-10.3c0-.5.1-.6.5-.7l11.2-.6c.4 0 .5.2.5.6v10.2c0 .5-.1.8-.7.8l-10.7.6c-.6.2-.8-.1-.8-.6zm10.5-9.7c.1.3 0 .6-.3.6l-.5.1v7.6c-.5.3-.8.4-1.2.4-.5 0-.7-.2-1.1-.7l-3.4-5.3v5.1l1.1.3s0 .6-.8.6l-2.4.1c-.1-.1 0-.5.2-.5l.6-.2v-6.8l-.8-.1c-.1-.3.1-.8.6-.8l2.5-.2 3.5 5.4v-4.7l-.9-.1c-.1-.4.2-.6.5-.7l2.4-.1z" style="fill-rule:evenodd;clip-rule:evenodd;fill:#fb0057"/></g><g><path class="st20" d="m81.4 181 1.4 5.9.3 1.7.3-1.6 1.2-6h2.3l1.2 5.9.3 1.7.3-1.6 1.4-6h2.2l-2.9 10.4h-2.1l-1.3-6.1-.4-2-.4 2-1.3 6.1h-2L79 181h2.4zM98.2 183.8c.5.2 1 .6 1.3 1.1s.5 1 .6 1.6c.1.4.1.9.1 1.5h-5.6c0 .8.3 1.3.8 1.6.3.2.7.3 1.1.3.5 0 .8-.1 1.1-.4.2-.1.3-.3.4-.5h2.1c-.1.5-.3.9-.7 1.4-.7.7-1.7 1.1-2.9 1.1-1 0-1.9-.3-2.7-.9-.8-.6-1.2-1.7-1.2-3.1 0-1.3.4-2.4 1.1-3.1.7-.7 1.6-1.1 2.7-1.1.7.2 1.3.3 1.8.5zm-3 1.8c-.3.3-.5.7-.5 1.2h3.5c0-.5-.2-.9-.5-1.2s-.7-.4-1.2-.4c-.6-.1-1 .1-1.3.4zM107.8 184.6c.6.7.9 1.7.9 2.8 0 1.2-.3 2.2-.8 3-.6.8-1.4 1.2-2.4 1.2-.6 0-1.1-.1-1.5-.4-.2-.2-.5-.4-.8-.8v1h-2V181h2v3.7c.3-.4.5-.6.8-.8.4-.2.8-.4 1.4-.4 1 0 1.8.4 2.4 1.1zm-1.7 4.7c.3-.4.4-1 .4-1.6 0-.5-.1-1-.2-1.4-.3-.7-.8-1-1.5-1s-1.2.3-1.5 1c-.1.4-.2.8-.2 1.4 0 .7.1 1.2.4 1.6.3.4.7.6 1.3.6s1-.2 1.3-.6zM113.3 180.9h.4v1.6h-.6c-.3 0-.4.1-.5.2-.1.1-.2.3-.2.4v.6h1.3v1.4h-1.3v6.2h-2v-6.2h-1.1v-1.4h1.1v-.5c0-.8.1-1.4.4-1.7.3-.5 1-.7 2.1-.7.1.1.3.1.4.1zM116.9 191.4h-2V181h2v10.4zM125.3 190.4c-.6.8-1.6 1.2-3 1.2s-2.3-.4-3-1.2-1-1.8-1-2.9c0-1.1.3-2.1 1-2.9.6-.8 1.6-1.2 3-1.2s2.3.4 3 1.2c.6.8 1 1.8 1 2.9 0 1.2-.4 2.1-1 2.9zm-1.6-1.1c.3-.4.5-1 .5-1.8s-.2-1.4-.5-1.8c-.3-.4-.8-.6-1.4-.6-.6 0-1 .2-1.4.6-.3.4-.5 1-.5 1.8s.2 1.4.5 1.8c.3.4.8.6 1.4.6.6.1 1.1-.2 1.4-.6zM131.3 183.7h2l1.2 5.5 1.2-5.5h2.1l-2.2 7.7h-2.1l-1.2-5.6-1.2 5.6H129l-2.2-7.7h2.2l1.2 5.5 1.1-5.5z"/></g><g><path class="st20" d="M433.5 179.4h2.5l3.7 10.4h-2.4l-.7-2.1h-3.8l-.7 2.1h-2.3l3.7-10.4zm-.1 6.4h2.7l-1.3-4.1-1.4 4.1zM445.4 184.8c0-.3-.1-.5-.3-.8-.2-.3-.6-.5-1.1-.5-.7 0-1.1.3-1.4 1-.1.4-.2.8-.2 1.4 0 .6.1 1 .2 1.4.2.6.7 1 1.4 1 .5 0 .8-.1 1-.4.2-.3.3-.6.4-1h2.1c0 .6-.3 1.2-.7 1.7-.6.9-1.6 1.3-2.8 1.3s-2.1-.4-2.7-1.1-.9-1.7-.9-2.9c0-1.3.3-2.3 1-3.1s1.5-1.1 2.7-1.1c1 0 1.8.2 2.4.6.6.4 1 1.2 1.1 2.3h-2.2v.2zM448 183.6v-1.4h1.1v-2.1h2v2.1h1.2v1.4h-1.2v4.1c0 .3 0 .5.1.6s.3.1.7.1h.4v1.5h-1c-.9 0-1.6-.1-1.9-.5-.2-.2-.3-.6-.3-1.1v-4.7H448zM455.7 181.2h-2v-1.9h2v1.9zm-2 .9h2v7.7h-2v-7.7zM464 188.8c-.6.8-1.6 1.2-3 1.2s-2.3-.4-3-1.2-1-1.8-1-2.9c0-1.1.3-2.1 1-2.9.6-.8 1.6-1.2 3-1.2s2.3.4 3 1.2c.6.8 1 1.8 1 2.9 0 1.2-.3 2.1-1 2.9zm-1.6-1.1c.3-.4.5-1 .5-1.8s-.2-1.4-.5-1.8c-.3-.4-.8-.6-1.4-.6s-1 .2-1.4.6c-.3.4-.5 1-.5 1.8s.2 1.4.5 1.8c.3.4.8.6 1.4.6.7 0 1.1-.2 1.4-.6zM472.7 182.5c.5.4.8 1.1.8 2.1v5.2h-2.1v-4.7c0-.4-.1-.7-.2-.9-.2-.4-.6-.6-1.1-.6-.7 0-1.1.3-1.4.9-.1.3-.2.7-.2 1.2v4.2h-2v-7.7h1.9v1.1c.3-.4.5-.7.7-.9.4-.3.9-.5 1.6-.5.8 0 1.5.2 2 .6z"/></g><g><path class="st20" d="M261.5 333.6c-.6.5-1.5.8-2.6.8h-2.2v3.7h-2.2v-10.4h4.5c1 0 1.8.3 2.5.8s.9 1.4.9 2.5c0 1.2-.3 2.1-.9 2.6zm-1.6-3.7c-.3-.2-.7-.3-1.2-.3h-2v3.1h2c.5 0 .9-.1 1.2-.4.3-.2.4-.6.4-1.2s-.2-1-.4-1.2zM267.1 333.4c.4 0 .6-.1.8-.2.3-.1.4-.3.4-.6s-.1-.5-.3-.7c-.2-.1-.5-.2-1-.2s-.8.1-1 .4c-.1.2-.2.4-.3.7h-1.9c0-.7.2-1.2.6-1.7.5-.7 1.4-1 2.7-1 .8 0 1.6.2 2.3.5s1 1 1 1.9v4.4c0 .3.1.4.1.5.1.1.2.2.3.2v.3h-2.2c-.1-.2-.1-.3-.1-.4s0-.3-.1-.5c-.3.3-.6.6-1 .8-.4.2-.9.4-1.5.4-.7 0-1.3-.2-1.7-.6s-.7-1-.7-1.7c0-.9.4-1.6 1.1-2.1.4-.2 1-.4 1.8-.5l.7.1zm1.2 1c-.1.1-.3.1-.4.2s-.3.1-.5.1l-.5.1c-.4.1-.7.2-.9.3-.3.2-.5.5-.5.9 0 .3.1.6.3.7.2.2.4.2.7.2.4 0 .8-.1 1.2-.4.4-.3.6-.7.6-1.4v-.7zM271.3 331.9v-1.4h1.1v-2.1h2v2.1h1.2v1.4h-1.2v4.1c0 .3 0 .5.1.6s.3.1.7.1h.4v1.5h-1c-.9 0-1.6-.1-1.9-.5-.2-.2-.3-.6-.3-1.1v-4.7h-1.1zM282.4 330.4c.4.2.7.4 1 .8.2.3.3.6.4.9s.1.8.1 1.5v4.5h-2.1v-4.7c0-.4-.1-.7-.2-1-.2-.4-.5-.5-1-.5s-.9.2-1.2.5c-.3.4-.4.9-.4 1.5v4.2h-2v-10.4h2v3.7c.3-.4.6-.8 1-.9.4-.2.8-.3 1.2-.3.4 0 .8.1 1.2.2zM287.2 335.6c0 .4.1.6.3.8.2.3.7.4 1.4.4.4 0 .7-.1.9-.2.2-.1.4-.3.4-.5s-.1-.4-.3-.5c-.2-.1-.9-.3-2.1-.6-.9-.2-1.5-.5-1.8-.8-.4-.3-.5-.8-.5-1.4 0-.7.3-1.3.8-1.8.6-.5 1.3-.8 2.4-.8 1 0 1.7.2 2.3.6.6.4 1 1 1 2h-2c0-.3-.1-.5-.2-.6-.2-.3-.6-.4-1.1-.4-.4 0-.8.1-.9.2-.2.1-.3.3-.3.5s.1.4.3.5c.2.1.9.3 2.1.6.8.2 1.4.5 1.8.9s.6.9.6 1.4c0 .8-.3 1.4-.9 1.9s-1.4.7-2.6.7-2.1-.3-2.7-.8-.9-1.2-.9-1.9h2v-.2z"/></g><g><path class="st20" d="M127.9 474.8h2.3l4.1 7.2v-7.2h2v10.4h-2.2l-4.2-7.4v7.4h-2v-10.4zM144.6 484.2c-.6.8-1.6 1.2-3 1.2s-2.3-.4-3-1.2-1-1.8-1-2.9.3-2.1 1-2.9c.6-.8 1.6-1.2 3-1.2s2.3.4 3 1.2c.6.8 1 1.8 1 2.9 0 1.2-.3 2.1-1 2.9zm-1.6-1.1c.3-.4.5-1 .5-1.8s-.2-1.4-.5-1.8-.8-.6-1.4-.6c-.6 0-1 .2-1.4.6-.3.4-.5 1-.5 1.8s.2 1.4.5 1.8c.3.4.8.6 1.4.6.7.1 1.1-.1 1.4-.6zM146.2 479v-1.4h1.1v-2.2h2v2.1h1.2v1.4h-1.2v4.1c0 .3 0 .5.1.6s.3.1.7.1h.4v1.5h-1c-.9 0-1.6-.1-1.9-.5-.2-.2-.3-.6-.3-1.1v-4.7h-1.1v.1zM153.9 476.6h-2v-1.9h2v1.9zm-2 .9h2v7.7h-2v-7.7zM162.3 484.2c-.6.8-1.6 1.2-3 1.2s-2.3-.4-3-1.2-1-1.8-1-2.9.3-2.1 1-2.9c.6-.8 1.6-1.2 3-1.2s2.3.4 3 1.2c.6.8 1 1.8 1 2.9-.1 1.2-.4 2.1-1 2.9zm-1.6-1.1c.3-.4.5-1 .5-1.8s-.2-1.4-.5-1.8-.8-.6-1.4-.6c-.6 0-1 .2-1.4.6-.3.4-.5 1-.5 1.8s.2 1.4.5 1.8c.3.4.8.6 1.4.6.6.1 1-.1 1.4-.6zM170.9 477.9c.5.4.8 1.1.8 2.1v5.2h-2.1v-4.7c0-.4-.1-.7-.2-.9-.2-.4-.6-.6-1.1-.6-.7 0-1.1.3-1.4.9-.1.3-.2.7-.2 1.2v4.2h-2v-7.7h1.9v1.1c.3-.4.5-.7.7-.9.4-.3.9-.5 1.6-.5.8 0 1.5.2 2 .6z"/></g><g><path class="st20" d="M457.8 482c.1.5.2.8.4 1.1.4.4 1 .6 1.8.6.5 0 .9-.1 1.3-.2.6-.2.9-.6.9-1.2 0-.3-.2-.6-.5-.8-.3-.2-.8-.3-1.4-.5l-1.1-.2c-1.1-.2-1.9-.5-2.3-.8-.7-.5-1.1-1.2-1.1-2.2 0-.9.3-1.7 1-2.3.7-.6 1.7-.9 3-.9 1.1 0 2.1.3 2.8.9.8.6 1.2 1.4 1.2 2.5h-2.1c0-.6-.3-1.1-.8-1.3-.3-.2-.8-.3-1.3-.3-.6 0-1 .1-1.4.3-.3.2-.5.5-.5.9s.2.6.5.8c.2.1.7.3 1.4.4l1.8.4c.8.2 1.4.4 1.8.8.6.5.9 1.2.9 2.1s-.4 1.7-1.1 2.4c-.7.6-1.8.9-3.1.9-1.4 0-2.4-.3-3.2-.9-.8-.6-1.2-1.5-1.2-2.5h2.3zM467.8 485.2h-2v-10.4h2v10.4zM472.8 480.5c.4 0 .6-.1.8-.2.3-.1.4-.3.4-.6s-.1-.5-.3-.7c-.2-.1-.5-.2-1-.2s-.8.1-1 .4c-.1.2-.2.4-.3.7h-2c0-.7.2-1.2.6-1.7.5-.7 1.4-1 2.7-1 .8 0 1.6.2 2.3.5.7.3 1 1 1 1.9v4.4c0 .3.1.4.1.5.1.1.2.2.3.2v.3h-2.2c-.1-.2-.1-.3-.1-.4s0-.3-.1-.5c-.3.3-.6.6-1 .8s-.9.4-1.5.4c-.7 0-1.3-.2-1.7-.6s-.7-1-.7-1.7c0-.9.4-1.6 1.1-2.1.4-.2 1-.4 1.8-.5l.8.1zm1.2 1c-.1.1-.3.1-.4.2s-.3.1-.5.1l-.5.1c-.4.1-.7.2-.9.3-.3.2-.5.5-.5.9 0 .3.1.6.3.7.2.2.4.2.7.2.4 0 .8-.1 1.2-.4s.6-.7.6-1.4v-.7zM482.3 480.3c0-.3-.1-.5-.3-.8s-.6-.5-1.1-.5c-.7 0-1.1.3-1.4 1-.1.4-.2.8-.2 1.4s.1 1 .2 1.4c.2.6.7 1 1.4 1 .5 0 .8-.1 1-.4.2-.3.3-.6.4-1h2.1c0 .6-.3 1.2-.7 1.7-.6.9-1.6 1.3-2.8 1.3s-2.1-.4-2.7-1.1c-.6-.7-.9-1.7-.9-2.9 0-1.3.3-2.3 1-3.1.6-.7 1.5-1.1 2.7-1.1 1 0 1.8.2 2.4.6s1 1.2 1.1 2.3h-2.2v.2zM485.8 474.8h2v5.6l2.5-2.9h2.5l-2.8 2.9 2.9 4.8h-2.5l-1.9-3.3-.8.9v2.4h-2v-10.4h.1z"/></g><g><path class="st16" d="M252.5 42.5c-.1-.2-.3-.4-.5-.3-.4 0-.8.1-1.2.1-3.3 0-6-2.7-6-6v-1.8c0-.8.7-1.5 1.5-1.5h9.4c.8 0 1.5.7 1.5 1.5v1.4c0 .3.2.5.5.5h.7c.3 0 .5-.2.5-.5v-1.4c0-1.7-1.4-3.1-3.1-3.1h-3.9v-1.5c0-.3-.2-.5-.5-.5h-.7c-.3 0-.5.2-.5.5v1.5h-3.9c-1.7 0-3.1 1.4-3.1 3.1v1.8c0 4.2 3.4 7.6 7.6 7.6.5 0 1 0 1.5-.1.2 0 .4-.3.4-.5l-.2-.8z"/><circle class="st16" cx="248.4" cy="36.6" r="1.3"/><circle class="st16" cx="253.6" cy="36.6" r="1.3"/><path class="st16" d="m258.7 42.7-1.4-.7.5-3.2c0-.2-.1-.3-.2-.3s-.2 0-.2.1l-3.4 3.1c-.1.1-.1.3 0 .4 0 0 .1 0 .1.1l1.4.7-.5 3.2c0 .2.1.3.2.3s.2 0 .2-.1l3.4-3c.1-.3.1-.5-.1-.6z"/></g><g><path class="st20" d="M267.9 32.2h2.5l3.7 10.4h-2.4l-.7-2.1h-3.8l-.7 2.1h-2.3l3.7-10.4zm-.2 6.4h2.7l-1.3-4.1-1.4 4.1zM277.3 42.5h-2.2V32.2h2.2v10.3zM285.8 32.2h2.5l3.7 10.4h-2.4l-.7-2.1h-3.8l-.7 2.1h-2.3l3.7-10.4zm-.2 6.4h2.7l-1.3-4.1-1.4 4.1zM296.9 34.9c.5.2.9.6 1.2 1.1v-1.1h2v7.3c0 1-.2 1.7-.5 2.2-.6.9-1.7 1.3-3.3 1.3-1 0-1.8-.2-2.4-.6s-1-1-1-1.7h2.2c.1.2.1.4.3.5.2.2.6.3 1.1.3.7 0 1.2-.2 1.5-.7.2-.3.2-.8.2-1.6v-.5c-.2.3-.4.6-.6.7-.4.3-.9.5-1.6.5-1 0-1.8-.3-2.4-1s-.9-1.6-.9-2.8c0-1.1.3-2.1.9-2.9.6-.8 1.4-1.2 2.4-1.2.3 0 .6 0 .9.2zm.7 5.5c.3-.4.5-.9.5-1.7 0-.7-.2-1.3-.5-1.7-.3-.4-.7-.6-1.2-.6-.7 0-1.2.3-1.5 1-.1.4-.2.8-.2 1.3 0 .4.1.8.2 1.2.3.6.8 1 1.5 1 .4 0 .8-.2 1.2-.5zM306.9 35c.5.2 1 .6 1.3 1.1s.5 1 .6 1.6c.1.4.1.9.1 1.5h-5.6c0 .8.3 1.3.8 1.6.3.2.7.3 1.1.3.5 0 .8-.1 1.1-.4.2-.1.3-.3.4-.5h2.1c-.1.5-.3.9-.7 1.4-.7.7-1.7 1.1-2.9 1.1-1 0-1.9-.3-2.7-.9-.8-.6-1.2-1.7-1.2-3.1 0-1.3.4-2.4 1.1-3.1.7-.7 1.6-1.1 2.7-1.1.7.2 1.3.3 1.8.5zm-3 1.8c-.3.3-.5.7-.5 1.2h3.5c0-.5-.2-.9-.5-1.2-.3-.3-.7-.4-1.2-.4-.6-.1-1 .1-1.3.4zM316.1 35.3c.5.4.8 1.1.8 2.1v5.2h-2.1v-4.7c0-.4-.1-.7-.2-.9-.2-.4-.6-.6-1.1-.6-.7 0-1.1.3-1.4.9-.1.3-.2.7-.2 1.2v4.2h-2V35h1.9v1.1c.3-.4.5-.7.7-.9.4-.3.9-.5 1.6-.5.9 0 1.5.2 2 .6zM317.9 36.4V35h1.1v-2.1h2V35h1.2v1.4H321v4c0 .3 0 .5.1.6s.3.1.7.1h.4v1.5h-1c-.9 0-1.6-.1-1.9-.5-.2-.2-.3-.6-.3-1.1v-4.6h-1.1zM325.1 40.1c0 .4.1.6.3.8.2.3.7.4 1.4.4.4 0 .7-.1.9-.2.2-.1.4-.3.4-.5s-.1-.4-.3-.5c-.2-.1-.9-.3-2.1-.6-.9-.2-1.5-.5-1.8-.8-.4-.3-.5-.8-.5-1.4 0-.7.3-1.3.8-1.8.6-.5 1.3-.8 2.4-.8 1 0 1.7.2 2.3.6.6.4 1 1 1 2h-2c0-.3-.1-.5-.2-.6-.2-.3-.6-.4-1.1-.4-.4 0-.8.1-.9.2-.2.1-.3.3-.3.5s.1.4.3.5c.2.1.9.3 2.1.6.8.2 1.4.5 1.8.9s.6.9.6 1.4c0 .8-.3 1.4-.9 1.9s-1.4.7-2.6.7-2.1-.3-2.7-.8-.9-1.2-.9-1.9h2v-.2z"/></g><g><path class="st20" d="M213.3 71.1c.6 1 .9 2.5.9 4.4s-.3 3.4-.9 4.4c-.6 1-1.6 1.6-3.1 1.6s-2.5-.5-3.1-1.6c-.6-1-.9-2.5-.9-4.4s.3-3.4.9-4.4 1.6-1.6 3.1-1.6 2.5.6 3.1 1.6zm-4.4 7.5c.2.7.7 1.1 1.3 1.1.7 0 1.1-.4 1.3-1.1s.3-1.7.3-3.1-.1-2.4-.3-3.1-.7-1-1.3-1c-.7 0-1.1.3-1.3 1s-.3 1.7-.3 3.1c-.1 1.4 0 2.4.3 3.1zM215.9 73.2v-1.6c.7 0 1.2-.1 1.5-.1.5-.1.8-.3 1.1-.6.2-.2.3-.5.4-.8.1-.2.1-.4.1-.5h1.9v11.6h-2.3v-8h-2.7zM224.9 78.8h2.4v2.4h-2.4v-2.4zM237 69.4h2.8l4.2 11.8h-2.7l-.8-2.4h-4.3l-.8 2.4h-2.6l4.2-11.8zm-.1 7.4h3l-1.5-4.6-1.5 4.6zM249.9 72.6c.4.2.7.6 1 1v-4.2h2.3v11.8H251V80c-.3.5-.7.9-1.1 1.1s-.9.4-1.6.4c-1 0-1.9-.4-2.6-1.2-.7-.8-1-1.9-1-3.2 0-1.5.3-2.7 1-3.5.7-.9 1.6-1.3 2.7-1.3.7 0 1.1.1 1.5.3zm.6 6.2c.3-.5.5-1.1.5-1.9 0-1.1-.3-1.8-.8-2.3-.3-.3-.7-.4-1.2-.4-.7 0-1.2.3-1.5.8s-.5 1.1-.5 1.9.2 1.4.5 1.9.8.7 1.4.7c.8.1 1.3-.2 1.6-.7zM259.9 72.6c.4.2.7.6 1 1v-4.2h2.3v11.8H261V80c-.3.5-.7.9-1.1 1.1s-.9.4-1.6.4c-1 0-1.9-.4-2.6-1.2-.7-.8-1-1.9-1-3.2 0-1.5.3-2.7 1-3.5.7-.9 1.6-1.3 2.7-1.3.7 0 1.1.1 1.5.3zm.6 6.2c.3-.5.5-1.1.5-1.9 0-1.1-.3-1.8-.8-2.3-.3-.3-.7-.4-1.2-.4-.7 0-1.2.3-1.5.8s-.5 1.1-.5 1.9.2 1.4.5 1.9.8.7 1.4.7 1.3-.2 1.6-.7zM273.3 75.9c.4-.1.7-.1.9-.2.3-.1.5-.4.5-.6 0-.4-.1-.6-.4-.7s-.6-.2-1.1-.2-.9.1-1.2.4c-.2.2-.3.5-.3.8h-2.2c0-.8.3-1.4.6-1.9.6-.8 1.6-1.2 3.1-1.2 1 0 1.8.2 2.6.6.7.4 1.1 1.1 1.1 2.1v5c0 .3.1.5.1.6l.3.3v.3h-2.5c-.1-.2-.1-.3-.1-.5s0-.3-.1-.5c-.3.3-.7.6-1.1.9-.5.3-1.1.4-1.7.4-.8 0-1.5-.2-2-.7s-.8-1.1-.8-1.9c0-1.1.4-1.8 1.2-2.3.5-.3 1.1-.4 2-.6l1.1-.1zm1.4 1.1c-.1.1-.3.2-.4.2-.1.1-.4.1-.6.2l-.5.1c-.5.1-.8.2-1 .3-.4.2-.5.5-.5 1 0 .4.1.7.3.8.2.2.5.3.8.3.5 0 1-.1 1.4-.4s.6-.8.7-1.6V77h-.2zM290.6 73c.6.5.9 1.3.9 2.3v5.9h-2.3v-5.3c0-.5-.1-.8-.2-1.1-.2-.4-.6-.7-1.3-.7-.8 0-1.3.3-1.6 1-.1.3-.2.8-.2 1.3v4.7h-2.3v-8.7h2.2v1.3c.3-.4.6-.8.8-1 .5-.4 1.1-.5 1.8-.5.9.1 1.6.3 2.2.8zM299.2 72.7c.6.3 1.1.7 1.5 1.3.4.5.6 1.1.7 1.8.1.4.1 1 .1 1.7h-6.4c0 .9.3 1.5.9 1.8.3.2.8.3 1.3.3s.9-.1 1.3-.4c.2-.1.3-.3.5-.6h2.3c-.1.5-.3 1-.8 1.6-.8.8-1.9 1.3-3.3 1.3-1.2 0-2.2-.4-3.1-1.1s-1.3-1.9-1.3-3.5c0-1.5.4-2.7 1.2-3.5.8-.8 1.8-1.2 3.1-1.2.7.1 1.4.2 2 .5zm-3.4 1.9c-.3.3-.5.8-.6 1.3h3.9c0-.6-.2-1.1-.6-1.4s-.8-.5-1.4-.5c-.5.1-1 .3-1.3.6zM306.8 72.5h2.3l1.3 6.3 1.4-6.3h2.4l-2.5 8.7h-2.3l-1.4-6.4-1.4 6.4h-2.4l-2.4-8.7h2.4l1.4 6.3 1.2-6.3zM324.8 72.3h.2v2.3h-.7c-.9 0-1.5.3-1.8.9-.2.3-.3.9-.3 1.6v4.2h-2.3v-8.7h2.2v1.5c.4-.6.7-1 .9-1.2.4-.4 1-.5 1.7-.5 0-.1.1-.1.1-.1zM332 72.7c.6.3 1.1.7 1.5 1.3.4.5.6 1.1.7 1.8.1.4.1 1 .1 1.7h-6.4c0 .9.3 1.5.9 1.8.3.2.8.3 1.3.3s.9-.1 1.3-.4c.2-.1.3-.3.5-.6h2.3c-.1.5-.3 1-.8 1.6-.8.8-1.9 1.3-3.3 1.3-1.2 0-2.2-.4-3.1-1.1s-1.3-1.9-1.3-3.5c0-1.5.4-2.7 1.2-3.5.8-.8 1.8-1.2 3.1-1.2.7.1 1.4.2 2 .5zm-3.4 1.9c-.3.3-.5.8-.6 1.3h3.9c0-.6-.2-1.1-.6-1.4s-.8-.5-1.4-.5c-.5.1-1 .3-1.3.6zM340.7 75.6c0-.3-.2-.6-.3-.9-.3-.4-.7-.5-1.2-.5-.8 0-1.3.4-1.6 1.1-.1.4-.2.9-.2 1.6 0 .6.1 1.2.2 1.5.3.7.8 1.1 1.5 1.1.5 0 .9-.1 1.1-.4s.4-.7.4-1.1h2.3c-.1.7-.3 1.3-.8 2-.7 1-1.8 1.5-3.2 1.5-1.4 0-2.4-.4-3.1-1.2-.7-.8-1-1.9-1-3.2 0-1.5.4-2.7 1.1-3.5s1.7-1.2 3-1.2c1.1 0 2 .2 2.7.7s1.1 1.4 1.2 2.6l-2.1-.1zM351.8 80.1c-.7.9-1.9 1.4-3.4 1.4s-2.6-.5-3.4-1.4c-.7-.9-1.1-2-1.1-3.3s.4-2.3 1.1-3.3c.7-.9 1.9-1.4 3.4-1.4s2.6.5 3.4 1.4c.7.9 1.1 2 1.1 3.3s-.3 2.4-1.1 3.3zm-1.8-1.2c.4-.5.5-1.1.5-2s-.2-1.5-.5-2-.9-.7-1.5-.7-1.2.2-1.5.7-.5 1.1-.5 2 .2 1.5.5 2c.4.5.9.7 1.5.7s1.1-.2 1.5-.7zM359.4 72.3h.2v2.3h-.7c-.9 0-1.5.3-1.8.9-.2.3-.3.9-.3 1.6v4.2h-2.3v-8.7h2.2v1.5c.4-.6.7-1 .9-1.2.4-.4 1-.5 1.7-.5 0-.1.1-.1.1-.1zM365.6 72.6c.4.2.7.6 1 1v-4.2h2.3v11.8h-2.2V80c-.3.5-.7.9-1.1 1.1s-.9.4-1.6.4c-1 0-1.9-.4-2.6-1.2-.7-.8-1-1.9-1-3.2 0-1.5.3-2.7 1-3.5.7-.9 1.6-1.3 2.7-1.3.6 0 1.1.1 1.5.3zm.5 6.2c.3-.5.5-1.1.5-1.9 0-1.1-.3-1.8-.8-2.3-.3-.3-.7-.4-1.2-.4-.7 0-1.2.3-1.5.8s-.5 1.1-.5 1.9.2 1.4.5 1.9.8.7 1.4.7c.8.1 1.3-.2 1.6-.7z"/></g><g><path class="st20" d="M29.1 218.6c.6 1 .9 2.5.9 4.4s-.3 3.4-.9 4.4c-.6 1-1.6 1.6-3.1 1.6s-2.5-.5-3.1-1.6c-.6-1-.9-2.5-.9-4.4s.3-3.4.9-4.4 1.6-1.6 3.1-1.6 2.5.5 3.1 1.6zm-4.4 7.5c.2.7.7 1.1 1.3 1.1.7 0 1.1-.4 1.3-1.1s.3-1.7.3-3.1c0-1.4-.1-2.4-.3-3.1s-.7-1-1.3-1c-.7 0-1.1.3-1.3 1s-.3 1.7-.3 3.1c-.1 1.3 0 2.4.3 3.1zM31.7 226.4c.3-.8 1.1-1.6 2.3-2.5 1.1-.8 1.7-1.3 2-1.6.5-.5.7-1.1.7-1.7 0-.5-.1-.9-.4-1.2s-.7-.5-1.2-.5c-.7 0-1.2.3-1.4.8-.1.3-.2.8-.3 1.4h-2.2c0-1 .2-1.8.5-2.4.6-1.2 1.7-1.7 3.2-1.7 1.2 0 2.2.3 2.9 1 .7.7 1.1 1.6 1.1 2.7 0 .9-.3 1.6-.8 2.3-.3.4-.9.9-1.7 1.5l-.9.6c-.6.4-1 .7-1.2.9s-.4.4-.5.6h5.1v2H31c.1-.7.3-1.5.7-2.2zM40.7 226.3h2.4v2.4h-2.4v-2.4zM50 216.9h2.6l4.7 8.2v-8.2h2.3v11.8h-2.5l-4.8-8.4v8.4H50v-11.8zM67.4 220.2c.6.3 1.1.7 1.5 1.3.4.5.6 1.1.7 1.8.1.4.1 1 .1 1.7h-6.4c0 .9.3 1.5.9 1.8.3.2.8.3 1.3.3s.9-.1 1.3-.4c.2-.1.3-.3.5-.6h2.3c-.1.5-.3 1-.8 1.6-.8.8-1.9 1.3-3.3 1.3-1.2 0-2.2-.4-3.1-1.1-.9-.7-1.3-1.9-1.3-3.5 0-1.5.4-2.7 1.2-3.5.8-.8 1.8-1.2 3.1-1.2.7 0 1.4.2 2 .5zm-3.4 1.9c-.3.3-.5.8-.6 1.3h3.9c0-.6-.2-1.1-.6-1.4s-.8-.5-1.4-.5c-.5.1-1 .3-1.3.6zM74.9 220h2.3l1.3 6.3 1.4-6.3h2.4l-2.5 8.7h-2.3l-1.4-6.4-1.4 6.4h-2.4l-2.4-8.7h2.4l1.4 6.3 1.2-6.3zM92.2 220h2.3l1.3 6.3 1.4-6.3h2.4l-2.5 8.7h-2.3l-1.4-6.4-1.4 6.4h-2.4l-2.4-8.7h2.4l1.4 6.3 1.2-6.3zM106.6 220.2c.6.3 1.1.7 1.5 1.3.4.5.6 1.1.7 1.8.1.4.1 1 .1 1.7h-6.4c0 .9.3 1.5.9 1.8.3.2.8.3 1.3.3s.9-.1 1.3-.4c.2-.1.3-.3.5-.6h2.3c-.1.5-.3 1-.8 1.6-.8.8-1.9 1.3-3.3 1.3-1.2 0-2.2-.4-3.1-1.1-.9-.7-1.3-1.9-1.3-3.5 0-1.5.4-2.7 1.2-3.5s1.8-1.2 3.1-1.2c.7 0 1.3.2 2 .5zm-3.5 1.9c-.3.3-.5.8-.6 1.3h3.9c0-.6-.2-1.1-.6-1.4s-.8-.5-1.4-.5c-.5.1-.9.3-1.3.6zM117.4 221c.7.8 1 1.9 1 3.2 0 1.4-.3 2.5-1 3.4-.6.9-1.5 1.3-2.7 1.3-.7 0-1.3-.1-1.7-.4-.3-.2-.5-.5-.9-.9v1.1h-2.2v-11.8h2.3v4.2c.3-.4.6-.7 1-.9.4-.3.9-.4 1.6-.4 1.1 0 2 .4 2.6 1.2zm-1.9 5.3c.3-.5.5-1.1.5-1.9 0-.6-.1-1.1-.2-1.5-.3-.8-.9-1.2-1.7-1.2s-1.4.4-1.7 1.1c-.2.4-.2.9-.2 1.6 0 .7.2 1.4.5 1.9s.8.7 1.5.7c.5.1 1-.2 1.3-.7zM121.8 225.9c0 .4.2.7.3.9.3.3.8.5 1.6.5.5 0 .8-.1 1.1-.2.3-.1.4-.3.4-.6s-.1-.5-.3-.6-1-.4-2.4-.7c-1-.2-1.7-.6-2.1-.9-.4-.4-.6-.9-.6-1.6 0-.8.3-1.5.9-2.1.6-.6 1.5-.9 2.7-.9 1.1 0 2 .2 2.7.7.7.4 1.1 1.2 1.2 2.3H125c0-.3-.1-.5-.2-.7-.3-.3-.7-.5-1.3-.5-.5 0-.9.1-1.1.2-.2.2-.3.3-.3.5 0 .3.1.5.3.6s1 .3 2.4.6c.9.2 1.6.5 2 1 .4.4.7 1 .7 1.6 0 .9-.3 1.6-1 2.1-.6.5-1.6.8-3 .8s-2.4-.3-3-.9c-.7-.6-1-1.3-1-2.2l2.3.1zM131.4 218.9h-2.3v-2.1h2.3v2.1zm-2.3 1.1h2.3v8.7h-2.3V220zM132.8 221.7v-1.6h1.2v-2.4h2.3v2.4h1.4v1.6h-1.4v4.6c0 .4 0 .6.1.7.1.1.4.1.8.1h.4v1.7h-1.1c-1.1 0-1.8-.1-2.2-.6-.3-.3-.4-.7-.4-1.2v-5.4l-1.1.1zM144.8 220.2c.6.3 1.1.7 1.5 1.3.4.5.6 1.1.7 1.8.1.4.1 1 .1 1.7h-6.4c0 .9.3 1.5.9 1.8.3.2.8.3 1.3.3s.9-.1 1.3-.4c.2-.1.3-.3.5-.6h2.3c-.1.5-.3 1-.8 1.6-.8.8-1.9 1.3-3.3 1.3-1.2 0-2.2-.4-3.1-1.1-.9-.7-1.3-1.9-1.3-3.5 0-1.5.4-2.7 1.2-3.5s1.8-1.2 3.1-1.2c.7 0 1.4.2 2 .5zm-3.4 1.9c-.3.3-.5.8-.6 1.3h3.9c0-.6-.2-1.1-.6-1.4-.4-.3-.8-.5-1.4-.5-.5.1-1 .3-1.3.6zM156.4 216.8h.5v1.9h-.6c-.3 0-.5.1-.6.2-.1.1-.2.3-.2.5v.7h1.5v1.6h-1.6v7h-2.3v-7h-1.3v-1.6h1.2v-.6c0-.9.2-1.6.5-1.9.3-.5 1.1-.8 2.4-.8h.5zM163.1 219.8h.2v2.3h-.7c-.9 0-1.5.3-1.8.9-.2.3-.3.9-.3 1.6v4.2h-2.3v-8.7h2.2v1.5c.4-.6.7-1 .9-1.2.4-.4 1-.5 1.7-.5 0-.1 0-.1.1-.1zM171.9 227.6c-.7.9-1.9 1.4-3.4 1.4s-2.6-.5-3.4-1.4c-.7-.9-1.1-2-1.1-3.3s.4-2.3 1.1-3.3c.7-.9 1.9-1.4 3.4-1.4s2.6.5 3.4 1.4 1.1 2 1.1 3.3c0 1.3-.4 2.4-1.1 3.3zm-1.8-1.2c.4-.5.5-1.1.5-2s-.2-1.5-.5-2-.9-.7-1.5-.7c-.7 0-1.2.2-1.5.7-.4.5-.5 1.1-.5 2s.2 1.5.5 2c.4.5.9.7 1.5.7s1.1-.3 1.5-.7zM185.5 220c.4.1.7.4 1 .8.2.3.4.7.5 1.1.1.3.1.7.1 1.3v5.5h-2.3v-5.6c0-.3-.1-.6-.2-.8-.2-.4-.6-.6-1.1-.6-.6 0-1.1.3-1.3.8-.1.3-.2.6-.2 1v5.2h-2.3v-5.2c0-.5-.1-.9-.2-1.1-.2-.4-.6-.6-1.1-.6-.7 0-1.1.2-1.3.6-.1.2-.2.6-.2 1.1v5.2h-2.3V220h2.2v1.3c.3-.5.5-.8.8-1 .4-.3 1-.5 1.7-.5s1.2.1 1.6.4c.3.3.6.6.8 1 .3-.5.7-.9 1.1-1.1.5-.2 1-.4 1.6-.4.3.1.7.2 1.1.3zM195.5 225.9c0 .4.2.7.3.9.3.3.8.5 1.6.5.5 0 .8-.1 1.1-.2.3-.1.4-.3.4-.6s-.1-.5-.3-.6-1-.4-2.4-.7c-1-.2-1.7-.6-2.1-.9-.4-.4-.6-.9-.6-1.6 0-.8.3-1.5 1-2.1.6-.6 1.5-.9 2.7-.9 1.1 0 2 .2 2.7.7.7.4 1.1 1.2 1.2 2.3h-2.3c0-.3-.1-.5-.2-.7-.3-.3-.7-.5-1.3-.5-.5 0-.9.1-1.1.2s-.3.3-.3.5c0 .3.1.5.3.6s1 .3 2.4.6c.9.2 1.6.5 2 1 .4.4.7 1 .7 1.6 0 .9-.3 1.6-1 2.1-.6.5-1.6.8-3 .8s-2.4-.3-3-.9c-.7-.6-1-1.3-1-2.2l2.2.1zM205.1 220v5.3c0 .5.1.9.2 1.1.2.4.6.7 1.2.7.8 0 1.3-.3 1.6-.9.1-.3.2-.8.2-1.4v-4.7h2.3v8.7h-2.2v-1.2l-.2.2c-.1.1-.2.3-.3.4-.4.3-.7.5-1 .7-.3.1-.7.2-1.2.2-1.3 0-2.2-.5-2.6-1.4-.2-.5-.4-1.3-.4-2.3v-5.3h2.4v-.1zM220.3 221c.7.8 1 1.9 1 3.2 0 1.4-.3 2.5-1 3.4-.6.9-1.5 1.3-2.7 1.3-.7 0-1.3-.1-1.7-.4-.3-.2-.5-.5-.9-.9v1.1h-2.2v-11.8h2.3v4.2c.3-.4.6-.7 1-.9.4-.3.9-.4 1.6-.4 1 0 1.9.4 2.6 1.2zm-1.9 5.3c.3-.5.5-1.1.5-1.9 0-.6-.1-1.1-.2-1.5-.3-.8-.9-1.2-1.7-1.2s-1.4.4-1.7 1.1c-.2.4-.2.9-.2 1.6 0 .7.2 1.4.5 1.9s.8.7 1.5.7c.5.1 1-.2 1.3-.7zM233.7 220c.4.1.7.4 1 .8.2.3.4.7.5 1.1.1.3.1.7.1 1.3v5.5H233v-5.6c0-.3-.1-.6-.2-.8-.2-.4-.6-.6-1.1-.6-.6 0-1.1.3-1.3.8-.1.3-.2.6-.2 1v5.2h-2.3v-5.2c0-.5-.1-.9-.2-1.1-.2-.4-.6-.6-1.1-.6-.7 0-1.1.2-1.3.6-.1.2-.2.6-.2 1.1v5.2h-2.3V220h2.2v1.3c.3-.5.5-.8.8-1 .4-.3 1-.5 1.7-.5s1.2.1 1.6.4c.3.3.6.6.8 1 .3-.5.7-.9 1.1-1.1.5-.2 1-.4 1.6-.4.4.1.8.2 1.1.3zM239.8 218.9h-2.3v-2.1h2.3v2.1zm-2.3 1.1h2.3v8.7h-2.3V220zM243.7 225.9c0 .4.2.7.3.9.3.3.8.5 1.6.5.5 0 .8-.1 1.1-.2.3-.1.4-.3.4-.6s-.1-.5-.3-.6c-.2-.1-1-.4-2.4-.7-1-.2-1.7-.6-2.1-.9-.4-.4-.6-.9-.6-1.6 0-.8.3-1.5 1-2.1.6-.6 1.5-.9 2.7-.9 1.1 0 2 .2 2.7.7.7.4 1.1 1.2 1.2 2.3H247c0-.3-.1-.5-.2-.7-.3-.3-.7-.5-1.3-.5-.5 0-.9.1-1.1.2s-.3.3-.3.5c0 .3.1.5.3.6.2.1 1 .3 2.4.6.9.2 1.6.5 2 1 .4.4.7 1 .7 1.6 0 .9-.3 1.6-1 2.1-.6.5-1.6.8-3 .8s-2.4-.3-3-.9c-.7-.6-1-1.3-1-2.2l2.2.1zM252.9 225.9c0 .4.2.7.3.9.3.3.8.5 1.6.5.5 0 .8-.1 1.1-.2.3-.1.4-.3.4-.6s-.1-.5-.3-.6-1-.4-2.4-.7c-1-.2-1.7-.6-2.1-.9-.4-.4-.6-.9-.6-1.6 0-.8.3-1.5.9-2.1s1.5-.9 2.7-.9c1.1 0 2 .2 2.7.7.7.4 1.1 1.2 1.2 2.3h-2.3c0-.3-.1-.5-.2-.7-.3-.3-.7-.5-1.3-.5-.5 0-.9.1-1.1.2-.2.2-.3.3-.3.5 0 .3.1.5.3.6.2.1 1 .3 2.4.6.9.2 1.6.5 2 1 .4.4.7 1 .7 1.6 0 .9-.3 1.6-1 2.1-.6.5-1.6.8-3 .8s-2.4-.3-3-.9c-.7-.6-1-1.3-1-2.2l2.3.1zM262.5 218.9h-2.3v-2.1h2.3v2.1zm-2.3 1.1h2.3v8.7h-2.3V220zM272 227.6c-.7.9-1.9 1.4-3.4 1.4s-2.6-.5-3.4-1.4c-.7-.9-1.1-2-1.1-3.3s.4-2.3 1.1-3.3 1.9-1.4 3.4-1.4 2.6.5 3.4 1.4c.7.9 1.1 2 1.1 3.3 0 1.3-.3 2.4-1.1 3.3zm-1.8-1.2c.4-.5.5-1.1.5-2s-.2-1.5-.5-2-.9-.7-1.5-.7-1.2.2-1.5.7c-.4.5-.5 1.1-.5 2s.2 1.5.5 2c.4.5.9.7 1.5.7s1.1-.3 1.5-.7zM281.8 220.5c.6.5.9 1.3.9 2.3v5.9h-2.3v-5.3c0-.5-.1-.8-.2-1.1-.2-.4-.6-.7-1.3-.7-.8 0-1.3.3-1.6 1-.1.3-.2.8-.2 1.3v4.7h-2.3v-8.7h2.2v1.3c.3-.4.6-.8.8-1 .5-.4 1.1-.5 1.8-.5.9.1 1.6.3 2.2.8z"/></g><g><path class="st20" d="M413.3 222.2c.6 1 .9 2.5.9 4.4 0 1.9-.3 3.4-.9 4.4s-1.6 1.6-3.1 1.6-2.5-.5-3.1-1.6c-.6-1-.9-2.5-.9-4.4s.3-3.4.9-4.4 1.6-1.6 3.1-1.6c1.4.1 2.5.6 3.1 1.6zm-4.5 7.5c.2.7.7 1.1 1.3 1.1.7 0 1.1-.4 1.3-1.1s.3-1.7.3-3.1-.1-2.4-.3-3.1-.7-1-1.3-1c-.7 0-1.1.3-1.3 1s-.3 1.7-.3 3.1c0 1.4.1 2.4.3 3.1zM417.4 228.8c0 .5.1.8.2 1.2.3.6.8.8 1.5.8.4 0 .8-.2 1.2-.5.3-.3.5-.7.5-1.3 0-.8-.3-1.3-.9-1.5-.4-.1-.9-.2-1.7-.2v-1.6c.7 0 1.3-.1 1.5-.2.5-.2.8-.7.8-1.4 0-.4-.1-.8-.4-1.1s-.6-.4-1.1-.4-.9.2-1.2.5c-.3.3-.4.8-.4 1.4h-2c0-.6.1-1.1.3-1.6.2-.5.5-.9.9-1.3.3-.3.7-.5 1.1-.6s.9-.2 1.5-.2c1.1 0 2 .3 2.7.9.7.6 1 1.3 1 2.3 0 .7-.2 1.3-.6 1.7-.3.3-.5.5-.8.6.2 0 .5.2.9.5.6.5.9 1.3.9 2.2 0 1-.3 1.8-1 2.6-.7.7-1.7 1.1-3 1.1-1.6 0-2.8-.5-3.4-1.6-.3-.6-.5-1.3-.6-2.2h2.1v-.1zM424.9 230h2.4v2.4h-2.4V230zM437 220.6h2.8l4.2 11.8h-2.7l-.8-2.4h-4.3l-.8 2.4h-2.6l4.2-11.8zm-.2 7.3h3l-1.5-4.6-1.5 4.6zM449.9 223.8c.4.2.7.6 1 1v-4.2h2.3v11.8H451v-1.2c-.3.5-.7.9-1.1 1.1s-.9.4-1.6.4c-1 0-1.9-.4-2.6-1.2-.7-.8-1-1.9-1-3.2 0-1.5.3-2.7 1-3.5.7-.9 1.6-1.3 2.7-1.3.6-.1 1.1 0 1.5.3zm.6 6.2c.3-.5.5-1.1.5-1.9 0-1.1-.3-1.8-.8-2.3-.3-.3-.7-.4-1.2-.4-.7 0-1.2.3-1.5.8s-.5 1.1-.5 1.9.2 1.4.5 1.9.8.7 1.4.7c.7 0 1.2-.2 1.6-.7zM459.9 223.8c.4.2.7.6 1 1v-4.2h2.3v11.8H461v-1.2c-.3.5-.7.9-1.1 1.1s-.9.4-1.6.4c-1 0-1.9-.4-2.6-1.2-.7-.8-1-1.9-1-3.2 0-1.5.3-2.7 1-3.5.7-.9 1.6-1.3 2.7-1.3.6-.1 1.1 0 1.5.3zm.6 6.2c.3-.5.5-1.1.5-1.9 0-1.1-.3-1.8-.8-2.3-.3-.3-.7-.4-1.2-.4-.7 0-1.2.3-1.5.8s-.5 1.1-.5 1.9.2 1.4.5 1.9.8.7 1.4.7 1.2-.2 1.6-.7zM473.3 227.1c.4-.1.7-.1.9-.2.3-.1.5-.4.5-.6 0-.4-.1-.6-.4-.7-.3-.1-.6-.2-1.1-.2s-.9.1-1.2.4c-.2.2-.3.5-.3.8h-2.2c0-.8.3-1.4.6-1.9.6-.8 1.6-1.2 3.1-1.2 1 0 1.8.2 2.6.6.7.4 1.1 1.1 1.1 2.1v5c0 .3.1.5.1.6l.3.3v.3h-2.5c-.1-.2-.1-.3-.1-.5s0-.3-.1-.5c-.3.3-.7.6-1.1.9-.5.3-1.1.4-1.7.4-.8 0-1.5-.2-2-.7s-.8-1.1-.8-1.9c0-1.1.4-1.8 1.2-2.3.5-.3 1.1-.4 2-.6l1.1-.1zm1.4 1c-.1.1-.3.2-.4.2-.1.1-.4.1-.6.2l-.5.1c-.5.1-.8.2-1 .3-.4.2-.5.5-.5 1 0 .4.1.7.3.8.2.2.5.3.8.3.5 0 1-.1 1.4-.4s.6-.8.7-1.6v-.9h-.2zM490.5 224.1c.6.5.9 1.3.9 2.3v5.9h-2.3V227c0-.5-.1-.8-.2-1.1-.2-.4-.6-.7-1.3-.7-.8 0-1.3.3-1.6 1-.1.3-.2.8-.2 1.3v4.7h-2.3v-8.7h2.2v1.3c.3-.4.6-.8.8-1 .5-.4 1.1-.5 1.8-.5.9.1 1.7.4 2.2.8zM499.2 223.8c.6.3 1.1.7 1.5 1.3.4.5.6 1.1.7 1.8.1.4.1 1 .1 1.7h-6.4c0 .9.3 1.5.9 1.8.3.2.8.3 1.3.3s.9-.1 1.3-.4c.2-.1.3-.3.5-.6h2.3c-.1.5-.3 1-.8 1.6-.8.8-1.9 1.3-3.3 1.3-1.2 0-2.2-.4-3.1-1.1-.9-.7-1.3-1.9-1.3-3.5 0-1.5.4-2.7 1.2-3.5s1.8-1.2 3.1-1.2c.7.1 1.4.2 2 .5zm-3.4 2c-.3.3-.5.8-.6 1.3h3.9c0-.6-.2-1.1-.6-1.4-.4-.3-.8-.5-1.4-.5-.5.1-1 .3-1.3.6zM506.7 223.6h2.3l1.3 6.3 1.4-6.3h2.4l-2.5 8.7h-2.3l-1.4-6.4-1.4 6.4h-2.4l-2.4-8.7h2.4l1.4 6.3 1.2-6.3zM523.4 227.1c.4-.1.7-.1.9-.2.3-.1.5-.4.5-.6 0-.4-.1-.6-.4-.7-.3-.1-.6-.2-1.1-.2s-.9.1-1.2.4c-.2.2-.3.5-.3.8h-2.2c0-.8.3-1.4.6-1.9.6-.8 1.6-1.2 3.1-1.2 1 0 1.8.2 2.6.6.7.4 1.1 1.1 1.1 2.1v5c0 .3.1.5.1.6l.3.3v.3h-2.5c-.1-.2-.1-.3-.1-.5s0-.3-.1-.5c-.3.3-.7.6-1.1.9-.5.3-1.1.4-1.7.4-.8 0-1.5-.2-2-.7s-.8-1.1-.8-1.9c0-1.1.4-1.8 1.2-2.3.5-.3 1.1-.4 2-.6l1.1-.1zm1.4 1c-.1.1-.3.2-.4.2-.1.1-.4.1-.6.2l-.5.1c-.5.1-.8.2-1 .3-.4.2-.5.5-.5 1 0 .4.1.7.3.8.2.2.5.3.8.3.5 0 1-.1 1.4-.4s.6-.8.7-1.6v-.9h-.2zM536.4 224.6c.7.8 1.1 1.9 1.1 3.3 0 1.5-.3 2.7-1 3.5s-1.6 1.2-2.7 1.2c-.7 0-1.3-.2-1.7-.5-.3-.2-.5-.5-.7-.8v4.5h-2.3v-12.2h2.2v1.3c.2-.4.5-.7.8-.9.5-.4 1.1-.6 1.8-.6.9 0 1.7.4 2.5 1.2zm-1.8 1.6c-.3-.5-.8-.8-1.5-.8-.8 0-1.4.4-1.7 1.2-.2.4-.2.9-.2 1.6 0 1 .3 1.7.8 2.1.3.2.7.4 1.1.4.6 0 1.1-.2 1.5-.7s.5-1.1.5-2c0-.7-.2-1.3-.5-1.8zM546.4 224.6c.7.8 1.1 1.9 1.1 3.3 0 1.5-.3 2.7-1 3.5s-1.6 1.2-2.7 1.2c-.7 0-1.3-.2-1.7-.5-.3-.2-.5-.5-.7-.8v4.5h-2.3v-12.2h2.2v1.3c.2-.4.5-.7.8-.9.5-.4 1.1-.6 1.8-.6.9 0 1.8.4 2.5 1.2zm-1.8 1.6c-.3-.5-.8-.8-1.5-.8-.8 0-1.4.4-1.7 1.2-.2.4-.2.9-.2 1.6 0 1 .3 1.7.8 2.1.3.2.7.4 1.1.4.6 0 1.1-.2 1.5-.7s.5-1.1.5-2c0-.7-.2-1.3-.5-1.8zM552.7 225.3v-1.6h1.2v-2.4h2.3v2.4h1.4v1.6h-1.4v4.6c0 .4 0 .6.1.7s.4.1.8.1h.4v1.7h-1.1c-1.1 0-1.8-.1-2.2-.6-.3-.3-.4-.7-.4-1.2v-5.4l-1.1.1zM566.3 231.3c-.7.9-1.9 1.4-3.4 1.4s-2.6-.5-3.4-1.4c-.7-.9-1.1-2-1.1-3.3 0-1.3.4-2.3 1.1-3.3.7-.9 1.9-1.4 3.4-1.4s2.6.5 3.4 1.4 1.1 2 1.1 3.3c0 1.3-.3 2.4-1.1 3.3zm-1.8-1.3c.4-.5.5-1.1.5-2s-.2-1.5-.5-2-.9-.7-1.5-.7c-.7 0-1.2.2-1.5.7-.4.5-.5 1.1-.5 2s.2 1.5.5 2c.4.5.9.7 1.5.7s1.1-.2 1.5-.7zM573.9 234H574.8c.2 0 .4-.1.5-.2s.3-.3.4-.6c.1-.3.2-.5.1-.5l-3.2-9.1h2.5l1.9 6.4 1.8-6.4h2.4l-3 8.6c-.6 1.7-1 2.7-1.4 3.1-.3.4-1 .6-2 .6h-1.1V234h.2zM590 231.3c-.7.9-1.9 1.4-3.4 1.4s-2.6-.5-3.4-1.4c-.7-.9-1.1-2-1.1-3.3 0-1.3.4-2.3 1.1-3.3.7-.9 1.9-1.4 3.4-1.4s2.6.5 3.4 1.4 1.1 2 1.1 3.3c0 1.3-.4 2.4-1.1 3.3zm-1.8-1.3c.4-.5.5-1.1.5-2s-.2-1.5-.5-2-.9-.7-1.5-.7c-.7 0-1.2.2-1.5.7-.4.5-.5 1.1-.5 2s.2 1.5.5 2c.4.5.9.7 1.5.7s1.1-.2 1.5-.7zM595 223.6v5.3c0 .5.1.9.2 1.1.2.4.6.7 1.2.7.8 0 1.3-.3 1.6-.9.1-.3.2-.8.2-1.4v-4.7h2.3v8.7h-2.2v-1.2l-.2.2c-.1.1-.2.3-.3.4-.4.3-.7.5-1 .7-.3.1-.7.2-1.2.2-1.3 0-2.2-.5-2.6-1.4-.2-.5-.4-1.3-.4-2.3v-5.3h2.4v-.1zM607.6 223.4h.2v2.3h-.7c-.9 0-1.5.3-1.8.9-.2.3-.3.9-.3 1.6v4.2h-2.3v-8.7h2.2v1.5c.4-.6.7-1 .9-1.2.4-.4 1-.5 1.7-.5 0-.1 0-.1.1-.1zM613.2 225.5v-1.9h6.9v1.9l-4.3 5h4.4v1.9h-7.4v-1.8l4.3-5.1h-3.9zM625.3 227.1c.4-.1.7-.1.9-.2.3-.1.5-.4.5-.6 0-.4-.1-.6-.4-.7-.3-.1-.6-.2-1.1-.2s-.9.1-1.2.4c-.2.2-.3.5-.3.8h-2.2c0-.8.3-1.4.6-1.9.6-.8 1.6-1.2 3.1-1.2 1 0 1.8.2 2.6.6.7.4 1.1 1.1 1.1 2.1v5c0 .3.1.5.1.6l.3.3v.3h-2.5c-.1-.2-.1-.3-.1-.5s0-.3-.1-.5c-.3.3-.7.6-1.1.9-.5.3-1.1.4-1.7.4-.8 0-1.5-.2-2-.7s-.8-1.1-.8-1.9c0-1.1.4-1.8 1.2-2.3.5-.3 1.1-.4 2-.6l1.1-.1zm1.4 1c-.1.1-.3.2-.4.2-.1.1-.4.1-.6.2l-.5.1c-.5.1-.8.2-1 .3-.4.2-.5.5-.5 1 0 .4.1.7.3.8.2.2.5.3.8.3.5 0 1-.1 1.4-.4s.6-.8.7-1.6v-.9h-.2zM638.3 224.6c.7.8 1.1 1.9 1.1 3.3 0 1.5-.3 2.7-1 3.5s-1.6 1.2-2.7 1.2c-.7 0-1.3-.2-1.7-.5-.3-.2-.5-.5-.7-.8v4.5H631v-12.2h2.2v1.3c.2-.4.5-.7.8-.9.5-.4 1.1-.6 1.8-.6.9 0 1.8.4 2.5 1.2zm-1.8 1.6c-.3-.5-.8-.8-1.5-.8-.8 0-1.4.4-1.7 1.2-.2.4-.2.9-.2 1.6 0 1 .3 1.7.8 2.1.3.2.7.4 1.1.4.6 0 1.1-.2 1.5-.7s.5-1.1.5-2c0-.7-.1-1.3-.5-1.8z"/></g><g><path class="st20" d="M208.4 366.2c.6 1 .9 2.5.9 4.4s-.3 3.4-.9 4.4c-.6 1-1.6 1.6-3.1 1.6s-2.5-.5-3.1-1.6c-.6-1-.9-2.5-.9-4.4s.3-3.4.9-4.4c.6-1 1.6-1.6 3.1-1.6s2.5.6 3.1 1.6zm-4.5 7.5c.2.7.7 1.1 1.3 1.1s1.1-.4 1.3-1.1.3-1.7.3-3.1-.1-2.4-.3-3.1-.7-1-1.3-1-1.1.3-1.3 1-.3 1.7-.3 3.1c0 1.4.1 2.4.3 3.1zM218.4 373.8h-1.3v2.5h-2.2v-2.5h-4.6v-2l4.3-7h2.6v7.2h1.3v1.8h-.1zm-3.5-1.8v-5l-2.9 5h2.9zM220 373.9h2.4v2.4H220v-2.4zM231.1 372.7c.1.5.2.9.4 1.2.4.5 1.1.7 2.1.7.6 0 1.1-.1 1.4-.2.7-.2 1.1-.7 1.1-1.4 0-.4-.2-.7-.5-.9-.3-.2-.9-.4-1.6-.6l-1.3-.3c-1.3-.3-2.1-.6-2.6-.9-.8-.5-1.2-1.4-1.2-2.6 0-1.1.4-1.9 1.2-2.6s1.9-1 3.4-1c1.3 0 2.3.3 3.2 1 .9.7 1.4 1.6 1.4 2.9h-2.4c0-.7-.4-1.2-1-1.5-.4-.2-.9-.3-1.5-.3-.7 0-1.2.1-1.6.4s-.6.6-.6 1.1c0 .4.2.7.6.9.2.1.8.3 1.6.5l2.1.5c.9.2 1.6.5 2 .9.7.6 1.1 1.4 1.1 2.4 0 1.1-.4 2-1.2 2.7-.8.7-2 1.1-3.5 1.1-1.6 0-2.8-.4-3.7-1.1-.9-.7-1.3-1.7-1.3-2.9h2.4zM247.4 368.5c.7.8 1.1 1.9 1.1 3.3 0 1.5-.3 2.7-1 3.5s-1.6 1.2-2.7 1.2c-.7 0-1.3-.2-1.7-.5-.3-.2-.5-.5-.7-.8v4.5h-2.3v-12.2h2.2v1.3c.2-.4.5-.7.8-.9.5-.4 1.1-.6 1.8-.6.9.1 1.8.5 2.5 1.2zm-1.7 1.7c-.3-.5-.8-.8-1.5-.8-.8 0-1.4.4-1.7 1.2-.2.4-.2.9-.2 1.6 0 1 .3 1.7.8 2.1.3.2.7.4 1.1.4.6 0 1.1-.2 1.5-.7.3-.5.5-1.1.5-2-.1-.7-.2-1.3-.5-1.8zM252.4 376.3h-2.3v-11.8h2.3v11.8zM257 366.6h-2.3v-2.1h2.3v2.1zm-2.3 1h2.3v8.7h-2.3v-8.7zM258.3 369.3v-1.6h1.2v-2.4h2.3v2.4h1.4v1.6h-1.4v4.6c0 .4 0 .6.1.7s.4.1.8.1h.4v1.7H262c-1.1 0-1.8-.1-2.2-.6-.3-.3-.4-.7-.4-1.2v-5.4l-1.1.1zM271.5 366.6h-2.3v-2.1h2.3v2.1zm-2.3 1h2.3v8.7h-2.3v-8.7zM280.8 368.1c.6.5.9 1.3.9 2.3v5.9h-2.3V371c0-.5-.1-.8-.2-1.1-.2-.4-.6-.7-1.3-.7-.8 0-1.3.3-1.6 1-.1.3-.2.8-.2 1.3v4.7h-2.3v-8.7h2.2v1.3c.3-.4.6-.8.8-1 .5-.4 1.1-.5 1.8-.5.9.1 1.6.3 2.2.8zM282.9 369.3v-1.6h1.2v-2.4h2.3v2.4h1.4v1.6h-1.4v4.6c0 .4 0 .6.1.7s.4.1.8.1h.4v1.7h-1.1c-1.1 0-1.8-.1-2.2-.6-.3-.3-.4-.7-.4-1.2v-5.4l-1.1.1zM296.5 375.3c-.7.9-1.9 1.4-3.4 1.4s-2.6-.5-3.4-1.4c-.7-.9-1.1-2-1.1-3.3s.4-2.3 1.1-3.3c.7-.9 1.9-1.4 3.4-1.4s2.6.5 3.4 1.4 1.1 2 1.1 3.3c0 1.2-.4 2.3-1.1 3.3zm-1.8-1.3c.4-.5.5-1.1.5-2s-.2-1.5-.5-2-.9-.7-1.5-.7c-.7 0-1.2.2-1.5.7s-.5 1.1-.5 2 .2 1.5.5 2c.4.5.9.7 1.5.7s1.1-.2 1.5-.7zM311.1 368.5c.7.8 1.1 1.9 1.1 3.3 0 1.5-.3 2.7-1 3.5s-1.6 1.2-2.7 1.2c-.7 0-1.3-.2-1.7-.5-.3-.2-.5-.5-.7-.8v4.5h-2.3v-12.2h2.2v1.3c.2-.4.5-.7.8-.9.5-.4 1.1-.6 1.8-.6.9.1 1.8.5 2.5 1.2zm-1.7 1.7c-.3-.5-.8-.8-1.5-.8-.8 0-1.4.4-1.7 1.2-.2.4-.2.9-.2 1.6 0 1 .3 1.7.8 2.1.3.2.7.4 1.1.4.6 0 1.1-.2 1.5-.7.3-.5.5-1.1.5-2-.1-.7-.2-1.3-.5-1.8zM317.2 371c.4-.1.7-.1.9-.2.3-.1.5-.4.5-.6 0-.4-.1-.6-.4-.7s-.6-.2-1.1-.2-.9.1-1.2.4c-.2.2-.3.5-.3.8h-2.2c0-.8.3-1.4.6-1.9.6-.8 1.6-1.2 3.1-1.2 1 0 1.8.2 2.6.6.7.4 1.1 1.1 1.1 2.1v5c0 .3.1.5.1.6l.3.3v.3h-2.5c-.1-.2-.1-.3-.1-.5s0-.3-.1-.5c-.3.3-.7.6-1.1.9-.5.3-1.1.4-1.7.4-.8 0-1.4-.2-2-.7-.5-.5-.8-1.1-.8-1.9 0-1.1.4-1.8 1.2-2.3.5-.3 1.1-.4 2-.6l1.1-.1zm1.4 1.1c-.1.1-.3.2-.4.2-.1.1-.4.1-.6.2l-.5.1c-.5.1-.8.2-1 .3-.4.2-.5.5-.5 1 0 .4.1.7.3.8.2.2.5.3.8.3.5 0 1-.1 1.4-.4s.6-.8.7-1.6v-.9h-.2zM322 369.3v-1.6h1.2v-2.4h2.3v2.4h1.4v1.6h-1.4v4.6c0 .4 0 .6.1.7s.4.1.8.1h.4v1.7h-1.1c-1.1 0-1.8-.1-2.2-.6-.3-.3-.4-.7-.4-1.2v-5.4l-1.1.1zM334.6 367.6c.4.2.8.5 1.1.9.2.3.4.7.4 1 .1.3.1.9.1 1.7v5.1h-2.3V371c0-.5-.1-.8-.2-1.1-.2-.4-.6-.6-1.2-.6s-1.1.2-1.4.6-.5 1-.5 1.7v4.7h-2.2v-11.8h2.3v4.2c.3-.5.7-.9 1.1-1.1s.9-.3 1.4-.3c.5.1 1 .2 1.4.3zM340.1 373.5c0 .4.2.7.3.9.3.3.8.5 1.6.5.5 0 .8-.1 1.1-.2s.4-.3.4-.6-.1-.5-.3-.6c-.2-.1-1-.4-2.4-.7-1-.2-1.7-.6-2.1-.9-.4-.4-.6-.9-.6-1.6 0-.8.3-1.5 1-2.1.6-.6 1.5-.9 2.7-.9 1.1 0 2 .2 2.7.7.7.4 1.1 1.2 1.2 2.3h-2.3c0-.3-.1-.5-.2-.7-.3-.3-.7-.5-1.3-.5-.5 0-.9.1-1.1.2s-.3.3-.3.5c0 .3.1.5.3.6.2.1 1 .3 2.4.6.9.2 1.6.5 2 1 .4.4.7 1 .7 1.6 0 .9-.3 1.6-1 2.1-.6.5-1.6.8-3 .8s-2.4-.3-3-.9-1-1.3-1-2.2h2.2v.1z"/></g><g><path class="st20" d="M79.2 513.4c.6 1 .9 2.5.9 4.4s-.3 3.4-.9 4.4-1.6 1.6-3.1 1.6-2.5-.5-3.1-1.6c-.6-1-.9-2.5-.9-4.4s.3-3.4.9-4.4 1.6-1.6 3.1-1.6c1.4 0 2.5.5 3.1 1.6zm-4.5 7.5c.2.7.7 1.1 1.3 1.1.7 0 1.1-.4 1.3-1.1s.3-1.7.3-3.1c0-1.4-.1-2.4-.3-3.1s-.7-1-1.3-1c-.7 0-1.1.3-1.3 1s-.3 1.7-.3 3.1c0 1.3.1 2.4.3 3.1zM83.4 520.4c.1.5.3.9.5 1.1.3.3.6.4 1.1.4.6 0 1-.2 1.3-.6.3-.4.4-.9.4-1.5s-.1-1.1-.4-1.5-.7-.6-1.3-.6c-.3 0-.5 0-.7.1-.4.1-.6.4-.8.7l-2-.1.8-6.4h6.4v1.9H84l-.4 2.5c.4-.2.6-.4.8-.5.3-.1.7-.2 1.2-.2 1 0 1.8.3 2.5 1 .7.6 1.1 1.6 1.1 2.8 0 1.1-.3 2-1 2.9-.7.8-1.7 1.3-3.1 1.3-1.1 0-2-.3-2.7-.9-.7-.6-1.1-1.4-1.2-2.5l2.2.1zM90.8 521.1h2.4v2.4h-2.4v-2.4zM102.9 511.7h2.8l4.2 11.8h-2.7l-.8-2.4h-4.3l-.8 2.4h-2.6l4.2-11.8zm-.2 7.3h3l-1.5-4.6-1.5 4.6zM115.8 514.9c.4.2.7.6 1 1v-4.2h2.3v11.8h-2.2v-1.2c-.3.5-.7.9-1.1 1.1-.4.2-.9.4-1.6.4-1 0-1.9-.4-2.6-1.2-.7-.8-1-1.9-1-3.2 0-1.5.3-2.7 1-3.5.7-.9 1.6-1.3 2.7-1.3.6 0 1.1.1 1.5.3zm.6 6.2c.3-.5.5-1.1.5-1.9 0-1.1-.3-1.8-.8-2.3-.3-.3-.7-.4-1.2-.4-.7 0-1.2.3-1.5.8s-.5 1.1-.5 1.9c0 .8.2 1.4.5 1.9s.8.7 1.4.7c.7 0 1.2-.2 1.6-.7zM125.8 514.9c.4.2.7.6 1 1v-4.2h2.3v11.8h-2.2v-1.2c-.3.5-.7.9-1.1 1.1-.4.2-.9.4-1.6.4-1 0-1.9-.4-2.6-1.2-.7-.8-1-1.9-1-3.2 0-1.5.3-2.7 1-3.5.7-.9 1.6-1.3 2.7-1.3.6 0 1.1.1 1.5.3zm.6 6.2c.3-.5.5-1.1.5-1.9 0-1.1-.3-1.8-.8-2.3-.3-.3-.7-.4-1.2-.4-.7 0-1.2.3-1.5.8s-.5 1.1-.5 1.9c0 .8.2 1.4.5 1.9s.8.7 1.4.7 1.2-.2 1.6-.7zM139.2 518.2c.4-.1.7-.1.9-.2.3-.1.5-.4.5-.6 0-.4-.1-.6-.4-.7-.3-.1-.6-.2-1.1-.2s-.9.1-1.2.4c-.2.2-.3.5-.3.8h-2.2c0-.8.3-1.4.6-1.9.6-.8 1.6-1.2 3.1-1.2 1 0 1.8.2 2.6.6.7.4 1.1 1.1 1.1 2.1v5c0 .3.1.5.1.6l.3.3v.3h-2.5c-.1-.2-.1-.3-.1-.5s0-.3-.1-.5c-.3.3-.7.6-1.1.9-.5.3-1.1.4-1.7.4-.8 0-1.5-.2-2-.7s-.8-1.1-.8-1.9c0-1.1.4-1.8 1.2-2.3.5-.3 1.1-.4 2-.6l1.1-.1zm1.4 1.1c-.1.1-.3.2-.4.2-.1.1-.4.1-.6.2l-.5.1c-.5.1-.8.2-1 .3-.4.2-.5.5-.5 1 0 .4.1.7.3.8.2.2.5.3.8.3.5 0 1-.1 1.4-.4s.6-.8.7-1.6v-.9h-.2zM156.4 515.3c.6.5.9 1.3.9 2.3v5.9H155v-5.3c0-.5-.1-.8-.2-1.1-.2-.4-.6-.7-1.3-.7-.8 0-1.3.3-1.6 1-.1.3-.2.8-.2 1.3v4.7h-2.3v-8.7h2.2v1.3c.3-.4.6-.8.8-1 .5-.4 1.1-.5 1.8-.5.9.1 1.7.3 2.2.8zM165.1 515c.6.3 1.1.7 1.5 1.3.4.5.6 1.1.7 1.8.1.4.1 1 .1 1.7H161c0 .9.3 1.5.9 1.8.3.2.8.3 1.3.3s.9-.1 1.3-.4c.2-.1.3-.3.5-.6h2.3c-.1.5-.3 1-.8 1.6-.8.8-1.9 1.3-3.3 1.3-1.2 0-2.2-.4-3.1-1.1-.9-.7-1.3-1.9-1.3-3.5 0-1.5.4-2.7 1.2-3.5s1.8-1.2 3.1-1.2c.7 0 1.4.2 2 .5zm-3.4 1.9c-.3.3-.5.8-.6 1.3h3.9c0-.6-.2-1.1-.6-1.4-.4-.3-.8-.5-1.4-.5-.5.1-1 .3-1.3.6zM172.6 514.8h2.3l1.3 6.3 1.4-6.3h2.4l-2.5 8.7h-2.3l-1.4-6.4-1.4 6.4H170l-2.4-8.7h2.4l1.4 6.3 1.2-6.3zM191 517.9c0-.3-.2-.6-.3-.9-.3-.4-.7-.5-1.2-.5-.8 0-1.3.4-1.6 1.1-.1.4-.2.9-.2 1.6 0 .6.1 1.2.2 1.5.3.7.8 1.1 1.5 1.1.5 0 .9-.1 1.1-.4s.4-.7.4-1.1h2.3c-.1.7-.3 1.3-.8 2-.7 1-1.8 1.5-3.2 1.5s-2.4-.4-3.1-1.2c-.7-.8-1-1.9-1-3.2 0-1.5.4-2.7 1.1-3.5s1.7-1.2 3-1.2c1.1 0 2 .2 2.7.7s1.1 1.4 1.2 2.6l-2.1-.1zM202.2 522.4c-.7.9-1.9 1.4-3.4 1.4s-2.6-.5-3.4-1.4c-.7-.9-1.1-2-1.1-3.3s.4-2.3 1.1-3.3c.7-.9 1.9-1.4 3.4-1.4s2.6.5 3.4 1.4c.7.9 1.1 2 1.1 3.3 0 1.3-.4 2.4-1.1 3.3zm-1.8-1.2c.4-.5.5-1.1.5-2s-.2-1.5-.5-2-.9-.7-1.5-.7-1.2.2-1.5.7-.5 1.1-.5 2 .2 1.5.5 2c.4.5.9.7 1.5.7s1.1-.3 1.5-.7zM212 515.3c.6.5.9 1.3.9 2.3v5.9h-2.3v-5.3c0-.5-.1-.8-.2-1.1-.2-.4-.6-.7-1.3-.7-.8 0-1.3.3-1.6 1-.1.3-.2.8-.2 1.3v4.7H205v-8.7h2.2v1.3c.3-.4.6-.8.8-1 .5-.4 1.1-.5 1.8-.5.9.1 1.6.3 2.2.8zM214 516.5v-1.6h1.2v-2.5h2.3v2.4h1.4v1.6h-1.4v4.6c0 .4 0 .6.1.7.1.1.4.1.8.1h.4v1.7h-1.1c-1.1 0-1.8-.1-2.2-.6-.3-.3-.4-.7-.4-1.2v-5.4H214v.2zM223.9 518.2c.4-.1.7-.1.9-.2.3-.1.5-.4.5-.6 0-.4-.1-.6-.4-.7-.3-.1-.6-.2-1.1-.2s-.9.1-1.2.4c-.2.2-.3.5-.3.8h-2.2c0-.8.3-1.4.6-1.9.6-.8 1.6-1.2 3.1-1.2 1 0 1.8.2 2.6.6.7.4 1.1 1.1 1.1 2.1v5c0 .3.1.5.1.6l.3.3v.3h-2.5c-.1-.2-.1-.3-.1-.5s0-.3-.1-.5c-.3.3-.7.6-1.1.9-.5.3-1.1.4-1.7.4-.8 0-1.4-.2-2-.7-.5-.5-.8-1.1-.8-1.9 0-1.1.4-1.8 1.2-2.3.5-.3 1.1-.4 2-.6l1.1-.1zm1.3 1.1c-.1.1-.3.2-.4.2-.1.1-.4.1-.6.2l-.5.1c-.5.1-.8.2-1 .3-.4.2-.5.5-.5 1 0 .4.1.7.3.8s.5.3.8.3c.5 0 1-.1 1.4-.4s.6-.8.7-1.6v-.9h-.2zM234.7 517.9c0-.3-.2-.6-.3-.9-.3-.4-.7-.5-1.2-.5-.8 0-1.3.4-1.6 1.1-.1.4-.2.9-.2 1.6 0 .6.1 1.2.2 1.5.3.7.8 1.1 1.5 1.1.5 0 .9-.1 1.1-.4.2-.3.4-.7.4-1.1h2.3c-.1.7-.3 1.3-.8 2-.7 1-1.8 1.5-3.2 1.5s-2.4-.4-3.1-1.2-1-1.9-1-3.2c0-1.5.4-2.7 1.1-3.5s1.7-1.2 3-1.2c1.1 0 2 .2 2.7.7s1.1 1.4 1.2 2.6l-2.1-.1zM237.7 516.5v-1.6h1.2v-2.5h2.3v2.4h1.4v1.6h-1.4v4.6c0 .4 0 .6.1.7.1.1.4.1.8.1h.4v1.7h-1.1c-1.1 0-1.8-.1-2.2-.6-.3-.3-.4-.7-.4-1.2v-5.4h-1.1v.2z"/></g><g><path class="st20" d="M407.7 513.6c.6 1 .9 2.5.9 4.4s-.3 3.4-.9 4.4-1.6 1.6-3.1 1.6-2.5-.5-3.1-1.6c-.6-1-.9-2.5-.9-4.4s.3-3.4.9-4.4 1.6-1.6 3.1-1.6c1.4 0 2.5.5 3.1 1.6zm-4.5 7.4c.2.7.7 1.1 1.3 1.1.7 0 1.1-.4 1.3-1.1.2-.7.3-1.7.3-3.1 0-1.4-.1-2.4-.3-3.1-.2-.7-.7-1-1.3-1-.7 0-1.1.3-1.3 1s-.3 1.7-.3 3.1c0 1.4.1 2.4.3 3.1zM415.2 515c0-.2-.1-.4-.2-.6-.2-.4-.6-.5-1.1-.5-.7 0-1.3.4-1.6 1.2-.2.5-.3 1.1-.4 2 .3-.3.6-.6 1-.7.4-.2.8-.2 1.3-.2 1 0 1.9.3 2.5 1 .7.7 1 1.6 1 2.7s-.3 2-1 2.9c-.6.8-1.6 1.2-3 1.2-1.5 0-2.5-.6-3.2-1.8-.5-1-.8-2.2-.8-3.7 0-.9 0-1.6.1-2.2.1-1 .4-1.8.8-2.5.3-.6.8-1 1.3-1.4.5-.4 1.2-.5 1.9-.5 1.1 0 1.9.3 2.6.8.6.6 1 1.3 1.1 2.2l-2.3.1zm-2.7 6.5c.3.4.8.6 1.3.6s.9-.2 1.2-.6c.3-.4.4-.9.4-1.5 0-.7-.2-1.2-.5-1.6-.3-.4-.7-.5-1.2-.5-.4 0-.7.1-1 .4-.4.3-.7.9-.7 1.7-.1.6.1 1.1.5 1.5zM419.3 521.3h2.4v2.4h-2.4v-2.4zM430.4 520c.1.5.2.9.4 1.2.4.5 1.1.7 2.1.7.6 0 1.1-.1 1.4-.2.7-.2 1.1-.7 1.1-1.4 0-.4-.2-.7-.5-.9s-.9-.4-1.6-.6l-1.3-.3c-1.3-.3-2.1-.6-2.6-.9-.8-.5-1.2-1.4-1.2-2.6 0-1.1.4-1.9 1.2-2.6.8-.7 1.9-1 3.4-1 1.3 0 2.3.3 3.2 1 .9.7 1.4 1.6 1.4 2.9H435c0-.7-.4-1.2-1-1.5-.4-.2-.9-.3-1.5-.3-.7 0-1.2.1-1.6.4-.4.3-.6.6-.6 1.1 0 .4.2.7.6.9.2.1.8.3 1.6.5l2.1.5c.9.2 1.6.5 2 .9.7.6 1.1 1.4 1.1 2.4 0 1.1-.4 2-1.2 2.7-.8.7-2 1.1-3.5 1.1-1.6 0-2.8-.4-3.7-1.1-.9-.7-1.3-1.7-1.3-2.9h2.4zM445 515.1c.6.3 1.1.7 1.5 1.3.4.5.6 1.1.7 1.8.1.4.1 1 .1 1.7h-6.4c0 .9.3 1.5.9 1.8.3.2.8.3 1.3.3s.9-.1 1.3-.4c.2-.1.3-.3.5-.6h2.3c-.1.5-.3 1-.8 1.6-.8.8-1.9 1.3-3.3 1.3-1.2 0-2.2-.4-3.1-1.1-.9-.7-1.3-1.9-1.3-3.5 0-1.5.4-2.7 1.2-3.5.8-.8 1.8-1.2 3.1-1.2.7.1 1.4.3 2 .5zm-3.4 2c-.3.3-.5.8-.6 1.3h3.9c0-.6-.2-1.1-.6-1.4s-.8-.5-1.4-.5c-.5.1-1 .3-1.3.6zM455.5 515.5c.6.5.9 1.3.9 2.3v5.9h-2.3v-5.3c0-.5-.1-.8-.2-1.1-.2-.4-.6-.7-1.3-.7-.8 0-1.3.3-1.6 1-.1.3-.2.8-.2 1.3v4.7h-2.3v-8.7h2.2v1.3c.3-.4.6-.8.8-1 .5-.4 1.1-.5 1.8-.5.9 0 1.6.3 2.2.8zM463.1 515.1c.4.2.7.6 1 1v-4.2h2.3v11.8h-2.2v-1.2c-.3.5-.7.9-1.1 1.1-.4.2-.9.4-1.6.4-1 0-1.9-.4-2.6-1.2s-1-1.9-1-3.2c0-1.5.3-2.7 1-3.5.7-.9 1.6-1.3 2.7-1.3.6-.1 1.1.1 1.5.3zm.6 6.2c.3-.5.5-1.1.5-1.9 0-1.1-.3-1.8-.8-2.3-.3-.3-.7-.4-1.2-.4-.7 0-1.2.3-1.5.8s-.5 1.1-.5 1.9c0 .8.2 1.4.5 1.9s.8.7 1.4.7c.7 0 1.2-.2 1.6-.7zM483.9 515c.4.1.7.4 1 .8.2.3.4.7.5 1.1.1.3.1.7.1 1.3v5.5h-2.3v-5.6c0-.3-.1-.6-.2-.8-.2-.4-.6-.6-1.1-.6-.6 0-1.1.3-1.3.8-.1.3-.2.6-.2 1v5.2h-2.3v-5.2c0-.5-.1-.9-.2-1.1-.2-.4-.6-.6-1.1-.6-.7 0-1.1.2-1.3.6-.1.2-.2.6-.2 1.1v5.2H473V515h2.2v1.3c.3-.5.5-.8.8-1 .4-.3 1-.5 1.7-.5s1.2.1 1.6.4c.3.3.6.6.8 1 .3-.5.7-.9 1.1-1.1.5-.2 1-.4 1.6-.4.4.1.7.1 1.1.3zM493.3 515.1c.6.3 1.1.7 1.5 1.3.4.5.6 1.1.7 1.8.1.4.1 1 .1 1.7h-6.4c0 .9.3 1.5.9 1.8.3.2.8.3 1.3.3s.9-.1 1.3-.4c.2-.1.3-.3.5-.6h2.3c-.1.5-.3 1-.8 1.6-.8.8-1.9 1.3-3.3 1.3-1.2 0-2.2-.4-3.1-1.1-.9-.7-1.3-1.9-1.3-3.5 0-1.5.4-2.7 1.2-3.5s1.8-1.2 3.1-1.2c.7.1 1.4.3 2 .5zm-3.4 2c-.3.3-.5.8-.6 1.3h3.9c0-.6-.2-1.1-.6-1.4s-.8-.5-1.4-.5c-.6.1-1 .3-1.3.6zM498.5 520.9c0 .4.2.7.3.9.3.3.8.5 1.6.5.5 0 .8-.1 1.1-.2.3-.1.4-.3.4-.6s-.1-.5-.3-.6-1-.4-2.4-.7c-1-.2-1.7-.6-2.1-.9-.4-.4-.6-.9-.6-1.6 0-.8.3-1.5.9-2.1.6-.6 1.5-.9 2.7-.9 1.1 0 2 .2 2.7.7.7.4 1.1 1.2 1.2 2.3h-2.3c0-.3-.1-.5-.2-.7-.3-.3-.7-.5-1.3-.5-.5 0-.9.1-1.1.2-.2.2-.3.3-.3.5 0 .3.1.5.3.6s1 .3 2.4.6c.9.2 1.6.5 2 1 .4.4.7 1 .7 1.6 0 .9-.3 1.6-1 2.1-.6.5-1.6.8-3 .8s-2.4-.3-3-.9c-.7-.6-1-1.3-1-2.2h2.3v.1zM507.6 520.9c0 .4.2.7.3.9.3.3.8.5 1.6.5.5 0 .8-.1 1.1-.2.3-.1.4-.3.4-.6s-.1-.5-.3-.6-1-.4-2.4-.7c-1-.2-1.7-.6-2.1-.9-.4-.4-.6-.9-.6-1.6 0-.8.3-1.5.9-2.1.6-.6 1.5-.9 2.7-.9 1.1 0 2 .2 2.7.7.7.4 1.1 1.2 1.2 2.3h-2.3c0-.3-.1-.5-.2-.7-.3-.3-.7-.5-1.3-.5-.5 0-.9.1-1.1.2-.2.2-.3.3-.3.5 0 .3.1.5.3.6s1 .3 2.4.6c.9.2 1.6.5 2 1 .4.4.7 1 .7 1.6 0 .9-.3 1.6-1 2.1-.6.5-1.6.8-3 .8s-2.4-.3-3-.9c-.7-.6-1-1.3-1-2.2h2.3v.1zM518.4 518.4c.4-.1.7-.1.9-.2.3-.1.5-.4.5-.6 0-.4-.1-.6-.4-.7-.3-.1-.6-.2-1.1-.2s-.9.1-1.2.4c-.2.2-.3.5-.3.8h-2.2c0-.8.3-1.4.6-1.9.6-.8 1.6-1.2 3.1-1.2 1 0 1.8.2 2.6.6.7.4 1.1 1.1 1.1 2.1v5c0 .3.1.5.1.6l.3.3v.3h-2.5c-.1-.2-.1-.3-.1-.5s0-.3-.1-.5c-.3.3-.7.6-1.1.9-.5.3-1.1.4-1.7.4-.8 0-1.4-.2-2-.7-.5-.5-.8-1.1-.8-1.9 0-1.1.4-1.8 1.2-2.3.5-.3 1.1-.4 2-.6l1.1-.1zm1.4 1c-.1.1-.3.2-.4.2-.1.1-.4.1-.6.2l-.5.1c-.5.1-.8.2-1 .3-.4.2-.5.5-.5 1 0 .4.1.7.3.8s.5.3.8.3c.5 0 1-.1 1.4-.4s.6-.8.7-1.6v-.9h-.2zM528.4 514.9c.6.2 1 .7 1.3 1.3v-1.3h2.2v8.3c0 1.1-.2 2-.6 2.5-.7 1-1.9 1.5-3.7 1.5-1.1 0-2-.2-2.7-.7-.7-.4-1.1-1.1-1.2-2h2.5c.1.3.2.5.3.6.2.2.7.3 1.2.3.8 0 1.4-.3 1.6-.8.2-.4.3-.9.3-1.8v-.4c-.2.4-.5.7-.7.8-.5.3-1 .5-1.8.5-1.1 0-2-.4-2.7-1.2s-1-1.9-1-3.2.3-2.4 1-3.3c.6-.9 1.6-1.3 2.7-1.3.6 0 .9.1 1.3.2zm.7 6.3c.4-.4.5-1 .5-1.9 0-.8-.2-1.5-.5-1.9s-.8-.6-1.4-.6c-.8 0-1.3.4-1.6 1.1-.2.4-.2.9-.2 1.5 0 .5.1 1 .3 1.4.3.7.9 1.1 1.7 1.1.4-.1.9-.3 1.2-.7zM539.7 515.1c.6.3 1.1.7 1.5 1.3.4.5.6 1.1.7 1.8.1.4.1 1 .1 1.7h-6.4c0 .9.3 1.5.9 1.8.3.2.8.3 1.3.3s.9-.1 1.3-.4c.2-.1.3-.3.5-.6h2.3c-.1.5-.3 1-.8 1.6-.8.8-1.9 1.3-3.3 1.3-1.2 0-2.2-.4-3.1-1.1-.9-.7-1.3-1.9-1.3-3.5 0-1.5.4-2.7 1.2-3.5s1.8-1.2 3.1-1.2c.7.1 1.4.3 2 .5zm-3.4 2c-.3.3-.5.8-.6 1.3h3.9c0-.6-.2-1.1-.6-1.4s-.8-.5-1.4-.5c-.5.1-1 .3-1.3.6zM546.8 516.7v-1.6h1.2v-2.4h2.3v2.4h1.4v1.6h-1.4v4.6c0 .4 0 .6.1.7.1.1.4.1.8.1h.4v1.7h-1.1c-1.1 0-1.8-.1-2.2-.6-.3-.3-.4-.7-.4-1.2v-5.4h-1.1v.1zM560.4 522.6c-.7.9-1.9 1.4-3.4 1.4s-2.6-.5-3.4-1.4c-.7-.9-1.1-2-1.1-3.3s.4-2.3 1.1-3.3c.7-.9 1.9-1.4 3.4-1.4s2.6.5 3.4 1.4 1.1 2 1.1 3.3-.3 2.4-1.1 3.3zm-1.8-1.3c.4-.5.5-1.1.5-2s-.2-1.5-.5-2-.9-.7-1.5-.7c-.7 0-1.2.2-1.5.7-.4.5-.5 1.1-.5 2s.2 1.5.5 2c.4.5.9.7 1.5.7.7.1 1.2-.2 1.5-.7zM569.7 520c.1.5.2.9.4 1.2.4.5 1.1.7 2.1.7.6 0 1.1-.1 1.4-.2.7-.2 1.1-.7 1.1-1.4 0-.4-.2-.7-.5-.9s-.9-.4-1.6-.6l-1.3-.3c-1.3-.3-2.1-.6-2.6-.9-.8-.5-1.2-1.4-1.2-2.6 0-1.1.4-1.9 1.2-2.6.8-.7 1.9-1 3.4-1 1.3 0 2.3.3 3.2 1 .9.7 1.4 1.6 1.4 2.9h-2.3c0-.7-.4-1.2-1-1.5-.4-.2-.9-.3-1.5-.3-.7 0-1.2.1-1.6.4-.4.3-.6.6-.6 1.1 0 .4.2.7.6.9.2.1.8.3 1.6.5l2.1.5c.9.2 1.6.5 2 .9.7.6 1.1 1.4 1.1 2.4 0 1.1-.4 2-1.2 2.7s-2 1.1-3.5 1.1c-1.6 0-2.8-.4-3.7-1.1-.9-.7-1.3-1.7-1.3-2.9h2.3zM582.1 518.4c.4-.1.7-.1.9-.2.3-.1.5-.4.5-.6 0-.4-.1-.6-.4-.7-.3-.1-.6-.2-1.1-.2s-.9.1-1.2.4c-.2.2-.3.5-.3.8h-2.2c0-.8.3-1.4.6-1.9.6-.8 1.6-1.2 3.1-1.2 1 0 1.8.2 2.6.6.7.4 1.1 1.1 1.1 2.1v5c0 .3.1.5.1.6l.3.3v.3h-2.5c-.1-.2-.1-.3-.1-.5s0-.3-.1-.5c-.3.3-.7.6-1.1.9-.5.3-1.1.4-1.7.4-.8 0-1.5-.2-2-.7s-.8-1.1-.8-1.9c0-1.1.4-1.8 1.2-2.3.5-.3 1.1-.4 2-.6l1.1-.1zm1.4 1c-.1.1-.3.2-.4.2-.1.1-.4.1-.6.2l-.5.1c-.5.1-.8.2-1 .3-.4.2-.5.5-.5 1 0 .4.1.7.3.8.2.2.5.3.8.3.5 0 1-.1 1.4-.4s.6-.8.7-1.6v-.9h-.2zM590.1 523.7h-2.3v-11.8h2.3v11.8zM598 515.1c.6.3 1.1.7 1.5 1.3.4.5.6 1.1.7 1.8.1.4.1 1 .1 1.7h-6.4c0 .9.3 1.5.9 1.8.3.2.8.3 1.3.3s.9-.1 1.3-.4c.2-.1.3-.3.5-.6h2.3c-.1.5-.3 1-.8 1.6-.8.8-1.9 1.3-3.3 1.3-1.2 0-2.2-.4-3.1-1.1-.9-.7-1.3-1.9-1.3-3.5 0-1.5.4-2.7 1.2-3.5s1.8-1.2 3.1-1.2c.7.1 1.4.3 2 .5zm-3.4 2c-.3.3-.5.8-.6 1.3h3.9c0-.6-.2-1.1-.6-1.4s-.8-.5-1.4-.5c-.5.1-1 .3-1.3.6zM603.2 520.9c0 .4.2.7.3.9.3.3.8.5 1.6.5.5 0 .8-.1 1.1-.2.3-.1.4-.3.4-.6s-.1-.5-.3-.6-1-.4-2.4-.7c-1-.2-1.7-.6-2.1-.9-.4-.4-.6-.9-.6-1.6 0-.8.3-1.5.9-2.1.6-.6 1.5-.9 2.7-.9 1.1 0 2 .2 2.7.7.7.4 1.1 1.2 1.2 2.3h-2.3c0-.3-.1-.5-.2-.7-.3-.3-.7-.5-1.3-.5-.5 0-.9.1-1.1.2-.2.2-.3.3-.3.5 0 .3.1.5.3.6s1 .3 2.4.6c.9.2 1.6.5 2 1 .4.4.7 1 .7 1.6 0 .9-.3 1.6-1 2.1-.6.5-1.6.8-3 .8s-2.4-.3-3-.9c-.7-.6-1-1.3-1-2.2h2.3v.1zM620.3 518.1c0-.3-.2-.6-.3-.9-.3-.4-.7-.5-1.2-.5-.8 0-1.3.4-1.6 1.1-.1.4-.2.9-.2 1.6 0 .6.1 1.2.2 1.5.3.7.8 1.1 1.5 1.1.5 0 .9-.1 1.1-.4.2-.3.4-.7.4-1.1h2.3c-.1.7-.3 1.3-.8 2-.7 1-1.8 1.5-3.2 1.5s-2.4-.4-3.1-1.2c-.7-.8-1-1.9-1-3.2 0-1.5.4-2.7 1.1-3.5s1.7-1.2 3-1.2c1.1 0 2 .2 2.7.7s1.1 1.4 1.2 2.6l-2.1-.1zM630.5 515c.4.2.8.5 1.1.9.2.3.4.7.4 1 .1.3.1.9.1 1.7v5.1h-2.3v-5.3c0-.5-.1-.8-.2-1.1-.2-.4-.6-.6-1.2-.6s-1.1.2-1.4.6c-.3.4-.5 1-.5 1.7v4.7h-2.3v-11.8h2.3v4.2c.3-.5.7-.9 1.1-1.1.4-.2.9-.3 1.4-.3.6 0 1 .1 1.5.3zM637.7 518.4c.4-.1.7-.1.9-.2.3-.1.5-.4.5-.6 0-.4-.1-.6-.4-.7-.3-.1-.6-.2-1.1-.2s-.9.1-1.2.4c-.2.2-.3.5-.3.8h-2.2c0-.8.3-1.4.6-1.9.6-.8 1.6-1.2 3.1-1.2 1 0 1.8.2 2.6.6.7.4 1.1 1.1 1.1 2.1v5c0 .3.1.5.1.6l.3.3v.3h-2.5c-.1-.2-.1-.3-.1-.5s0-.3-.1-.5c-.3.3-.7.6-1.1.9-.5.3-1.1.4-1.7.4-.8 0-1.4-.2-2-.7-.5-.5-.8-1.1-.8-1.9 0-1.1.4-1.8 1.2-2.3.5-.3 1.1-.4 2-.6l1.1-.1zm1.4 1c-.1.1-.3.2-.4.2-.1.1-.4.1-.6.2l-.5.1c-.5.1-.8.2-1 .3-.4.2-.5.5-.5 1 0 .4.1.7.3.8s.5.3.8.3c.5 0 1-.1 1.4-.4s.6-.8.7-1.6v-.9h-.2zM650.4 515.5c.6.5.9 1.3.9 2.3v5.9H649v-5.3c0-.5-.1-.8-.2-1.1-.2-.4-.6-.7-1.3-.7-.8 0-1.3.3-1.6 1-.1.3-.2.8-.2 1.3v4.7h-2.3v-8.7h2.2v1.3c.3-.4.6-.8.8-1 .5-.4 1.1-.5 1.8-.5.9 0 1.6.3 2.2.8zM660.4 515.5c.6.5.9 1.3.9 2.3v5.9H659v-5.3c0-.5-.1-.8-.2-1.1-.2-.4-.6-.7-1.3-.7-.8 0-1.3.3-1.6 1-.1.3-.2.8-.2 1.3v4.7h-2.3v-8.7h2.2v1.3c.3-.4.6-.8.8-1 .5-.4 1.1-.5 1.8-.5.9 0 1.6.3 2.2.8zM669 515.1c.6.3 1.1.7 1.5 1.3.4.5.6 1.1.7 1.8.1.4.1 1 .1 1.7h-6.4c0 .9.3 1.5.9 1.8.3.2.8.3 1.3.3s.9-.1 1.3-.4c.2-.1.3-.3.5-.6h2.3c-.1.5-.3 1-.8 1.6-.8.8-1.9 1.3-3.3 1.3-1.2 0-2.2-.4-3.1-1.1-.9-.7-1.3-1.9-1.3-3.5 0-1.5.4-2.7 1.2-3.5s1.8-1.2 3.1-1.2c.7.1 1.4.3 2 .5zm-3.4 2c-.3.3-.5.8-.6 1.3h3.9c0-.6-.2-1.1-.6-1.4-.4-.3-.8-.5-1.4-.5-.5.1-1 .3-1.3.6zM674.8 523.7h-2.3v-11.8h2.3v11.8z"/></g></svg>