<?xml version="1.0" encoding="utf-8"?>
<!-- Generator: Adobe Illustrator 24.3.0, SVG Export Plug-In . SVG Version: 6.00 Build 0)  -->
<svg version="1.1" id="Layer_1" xmlns="http://www.w3.org/2000/svg" xmlns:xlink="http://www.w3.org/1999/xlink" x="0px" y="0px"
	 width="1121.2px" height="545.3px" viewBox="0 0 1121.2 545.3" style="enable-background:new 0 0 1121.2 545.3;"
	 xml:space="preserve">
<style type="text/css">
	.st0{fill:none;stroke:#FFFFFF;stroke-width:0.5;stroke-miterlimit:10;}
	.st1{fill:#FFFFFF;}
	.st2{font-family:'ArialMT';}
	.st3{font-size:14.6412px;}
	.st4{fill:#5D51AF;}
	.st5{fill:#010007;}
	.st6{font-family:'Helvetica';}
	.st7{font-size:10.9809px;}
	.st8{fill:none;stroke:#5D51AF;stroke-miterlimit:10;}
	.st9{font-size:12.811px;}
	.st10{fill:none;stroke:#B3B3B3;stroke-width:1.0904;stroke-miterlimit:2.1807;}
	.st11{fill:#FFFFFF;stroke:#B3B3B3;stroke-width:1.0904;stroke-miterlimit:2.1807;}
	.st12{fill:#A17AC7;}
</style>
<g>
	<line class="st0" x1="397.7" y1="72.9" x2="297.2" y2="72.9"/>
	<polygon class="st1" points="403.4,72.6 396.1,76.5 396.1,69.3 	"/>
	<line class="st0" x1="450.7" y1="281.3" x2="297.2" y2="281.3"/>
	<polygon class="st1" points="456.4,281 449.1,284.9 449.1,277.7 	"/>
	<line class="st0" x1="865.4" y1="113.3" x2="691.5" y2="242.7"/>
	<line class="st0" x1="916.3" y1="433.7" x2="995.9" y2="324.7"/>
	<g>
		<g>
			<text transform="matrix(1 0 0 1 108.9087 289.5923)" class="st1 st2 st3">POST /agents/start</text>
			<text transform="matrix(1 0 0 1 66.2646 307.186)" class="st1 st2 st3">{template: &quot;DoctorAppointment&quot;}</text>
			<path class="st4" d="M294.3,262H48.1c-1.6,0-2.9-1.3-2.9-2.9v-41.8c0-1.6,1.3-2.9,2.9-2.9h246.2c1.6,0,2.9,1.3,2.9,2.9v41.8
				C297.2,260.6,295.9,262,294.3,262z"/>
			<g>
				<g>
					<circle class="st5" cx="99.1" cy="239.8" r="9.2"/>
					<text transform="matrix(1 0 0 1 95.9951 243.7856)" class="st1 st6 st7">3</text>
				</g>
				<text transform="matrix(1 0 0 1 119.0693 243.8027)" class="st1 st2 st3">&quot;Chat-App Backend&quot;</text>
			</g>
			<path class="st8" d="M294.3,324.7H48.1c-1.6,0-2.9-1.3-2.9-2.9V217.2c0-1.6,1.3-2.9,2.9-2.9h246.2c1.6,0,2.9,1.3,2.9,2.9v104.5
				C297.2,323.4,295.9,324.7,294.3,324.7z"/>
		</g>
		<g>
			<text transform="matrix(1 0 0 1 908.8492 296.8335)" class="st1 st2 st3">{agent_id, status: READY}</text>
			<path class="st4" d="M1117.8,262H871.6c-1.6,0-2.9-1.3-2.9-2.9v-41.8c0-1.6,1.3-2.9,2.9-2.9h246.2c1.6,0,2.9,1.3,2.9,2.9v41.8
				C1120.7,260.6,1119.4,262,1117.8,262z"/>
			<g>
				<g>
					<circle class="st5" cx="922.7" cy="239.8" r="9.2"/>
					<text transform="matrix(1 0 0 1 919.5543 243.7856)" class="st1 st6 st7">6</text>
				</g>
				<text transform="matrix(1 0 0 1 942.6266 243.8027)" class="st1 st2 st3">&quot;Chat-App Backend&quot;</text>
			</g>
			<path class="st8" d="M1117.8,324.7H871.6c-1.6,0-2.9-1.3-2.9-2.9V217.2c0-1.6,1.3-2.9,2.9-2.9h246.2c1.6,0,2.9,1.3,2.9,2.9v104.5
				C1120.7,323.4,1119.4,324.7,1117.8,324.7z"/>
		</g>
		<g>
			<text transform="matrix(1 0 0 1 523.2655 313.1264)" class="st1 st2 st3">spinUp(template =</text>
			<text transform="matrix(1 0 0 1 512.5458 330.7202)" class="st1 st2 st3">&quot;DoctorAppointment&quot;)</text>
			<path class="st4" d="M705.9,285.5H459.8c-1.6,0-2.9-1.3-2.9-2.9v-41.8c0-1.6,1.3-2.9,2.9-2.9H706c1.6,0,2.9,1.3,2.9,2.9v41.8
				C708.9,284.1,707.6,285.5,705.9,285.5z"/>
			<g>
				<g>
					<circle class="st5" cx="523.8" cy="263.4" r="9.2"/>
					<text transform="matrix(1 0 0 1 520.7391 267.3178)" class="st1 st6 st7">4</text>
				</g>
				<text transform="matrix(1 0 0 1 543.8124 267.3364)" class="st1 st2 st3">&quot;Agent Runtime&quot;</text>
			</g>
			<path class="st8" d="M705.9,348.2H459.8c-1.6,0-2.9-1.3-2.9-2.9V240.8c0-1.6,1.3-2.9,2.9-2.9H706c1.6,0,2.9,1.3,2.9,2.9v104.5
				C708.9,346.9,707.6,348.2,705.9,348.2z"/>
		</g>
	</g>
	<line class="st0" x1="994.7" y1="207.6" x2="994.7" y2="111"/>
	<g>
		<text transform="matrix(1 0 0 1 941.6095 83.0996)" class="st1 st2 st3">status = READY</text>
		<path class="st4" d="M1117.7,48.2H871.6c-1.6,0-2.9-1.3-2.9-2.9V3.4c0-1.6,1.3-2.9,2.9-2.9h246.2c1.6,0,2.9,1.3,2.9,2.9v41.8
			C1120.7,46.9,1119.3,48.2,1117.7,48.2z"/>
		<g>
			<g>
				<circle class="st5" cx="935.6" cy="26.1" r="9.2"/>
				<text transform="matrix(1 0 0 1 932.5157 30.0518)" class="st1 st6 st7">5</text>
			</g>
			<text transform="matrix(1 0 0 1 955.588 30.0684)" class="st1 st2 st3">&quot;Agent Runtime&quot;</text>
		</g>
		<path class="st8" d="M1117.7,111H871.6c-1.6,0-2.9-1.3-2.9-2.9V3.4c0-1.6,1.3-2.9,2.9-2.9h246.2c1.6,0,2.9,1.3,2.9,2.9v104.5
			C1120.7,109.7,1119.3,111,1117.7,111z"/>
	</g>
	<line class="st0" x1="299" y1="212.4" x2="428.7" y2="111"/>
	<g>
		<text transform="matrix(1 0 0 1 438.3102 75.8584)" class="st1 st2 st3">SystemMessage {\n action: startAgent,\n</text>
		<text transform="matrix(1 0 0 1 461.6129 93.4521)" class="st1 st2 st3">template: &quot;DoctorAppointment&quot;\n}</text>
		<path class="st4" d="M733.4,48.2H406.9c-1.6,0-2.9-1.3-2.9-2.9V3.4c0-1.6,1.3-2.9,2.9-2.9h326.6c1.6,0,2.9,1.3,2.9,2.9v41.8
			C736.4,46.9,735,48.2,733.4,48.2z"/>
		<path class="st8" d="M733.4,111H406.8c-1.6,0-2.9-1.3-2.9-2.9V3.4c0-1.6,1.3-2.9,2.9-2.9h326.6c1.6,0,2.9,1.3,2.9,2.9v104.5
			C736.3,109.7,735,111,733.4,111z"/>
		<g>
			<text transform="matrix(1 0 0 1 490.7643 29.8789)" class="st1 st2 st3">&quot;System-Protocol\nGateway&quot;</text>
			<g>
				
					<ellipse transform="matrix(0.2076 -0.9782 0.9782 0.2076 347.6823 481.2414)" class="st5" cx="470.9" cy="26" rx="9.2" ry="9.2"/>
				<text transform="matrix(1 0 0 1 467.8473 29.6328)" class="st1 st6 st7">2</text>
			</g>
		</g>
		<text transform="matrix(1 0 0 1 421.6681 141.0654)" class="st1 st2 st9">Quick-Launch Flow (“Doctor-Appointment” template)</text>
	</g>
	<g>
		<g>
			<line id="actor-man-torso0_8_" class="st10" x1="14.3" y1="45" x2="14.3" y2="54.2"/>
			<line id="actor-man-arms0_8_" class="st10" x1="6.1" y1="48.7" x2="22.5" y2="48.7"/>
			<line class="st10" x1="6.1" y1="61.1" x2="14.3" y2="54.2"/>
			<line class="st10" x1="14.3" y1="54.2" x2="21.7" y2="61.1"/>
			<circle class="st11" cx="14.3" cy="38.1" r="6.9"/>
		</g>
		<g>
			<text transform="matrix(1 0 0 1 -3.662109e-04 75.3867)" class="st12 st2 st3">User</text>
		</g>
	</g>
	<text transform="matrix(1 0 0 1 107.2985 75.8584)" class="st1 st2 st3">Visit landing page\n</text>
	<text transform="matrix(1 0 0 1 68.6158 93.4521)" class="st1 st2 st3">(select **Doctor-Appointment**)</text>
	<path class="st4" d="M294.3,48.2H48.1c-1.6,0-2.9-1.3-2.9-2.9V3.4c0-1.6,1.3-2.9,2.9-2.9h246.2c1.6,0,2.9,1.3,2.9,2.9v41.8
		C297.3,46.9,295.9,48.2,294.3,48.2z"/>
	<path class="st8" d="M294.3,111H48.1c-1.6,0-2.9-1.3-2.9-2.9V3.4c0-1.6,1.3-2.9,2.9-2.9h246.2c1.6,0,2.9,1.3,2.9,2.9v104.5
		C297.3,109.7,295.9,111,294.3,111z"/>
	<g>
		<text transform="matrix(1 0 0 1 109.2897 29.8789)" class="st1 st2 st3">&quot;Nexo Portal (browser)&quot;</text>
		<g>
			<circle class="st5" cx="89.4" cy="26" r="9.2"/>
			<text transform="matrix(1 0 0 1 86.4205 29.6328)" class="st1 st6 st7">1</text>
		</g>
	</g>
	<polygon class="st1" points="296.9,215 300,207.4 304.6,213.1 	"/>
	<line class="st0" x1="509.9" y1="489.6" x2="662.9" y2="489.6"/>
	<g>
		<g>
			<text transform="matrix(1 0 0 1 728.3027 517.0068)" class="st1 st2 st3">emit &quot;agentReady&quot;</text>
			<path class="st4" d="M912,482.2H665.8c-1.6,0-2.9-1.3-2.9-2.9v-41.8c0-1.6,1.3-2.9,2.9-2.9H912c1.6,0,2.9,1.3,2.9,2.9v41.8
				C914.9,480.8,913.6,482.2,912,482.2z"/>
			<g>
				<g>
					<circle class="st5" cx="689.5" cy="460" r="9.2"/>
					<text transform="matrix(1 0 0 1 686.4375 463.959)" class="st1 st6 st7">7</text>
				</g>
				<text transform="matrix(1 0 0 1 709.5098 463.9756)" class="st1 st2 st3">&quot;System-Protocol\nGateway&quot;</text>
			</g>
			<path class="st8" d="M912,544.8H665.8c-1.6,0-2.9-1.3-2.9-2.9V437.4c0-1.6,1.3-2.9,2.9-2.9H912c1.6,0,2.9,1.3,2.9,2.9v104.5
				C914.9,543.6,913.6,544.8,912,544.8z"/>
		</g>
		<g>
			<text transform="matrix(1 0 0 1 272.7235 517.0068)" class="st1 st2 st3">Agent greets user &amp; chat begins</text>
			<path class="st4" d="M500,482.2H253.8c-1.6,0-2.9-1.3-2.9-2.9v-41.8c0-1.6,1.3-2.9,2.9-2.9H500c1.6,0,2.9,1.3,2.9,2.9v41.8
				C502.9,480.8,501.7,482.2,500,482.2z"/>
			<g>
				<g>
					<circle class="st5" cx="295.1" cy="460" r="9.2"/>
					<text transform="matrix(1 0 0 1 291.9823 463.959)" class="st1 st6 st7">8</text>
				</g>
				<text transform="matrix(1 0 0 1 315.0555 463.9756)" class="st1 st2 st3">&quot;Nexo Portal (browser)&quot;</text>
			</g>
			<path class="st8" d="M500,544.8H253.8c-1.6,0-2.9-1.3-2.9-2.9V437.4c0-1.6,1.3-2.9,2.9-2.9H500c1.6,0,2.9,1.3,2.9,2.9v104.5
				C502.9,543.6,501.7,544.8,500,544.8z"/>
		</g>
		<g>
			<g>
				<line id="actor-man-torso0_7_" class="st10" x1="219.3" y1="448.3" x2="219.3" y2="457.5"/>
				<line id="actor-man-arms0_7_" class="st10" x1="211" y1="451.9" x2="227.5" y2="451.9"/>
				<line class="st10" x1="211" y1="464.2" x2="219.3" y2="457.5"/>
				<line class="st10" x1="219.3" y1="457.5" x2="226.6" y2="464.2"/>
				<circle class="st11" cx="219.3" cy="441.4" r="6.9"/>
			</g>
			<g>
				<text transform="matrix(1 0 0 1 204.9672 478.5843)" class="st12 st2 st3">User</text>
			</g>
		</g>
	</g>
	<polygon class="st1" points="869.5,110.7 861.3,111.7 865.5,117.7 	"/>
	<g>
		<rect x="737.3" y="72.2" class="st4" width="3.7" height="1.4"/>
		<rect x="742.8" y="72.2" class="st4" width="3.7" height="1.4"/>
		<rect x="748.3" y="72.2" class="st4" width="3.7" height="1.4"/>
		<rect x="753.8" y="72.2" class="st4" width="3.7" height="1.4"/>
		<rect x="759.3" y="72.2" class="st4" width="3.7" height="1.4"/>
		<rect x="764.8" y="72.2" class="st4" width="3.7" height="1.4"/>
		<rect x="770.3" y="72.2" class="st4" width="3.7" height="1.4"/>
		<rect x="775.8" y="72.2" class="st4" width="3.7" height="1.4"/>
		<rect x="781.3" y="72.2" class="st4" width="3.7" height="1.4"/>
		<rect x="786.8" y="72.2" class="st4" width="3.7" height="1.4"/>
		<rect x="792.3" y="72.2" class="st4" width="3.7" height="1.4"/>
		<rect x="797.8" y="72.2" class="st4" width="3.7" height="1.4"/>
		<rect x="803.3" y="72.2" class="st4" width="3.7" height="1.4"/>
		<rect x="808.8" y="72.2" class="st4" width="3.7" height="1.4"/>
		<rect x="814.3" y="72.2" class="st4" width="3.7" height="1.4"/>
		<rect x="819.8" y="72.2" class="st4" width="3.7" height="1.4"/>
		<rect x="825.3" y="72.2" class="st4" width="3.7" height="1.4"/>
		<rect x="830.8" y="72.2" class="st4" width="3.7" height="1.4"/>
		<rect x="836.3" y="72.2" class="st4" width="3.7" height="1.4"/>
		<rect x="841.8" y="72.2" class="st4" width="3.7" height="1.4"/>
		<rect x="847.3" y="72.2" class="st4" width="3.7" height="1.4"/>
		<rect x="852.8" y="72.2" class="st4" width="3.7" height="1.4"/>
		<rect x="858.3" y="72.2" class="st4" width="3.7" height="1.4"/>
		<rect x="864.3" y="72.2" class="st4" width="3.7" height="1.4"/>
	</g>
	<polygon class="st1" points="994.5,213.8 998.4,206.5 991.1,206.5 	"/>
	<polygon class="st1" points="914.7,435.4 922.1,431.8 916.2,427.5 	"/>
	<polygon class="st1" points="503.4,489.4 510.7,493.3 510.7,486 	"/>
	<g>
		<g>
			<rect x="569.5" y="111.2" class="st4" width="1.4" height="3.4"/>
			<rect x="569.5" y="116.4" class="st4" width="1.4" height="3.4"/>
			<rect x="569.5" y="121.5" class="st4" width="1.4" height="3.4"/>
			<rect x="569.5" y="126.6" class="st4" width="1.4" height="3.4"/>
			<rect x="569.5" y="131.7" class="st4" width="1.4" height="3.4"/>
			<rect x="569.5" y="136.8" class="st4" width="1.4" height="3.4"/>
			<rect x="569.5" y="141.9" class="st4" width="1.4" height="3.4"/>
		</g>
		<g>
			<rect x="569.5" y="147" class="st4" width="1.4" height="3.4"/>
			<rect x="569.5" y="152.1" class="st4" width="1.4" height="3.4"/>
			<rect x="569.5" y="157.2" class="st4" width="1.4" height="3.4"/>
			<rect x="569.5" y="162.3" class="st4" width="1.4" height="3.4"/>
			<rect x="569.5" y="167.4" class="st4" width="1.4" height="3.4"/>
			<rect x="569.5" y="172.5" class="st4" width="1.4" height="3.4"/>
			<rect x="569.5" y="177.6" class="st4" width="1.4" height="3.4"/>
		</g>
		<g>
			<rect x="569.5" y="182.7" class="st4" width="1.4" height="3.4"/>
			<rect x="569.5" y="187.8" class="st4" width="1.4" height="3.4"/>
			<rect x="569.5" y="192.9" class="st4" width="1.4" height="3.4"/>
			<rect x="569.5" y="198" class="st4" width="1.4" height="3.4"/>
			<rect x="569.5" y="203.2" class="st4" width="1.4" height="3.4"/>
			<rect x="569.5" y="208.3" class="st4" width="1.4" height="3.4"/>
			<rect x="569.5" y="213.4" class="st4" width="1.4" height="3.4"/>
		</g>
		<g>
			<rect x="569.5" y="218.5" class="st4" width="1.4" height="3.4"/>
			<rect x="569.5" y="223.6" class="st4" width="1.4" height="3.4"/>
			<rect x="569.5" y="228.7" class="st4" width="1.4" height="3.4"/>
			<rect x="569.5" y="233.8" class="st4" width="1.4" height="3.4"/>
			<rect x="569.5" y="238.9" class="st4" width="1.4" height="3.4"/>
			<rect x="569.5" y="244" class="st4" width="1.4" height="3.4"/>
			<rect x="569.5" y="249.1" class="st4" width="1.4" height="3.4"/>
		</g>
		<g>
			<rect x="569.5" y="254.2" class="st4" width="1.4" height="3.4"/>
			<rect x="569.5" y="259.3" class="st4" width="1.4" height="3.4"/>
			<rect x="569.5" y="264.4" class="st4" width="1.4" height="3.4"/>
			<rect x="569.5" y="269.5" class="st4" width="1.4" height="3.4"/>
			<rect x="569.5" y="274.6" class="st4" width="1.4" height="3.4"/>
			<rect x="569.5" y="279.7" class="st4" width="1.4" height="3.4"/>
		</g>
	</g>
	<g>
		<g>
			<rect x="569.5" y="348.4" class="st4" width="1.4" height="3.7"/>
			<rect x="569.5" y="353.9" class="st4" width="1.4" height="3.7"/>
		</g>
		<g>
			<rect x="569.5" y="359.4" class="st4" width="1.4" height="3.7"/>
			<rect x="569.5" y="364.9" class="st4" width="1.4" height="3.7"/>
			<rect x="569.5" y="370.4" class="st4" width="1.4" height="3.7"/>
			<rect x="569.5" y="375.9" class="st4" width="1.4" height="3.7"/>
			<rect x="569.5" y="381.4" class="st4" width="1.4" height="3.7"/>
			<rect x="569.5" y="386.9" class="st4" width="1.4" height="3.7"/>
			<rect x="569.5" y="392.4" class="st4" width="1.4" height="3.7"/>
		</g>
		<g>
			<rect x="569.5" y="397.9" class="st4" width="1.4" height="3.7"/>
			<rect x="569.5" y="403.4" class="st4" width="1.4" height="3.7"/>
			<rect x="569.5" y="408.9" class="st4" width="1.4" height="3.7"/>
			<rect x="569.5" y="414.4" class="st4" width="1.4" height="3.7"/>
			<rect x="569.5" y="419.9" class="st4" width="1.4" height="3.7"/>
			<rect x="569.5" y="425.4" class="st4" width="1.4" height="3.7"/>
			<rect x="569.5" y="430.9" class="st4" width="1.4" height="3.7"/>
		</g>
		<g>
			<rect x="569.5" y="436.4" class="st4" width="1.4" height="3.7"/>
			<rect x="569.5" y="441.9" class="st4" width="1.4" height="3.7"/>
			<rect x="569.5" y="447.4" class="st4" width="1.4" height="3.7"/>
			<rect x="569.5" y="452.9" class="st4" width="1.4" height="3.7"/>
			<rect x="569.5" y="458.4" class="st4" width="1.4" height="3.7"/>
			<rect x="569.5" y="463.9" class="st4" width="1.4" height="3.7"/>
			<rect x="569.5" y="469.4" class="st4" width="1.4" height="3.7"/>
		</g>
		<g>
			<rect x="569.5" y="474.9" class="st4" width="1.4" height="3.7"/>
			<rect x="569.5" y="480.4" class="st4" width="1.4" height="3.7"/>
			<rect x="569.5" y="485.9" class="st4" width="1.4" height="3.7"/>
		</g>
	</g>
	<g>
		<g>
			<rect x="170.5" y="111.2" class="st4" width="1.4" height="3.4"/>
			<rect x="170.5" y="116.4" class="st4" width="1.4" height="3.4"/>
			<rect x="170.5" y="121.5" class="st4" width="1.4" height="3.4"/>
			<rect x="170.5" y="126.6" class="st4" width="1.4" height="3.4"/>
			<rect x="170.5" y="131.7" class="st4" width="1.4" height="3.4"/>
			<rect x="170.5" y="136.8" class="st4" width="1.4" height="3.4"/>
			<rect x="170.5" y="141.9" class="st4" width="1.4" height="3.4"/>
		</g>
		<g>
			<rect x="170.5" y="147" class="st4" width="1.4" height="3.4"/>
			<rect x="170.5" y="152.1" class="st4" width="1.4" height="3.4"/>
			<rect x="170.5" y="157.2" class="st4" width="1.4" height="3.4"/>
			<rect x="170.5" y="162.3" class="st4" width="1.4" height="3.4"/>
			<rect x="170.5" y="167.4" class="st4" width="1.4" height="3.4"/>
			<rect x="170.5" y="172.5" class="st4" width="1.4" height="3.4"/>
			<rect x="170.5" y="177.6" class="st4" width="1.4" height="3.4"/>
		</g>
		<g>
			<rect x="170.5" y="182.7" class="st4" width="1.4" height="3.4"/>
			<rect x="170.5" y="187.8" class="st4" width="1.4" height="3.4"/>
			<rect x="170.5" y="192.9" class="st4" width="1.4" height="3.4"/>
			<rect x="170.5" y="198" class="st4" width="1.4" height="3.4"/>
			<rect x="170.5" y="203.2" class="st4" width="1.4" height="3.4"/>
			<rect x="170.5" y="208.3" class="st4" width="1.4" height="3.4"/>
			<rect x="170.5" y="213.4" class="st4" width="1.4" height="3.4"/>
		</g>
		<g>
			<rect x="170.5" y="218.5" class="st4" width="1.4" height="3.4"/>
			<rect x="170.5" y="223.6" class="st4" width="1.4" height="3.1"/>
		</g>
	</g>
	<g>
		<g>
			<rect x="170.5" y="348.4" class="st4" width="1.4" height="3.7"/>
			<rect x="170.5" y="353.9" class="st4" width="1.4" height="3.7"/>
		</g>
		<g>
			<rect x="170.5" y="359.4" class="st4" width="1.4" height="3.7"/>
			<rect x="170.5" y="364.9" class="st4" width="1.4" height="3.7"/>
			<rect x="170.5" y="370.4" class="st4" width="1.4" height="3.7"/>
			<rect x="170.5" y="375.9" class="st4" width="1.4" height="3.7"/>
			<rect x="170.5" y="381.4" class="st4" width="1.4" height="3.7"/>
			<rect x="170.5" y="386.9" class="st4" width="1.4" height="3.7"/>
			<rect x="170.5" y="392.4" class="st4" width="1.4" height="3.7"/>
		</g>
		<g>
			<rect x="170.5" y="397.9" class="st4" width="1.4" height="3.7"/>
			<rect x="170.5" y="403.4" class="st4" width="1.4" height="3.7"/>
			<rect x="170.5" y="408.9" class="st4" width="1.4" height="3.7"/>
			<rect x="170.5" y="414.4" class="st4" width="1.4" height="3.7"/>
			<rect x="170.5" y="419.9" class="st4" width="1.4" height="3.7"/>
			<rect x="170.5" y="425.4" class="st4" width="1.4" height="3.7"/>
			<rect x="170.5" y="430.9" class="st4" width="1.4" height="3.7"/>
		</g>
		<g>
			<rect x="170.5" y="436.4" class="st4" width="1.4" height="3.7"/>
			<rect x="170.5" y="441.9" class="st4" width="1.4" height="3.7"/>
			<rect x="170.5" y="447.4" class="st4" width="1.4" height="3.7"/>
			<rect x="170.5" y="452.9" class="st4" width="1.4" height="3.7"/>
			<rect x="170.5" y="458.4" class="st4" width="1.4" height="3.7"/>
			<rect x="170.5" y="463.9" class="st4" width="1.4" height="3.7"/>
			<rect x="170.5" y="469.4" class="st4" width="1.4" height="3.7"/>
		</g>
		<g>
			<rect x="170.5" y="474.9" class="st4" width="1.4" height="3.7"/>
			<rect x="170.5" y="480.4" class="st4" width="1.4" height="3.7"/>
			<rect x="170.5" y="485.9" class="st4" width="1.4" height="3.7"/>
		</g>
	</g>
	<g>
		<g>
			<rect x="170.5" y="326.4" class="st4" width="1.4" height="3.7"/>
		</g>
		<g>
			<rect x="170.5" y="331.9" class="st4" width="1.4" height="3.7"/>
			<rect x="170.5" y="337.4" class="st4" width="1.4" height="3.7"/>
			<rect x="170.5" y="342.9" class="st4" width="1.4" height="3.7"/>
		</g>
	</g>
	<g>
		<g>
			<rect x="247.1" y="489" class="st4" width="3.7" height="1.4"/>
			<rect x="241.6" y="489" class="st4" width="3.7" height="1.4"/>
		</g>
		<g>
			<rect x="236.1" y="489" class="st4" width="3.7" height="1.4"/>
			<rect x="230.6" y="489" class="st4" width="3.7" height="1.4"/>
			<rect x="225.1" y="489" class="st4" width="3.7" height="1.4"/>
			<rect x="219.6" y="489" class="st4" width="3.7" height="1.4"/>
			<rect x="214.1" y="489" class="st4" width="3.7" height="1.4"/>
			<rect x="208.6" y="489" class="st4" width="3.7" height="1.4"/>
			<rect x="203.1" y="489" class="st4" width="3.7" height="1.4"/>
		</g>
		<g>
			<rect x="197.6" y="489" class="st4" width="3.7" height="1.4"/>
			<rect x="192.1" y="489" class="st4" width="3.7" height="1.4"/>
			<rect x="186.6" y="489" class="st4" width="3.7" height="1.4"/>
			<rect x="181.1" y="489" class="st4" width="3.7" height="1.4"/>
			<rect x="175.6" y="489" class="st4" width="3.7" height="1.4"/>
			<rect x="170.5" y="489" class="st4" width="3.3" height="1.4"/>
		</g>
	</g>
</g>
</svg>
