<?xml version="1.0" encoding="utf-8"?>
<!-- Generator: Adobe Illustrator 24.3.0, SVG Export Plug-In . SVG Version: 6.00 Build 0)  -->
<svg version="1.1" id="Layer_1" xmlns="http://www.w3.org/2000/svg" xmlns:xlink="http://www.w3.org/1999/xlink" x="0px" y="0px"
	 width="16px" height="16px" viewBox="0 0 16 16" style="enable-background:new 0 0 16 16;" xml:space="preserve">
<style type="text/css">
	.st0{fill:#11D4A0;}
	.st1{fill:#FB0057;}
	.st2{fill:#F5A906;}
	.st3{fill:#794BF5;}
</style>
<g>
	<path class="st0" d="M0.4,4.8C0.3,5,0.3,5.1,0.4,5.3C0.9,5.8,2.1,7,2.7,7.6c0.1,0.1,0.1,0.1,0.2,0.2C3,7.9,3,8.2,2.8,8.3
		C2.8,8.4,2.7,8.5,2.6,8.5C1.9,9.3,1.2,10,0.5,10.7c-0.3,0.3-0.3,0.4,0,0.7c0.2,0.2,0.4,0.4,0.6,0.6c0.3,0.3,0.4,0.3,0.7,0
		c0.7-0.7,1.5-1.5,2.2-2.2c0.4-0.4,0.5-0.4,0.9,0c0.2,0.2,0.4,0.4,0.6,0.6c0.2,0.2,0.3,0.2,0.4,0c0.3-0.3,0.6-0.6,0.9-0.9
		c0.1-0.1,0.1-0.3,0-0.4C6.7,9,6.6,8.9,6.5,8.8c-0.7-0.7-0.9-0.7,0-1.6c0.1-0.1,0.1-0.1,0.2-0.2c0.1-0.1,0.1-0.4,0-0.5
		C6.5,6.3,6.2,6,5.9,5.7c-0.2-0.2-0.3-0.2-0.5,0C5.3,5.9,5.1,6.1,5,6.2c-0.4,0.4-0.6,0.4-1,0C3.2,5.5,2.5,4.8,1.8,4.1
		c-0.3-0.3-0.4-0.3-0.7,0C0.9,4.2,0.6,4.6,0.4,4.8z"/>
	<circle class="st1" cx="8.7" cy="2.1" r="1.3"/>
	<circle class="st2" cx="8.7" cy="13.9" r="1.3"/>
	<circle class="st3" cx="14.4" cy="8" r="1.3"/>
	<path class="st1" d="M7,5.9C7.1,6,7.3,6,7.5,5.9c0.1-0.1,0.2-0.1,0.3-0.2c0.3-0.1,0.6-0.2,0.9-0.2c0.3,0,0.6,0.1,0.9,0.2
		C9.7,5.8,9.8,5.9,9.9,6c0.1,0.1,0.3,0.1,0.4,0L11,5.3c0.1-0.1,0.1-0.3,0-0.4c-0.2-0.2-0.5-0.3-0.8-0.4c-0.5-0.2-1-0.3-1.5-0.3
		c-0.4,0-0.7,0-1,0.1C7.3,4.3,7,4.5,6.8,4.6C6.6,4.7,6.5,4.8,6.4,4.9C6.3,5,6.3,5.2,6.4,5.3C6.5,5.4,6.8,5.7,7,5.9z"/>
	<path class="st3" d="M12.2,6.4C12.1,6.2,12,6,11.9,5.8c-0.1-0.2-0.3-0.2-0.5,0l-0.8,0.8c-0.1,0.1-0.1,0.2-0.1,0.3c0,0,0,0.1,0,0.1
		c0.1,0.3,0.1,0.6,0.1,0.9c0,0.3,0,0.6-0.1,0.9c0,0.1-0.1,0.2-0.1,0.3c0,0.1,0,0.2,0,0.3l0.8,0.8c0.1,0.1,0.3,0.1,0.4,0
		c0.1-0.1,0.2-0.2,0.3-0.4c0.2-0.3,0.3-0.6,0.4-0.9c0.1-0.3,0.1-0.7,0.1-1C12.5,7.4,12.4,6.9,12.2,6.4z"/>
	<path class="st2" d="M9.5,10c-0.3,0.1-0.5,0.2-0.9,0.2c-0.3,0-0.6-0.1-0.9-0.2c-0.1,0-0.2-0.1-0.3-0.1c-0.1-0.1-0.2,0-0.3,0
		c-0.2,0.2-0.5,0.6-0.7,0.8c-0.1,0.1-0.1,0.3,0,0.3c0.1,0.1,0.2,0.1,0.2,0.1c0.3,0.2,0.6,0.3,0.9,0.4c0.3,0.1,0.7,0.1,1,0.1
		c0.3,0,0.7,0,1-0.1c0.3-0.1,0.6-0.2,0.9-0.4c0.1,0,0.2-0.1,0.2-0.1c0.1-0.1,0.1-0.3,0-0.4l-0.8-0.8c-0.1-0.1-0.2-0.1-0.3,0
		C9.7,9.9,9.6,10,9.5,10z"/>
</g>
</svg>
