<svg id="Layer_1" data-name="Layer 1" xmlns="http://www.w3.org/2000/svg" viewBox="0 0 678 448"><defs><style>.cls-1,.cls-17,.cls-2,.cls-22,.cls-3{fill:#fff;}.cls-1{opacity:0.08;}.cls-17,.cls-19,.cls-2,.cls-4,.cls-5{isolation:isolate;}.cls-2,.cls-3,.cls-4{font-size:14px;}.cls-17,.cls-19,.cls-2,.cls-3,.cls-4{font-family:ArialMT, Arial;}.cls-14,.cls-4{fill:#7c81b6;}.cls-6{fill:#7e8186;}.cls-7{letter-spacing:-0.11084em;}.cls-8{fill:#ff6f5c;}.cls-11,.cls-12,.cls-13,.cls-15,.cls-16,.cls-32,.cls-9{fill:none;}.cls-12,.cls-16,.cls-9{stroke:#fff;}.cls-12,.cls-13,.cls-15,.cls-16,.cls-32,.cls-9{stroke-miterlimit:10;}.cls-9{opacity:0.17;}.cls-10{fill:#d19dff;}.cls-11{opacity:0.2;}.cls-12{stroke-opacity:0.17;}.cls-12,.cls-13,.cls-15,.cls-16,.cls-32{stroke-width:2px;}.cls-13,.cls-32{stroke:#7e8186;}.cls-13{stroke-opacity:0.11;}.cls-15{stroke:#7c81b6;}.cls-16{stroke-opacity:0.45;}.cls-17{font-size:23.23231px;}.cls-18{letter-spacing:-0.05519em;}.cls-19{font-size:19.91663px;fill:#a5a18e;}.cls-20{letter-spacing:-0.11086em;}.cls-21{letter-spacing:-0.05516em;}.cls-23{fill:#c3c9d5;}.cls-24{fill:#0084f6;}.cls-25{fill:#febb00;}.cls-26{fill:#0067d4;}.cls-27{fill:#00802e;}.cls-28{fill:#fe4131;}.cls-29{fill:#00a84b;}.cls-30{fill:#0085f6;}.cls-31{fill:#fbfcfe;}</style></defs><path class="cls-1" d="M570.38574,123.46862H287.56031a7.88574,7.88574,0,0,1-7.89237-7.89237V16.13239A7.88574,7.88574,0,0,1,287.56031,8.24h282.779a7.88574,7.88574,0,0,1,7.89237,7.89237v99.49029A7.80669,7.80669,0,0,1,570.38574,123.46862Z"/><path class="cls-1" d="M152.32224,170.35859H84.30858a39.607,39.607,0,0,1-39.60112-39.60112V95.79892A40.75617,40.75617,0,0,1,85.46922,55.03716h66.853a7.66781,7.66781,0,0,1,7.66024,7.66024v99.90812A7.68814,7.68814,0,0,1,152.32224,170.35859Z"/><text class="cls-2" transform="translate(38.53469 198.97776)">When chat message</text><text class="cls-2" transform="translate(82.51808 218.99534)">received</text><text class="cls-3" transform="translate(146.46099 433.40744)">OpenAI Chat Model</text><text class="cls-3" transform="translate(187.19704 292.34104)">Model</text><text class="cls-4" transform="translate(297.96219 154.04123)">Chat Model *</text><g class="cls-5"><path class="cls-6" d="M655.96539,72.55109v-5.518h-5.47678V64.72718h5.47678V59.2504h2.33353v5.47678h5.47678v2.30587h-5.47678v5.518Z"/></g><text class="cls-4" transform="translate(434.31847 154.04123)">Memory</text><text class="cls-4" transform="translate(506.6452 154.04123)"><tspan class="cls-7">T</tspan><tspan x="7" y="0">ool</tspan></text><text class="cls-3" transform="translate(368.57497 292.34104)">Momery</text><text class="cls-3" transform="translate(371.14907 433.40744)">Memory</text><text class="cls-3" transform="translate(530.96673 433.40744)">Google Calendar</text><polygon class="cls-8" points="10.399 100.024 19.73 100.024 17.502 108.102 24.744 108.566 15.738 125.883 14.066 125.883 15.97 114.137 9.099 113.905 10.399 100.024"/><circle class="cls-1" cx="583.98844" cy="357.79745" r="44.22585"/><circle class="cls-9" cx="583.98844" cy="357.79745" r="44.6709"/><circle class="cls-1" cx="396.4358" cy="357.79745" r="44.22585"/><circle class="cls-9" cx="396.4358" cy="357.79745" r="44.6709"/><circle class="cls-1" cx="207.94868" cy="357.79745" r="44.22585"/><circle class="cls-9" cx="207.94868" cy="357.79745" r="44.6709"/><rect class="cls-10" x="199.66177" y="307.65925" width="16.57382" height="16.57382" transform="translate(-162.50092 239.58041) rotate(-45)"/><rect class="cls-10" x="388.1489" y="306.66057" width="16.57379" height="16.57382" transform="translate(-106.58814 372.56842) rotate(-45)"/><rect class="cls-10" x="575.70744" y="306.66185" width="16.57379" height="16.57382" transform="translate(-51.65442 505.19271) rotate(-45)"/><path class="cls-11" d="M570.38574,123.46862H287.56031a7.88574,7.88574,0,0,1-7.89237-7.89237V16.13239A7.88574,7.88574,0,0,1,287.56031,8.24h282.779a7.88574,7.88574,0,0,1,7.89237,7.89237v99.49029A7.80669,7.80669,0,0,1,570.38574,123.46862Z"/><path class="cls-12" d="M570.38574,123.46862H287.56031a7.88574,7.88574,0,0,1-7.89237-7.89237V16.13239A7.88574,7.88574,0,0,1,287.56031,8.24h282.779a7.88574,7.88574,0,0,1,7.89237,7.89237v99.49029A7.80669,7.80669,0,0,1,570.38574,123.46862Z"/><path class="cls-13" d="M152.32224,170.35859H84.30858a39.607,39.607,0,0,1-39.60112-39.60112V95.79892A40.75617,40.75617,0,0,1,85.46922,55.03716h66.853a7.66781,7.66781,0,0,1,7.66024,7.66024v99.90812A7.68814,7.68814,0,0,1,152.32224,170.35859Z"/><g class="cls-5"><path class="cls-14" d="M512.8296,204.17357h5.518v-5.47678h2.30587v5.47678h5.47678v2.33353h-5.47678v5.47678h-2.30587V206.5071h-5.518Z"/></g><path class="cls-15" d="M507.711,214.32371V196.357a2.79372,2.79372,0,0,1,2.78554-2.78554h17.96673a2.79372,2.79372,0,0,1,2.78554,2.78554v17.96675a2.79372,2.79372,0,0,1-2.78554,2.78555H510.49658A2.76417,2.76417,0,0,1,507.711,214.32371Z"/><rect class="cls-14" x="518.27952" y="156.07651" width="2.32129" height="37.88336"/><path class="cls-16" d="M168.757,112.74428s24.14136,6.45317,53.15743-23.445c0,0,17.59535-20.56659,45.86859-23.445"/><path class="cls-10" d="M327.62572,168.73369l2.78554,1.71776c1.67131-2.69268,3.2498-5.38537,4.7354-8.17091l-2.92484-1.532C330.8291,163.44115,329.25062,166.13384,327.62572,168.73369Z"/><path class="cls-10" d="M319.87259,180.108l2.59983,1.9963c1.90344-2.507,3.714-5.10683,5.47825-7.70665l-2.73912-1.81062C323.49382,175.14044,321.72962,177.64741,319.87259,180.108Z"/><path class="cls-10" d="M310.81961,190.22879l2.22842,2.41414a71.29756,71.29756,0,0,0,6.546-6.96385l-2.55342-2.13557A60.9206,60.9206,0,0,1,310.81961,190.22879Z"/><path class="cls-10" d="M299.81671,198.49256l1.9963,2.64627,4.64257-3.52834-.18572.13927c.51068-.325,1.06779-.65,1.57849-.97493.51067-.3714,1.02137-.69638,1.532-1.06778l-1.94988-2.64627q-.69639.48747-1.39277.97492c-.46426.325-.92852.55712-1.39278.8821l-.13927.09286-.04641.04641Z"/><polygon class="cls-10" points="288.675 206.803 290.624 209.449 298.145 203.878 296.149 201.232 288.675 206.803"/><path class="cls-10" d="M277.3931,214.83441l1.857,2.73913c2.59982-1.76417,5.10682-3.57478,7.66024-5.43181l-1.94989-2.69269C282.45348,211.306,279.94651,213.11666,277.3931,214.83441Z"/><path class="cls-10" d="M265.5081,221.84468l1.71776,2.832c1.39277-.83566,2.78554-1.67131,4.17831-2.41414l-.7428.18571a1.5799,1.5799,0,0,0,.46426-.04641.65953.65953,0,0,0,.27854-.09286c.09286-.04641.18571-.04641.23213-.09286l.18571-.09285c.23213-.09286.41785-.18572.60353-.27855.3714-.18571.7428-.3714,1.06779-.55711.69638-.3714,1.29991-.78924,1.94988-1.20706L273.679,217.295c-.60353.3714-1.20706.78924-1.81061,1.11423-.325.18571-.60353.325-.8821.46426a2.73835,2.73835,0,0,1-.3714.18571l-.04642.04641h.1393l-.78924.18572C268.34009,220.17337,266.94731,221.009,265.5081,221.84468Z"/><path class="cls-10" d="M253.716,229.50493l1.90344,2.69268c2.507-1.76417,5.10683-3.48193,7.70666-5.15324l-1.76417-2.78554C258.91567,225.97658,256.31582,227.69434,253.716,229.50493Z"/><path class="cls-10" d="M242.57382,238.00082l2.08916,2.55342c2.3677-1.94989,4.82828-3.85333,7.28884-5.71036l-1.94989-2.64627C247.44852,234.10108,244.988,236.00452,242.57382,238.00082Z"/><path class="cls-10" d="M232.08159,247.42526l2.32129,2.3677c2.182-2.182,4.45685-4.27117,6.77814-6.26747l-2.182-2.507C236.63133,243.06124,234.31005,245.19681,232.08159,247.42526Z"/><path class="cls-10" d="M222.56432,257.82461l2.55342,2.08915c1.94988-2.3677,3.94618-4.689,6.08175-6.91744l-2.41414-2.27487C226.64981,252.99635,224.56065,255.36405,222.56432,257.82461Z"/><path class="cls-10" d="M214.53268,269.47747l2.8784,1.67132a83.5232,83.5232,0,0,1,5.014-7.66024l-2.64627-1.94989A80.882,80.882,0,0,0,214.53268,269.47747Z"/><path class="cls-10" d="M213.51131,278.90189c.55711-1.29992,1.11423-2.59983,1.76417-3.85333l-2.97125-1.48563q-1.25349,2.57664-2.3677,5.29254h3.57478Z"/><path class="cls-10" d="M206.36177,293.66526c-.09286.97492-.13927,1.94988-.18571,2.92481l3.29621.09286c.04641-1.02138.09286-2.04275.18571-3.06409h-3.29621Z"/><path class="cls-10" d="M453.90363,165.85529l3.2498.69639c.27855-1.2535.46426-2.55341.69639-3.85333.09283-.65.18571-1.29991.23213-1.94988.04641-.325.04641-.65.09283-.97493,0-.325.04641-.60353.04641-.92852l-3.29621-.27854a6.857,6.857,0,0,1-.04642.97493c0,.325-.04641.60353-.04641.8821-.04642.60353-.1393,1.20706-.18572,1.81061C454.36789,163.44115,454.18218,164.64821,453.90363,165.85529Z"/><path class="cls-10" d="M450.79308,176.39394l3.1105,1.16064c.8821-2.41414,1.67131-4.82829,2.3677-7.33526l-3.20339-.83565C452.418,171.70492,451.67518,174.07265,450.79308,176.39394Z"/><path class="cls-10" d="M446.42911,186.56115l2.97125,1.48563c1.06782-2.32129,2.22846-4.59616,3.157-7.01027l-3.06408-1.2535C448.56468,182.10429,447.45045,184.33272,446.42911,186.56115Z"/><path class="cls-10" d="M441.04368,196.31055l2.832,1.71775,1.94985-3.29621c.325-.55711.65-1.11423.92852-1.67131l.8821-1.71776-2.92484-1.532-.8821,1.67131c-.27855.55711-.60356,1.06779-.92852,1.6249Z"/><path class="cls-10" d="M434.91551,205.64213l2.69271,1.90344c.7428-1.02137,1.4856-2.08915,2.182-3.11053l2.08916-3.20338-2.78555-1.76417-2.04274,3.15694C436.35469,203.59939,435.6119,204.57432,434.91551,205.64213Z"/><path class="cls-10" d="M428.18378,214.55584l2.55342,2.08916c1.57848-2.04274,3.1105-3.9926,4.64257-6.03534l-2.64625-1.94989C431.29428,210.60966,429.71585,212.55954,428.18378,214.55584Z"/><path class="cls-10" d="M421.17351,223.46958l2.69272,1.94989c1.43918-2.04274,2.97125-3.9926,4.54974-5.94249l-2.55342-2.08915C424.2376,219.38413,422.65911,221.38043,421.17351,223.46958Z"/><path class="cls-10" d="M414.85963,232.94044l2.78554,1.71776c1.29994-2.13558,2.69271-4.22473,4.08548-6.26747l-2.73912-1.857C417.5987,228.62285,416.20593,230.75842,414.85963,232.94044Z"/><path class="cls-10" d="M409.19566,242.82911l2.92484,1.532q1.741-3.34265,3.62123-6.546l-2.832-1.67132C411.60983,238.32581,410.40271,240.55424,409.19566,242.82911Z"/><path class="cls-10" d="M404.321,253.13562l3.01767,1.29991L408.8707,251c.55709-1.11423,1.06781-2.27487,1.6249-3.38907l-2.97126-1.43919c-.55708,1.16065-1.11422,2.32129-1.6249,3.43552Z"/><polygon class="cls-10" points="400.282 263.814 403.439 264.835 404.646 261.307 405.946 257.825 402.882 256.618 401.535 260.192 400.282 263.814"/><path class="cls-10" d="M397.26427,274.81643l3.20339.7428c.27854-1.20706.55708-2.41414.8821-3.6212s.65-2.41414.97493-3.57478l-3.157-.92852c-.37143,1.20706-.69639,2.46056-1.02135,3.71406C397.82136,272.30943,397.54282,273.56293,397.26427,274.81643Z"/><path class="cls-10" d="M394.71086,294.54736c-.04641,1.02137-.04641,1.99629-.04641,3.01767h3.29621c0-1.02138.04641-1.9963.04641-3.01767Z"/><path class="cls-10" d="M521.49945,168.17658l3.20338-.69639c-.1393-.60352-.27854-1.207-.37142-1.76417l-.27855-1.81061a30.13212,30.13212,0,0,1-.27854-3.6212l-3.29621.13927a27.54873,27.54873,0,0,0,.27854,3.89977l.325,1.94989C521.22091,166.92308,521.36015,167.52661,521.49945,168.17658Z"/><path class="cls-10" d="M524.88855,179.133l3.06408-1.20706c-.41784-1.16064-.8821-2.32129-1.29994-3.48193-.37143-1.16064-.7428-2.32128-1.11423-3.52834l-3.157.8821c.37143,1.2535.78922,2.46055,1.16065,3.66764C524.00645,176.71889,524.47071,177.926,524.88855,179.133Z"/><path class="cls-10" d="M529.67036,189.486l2.92484-1.532c-.60355-1.06779-1.11422-2.22843-1.67131-3.34266s-1.11423-2.22843-1.57849-3.34265l-3.01767,1.29991c.46426,1.20706,1.06782,2.32129,1.6249,3.48193S529.02039,188.37176,529.67036,189.486Z"/><path class="cls-10" d="M535.33433,199.2818l2.78554-1.76417c-.69638-1.02137-1.29994-2.13557-1.94985-3.20338l-.97493-1.57849a18.44274,18.44274,0,0,1-.92852-1.6249l-2.87837,1.6249c.27855.55712.60356,1.11423.92852,1.67132l.97493,1.62489C534.03439,197.1462,534.638,198.214,535.33433,199.2818Z"/><path class="cls-10" d="M541.74105,208.6598l2.64624-1.94988c-1.43919-2.04275-2.92484-3.9926-4.27114-6.1282l-2.73913,1.81061C538.76979,204.57432,540.25545,206.57064,541.74105,208.6598Z"/><polygon class="cls-10" points="548.705 217.62 551.212 215.438 551.073 215.299 550.794 215.02 550.562 214.695 546.569 209.635 543.97 211.631 548.055 216.831 548.287 217.156 548.566 217.481 548.705 217.62"/><path class="cls-10" d="M555.66876,226.20871l2.64624-1.94988c-1.53207-2.04275-3.06409-4.03905-4.689-5.98893l-2.55341,2.13557C552.6975,222.26253,554.18316,224.21241,555.66876,226.20871Z"/><path class="cls-10" d="M561.98264,235.35458l2.78554-1.76417c-1.34635-2.13557-2.78554-4.22473-4.22472-6.31388L557.85074,229.18C559.24357,231.17627,560.63634,233.26542,561.98264,235.35458Z"/><path class="cls-10" d="M567.6002,244.91827l2.92484-1.57849-1.857-3.34266c-.65-1.06778-1.25347-2.182-1.94986-3.29621l-2.832,1.71776c.65,1.06778,1.25347,2.13557,1.90344,3.20338Z"/><path class="cls-10" d="M572.4749,254.85338l3.01767-1.34636c-.51067-1.16064-1.06782-2.32128-1.57849-3.48193-.55708-1.16064-1.11423-2.27487-1.67131-3.43551l-2.92484,1.48563c.55708,1.11423,1.11422,2.22843,1.6249,3.34265C571.4535,252.57851,572.01064,253.69273,572.4749,254.85338Z"/><path class="cls-10" d="M576.56032,265.11345l3.1105-1.06779c-.41784-1.20706-.8821-2.3677-1.29994-3.57478-.46426-1.20706-.92851-2.3677-1.39277-3.52835L573.914,258.196c.46425,1.16065.92851,2.27487,1.34635,3.43552C575.7247,262.79216,576.14248,263.9528,576.56032,265.11345Z"/><path class="cls-10" d="M579.62441,275.74494l3.20338-.7428c-.325-1.2535-.60355-2.46055-.92851-3.714l-1.06781-3.66764-3.157.97492,1.02134,3.57479C579.02091,273.3308,579.29945,274.53786,579.62441,275.74494Z"/><path class="cls-10" d="M581.57432,286.60854l3.29622-.41784c-.1393-1.2535-.325-2.55341-.55709-3.80691l-.325-1.90345-.18571-.92851-.18571-.92851-3.2498.65.18571.92851.1393.92851.325,1.81062A31.74226,31.74226,0,0,1,581.57432,286.60854Z"/><path class="cls-10" d="M582.31712,297.565l3.29622-.04642c0-.65,0-1.2535-.04642-1.90344l-.09283-1.90344c-.04641-1.29992-.1393-2.55342-.27854-3.80692l-3.29621.27855c.09283,1.207.23213,2.46055.23213,3.66764l.09282,1.857A8.44776,8.44776,0,0,1,582.31712,297.565Z"/><rect class="cls-6" x="273.86473" y="56.38347" width="9.14587" height="18.84884"/><polygon class="cls-6" points="273.865 65.854 264.347 74.025 264.347 57.683 273.865 65.808 273.865 65.854"/><text class="cls-17" transform="translate(416.35588 61.6301)">AI<tspan class="cls-18" x="21.9502" y="0"> </tspan><tspan x="27.12305" y="0">Agent</tspan></text><text class="cls-19" transform="translate(410.15861 84.65647)"><tspan class="cls-20">T</tspan><tspan x="9.95801" y="0">ools</tspan><tspan class="cls-21" x="46.49512" y="0"> </tspan><tspan x="50.92969" y="0">Agent</tspan></text><path class="cls-22" d="M344.76366,65.25079V75.9287a1.71374,1.71374,0,0,0,1.71773,1.71773h2.92484V63.53306h-2.92484A1.7137,1.7137,0,0,0,344.76366,65.25079Z"/><path class="cls-22" d="M389.98236,63.53306h-2.92484V77.64643h2.92484a1.71374,1.71374,0,0,0,1.71773-1.71773V65.25079A1.7137,1.7137,0,0,0,389.98236,63.53306Z"/><path class="cls-22" d="M380.69716,54.155H370.57634V48.584a1.54564,1.54564,0,0,0-1.53207-1.532H367.373a1.54564,1.54564,0,0,0-1.53207,1.532V54.155h-10.0743a3.99235,3.99235,0,0,0-3.9926,3.9926V80.6641a3.99236,3.99236,0,0,0,3.9926,3.99263h24.93058a3.963,3.963,0,0,0,3.9926-3.99263V58.14763A3.99234,3.99234,0,0,0,380.69716,54.155Zm-17.13109,23.4914H358.9235V75.23232h4.64257Zm-2.27482-8.21733a3.57479,3.57479,0,1,1,3.57476-3.57475A3.57479,3.57479,0,0,1,361.29125,69.4291Zm9.28515,8.21733h-4.64258V75.23232h4.64258Zm7.01027,0h-4.64258V75.23232h4.64258Zm-2.41418-8.21733a3.57479,3.57479,0,1,1,3.57476-3.57475A3.57479,3.57479,0,0,1,375.17249,69.4291Z"/><path class="cls-23" d="M205.38681,342.55152h1.532c.04642,0,.09286.04641.13928.04641a8.58722,8.58722,0,0,1,5.38537,2.69269.30774.30774,0,0,0,.325.09285,8.49555,8.49555,0,0,1,3.06409,0,8.69569,8.69569,0,0,1,6.91744,11.0029.443.443,0,0,0,.13927.55712,8.716,8.716,0,0,1-4.54971,14.02056.60552.60552,0,0,0-.46426.41785,8.73167,8.73167,0,0,1-8.07808,5.71035,8.59343,8.59343,0,0,1-6.40675-2.69268.37438.37438,0,0,0-.41784-.13927,9.40377,9.40377,0,0,1-3.01767.04641,8.69568,8.69568,0,0,1-6.91744-11.0029.59291.59291,0,0,0-.09286-.55711,8.691,8.691,0,0,1,4.54972-14.02057.60548.60548,0,0,0,.46425-.41784,8.38191,8.38191,0,0,1,5.2461-5.15324A8.96618,8.96618,0,0,1,205.38681,342.55152Zm13.09206,25.99839a1.18159,1.18159,0,0,1,.325-.09286,6.282,6.282,0,0,0,3.89977-5.47822,6.05034,6.05034,0,0,0-2.92481-5.89607c-2.32129-1.43919-4.689-2.73913-7.05671-4.08546a.4077.4077,0,0,0-.325-.04641c-.92851.51067-1.857,1.06778-2.832,1.6249a4.08361,4.08361,0,0,1,.46426.27854c2.59983,1.48563,5.15324,2.97126,7.7531,4.45686a1.283,1.283,0,0,1,.7428,1.25349v7.56739A1.1525,1.1525,0,0,0,218.47887,368.54991ZM197.448,351.04742c-.18572.09285-.325.09285-.41784.18571a6.18591,6.18591,0,0,0-3.76048,5.43181A6.08548,6.08548,0,0,0,196.241,362.561c2.27487,1.43919,4.689,2.73913,7.01027,4.08546a.4077.4077,0,0,0,.325.04641c.92851-.51067,1.857-1.06778,2.83195-1.6249a2.66419,2.66419,0,0,0-.325-.18571c-2.59983-1.532-5.2461-3.01767-7.846-4.54971a1.283,1.283,0,0,1-.7428-1.2535v-4.31759C197.448,353.508,197.448,352.30092,197.448,351.04742Zm12.81348-4.7354-.13927-.13928a6.20567,6.20567,0,0,0-5.29254-1.207,6.4667,6.4667,0,0,0-5.15324,6.36032c0,2.3677.04641,4.78185,0,7.14957a1.1876,1.1876,0,0,0,.7428,1.29992c.7428.3714,1.43918.83566,2.22842,1.2535v-9.42444a1.42242,1.42242,0,0,1,.78925-1.34636c2.13557-1.20706,4.27117-2.46056,6.36032-3.66764A4.081,4.081,0,0,1,210.26151,346.312Zm-4.64257,26.97332a6.32911,6.32911,0,0,0,4.96756,1.43919,6.46183,6.46183,0,0,0,5.6175-6.40675c.04641-2.59982,0-5.19968,0-7.79951a.40605.40605,0,0,0-.27855-.41784c-.78924-.46426-1.6249-.92852-2.41414-1.39277l-.27854-.13927v9.47085a1.32622,1.32622,0,0,1-.7428,1.2535c-1.57849.92851-3.20339,1.857-4.78184,2.73913Q206.73316,372.65859,205.61894,373.28534Zm-10.4922-8.728a4.7045,4.7045,0,0,0,0,2.27487,6.42832,6.42832,0,0,0,9.56369,4.364c2.27487-1.2535,4.5033-2.59983,6.73172-3.89977a.406.406,0,0,0,.23213-.41784v-2.832a.69011.69011,0,0,0-.04641-.27854,2.66284,2.66284,0,0,1-.325.18571c-2.59983,1.48563-5.2461,3.01767-7.846,4.54972a1.33217,1.33217,0,0,1-1.48563,0c-1.857-1.11423-3.76047-2.182-5.66394-3.2498A12.75461,12.75461,0,0,0,195.12674,364.55731Zm25.627-9.51727c.04641,0,.09285-.04641.13927-.04641-.04642-.69639,0-1.43919-.09286-2.13557A6.45555,6.45555,0,0,0,211.19,348.4012c-2.22843,1.2535-4.45686,2.55342-6.68532,3.85333a.406.406,0,0,0-.23213.41784v2.832a.58878.58878,0,0,0,.04642.27854c.23213-.13927.3714-.23213.55711-.325,2.55342-1.48563,5.10683-2.92482,7.66024-4.41045a1.26517,1.26517,0,0,1,1.39278,0c1.48562.8821,2.97125,1.71776,4.45685,2.55342C219.12884,354.06509,219.91808,354.57579,220.75374,355.04Zm-9.053,4.78185v-1.90345c0-.23213-.09286-.325-.27855-.46425-1.06778-.60353-2.182-1.2535-3.2498-1.857a.41984.41984,0,0,0-.46425,0c-1.06779.65-2.182,1.2535-3.2498,1.90344a.406.406,0,0,0-.23213.41784v3.71406a.406.406,0,0,0,.23213.41784c1.11422.60353,2.182,1.2535,3.29621,1.90344a.64426.64426,0,0,0,.41784,0c1.11423-.60352,2.182-1.2535,3.29622-1.90344a.406.406,0,0,0,.23213-.41784C211.65428,361.02894,211.70073,360.42541,211.70073,359.82189Z"/><path class="cls-24" d="M569.2251,342.73723h23.81641c.1393.09286.1393.27854.1393.41784v7.2424a1.02231,1.02231,0,0,1-.04642.3714.09985.09985,0,0,1-.09283.09286,1.21722,1.21722,0,0,1-.69638.09286H576.00335c-.83568,0-.78921-.04642-.78921.78924v16.34185a1.16742,1.16742,0,0,1-.09283.69639.51169.51169,0,0,1-.41784.13927h-7.2424a.68994.68994,0,0,1-.41785-.09286c-.09282-.09285-.04641-.23213-.04641-.3714v-23.12a2.53617,2.53617,0,0,1,1.11423-2.22843A2.12364,2.12364,0,0,1,569.2251,342.73723Z"/><path class="cls-25" d="M601.07312,350.76887V368.782l-.09283.09286a2.45367,2.45367,0,0,1-.60356.04641h-6.77814a.92817.92817,0,0,1-.60355-.09286.83727.83727,0,0,1-.1393-.55711V351.46523c0-.23213-.04642-.46426.1393-.65l.04641-.04642a.385.385,0,0,1,.37143-.13927h7.28881A.52741.52741,0,0,1,601.07312,350.76887Z"/><path class="cls-26" d="M601.07312,350.76887h-8.03167v-8.07808h5.80321a2.37489,2.37489,0,0,1,1.90345,1.06778,2.82931,2.82931,0,0,1,.37142,1.16065C601.07312,346.91554,601.07312,348.86543,601.07312,350.76887Z"/><path class="cls-27" d="M575.02831,376.86012c-1.857,0-3.66764.04642-5.52467,0a2.59,2.59,0,0,1-2.507-2.507c-.04641-1.857,0-3.71406,0-5.57109h8.07808a.51159.51159,0,0,1,.1393.41784v7.196A.82546.82546,0,0,1,575.02831,376.86012Z"/><path class="cls-28" d="M601.0267,368.782c-.04641.04641-.09282.13927-.13929.18571l-7.70666,7.70666c-.04642.04641-.1393.09286-.18571.13927a.38493.38493,0,0,1-.1393-.3714v-7.28884a.527.527,0,0,1,.1393-.3714h8.03166Z"/><path class="cls-29" d="M592.995,368.782v8.03167c-.09283.09286-.18572.04641-.27855.04641H575.02831V368.782Z"/><path class="cls-24" d="M580.97077,354.48293a3.28148,3.28148,0,0,1,2.55341,1.16064,2.54471,2.54471,0,0,1-.55709,3.80692c-.23212.18571-.23212.23212,0,.3714a2.81522,2.81522,0,0,1,.69639,4.45685,3.84258,3.84258,0,0,1-6.26747-1.20706c-.09283-.23212-.09283-.3714.18571-.46425a4.407,4.407,0,0,0,.97493-.41785c.18572-.09285.27855-.09285.37143.13928a1.94342,1.94342,0,0,0,1.99633,1.43918,1.69782,1.69782,0,0,0,1.7642-1.532,1.6618,1.6618,0,0,0-1.6249-1.71776,8.2215,8.2215,0,0,0-1.06782-.04641c-.18571,0-.23212-.04642-.23212-.23213v-1.11423c0-.18571.09282-.23213.23212-.23213a3.45521,3.45521,0,0,0,1.20706-.09285,1.37771,1.37771,0,0,0,1.11423-1.34636,1.48764,1.48764,0,0,0-1.857-1.43919,1.57824,1.57824,0,0,0-1.29994,1.02137c-.09283.23213-.18572.23213-.37143.13928a6.71456,6.71456,0,0,0-1.02134-.41785c-.23213-.09285-.23213-.18571-.1393-.3714A3.50145,3.50145,0,0,1,580.97077,354.48293Z"/><path class="cls-30" d="M588.30605,356.98993c-.51067.3714-1.02134.69638-1.4856,1.06778-.18571.13928-.27854.13928-.41784-.09285a5.91407,5.91407,0,0,0-.60356-.8821c-.09283-.13927-.04641-.18572.04642-.27855.92851-.65,1.857-1.34635,2.78554-1.9963.37143-.23212.78921-.04641,1.20705-.09285.04642,0,.09283.04641.09283.13927v9.98153c0,.27854-.04641.3714-.37143.3714a3.75838,3.75838,0,0,0-1.02134,0c-.27854,0-.325-.09286-.325-.325v-7.3817A.91778.91778,0,0,0,588.30605,356.98993Z"/><path class="cls-31" d="M410.91344,365.2537a12.1111,12.1111,0,0,1-1.06781,1.11423,7.298,7.298,0,0,1-1.20706.8821,16.78478,16.78478,0,0,1-6.03534,2.13557,33.48721,33.48721,0,0,1-8.07808.51067,26.548,26.548,0,0,1-8.07809-1.57849,9.10342,9.10342,0,0,1-4.45685-3.11052,2.68322,2.68322,0,0,0-.46426,1.6249c0,1.34635.04641,2.64627,0,3.99259a3.89958,3.89958,0,0,0,1.39277,3.06409,11.93656,11.93656,0,0,0,4.27114,2.32128,27.21261,27.21261,0,0,0,7.47453,1.34636,30.019,30.019,0,0,0,11.09575-1.34636,10.93915,10.93915,0,0,0,4.31762-2.36769,3.54694,3.54694,0,0,0,1.29994-2.59983v-4.5033A3.11622,3.11622,0,0,0,410.91344,365.2537Z"/><path class="cls-31" d="M410.867,355.82929a6.398,6.398,0,0,1-2.22845,2.08915,19.61608,19.61608,0,0,1-7.14957,2.32129,34.33392,34.33392,0,0,1-8.17092.23213,25.29866,25.29866,0,0,1-6.91744-1.532,8.981,8.981,0,0,1-4.41044-3.11052,2.68322,2.68322,0,0,0-.46426,1.6249c0,1.34635.04642,2.64627,0,3.99259a3.76558,3.76558,0,0,0,1.34636,3.01768,11.26385,11.26385,0,0,0,4.27114,2.32128,27.34789,27.34789,0,0,0,7.2424,1.34636,29.5944,29.5944,0,0,0,11.3743-1.34636,11.26672,11.26672,0,0,0,4.31761-2.3677,3.451,3.451,0,0,0,1.29994-2.55341c.04642-1.532,0-3.01767,0-4.54972A3.00373,3.00373,0,0,0,410.867,355.82929Z"/><path class="cls-31" d="M382.87231,355.365a11.81333,11.81333,0,0,0,4.31761,2.32128,25.7108,25.7108,0,0,0,6.77814,1.2535,31.10819,31.10819,0,0,0,11.69926-1.2535,11.44979,11.44979,0,0,0,4.364-2.3677,3.54692,3.54692,0,0,0,1.3-2.59982c0-1.48563.04641-2.97126,0-4.45686a7.40391,7.40391,0,0,0-.27855-1.39277h-.09283a2.07916,2.07916,0,0,0-.78921-1.532,8.1149,8.1149,0,0,0-2.73913-1.57849,27.78455,27.78455,0,0,0-7.52094-1.532L398.1,342.08732H394.6645c-.09283,0-.18571.04641-.27854.04641-.97493.09286-1.94986.13927-2.92484.23213a24.99239,24.99239,0,0,0-6.12817,1.39277,7.91334,7.91334,0,0,0-2.64625,1.532,2.15889,2.15889,0,0,0-.78921,1.53205,2.82939,2.82939,0,0,0-.37143,1.48562c0,1.34636.04642,2.69269,0,4.03905A3.70316,3.70316,0,0,0,382.87231,355.365Z"/><path class="cls-31" d="M125.72031,133.45014a1.633,1.633,0,0,1-1.81061,1.20708c-6.03534,0-12.07068.09285-18.106-.04643a19.66075,19.66075,0,0,1-13.69559-5.80322,12.25654,12.25654,0,0,1-2.22843-2.8784,1.00344,1.00344,0,0,1,.51068-.04642c2.78554,0,5.61749.04642,8.403-.04643a22.98674,22.98674,0,0,0,14.99549-5.84964,17.815,17.815,0,0,0,5.7568-9.88867,20.669,20.669,0,0,0,.325-3.0641c.41784.3714.83566.69638,1.207,1.06778a15.473,15.473,0,0,1,3.85333,5.98892,11.30414,11.30414,0,0,1,.69639,3.24979c0,.09286,0,.1857.09286.23213v1.34635a6.22,6.22,0,0,0-.04642.92851,11.5349,11.5349,0,0,1-1.02137,4.31759,13.9358,13.9358,0,0,1-2.55341,3.99261c-.23213.27856-.18572.46426.04641.74281l3.01767,3.01767a1.55435,1.55435,0,0,1,.51067.92852A2.45063,2.45063,0,0,1,125.72031,133.45014Z"/><path class="cls-31" d="M125.72031,119.94026h-.09285a1.93012,1.93012,0,0,1,.09285-1.02137Z"/><path class="cls-31" d="M89.694,122.95793H80.59455a1.47724,1.47724,0,0,1-1.02137-2.64627c1.02137-1.02137,2.08916-2.08916,3.15694-3.11053.27855-.27855.325-.46425.04642-.74281a13.84738,13.84738,0,0,1-3.01767-5.2461,13.18788,13.18788,0,0,1,.27854-9.33157,16.75788,16.75788,0,0,1,8.03164-8.63518,21.40042,21.40042,0,0,1,12.07068-2.32129,19.73479,19.73479,0,0,1,11.235,4.54971,14.81429,14.81429,0,0,1,5.52467,9.65655,13.08773,13.08773,0,0,1-1.532,8.26377,17.96681,17.96681,0,0,1-11.04931,8.63518,21.4,21.4,0,0,1-6.40675.92851C95.07935,122.95793,92.38666,122.95793,89.694,122.95793Z"/><rect class="cls-10" x="330.14084" y="116.39998" width="16.57379" height="16.57382" transform="translate(10.95625 275.8245) rotate(-45)"/><polygon class="cls-10" points="336.075 134.1 332.593 138.789 344.293 138.789 340.718 134.1 336.075 134.1"/><rect class="cls-10" x="451.3111" y="116.40083" width="16.57379" height="16.57382" transform="translate(46.44559 361.50505) rotate(-45)"/><polygon class="cls-14" points="457.246 134.1 453.764 138.789 465.464 138.789 461.889 134.1 457.246 134.1"/><rect class="cls-10" x="511.19983" y="116.40125" width="16.57379" height="16.57382" transform="translate(63.9863 403.85291) rotate(-45)"/><polygon class="cls-10" points="517.135 134.1 513.653 138.789 525.353 138.789 521.778 134.1 517.135 134.1"/><circle class="cls-6" cx="160.95744" cy="112.74428" r="9.70298"/><line class="cls-16" x1="586.82418" y1="65.34031" x2="645.36325" y2="65.34031"/><path class="cls-32" d="M666.11552,77.69287H648.1488a2.79372,2.79372,0,0,1-2.78555-2.78554V56.89416a2.79372,2.79372,0,0,1,2.78555-2.78554h17.96672a2.79372,2.79372,0,0,1,2.78554,2.78554V74.86091A2.80391,2.80391,0,0,1,666.11552,77.69287Z"/><circle class="cls-6" cx="579.53158" cy="65.9936" r="9.70298"/></svg>