<?xml version="1.0" encoding="utf-8"?>
<!-- Generator: Adobe Illustrator 24.3.0, SVG Export Plug-In . SVG Version: 6.00 Build 0)  -->
<svg version="1.1" id="Layer_1" xmlns="http://www.w3.org/2000/svg" xmlns:xlink="http://www.w3.org/1999/xlink" x="0px" y="0px"
	 width="512px" height="512px" viewBox="0 0 512 512" style="enable-background:new 0 0 512 512;" xml:space="preserve">
<style type="text/css">
	.st0{fill:#FFFFFF;}
</style>
<g>
	<path class="st0" d="M346.6,97.4H40.8c-18.8,0-34,15.2-34,34v249.2c0,18.8,15.2,34,34,34h305.8c18.8,0,34-15.2,34-34V131.4
		C380.6,112.6,365.4,97.4,346.6,97.4z M324,196.4c0,3.8-3.1,6.8-6.8,6.8h-35.5c-3.8,0-6.8-3.1-6.8-6.8v-35.5c0-3.8,3.1-6.8,6.8-6.8
		h35.5c3.8,0,6.8,3,6.8,6.8V196.4z"/>
	<path class="st0" d="M505.2,142.7v226.5c0,4.1-2.2,7.8-5.7,9.9c-1.7,1-3.7,1.5-5.7,1.5c-2,0-3.9-0.5-5.7-1.5l-84.9-48.9V181.8
		l84.9-48.9c3.5-1.9,7.8-1.9,11.3,0C503,134.9,505.2,138.7,505.2,142.7z"/>
</g>
</svg>
