<?xml version="1.0" encoding="utf-8"?>
<!-- Generator: Adobe Illustrator 24.3.0, SVG Export Plug-In . SVG Version: 6.00 Build 0)  -->
<svg version="1.1" id="Layer_1" xmlns="http://www.w3.org/2000/svg" xmlns:xlink="http://www.w3.org/1999/xlink" x="0px" y="0px"
	 width="512px" height="512px" viewBox="0 0 512 512" style="enable-background:new 0 0 512 512;" xml:space="preserve">
<style type="text/css">
	.st0{fill:#FFFFFF;}
</style>
<g>
	<path class="st0" d="M484.6,369.1l-67.5-67.5c-24.1-24.1-65.1-14.5-74.7,16.9c-7.2,21.7-31.3,33.7-53,28.9
		c-48.2-12-113.3-74.7-125.3-125.3c-7.2-21.7,7.2-45.8,28.9-53c31.3-9.6,41-50.6,16.9-74.7l-67.5-67.5C123.1,10,94.2,10,77.3,26.9
		L31.5,72.7c-45.8,48.2,4.8,175.9,118.1,289.2s241,166.3,289.2,118.1l45.8-45.8C501.5,414.9,501.5,386,484.6,369.1L484.6,369.1z"/>
</g>
</svg>
