<?xml version="1.0" encoding="utf-8"?>
<!-- Generator: Adobe Illustrator 24.3.0, SVG Export Plug-In . SVG Version: 6.00 Build 0)  -->
<svg version="1.1" id="Layer_1" xmlns="http://www.w3.org/2000/svg" xmlns:xlink="http://www.w3.org/1999/xlink" x="0px" y="0px"
	 width="512px" height="512px" viewBox="0 0 512 512" style="enable-background:new 0 0 512 512;" xml:space="preserve">
<style type="text/css">
	.st0{fill:#FFFFFF;}
</style>
<g>
	<path class="st0" d="M381.2,188.6v134.8c0,16-12.9,28.9-28.9,28.9c-16,0-28.9-12.9-28.9-28.9V188.6c0-16,12.9-28.9,28.9-28.9
		C368.2,159.7,381.2,172.7,381.2,188.6z M256,24.9c-16,0-28.9,12.9-28.9,28.9v404.4c0,16,12.9,28.9,28.9,28.9s28.9-12.9,28.9-28.9
		V53.8C284.9,37.9,272,24.9,256,24.9z M448.6,102c-16,0-28.9,12.9-28.9,28.9v250.3c0,16,12.9,28.9,28.9,28.9s28.9-12.9,28.9-28.9
		V130.8C477.4,114.9,464.5,102,448.6,102z M159.7,121.2c-16,0-28.9,12.9-28.9,28.9v211.8c0,16,12.9,28.9,28.9,28.9
		s28.9-12.9,28.9-28.9V150.1C188.6,134.1,175.7,121.2,159.7,121.2z M63.4,198.2c-16,0-28.9,12.9-28.9,28.9v57.8
		c0,16,12.9,28.9,28.9,28.9s28.9-12.9,28.9-28.9v-57.8C92.3,211.2,79.4,198.2,63.4,198.2z"/>
</g>
</svg>
