<?xml version="1.0" encoding="utf-8"?>
<!-- Generator: Adobe Illustrator 24.3.0, SVG Export Plug-In . SVG Version: 6.00 Build 0)  -->
<svg version="1.1" id="Layer_1" xmlns="http://www.w3.org/2000/svg" xmlns:xlink="http://www.w3.org/1999/xlink" x="0px" y="0px"
	 width="512px" height="512px" viewBox="0 0 512 512" style="enable-background:new 0 0 512 512;" xml:space="preserve">
<style type="text/css">
	.st0{fill:#FFFFFF;}
</style>
<g>
	<path class="st0" d="M256.1,9.4h-0.1C119.9,9.4,9.4,120,9.4,256c0,54,17.4,104,47,144.6l-30.7,91.6l94.8-30.3
		c39,25.8,85.5,40.8,135.7,40.8c136,0,246.6-110.6,246.6-246.6S392.1,9.4,256.1,9.4z M399.6,357.6c-6,16.8-29.6,30.7-48.4,34.8
		c-12.9,2.7-29.7,4.9-86.4-18.6c-72.5-30-119.2-103.7-122.8-108.5c-3.5-4.8-29.3-39-29.3-74.4s18-52.6,25.2-60
		c6-6.1,15.8-8.8,25.2-8.8c3.1,0,5.8,0.2,8.3,0.3c7.2,0.3,10.9,0.7,15.7,12.2c6,14.3,20.4,49.7,22.2,53.4c1.8,3.6,3.5,8.6,1,13.3
		c-2.3,4.9-4.3,7.1-8,11.3c-3.6,4.2-7.1,7.4-10.7,11.9c-3.3,3.9-7.1,8.1-2.9,15.4c4.2,7.1,18.7,30.7,40,49.7
		c27.5,24.5,49.9,32.3,57.8,35.7c6,2.5,13,1.9,17.4-2.7c5.5-6,12.3-15.8,19.3-25.5c4.9-7,11.2-7.8,17.7-5.4
		c6.7,2.3,41.9,19.7,49.1,23.3c7.2,3.6,12,5.4,13.8,8.4C405.5,326.5,405.5,340.8,399.6,357.6z"/>
</g>
</svg>
