<?xml version="1.0" encoding="utf-8"?>
<!-- Generator: Adobe Illustrator 24.3.0, SVG Export Plug-In . SVG Version: 6.00 Build 0)  -->
<svg version="1.1" id="Layer_1" xmlns="http://www.w3.org/2000/svg" xmlns:xlink="http://www.w3.org/1999/xlink" x="0px" y="0px"
	 width="512px" height="512px" viewBox="0 0 512 512" style="enable-background:new 0 0 512 512;" xml:space="preserve">
<style type="text/css">
	.st0{fill:#FFFFFF;}
</style>
<g>
	<path class="st0" d="M436.9,24.9H75.2c-33.9,0-61.5,27.6-61.5,61.6v244.2c0,32.6,25.4,59.3,57.5,61.4c-22.6,42-52.6,70-52.9,70.3
		c-10.6,9.8-1.4,27.4,12.7,24.3c4.7-1,112.2-25.5,168.9-94.5h237.1c33.9,0,61.5-27.6,61.5-61.6V86.5
		C498.4,52.5,470.8,24.9,436.9,24.9L436.9,24.9z M128.7,138.1c7.8,0,14.2,6.4,14.2,14.2c0,7.8-6.4,14.2-14.2,14.2
		s-14.2-6.4-14.2-14.2C114.5,144.5,120.8,138.1,128.7,138.1z M325.1,279.2H128.7c-7.8,0-14.2-6.4-14.2-14.2s6.4-14.2,14.2-14.2
		h196.5c7.8,0,14.2,6.4,14.2,14.2S333,279.2,325.1,279.2z M384.3,279.2c-7.8,0-14.2-6.4-14.2-14.2s6.4-14.2,14.2-14.2
		c7.8,0,14.2,6.4,14.2,14.2C398.5,272.8,392.2,279.2,384.3,279.2z M384.3,222.4H128.7c-7.8,0-14.2-6.4-14.2-14.2
		c0-7.8,6.4-14.2,14.2-14.2h255.7c7.8,0,14.2,6.4,14.2,14.2C398.5,216,392.2,222.4,384.3,222.4L384.3,222.4z M384.3,165.6H185
		c-7.8,0-14.2-6.4-14.2-14.2c0-7.8,6.4-14.2,14.2-14.2h199.3c7.8,0,14.2,6.4,14.2,14.2C398.5,159.2,392.2,165.6,384.3,165.6z"/>
</g>
</svg>
