<?xml version="1.0" encoding="utf-8"?>
<!-- Generator: Adobe Illustrator 24.3.0, SVG Export Plug-In . SVG Version: 6.00 Build 0)  -->
<svg version="1.1" id="Layer_1" xmlns="http://www.w3.org/2000/svg" xmlns:xlink="http://www.w3.org/1999/xlink" x="0px" y="0px"
	 width="391.8px" height="91.9px" viewBox="0 0 391.8 91.9" style="enable-background:new 0 0 391.8 91.9;" xml:space="preserve">
<style type="text/css">
	.st0{fill:#FFFFFF;}
	.st1{fill:#836AFC;}
	.st2{fill:#07D3B0;}
	.st3{fill:#FF4772;}
	.st4{fill:#F0D009;}
</style>
<g>
	<g>
		<path class="st0" d="M4.2,73.5c-0.3-0.3-0.4-0.6-0.4-1V18.9c0-0.4,0.1-0.8,0.4-1.1c0.3-0.3,0.6-0.4,1-0.4h8.7c0.4,0,0.7,0.1,1,0.4
			c0.3,0.3,0.4,0.7,0.4,1.1v18.5l16.4-19.2c0.5-0.6,1.1-0.9,1.8-0.9h11.5c0.6,0,0.9,0.1,1,0.3c0.1,0.2,0.1,0.4-0.1,0.6L16.7,52.7
			c-0.9,1-1.3,2.3-1.3,3.9v15.9c0,0.4-0.1,0.7-0.4,1c-0.3,0.3-0.6,0.4-1,0.4H5.2C4.9,73.9,4.5,73.8,4.2,73.5z M33.7,73.5
			c-0.5-0.2-0.9-0.6-1.2-1.1l-8.5-12.2c-0.4-0.6-0.6-1.1-0.6-1.5c0-0.5,0.2-1,0.6-1.5c0.4-0.5,0.9-1.1,1.5-1.7
			c0.6-0.7,1.1-1.3,1.7-1.9l1.7-2c0.3-0.4,0.7-0.6,1.1-0.6c0.5,0,0.9,0.2,1.2,0.7l14.5,20.6c0.1,0.2,0.2,0.4,0.2,0.6
			c0,0.7-0.5,1.1-1.5,1.1h-8.2C35.1,73.9,34.2,73.7,33.7,73.5z"/>
		<path class="st0" d="M149.8,71.1c-4.5-2.6-8-6.2-10.6-10.6c-2.6-4.5-3.9-9.4-3.9-14.7s1.3-10.2,3.9-14.7c2.6-4.5,6.2-8,10.6-10.6
			c4.5-2.6,9.4-3.9,14.7-3.9c1.2,0,2.4,0.1,3.6,0.2c0.5,0.1,0.9,0.3,1.1,0.6c0.3,0.4,0.3,0.8,0.2,1.3l-1.3,7
			c-0.2,0.9-0.7,1.3-1.6,1.3l-2.1-0.1c-3.4,0-6.5,0.8-9.4,2.5c-2.9,1.7-5.2,4-6.9,6.9c-1.7,2.9-2.5,6-2.5,9.4c0,3.4,0.8,6.5,2.5,9.4
			c1.7,2.9,4,5.2,6.9,6.9c2.9,1.7,6,2.5,9.4,2.5c3.9,0,7.4-1.1,10.3-3.3c3-2.2,5.1-5.2,6.5-8.9H171c-0.4,0-0.8-0.2-1.1-0.5
			c-0.3-0.3-0.5-0.7-0.5-1.1v-5.9c0-0.4,0.2-0.8,0.5-1.1c0.3-0.3,0.7-0.5,1.1-0.5h17.2c1.3,0,2.3,0.2,3,0.6c0.7,0.4,1,1,1,1.9
			c0,5.4-1.2,10.3-3.5,14.8c-2.4,4.5-5.7,8-9.9,10.6c-4.2,2.6-9,3.9-14.2,3.9C159.2,75,154.3,73.7,149.8,71.1z"/>
		<path class="st0" d="M201.2,27c-0.3-0.3-0.4-0.7-0.4-1.1v-6.9c0-0.4,0.1-0.8,0.4-1c0.3-0.3,0.6-0.4,1-0.4h17.4
			c0.4,0,0.8,0.1,1.1,0.4c0.3,0.3,0.4,0.6,0.4,1v6.9c0,0.4-0.1,0.7-0.4,1c-0.3,0.3-0.7,0.5-1.1,0.5h-17.4
			C201.8,27.4,201.5,27.3,201.2,27z M201.2,73.5c-0.3-0.3-0.4-0.6-0.4-1V35.2c0-0.4,0.1-0.8,0.4-1c0.3-0.3,0.6-0.4,1-0.4h6.9
			c0.4,0,0.8,0.1,1,0.4c0.3,0.3,0.4,0.6,0.4,1V41c0,1,0.7,1.5,2.1,1.5h20.3c0.4,0,0.7,0.1,1,0.4c0.3,0.2,0.4,0.6,0.4,0.9v6.9
			c0,0.4-0.1,0.7-0.4,0.9c-0.3,0.2-0.6,0.4-1,0.4h-20.6c-1.2,0-1.9,0.6-1.9,1.7v8.8c0,0.4,0.2,0.7,0.5,1c0.3,0.3,0.7,0.5,1,0.5h27.7
			c0.4,0,0.8,0.1,1,0.4c0.3,0.3,0.4,0.6,0.4,1v6.9c0,0.4-0.1,0.7-0.4,1c-0.3,0.3-0.6,0.4-1,0.4h-37.6
			C201.8,73.9,201.5,73.8,201.2,73.5z"/>
		<path class="st0" d="M283.2,72.9c-2.1-3.3-5.5-8.6-10.3-16c-4.8-7.4-8.3-13-10.8-16.8c-0.3-0.4-0.5-0.6-0.6-0.6
			c-0.1,0-0.2,0.1-0.2,0.3c0,0.2,0,0.4,0,0.5l0.2,9.5c0,0.4-0.1,0.7-0.4,1c-0.3,0.3-0.6,0.4-1,0.4h-7.8c-0.4,0-0.8-0.1-1.1-0.4
			c-0.3-0.3-0.4-0.6-0.4-1V19.1c0-0.4,0.1-0.8,0.4-1.1c0.3-0.3,0.7-0.4,1.1-0.4h7.9c0.4,0,0.7,0.2,1,0.5l19.5,32.5
			c0.5,0.9,0.9,1.4,1.2,1.4c0.3,0,0.4-0.5,0.4-1.4L282,19.1c0-0.4,0.1-0.8,0.4-1.1c0.3-0.3,0.6-0.4,1-0.4h8.5c0.4,0,0.8,0.1,1.1,0.4
			c0.3,0.3,0.4,0.7,0.4,1.1v53.2c0,0.4-0.1,0.8-0.4,1c-0.3,0.3-0.7,0.4-1.1,0.4h-7.4h-0.1h-0.1C284,73.8,283.6,73.5,283.2,72.9z"/>
		<path class="st0" d="M310.4,72.7V29.2c0-0.5-0.2-1-0.6-1.3c-0.4-0.3-0.8-0.5-1.4-0.5h-4.6c-0.3,0-0.5-0.1-0.7-0.3
			c-0.2-0.2-0.3-0.5-0.3-0.8v-7.5c0-0.3,0.1-0.6,0.3-0.8c0.2-0.2,0.5-0.3,0.7-0.3h35.2c0.3,0,0.5,0.1,0.7,0.3
			c0.2,0.2,0.3,0.5,0.3,0.8v7.5c0,0.3-0.1,0.6-0.3,0.8c-0.2,0.2-0.5,0.3-0.7,0.3H324c-0.5,0-1,0.2-1.4,0.6c-0.4,0.4-0.6,0.8-0.6,1.3
			v43.5c0,0.3-0.1,0.6-0.3,0.8c-0.2,0.2-0.5,0.3-0.7,0.3h-9.6C310.7,73.8,310.4,73.4,310.4,72.7z"/>
		<path class="st0" d="M381.4,46.3c2,1,3.6,2.5,4.8,4.4s1.8,4.3,1.8,7.5c0,3-0.8,5.7-2.5,8c-1.6,2.3-4,4.1-7,5.4
			c-3,1.3-6.5,2-10.4,2c-0.9,0-2-0.1-3.3-0.3c-0.5-0.1-0.9-0.2-1.1-0.4c-0.2-0.2-0.3-0.6-0.2-1.1l0.3-2.3c0.1-0.4,0.1-0.9,0.2-1.5
			c0.1-0.6,0.1-1.1,0.2-1.6c0.1-0.9,0.6-1.3,1.5-1.3l3.4,0.1c2.7,0,4.9-0.6,6.6-1.9c1.7-1.2,2.5-2.8,2.5-4.6c0-1.3-0.5-2.7-1.4-4
			c-0.6-0.8-1.7-1.5-3.2-2.2c-1.6-0.7-3.7-1.5-6.4-2.3c-4.1-1.4-7.4-2.7-10-3.9c-2.6-1.2-4.4-2.7-5.7-4.5c-1.5-2.4-2.3-4.8-2.3-7.3
			c0-2.6,0.8-5.1,2.3-7.5c1.5-2.4,3.7-4.3,6.4-5.9c2.7-1.6,5.9-2.6,9.4-2.9c2.6-0.1,5.1,0.1,7.6,0.5c2.5,0.4,4.6,1.1,6.4,1.9
			c1.7,0.9,3.2,1.9,4.7,3.1c0.3,0.2,0.5,0.5,0.6,0.7c0.2,0.3,0.2,0.5,0.2,0.6c-0.3,0.6-1.2,2-2.7,4.2l-1,1.4
			c-0.2,0.2-0.4,0.2-0.7,0.2c-0.3,0-0.5-0.1-0.8-0.2c-2.2-1.2-4.1-2.1-5.7-2.5c-1.9-0.5-3.8-0.8-5.6-0.8c-2.2,0-4.3,0.4-6.2,1.1
			c-1.5,0.7-2.6,1.5-3.4,2.5c-0.8,1-1.2,2-1.2,3c0,1.6,0.9,3,2.8,4.2c0.8,0.5,2.2,1.2,4.5,2.3c2.2,1,4.1,1.8,5.7,2.3
			C376.5,44,379.4,45.3,381.4,46.3z M383.4,30.5C383.4,30.4,383.4,30.4,383.4,30.5L383.4,30.5z"/>
	</g>
	<circle class="st1" cx="256" cy="69.3" r="5.4"/>
	<circle class="st2" cx="184.4" cy="22.4" r="5.4"/>
	<circle class="st3" cx="235.8" cy="22.4" r="5.4"/>
	<circle class="st4" cx="352.5" cy="65.7" r="5.4"/>
	<g>
		<path class="st1" d="M88.7,77.5c-2.5,0-4.6,1.6-5.5,3.7c-0.2,0.6-0.4,1.1-0.5,1.7v0.6c0,3.3,2.7,6,5.9,6c3.3-0.1,5.9-2.7,5.9-6V83
			c-0.1-0.6-0.2-1.2-0.5-1.7C93.3,79.1,91.2,77.6,88.7,77.5z"/>
		<path class="st3" d="M88.7,17.3c4-0.1,7.3-3.4,7.3-7.5V9.2c-0.1-0.8-0.3-1.5-0.6-2.2c-1.1-2.7-3.7-4.6-6.8-4.6
			c-3.1,0-5.7,1.9-6.8,4.6c-0.3,0.7-0.5,1.4-0.6,2.2v0.7C81.3,13.9,84.6,17.3,88.7,17.3z"/>
		<path class="st2" d="M123.1,53c-0.4,0-0.8,0-1.1,0.1c-0.4,0.1-0.7,0.2-1.1,0.3h0c-2.2,0.9-3.8,3.1-3.8,5.6c0,1.5,0.6,2.8,1.5,3.9
			v0c0.3,0.3,0.6,0.6,0.9,0.9c1,0.8,2.2,1.2,3.6,1.2c3.3,0,6-2.7,6-5.9C129,55.7,126.3,53,123.1,53z"/>
		<path class="st4" d="M53.9,53.3c-0.4,0-0.8,0-1.1,0.1c-0.4,0.1-0.7,0.2-1.1,0.3h0c-2.2,0.9-3.8,3.1-3.8,5.6c0,1.5,0.6,2.8,1.5,3.9
			v0c0.3,0.3,0.6,0.6,0.9,0.9c1,0.8,2.2,1.2,3.6,1.2c3.3,0,6-2.7,6-5.9C59.9,56,57.2,53.3,53.9,53.3z"/>
		<path class="st3" d="M88.7,21.5C88.7,21.5,88.6,21.5,88.7,21.5C88.7,21.5,88.6,21.5,88.7,21.5z"/>
		<path class="st3" d="M120.2,35.9l-7.2-1.6l-0.5,4.4l-2.8-0.6c-2.9-8.9-11.3-14.3-21.1-14.5c-9.8,0.2-18,5.6-20.9,14.5l-2.7,0.6
			l-0.5-4.4l-7.3,1.6C60,25.6,67.7,18.2,76.6,16.3c1.5-0.3,2.9,0.3,3.8,1.5c2.1,2.7,4.8,3.7,8.2,3.7c1.9,0.1,6.3-1.1,8.3-3.8l0,0
			c0.9-1.1,2.3-1.6,3.7-1.3C109.6,18.2,117.3,25.6,120.2,35.9z"/>
		<path class="st4" d="M70.6,66.5l-5.6-2.2L63.2,70c-0.6-0.8-1.2-1.5-1.7-2.3c-0.8-1.2-0.6-2.9,0.4-3.9c1.1-1.4,1.8-3.2,1.8-5
			c0-3.4-1.9-6.3-5.2-7.8L58,50.8c-1.3-0.4-2.2-1.6-2.2-3c0-2.9,0.3-6.1,0.6-8.2l5-1.1l0.5,4.4l5-1.1c-0.2,1.3-0.4,2.9-0.4,3.5
			c0,0.4,0,0.8,0,1.2c-0.2,5.2,2.8,11.3,5.1,15.1L70.6,66.5z"/>
		<path class="st2" d="M121.6,47.8c0,1.4-0.9,2.6-2.2,3c-3.9,1.2-5.7,4.5-5.7,7.9c0,1.8,0.6,3.6,1.8,5c1.1,1,1.3,2.7,0.4,3.9
			c-0.5,0.8-1.1,1.6-1.7,2.3l-1.7-5.7l-5.6,2.3l-1.2-5c2.3-3.8,5.3-9.8,5.1-15.1c0-0.4,0-0.8,0-1.2c0-0.5-0.2-2.1-0.4-3.4l4.9,1.1
			l0.5-4.4l5.1,1.1C121.3,41.7,121.6,44.9,121.6,47.8z"/>
		<path class="st1" d="M111.5,73c-0.8,0.7-2.2,1.9-2.4,2.1l-1.1,0.8c-0.4,0.3-0.7,0.4-1.1,0.7c-1.4,1-3,1.7-5,2.2
			c-1.9,0.5-2.3,0.4-3.7,0.2c-1.1-0.1-2.1-0.7-2.7-1.6c-1.5-2.2-4-3.6-6.8-3.6c-2.8,0-5.3,1.4-6.8,3.6c-0.6,0.9-1.6,1.5-2.7,1.6
			c-1.5,0.1-2.6,0-3.7-0.2c-2-0.4-3.5-1.2-5-2.2c-0.4-0.2-0.8-0.5-1.1-0.8l-1-0.7c-0.1-0.1-0.8-0.7-1.5-1.3
			c-0.3-0.3-0.6-0.5-0.9-0.8l1.2-4.1l6,2.3l1.3-6.1c0,0,0.1,0.1,0.1,0.1c0,0,0,0.1,0.1,0.1c0.6,0.6,1.2,1.2,1.9,1.8
			c0,0,0.1,0,0.1,0.1c1.2,1.1,2.8,2,4.4,3l0.7,0.4c1.9,1,3.8,1.5,7,1.6c4.9-0.2,8-1.8,11-4.1c0.8-0.6,1.5-1.2,2.2-1.8
			c0.2-0.2,0.6-0.5,1.1-1.1l0.3,1.2l0,0l-0.3,1.1l0.8,5.3v0l6.1-0.8l1.3,0.2L111.5,73z"/>
		<polygon class="st1" points="111.2,72.1 109.9,71.9 103.8,72.7 103,67.4 103.3,66.3 103.3,66.3 104.5,71.3 110.3,69 		"/>
	</g>
</g>
</svg>
