<?xml version="1.0" encoding="utf-8"?>
<!-- Generator: Adobe Illustrator 24.3.0, SVG Export Plug-In . SVG Version: 6.00 Build 0)  -->
<svg version="1.1" id="Layer_1" xmlns="http://www.w3.org/2000/svg" xmlns:xlink="http://www.w3.org/1999/xlink" x="0px" y="0px"
	 viewBox="0 0 384.2 87.2" style="enable-background:new 0 0 384.2 87.2;" xml:space="preserve">
<style type="text/css">
	.st0{fill:#FFFFFF;}
	.st1{fill:#FFFFFF;}
	.st2{fill:#FFFFFF;}
	.st3{fill:#FFFFFF;}
	.st4{fill:#FFFFFF;}
</style>
<g>
	<g>
		<path class="st0" d="M0.4,71.1c-0.3-0.3-0.4-0.6-0.4-1V16.6c0-0.4,0.1-0.8,0.4-1.1c0.3-0.3,0.6-0.4,1-0.4h8.7c0.4,0,0.7,0.1,1,0.4
			s0.4,0.7,0.4,1.1v18.5l16.4-19.2c0.5-0.6,1.1-0.9,1.8-0.9h11.5c0.6,0,0.9,0.1,1,0.3c0.1,0.2,0.1,0.4-0.1,0.6L12.8,50.2
			c-0.9,1-1.3,2.3-1.3,3.9v16c0,0.4-0.1,0.7-0.4,1s-0.6,0.4-1,0.4H1.4C1.1,71.6,0.7,71.4,0.4,71.1z M29.9,71.1
			c-0.5-0.2-0.9-0.6-1.2-1.1l-8.5-12.2c-0.4-0.6-0.6-1.1-0.6-1.5c0-0.5,0.2-1,0.6-1.5s0.9-1.1,1.5-1.7c0.6-0.7,1.1-1.3,1.7-1.9
			l1.7-2c0.3-0.4,0.7-0.6,1.1-0.6c0.5,0,0.9,0.2,1.2,0.7l14.5,20.6c0.1,0.2,0.2,0.4,0.2,0.6c0,0.7-0.5,1.1-1.5,1.1h-8.2
			C31.3,71.5,30.4,71.4,29.9,71.1z"/>
		<path class="st0" d="M146,68.7c-4.5-2.6-8-6.2-10.6-10.6c-2.6-4.5-3.9-9.4-3.9-14.7s1.3-10.2,3.9-14.7c2.6-4.5,6.2-8,10.6-10.6
			c4.5-2.6,9.4-3.9,14.7-3.9c1.2,0,2.4,0.1,3.6,0.2c0.5,0.1,0.9,0.3,1.1,0.6c0.3,0.4,0.3,0.8,0.2,1.3l-1.3,7
			c-0.2,0.9-0.7,1.3-1.6,1.3l-2.1-0.1c-3.4,0-6.5,0.8-9.4,2.5s-5.2,4-6.9,6.9c-1.7,2.9-2.5,6-2.5,9.4s0.8,6.5,2.5,9.4
			c1.7,2.9,4,5.2,6.9,6.9c2.9,1.7,6,2.5,9.4,2.5c3.9,0,7.4-1.1,10.3-3.3c3-2.2,5.1-5.2,6.5-8.9h-10.2c-0.4,0-0.8-0.2-1.1-0.5
			c-0.3-0.3-0.5-0.7-0.5-1.1v-5.9c0-0.4,0.2-0.8,0.5-1.1s0.7-0.5,1.1-0.5h17.2c1.3,0,2.3,0.2,3,0.6s1,1,1,1.9
			c0,5.4-1.2,10.3-3.5,14.8c-2.4,4.5-5.7,8-9.9,10.6c-4.2,2.6-9,3.9-14.2,3.9C155.4,72.6,150.5,71.3,146,68.7z"/>
		<path class="st0" d="M197.4,24.6c-0.3-0.3-0.4-0.7-0.4-1.1v-6.9c0-0.4,0.1-0.8,0.4-1c0.3-0.3,0.6-0.4,1-0.4h17.4
			c0.4,0,0.8,0.1,1.1,0.4c0.3,0.3,0.4,0.6,0.4,1v6.9c0,0.4-0.1,0.7-0.4,1s-0.7,0.5-1.1,0.5h-17.4C198,25,197.7,24.9,197.4,24.6z
			 M197.4,71.1c-0.3-0.3-0.4-0.6-0.4-1V32.9c0-0.4,0.1-0.8,0.4-1c0.3-0.3,0.6-0.4,1-0.4h6.9c0.4,0,0.8,0.1,1,0.4
			c0.3,0.3,0.4,0.6,0.4,1v5.8c0,1,0.7,1.5,2.1,1.5h20.3c0.4,0,0.7,0.1,1,0.4c0.3,0.2,0.4,0.6,0.4,0.9v6.9c0,0.4-0.1,0.7-0.4,0.9
			c-0.3,0.2-0.6,0.4-1,0.4h-20.6c-1.2,0-1.9,0.6-1.9,1.7v8.8c0,0.4,0.2,0.7,0.5,1s0.7,0.5,1,0.5h27.7c0.4,0,0.8,0.1,1,0.4
			c0.3,0.3,0.4,0.6,0.4,1V70c0,0.4-0.1,0.7-0.4,1s-0.6,0.4-1,0.4h-37.6C198,71.6,197.7,71.4,197.4,71.1z"/>
		<path class="st0" d="M279.4,70.6c-2.1-3.3-5.5-8.6-10.3-16s-8.3-13-10.8-16.8c-0.3-0.4-0.5-0.6-0.6-0.6s-0.2,0.1-0.2,0.3
			c0,0.2,0,0.4,0,0.5l0.2,9.5c0,0.4-0.1,0.7-0.4,1s-0.6,0.4-1,0.4h-7.8c-0.4,0-0.8-0.1-1.1-0.4c-0.3-0.3-0.4-0.6-0.4-1V16.7
			c0-0.4,0.1-0.8,0.4-1.1c0.3-0.3,0.7-0.4,1.1-0.4h7.9c0.4,0,0.7,0.2,1,0.5l19.5,32.5c0.5,0.9,0.9,1.4,1.2,1.4
			c0.3,0,0.4-0.5,0.4-1.4l-0.3-31.5c0-0.4,0.1-0.8,0.4-1.1c0.3-0.3,0.6-0.4,1-0.4h8.5c0.4,0,0.8,0.1,1.1,0.4
			c0.3,0.3,0.4,0.7,0.4,1.1v53.2c0,0.4-0.1,0.8-0.4,1c-0.3,0.3-0.7,0.4-1.1,0.4h-7.4h-0.1h-0.1C280.2,71.4,279.8,71.1,279.4,70.6z"
			/>
		<path class="st0" d="M306.6,70.3V26.8c0-0.5-0.2-1-0.6-1.3s-0.8-0.5-1.4-0.5H300c-0.3,0-0.5-0.1-0.7-0.3c-0.2-0.2-0.3-0.5-0.3-0.8
			v-7.5c0-0.3,0.1-0.6,0.3-0.8c0.2-0.2,0.5-0.3,0.7-0.3h35.2c0.3,0,0.5,0.1,0.7,0.3c0.2,0.2,0.3,0.5,0.3,0.8v7.5
			c0,0.3-0.1,0.6-0.3,0.8c-0.2,0.2-0.5,0.3-0.7,0.3h-15c-0.5,0-1,0.2-1.4,0.6s-0.6,0.8-0.6,1.3v43.5c0,0.3-0.1,0.6-0.3,0.8
			c-0.2,0.2-0.5,0.3-0.7,0.3h-9.6C306.9,71.4,306.6,71,306.6,70.3z"/>
		<path class="st0" d="M377.6,43.9c2,1,3.6,2.5,4.8,4.4c1.2,1.9,1.8,4.3,1.8,7.5c0,3-0.8,5.7-2.5,8c-1.6,2.3-4,4.1-7,5.4
			s-6.5,2-10.4,2c-0.9,0-2-0.1-3.3-0.3c-0.5-0.1-0.9-0.2-1.1-0.4s-0.3-0.6-0.2-1.1l0.3-2.3c0.1-0.4,0.1-0.9,0.2-1.5
			c0.1-0.6,0.1-1.1,0.2-1.6c0.1-0.9,0.6-1.3,1.5-1.3l3.4,0.1c2.7,0,4.9-0.6,6.6-1.9c1.7-1.2,2.5-2.8,2.5-4.6c0-1.3-0.5-2.7-1.4-4
			c-0.6-0.8-1.7-1.5-3.2-2.2c-1.6-0.7-3.7-1.5-6.4-2.3c-4.1-1.4-7.4-2.7-10-3.9c-2.6-1.2-4.4-2.7-5.7-4.5c-1.5-2.4-2.3-4.8-2.3-7.3
			c0-2.6,0.8-5.1,2.3-7.5s3.7-4.3,6.4-5.9c2.7-1.6,5.9-2.6,9.4-2.9c2.6-0.1,5.1,0.1,7.6,0.5s4.6,1.1,6.4,1.9
			c1.7,0.9,3.2,1.9,4.7,3.1c0.3,0.2,0.5,0.5,0.6,0.7c0.2,0.3,0.2,0.5,0.2,0.6c-0.3,0.6-1.2,2-2.7,4.2l-1,1.4
			c-0.2,0.2-0.4,0.2-0.7,0.2c-0.3,0-0.5-0.1-0.8-0.2c-2.2-1.2-4.1-2.1-5.7-2.5c-1.9-0.5-3.8-0.8-5.6-0.8c-2.2,0-4.3,0.4-6.2,1.1
			c-1.5,0.7-2.6,1.5-3.4,2.5s-1.2,2-1.2,3c0,1.6,0.9,3,2.8,4.2c0.8,0.5,2.2,1.2,4.5,2.3c2.2,1,4.1,1.8,5.7,2.3
			C372.7,41.7,375.6,42.9,377.6,43.9z M379.6,28.1C379.6,28.1,379.6,28,379.6,28.1L379.6,28.1z"/>
	</g>
	<circle class="st1" cx="252.2" cy="67" r="5.4"/>
	<circle class="st2" cx="180.6" cy="20.1" r="5.4"/>
	<circle class="st3" cx="232" cy="20.1" r="5.4"/>
	<circle class="st4" cx="348.7" cy="63.4" r="5.4"/>
	<g>
		<path class="st1" d="M84.9,75.2c-2.5,0-4.6,1.6-5.5,3.7c-0.2,0.6-0.4,1.1-0.5,1.7v0.6c0,3.3,2.7,6,5.9,6c3.3-0.1,5.9-2.7,5.9-6
			v-0.6c-0.1-0.6-0.2-1.2-0.5-1.7C89.5,76.7,87.4,75.2,84.9,75.2z"/>
		<path class="st3" d="M84.9,15c4-0.1,7.3-3.4,7.3-7.5V6.8c-0.1-0.8-0.3-1.5-0.6-2.2C90.5,1.9,87.9,0,84.8,0S79.1,1.9,78,4.6
			c-0.3,0.7-0.5,1.4-0.6,2.2v0.7C77.5,11.6,80.8,14.9,84.9,15z"/>
		<path class="st2" d="M119.3,50.7c-0.4,0-0.8,0-1.1,0.1c-0.4,0.1-0.7,0.2-1.1,0.3l0,0c-2.2,0.9-3.8,3.1-3.8,5.6
			c0,1.5,0.6,2.8,1.5,3.9l0,0c0.3,0.3,0.6,0.6,0.9,0.9c1,0.8,2.2,1.2,3.6,1.2c3.3,0,6-2.7,6-5.9C125.2,53.3,122.5,50.7,119.3,50.7z"
			/>
		<path class="st4" d="M50.1,50.9c-0.4,0-0.8,0-1.1,0.1c-0.4,0.1-0.7,0.2-1.1,0.3l0,0c-2.2,0.9-3.8,3.1-3.8,5.6
			c0,1.5,0.6,2.8,1.5,3.9l0,0c0.3,0.3,0.6,0.6,0.9,0.9c1,0.8,2.2,1.2,3.6,1.2c3.3,0,6-2.7,6-5.9C56.1,53.6,53.4,50.9,50.1,50.9z"/>
		<path class="st3" d="M84.9,19.1C84.9,19.1,84.8,19.1,84.9,19.1C84.9,19.1,84.8,19.1,84.9,19.1z"/>
		<path class="st3" d="M116.4,33.6l-7.2-1.6l-0.5,4.4l-2.8-0.6c-2.9-8.9-11.3-14.3-21.1-14.5c-9.8,0.2-18,5.6-20.9,14.5l-2.7,0.6
			L60.7,32l-7.3,1.6C56.3,23.3,64,15.8,72.9,14c1.5-0.3,2.9,0.3,3.8,1.5c2.1,2.7,4.8,3.7,8.2,3.7c1.9,0.1,6.3-1.1,8.3-3.8l0,0
			c0.9-1.1,2.3-1.6,3.7-1.3C105.8,15.8,113.5,23.3,116.4,33.6z"/>
		<path class="st4" d="M66.8,64.2L61.2,62l-1.7,5.7c-0.6-0.8-1.2-1.5-1.7-2.3c-0.8-1.2-0.6-2.9,0.4-3.9c1.1-1.4,1.8-3.2,1.8-5
			c0-3.4-1.9-6.3-5.2-7.8l-0.5-0.1c-1.3-0.4-2.2-1.6-2.2-3c0-2.9,0.3-6.1,0.6-8.2l5-1.1l0.5,4.4l5-1.1c-0.2,1.3-0.4,2.9-0.4,3.5
			c0,0.4,0,0.8,0,1.2c-0.2,5.2,2.8,11.3,5.1,15.1L66.8,64.2z"/>
		<path class="st2" d="M117.8,45.5c0,1.4-0.9,2.6-2.2,3c-3.9,1.2-5.7,4.5-5.7,7.9c0,1.8,0.6,3.6,1.8,5c1.1,1,1.3,2.7,0.4,3.9
			c-0.5,0.8-1.1,1.6-1.7,2.3l-1.7-5.7l-5.6,2.3l-1.2-5c2.3-3.8,5.3-9.8,5.1-15.1c0-0.4,0-0.8,0-1.2c0-0.5-0.2-2.1-0.4-3.4l4.9,1.1
			l0.5-4.4l5.1,1.1C117.5,39.4,117.8,42.6,117.8,45.5z"/>
		<path class="st1" d="M107.7,70.6c-0.8,0.7-2.2,1.9-2.4,2.1l-1.1,0.8c-0.4,0.3-0.7,0.4-1.1,0.7c-1.4,1-3,1.7-5,2.2
			c-1.9,0.5-2.3,0.4-3.7,0.2c-1.1-0.1-2.1-0.7-2.7-1.6c-1.5-2.2-4-3.6-6.8-3.6s-5.3,1.4-6.8,3.6c-0.6,0.9-1.6,1.5-2.7,1.6
			c-1.5,0.1-2.6,0-3.7-0.2c-2-0.4-3.5-1.2-5-2.2c-0.4-0.2-0.8-0.5-1.1-0.8l-1-0.7c-0.1-0.1-0.8-0.7-1.5-1.3
			c-0.3-0.3-0.6-0.5-0.9-0.8l1.2-4.1l6,2.3l1.3-6.1l0.1,0.1c0,0,0,0.1,0.1,0.1c0.6,0.6,1.2,1.2,1.9,1.8c0,0,0.1,0,0.1,0.1
			c1.2,1.1,2.8,2,4.4,3l0.7,0.4c1.9,1,3.8,1.5,7,1.6c4.9-0.2,8-1.8,11-4.1c0.8-0.6,1.5-1.2,2.2-1.8c0.2-0.2,0.6-0.5,1.1-1.1l0.3,1.2
			l0,0l-0.3,1.1l0.8,5.3l0,0l6.1-0.8l1.3,0.2L107.7,70.6z"/>
		<polygon class="st1" points="107.4,69.7 106.1,69.5 100,70.3 99.2,65 99.5,64 99.5,64 100.7,69 106.5,66.6 		"/>
	</g>
</g>
</svg>
