<svg width="258" height="48" viewBox="0 0 258 48" fill="none" xmlns="http://www.w3.org/2000/svg">
<g clip-path="url(#clip0_223_1357)">
<path d="M53.5074 18.0704C51.9525 11.3542 48.7068 5.83231 43.1053 1.73109C41.9047 0.869321 40.445 -0.246922 38.9057 0.0512635C37.2134 0.45717 36.1456 2.10109 34.9403 3.25324C33.1247 5.12509 31.3418 7.04847 29.5277 8.91564C28.8392 9.6369 28.0306 10.5799 28.1726 11.5993C28.4958 13.2713 30.555 14.6108 31.6462 15.9019C34.5797 18.7807 37.3961 21.9171 40.4341 24.6148C42.69 26.3649 42.2513 22.7149 41.9469 21.2458C41.516 19.082 40.6511 17.0291 39.4771 15.176C38.8167 14.0519 37.7067 13.1839 37.2774 11.9474C36.8559 10.3753 38.4358 8.73766 39.908 8.50505C41.5051 8.41606 42.5745 10.1349 43.5221 11.2387C45.3144 13.5055 46.6101 16.1314 47.3064 18.9493C47.9168 21.3582 48.1104 23.8561 47.8841 26.3275C47.7857 28.4772 46.2433 37.1402 42.8852 35.1263C41.6315 34.2895 40.6964 32.9921 39.563 31.9571C38.3624 30.7799 37.0948 29.6465 35.8942 28.4772C32.5939 25.2268 29.5059 21.7485 26.3367 18.3873C24.2322 16.1704 22.0356 14.2033 20.0576 11.8678C18.345 9.93196 16.4372 8.16627 14.695 6.25695C13.5225 5.11885 12.2673 3.15176 10.4564 3.42341C7.67591 4.23834 5.91646 7.98361 4.55511 10.3613C1.16423 16.2126 0.0948257 23.2566 1.47179 29.8635C2.54275 35.0732 5.15304 39.9628 8.92017 43.7159C10.1878 45.0007 11.5851 46.1419 13.0916 47.1208C14.5357 48.1481 16.2312 48.4197 17.605 47.1536C19.9998 44.9211 22.2042 42.4654 24.507 40.1392C26.6021 38.1565 27.4998 36.8311 25.0549 34.6142C22.9286 32.6112 20.9756 30.4271 18.9773 28.3164C17.7502 27.0284 16.4872 25.7389 15.2367 24.4743C14.6747 23.9592 13.5132 22.6977 12.9933 23.7047C12.692 24.4306 12.82 25.4329 12.9636 26.5179C13.368 29.2562 14.5513 31.8759 16.3217 33.9928C17.0227 34.9015 18.1374 35.6789 18.295 36.8654C18.3403 38.1237 17.171 39.1479 16.2343 39.8379C15.0088 40.7403 13.5397 39.9238 12.6342 38.8825C10.3065 36.4392 8.57202 33.3091 7.64 30.0696C6.80633 26.9988 6.62524 23.6547 7.13886 20.5214C7.5635 18.0735 8.35346 15.6131 9.71325 13.5039C10.4564 12.4002 11.5008 12.344 12.4375 13.1527C14.6294 15.2041 16.6823 17.4084 18.8055 19.5426C24.4352 25.2315 29.9399 31.0422 35.5851 36.7202C37.6177 38.7732 39.588 40.8917 41.6159 42.9415C42.256 43.6003 43.099 44.3981 43.9452 44.5121C45.4065 44.7181 46.5633 43.2225 47.4657 42.2234C53.1608 35.7304 55.3043 26.5039 53.5152 18.1L53.509 18.0704H53.5074ZM13.6927 6.64412C13.674 6.63319 13.6459 6.62851 13.6568 6.60041C13.6833 6.59729 13.713 6.62851 13.7005 6.641H13.6927V6.64412ZM8.28633 13.9301H8.28477C8.28477 13.9301 8.28477 13.9301 8.28633 13.9301ZM53.6432 25.8357C53.6308 25.8388 53.6698 25.8357 53.6635 25.8451C53.6713 25.8497 53.6339 25.8451 53.6448 25.8373L53.6432 25.8357ZM53.8056 25.8357C53.8056 25.8357 53.8056 25.8404 53.8056 25.8419C53.8009 25.8388 53.7962 25.8388 53.79 25.8357C53.7947 25.8357 53.7994 25.8357 53.8041 25.8357H53.8056ZM37.7661 13.7865C37.7317 13.7725 37.7411 13.7553 37.7661 13.7787V13.7865ZM7.29342 29.5872C7.29342 29.5872 7.28874 29.5794 7.29342 29.5856V29.5872Z" fill="#030012"/>
</g>
<path d="M95.9696 38.0002H91.4096L77.6896 17.2402V38.0002H73.1296V10.1602H77.6896L91.4096 30.8802V10.1602H95.9696V38.0002Z" fill="#030012"/>
<path d="M122.158 26.4402C122.158 27.2669 122.104 28.0135 121.998 28.6802H105.158C105.291 30.4402 105.944 31.8535 107.118 32.9202C108.291 33.9869 109.731 34.5202 111.438 34.5202C113.891 34.5202 115.624 33.4935 116.638 31.4402H121.558C120.891 33.4669 119.678 35.1335 117.918 36.4402C116.184 37.7202 114.024 38.3602 111.438 38.3602C109.331 38.3602 107.438 37.8935 105.758 36.9602C104.104 36.0002 102.798 34.6669 101.838 32.9602C100.904 31.2269 100.438 29.2269 100.438 26.9602C100.438 24.6935 100.891 22.7069 101.798 21.0002C102.731 19.2669 104.024 17.9335 105.678 17.0002C107.358 16.0669 109.278 15.6002 111.438 15.6002C113.518 15.6002 115.371 16.0535 116.998 16.9602C118.624 17.8669 119.891 19.1469 120.798 20.8002C121.704 22.4269 122.158 24.3069 122.158 26.4402ZM117.398 25.0002C117.371 23.3202 116.771 21.9735 115.598 20.9602C114.424 19.9469 112.971 19.4402 111.238 19.4402C109.664 19.4402 108.318 19.9469 107.198 20.9602C106.078 21.9469 105.411 23.2935 105.198 25.0002H117.398Z" fill="#030012"/>
<path d="M146.605 15.9602V38.0002H142.045V35.4002C141.325 36.3069 140.379 37.0269 139.205 37.5602C138.059 38.0669 136.832 38.3202 135.525 38.3202C133.792 38.3202 132.232 37.9602 130.845 37.2402C129.485 36.5202 128.405 35.4535 127.605 34.0402C126.832 32.6269 126.445 30.9202 126.445 28.9202V15.9602H130.965V28.2402C130.965 30.2135 131.459 31.7335 132.445 32.8002C133.432 33.8402 134.779 34.3602 136.485 34.3602C138.192 34.3602 139.539 33.8402 140.525 32.8002C141.539 31.7335 142.045 30.2135 142.045 28.2402V15.9602H146.605Z" fill="#030012"/>
<path d="M157.182 19.1602C157.849 18.0402 158.729 17.1735 159.822 16.5602C160.942 15.9202 162.262 15.6002 163.782 15.6002V20.3202H162.622C160.835 20.3202 159.475 20.7735 158.542 21.6802C157.635 22.5869 157.182 24.1602 157.182 26.4002V38.0002H152.622V15.9602H157.182V19.1602Z" fill="#030012"/>
<path d="M177.533 38.3602C175.453 38.3602 173.573 37.8935 171.893 36.9602C170.213 36.0002 168.893 34.6669 167.933 32.9602C166.973 31.2269 166.493 29.2269 166.493 26.9602C166.493 24.7202 166.987 22.7335 167.973 21.0002C168.96 19.2669 170.307 17.9335 172.013 17.0002C173.72 16.0669 175.627 15.6002 177.733 15.6002C179.84 15.6002 181.747 16.0669 183.453 17.0002C185.16 17.9335 186.507 19.2669 187.493 21.0002C188.48 22.7335 188.973 24.7202 188.973 26.9602C188.973 29.2002 188.467 31.1869 187.453 32.9202C186.44 34.6535 185.053 36.0002 183.293 36.9602C181.56 37.8935 179.64 38.3602 177.533 38.3602ZM177.533 34.4002C178.707 34.4002 179.8 34.1202 180.813 33.5602C181.853 33.0002 182.693 32.1602 183.333 31.0402C183.973 29.9202 184.293 28.5602 184.293 26.9602C184.293 25.3602 183.987 24.0135 183.373 22.9202C182.76 21.8002 181.947 20.9602 180.933 20.4002C179.92 19.8402 178.827 19.5602 177.653 19.5602C176.48 19.5602 175.387 19.8402 174.373 20.4002C173.387 20.9602 172.6 21.8002 172.013 22.9202C171.427 24.0135 171.133 25.3602 171.133 26.9602C171.133 29.3335 171.733 31.1735 172.933 32.4802C174.16 33.7602 175.693 34.4002 177.533 34.4002Z" fill="#030012"/>
<path d="M198.041 8.4002V38.0002H193.481V8.4002H198.041Z" fill="#030012"/>
<path d="M206.348 13.0402C205.521 13.0402 204.828 12.7602 204.268 12.2002C203.708 11.6402 203.428 10.9469 203.428 10.1202C203.428 9.29353 203.708 8.6002 204.268 8.0402C204.828 7.4802 205.521 7.2002 206.348 7.2002C207.148 7.2002 207.828 7.4802 208.388 8.0402C208.948 8.6002 209.228 9.29353 209.228 10.1202C209.228 10.9469 208.948 11.6402 208.388 12.2002C207.828 12.7602 207.148 13.0402 206.348 13.0402ZM208.588 15.9602V38.0002H204.028V15.9602H208.588Z" fill="#030012"/>
<path d="M225.695 15.6002C227.428 15.6002 228.975 15.9602 230.335 16.6802C231.722 17.4002 232.802 18.4669 233.575 19.8802C234.348 21.2935 234.735 23.0002 234.735 25.0002V38.0002H230.215V25.6802C230.215 23.7069 229.722 22.2002 228.735 21.1602C227.748 20.0935 226.402 19.5602 224.695 19.5602C222.988 19.5602 221.628 20.0935 220.615 21.1602C219.628 22.2002 219.135 23.7069 219.135 25.6802V38.0002H214.575V15.9602H219.135V18.4802C219.882 17.5735 220.828 16.8669 221.975 16.3602C223.148 15.8535 224.388 15.6002 225.695 15.6002Z" fill="#030012"/>
<path d="M249.992 26.8402L257.112 38.0002H251.952L247.192 30.5202L242.712 38.0002H237.952L245.072 27.1602L237.952 15.9602H243.112L247.872 23.4402L252.352 15.9602H257.112L249.992 26.8402Z" fill="#030012"/>
<defs>
<clipPath id="clip0_223_1357">
<rect width="53.2424" height="48" fill="white" transform="translate(0.888184)"/>
</clipPath>
</defs>
</svg>
