<svg width="33" height="33" viewBox="0 0 33 33" fill="none" xmlns="http://www.w3.org/2000/svg">
<g clip-path="url(#clip0_6248_49136)">
<path d="M21.5892 8.77507H17.6004L17.6004 6.34745C18.7665 6.01537 19.6234 4.94088 19.6234 3.67172C19.6234 2.13538 18.3734 0.885307 16.837 0.885307C15.3007 0.885307 14.0506 2.13538 14.0506 3.67172C14.0506 4.94279 14.9075 6.01537 16.0736 6.34745L16.0736 8.77507H11.9169C6.38601 8.77507 1.88575 13.2753 1.88576 18.8062C1.88576 21.1269 2.69497 23.3656 4.14353 25.1443C5.71996 27.0795 7.17997 29.1045 8.62089 31.1408L9.03313 31.7229C9.55606 32.4615 10.3691 32.8852 11.2642 32.8852C12.812 32.8852 14.0258 31.6771 14.0258 30.1351L14.0258 28.8392H21.7591C27.3548 28.8392 31.8952 24.234 31.7883 18.6153C31.6833 13.1246 27.0838 8.77888 21.5911 8.77888L21.5911 8.77507H21.5892ZM15.5774 3.66982C15.5774 2.97512 16.1423 2.4102 16.837 2.4102C17.5317 2.4102 18.0966 2.97512 18.0966 3.66982C18.0966 4.36451 17.5317 4.92943 16.837 4.92943C16.1423 4.92943 15.5774 4.36451 15.5774 3.66982Z" fill="url(#paint0_linear_6248_49136)"/>
<path d="M21.7577 10.3017L11.9174 10.3017C7.22056 10.3017 3.41309 14.1092 3.41309 18.806C3.41309 20.85 4.13451 22.7261 5.33687 24.1918L8.5489 28.3943L10.2799 30.8391C10.9689 31.8105 12.4976 31.3239 12.4976 30.133L12.4976 27.3103L21.7577 27.3103C26.4545 27.3103 30.262 23.5028 30.262 18.806C30.262 14.1092 26.4545 10.3017 21.7577 10.3017Z" fill="url(#paint1_linear_6248_49136)"/>
<path opacity="0.36" d="M22.7385 22.5888L10.9363 22.5888C8.87698 22.5888 7.20704 20.9189 7.20703 18.8596C7.20703 16.8003 8.87698 15.1304 10.9363 15.1304L22.7385 15.1304C24.7978 15.1304 26.4677 16.8003 26.4677 18.8596C26.4677 20.9189 24.7978 22.5888 22.7385 22.5888Z" fill="#0E1C2E"/>
<path d="M20.8995 20.2776C21.6826 20.2776 22.3175 19.6428 22.3175 18.8596C22.3175 18.0765 21.6826 17.4416 20.8995 17.4416C20.1163 17.4416 19.4814 18.0765 19.4814 18.8596C19.4814 19.6428 20.1163 20.2776 20.8995 20.2776Z" fill="white"/>
<path d="M12.7764 20.2776C13.5596 20.2776 14.1944 19.6427 14.1944 18.8596C14.1944 18.0764 13.5596 17.4415 12.7764 17.4415C11.9933 17.4415 11.3584 18.0764 11.3584 18.8596C11.3584 19.6427 11.9933 20.2776 12.7764 20.2776Z" fill="white"/>
</g>
<defs>
<linearGradient id="paint0_linear_6248_49136" x1="0.897137" y1="4.84355" x2="30.4714" y2="31.8948" gradientUnits="userSpaceOnUse">
<stop offset="0.05" stop-color="white"/>
<stop offset="0.26" stop-color="#68BBF9"/>
<stop offset="0.41" stop-color="#7254F6"/>
<stop offset="0.72" stop-color="#9438F6"/>
<stop offset="0.75" stop-color="#963CF6"/>
<stop offset="0.79" stop-color="#9D49F6"/>
<stop offset="0.82" stop-color="#A85EF7"/>
<stop offset="0.86" stop-color="#B97DF9"/>
<stop offset="0.9" stop-color="#CEA3FA"/>
<stop offset="0.94" stop-color="#E7D2FD"/>
<stop offset="0.97" stop-color="white"/>
</linearGradient>
<linearGradient id="paint1_linear_6248_49136" x1="1.79848" y1="6.98853" x2="32.7564" y2="33.6523" gradientUnits="userSpaceOnUse">
<stop stop-color="#4A0FC3"/>
<stop offset="1" stop-color="#4A0FC3" stop-opacity="0"/>
</linearGradient>
<clipPath id="clip0_6248_49136">
<rect width="32" height="31.9999" fill="white" transform="translate(0.884766 0.88501)"/>
</clipPath>
</defs>
</svg>
