<svg width="108" height="96" viewBox="0 0 108 96" fill="none" xmlns="http://www.w3.org/2000/svg">
<g clip-path="url(#clip0_220_1112)">
<path d="M105.997 36.1369C102.887 22.7045 96.3956 11.6607 85.1926 3.45828C82.7915 1.73474 79.8721 -0.49775 76.7934 0.0986207C73.4088 0.910434 71.2731 4.19828 68.8626 6.50258C65.2313 10.2463 61.6656 14.093 58.0374 17.8274C56.6604 19.2699 55.0431 21.1558 55.3272 23.1947C55.9735 26.5387 60.0919 29.2177 62.2744 31.7999C68.1414 37.5575 73.7741 43.8304 79.8502 49.2258C84.362 52.726 83.4846 45.4259 82.8758 42.4877C82.014 38.1602 80.2842 34.0543 77.9362 30.348C76.6154 28.0999 74.3954 26.3639 73.5368 23.891C72.6937 20.7468 75.8536 17.4714 78.798 17.0062C81.9921 16.8282 84.1309 20.2659 86.0262 22.4734C89.6107 27.0071 92.2022 32.2589 93.5948 37.8948C94.8157 42.7126 95.2028 47.7083 94.7501 52.651C94.5534 56.9505 91.4685 74.2765 84.7523 70.2486C82.245 68.575 80.3747 65.9804 78.1079 63.9102C75.7068 61.556 73.1715 59.2891 70.7704 56.9505C64.1697 50.4498 57.9937 43.4931 51.6553 36.7707C47.4464 32.337 43.0532 28.4028 39.0972 23.7317C35.6719 19.86 31.8564 16.3286 28.3719 12.51C26.027 10.2338 23.5166 6.29962 19.8947 6.84291C14.3338 8.47278 10.8149 15.9633 8.09216 20.7187C1.3104 32.4213 -0.828416 46.5093 1.9255 59.7232C4.06744 70.1425 9.28802 79.9217 16.8223 87.4278C19.3576 89.9975 22.1521 92.28 25.1652 94.2377C28.0534 96.2922 31.4443 96.8355 34.192 94.3033C38.9816 89.8383 43.3904 84.9268 47.9959 80.2745C52.1861 76.3091 53.9815 73.6582 49.0918 69.2245C44.8392 65.2185 40.9331 60.8503 36.9365 56.6289C34.4823 54.053 31.9563 51.4739 29.4553 48.9448C28.3313 47.9144 26.0083 45.3915 24.9685 47.4055C24.3659 48.8574 24.6219 50.8619 24.9092 53.0319C25.7179 58.5086 28.0846 63.7479 31.6254 67.9818C33.0273 69.799 35.2567 71.3539 35.572 73.7269C35.6626 76.2436 33.3239 78.2918 31.4505 79.6719C28.9995 81.4766 26.0613 79.8436 24.2504 77.761C19.5949 72.8745 16.126 66.6142 14.2619 60.1353C12.5946 53.9936 12.2324 47.3055 13.2597 41.039C14.1089 36.1431 15.6889 31.2223 18.4084 27.004C19.8947 24.7965 21.9835 24.6841 23.8569 26.3014C28.2407 30.4042 32.3466 34.813 36.593 39.0813C47.8523 50.4591 58.8617 62.0805 70.1522 73.4365C74.2175 77.5424 78.1579 81.7795 82.2138 85.8791C83.494 87.1968 85.1801 88.7923 86.8724 89.0202C89.7949 89.4324 92.1086 86.4412 93.9133 84.4429C105.304 71.457 109.591 53.0038 106.012 36.1962L106 36.1369H105.997ZM26.3673 13.2843C26.3299 13.2625 26.2737 13.2531 26.2955 13.1969C26.3486 13.1907 26.4079 13.2531 26.3829 13.2781H26.3673V13.2843ZM15.5546 27.8564H15.5515C15.5515 27.8564 15.5515 27.8564 15.5546 27.8564ZM106.268 51.6675C106.243 51.6737 106.322 51.6675 106.309 51.6862C106.325 51.6956 106.25 51.6862 106.272 51.6706L106.268 51.6675ZM106.593 51.6675C106.593 51.6675 106.593 51.6768 106.593 51.68C106.584 51.6737 106.574 51.6737 106.562 51.6675C106.571 51.6675 106.581 51.6675 106.59 51.6675H106.593ZM74.5141 27.5691C74.4454 27.541 74.4641 27.5067 74.5141 27.5535V27.5691ZM13.5688 59.1705C13.5688 59.1705 13.5594 59.1549 13.5688 59.1674V59.1705Z" fill="url(#paint0_linear_220_1112)"/>
</g>
<defs>
<linearGradient id="paint0_linear_220_1112" x1="53.9999" y1="0" x2="53.9999" y2="95.998" gradientUnits="userSpaceOnUse">
<stop stop-color="#C3C0D8"/>
<stop offset="1" stop-color="#7361E5"/>
</linearGradient>
<clipPath id="clip0_220_1112">
<rect width="106.485" height="96" fill="white" transform="translate(0.757568)"/>
</clipPath>
</defs>
</svg>
