<svg xmlns="http://www.w3.org/2000/svg" version="1.1" viewBox="0 0 391.8 91.9" style="width:150px;height:50px"><path fill="#fff" d="M4.2 73.5c-.3-.3-.4-.6-.4-1V18.9c0-.4.1-.8.4-1.1.3-.3.6-.4 1-.4h8.7c.4 0 .7.1 1 .4.3.3.4.7.4 1.1v18.5l16.4-19.2c.5-.6 1.1-.9 1.8-.9H45c.6 0 .9.1 1 .3.1.2.1.4-.1.6L16.7 52.7c-.9 1-1.3 2.3-1.3 3.9v15.9c0 .4-.1.7-.4 1-.3.3-.6.4-1 .4H5.2c-.3 0-.7-.1-1-.4zm29.5 0c-.5-.2-.9-.6-1.2-1.1L24 60.2c-.4-.6-.6-1.1-.6-1.5 0-.5.2-1 .6-1.5.4-.5.9-1.1 1.5-1.7.6-.7 1.1-1.3 1.7-1.9l1.7-2c.3-.4.7-.6 1.1-.6.5 0 .9.2 1.2.7l14.5 20.6c.1.2.2.4.2.6 0 .7-.5 1.1-1.5 1.1h-8.2c-1.1-.1-2-.3-2.5-.5zM149.8 71.1c-4.5-2.6-8-6.2-10.6-10.6-2.6-4.5-3.9-9.4-3.9-14.7s1.3-10.2 3.9-14.7c2.6-4.5 6.2-8 10.6-10.6 4.5-2.6 9.4-3.9 14.7-3.9 1.2 0 2.4.1 3.6.2.5.1.9.3 1.1.6.3.4.3.8.2 1.3l-1.3 7c-.2.9-.7 1.3-1.6 1.3l-2.1-.1c-3.4 0-6.5.8-9.4 2.5-2.9 1.7-5.2 4-6.9 6.9-1.7 2.9-2.5 6-2.5 9.4 0 3.4.8 6.5 2.5 9.4 1.7 2.9 4 5.2 6.9 6.9 2.9 1.7 6 2.5 9.4 2.5 3.9 0 7.4-1.1 10.3-3.3 3-2.2 5.1-5.2 6.5-8.9H171c-.4 0-.8-.2-1.1-.5-.3-.3-.5-.7-.5-1.1v-5.9c0-.4.2-.8.5-1.1.3-.3.7-.5 1.1-.5h17.2c1.3 0 2.3.2 3 .6.7.4 1 1 1 1.9 0 5.4-1.2 10.3-3.5 14.8-2.4 4.5-5.7 8-9.9 10.6-4.2 2.6-9 3.9-14.2 3.9-5.4 0-10.3-1.3-14.8-3.9zM201.2 27c-.3-.3-.4-.7-.4-1.1V19c0-.4.1-.8.4-1 .3-.3.6-.4 1-.4h17.4c.4 0 .8.1 1.1.4.3.3.4.6.4 1v6.9c0 .4-.1.7-.4 1-.3.3-.7.5-1.1.5h-17.4c-.4 0-.7-.1-1-.4zm0 46.5c-.3-.3-.4-.6-.4-1V35.2c0-.4.1-.8.4-1 .3-.3.6-.4 1-.4h6.9c.4 0 .8.1 1 .4.3.3.4.6.4 1V41c0 1 .7 1.5 2.1 1.5h20.3c.4 0 .7.1 1 .4.3.2.4.6.4.9v6.9c0 .4-.1.7-.4.9-.3.2-.6.4-1 .4h-20.6c-1.2 0-1.9.6-1.9 1.7v8.8c0 .4.2.7.5 1 .3.3.7.5 1 .5h27.7c.4 0 .8.1 1 .4.3.3.4.6.4 1v6.9c0 .4-.1.7-.4 1-.3.3-.6.4-1 .4H202c-.2.2-.5.1-.8-.2zM283.2 72.9c-2.1-3.3-5.5-8.6-10.3-16-4.8-7.4-8.3-13-10.8-16.8-.3-.4-.5-.6-.6-.6-.1 0-.2.1-.2.3v.5l.2 9.5c0 .4-.1.7-.4 1-.3.3-.6.4-1 .4h-7.8c-.4 0-.8-.1-1.1-.4-.3-.3-.4-.6-.4-1V19.1c0-.4.1-.8.4-1.1.3-.3.7-.4 1.1-.4h7.9c.4 0 .7.2 1 .5l19.5 32.5c.5.9.9 1.4 1.2 1.4.3 0 .4-.5.4-1.4l-.3-31.5c0-.4.1-.8.4-1.1.3-.3.6-.4 1-.4h8.5c.4 0 .8.1 1.1.4.3.3.4.7.4 1.1v53.2c0 .4-.1.8-.4 1-.3.3-.7.4-1.1.4h-7.6c-.3.1-.7-.2-1.1-.8zM310.4 72.7V29.2c0-.5-.2-1-.6-1.3-.4-.3-.8-.5-1.4-.5h-4.6c-.3 0-.5-.1-.7-.3-.2-.2-.3-.5-.3-.8v-7.5c0-.3.1-.6.3-.8.2-.2.5-.3.7-.3H339c.3 0 .5.1.7.3.2.2.3.5.3.8v7.5c0 .3-.1.6-.3.8-.2.2-.5.3-.7.3h-15c-.5 0-1 .2-1.4.6-.4.4-.6.8-.6 1.3v43.5c0 .3-.1.6-.3.8-.2.2-.5.3-.7.3h-9.6c-.7-.1-1-.5-1-1.2zM381.4 46.3c2 1 3.6 2.5 4.8 4.4s1.8 4.3 1.8 7.5c0 3-.8 5.7-2.5 8-1.6 2.3-4 4.1-7 5.4-3 1.3-6.5 2-10.4 2-.9 0-2-.1-3.3-.3-.5-.1-.9-.2-1.1-.4-.2-.2-.3-.6-.2-1.1l.3-2.3c.1-.4.1-.9.2-1.5s.1-1.1.2-1.6c.1-.9.6-1.3 1.5-1.3l3.4.1c2.7 0 4.9-.6 6.6-1.9 1.7-1.2 2.5-2.8 2.5-4.6 0-1.3-.5-2.7-1.4-4-.6-.8-1.7-1.5-3.2-2.2-1.6-.7-3.7-1.5-6.4-2.3-4.1-1.4-7.4-2.7-10-3.9-2.6-1.2-4.4-2.7-5.7-4.5-1.5-2.4-2.3-4.8-2.3-7.3 0-2.6.8-5.1 2.3-7.5 1.5-2.4 3.7-4.3 6.4-5.9 2.7-1.6 5.9-2.6 9.4-2.9 2.6-.1 5.1.1 7.6.5s4.6 1.1 6.4 1.9c1.7.9 3.2 1.9 4.7 3.1.3.2.5.5.6.7.2.3.2.5.2.6-.3.6-1.2 2-2.7 4.2l-1 1.4c-.2.2-.4.2-.7.2-.3 0-.5-.1-.8-.2-2.2-1.2-4.1-2.1-5.7-2.5-1.9-.5-3.8-.8-5.6-.8-2.2 0-4.3.4-6.2 1.1-1.5.7-2.6 1.5-3.4 2.5-.8 1-1.2 2-1.2 3 0 1.6.9 3 2.8 4.2.8.5 2.2 1.2 4.5 2.3 2.2 1 4.1 1.8 5.7 2.3 4 1.3 6.9 2.6 8.9 3.6zm2-15.8c0-.1 0-.1 0 0z"></path><circle fill="#836afc" cx="256" cy="69.3" r="5.4"></circle><circle fill="#07d3b0" cx="184.4" cy="22.4" r="5.4"></circle><circle fill="#ff4772" cx="235.8" cy="22.4" r="5.4"></circle><circle fill="#f0d009" cx="352.5" cy="65.7" r="5.4"></circle><g><path fill="#836afc" d="M88.7 77.5c-2.5 0-4.6 1.6-5.5 3.7-.2.6-.4 1.1-.5 1.7v.6c0 3.3 2.7 6 5.9 6 3.3-.1 5.9-2.7 5.9-6V83c-.1-.6-.2-1.2-.5-1.7-.7-2.2-2.8-3.7-5.3-3.8z"></path><path fill="#ff4772" d="M88.7 17.3c4-.1 7.3-3.4 7.3-7.5v-.6c-.1-.8-.3-1.5-.6-2.2-1.1-2.7-3.7-4.6-6.8-4.6-3.1 0-5.7 1.9-6.8 4.6-.3.7-.5 1.4-.6 2.2v.7c.1 4 3.4 7.4 7.5 7.4z"></path><path fill="#07d3b0" d="M123.1 53c-.4 0-.8 0-1.1.1-.4.1-.7.2-1.1.3-2.2.9-3.8 3.1-3.8 5.6 0 1.5.6 2.8 1.5 3.9l.9.9c1 .8 2.2 1.2 3.6 1.2 3.3 0 6-2.7 6-5.9-.1-3.4-2.8-6.1-6-6.1z"></path><path fill="#f0d009" d="M53.9 53.3c-.4 0-.8 0-1.1.1-.4.1-.7.2-1.1.3-2.2.9-3.8 3.1-3.8 5.6 0 1.5.6 2.8 1.5 3.9l.9.9c1 .8 2.2 1.2 3.6 1.2 3.3 0 6-2.7 6-5.9 0-3.4-2.7-6.1-6-6.1z"></path><path fill="#ff4772" d="M88.7 21.5s-.1 0 0 0c0 0-.1 0 0 0zM120.2 35.9l-7.2-1.6-.5 4.4-2.8-.6c-2.9-8.9-11.3-14.3-21.1-14.5-9.8.2-18 5.6-20.9 14.5l-2.7.6-.5-4.4-7.3 1.6C60 25.6 67.7 18.2 76.6 16.3c1.5-.3 2.9.3 3.8 1.5 2.1 2.7 4.8 3.7 8.2 3.7 1.9.1 6.3-1.1 8.3-3.8.9-1.1 2.3-1.6 3.7-1.3 9 1.8 16.7 9.2 19.6 19.5z"></path><path fill="#f0d009" d="M70.6 66.5 65 64.3 63.2 70c-.6-.8-1.2-1.5-1.7-2.3-.8-1.2-.6-2.9.4-3.9 1.1-1.4 1.8-3.2 1.8-5 0-3.4-1.9-6.3-5.2-7.8l-.5-.2c-1.3-.4-2.2-1.6-2.2-3 0-2.9.3-6.1.6-8.2l5-1.1.5 4.4 5-1.1c-.2 1.3-.4 2.9-.4 3.5v1.2c-.2 5.2 2.8 11.3 5.1 15.1l-1 4.9z"></path><path fill="#07d3b0" d="M121.6 47.8c0 1.4-.9 2.6-2.2 3-3.9 1.2-5.7 4.5-5.7 7.9 0 1.8.6 3.6 1.8 5 1.1 1 1.3 2.7.4 3.9-.5.8-1.1 1.6-1.7 2.3l-1.7-5.7-5.6 2.3-1.2-5c2.3-3.8 5.3-9.8 5.1-15.1v-1.2c0-.5-.2-2.1-.4-3.4l4.9 1.1.5-4.4 5.1 1.1c.4 2.1.7 5.3.7 8.2z"></path><path fill="#836afc" d="M111.5 73c-.8.7-2.2 1.9-2.4 2.1l-1.1.8c-.4.3-.7.4-1.1.7-1.4 1-3 1.7-5 2.2-1.9.5-2.3.4-3.7.2-1.1-.1-2.1-.7-2.7-1.6-1.5-2.2-4-3.6-6.8-3.6s-5.3 1.4-6.8 3.6c-.6.9-1.6 1.5-2.7 1.6-1.5.1-2.6 0-3.7-.2-2-.4-3.5-1.2-5-2.2-.4-.2-.8-.5-1.1-.8l-1-.7c-.1-.1-.8-.7-1.5-1.3-.3-.3-.6-.5-.9-.8l1.2-4.1 6 2.3 1.3-6.1.1.1s0 .1.1.1c.6.6 1.2 1.2 1.9 1.8 0 0 .1 0 .1.1 1.2 1.1 2.8 2 4.4 3l.7.4c1.9 1 3.8 1.5 7 1.6 4.9-.2 8-1.8 11-4.1.8-.6 1.5-1.2 2.2-1.8.2-.2.6-.5 1.1-1.1l.3 1.2-.3 1.1.8 5.3 6.1-.8 1.3.2.2.8z"></path><path fill="#836afc" d="m111.2 72.1-1.3-.2-6.1.8-.8-5.3.3-1.1 1.2 5 5.8-2.3z"></path></g></svg>