<?xml version="1.0" encoding="utf-8"?>
<!-- Generator: Adobe Illustrator 24.3.0, SVG Export Plug-In . SVG Version: 6.00 Build 0)  -->
<svg version="1.1" id="Layer_1" xmlns="http://www.w3.org/2000/svg" xmlns:xlink="http://www.w3.org/1999/xlink" x="0px" y="0px"
	 width="978.8px" height="170.1px" viewBox="0 0 978.8 170.1" style="enable-background:new 0 0 978.8 170.1;" xml:space="preserve"
	>
<style type="text/css">
	.st0{fill:#5D51AF;}
	.st1{fill:#FFFFFF;}
</style>
<g>
	<g>
		<path class="st0" d="M168.7,84c-1-6.2-3.9-11.1-10.2-13.3c-1.8-0.6-2.4-2.1-3-3.8c-2-6.2-5.1-11.9-9.7-16.6
			c-8.6-8.8-19.7-12.2-31.4-14.2c-3.1-0.5-6.5-1-9.5-1.7c0,0-0.5-0.8-2.3-1.8c-1.4-0.8-3.7-1.8-7.2-2.6c-1.8-0.4-3.9-0.8-6.4-1.1
			l-0.6-3.7l0-0.1l-0.7-4.4v0l-0.3-2.1c0.3-0.1,0.6-0.2,0.9-0.3c2.5-1,4.4-3.1,5.3-5.6c0-0.1,0.1-0.2,0.1-0.4
			c0.1-0.2,0.1-0.3,0.1-0.5c0-0.2,0.1-0.4,0.1-0.5c0-0.1,0-0.3,0.1-0.4c0-0.4,0.1-0.7,0.1-1.1c0-0.1,0-0.2,0-0.3
			c0-5.3-4.3-9.6-9.6-9.6c-3.5,0-6.5,1.8-8.2,4.6c0,0.1-0.1,0.2-0.1,0.3c-0.8,1.4-1.3,3-1.3,4.7v0c0,4,2.5,7.5,6.1,8.9
			c0.2,0.1,0.4,0.2,0.6,0.2l-0.1,0.8l-1.5,9.2l0,0.2c-0.1,0-0.2,0-0.4,0c-1.2,0.2-2.3,0.3-3.4,0.5h0C74,30,72.1,30.5,70.5,31
			c0,0,0,0,0,0c-1.5,0.5-2.7,1-3.6,1.5c-1.7,0.9-2.4,1.7-2.5,1.9c-2.9,1-5.9,1.3-9,1.7c-19.7,3-35.5,11.2-41.7,31.9
			c-0.5,1.5-1.6,2.4-3,2.9C5.2,72.9,2.3,77,1.1,82.5c-1.4,6.7-1.4,13.5-0.4,20.3c0.9,6.5,3.8,11.6,10.4,13.9
			c1.6,0.6,2.3,1.9,2.8,3.4c4.7,15.1,15.2,24.2,30.1,28.6c6.5,1.9,13.1,2.9,19.7,3.6c2.5,0.3,3.6,1.4,3.5,3.9c-0.1,3.1,0,6.3,0,9.4
			c0,4.7,0.7,5.3,5,3.7c18.3-6.7,36.5-13.8,54.7-20.7c14.2-5.4,24.6-14.2,28.9-29.2c0.5-1.8,2-2.5,3.6-3.2c4.3-1.7,7.1-4.9,8.4-9.4
			C170.1,99.3,169.9,91.7,168.7,84z M139,113.6c-2.3,9.4-8.4,15.1-17.5,17.9c-7,2.2-14.1,3.2-21.4,3.5c-14.8,0.8-29.6,1-44.3-1.6
			c-18.1-3.3-24.4-9.8-26.9-28c-1.3-9.5-0.9-19.1,0.8-28.6c2.3-12.4,10.2-19,22.1-21.7c10.9-2.4,22.1-2.9,33.2-2.9
			c12.3,0.1,24.5,0.4,36.4,4c9.5,2.9,15.6,8.8,17.7,18.5C142,87.8,142,100.7,139,113.6z"/>
		<path class="st0" d="M60,83c-3.1-0.1-5.4,1.3-6.4,4.4c-1.5,4.5-1.5,9,0.1,13.4c1.1,3,3.3,4.3,6.5,4.1c3.1-0.1,5-1.7,6-4.5
			c0.7-2,1.1-4.1,1-6.2c0.1-2.2-0.2-4.5-0.9-6.6C65.2,84.7,63.2,83,60,83z"/>
		<path class="st0" d="M115.5,86.7c-1.2-2.7-3.3-3.8-6.1-3.8c-2.8,0-5,1.3-6,4c-1.6,4.6-1.7,9.2-0.1,13.8c1.1,3,3.3,4.3,6.5,4.2
			c3.1-0.1,5-1.7,6-4.4c0.7-2,1-4.1,0.9-5.9C116.8,91.7,116.6,89.1,115.5,86.7z"/>
	</g>
	<g>
		<path class="st1" d="M279.8,152.3l-8.5-22.3h-52.9l-8.5,22.3h-23L232.2,37h25.2l45.3,115.3H279.8z M244.9,57.2l-20.7,55h41.5
			L244.9,57.2z"/>
		<path class="st1" d="M374.8,150.2v-11.1c-5.9,6.6-16.2,13.1-29.4,13.1c-18,0-27-9.5-27-26.4V66.7h18.1v52.4
			c0,13,6.6,17.1,16.9,17.1c9.2,0,17.1-5.4,21.3-10.9V66.7h18.1v83.5H374.8z"/>
		<path class="st1" d="M422.4,130.7V82.4h-13.8V66.7h13.8V43.9h18.1v22.8h16.9v15.7h-16.9v43.7c0,5.7,2.8,10,8,10
			c3.5,0,6.6-1.6,8-3.1l4.3,13.8c-3.3,2.9-8.6,5.4-16.9,5.4C429.6,152.3,422.4,144.7,422.4,130.7z"/>
		<path class="st1" d="M476.7,108.4c0-24,16.2-43.7,42.9-43.7c26.6,0,42.9,19.7,42.9,43.7c0,23.9-16.2,43.9-42.9,43.9
			C492.9,152.3,476.7,132.2,476.7,108.4z M543.6,108.4c0-14.7-8.5-27.7-24-27.7c-15.4,0-24,13-24,27.7c0,14.9,8.6,27.8,24,27.8
			C535.1,136.2,543.6,123.2,543.6,108.4z"/>
		<path class="st0" d="M623,64.6c-10.4,0-20.1,4.7-26.8,13.7V34.9h-18.1v115.3h18.1v-11.4c6.4,8.3,16.1,13.5,26.8,13.5
			c21.4,0,37.2-16.2,37.2-43.9C660.2,81.4,644.6,64.6,623,64.6z M641.3,108.4c0,16.2-9.2,27.8-23.5,27.8c-8.6,0-17.5-4.8-21.6-11.1
			V91.9c4.1-6.2,13-11.2,21.6-11.2C632.2,80.7,641.3,92.3,641.3,108.4z"/>
		<path class="st0" d="M827,133.1c-1.4,1.6-4.5,3.1-8,3.1c-5.2,0-8-4.3-8-10V82.4H828V66.7h-16.9V43.9h-18.1v22.8h-13.8v15.7h13.8
			v48.2c0,14,7.3,21.6,21.4,21.6c8.3,0,13.7-2.4,16.9-5.4L827,133.1z"/>
		<path class="st1" d="M954.6,152.3l-32.3-45.1L890,152.3h-24.2l43-59.1L868.3,37h24.2l29.7,42.2L951.8,37h24.4l-40.6,56l43.2,59.3
			H954.6z"/>
		<g>
			<path class="st0" d="M761.3,100.3l-7.8-0.9c-0.8-2.9-2-5.8-3.5-8.4l4.9-6.2c0.7-1,0.7-2.4-0.2-3.3l-8.1-8.1
				c-0.9-0.9-2.3-0.9-3.3-0.2l-6.2,4.9c-2.6-1.5-5.5-2.7-8.4-3.5l-0.9-7.8c-0.2-1.2-1.2-2.1-2.5-2.2h-11.4c-1.2,0-2.3,0.9-2.5,2.2
				l-0.9,7.8c-2.9,0.8-5.8,2-8.4,3.5l-6.2-4.9c-1-0.7-2.4-0.7-3.3,0.2l-8.1,8.1c-0.9,0.9-0.9,2.3-0.2,3.3l4.9,6.2
				c-1.5,2.6-2.7,5.5-3.5,8.4l-7.8,0.9c-1.2,0.2-2.1,1.2-2.2,2.5v11.4c0,1.2,1,2.3,2.2,2.5l7.8,0.9c0.8,2.9,2,5.8,3.5,8.4l-4.9,6.2
				c-0.7,1-0.7,2.4,0.2,3.3l8,8.1c0.9,0.9,2.3,0.9,3.3,0.2l6.2-4.9c2.6,1.5,5.4,2.7,8.4,3.5l0.9,7.8c0.1,1.2,1.2,2.2,2.5,2.2h11.4
				c1.2,0,2.3-0.9,2.5-2.2l0.9-7.8c2.9-0.8,5.8-2,8.4-3.5l6.2,4.9c1,0.7,2.4,0.7,3.3-0.2l8.1-8.1c0.9-0.9,0.9-2.3,0.2-3.3l-4.9-6.2
				c1.5-2.6,2.7-5.5,3.5-8.4l7.8-0.9c1.2-0.2,2.1-1.2,2.2-2.5v-11.4C763.4,101.5,762.5,100.5,761.3,100.3L761.3,100.3z M719.6,130.4
				c-12.1,0-21.9-9.8-21.9-21.9s9.8-21.9,21.9-21.9s21.9,9.8,21.9,21.9S731.7,130.4,719.6,130.4z"/>
		</g>
	</g>
</g>
</svg>
