<svg
                            width="38"
                            height="38"
                            viewBox="0 0 38 38"
                            fill="none"
                            xmlns="http://www.w3.org/2000/svg"
                          >
                            <rect
                              x="0.5"
                              y="0.5"
                              width="37"
                              height="37"
                              rx="7.5"
                              fill="#221F33"
                              stroke="#363347"
                            />
                            <path
                              d="M13.8983 25.9233C13.2764 25.9233 12.815 25.7966 12.514 25.5432C12.213 25.2898 12.0625 24.9098 12.0625 24.403C12.0625 23.733 12.3451 23.3056 12.9102 23.1209C13.4753 22.936 14.1442 22.8436 14.917 22.8436H15.2832V21.8733C15.2832 21.4805 15.2769 21.16 15.2644 20.9116C15.2519 20.6633 15.2165 20.4586 15.1581 20.2973C15.0999 20.1362 15.0328 20.024 14.9569 19.9606C14.8812 19.8972 14.7818 19.8655 14.6586 19.8655C14.551 19.8655 14.4548 19.8828 14.3701 19.9173C14.2853 19.9516 14.2147 19.9976 14.1582 20.0551C14.1131 20.1125 14.0843 20.1727 14.0718 20.2358C14.0593 20.299 14.0655 20.365 14.0905 20.4338C14.1589 20.561 14.2387 20.6851 14.3299 20.8064C14.4212 20.9276 14.4668 21.0691 14.4668 21.2309C14.4668 21.5198 14.3659 21.7651 14.164 21.967C13.962 22.1689 13.7168 22.2698 13.4284 22.2698C13.1399 22.2698 12.8947 22.1692 12.6929 21.968C12.4909 21.7666 12.3899 21.5221 12.3899 21.2345C12.3899 20.9238 12.4591 20.6698 12.5976 20.4725C12.7361 20.2751 12.9236 20.1183 13.1601 20.0022C13.3966 19.8861 13.6707 19.8055 13.9823 19.7603C14.2938 19.7151 14.6284 19.6925 14.986 19.6925C15.9669 19.6925 16.6479 19.8675 17.0292 20.2175C17.4104 20.5675 17.6011 21.1871 17.6011 22.0765V24.6233C17.6011 24.8428 17.6279 25.0052 17.6817 25.1105C17.7356 25.2158 17.825 25.2685 17.95 25.2685C18.0864 25.2685 18.1971 25.1632 18.2823 24.9526C18.3675 24.742 18.4219 24.4184 18.4454 23.9819H18.6394C18.6047 24.6984 18.4687 25.2011 18.2314 25.49C17.9942 25.7788 17.5978 25.9233 17.0421 25.9233C16.5445 25.9233 16.1546 25.8461 15.8723 25.6917C15.5902 25.5375 15.4102 25.3036 15.3323 24.9901C15.2171 25.3242 15.0471 25.5633 14.8225 25.7073C14.598 25.8513 14.2899 25.9233 13.8983 25.9233ZM20.3511 25.9233C20.1158 25.9233 19.9284 25.8273 19.789 25.6355C19.6495 25.4437 19.6258 25.2383 19.7178 25.0191L21.4765 20.3661C21.5544 20.168 21.6811 20.0062 21.8566 19.8807C22.0319 19.7552 22.2288 19.6925 22.447 19.6925C22.6654 19.6925 22.8623 19.7552 23.0376 19.8807C23.2131 20.0062 23.3398 20.168 23.4177 20.3661L25.1764 25.0191C25.2684 25.2383 25.2447 25.4437 25.1052 25.6355C24.9658 25.8273 24.7786 25.9233 24.5436 25.9233C24.4026 25.9233 24.2745 25.8829 24.1593 25.8021C24.044 25.7215 23.9576 25.612 23.8999 25.4736L23.554 24.4709H21.3409L20.9954 25.4736C20.9493 25.6005 20.8686 25.7071 20.7535 25.7935C20.6384 25.88 20.5043 25.9233 20.3511 25.9233ZM14.7484 25.4228C14.8992 25.4228 15.026 25.3044 15.1289 25.0675C15.2318 24.8306 15.2832 24.5447 15.2832 24.2097V23.0487C14.9832 23.0487 14.7639 23.1383 14.6254 23.3176C14.4871 23.4968 14.4179 23.7888 14.4179 24.1936V24.3845C14.4179 24.8007 14.4411 25.0778 14.4874 25.2158C14.5338 25.3538 14.6208 25.4228 14.7484 25.4228ZM21.7922 23.2593H23.1207L22.447 21.2877L21.7922 23.2593ZM21.1514 18.3267C20.5979 18.3267 20.1563 18.133 19.8265 17.7455C19.4966 17.358 19.3317 16.836 19.3317 16.1796C19.3317 14.9821 19.7118 13.999 20.4719 13.2303C21.232 12.4615 22.208 12.0771 23.3999 12.0771C23.8859 12.0771 24.2781 12.132 24.5766 12.2416C24.8752 12.3512 25.0246 12.4926 25.0246 12.6657C25.0246 12.7348 25.0133 12.8033 24.9906 12.8712C24.968 12.939 24.9278 13.0041 24.8701 13.0666C24.8076 13.1445 24.7342 13.201 24.6499 13.2361C24.5656 13.2712 24.4784 13.2763 24.3884 13.2513C24.2268 13.205 24.0421 13.1646 23.8343 13.13C23.6264 13.0955 23.4359 13.0782 23.2628 13.0782C22.4431 13.0782 21.7849 13.3551 21.2882 13.9088C20.7916 14.4627 20.5433 15.1954 20.5433 16.1069C20.5433 16.3579 20.5885 16.6226 20.6789 16.901C20.7692 17.1793 20.9774 17.3185 21.3034 17.3185C21.4264 17.3185 21.5487 17.2909 21.6704 17.2356C21.792 17.1803 21.9004 17.0988 21.9957 16.9911C22.1927 16.7838 22.3752 16.4381 22.5432 15.9543C22.7112 15.4704 22.8647 14.8828 23.0039 14.1916C23.0267 14.0395 23.087 13.9313 23.1846 13.867C23.2823 13.8026 23.4172 13.7705 23.5894 13.7705C23.7962 13.7705 23.9541 13.8262 24.0633 13.9377C24.1724 14.0492 24.2038 14.186 24.1574 14.3481C24.0181 14.8456 23.9178 15.2782 23.8563 15.6458C23.7948 16.0133 23.764 16.3464 23.764 16.645C23.764 16.8773 23.7953 17.0456 23.8579 17.1501C23.9207 17.2546 24.0148 17.3069 24.1403 17.3069C24.2679 17.3069 24.3926 17.2593 24.5144 17.1642C24.6361 17.069 24.8062 16.8959 25.0246 16.645C25.0496 16.6075 25.1359 16.5685 25.2835 16.528C25.3743 16.528 25.4434 16.5627 25.4911 16.6321C25.5387 16.7015 25.5625 16.7997 25.5625 16.9268C25.5625 17.2505 25.3779 17.5615 25.0086 17.86C24.6394 18.1586 24.2528 18.308 23.8489 18.308C23.5489 18.308 23.2918 18.2265 23.0774 18.0635C22.863 17.9005 22.7169 17.6709 22.639 17.3748C22.466 17.6748 22.2526 17.9084 21.9989 18.0756C21.7453 18.243 21.4628 18.3267 21.1514 18.3267ZM12.7549 18.308V14.4968C12.7549 13.827 12.9908 13.2562 13.4624 12.7846C13.934 12.313 14.5059 12.0771 15.178 12.0771C15.85 12.0771 16.4218 12.313 16.8934 12.7846C17.3652 13.2562 17.6011 13.827 17.6011 14.4968V18.308H16.2164V16.9221H14.1394V18.308H12.7549ZM14.1394 15.5388H16.2164V14.5002C16.2164 14.2117 16.1154 13.9665 15.9136 13.7646C15.7116 13.5628 15.4664 13.4618 15.178 13.4618C14.8895 13.4618 14.6443 13.5628 14.4423 13.7646C14.2404 13.9665 14.1394 14.2117 14.1394 14.5002V15.5388Z"
                              fill="#9B98AE"
                            />
                          </svg>