<svg width="1620" height="737" viewBox="0 0 1620 737" fill="none" xmlns="http://www.w3.org/2000/svg">
<path d="M2226.24 347.599C2226.24 347.599 2036.9 247.948 1735.23 247.948C1433.55 247.948 1352.39 379.349 971.666 379.349C590.939 379.349 511.844 93.5698 0.0234375 93.5698" stroke="white" stroke-width="0.686943" stroke-miterlimit="10"/>
<path opacity="0.9756" d="M2226.24 352C2226.24 352 2027.56 241.765 1725.86 241.765C1424.18 241.765 1352.39 392.039 971.643 392.039C590.891 392.039 511.82 105.584 0 105.584" stroke="white" stroke-width="0.67935" stroke-miterlimit="10"/>
<path opacity="0.9512" d="M2226.24 356.375C2226.24 356.375 2018.19 235.584 1716.52 235.584C1414.84 235.584 1352.41 404.702 971.666 404.702C590.914 404.702 511.844 117.601 0.0234375 117.601" stroke="white" stroke-width="0.67163" stroke-miterlimit="10"/>
<path opacity="0.9268" d="M2226.24 360.773C2226.24 360.773 2008.83 229.399 1707.15 229.399C1405.47 229.399 1352.41 417.362 971.666 417.362C590.914 417.362 511.844 129.611 0.0234375 129.611" stroke="white" stroke-width="0.66391" stroke-miterlimit="10"/>
<path opacity="0.9024" d="M2226.24 365.148C2226.24 365.148 1999.46 223.216 1697.78 223.216C1396.11 223.216 1352.41 430.025 971.666 430.025C590.914 430.025 511.844 141.6 0.0234375 141.6" stroke="white" stroke-width="0.65619" stroke-miterlimit="10"/>
<path opacity="0.878" d="M2226.24 369.549C2226.24 369.549 1990.09 217.035 1688.42 217.035C1386.74 217.035 1352.39 442.688 971.666 442.688C590.939 442.688 511.844 153.642 0.0234375 153.642" stroke="white" stroke-width="0.64847" stroke-miterlimit="10"/>
<path opacity="0.8537" d="M2226.24 373.923C2226.24 373.923 1980.75 210.852 1679.05 210.852C1377.34 210.852 1352.39 455.377 971.643 455.377C590.891 455.377 511.82 165.657 0 165.657" stroke="white" stroke-width="0.64075" stroke-miterlimit="10"/>
<path opacity="0.8293" d="M2226.24 378.296C2226.24 378.296 1971.38 204.642 1669.7 204.642C1368.02 204.642 1352.41 468.012 971.666 468.012C590.914 468.012 511.844 177.643 0.0234375 177.643" stroke="white" stroke-width="0.633157" stroke-miterlimit="10"/>
<path opacity="0.8049" d="M2226.24 382.698C2226.24 382.698 1962.01 198.487 1660.33 198.487C1358.65 198.487 1352.41 480.702 971.666 480.702C590.914 480.702 511.844 189.658 0.0234375 189.658" stroke="white" stroke-width="0.625437" stroke-miterlimit="10"/>
<path opacity="0.7805" d="M2226.24 387.069C2226.24 387.069 1952.64 192.301 1650.96 192.301C1349.29 192.301 1352.41 493.362 971.666 493.362C590.914 493.362 511.844 201.67 0.0234375 201.67" stroke="white" stroke-width="0.617717" stroke-miterlimit="10"/>
<path opacity="0.7561" d="M2226.24 391.47C2226.24 391.47 1943.28 186.12 1641.6 186.12C1339.92 186.12 1352.39 506.025 971.666 506.025C590.939 506.025 511.844 213.686 0.0234375 213.686" stroke="white" stroke-width="0.609997" stroke-miterlimit="10"/>
<path opacity="0.7317" d="M2226.24 395.844C2226.24 395.844 1933.93 179.937 1632.23 179.937C1330.53 179.937 1352.39 518.714 971.643 518.714C590.891 518.714 511.82 225.726 0 225.726" stroke="white" stroke-width="0.602277" stroke-miterlimit="10"/>
<path opacity="0.7073" d="M2226.24 400.22C2226.24 400.22 1924.57 173.729 1622.89 173.729C1321.21 173.729 1352.39 531.352 971.643 531.352C590.891 531.352 511.82 237.689 0 237.689" stroke="white" stroke-width="0.594684" stroke-miterlimit="10"/>
<path opacity="0.6829" d="M2226.24 404.621C2226.24 404.621 1915.2 167.574 1613.52 167.574C1311.84 167.574 1352.41 544.041 971.666 544.041C590.914 544.041 511.844 249.73 0.0234375 249.73" stroke="white" stroke-width="0.586964" stroke-miterlimit="10"/>
<path opacity="0.6585" d="M2226.24 408.995C2226.24 408.995 1905.83 161.365 1604.15 161.365C1302.48 161.365 1352.41 556.676 971.666 556.676C590.914 556.676 511.844 261.717 0.0234375 261.717" stroke="white" stroke-width="0.579244" stroke-miterlimit="10"/>
<path opacity="0.6341" d="M2226.24 413.395C2226.24 413.395 1896.46 155.207 1594.79 155.207C1293.11 155.207 1352.39 569.365 971.666 569.365C590.939 569.365 511.844 273.731 0.0234375 273.731" stroke="white" stroke-width="0.571524" stroke-miterlimit="10"/>
<path opacity="0.6098" d="M2226.24 417.768C2226.24 417.768 1887.12 148.998 1585.42 148.998C1283.72 148.998 1352.39 582.026 971.643 582.026C590.891 582.026 511.82 285.746 0 285.746" stroke="white" stroke-width="0.563804" stroke-miterlimit="10"/>
<path opacity="0.5854" d="M2226.24 422.143C2226.24 422.143 1877.76 142.817 1576.08 142.817C1274.4 142.817 1352.41 594.691 971.666 594.691C590.914 594.691 511.844 297.761 0.0234375 297.761" stroke="white" stroke-width="0.556085" stroke-miterlimit="10"/>
<path opacity="0.561" d="M2226.24 426.541C2226.24 426.541 1868.39 136.631 1566.71 136.631C1265.03 136.631 1352.41 607.35 971.666 607.35C590.914 607.35 511.844 309.773 0.0234375 309.773" stroke="white" stroke-width="0.548491" stroke-miterlimit="10"/>
<path opacity="0.5366" d="M2226.24 430.916C2226.24 430.916 1859.02 130.45 1557.34 130.45C1255.67 130.45 1352.41 620.013 971.666 620.013C590.914 620.013 511.844 321.761 0.0234375 321.761" stroke="white" stroke-width="0.540771" stroke-miterlimit="10"/>
<path opacity="0.5122" d="M2226.24 435.318C2226.24 435.318 1849.65 124.268 1547.98 124.268C1246.3 124.268 1352.39 632.677 971.666 632.677C590.939 632.677 511.844 333.777 0.0234375 333.777" stroke="white" stroke-width="0.533051" stroke-miterlimit="10"/>
<path opacity="0.4878" d="M2226.24 439.689C2226.24 439.689 1840.31 118.083 1538.61 118.083C1236.9 118.083 1352.39 645.337 971.643 645.337C590.891 645.337 511.82 345.789 0 345.789" stroke="white" stroke-width="0.525332" stroke-miterlimit="10"/>
<path opacity="0.4634" d="M2226.24 444.09C2226.24 444.09 1830.95 111.9 1529.27 111.9C1227.58 111.9 1352.39 658.025 971.643 658.025C590.891 658.025 511.82 357.83 0 357.83" stroke="white" stroke-width="0.517612" stroke-miterlimit="10"/>
<path opacity="0.439" d="M2226.24 448.468C2226.24 448.468 1821.58 105.722 1519.89 105.722C1218.22 105.722 1352.39 670.693 971.643 670.693C590.891 670.693 511.82 369.821 0 369.821" stroke="white" stroke-width="0.510018" stroke-miterlimit="10"/>
<path opacity="0.4146" d="M2226.24 452.839C2226.24 452.839 1812.2 99.537 1510.53 99.537C1208.85 99.537 1352.39 683.352 971.643 683.352C590.891 683.352 511.82 381.833 0 381.833" stroke="white" stroke-width="0.502298" stroke-miterlimit="10"/>
<path opacity="0.3902" d="M2226.24 457.239C2226.24 457.239 1802.84 93.3537 1501.16 93.3537C1199.48 93.3537 1352.39 696.014 971.643 696.014C590.891 696.014 511.82 393.847 0 393.847" stroke="white" stroke-width="0.494579" stroke-miterlimit="10"/>
<path opacity="0.3659" d="M2226.24 461.615C2226.24 461.615 1793.49 87.1723 1491.79 87.1723C1190.09 87.1723 1352.39 708.677 971.643 708.677C590.891 708.677 511.82 405.836 0 405.836" stroke="white" stroke-width="0.486859" stroke-miterlimit="10"/>
<path opacity="0.3415" d="M2226.24 466.015C2226.24 466.015 1784.13 80.989 1482.45 80.989C1180.77 80.989 1352.39 721.339 971.643 721.339C590.891 721.339 511.82 417.849 0 417.849" stroke="white" stroke-width="0.479139" stroke-miterlimit="10"/>
<path opacity="0.3171" d="M2226.24 470.387C2226.24 470.387 1774.76 74.8056 1473.08 74.8056C1171.41 74.8056 1352.39 734.028 971.643 734.028C590.891 734.028 511.82 429.89 0 429.89" stroke="white" stroke-width="0.471419" stroke-miterlimit="10"/>
<path opacity="0.2927" d="M2226.24 474.762C2226.24 474.762 1765.39 68.5962 1463.72 68.5962C1162.04 68.5962 1352.39 746.691 971.643 746.691C590.891 746.691 511.82 441.904 0 441.904" stroke="white" stroke-width="0.463826" stroke-miterlimit="10"/>
<path opacity="0.2683" d="M2226.24 479.163C2226.24 479.163 1756.03 62.4409 1454.35 62.4409C1152.67 62.4409 1352.39 759.353 971.643 759.353C590.891 759.353 511.82 453.892 0 453.892" stroke="white" stroke-width="0.456106" stroke-miterlimit="10"/>
<path opacity="0.2439" d="M2226.24 483.537C2226.24 483.537 1746.68 56.2315 1444.98 56.2315C1143.28 56.2315 1352.39 772.016 971.643 772.016C590.891 772.016 511.82 465.907 0 465.907" stroke="white" stroke-width="0.448386" stroke-miterlimit="10"/>
<path opacity="0.2195" d="M2226.24 487.938C2226.24 487.938 1737.32 50.0762 1435.62 50.0762C1133.91 50.0762 1352.39 784.706 971.643 784.706C590.891 784.706 511.82 477.948 0 477.948" stroke="white" stroke-width="0.440666" stroke-miterlimit="10"/>
<path opacity="0.1951" d="M2226.24 492.308C2226.24 492.308 1727.95 43.8628 1426.27 43.8628C1124.59 43.8628 1352.41 797.337 971.666 797.337C590.914 797.337 511.844 489.932 0.0234375 489.932" stroke="white" stroke-width="0.432946" stroke-miterlimit="10"/>
<path opacity="0.1707" d="M2226.24 496.683C2226.24 496.683 1718.58 37.6814 1416.91 37.6814C1115.23 37.6814 1352.39 810 971.643 810C590.891 810 511.82 501.92 0 501.92" stroke="white" stroke-width="0.425353" stroke-miterlimit="10"/>
<path opacity="0.1463" d="M2226.24 501.085C2226.24 501.085 1709.22 31.5001 1407.54 31.5001C1105.86 31.5001 1352.39 822.664 971.643 822.664C590.891 822.664 511.82 513.936 0 513.936" stroke="white" stroke-width="0.417633" stroke-miterlimit="10"/>
<path opacity="0.122" d="M2226.24 505.46C2226.24 505.46 1699.87 25.3187 1398.17 25.3187C1096.46 25.3187 1352.39 835.355 971.642 835.355C590.89 835.355 511.844 525.952 0.0234375 525.952" stroke="white" stroke-width="0.409913" stroke-miterlimit="10"/>
<path opacity="0.0976" d="M2226.24 509.859C2226.24 509.859 1690.51 19.1613 1388.8 19.1613C1087.1 19.1613 1352.39 848.015 971.643 848.015C590.891 848.015 511.82 537.965 0 537.965" stroke="white" stroke-width="0.402193" stroke-miterlimit="10"/>
<path opacity="0.0732" d="M2226.24 514.233C2226.24 514.233 1681.14 12.952 1379.45 12.952C1077.78 12.952 1352.41 860.678 971.666 860.678C590.914 860.678 511.844 549.979 0.0234375 549.979" stroke="white" stroke-width="0.394473" stroke-miterlimit="10"/>
<path opacity="0.0488" d="M2226.24 518.634C2226.24 518.634 1671.76 6.79663 1370.09 6.79663C1068.41 6.79663 1352.39 873.341 971.643 873.341C590.891 873.341 511.82 561.994 0 561.994" stroke="white" stroke-width="0.386753" stroke-miterlimit="10"/>
<path opacity="0.0244" d="M2226.24 523.009C2226.24 523.009 1662.4 0.587265 1360.72 0.587265C1059.04 0.587265 1352.39 886.006 971.642 886.006C590.89 886.006 511.844 574.009 0.0234375 574.009" stroke="white" stroke-width="0.37916" stroke-miterlimit="10"/>
</svg>
