<svg
                            width="38"
                            height="38"
                            viewBox="0 0 38 38"
                            fill="none"
                            xmlns="http://www.w3.org/2000/svg"
                          >
                            <rect
                              x="0.5"
                              y="0.5"
                              width="37"
                              height="37"
                              rx="7.5"
                              fill="#221F33"
                              stroke="#363347"
                            />
                            <path
                              d="M15.4375 22.5625H20.3125V21.4375H15.4375V22.5625ZM15.4375 19.5625H22.5625V18.4375H15.4375V19.5625ZM15.4375 16.5625H22.5625V15.4375H15.4375V16.5625ZM13.9808 25.375C13.6019 25.375 13.2812 25.2438 13.0188 24.9813C12.7563 24.7188 12.625 24.3981 12.625 24.0192V13.9808C12.625 13.6019 12.7563 13.2812 13.0188 13.0188C13.2812 12.7563 13.6019 12.625 13.9808 12.625H24.0192C24.3981 12.625 24.7188 12.7563 24.9813 13.0188C25.2438 13.2812 25.375 13.6019 25.375 13.9808V24.0192C25.375 24.3981 25.2438 24.7188 24.9813 24.9813C24.7188 25.2438 24.3981 25.375 24.0192 25.375H13.9808ZM13.9808 24.25H24.0192C24.0769 24.25 24.1298 24.2259 24.1778 24.1778C24.2259 24.1298 24.25 24.0769 24.25 24.0192V13.9808C24.25 13.9231 24.2259 13.8702 24.1778 13.8222C24.1298 13.7741 24.0769 13.75 24.0192 13.75H13.9808C13.9231 13.75 13.8702 13.7741 13.8222 13.8222C13.7741 13.8702 13.75 13.9231 13.75 13.9808V24.0192C13.75 24.0769 13.7741 24.1298 13.8222 24.1778C13.8702 24.2259 13.9231 24.25 13.9808 24.25Z"
                              fill="#9B98AE"
                            />
                          </svg>