<svg
                            width="38"
                            height="38"
                            viewBox="0 0 38 38"
                            fill="none"
                            xmlns="http://www.w3.org/2000/svg"
                          >
                            <rect
                              x="0.5"
                              y="0.5"
                              width="37"
                              height="37"
                              rx="7.5"
                              fill="#221F33"
                              stroke="#363347"
                            />
                            <path
                              d="M11.7744 25.4325V13.245L15.3369 10.6631L18.8992 13.245V15.3075H26.2262V25.4325H11.7744ZM12.8992 24.3075H14.7744V22.4325H12.8992V24.3075ZM12.8992 21.3075H14.7744V19.4325H12.8992V21.3075ZM12.8992 18.3075H14.7744V16.4325H12.8992V18.3075ZM12.8992 15.3075H14.7744V13.4325H12.8992V15.3075ZM15.8992 15.3075H17.7744V13.4325H15.8992V15.3075ZM15.8992 24.3075H25.1014V16.4325H15.8992V24.3075ZM20.5436 19.4325V18.3075H23.3128V19.4325H20.5436ZM20.5436 22.4325V21.3075H23.3128V22.4325H20.5436ZM17.7744 19.4325V18.3075H18.8992V19.4325H17.7744ZM17.7744 22.4325V21.3075H18.8992V22.4325H17.7744Z"
                              fill="#9B98AE"
                            />
                          </svg>