<svg
                            width="38"
                            height="38"
                            viewBox="0 0 38 38"
                            fill="none"
                            xmlns="http://www.w3.org/2000/svg"
                          >
                            <rect
                              x="0.5"
                              y="0.5"
                              width="37"
                              height="37"
                              rx="7.5"
                              fill="#221F33"
                              stroke="#363347"
                            />
                            <g filter="url(#filter0_d_8217_2362)">
                              <path
                                d="M19 25.7067C18.699 25.7067 18.4329 25.6274 18.2016 25.4688C17.9704 25.31 17.8086 25.1018 17.7164 24.8442H17.5C17.1933 24.8442 16.9291 24.7334 16.7074 24.5118C16.4858 24.2901 16.375 24.0259 16.375 23.7192V21.2586C15.6183 20.8 15.0228 20.1851 14.5887 19.414C14.1546 18.6427 13.9375 17.8173 13.9375 16.9375C13.9375 15.526 14.4284 14.3294 15.4101 13.3476C16.3919 12.3659 17.5885 11.875 19 11.875C20.4115 11.875 21.6081 12.3659 22.5899 13.3476C23.5716 14.3294 24.0625 15.526 24.0625 16.9375C24.0625 17.8326 23.8454 18.6619 23.4113 19.4254C22.9772 20.1889 22.3818 20.8 21.625 21.2586V23.7192C21.625 24.0259 21.5142 24.2901 21.2926 24.5118C21.0709 24.7334 20.8068 24.8442 20.5 24.8442H20.2836C20.1914 25.1018 20.0296 25.31 19.7984 25.4688C19.5671 25.6274 19.301 25.7067 19 25.7067ZM17.5 23.7192H20.5V23.0153H17.5V23.7192ZM17.5 22.3519H20.5V21.625H17.5V22.3519ZM17.35 20.5H18.5528V18.3164L16.9461 16.7097L17.575 16.0808L19 17.5058L20.425 16.0808L21.0539 16.7097L19.4472 18.3164V20.5H20.65C21.325 20.175 21.875 19.6969 22.3 19.0656C22.725 18.4344 22.9375 17.725 22.9375 16.9375C22.9375 15.8375 22.5563 14.9063 21.7938 14.1438C21.0313 13.3813 20.1 13 19 13C17.9 13 16.9688 13.3813 16.2063 14.1438C15.4438 14.9063 15.0625 15.8375 15.0625 16.9375C15.0625 17.725 15.275 18.4344 15.7 19.0656C16.125 19.6969 16.675 20.175 17.35 20.5Z"
                                fill="#9B98AE"
                              />
                            </g>
                            <defs>
                              <filter
                                id="filter0_d_8217_2362"
                                x="6"
                                y="10"
                                width="26"
                                height="26"
                                filterUnits="userSpaceOnUse"
                                color-interpolation-filters="sRGB"
                              >
                                <feFlood
                                  flood-opacity="0"
                                  result="BackgroundImageFix"
                                />
                                <feColorMatrix
                                  in="SourceAlpha"
                                  type="matrix"
                                  values="0 0 0 0 0 0 0 0 0 0 0 0 0 0 0 0 0 0 127 0"
                                  result="hardAlpha"
                                />
                                <feOffset dy="4" />
                                <feGaussianBlur stdDeviation="2" />
                                <feComposite in2="hardAlpha" operator="out" />
                                <feColorMatrix
                                  type="matrix"
                                  values="0 0 0 0 0 0 0 0 0 0 0 0 0 0 0 0 0 0 0.25 0"
                                />
                                <feBlend
                                  mode="normal"
                                  in2="BackgroundImageFix"
                                  result="effect1_dropShadow_8217_2362"
                                />
                                <feBlend
                                  mode="normal"
                                  in="SourceGraphic"
                                  in2="effect1_dropShadow_8217_2362"
                                  result="shape"
                                />
                              </filter>
                            </defs>
                          </svg>