<svg
                            width="38"
                            height="38"
                            viewBox="0 0 38 38"
                            fill="none"
                            xmlns="http://www.w3.org/2000/svg"
                          >
                            <rect
                              x="0.5"
                              y="0.5"
                              width="37"
                              height="37"
                              rx="7.5"
                              fill="#221F33"
                              stroke="#363347"
                            />
                            <path
                              d="M10.375 23.341V22.4266C10.375 21.9276 10.6356 21.5177 11.1567 21.197C11.6779 20.8763 12.3573 20.716 13.1948 20.716C13.3332 20.716 13.4726 20.7203 13.6129 20.729C13.7533 20.7376 13.8947 20.7544 14.0371 20.7794C13.8909 21.0132 13.7825 21.2557 13.7118 21.5071C13.6411 21.7586 13.6058 22.0165 13.6058 22.2809V23.341H10.375ZM14.875 23.341V22.3098C14.875 21.9587 14.9736 21.6377 15.1707 21.347C15.3678 21.0561 15.6519 20.8025 16.0231 20.5863C16.3942 20.3699 16.8327 20.2077 17.3386 20.0995C17.8443 19.9913 18.3972 19.9372 18.9972 19.9372C19.6087 19.9372 20.1673 19.9913 20.6731 20.0995C21.1788 20.2077 21.6173 20.3699 21.9884 20.5863C22.3596 20.8025 22.6419 21.0561 22.8351 21.347C23.0284 21.6377 23.125 21.9587 23.125 22.3098V23.341H14.875ZM24.3942 23.341V22.2832C24.3942 22.001 24.3608 21.7352 24.2941 21.4855C24.2272 21.236 24.1269 21.0007 23.9933 20.7794C24.1404 20.7544 24.2811 20.7376 24.4152 20.729C24.5493 20.7203 24.6818 20.716 24.8125 20.716C25.65 20.716 26.3281 20.8745 26.8469 21.1913C27.3656 21.5081 27.625 21.9198 27.625 22.4266V23.341H24.3942ZM16.0577 22.216H21.9539V22.1367C21.877 21.8338 21.5578 21.579 20.9961 21.3723C20.4346 21.1655 19.7693 21.0622 19 21.0622C18.2308 21.0622 17.5654 21.1655 17.0039 21.3723C16.4423 21.579 16.1269 21.8338 16.0577 22.1367V22.216ZM13.1927 19.9876C12.8393 19.9876 12.5373 19.8619 12.2868 19.6105C12.0363 19.3592 11.911 19.057 11.911 18.704C11.911 18.3463 12.0368 18.0442 12.2883 17.7976C12.5396 17.551 12.8418 17.4277 13.1948 17.4277C13.5524 17.4277 13.8558 17.551 14.1048 17.7976C14.3539 18.0442 14.4784 18.3471 14.4784 18.7062C14.4784 19.0547 14.3552 19.3554 14.1087 19.6083C13.8623 19.8612 13.557 19.9876 13.1927 19.9876ZM24.8125 19.9876C24.4625 19.9876 24.1611 19.8612 23.9082 19.6083C23.6553 19.3554 23.5289 19.0547 23.5289 18.7062C23.5289 18.3471 23.6553 18.0442 23.9082 17.7976C24.1611 17.551 24.4629 17.4277 24.8138 17.4277C25.1754 17.4277 25.4796 17.551 25.7262 17.7976C25.9728 18.0442 26.0961 18.3463 26.0961 18.704C26.0961 19.057 25.9731 19.3592 25.7271 19.6105C25.4811 19.8619 25.1763 19.9876 24.8125 19.9876ZM19.0026 19.3747C18.4624 19.3747 18.0024 19.1853 17.6226 18.8067C17.2429 18.4282 17.053 17.9685 17.053 17.4277C17.053 16.8759 17.2423 16.4135 17.6208 16.0403C17.9994 15.6671 18.4591 15.4805 19 15.4805C19.5516 15.4805 20.0141 15.6668 20.3873 16.0396C20.7604 16.4122 20.947 16.874 20.947 17.425C20.947 17.9652 20.7607 18.4252 20.3881 18.805C20.0153 19.1848 19.5535 19.3747 19.0026 19.3747ZM19.0036 18.2497C19.2329 18.2497 19.4267 18.1694 19.5848 18.0089C19.7431 17.8483 19.8222 17.6533 19.8222 17.4239C19.8222 17.1947 19.7434 17.0009 19.5858 16.8427C19.4281 16.6845 19.2329 16.6055 19 16.6055C18.7731 16.6055 18.5794 16.6843 18.4188 16.8419C18.2581 16.9994 18.1778 17.1947 18.1778 17.4277C18.1778 17.6545 18.2581 17.8483 18.4188 18.0089C18.5794 18.1694 18.7743 18.2497 19.0036 18.2497Z"
                              fill="#9B98AE"
                            />
                          </svg>