<svg width="54" height="48" viewBox="0 0 54 48" fill="none" xmlns="http://www.w3.org/2000/svg">
<g clip-path="url(#clip0_5740_33578)">
<path d="M52.6197 18.0704C51.0648 11.3542 47.8191 5.83231 42.2176 1.73109C41.0171 0.869321 39.5574 -0.246922 38.018 0.0512635C36.3257 0.45717 35.2579 2.10109 34.0526 3.25324C32.237 5.12509 30.4541 7.04847 28.64 8.91564C27.9515 9.6369 27.1429 10.5799 27.2849 11.5993C27.6081 13.2713 29.6673 14.6108 30.7585 15.9019C33.692 18.7807 36.5084 21.9171 39.5464 24.6149C41.8023 26.3649 41.3636 22.7149 41.0592 21.2458C40.6283 19.082 39.7634 17.0291 38.5894 15.176C37.929 14.0519 36.819 13.1839 36.3897 11.9474C35.9682 10.3753 37.5481 8.73766 39.0203 8.50505C40.6174 8.41606 41.6868 10.1349 42.6344 11.2387C44.4267 13.5055 45.7224 16.1314 46.4187 18.9493C47.0291 21.3582 47.2227 23.8561 46.9964 26.3275C46.898 28.4772 45.3556 37.1402 41.9975 35.1263C40.7438 34.2895 39.8087 32.9921 38.6753 31.9571C37.4747 30.7799 36.2071 29.6465 35.0065 28.4772C31.7062 25.2268 28.6182 21.7485 25.449 18.3873C23.3445 16.1704 21.1479 14.2034 19.1699 11.8678C17.4573 9.93196 15.5495 8.16627 13.8073 6.25695C12.6348 5.11885 11.3796 3.15176 9.56867 3.42341C6.78821 4.23835 5.02876 7.98361 3.66742 10.3613C0.276538 16.2126 -0.79287 23.2566 0.58409 29.8635C1.65506 35.0732 4.26535 39.9628 8.03247 43.7159C9.30015 45.0007 10.6974 46.1419 12.2039 47.1208C13.648 48.1481 15.3435 48.4197 16.7173 47.1536C19.1122 44.9211 21.3165 42.4654 23.6193 40.1392C25.7144 38.1565 26.6121 36.8311 24.1673 34.6142C22.0409 32.6112 20.0879 30.4271 18.0896 28.3164C16.8625 27.0284 15.5995 25.7389 14.349 24.4743C13.787 23.9592 12.6255 22.6977 12.1056 23.7047C11.8043 24.4306 11.9323 25.4329 12.0759 26.5179C12.4803 29.2562 13.6636 31.8759 15.434 33.9929C16.135 34.9015 17.2497 35.6789 17.4073 36.8654C17.4526 38.1237 16.2833 39.1479 15.3466 39.8379C14.1211 40.7403 12.652 39.9238 11.7465 38.8825C9.4188 36.4392 7.68433 33.3091 6.75231 30.0696C5.91864 26.9988 5.73754 23.6547 6.25117 20.5214C6.67581 18.0735 7.46576 15.6131 8.82555 13.5039C9.56867 12.4002 10.6131 12.344 11.5498 13.1527C13.7417 15.2041 15.7947 17.4084 17.9179 19.5426C23.5475 25.2315 29.0522 31.0422 34.6974 36.7202C36.7301 38.7732 38.7003 40.8917 40.7282 42.9415C41.3683 43.6003 42.2113 44.3981 43.0575 44.5121C44.5188 44.7181 45.6756 43.2225 46.578 42.2234C52.2731 35.7304 54.4166 26.5039 52.6275 18.1001L52.6213 18.0704H52.6197ZM12.805 6.64412C12.7863 6.63319 12.7582 6.62851 12.7691 6.60041C12.7956 6.59729 12.8253 6.62851 12.8128 6.641H12.805V6.64412ZM7.39863 13.9301H7.39707C7.39707 13.9301 7.39707 13.9301 7.39863 13.9301ZM52.7556 25.8357C52.7431 25.8388 52.7821 25.8357 52.7758 25.8451C52.7836 25.8497 52.7462 25.8451 52.7571 25.8373L52.7556 25.8357ZM52.9179 25.8357C52.9179 25.8357 52.9179 25.8404 52.9179 25.8419C52.9132 25.8388 52.9085 25.8388 52.9023 25.8357C52.907 25.8357 52.9117 25.8357 52.9164 25.8357H52.9179ZM36.8784 13.7865C36.844 13.7725 36.8534 13.7553 36.8784 13.7787V13.7865ZM6.40572 29.5872C6.40572 29.5872 6.40104 29.5794 6.40572 29.5856V29.5872Z" fill="url(#paint0_linear_5740_33578)"/>
</g>
<defs>
<linearGradient id="paint0_linear_5740_33578" x1="26.6213" y1="0.00195312" x2="26.6213" y2="48.001" gradientUnits="userSpaceOnUse">
<stop stop-color="#C3C0D8"/>
<stop offset="1" stop-color="#7361E5"/>
</linearGradient>
<clipPath id="clip0_5740_33578">
<rect width="53.2424" height="48" fill="white"/>
</clipPath>
</defs>
</svg>
