<?xml version="1.0" encoding="utf-8"?>
<!-- Generator: Adobe Illustrator 24.3.0, SVG Export Plug-In . SVG Version: 6.00 Build 0)  -->
<svg version="1.1" id="Layer_1" xmlns="http://www.w3.org/2000/svg" xmlns:xlink="http://www.w3.org/1999/xlink" x="0px" y="0px"
	 width="1246px" height="1091.6px" viewBox="0 0 1246 1091.6" style="enable-background:new 0 0 1246 1091.6;" xml:space="preserve"
	>
<style type="text/css">
	.st0{fill:#FF4772;}
	.st1{fill-rule:evenodd;clip-rule:evenodd;fill:#FF4772;}
	.st2{fill:#1B172F;}
	.st3{fill:#F0D009;}
	.st4{fill-rule:evenodd;clip-rule:evenodd;fill:#F0D009;}
	.st5{fill:#07D3B0;}
	.st6{fill:#836AFC;}
	.st7{fill:#6A57C8;}
	.st8{fill:#13092D;}
	.st9{fill:#030014;}
	.st10{opacity:0.5;}
	.st11{fill:url(#SVGID_1_);}
	.st12{fill:url(#SVGID_2_);}
	.st13{fill:url(#SVGID_3_);}
	.st14{fill:url(#SVGID_4_);}
	.st15{fill:#1F1B44;}
	.st16{fill:#FFFFFF;}
</style>
<g>
	<g>
		<g>
			<g>
				<path d="M21.2,747.5h557.1c11.7,0,21.2,9.5,21.2,21.2v106.1c0,11.7-9.5,21.2-21.2,21.2H21.2C9.5,896,0,886.5,0,874.8V768.7
					C0,757,9.5,747.5,21.2,747.5z"/>
			</g>
			<g>
				<path class="st0" d="M578.3,895.3H21.2c-11.3,0-20.5-9.2-20.5-20.5V768.7c0-11.3,9.2-20.5,20.5-20.5h557.1
					c11.3,0,20.5,9.2,20.5,20.5v106.1C598.8,886.1,589.6,895.3,578.3,895.3z M21.2,749.4c-10.6,0-19.3,8.6-19.3,19.3v106.1
					c0,10.6,8.6,19.3,19.3,19.3h557.1c10.6,0,19.3-8.6,19.3-19.3V768.7c0-10.6-8.6-19.3-19.3-19.3H21.2z"/>
			</g>
			<g>
				<path class="st1" d="M74.3,793.4c-6.8,0-12.4,5.5-12.4,12.4c0,6.8,5.5,12.4,12.4,12.4c6.8,0,12.4-5.5,12.4-12.4
					C86.7,799,81.1,793.4,74.3,793.4z M54.8,805.8c0-10.7,8.7-19.5,19.5-19.5c10.7,0,19.5,8.7,19.5,19.5s-8.7,19.5-19.5,19.5
					C63.5,825.3,54.8,816.6,54.8,805.8z M74.3,839.4c-11.3,0-21.6,4.9-29.3,13c-1.3,1.4-3.6,1.5-5,0.1c-1.4-1.3-1.5-3.6-0.1-5
					c8.9-9.4,21-15.3,34.4-15.3c13.4,0,25.5,5.9,34.4,15.3c1.3,1.4,1.3,3.7-0.1,5c-1.4,1.3-3.7,1.3-5-0.1
					C95.9,844.3,85.6,839.4,74.3,839.4z"/>
			</g>
			<g>
				<path class="st2" d="M153.9,805.8h392.6c8.8,0,15.9,7.1,15.9,15.9v0c0,8.8-7.1,15.9-15.9,15.9H153.9c-8.8,0-15.9-7.1-15.9-15.9
					v0C137.9,812.9,145.1,805.8,153.9,805.8z"/>
			</g>
		</g>
		<g>
			<g>
				<path d="M0,964.3C0,952.5,9.5,943,21.2,943h557.1c11.7,0,21.2,9.5,21.2,21.2v106.1c0,11.7-9.5,21.2-21.2,21.2H21.2
					c-11.7,0-21.2-9.5-21.2-21.2V964.3z"/>
			</g>
			<g>
				<path class="st3" d="M578.3,1090.9H21.2c-11.3,0-20.5-9.2-20.5-20.5V964.3c0-11.3,9.2-20.5,20.5-20.5h557.1
					c11.3,0,20.5,9.2,20.5,20.5v106.1C598.8,1081.7,589.6,1090.9,578.3,1090.9z M21.2,945C10.6,945,2,953.6,2,964.3v106.1
					c0,10.6,8.6,19.3,19.3,19.3h557.1c10.6,0,19.3-8.6,19.3-19.3V964.3c0-10.6-8.6-19.3-19.3-19.3H21.2z"/>
			</g>
			<path class="st4" d="M37.5,1051.3c-1.2,0-2.1-1-2.1-2.1c0-1.2,1-2.1,2.1-2.1c0.8,0,1.4-0.6,1.4-1.4v-26.3c0-0.9,0-1.7,0.1-2.4
				c0.1-0.6,0.2-1.4,0.6-2.2c0.5-1.1,1.4-1.9,2.5-2.5c0.8-0.4,1.6-0.5,2.2-0.6c0.7-0.1,1.5-0.1,2.4-0.1h6.8c0.8,0,1.4-0.6,1.4-1.4
				v-13.6c0-1.8,0-3.4,0.1-4.7c0.1-1.5,0.4-2.6,0.9-3.6c0.9-1.7,2.3-3.1,4-4c1-0.5,2.1-0.8,3.6-0.9c1.2-0.1,2.6-0.1,4-0.1h10.8
				c1.5,0,2.9,0,4,0.1c1.5,0.1,2.6,0.4,3.6,0.9c1.7,0.9,3.1,2.3,4,4c0.5,1,0.8,2.1,0.9,3.6c0.1,1.3,0.1,2.8,0.1,4.7v13.6
				c0,0.8,0.6,1.4,1.4,1.4h6.8c0.9,0,1.7,0,2.4,0.1c0.6,0,1.4,0.2,2.2,0.6c1.1,0.5,1.9,1.4,2.5,2.5c0.4,0.8,0.5,1.6,0.6,2.2
				c0.1,0.7,0.1,1.5,0.1,2.4v26.3c0,0.8,0.6,1.4,1.4,1.4c1.2,0,2.1,1,2.1,2.1c0,1.2-1,2.1-2.1,2.1H37.5z M92.3,1015.9
				c-0.8,0-1.4,0.6-1.4,1.4v28.3c0,0.8,0.6,1.4,1.4,1.4h8.8c0.8,0,1.4-0.6,1.4-1.4v-26.2c0-1.1,0-1.7,0-2.2c0-0.7-0.5-1.3-1.2-1.3
				c0,0-0.1,0-0.1,0c-0.5,0-1.1,0-2.2,0H92.3z M68.3,987.6c-2,0-3.4,0-4.5,0.1c-1.2,0.1-1.7,0.3-2,0.4c-1,0.5-1.7,1.2-2.2,2.2
				c-0.2,0.5-0.4,1.1-0.5,2c-0.1,1.1-0.1,2.5-0.1,4.5v48.8c0,0.8,0.6,1.4,1.4,1.4h24.8c0.8,0,1.4-0.6,1.4-1.4v-48.8
				c0-2.1,0-3.4-0.1-4.5c-0.1-0.9-0.2-1.6-0.4-2c-0.5-0.9-1.2-1.7-2.2-2.2c-0.3-0.2-0.8-0.4-2-0.4c-1.1-0.1-2.5-0.1-4.5-0.1H68.3z
				 M43.2,1017.3c0,0.5,0,1.1,0,2.2v26.2c0,0.8,0.6,1.4,1.4,1.4h8.8c0.8,0,1.4-0.6,1.4-1.4v-28.3c0-0.8-0.6-1.4-1.4-1.4h-6.7
				c-1.1,0-1.7,0-2.1,0c0,0-0.1,0-0.1,0c-0.6,0.1-1.1,0.6-1.2,1.2C43.2,1017.2,43.2,1017.3,43.2,1017.3L43.2,1017.3z M69.3,1030
				c-1.2,0-2.1-1-2.1-2.1c0-1.2,1-2.1,2.1-2.1h7.1c1.2,0,2.1,1,2.1,2.1c0,1.2-1,2.1-2.1,2.1H69.3z M69.3,1015.9
				c-1.2,0-2.1-1-2.1-2.1c0-1.2,1-2.1,2.1-2.1h7.1c1.2,0,2.1,1,2.1,2.1c0,1.2-1,2.1-2.1,2.1H69.3z M69.3,1001.7
				c-1.2,0-2.1-1-2.1-2.1s1-2.1,2.1-2.1h7.1c1.2,0,2.1,1,2.1,2.1s-1,2.1-2.1,2.1H69.3z"/>
			<g>
				<path class="st2" d="M153.9,1001.4h392.6c8.8,0,15.9,7.1,15.9,15.9v0c0,8.8-7.1,15.9-15.9,15.9H153.9c-8.8,0-15.9-7.1-15.9-15.9
					v0C138,1008.5,145.1,1001.4,153.9,1001.4z"/>
			</g>
		</g>
		<g>
			<g>
				<path d="M646.4,768.6c0-11.7,9.5-21.2,21.2-21.2h557.1c11.7,0,21.2,9.5,21.2,21.2v106.1c0,11.7-9.5,21.2-21.2,21.2H667.7
					c-11.7,0-21.2-9.5-21.2-21.2V768.6z"/>
			</g>
			<g>
				<path class="st5" d="M1224.7,895.3H667.7c-11.3,0-20.5-9.2-20.5-20.5V768.6c0-11.3,9.2-20.5,20.5-20.5h557.1
					c11.3,0,20.5,9.2,20.5,20.5v106.1C1245.3,886.1,1236.1,895.3,1224.7,895.3z M667.7,749.4c-10.6,0-19.3,8.6-19.3,19.3v106.1
					c0,10.6,8.6,19.3,19.3,19.3h557.1c10.6,0,19.3-8.6,19.3-19.3V768.6c0-10.6-8.6-19.3-19.3-19.3H667.7z"/>
			</g>
			<g>
				<path class="st5" d="M695.2,851.9c-1,0-2-0.1-3-0.2c-0.8-0.1-1.4-0.7-1.5-1.5c-0.6-4.5,0.2-9.1,2.2-13.2
					c1.6-3.2,3.9-5.9,6.7-8.1c-2.4-1-4.9-1.7-7.5-2c-0.6-0.1-1.1-0.4-1.3-0.9c-0.3-0.5-0.2-1.1,0-1.6c1.9-3.4,4.7-6.2,8.1-8.2
					c3-1.8,6.4-2.9,9.9-3.2c2.3-5.8,6.1-10.9,11.1-14.6c5.3-4,11.6-6.3,18.3-6.7c0,0,0,0,0,0c3.4,0,6.5,1.3,8.8,3.6
					c2.3,2.3,3.6,5.5,3.6,8.7c-0.4,6.7-2.7,13.1-6.7,18.4c-3.8,5-8.8,8.8-14.6,11.1c-0.3,3.5-1.4,6.9-3.2,9.9
					c-2,3.3-4.8,6.1-8.2,8.1c-0.5,0.3-1.1,0.3-1.6,0c-0.5-0.3-0.9-0.7-0.9-1.3c-0.3-2.6-1-5.1-2-7.5c-2.1,2.8-4.9,5.1-8.1,6.7
					C702.2,851,698.7,851.9,695.2,851.9z M694,848.5c3.4,0.2,6.8-0.5,9.9-2c3.2-1.6,5.9-4,7.8-7.1c-1.1-1.7-2.4-3.4-3.8-4.8
					c-1.5-1.5-3.1-2.7-4.8-3.8c-3,1.9-5.5,4.6-7.1,7.8C694.4,841.6,693.8,845,694,848.5z M695.3,824c5.7,1.2,10.9,4,15,8.1
					c4.1,4.1,6.9,9.4,8.1,15c2-1.5,3.6-3.4,4.9-5.5c1.7-2.8,2.7-6.1,2.8-9.4c0-0.7,0.5-1.3,1.1-1.5c5.6-2,10.5-5.6,14.1-10.3
					c3.6-4.8,5.7-10.5,6-16.4c0-2.3-1-4.6-2.6-6.2c-1.7-1.7-3.9-2.6-6.3-2.6c-5.9,0.3-11.6,2.4-16.4,6c-4.8,3.6-8.4,8.5-10.4,14.1
					c-0.2,0.7-0.8,1.1-1.5,1.1c-3.3,0.1-6.6,1.1-9.4,2.8C698.6,820.4,696.8,822,695.3,824z M731.3,816.3c-1.4,0-2.7-0.5-3.7-1.5
					c-1-1-1.5-2.3-1.5-3.7c0-1.4,0.6-2.7,1.5-3.7c1-1,2.3-1.5,3.7-1.5c1.4,0,2.7,0.5,3.7,1.5c1,1,1.5,2.3,1.5,3.7
					c0,1.4-0.6,2.7-1.5,3.7C734,815.8,732.7,816.3,731.3,816.3z M731.3,809.2c-0.5,0-1,0.2-1.3,0.5c-0.3,0.3-0.5,0.8-0.5,1.3
					c0,0.5,0.2,1,0.5,1.3c0.7,0.7,1.9,0.7,2.6,0c0.3-0.3,0.5-0.8,0.5-1.3c0-0.5-0.2-1-0.5-1.3C732.3,809.4,731.8,809.2,731.3,809.2z
					"/>
			</g>
			<g>
				<path class="st2" d="M800.3,805.8h392.6c8.8,0,15.9,7.1,15.9,15.9v0c0,8.8-7.1,15.9-15.9,15.9H800.3c-8.8,0-15.9-7.1-15.9-15.9
					v0C784.4,812.9,791.5,805.8,800.3,805.8z"/>
			</g>
		</g>
		<g>
			<g>
				<path d="M646.4,964.2c0-11.7,9.5-21.2,21.2-21.2h557.1c11.7,0,21.2,9.5,21.2,21.2v106.1c0,11.7-9.5,21.2-21.2,21.2H667.7
					c-11.7,0-21.2-9.5-21.2-21.2V964.2z"/>
			</g>
			<g>
				<path class="st6" d="M1224.7,1090.9H667.7c-11.3,0-20.5-9.2-20.5-20.5V964.2c0-11.3,9.2-20.5,20.5-20.5h557.1
					c11.3,0,20.5,9.2,20.5,20.5v106.1C1245.3,1081.7,1236.1,1090.9,1224.7,1090.9z M667.7,945c-10.6,0-19.3,8.6-19.3,19.3v106.1
					c0,10.6,8.6,19.3,19.3,19.3h557.1c10.6,0,19.3-8.6,19.3-19.3V964.2c0-10.6-8.6-19.3-19.3-19.3H667.7z"/>
			</g>
			<g>
				<path class="st6" d="M745.5,1047.3H696c-2.3,0-4.5-0.9-6.2-2.6c-1.7-1.7-2.6-3.9-2.6-6.2v-17.7c0,0,0,0,0-0.1v-14.1
					c0-2.3,0.9-4.5,2.6-6.2c1.7-1.7,3.9-2.6,6.2-2.6h8.9v-5.4c0-2.3,0.9-4.6,2.6-6.2c1.7-1.7,3.9-2.6,6.2-2.6h14.1
					c2.3,0,4.5,0.9,6.2,2.6c1.7,1.6,2.6,3.9,2.6,6.2v5.4h8.9c2.3,0,4.5,0.9,6.2,2.6c1.7,1.7,2.6,3.9,2.6,6.2v14.1c0,0,0,0,0,0.1
					v17.7c0,2.3-0.9,4.5-2.6,6.2C750,1046.4,747.8,1047.3,745.5,1047.3z M690.6,1023.5v15c0,1.4,0.6,2.8,1.6,3.8
					c1,1,2.4,1.6,3.8,1.6h49.5c1.4,0,2.8-0.6,3.8-1.6c1-1,1.6-2.4,1.6-3.8v-15c-9.4,4.3-19.8,6.6-30.1,6.6S700,1027.8,690.6,1023.5z
					 M690.6,1019.8c9.4,4.5,19.8,6.9,30.1,6.9s20.8-2.4,30.1-6.9v-13.1c0-1.4-0.6-2.8-1.6-3.8c-1-1-2.4-1.6-3.8-1.6H696
					c-1.4,0-2.8,0.6-3.8,1.6c-1,1-1.6,2.4-1.6,3.8V1019.8z M708.3,997.9h24.9v-5.4c0-1.4-0.6-2.8-1.6-3.8c-1-1-2.4-1.6-3.8-1.6
					h-14.1c-1.4,0-2.8,0.6-3.8,1.6c-1,1-1.6,2.4-1.6,3.8V997.9z M720.7,1019c-0.9,0-1.7-0.8-1.7-1.7s0.8-1.7,1.7-1.7
					s1.7,0.7,1.7,1.7v0C722.4,1018.3,721.7,1019,720.7,1019z"/>
			</g>
			<g>
				<path class="st2" d="M800.3,1001.4h392.6c8.8,0,15.9,7.1,15.9,15.9v0c0,8.8-7.1,15.9-15.9,15.9H800.3c-8.8,0-15.9-7.1-15.9-15.9
					v0C784.4,1008.5,791.5,1001.4,800.3,1001.4z"/>
			</g>
		</g>
	</g>
	<g>
		<path class="st7" d="M869.6,578.4l0-0.2l-2.9,0.1l0,0.2c0.6,12.5-3,30.3-14.9,42.7c-9.3,9.8-22.2,14.7-38.4,14.7h-99.6
			c7.1-2.3,13.5-6,19-11c14-12.8,19.7-31.6,20.3-45l0-0.2l-2.9-0.1l0,0.2c-0.6,12.8-6,30.8-19.4,43c-8.9,8.1-20.1,12.5-33.5,13.2
			h-27.7v0h-11.4c-16.7,0-30.7,11.2-35.2,26.4c-4.5-15.2-18.6-26.4-35.2-26.4h-11.4v0h-27.7c-13.3-0.7-24.6-5.1-33.5-13.2
			c-13.4-12.2-18.8-30.2-19.4-43l0-0.2l-2.9,0.1l0,0.2c0.6,13.4,6.3,32.2,20.3,45c5.5,5,11.9,8.7,19,11h-99.6
			c-16.2,0-29.1-4.9-38.4-14.7c-11.9-12.5-15.5-30.2-14.9-42.7l0-0.2l-2.9-0.1l0,0.2c-0.6,13.1,3.2,31.8,15.7,44.9
			c9.9,10.4,23.5,15.6,40.6,15.6h116c1.2,0.1,2.5,0.1,3.7,0.1c1.3,0,2.6,0,3.9-0.1h20.2v0h11.4c18.6,0,33.7,15.1,33.7,33.7
			c0,0,0,0,0,0.1V685h0h3h0v-12.3c0,0,0,0,0-0.1c0-18.6,15.2-33.7,33.7-33.7h11.4v0h20.2c1.3,0.1,2.6,0.1,3.9,0.1
			c1.3,0,2.5,0,3.7-0.1h116c17,0,30.7-5.3,40.6-15.6C866.4,610.2,870.2,591.5,869.6,578.4z"/>
		<path class="st7" d="M623,687c-0.4,0-0.8-0.2-1.1-0.5l-14.2-14.2c-0.3-0.3-0.5-0.7-0.5-1.1c0-0.4,0.2-0.8,0.5-1.1
			c0.3-0.3,0.7-0.5,1.1-0.5c0.4,0,0.8,0.2,1.1,0.5l13,13.1l13-13.1c0.3-0.3,0.7-0.5,1.1-0.5s0.8,0.2,1.1,0.5c0.6,0.6,0.6,1.6,0,2.2
			l-14.2,14.2C623.8,686.8,623.4,687,623,687z"/>
	</g>
	<g>
		<path class="st8" d="M829.6,519.5H416.4c-22.1,0-40.1-17.9-40.1-40.1V40.1c0-22.1,17.9-40.1,40.1-40.1h413.1
			c22.1,0,40.1,17.9,40.1,40.1v439.4C869.6,501.6,851.7,519.5,829.6,519.5z"/>
		<path class="st9" d="M781.6,469H464.4c-22.1,0-40.1-17.9-40.1-40.1V90.6c0-22.1,17.9-40.1,40.1-40.1h317.2
			c22.1,0,40.1,17.9,40.1,40.1v338.3C821.7,451.1,803.7,469,781.6,469z"/>
		<g class="st10">
			
				<image style="overflow:visible;" width="426" height="427" xlink:href="8E15ED7F.png"  transform="matrix(1 0 0 1 410.0839 46.2384)">
			</image>
		</g>
		<g>
			<path class="st2" d="M685.6,175.3l-14.9,24.6c-3.9-1.3-7.1-3.4-11.1-4l15.3-25.5C677.9,173.1,681.6,174.8,685.6,175.3
				L685.6,175.3z"/>
			<path class="st2" d="M586.5,195.9c-4,0.6-7.4,2.9-11.2,4.1l-14.9-24.8c4-0.5,7.7-2.2,10.7-4.9L586.5,195.9z"/>
			<linearGradient id="SVGID_1_" gradientUnits="userSpaceOnUse" x1="596.4218" y1="360.4984" x2="650.5442" y2="360.4984">
				<stop  offset="0" style="stop-color:#836AFC"/>
				<stop  offset="1" style="stop-color:#5D51AF"/>
			</linearGradient>
			<path class="st11" d="M608.3,344.6h30.3c6.6,0,11.9,5.3,11.9,11.9v8c0,6.6-5.3,11.9-11.9,11.9h-30.3c-6.6,0-11.9-5.3-11.9-11.9
				v-8C596.4,349.9,601.8,344.6,608.3,344.6z"/>
			<path class="st2" d="M706,309.2v14.1c0,17.3-14,31.3-31.3,31.3h-18.4c0.1,0.6,0.1,1.2,0.1,1.8v8c0,0.6,0,1.2-0.1,1.9h18.4
				c23.7,0,43-19.3,43-43v-31.1C714.6,298.4,710.6,304.1,706,309.2z"/>
			<linearGradient id="SVGID_2_" gradientUnits="userSpaceOnUse" x1="526.7305" y1="260.2889" x2="719.2382" y2="260.2889">
				<stop  offset="0" style="stop-color:#836AFC"/>
				<stop  offset="1" style="stop-color:#5D51AF"/>
			</linearGradient>
			<path class="st12" d="M652.9,193.9h-59.8c-36.6,0-66.3,29.7-66.3,66.3c0,36.6,29.7,66.3,66.3,66.3h59.8
				c36.6,0,66.3-29.7,66.3-66.3C719.2,223.6,689.5,193.9,652.9,193.9z M652.9,310.9h-59.8c-27.9,0-50.6-22.7-50.6-50.6
				s22.7-50.6,50.6-50.6h59.8c27.9,0,50.6,22.7,50.6,50.6C703.5,288.2,680.8,310.9,652.9,310.9L652.9,310.9z"/>
			<linearGradient id="SVGID_3_" gradientUnits="userSpaceOnUse" x1="674.6397" y1="156.3527" x2="701.1119" y2="156.3527">
				<stop  offset="0" style="stop-color:#836AFC"/>
				<stop  offset="1" style="stop-color:#5D51AF"/>
			</linearGradient>
			<circle class="st13" cx="687.9" cy="156.4" r="13.2"/>
			<linearGradient id="SVGID_4_" gradientUnits="userSpaceOnUse" x1="544.8569" y1="156.3527" x2="571.329" y2="156.3527">
				<stop  offset="0" style="stop-color:#836AFC"/>
				<stop  offset="1" style="stop-color:#5D51AF"/>
			</linearGradient>
			<circle class="st14" cx="558.1" cy="156.4" r="13.2"/>
			<path class="st15" d="M593.1,314.7c-30,0-54.5-24.4-54.5-54.5c0-30,24.4-54.5,54.5-54.5h59.8c30,0,54.5,24.4,54.5,54.5
				c0,30-24.4,54.5-54.5,54.5H593.1z"/>
			<g>
				<path class="st8" d="M661.9,287.6h-77.8c-13.8,0-25.1-11.2-25.1-25.1v-4.4c0-13.8,11.2-25.1,25.1-25.1h77.8
					c13.8,0,25.1,11.2,25.1,25.1v4.4C687,276.3,675.7,287.6,661.9,287.6z"/>
				<g>
					<circle class="st16" cx="591" cy="260.3" r="12.9"/>
					<circle class="st16" cx="655" cy="260.3" r="12.9"/>
				</g>
			</g>
		</g>
	</g>
</g>
</svg>
