<?xml version="1.0" encoding="utf-8"?>
<!-- Generator: Adobe Illustrator 24.3.0, SVG Export Plug-In . SVG Version: 6.00 Build 0)  -->
<svg version="1.1" id="Layer_1" xmlns="http://www.w3.org/2000/svg" xmlns:xlink="http://www.w3.org/1999/xlink" x="0px" y="0px"
	 width="915.2px" height="892.5px" viewBox="0 0 915.2 892.5" style="enable-background:new 0 0 915.2 892.5;" xml:space="preserve"
	>
<style type="text/css">
	.st0{fill:#F4F2FE;}
	.st1{fill:url(#SVGID_1_);}
	.st2{opacity:0.5;fill:#F4F2FE;enable-background:new    ;}
	.st3{opacity:0.1;fill:#836AFC;}
	.st4{fill:#13092D;}
	.st5{fill:url(#SVGID_2_);}
	.st6{fill:url(#SVGID_3_);}
	.st7{fill:url(#SVGID_4_);}
	.st8{fill:url(#SVGID_5_);}
	.st9{fill:#1F1B44;}
	.st10{fill:#FFFFFF;}
	.st11{fill:#836AFC;}
	.st12{fill:#07D3B0;}
	.st13{fill:#FF4772;}
	.st14{fill:#F0D009;}
</style>
<g>
	<path class="st0" d="M0,701.3v-63.4h9.6v27.5h31.6v-27.5h9.6v63.4h-9.6v-27.6H9.6v27.6H0z M84.4,702.2c-4.7,0-8.7-1-12.1-3
		c-3.4-2-6-4.9-7.8-8.5c-1.8-3.7-2.7-8-2.7-12.9c0-4.9,0.9-9.2,2.7-12.9c1.8-3.7,4.4-6.6,7.7-8.7c3.3-2.1,7.2-3.1,11.6-3.1
		c2.7,0,5.3,0.4,7.8,1.3c2.5,0.9,4.8,2.3,6.8,4.2c2,1.9,3.6,4.4,4.7,7.4c1.2,3,1.7,6.7,1.7,11v3.3H67v-6.9h28.7
		c0-2.4-0.5-4.6-1.5-6.5c-1-1.9-2.4-3.4-4.2-4.5c-1.8-1.1-3.9-1.6-6.2-1.6c-2.6,0-4.9,0.6-6.8,1.9c-1.9,1.3-3.4,2.9-4.5,5
		c-1,2-1.5,4.2-1.5,6.6v5.4c0,3.2,0.6,5.9,1.7,8.1c1.1,2.2,2.7,3.9,4.7,5.1c2,1.2,4.4,1.7,7.1,1.7c1.8,0,3.4-0.2,4.8-0.7
		c1.4-0.5,2.7-1.3,3.7-2.3c1.1-1,1.9-2.3,2.4-3.7l8.8,1.6c-0.7,2.6-2,4.8-3.8,6.8c-1.8,1.9-4.1,3.4-6.8,4.5
		C91,701.7,87.9,702.2,84.4,702.2z M124.3,637.9v63.4h-9.3v-63.4H124.3z M146,637.9v63.4h-9.3v-63.4H146z M178.5,702.2
		c-4.5,0-8.3-1-11.7-3.1c-3.3-2-5.9-4.9-7.7-8.6c-1.8-3.7-2.8-8-2.8-12.9c0-4.9,0.9-9.2,2.8-12.9c1.8-3.7,4.4-6.6,7.7-8.6
		c3.3-2,7.2-3.1,11.7-3.1c4.5,0,8.3,1,11.7,3.1c3.3,2,5.9,4.9,7.7,8.6c1.8,3.7,2.8,8,2.8,12.9c0,4.9-0.9,9.2-2.8,12.9
		c-1.8,3.7-4.4,6.5-7.7,8.6C186.8,701.2,182.9,702.2,178.5,702.2z M178.5,694.5c2.9,0,5.3-0.8,7.2-2.3c1.9-1.5,3.3-3.6,4.2-6.1
		c0.9-2.5,1.4-5.3,1.4-8.4c0-3-0.5-5.8-1.4-8.4c-0.9-2.6-2.3-4.6-4.2-6.2c-1.9-1.6-4.3-2.3-7.2-2.3c-2.9,0-5.3,0.8-7.2,2.3
		c-1.9,1.5-3.3,3.6-4.2,6.2c-0.9,2.5-1.4,5.3-1.4,8.4c0,3.1,0.5,5.8,1.4,8.4c0.9,2.5,2.3,4.6,4.2,6.1
		C173.2,693.7,175.6,694.5,178.5,694.5z M223,692.6l-0.5,3.4c-0.3,2.5-0.8,5.1-1.6,7.7c-0.7,2.7-1.5,5.2-2.3,7.5
		c-0.8,2.3-1.4,4.1-1.9,5.5h-6.6c0.3-1.3,0.6-3,1.1-5.2c0.5-2.2,0.9-4.6,1.4-7.3c0.5-2.7,0.8-5.4,1-8.2l0.3-3.5H223z M268.4,637.9
		v63.4h-9.6v-63.4H268.4z M318.5,702.3c-3,0-5.7-0.6-8.2-1.7c-2.4-1.1-4.4-2.8-5.8-4.9c-1.4-2.1-2.1-4.8-2.1-7.9
		c0-2.7,0.5-4.9,1.5-6.6c1-1.7,2.4-3.1,4.2-4.1c1.8-1,3.7-1.8,5.9-2.3c2.2-0.5,4.4-0.9,6.6-1.2c2.8-0.3,5.2-0.6,6.9-0.8
		c1.8-0.2,3.1-0.6,3.9-1.1c0.8-0.5,1.2-1.3,1.2-2.4v-0.2c0-2.7-0.8-4.8-2.3-6.3c-1.5-1.5-3.8-2.2-6.7-2.2c-3.1,0-5.6,0.7-7.4,2.1
		c-1.8,1.4-3,2.9-3.7,4.5l-8.7-2c1-2.9,2.5-5.2,4.5-7c2-1.8,4.3-3.1,6.9-3.9c2.6-0.8,5.3-1.2,8.2-1.2c1.9,0,3.9,0.2,6,0.7
		c2.1,0.4,4.1,1.2,6,2.4c1.9,1.2,3.4,2.9,4.6,5c1.2,2.2,1.8,5,1.8,8.4v31.6h-9v-6.5h-0.4c-0.6,1.2-1.5,2.4-2.7,3.5
		c-1.2,1.2-2.7,2.1-4.6,2.9C323.4,702,321.1,702.3,318.5,702.3z M320.5,694.9c2.6,0,4.7-0.5,6.6-1.5c1.8-1,3.2-2.3,4.2-4
		c1-1.7,1.5-3.4,1.5-5.3V678c-0.3,0.3-1,0.6-1.9,0.9c-0.9,0.3-2,0.5-3.2,0.7c-1.2,0.2-2.4,0.4-3.5,0.5c-1.1,0.1-2.1,0.3-2.9,0.4
		c-1.8,0.2-3.4,0.6-4.9,1.1c-1.5,0.5-2.6,1.3-3.5,2.3c-0.9,1-1.3,2.3-1.3,4c0,2.3,0.8,4,2.5,5.2
		C315.7,694.3,317.9,694.9,320.5,694.9z M354.3,701.3v-47.5h8.9v7.7h0.6c1-2.6,2.6-4.7,4.9-6.1c2.3-1.5,4.9-2.2,8.1-2.2
		c3.2,0,5.8,0.7,8,2.2c2.2,1.5,3.8,3.5,4.8,6.1h0.5c1.1-2.5,2.9-4.6,5.4-6.1c2.5-1.5,5.4-2.3,8.9-2.3c4.3,0,7.8,1.4,10.6,4.1
		c2.7,2.7,4.1,6.8,4.1,12.2v31.9h-9.3v-31c0-3.2-0.9-5.5-2.6-7c-1.8-1.4-3.8-2.2-6.3-2.2c-3,0-5.4,0.9-7,2.8
		c-1.7,1.8-2.5,4.2-2.5,7.1v30.3H382v-31.6c0-2.6-0.8-4.7-2.4-6.2c-1.6-1.6-3.7-2.3-6.3-2.3c-1.8,0-3.4,0.5-4.9,1.4
		c-1.5,0.9-2.7,2.2-3.6,3.8c-0.9,1.6-1.3,3.5-1.3,5.7v29.3H354.3z"/>
	<linearGradient id="SVGID_1_" gradientUnits="userSpaceOnUse" x1="461.3832" y1="668.6054" x2="915.2075" y2="668.6054">
		<stop  offset="0.2737" style="stop-color:#4F499B"/>
		<stop  offset="1" style="stop-color:#836AFC"/>
	</linearGradient>
	<path class="st1" d="M479.5,596h417.5c10,0,18.2,8.1,18.2,18.2v108.9c0,10-8.1,18.2-18.2,18.2H479.5c-10,0-18.2-8.1-18.2-18.2
		V614.1C461.4,604.1,469.5,596,479.5,596z"/>
	<path class="st2" d="M147.6,879.2v-47.5h7.2v20.7h23.7v-20.7h7.2v47.5h-7.2v-20.7h-23.7v20.7H147.6z M210.5,879.9
		c-3.3,0-6.3-0.8-8.7-2.3c-2.5-1.5-4.4-3.7-5.8-6.4c-1.4-2.8-2.1-6-2.1-9.7c0-3.7,0.7-6.9,2.1-9.7c1.4-2.8,3.3-4.9,5.8-6.5
		c2.5-1.5,5.4-2.3,8.7-2.3c3.3,0,6.3,0.8,8.7,2.3c2.5,1.5,4.4,3.7,5.8,6.5c1.4,2.8,2.1,6,2.1,9.7c0,3.7-0.7,6.9-2.1,9.7
		c-1.4,2.8-3.3,4.9-5.8,6.4C216.8,879.1,213.9,879.9,210.5,879.9z M210.6,874.1c2.2,0,4-0.6,5.4-1.7c1.4-1.1,2.5-2.7,3.2-4.6
		c0.7-1.9,1-4,1-6.3c0-2.3-0.3-4.4-1-6.3c-0.7-1.9-1.7-3.5-3.2-4.6c-1.4-1.2-3.2-1.7-5.4-1.7c-2.2,0-4,0.6-5.4,1.7
		c-1.4,1.2-2.5,2.7-3.2,4.6c-0.7,1.9-1,4-1,6.3c0,2.3,0.3,4.4,1,6.3c0.7,1.9,1.8,3.4,3.2,4.6C206.6,873.5,208.4,874.1,210.6,874.1z
		 M241.6,879.2l-10.5-35.6h7.2l7,26.2h0.3l7-26.2h7.2l7,26.1h0.3l6.9-26.1h7.2l-10.5,35.6h-7.1l-7.2-25.7h-0.5l-7.2,25.7H241.6z
		 M320.1,879.9c-3.5,0-6.4-0.8-8.9-2.3c-2.5-1.6-4.4-3.8-5.7-6.5c-1.3-2.8-2-5.9-2-9.5c0-3.6,0.7-6.8,2-9.6c1.4-2.8,3.3-5,5.8-6.5
		c2.5-1.6,5.4-2.3,8.7-2.3c2.7,0,5.1,0.5,7.2,1.5c2.1,1,3.8,2.4,5.1,4.2c1.3,1.8,2.1,3.9,2.3,6.3H328c-0.4-1.7-1.2-3.1-2.6-4.3
		c-1.3-1.2-3.1-1.8-5.3-1.8c-1.9,0-3.6,0.5-5.1,1.5c-1.4,1-2.6,2.4-3.4,4.3c-0.8,1.9-1.2,4.1-1.2,6.6c0,2.6,0.4,4.8,1.2,6.7
		c0.8,1.9,1.9,3.3,3.3,4.4c1.5,1,3.2,1.6,5.1,1.6c1.3,0,2.5-0.2,3.6-0.7c1.1-0.5,2-1.2,2.7-2.1c0.7-0.9,1.3-2,1.6-3.3h6.8
		c-0.2,2.3-1,4.4-2.3,6.2c-1.3,1.8-2.9,3.2-5,4.3C325.3,879.4,322.9,879.9,320.1,879.9z M352.5,880c-2.3,0-4.3-0.4-6.1-1.3
		c-1.8-0.8-3.3-2.1-4.3-3.7c-1-1.6-1.6-3.6-1.6-5.9c0-2,0.4-3.7,1.2-5c0.8-1.3,1.8-2.3,3.1-3.1c1.3-0.8,2.8-1.3,4.4-1.7
		c1.6-0.4,3.3-0.7,5-0.9c2.1-0.2,3.9-0.5,5.2-0.6c1.3-0.2,2.3-0.4,2.9-0.8c0.6-0.4,0.9-1,0.9-1.8v-0.2c0-2-0.6-3.6-1.7-4.7
		c-1.1-1.1-2.8-1.7-5.1-1.7c-2.3,0-4.2,0.5-5.5,1.6c-1.3,1-2.3,2.2-2.8,3.4l-6.5-1.5c0.8-2.2,1.9-3.9,3.4-5.2
		c1.5-1.3,3.2-2.3,5.2-2.9c1.9-0.6,4-0.9,6.2-0.9c1.4,0,2.9,0.2,4.5,0.5c1.6,0.3,3.1,0.9,4.5,1.8c1.4,0.9,2.6,2.1,3.5,3.8
		c0.9,1.6,1.3,3.7,1.3,6.3v23.7h-6.8v-4.9H363c-0.4,0.9-1.1,1.8-2,2.6c-0.9,0.9-2.1,1.6-3.5,2.2C356.2,879.7,354.5,880,352.5,880z
		 M354,874.4c1.9,0,3.6-0.4,4.9-1.1c1.4-0.8,2.4-1.7,3.1-3c0.7-1.2,1.1-2.6,1.1-4v-4.6c-0.2,0.2-0.7,0.5-1.4,0.7
		c-0.7,0.2-1.5,0.4-2.4,0.5c-0.9,0.1-1.8,0.3-2.6,0.4c-0.8,0.1-1.6,0.2-2.1,0.3c-1.3,0.2-2.6,0.5-3.7,0.9c-1.1,0.4-2,1-2.6,1.7
		c-0.6,0.7-1,1.7-1,3c0,1.7,0.6,3,1.9,3.9C350.4,874,352,874.4,354,874.4z M386.3,858v21.2h-6.9v-35.6h6.7v5.8h0.4
		c0.8-1.9,2.1-3.4,3.9-4.5c1.8-1.1,4-1.7,6.7-1.7c2.4,0,4.6,0.5,6.4,1.5c1.8,1,3.2,2.5,4.2,4.5c1,2,1.5,4.5,1.5,7.4v22.7h-6.9v-21.8
		c0-2.6-0.7-4.6-2-6.1c-1.3-1.5-3.2-2.2-5.5-2.2c-1.6,0-3,0.3-4.3,1c-1.2,0.7-2.2,1.7-2.9,3.1C386.6,854.5,386.3,856.1,386.3,858z
		 M443.4,831.7v47.5h-7.2v-47.5H443.4z M477.5,858v21.2h-6.9v-47.5h6.8v17.7h0.4c0.8-1.9,2.1-3.4,3.8-4.6c1.7-1.1,4-1.7,6.7-1.7
		c2.4,0,4.6,0.5,6.4,1.5c1.8,1,3.3,2.5,4.3,4.5c1,2,1.5,4.5,1.5,7.4v22.7h-6.9v-21.8c0-2.6-0.7-4.6-2-6.1c-1.3-1.5-3.2-2.2-5.6-2.2
		c-1.6,0-3.1,0.3-4.4,1c-1.3,0.7-2.3,1.7-3,3.1C477.9,854.5,477.5,856.1,477.5,858z M525.3,879.9c-3.5,0-6.5-0.8-9.1-2.3
		c-2.5-1.5-4.5-3.6-5.8-6.4c-1.4-2.8-2-6-2-9.7c0-3.7,0.7-6.9,2-9.7c1.4-2.8,3.3-5,5.8-6.5c2.5-1.6,5.4-2.3,8.7-2.3c2,0,4,0.3,5.8,1
		c1.9,0.7,3.6,1.7,5.1,3.1c1.5,1.4,2.7,3.3,3.6,5.5c0.9,2.3,1.3,5,1.3,8.2v2.5h-28.3v-5.2h21.5c0-1.8-0.4-3.4-1.1-4.9
		c-0.7-1.4-1.8-2.5-3.1-3.4c-1.3-0.8-2.9-1.2-4.7-1.2c-1.9,0-3.7,0.5-5.1,1.4c-1.4,0.9-2.6,2.2-3.3,3.7c-0.8,1.5-1.2,3.2-1.2,4.9
		v4.1c0,2.4,0.4,4.4,1.3,6.1c0.8,1.7,2,2.9,3.6,3.8c1.5,0.9,3.3,1.3,5.3,1.3c1.3,0,2.5-0.2,3.6-0.6c1.1-0.4,2-1,2.8-1.7
		c0.8-0.8,1.4-1.7,1.8-2.8l6.6,1.2c-0.5,1.9-1.5,3.6-2.8,5.1c-1.3,1.4-3,2.6-5.1,3.4C530.2,879.5,527.9,879.9,525.3,879.9z
		 M555.2,831.7v47.5h-6.9v-47.5H555.2z M564.5,892.5v-49h6.8v5.8h0.6c0.4-0.7,1-1.6,1.7-2.6c0.8-1,1.8-1.8,3.2-2.6
		c1.3-0.7,3.1-1.1,5.3-1.1c2.9,0,5.4,0.7,7.7,2.2c2.3,1.5,4,3.6,5.3,6.3c1.3,2.7,1.9,6,1.9,9.9c0,3.9-0.6,7.2-1.9,9.9
		c-1.3,2.7-3,4.9-5.3,6.3c-2.2,1.5-4.8,2.2-7.7,2.2c-2.2,0-3.9-0.4-5.3-1.1c-1.4-0.7-2.4-1.6-3.2-2.6c-0.8-1-1.4-1.8-1.8-2.6h-0.4
		v18.9H564.5z M571.3,861.4c0,2.5,0.4,4.7,1.1,6.6c0.7,1.9,1.8,3.4,3.2,4.4c1.4,1.1,3.1,1.6,5.1,1.6c2.1,0,3.8-0.5,5.2-1.6
		c1.4-1.1,2.4-2.6,3.2-4.5c0.7-1.9,1.1-4,1.1-6.4c0-2.4-0.4-4.5-1.1-6.3c-0.7-1.9-1.7-3.4-3.2-4.4c-1.4-1.1-3.1-1.6-5.2-1.6
		c-2,0-3.7,0.5-5.1,1.6c-1.4,1-2.4,2.5-3.1,4.3C571.7,856.7,571.3,858.9,571.3,861.4z M626.5,892.5c-1,0-2-0.1-2.8-0.3
		c-0.8-0.2-1.5-0.3-1.9-0.5l1.7-5.7c1.3,0.3,2.4,0.5,3.4,0.4c1,0,1.9-0.4,2.6-1.1c0.8-0.7,1.5-1.8,2-3.4l0.9-2.4l-13-36.1h7.4
		l9,27.7h0.4l9-27.7h7.5L638,883.9c-0.7,1.9-1.5,3.4-2.6,4.7c-1.1,1.3-2.3,2.3-3.8,2.9C630.2,892.2,628.5,892.5,626.5,892.5z
		 M673,879.9c-3.3,0-6.3-0.8-8.7-2.3s-4.4-3.7-5.8-6.4c-1.4-2.8-2.1-6-2.1-9.7c0-3.7,0.7-6.9,2.1-9.7c1.4-2.8,3.3-4.9,5.8-6.5
		s5.4-2.3,8.7-2.3c3.3,0,6.3,0.8,8.7,2.3c2.5,1.5,4.4,3.7,5.8,6.5c1.4,2.8,2.1,6,2.1,9.7c0,3.7-0.7,6.9-2.1,9.7
		c-1.4,2.8-3.3,4.9-5.8,6.4C679.2,879.1,676.3,879.9,673,879.9z M673,874.1c2.2,0,4-0.6,5.4-1.7c1.4-1.1,2.5-2.7,3.2-4.6
		c0.7-1.9,1-4,1-6.3c0-2.3-0.3-4.4-1-6.3c-0.7-1.9-1.7-3.5-3.2-4.6c-1.4-1.2-3.2-1.7-5.4-1.7c-2.2,0-4,0.6-5.4,1.7
		c-1.4,1.2-2.5,2.7-3.2,4.6c-0.7,1.9-1,4-1,6.3c0,2.3,0.3,4.4,1,6.3c0.7,1.9,1.8,3.4,3.2,4.6C669,873.5,670.8,874.1,673,874.1z
		 M719.9,864.4v-20.9h7v35.6h-6.8V873h-0.4c-0.8,1.9-2.1,3.5-3.9,4.8c-1.8,1.3-4,1.9-6.7,1.9c-2.3,0-4.3-0.5-6.1-1.5
		c-1.7-1-3.1-2.5-4.1-4.5c-1-2-1.5-4.5-1.5-7.4v-22.7h6.9v21.8c0,2.4,0.7,4.4,2,5.8c1.3,1.4,3.1,2.2,5.2,2.2c1.3,0,2.6-0.3,3.9-1
		c1.3-0.6,2.4-1.6,3.2-2.9C719.5,868.1,719.9,866.4,719.9,864.4z M743.8,865.5v-0.4c0-2.9,0.3-5.2,0.9-6.9c0.6-1.7,1.3-3.1,2.4-4.1
		c1-1.1,2.3-2,3.7-2.9c0.9-0.6,1.8-1.2,2.5-2c0.7-0.7,1.3-1.6,1.8-2.5c0.4-0.9,0.6-2,0.6-3.1c0-1.4-0.3-2.6-1-3.6
		c-0.6-1-1.5-1.8-2.6-2.3c-1.1-0.6-2.3-0.8-3.6-0.8c-1.2,0-2.3,0.2-3.4,0.7c-1.1,0.5-2,1.3-2.7,2.3c-0.7,1-1.1,2.4-1.2,4h-7.1
		c0.1-2.8,0.8-5.1,2.1-7.1c1.3-1.9,3-3.4,5.2-4.4c2.1-1,4.5-1.5,7.1-1.5c2.8,0,5.3,0.5,7.5,1.6c2.1,1.1,3.8,2.5,5,4.4
		c1.2,1.9,1.8,4.1,1.8,6.6c0,1.7-0.3,3.3-0.8,4.7c-0.5,1.4-1.3,2.6-2.3,3.7c-1,1.1-2.2,2-3.6,2.9c-1.3,0.8-2.4,1.7-3.2,2.6
		c-0.8,0.9-1.4,1.9-1.8,3.1c-0.4,1.2-0.6,2.7-0.6,4.5v0.4H743.8z M747.3,879.6c-1.3,0-2.4-0.4-3.3-1.3c-0.9-0.9-1.4-2-1.4-3.3
		c0-1.3,0.5-2.4,1.4-3.2c0.9-0.9,2-1.4,3.3-1.4c1.3,0,2.3,0.5,3.2,1.4c0.9,0.9,1.4,2,1.4,3.2c0,0.8-0.2,1.6-0.6,2.3
		c-0.4,0.7-1,1.3-1.7,1.7C748.9,879.4,748.2,879.6,747.3,879.6z"/>
	<path class="st3" d="M650.7,465.3H257.6c-16.5,0-29.8-13.4-29.8-29.8V29.8c0-16.5,13.4-29.8,29.8-29.8l393.1,0
		c16.5,0,29.8,13.4,29.8,29.8v405.6C680.5,452,667.2,465.3,650.7,465.3z"/>
	<g>
		<path class="st4" d="M543.6,111.9l-21.2,35.2c-5.5-1.8-10.1-4.9-15.9-5.8l21.9-36.5C532.6,108.8,538,111.2,543.6,111.9
			L543.6,111.9z"/>
		<path class="st4" d="M401.9,141.4c-5.8,0.9-10.5,4.1-16.1,5.9l-21.3-35.4c5.7-0.7,11-3.1,15.2-7L401.9,141.4z"/>
		<linearGradient id="SVGID_2_" gradientUnits="userSpaceOnUse" x1="416.1531" y1="376.6591" x2="493.5164" y2="376.6591">
			<stop  offset="0" style="stop-color:#836AFC"/>
			<stop  offset="1" style="stop-color:#5D51AF"/>
		</linearGradient>
		<path class="st5" d="M433.2,353.9h43.3c9.4,0,17,7.6,17,17v11.4c0,9.4-7.6,17-17,17h-43.3c-9.4,0-17-7.6-17-17V371
			C416.2,361.6,423.8,353.9,433.2,353.9z"/>
		<path class="st4" d="M572.7,303.3v20.2c0,24.7-20.1,44.8-44.8,44.8h-26.3c0.1,0.9,0.1,1.8,0.1,2.6v11.4c0,0.9,0,1.8-0.1,2.6H528
			c33.9,0,61.5-27.6,61.5-61.5v-44.4C585,288,579.4,296.1,572.7,303.3z"/>
		<linearGradient id="SVGID_3_" gradientUnits="userSpaceOnUse" x1="316.5354" y1="233.4182" x2="591.7086" y2="233.4182">
			<stop  offset="0" style="stop-color:#836AFC"/>
			<stop  offset="1" style="stop-color:#5D51AF"/>
		</linearGradient>
		<path class="st6" d="M496.9,138.6h-85.5c-52.4,0-94.8,42.5-94.8,94.8c0,52.4,42.5,94.8,94.8,94.8h85.5c52.4,0,94.8-42.5,94.8-94.8
			C591.7,181,549.3,138.6,496.9,138.6z M496.9,305.7h-85.5c-39.9,0-72.3-32.4-72.3-72.3s32.4-72.3,72.3-72.3h85.5
			c39.9,0,72.3,32.4,72.3,72.3S536.8,305.7,496.9,305.7L496.9,305.7z"/>
		<linearGradient id="SVGID_4_" gradientUnits="userSpaceOnUse" x1="527.9589" y1="84.8503" x2="565.7986" y2="84.8503">
			<stop  offset="0" style="stop-color:#836AFC"/>
			<stop  offset="1" style="stop-color:#5D51AF"/>
		</linearGradient>
		<circle class="st7" cx="546.9" cy="84.9" r="18.9"/>
		<linearGradient id="SVGID_5_" gradientUnits="userSpaceOnUse" x1="342.4454" y1="84.8503" x2="380.2851" y2="84.8503">
			<stop  offset="0" style="stop-color:#836AFC"/>
			<stop  offset="1" style="stop-color:#5D51AF"/>
		</linearGradient>
		<circle class="st8" cx="361.4" cy="84.9" r="18.9"/>
		<path class="st9" d="M411.4,311.3c-42.9,0-77.8-34.9-77.8-77.8c0-42.9,34.9-77.8,77.8-77.8h85.5c42.9,0,77.8,34.9,77.8,77.8
			c0,42.9-34.9,77.8-77.8,77.8H411.4z"/>
		<g>
			<path class="st4" d="M506.6,272.4H401.7c-21.5,0-39-17.5-39-39v0c0-21.5,17.5-39,39-39h104.9c21.5,0,39,17.5,39,39v0
				C545.6,255,528.1,272.4,506.6,272.4z"/>
			<g>
				<circle class="st10" cx="408.4" cy="233.4" r="18.4"/>
				<circle class="st10" cx="499.8" cy="233.4" r="18.4"/>
			</g>
		</g>
	</g>
	<g>
		<g>
			<path class="st10" d="M496.6,696.2c-0.3-0.3-0.4-0.6-0.4-1v-53.6c0-0.4,0.1-0.8,0.4-1.1c0.3-0.3,0.6-0.4,1-0.4h8.7
				c0.4,0,0.7,0.1,1,0.4c0.3,0.3,0.4,0.7,0.4,1.1v18.5l16.4-19.2c0.5-0.6,1.1-0.9,1.8-0.9h11.5c0.6,0,0.9,0.1,1,0.3
				c0.1,0.2,0.1,0.4-0.1,0.6l-29.2,34.5c-0.9,1-1.3,2.3-1.3,3.9v15.9c0,0.4-0.1,0.7-0.4,1c-0.3,0.3-0.6,0.4-1,0.4h-8.8
				C497.3,696.6,496.9,696.5,496.6,696.2z M526.1,696.2c-0.5-0.2-0.9-0.6-1.2-1.1l-8.5-12.2c-0.4-0.6-0.6-1.1-0.6-1.5
				c0-0.5,0.2-1,0.6-1.5c0.4-0.5,0.9-1.1,1.5-1.7c0.6-0.7,1.1-1.3,1.7-1.9l1.7-2c0.3-0.4,0.7-0.6,1.1-0.6c0.5,0,0.9,0.2,1.2,0.7
				l14.5,20.6c0.1,0.2,0.2,0.4,0.2,0.6c0,0.7-0.5,1.1-1.5,1.1h-8.2C527.5,696.6,526.6,696.4,526.1,696.2z"/>
			<path class="st10" d="M642.2,693.8c-4.5-2.6-8-6.2-10.6-10.6c-2.6-4.5-3.9-9.4-3.9-14.7s1.3-10.2,3.9-14.7
				c2.6-4.5,6.2-8,10.6-10.6c4.5-2.6,9.4-3.9,14.7-3.9c1.2,0,2.4,0.1,3.6,0.2c0.5,0.1,0.9,0.3,1.1,0.6c0.3,0.4,0.3,0.8,0.2,1.3
				l-1.3,7c-0.2,0.9-0.7,1.3-1.6,1.3l-2.1-0.1c-3.4,0-6.5,0.8-9.4,2.5c-2.9,1.7-5.2,4-6.9,6.9s-2.5,6-2.5,9.4c0,3.4,0.8,6.5,2.5,9.4
				s4,5.2,6.9,6.9c2.9,1.7,6,2.5,9.4,2.5c3.9,0,7.4-1.1,10.3-3.3c3-2.2,5.1-5.2,6.5-8.9h-10.2c-0.4,0-0.8-0.2-1.1-0.5
				s-0.5-0.7-0.5-1.1v-5.9c0-0.4,0.2-0.8,0.5-1.1c0.3-0.3,0.7-0.5,1.1-0.5h17.2c1.3,0,2.3,0.2,3,0.6c0.7,0.4,1,1,1,1.9
				c0,5.4-1.2,10.3-3.5,14.8c-2.4,4.5-5.7,8-9.9,10.6c-4.2,2.6-9,3.9-14.2,3.9C651.6,697.7,646.7,696.4,642.2,693.8z"/>
			<path class="st10" d="M693.6,649.7c-0.3-0.3-0.4-0.7-0.4-1.1v-6.9c0-0.4,0.1-0.8,0.4-1c0.3-0.3,0.6-0.4,1-0.4H712
				c0.4,0,0.8,0.1,1.1,0.4c0.3,0.3,0.4,0.6,0.4,1v6.9c0,0.4-0.1,0.7-0.4,1s-0.7,0.5-1.1,0.5h-17.4
				C694.2,650.1,693.9,650,693.6,649.7z M693.6,696.2c-0.3-0.3-0.4-0.6-0.4-1v-37.3c0-0.4,0.1-0.8,0.4-1c0.3-0.3,0.6-0.4,1-0.4h6.9
				c0.4,0,0.8,0.1,1,0.4c0.3,0.3,0.4,0.6,0.4,1v5.8c0,1,0.7,1.5,2.1,1.5h20.3c0.4,0,0.7,0.1,1,0.4c0.3,0.2,0.4,0.6,0.4,0.9v6.9
				c0,0.4-0.1,0.7-0.4,0.9s-0.6,0.4-1,0.4h-20.6c-1.2,0-1.9,0.6-1.9,1.7v8.8c0,0.4,0.2,0.7,0.5,1s0.7,0.5,1,0.5H732
				c0.4,0,0.8,0.1,1,0.4c0.3,0.3,0.4,0.6,0.4,1v6.9c0,0.4-0.1,0.7-0.4,1s-0.6,0.4-1,0.4h-37.6C694.2,696.6,693.9,696.5,693.6,696.2z
				"/>
			<path class="st10" d="M775.6,695.6c-2.1-3.3-5.5-8.6-10.3-16c-4.8-7.4-8.3-13-10.8-16.8c-0.3-0.4-0.5-0.6-0.6-0.6
				c-0.1,0-0.2,0.1-0.2,0.3s0,0.4,0,0.5l0.2,9.5c0,0.4-0.1,0.7-0.4,1s-0.6,0.4-1,0.4h-7.8c-0.4,0-0.8-0.1-1.1-0.4s-0.4-0.6-0.4-1
				v-30.7c0-0.4,0.1-0.8,0.4-1.1s0.7-0.4,1.1-0.4h7.9c0.4,0,0.7,0.2,1,0.5l19.5,32.5c0.5,0.9,0.9,1.4,1.2,1.4s0.4-0.5,0.4-1.4
				l-0.3-31.5c0-0.4,0.1-0.8,0.4-1.1s0.6-0.4,1-0.4h8.5c0.4,0,0.8,0.1,1.1,0.4c0.3,0.3,0.4,0.7,0.4,1.1V695c0,0.4-0.1,0.8-0.4,1
				c-0.3,0.3-0.7,0.4-1.1,0.4h-7.4h-0.1h-0.1C776.4,696.5,776,696.2,775.6,695.6z"/>
			<path class="st10" d="M802.8,695.4v-43.5c0-0.5-0.2-1-0.6-1.3c-0.4-0.3-0.8-0.5-1.4-0.5h-4.6c-0.3,0-0.5-0.1-0.7-0.3
				s-0.3-0.5-0.3-0.8v-7.5c0-0.3,0.1-0.6,0.3-0.8s0.5-0.3,0.7-0.3h35.2c0.3,0,0.5,0.1,0.7,0.3s0.3,0.5,0.3,0.8v7.5
				c0,0.3-0.1,0.6-0.3,0.8c-0.2,0.2-0.5,0.3-0.7,0.3h-15c-0.5,0-1,0.2-1.4,0.6c-0.4,0.4-0.6,0.8-0.6,1.3v43.5c0,0.3-0.1,0.6-0.3,0.8
				c-0.2,0.2-0.5,0.3-0.7,0.3h-9.6C803.1,696.5,802.8,696.1,802.8,695.4z"/>
			<path class="st10" d="M873.8,669c2,1,3.6,2.5,4.8,4.4c1.2,1.9,1.8,4.3,1.8,7.5c0,3-0.8,5.7-2.5,8c-1.6,2.3-4,4.1-7,5.4
				s-6.5,2-10.4,2c-0.9,0-2-0.1-3.3-0.3c-0.5-0.1-0.9-0.2-1.1-0.4s-0.3-0.6-0.2-1.1l0.3-2.3c0.1-0.4,0.1-0.9,0.2-1.5
				c0.1-0.6,0.1-1.1,0.2-1.6c0.1-0.9,0.6-1.3,1.5-1.3l3.4,0.1c2.7,0,4.9-0.6,6.6-1.9c1.7-1.2,2.5-2.8,2.5-4.6c0-1.3-0.5-2.7-1.4-4
				c-0.6-0.8-1.7-1.5-3.2-2.2c-1.6-0.7-3.7-1.5-6.4-2.3c-4.1-1.4-7.4-2.7-10-3.9c-2.6-1.2-4.4-2.7-5.7-4.5c-1.5-2.4-2.3-4.8-2.3-7.3
				c0-2.6,0.8-5.1,2.3-7.5c1.5-2.4,3.7-4.3,6.4-5.9s5.9-2.6,9.4-2.9c2.6-0.1,5.1,0.1,7.6,0.5c2.5,0.4,4.6,1.1,6.4,1.9
				c1.7,0.9,3.2,1.9,4.7,3.1c0.3,0.2,0.5,0.5,0.6,0.7c0.2,0.3,0.2,0.5,0.2,0.6c-0.3,0.6-1.2,2-2.7,4.2l-1,1.4
				c-0.2,0.2-0.4,0.2-0.7,0.2s-0.5-0.1-0.8-0.2c-2.2-1.2-4.1-2.1-5.7-2.5c-1.9-0.5-3.8-0.8-5.6-0.8c-2.2,0-4.3,0.4-6.2,1.1
				c-1.5,0.7-2.6,1.5-3.4,2.5s-1.2,2-1.2,3c0,1.6,0.9,3,2.8,4.2c0.8,0.5,2.2,1.2,4.5,2.3c2.2,1,4.1,1.8,5.7,2.3
				C868.9,666.7,871.8,668,873.8,669z M875.8,653.2C875.8,653.1,875.8,653.1,875.8,653.2L875.8,653.2z"/>
		</g>
		<circle class="st11" cx="748.4" cy="692" r="5.4"/>
		<circle class="st12" cx="676.8" cy="645.1" r="5.4"/>
		<circle class="st13" cx="728.2" cy="645.1" r="5.4"/>
		<circle class="st14" cx="844.9" cy="688.4" r="5.4"/>
		<g>
			<path class="st11" d="M581.1,700.2c-2.5,0-4.6,1.6-5.5,3.7c-0.2,0.6-0.4,1.1-0.5,1.7v0.6c0,3.3,2.7,6,5.9,6
				c3.3-0.1,5.9-2.7,5.9-6v-0.5c-0.1-0.6-0.2-1.2-0.5-1.7C585.7,701.8,583.6,700.3,581.1,700.2z"/>
			<path class="st13" d="M581.1,640c4-0.1,7.3-3.4,7.3-7.5v-0.6c-0.1-0.8-0.3-1.5-0.6-2.2c-1.1-2.7-3.7-4.6-6.8-4.6
				s-5.7,1.9-6.8,4.6c-0.3,0.7-0.5,1.4-0.6,2.2v0.7C573.7,636.6,577,640,581.1,640z"/>
			<path class="st12" d="M615.5,675.7c-0.4,0-0.8,0-1.1,0.1c-0.4,0.1-0.7,0.2-1.1,0.3l0,0c-2.2,0.9-3.8,3.1-3.8,5.6
				c0,1.5,0.6,2.8,1.5,3.9l0,0c0.3,0.3,0.6,0.6,0.9,0.9c1,0.8,2.2,1.2,3.6,1.2c3.3,0,6-2.7,6-5.9
				C621.4,678.4,618.7,675.7,615.5,675.7z"/>
			<path class="st14" d="M546.3,676c-0.4,0-0.8,0-1.1,0.1c-0.4,0.1-0.7,0.2-1.1,0.3l0,0c-2.2,0.9-3.8,3.1-3.8,5.6
				c0,1.5,0.6,2.8,1.5,3.9l0,0c0.3,0.3,0.6,0.6,0.9,0.9c1,0.8,2.2,1.2,3.6,1.2c3.3,0,6-2.7,6-5.9C552.3,678.7,549.6,676,546.3,676z"
				/>
			<path class="st13" d="M612.6,658.6l-7.2-1.6l-0.5,4.4l-2.8-0.6c-2.9-8.9-11.3-14.3-21.1-14.5c-9.8,0.2-18,5.6-20.9,14.5l-2.7,0.6
				l-0.5-4.4l-7.3,1.6c2.8-10.3,10.5-17.7,19.4-19.6c1.5-0.3,2.9,0.3,3.8,1.5c2.1,2.7,4.8,3.7,8.2,3.7c1.9,0.1,6.3-1.1,8.3-3.8l0,0
				c0.9-1.1,2.3-1.6,3.7-1.3C602,640.9,609.7,648.3,612.6,658.6z"/>
			<path class="st14" d="M563,689.2l-5.6-2.2l-1.8,5.7c-0.6-0.8-1.2-1.5-1.7-2.3c-0.8-1.2-0.6-2.9,0.4-3.9c1.1-1.4,1.8-3.2,1.8-5
				c0-3.4-1.9-6.3-5.2-7.8l-0.5-0.2c-1.3-0.4-2.2-1.6-2.2-3c0-2.9,0.3-6.1,0.6-8.2l5-1.1l0.5,4.4l5-1.1c-0.2,1.3-0.4,2.9-0.4,3.5
				c0,0.4,0,0.8,0,1.2c-0.2,5.2,2.8,11.3,5.1,15.1L563,689.2z"/>
			<path class="st12" d="M614,670.5c0,1.4-0.9,2.6-2.2,3c-3.9,1.2-5.7,4.5-5.7,7.9c0,1.8,0.6,3.6,1.8,5c1.1,1,1.3,2.7,0.4,3.9
				c-0.5,0.8-1.1,1.6-1.7,2.3l-1.7-5.7l-5.6,2.3l-1.2-5c2.3-3.8,5.3-9.8,5.1-15.1c0-0.4,0-0.8,0-1.2c0-0.5-0.2-2.1-0.4-3.4l4.9,1.1
				l0.5-4.4l5.1,1.1C613.7,664.4,614,667.6,614,670.5z"/>
			<path class="st11" d="M603.9,695.7c-0.8,0.7-2.2,1.9-2.4,2.1l-1.1,0.8c-0.4,0.3-0.7,0.4-1.1,0.7c-1.4,1-3,1.7-5,2.2
				c-1.9,0.5-2.3,0.4-3.7,0.2c-1.1-0.1-2.1-0.7-2.7-1.6c-1.5-2.2-4-3.6-6.8-3.6c-2.8,0-5.3,1.4-6.8,3.6c-0.6,0.9-1.6,1.5-2.7,1.6
				c-1.5,0.1-2.6,0-3.7-0.2c-2-0.4-3.5-1.2-5-2.2c-0.4-0.2-0.8-0.5-1.1-0.8l-1-0.7c-0.1-0.1-0.8-0.7-1.5-1.3
				c-0.3-0.3-0.6-0.5-0.9-0.8l1.2-4.1l6,2.3l1.3-6.1l0.1,0.1c0,0,0,0.1,0.1,0.1c0.6,0.6,1.2,1.2,1.9,1.8c0,0,0.1,0,0.1,0.1
				c1.2,1.1,2.8,2,4.4,3l0.7,0.4c1.9,1,3.8,1.5,7,1.6c4.9-0.2,8-1.8,11-4.1c0.8-0.6,1.5-1.2,2.2-1.8c0.2-0.2,0.6-0.5,1.1-1.1
				l0.3,1.2l0,0l-0.3,1.1l0.8,5.3l0,0l6.1-0.8l1.3,0.2L603.9,695.7z"/>
			<polygon class="st11" points="603.6,694.8 602.3,694.6 596.2,695.4 595.4,690.1 595.7,689 595.7,689 596.9,694 602.7,691.7 			
				"/>
		</g>
	</g>
</g>
</svg>
