<?xml version="1.0" encoding="utf-8"?>
<!-- Generator: Adobe Illustrator 24.3.0, SVG Export Plug-In . SVG Version: 6.00 Build 0)  -->
<svg version="1.1" id="Layer_1" xmlns="http://www.w3.org/2000/svg" xmlns:xlink="http://www.w3.org/1999/xlink" x="0px" y="0px"
	 width="1715px" height="1648px" viewBox="0 0 1715 1648" style="enable-background:new 0 0 1715 1648;" xml:space="preserve">
<style type="text/css">
	.st0{fill:#FF4772;}
	.st1{fill-rule:evenodd;clip-rule:evenodd;fill:#FF4772;}
	.st2{fill:#1B172F;}
	.st3{fill:#F0D009;}
	.st4{fill-rule:evenodd;clip-rule:evenodd;fill:#F0D009;}
	.st5{fill:#07D3B0;}
	.st6{fill:#836AFC;}
	.st7{fill:#6A57C8;}
	.st8{fill:#13092D;}
	.st9{fill:#030014;}
	.st10{fill:url(#SVGID_1_);}
	.st11{fill:url(#SVGID_2_);}
	.st12{fill:url(#SVGID_3_);}
	.st13{fill:url(#SVGID_4_);}
	.st14{fill:#1F1B44;}
	.st15{fill:#FFFFFF;}
</style>
<g>
	<g>
		<g>
			<g>
				<path d="M255.7,1025.7h557.1c11.7,0,21.2,9.5,21.2,21.2V1153c0,11.7-9.5,21.2-21.2,21.2H255.7c-11.7,0-21.2-9.5-21.2-21.2
					v-106.1C234.5,1035.2,244,1025.7,255.7,1025.7z"/>
			</g>
			<g>
				<path class="st0" d="M812.8,1173.5H255.7c-11.3,0-20.5-9.2-20.5-20.5v-106.1c0-11.3,9.2-20.5,20.5-20.5h557.1
					c11.3,0,20.5,9.2,20.5,20.5V1153C833.4,1164.3,824.2,1173.5,812.8,1173.5z M255.7,1027.6c-10.6,0-19.3,8.6-19.3,19.3V1153
					c0,10.6,8.6,19.3,19.3,19.3h557.1c10.6,0,19.3-8.6,19.3-19.3v-106.1c0-10.6-8.6-19.3-19.3-19.3H255.7z"/>
			</g>
			<g>
				<path class="st1" d="M308.8,1071.6c-6.8,0-12.4,5.5-12.4,12.4c0,6.8,5.5,12.4,12.4,12.4c6.8,0,12.4-5.5,12.4-12.4
					C321.2,1077.2,315.6,1071.6,308.8,1071.6z M289.3,1084c0-10.7,8.7-19.5,19.5-19.5c10.7,0,19.5,8.7,19.5,19.5
					c0,10.7-8.7,19.5-19.5,19.5C298.1,1103.5,289.3,1094.8,289.3,1084z M308.8,1117.6c-11.3,0-21.6,4.9-29.3,13
					c-1.3,1.4-3.6,1.5-5,0.1c-1.4-1.3-1.5-3.6-0.1-5c8.9-9.4,21-15.3,34.4-15.3s25.5,5.9,34.4,15.3c1.3,1.4,1.3,3.7-0.1,5
					s-3.7,1.3-5-0.1C330.4,1122.5,320.1,1117.6,308.8,1117.6z"/>
			</g>
			<g>
				<path class="st2" d="M388.4,1084H781c8.8,0,15.9,7.1,15.9,15.9l0,0c0,8.8-7.1,15.9-15.9,15.9H388.4c-8.8,0-15.9-7.1-15.9-15.9
					l0,0C372.5,1091.1,379.6,1084,388.4,1084z"/>
			</g>
		</g>
		<g>
			<g>
				<path d="M234.5,1242.5c0-11.7,9.5-21.2,21.2-21.2h557.1c11.7,0,21.2,9.5,21.2,21.2v106.1c0,11.7-9.5,21.2-21.2,21.2H255.7
					c-11.7,0-21.2-9.5-21.2-21.2V1242.5z"/>
			</g>
			<g>
				<path class="st3" d="M812.8,1369.1H255.7c-11.3,0-20.5-9.2-20.5-20.5v-106.1c0-11.3,9.2-20.5,20.5-20.5h557.1
					c11.3,0,20.5,9.2,20.5,20.5v106.1C833.4,1359.9,824.2,1369.1,812.8,1369.1z M255.7,1223.2c-10.6,0-19.3,8.6-19.3,19.3v106.1
					c0,10.6,8.6,19.3,19.3,19.3h557.1c10.6,0,19.3-8.6,19.3-19.3v-106.1c0-10.6-8.6-19.3-19.3-19.3H255.7z"/>
			</g>
			<path class="st4" d="M272,1329.5c-1.2,0-2.1-1-2.1-2.1c0-1.2,1-2.1,2.1-2.1c0.8,0,1.4-0.6,1.4-1.4v-26.3c0-0.9,0-1.7,0.1-2.4
				c0.1-0.6,0.2-1.4,0.6-2.2c0.5-1.1,1.4-1.9,2.5-2.5c0.8-0.4,1.6-0.5,2.2-0.6c0.7-0.1,1.5-0.1,2.4-0.1h6.8c0.8,0,1.4-0.6,1.4-1.4
				v-13.6c0-1.8,0-3.4,0.1-4.7c0.1-1.5,0.4-2.6,0.9-3.6c0.9-1.7,2.3-3.1,4-4c1-0.5,2.1-0.8,3.6-0.9c1.2-0.1,2.6-0.1,4-0.1h10.8
				c1.5,0,2.9,0,4,0.1c1.5,0.1,2.6,0.4,3.6,0.9c1.7,0.9,3.1,2.3,4,4c0.5,1,0.8,2.1,0.9,3.6c0.1,1.3,0.1,2.8,0.1,4.7v13.6
				c0,0.8,0.6,1.4,1.4,1.4h6.8c0.9,0,1.7,0,2.4,0.1c0.6,0,1.4,0.2,2.2,0.6c1.1,0.5,1.9,1.4,2.5,2.5c0.4,0.8,0.5,1.6,0.6,2.2
				c0.1,0.7,0.1,1.5,0.1,2.4v26.3c0,0.8,0.6,1.4,1.4,1.4c1.2,0,2.1,1,2.1,2.1c0,1.2-1,2.1-2.1,2.1H272z M326.8,1294.1
				c-0.8,0-1.4,0.6-1.4,1.4v28.3c0,0.8,0.6,1.4,1.4,1.4h8.8c0.8,0,1.4-0.6,1.4-1.4v-26.2c0-1.1,0-1.7,0-2.2c0-0.7-0.5-1.3-1.2-1.3
				h-0.1c-0.5,0-1.1,0-2.2,0H326.8L326.8,1294.1z M302.8,1265.8c-2,0-3.4,0-4.5,0.1c-1.2,0.1-1.7,0.3-2,0.4c-1,0.5-1.7,1.2-2.2,2.2
				c-0.2,0.5-0.4,1.1-0.5,2c-0.1,1.1-0.1,2.5-0.1,4.5v48.8c0,0.8,0.6,1.4,1.4,1.4h24.8c0.8,0,1.4-0.6,1.4-1.4V1275
				c0-2.1,0-3.4-0.1-4.5c-0.1-0.9-0.2-1.6-0.4-2c-0.5-0.9-1.2-1.7-2.2-2.2c-0.3-0.2-0.8-0.4-2-0.4c-1.1-0.1-2.5-0.1-4.5-0.1H302.8z
				 M277.7,1295.5c0,0.5,0,1.1,0,2.2v26.2c0,0.8,0.6,1.4,1.4,1.4h8.8c0.8,0,1.4-0.6,1.4-1.4v-28.3c0-0.8-0.6-1.4-1.4-1.4h-6.7
				c-1.1,0-1.7,0-2.1,0H279c-0.6,0.1-1.1,0.6-1.2,1.2C277.7,1295.4,277.7,1295.5,277.7,1295.5L277.7,1295.5z M303.9,1308.2
				c-1.2,0-2.1-1-2.1-2.1c0-1.2,1-2.1,2.1-2.1h7.1c1.2,0,2.1,1,2.1,2.1c0,1.2-1,2.1-2.1,2.1H303.9z M303.9,1294.1
				c-1.2,0-2.1-1-2.1-2.1c0-1.2,1-2.1,2.1-2.1h7.1c1.2,0,2.1,1,2.1,2.1c0,1.2-1,2.1-2.1,2.1H303.9z M303.9,1279.9
				c-1.2,0-2.1-1-2.1-2.1c0-1.1,1-2.1,2.1-2.1h7.1c1.2,0,2.1,1,2.1,2.1c0,1.1-1,2.1-2.1,2.1H303.9z"/>
			<g>
				<path class="st2" d="M388.4,1279.6H781c8.8,0,15.9,7.1,15.9,15.9l0,0c0,8.8-7.1,15.9-15.9,15.9H388.4c-8.8,0-15.9-7.1-15.9-15.9
					l0,0C372.5,1286.7,379.6,1279.6,388.4,1279.6z"/>
			</g>
		</g>
		<g>
			<g>
				<path d="M881,1046.8c0-11.7,9.5-21.2,21.2-21.2h557.1c11.7,0,21.2,9.5,21.2,21.2v106.1c0,11.7-9.5,21.2-21.2,21.2H902.2
					c-11.7,0-21.2-9.5-21.2-21.2V1046.8z"/>
			</g>
			<g>
				<path class="st5" d="M1459.3,1173.5H902.2c-11.3,0-20.5-9.2-20.5-20.5v-106.1c0-11.3,9.2-20.5,20.5-20.5h557.1
					c11.3,0,20.5,9.2,20.5,20.5V1153C1479.8,1164.3,1470.6,1173.5,1459.3,1173.5z M902.2,1027.6c-10.6,0-19.3,8.6-19.3,19.3V1153
					c0,10.6,8.6,19.3,19.3,19.3h557.1c10.6,0,19.3-8.6,19.3-19.3v-106.1c0-10.6-8.6-19.3-19.3-19.3H902.2z"/>
			</g>
			<g>
				<path class="st5" d="M929.7,1130.1c-1,0-2-0.1-3-0.2c-0.8-0.1-1.4-0.7-1.5-1.5c-0.6-4.5,0.2-9.1,2.2-13.2
					c1.6-3.2,3.9-5.9,6.7-8.1c-2.4-1-4.9-1.7-7.5-2c-0.6-0.1-1.1-0.4-1.3-0.9c-0.3-0.5-0.2-1.1,0-1.6c1.9-3.4,4.7-6.2,8.1-8.2
					c3-1.8,6.4-2.9,9.9-3.2c2.3-5.8,6.1-10.9,11.1-14.6c5.3-4,11.6-6.3,18.3-6.7l0,0c3.4,0,6.5,1.3,8.8,3.6c2.3,2.3,3.6,5.5,3.6,8.7
					c-0.4,6.7-2.7,13.1-6.7,18.4c-3.8,5-8.8,8.8-14.6,11.1c-0.3,3.5-1.4,6.9-3.2,9.9c-2,3.3-4.8,6.1-8.2,8.1c-0.5,0.3-1.1,0.3-1.6,0
					s-0.9-0.7-0.9-1.3c-0.3-2.6-1-5.1-2-7.5c-2.1,2.8-4.9,5.1-8.1,6.7C936.7,1129.2,933.2,1130.1,929.7,1130.1z M928.5,1126.6
					c3.4,0.2,6.8-0.5,9.9-2c3.2-1.6,5.9-4,7.8-7.1c-1.1-1.7-2.4-3.4-3.8-4.8c-1.5-1.5-3.1-2.7-4.8-3.8c-3,1.9-5.5,4.6-7.1,7.8
					C929,1119.8,928.3,1123.2,928.5,1126.6z M929.8,1102.2c5.7,1.2,10.9,4,15,8.1c4.1,4.1,6.9,9.4,8.1,15c2-1.5,3.6-3.4,4.9-5.5
					c1.7-2.8,2.7-6.1,2.8-9.4c0-0.7,0.5-1.3,1.1-1.5c5.6-2,10.5-5.6,14.1-10.3c3.6-4.8,5.7-10.5,6-16.4c0-2.3-1-4.6-2.6-6.2
					c-1.7-1.7-3.9-2.6-6.3-2.6c-5.9,0.3-11.6,2.4-16.4,6c-4.8,3.6-8.4,8.5-10.4,14.1c-0.2,0.7-0.8,1.1-1.5,1.1
					c-3.3,0.1-6.6,1.1-9.4,2.8C933.2,1098.6,931.3,1100.2,929.8,1102.2z M965.9,1094.5c-1.4,0-2.7-0.5-3.7-1.5s-1.5-2.3-1.5-3.7
					s0.6-2.7,1.5-3.7c1-1,2.3-1.5,3.7-1.5s2.7,0.5,3.7,1.5s1.5,2.3,1.5,3.7c0,1.4-0.6,2.7-1.5,3.7
					C968.6,1094,967.3,1094.5,965.9,1094.5z M965.9,1087.4c-0.5,0-1,0.2-1.3,0.5s-0.5,0.8-0.5,1.3s0.2,1,0.5,1.3
					c0.7,0.7,1.9,0.7,2.6,0c0.3-0.3,0.5-0.8,0.5-1.3s-0.2-1-0.5-1.3C966.8,1087.6,966.3,1087.4,965.9,1087.4z"/>
			</g>
			<g>
				<path class="st2" d="M1034.8,1084h392.6c8.8,0,15.9,7.1,15.9,15.9l0,0c0,8.8-7.1,15.9-15.9,15.9h-392.6
					c-8.8,0-15.9-7.1-15.9-15.9l0,0C1018.9,1091.1,1026,1084,1034.8,1084z"/>
			</g>
		</g>
		<g>
			<g>
				<path d="M881,1242.4c0-11.7,9.5-21.2,21.2-21.2h557.1c11.7,0,21.2,9.5,21.2,21.2v106.1c0,11.7-9.5,21.2-21.2,21.2H902.2
					c-11.7,0-21.2-9.5-21.2-21.2V1242.4z"/>
			</g>
			<g>
				<path class="st6" d="M1459.3,1369.1H902.2c-11.3,0-20.5-9.2-20.5-20.5v-106.1c0-11.3,9.2-20.5,20.5-20.5h557.1
					c11.3,0,20.5,9.2,20.5,20.5v106.1C1479.8,1359.9,1470.6,1369.1,1459.3,1369.1z M902.2,1223.2c-10.6,0-19.3,8.6-19.3,19.3v106.1
					c0,10.6,8.6,19.3,19.3,19.3h557.1c10.6,0,19.3-8.6,19.3-19.3v-106.1c0-10.6-8.6-19.3-19.3-19.3H902.2z"/>
			</g>
			<g>
				<path class="st6" d="M980,1325.5h-49.5c-2.3,0-4.5-0.9-6.2-2.6s-2.6-3.9-2.6-6.2V1299c0,0,0,0,0-0.1v-14.1
					c0-2.3,0.9-4.5,2.6-6.2c1.7-1.7,3.9-2.6,6.2-2.6h8.9v-5.4c0-2.3,0.9-4.6,2.6-6.2c1.7-1.7,3.9-2.6,6.2-2.6h14.1
					c2.3,0,4.5,0.9,6.2,2.6c1.7,1.6,2.6,3.9,2.6,6.2v5.4h8.9c2.3,0,4.5,0.9,6.2,2.6s2.6,3.9,2.6,6.2v14.1c0,0,0,0,0,0.1v17.7
					c0,2.3-0.9,4.5-2.6,6.2C984.5,1324.6,982.3,1325.5,980,1325.5z M925.1,1301.7v15c0,1.4,0.6,2.8,1.6,3.8s2.4,1.6,3.8,1.6H980
					c1.4,0,2.8-0.6,3.8-1.6s1.6-2.4,1.6-3.8v-15c-9.4,4.3-19.8,6.6-30.1,6.6S934.5,1306,925.1,1301.7z M925.1,1298
					c9.4,4.5,19.8,6.9,30.1,6.9s20.8-2.4,30.1-6.9v-13.1c0-1.4-0.6-2.8-1.6-3.8s-2.4-1.6-3.8-1.6h-49.5c-1.4,0-2.8,0.6-3.8,1.6
					s-1.6,2.4-1.6,3.8L925.1,1298L925.1,1298z M942.8,1276.1h24.9v-5.4c0-1.4-0.6-2.8-1.6-3.8s-2.4-1.6-3.8-1.6h-14.1
					c-1.4,0-2.8,0.6-3.8,1.6s-1.6,2.4-1.6,3.8L942.8,1276.1L942.8,1276.1z M955.2,1297.2c-0.9,0-1.7-0.8-1.7-1.7s0.8-1.7,1.7-1.7
					s1.7,0.7,1.7,1.7l0,0C956.9,1296.4,956.2,1297.2,955.2,1297.2z"/>
			</g>
			<g>
				<path class="st2" d="M1034.8,1279.6h392.6c8.8,0,15.9,7.1,15.9,15.9l0,0c0,8.8-7.1,15.9-15.9,15.9h-392.6
					c-8.8,0-15.9-7.1-15.9-15.9l0,0C1018.9,1286.7,1026,1279.6,1034.8,1279.6z"/>
			</g>
		</g>
	</g>
	<g>
		<path class="st7" d="M1104.1,856.6v-0.2l-2.9,0.1v0.2c0.6,12.5-3,30.3-14.9,42.7c-9.3,9.8-22.2,14.7-38.4,14.7h-99.6
			c7.1-2.3,13.5-6,19-11c14-12.8,19.7-31.6,20.3-45v-0.2l-2.9-0.1v0.2c-0.6,12.8-6,30.8-19.4,43c-8.9,8.1-20.1,12.5-33.5,13.2h-27.7
			l0,0h-11.4c-16.7,0-30.7,11.2-35.2,26.4c-4.5-15.2-18.6-26.4-35.2-26.4h-11.4l0,0h-27.6c-13.3-0.7-24.6-5.1-33.5-13.2
			c-13.4-12.2-18.8-30.2-19.4-43v-0.2l-2.9,0.1v0.2c0.6,13.4,6.3,32.2,20.3,45c5.5,5,11.9,8.7,19,11h-99.6
			c-16.2,0-29.1-4.9-38.4-14.7c-11.9-12.5-15.5-30.2-14.9-42.7v-0.2l-2.9-0.1v0.2c-0.6,13.1,3.2,31.8,15.7,44.9
			c9.9,10.4,23.5,15.6,40.6,15.6h116c1.2,0.1,2.5,0.1,3.7,0.1c1.3,0,2.6,0,3.9-0.1h20.2l0,0h11.2c18.6,0,33.7,15.1,33.7,33.7
			c0,0,0,0,0,0.1v12.3l0,0h3l0,0v-12.3c0,0,0,0,0-0.1c0-18.6,15.2-33.7,33.7-33.7h11.4l0,0h20.2c1.3,0.1,2.6,0.1,3.9,0.1
			c1.3,0,2.5,0,3.7-0.1h116c17,0,30.7-5.3,40.6-15.6C1100.9,888.4,1104.7,869.7,1104.1,856.6z"/>
		<path class="st7" d="M857.5,965.2c-0.4,0-0.8-0.2-1.1-0.5l-14.2-14.2c-0.3-0.3-0.5-0.7-0.5-1.1c0-0.4,0.2-0.8,0.5-1.1
			s0.7-0.5,1.1-0.5c0.4,0,0.8,0.2,1.1,0.5l13,13.1l13-13.1c0.3-0.3,0.7-0.5,1.1-0.5s0.8,0.2,1.1,0.5c0.6,0.6,0.6,1.6,0,2.2l-14,14.2
			C858.3,965,857.9,965.2,857.5,965.2z"/>
	</g>
	<path class="st8" d="M1064.1,797.7H650.9c-22.1,0-40.1-17.9-40.1-40.1V318.3c0-22.1,17.9-40.1,40.1-40.1H1064
		c22.1,0,40.1,17.9,40.1,40.1v439.4C1104.2,779.8,1086.2,797.7,1064.1,797.7z"/>
	<path class="st9" d="M1016.1,747.2H698.9c-22.1,0-40.1-17.9-40.1-40.1V368.8c0-22.1,17.9-40.1,40.1-40.1h317.2
		c22.1,0,40.1,17.9,40.1,40.1v338.3C1056.2,729.3,1038.2,747.2,1016.1,747.2z"/>
	<g>
		<path class="st2" d="M920.1,453.5l-14.8,24.6c-3.9-1.3-7.1-3.4-11.1-4l15.3-25.5C912.4,451.3,916.2,453,920.1,453.5L920.1,453.5z"
			/>
		<path class="st2" d="M821,474.1c-4,0.6-7.4,2.9-11.2,4.1l-14.9-24.8c4-0.5,7.7-2.2,10.7-4.9L821,474.1z"/>
		
			<linearGradient id="SVGID_1_" gradientUnits="userSpaceOnUse" x1="830.9986" y1="-165.3" x2="885.1" y2="-165.3" gradientTransform="matrix(1 0 0 1 0 804)">
			<stop  offset="0" style="stop-color:#836AFC"/>
			<stop  offset="1" style="stop-color:#5D51AF"/>
		</linearGradient>
		<path class="st10" d="M842.9,622.8h30.3c6.6,0,11.9,5.3,11.9,11.9v8c0,6.6-5.3,11.9-11.9,11.9h-30.3c-6.6,0-11.9-5.3-11.9-11.9v-8
			C830.9,628.1,836.3,622.8,842.9,622.8z"/>
		<path class="st2" d="M940.5,587.4v14.1c0,17.3-14,31.3-31.3,31.3h-18.4c0.1,0.6,0.1,1.2,0.1,1.8v8c0,0.6,0,1.2-0.1,1.9h18.4
			c23.7,0,43-19.3,43-43v-31.1C949.1,576.6,945.2,582.3,940.5,587.4z"/>
		
			<linearGradient id="SVGID_2_" gradientUnits="userSpaceOnUse" x1="761.3" y1="-265.6" x2="953.7003" y2="-265.6" gradientTransform="matrix(1 0 0 1 0 804)">
			<stop  offset="0" style="stop-color:#836AFC"/>
			<stop  offset="1" style="stop-color:#5D51AF"/>
		</linearGradient>
		<path class="st11" d="M887.4,472.1h-59.8c-36.6,0-66.3,29.7-66.3,66.3s29.7,66.3,66.3,66.3h59.8c36.6,0,66.3-29.7,66.3-66.3
			C953.8,501.8,924.1,472.1,887.4,472.1z M887.4,589.1h-59.8c-27.9,0-50.6-22.7-50.6-50.6c0-27.9,22.7-50.6,50.6-50.6h59.8
			c27.9,0,50.6,22.7,50.6,50.6C938,566.4,915.3,589.1,887.4,589.1L887.4,589.1z"/>
		
			<linearGradient id="SVGID_3_" gradientUnits="userSpaceOnUse" x1="909.163" y1="-369.5" x2="935.6351" y2="-369.5" gradientTransform="matrix(1 0 0 1 0 804)">
			<stop  offset="0" style="stop-color:#836AFC"/>
			<stop  offset="1" style="stop-color:#5D51AF"/>
		</linearGradient>
		<circle class="st12" cx="922.4" cy="434.5" r="13.2"/>
		
			<linearGradient id="SVGID_4_" gradientUnits="userSpaceOnUse" x1="779.4" y1="-369.5" x2="805.8721" y2="-369.5" gradientTransform="matrix(1 0 0 1 0 804)">
			<stop  offset="0" style="stop-color:#836AFC"/>
			<stop  offset="1" style="stop-color:#5D51AF"/>
		</linearGradient>
		<circle class="st13" cx="792.6" cy="434.5" r="13.2"/>
		<path class="st14" d="M827.6,592.9c-30,0-54.5-24.4-54.5-54.5c0-30,24.4-54.5,54.5-54.5h59.8c30,0,54.5,24.4,54.5,54.5
			c0,30-24.4,54.5-54.5,54.5H827.6z"/>
		<g>
			<path class="st8" d="M896.4,565.8h-77.8c-13.8,0-25.1-11.2-25.1-25.1v-4.4c0-13.8,11.2-25.1,25.1-25.1h77.8
				c13.8,0,25.1,11.2,25.1,25.1v4.4C921.5,554.5,910.3,565.8,896.4,565.8z"/>
			<g>
				<circle class="st15" cx="825.5" cy="538.5" r="12.9"/>
				<circle class="st15" cx="889.5" cy="538.5" r="12.9"/>
			</g>
		</g>
	</g>
</g>
</svg>
