<svg xmlns="http://www.w3.org/2000/svg" width="512" height="512" viewBox="0 0 65 65" xml:space="preserve"><path d="M20.8-.001h2.6v7.8h-2.6zm5.2 0h2.6V2.6H26zm5.2 0h10.4v10.4h2.6v2.6H33.8v-2.6H39v-5.2h-2.601V2.6H33.8v2.599h-2.6zm-31.201 0v18.2h18.2v-18.2zM15.6 15.6h-13v-13h13zM46.8-.001v18.2h18.201v-18.2zM62.401 15.6H49.4v-13h13.001z" data-original="#000000"/><path d="M5.199 5.199h7.8v7.8h-7.8zm23.401 0h2.601v2.6H28.6zm23.4 0h7.801v7.8H52zm-28.601 2.6H28.6v2.6H26v2.6h2.6v5.2h2.6v5.2h-2.6V20.8H26v-5.2h-2.601v5.2H26v2.599h-5.2v-10.4h2.599z" data-original="#000000"/><path d="M31.2 15.6h2.6v2.6h-2.6zm5.199 0H39v2.6h-2.601zm5.201 0h2.601v2.6H41.6zM5.199 20.8h7.8v2.599H15.6V26h-2.601v2.6h-2.6v-5.201h-5.2zm10.401 0h2.6v2.6h-2.6zm18.2 0h2.6v2.6h-2.6zm5.2 0h2.6V26H39zm5.2 0H52V26h-2.6v-2.601h-5.2zm13 0h7.801v2.599h-5.2V26h5.2v7.8H57.2v-2.6h2.601v-2.6H54.6V26h2.6z" data-original="#000000"/><path d="M18.199 23.399H20.8V28.6H26v-5.201h2.6V26h7.799v2.6H28.6v2.6h-5.201v2.6h-13v2.599h-2.6V28.6h2.6v2.6h7.8v-2.6H15.6V26h2.599zM5.199 26h2.6v2.6h-2.6zM41.6 26h2.601v2.6H41.6zM-.001 28.6h5.2v5.2H2.6v10.4H-.001zm36.4 0H39v2.601h-2.601z" data-original="#000000"/><path d="M31.2 31.2h5.199v5.199H33.8V33.8h-2.6zm10.4 0h2.601v2.6H41.6zm13 2.6h2.601v2.6H54.6zM5.199 36.399h2.6V39h5.2v2.6h-2.6v2.6h-2.6v-2.6h-2.6zm10.401 0h2.6V39h-2.6z" data-original="#000000"/><path d="M57.2 36.399h7.801V44.2h-2.6V39H57.2z" data-original="#000000"/><path d="M54.6 41.6v-5.2H52v-2.6h-2.6v-2.6H52v2.6h2.6v-5.2h-5.2V26h-2.6v2.6h-2.6v2.6h2.6v5.199h2.6v5.2h-7.8V39h5.2v-2.601h-5.2v-2.6H39v2.6h-2.601v5.2h-2.6V44.2h-2.6v-2.6h2.6v-5.2h-2.6V39H28.6v-2.601h2.6v-2.6h-7.801v2.6H26V39h-7.801v2.6h-5.2v2.6H20.8v-2.6h7.8v2.6h-7.8v2.6H26v2.6h-2.601V52h-2.6v7.801h2.6V57.2H26V52h2.6v-2.6h2.6v-2.6h5.199v-2.6H39v5.2h2.6v5.2H39v-5.2h-5.2V52h-5.2v5.2h2.6v-2.6h5.199v2.6h5.2v2.601H44.2V57.2h2.6v-2.6H52v2.6h5.2v-2.6h-2.6V52h2.6v-2.6h-2.6v-2.6h2.6v-2.6h2.601v-2.6zM52 52h-7.8v-7.8H52zm7.801-7.8h2.6v2.6h2.6v2.6h-5.2z" data-original="#000000"/><path d="M46.8 46.8h2.601v2.601H46.8zm-46.801 0v18.201h18.2V46.8zM15.6 62.401h-13V49.4h13z" data-original="#000000"/><path d="M5.199 52h7.8v7.801h-7.8zM57.2 52h2.601v2.6H57.2zm5.201 2.6h2.6v10.401H54.6v-2.6h7.801zM31.2 57.2h5.199v2.601H31.2zm15.6 0H52v2.601h2.6v2.6h-5.2v2.6h-5.2v-2.6h2.6z" data-original="#000000"/><path d="M57.2 57.2h2.601v2.601H57.2zm-28.6 2.601h2.601v2.601H28.6zm7.799 2.6h5.2v2.6h-5.2z" data-original="#000000"/></svg>