<svg id="Layer_1" data-name="Layer 1" xmlns="http://www.w3.org/2000/svg" viewBox="0 0 22.21 21.83"><defs><style>.cls-1{fill:#fff;}</style></defs><path class="cls-1" d="M10.49,17.07a.93.93,0,0,1-.92-.91v-.52a.43.43,0,0,0-.27-.39.65.65,0,0,0-.19,0,.45.45,0,0,0-.29.12l-.37.37A.93.93,0,0,1,7.8,16a.91.91,0,0,1-.65-.27l-.87-.86a.89.89,0,0,1,0-1.28l.37-.38a.4.4,0,0,0,.08-.47.43.43,0,0,0-.39-.28H5.82a.92.92,0,0,1-.92-.91V10.31a.91.91,0,0,1,.91-.91h.53a.43.43,0,0,0,.39-.28.42.42,0,0,0-.08-.48l-.37-.36A.91.91,0,0,1,6.28,7l.87-.86a.94.94,0,0,1,1.3,0l.37.37a.45.45,0,0,0,.29.12.58.58,0,0,0,.18,0,.43.43,0,0,0,.28-.4V5.67a.93.93,0,0,1,.92-.92h1.23a.92.92,0,0,1,.92.92v.51a.45.45,0,0,0,.27.4.65.65,0,0,0,.19,0,.45.45,0,0,0,.29-.12l.37-.37a1,1,0,0,1,.65-.26.93.93,0,0,1,.65.26l.87.86a.9.9,0,0,1,0,1.28l-.37.38a.41.41,0,0,0-.08.47.43.43,0,0,0,.39.28h.52a.91.91,0,0,1,.92.91v1.21a.91.91,0,0,1-.91.91h-.53a.44.44,0,0,0-.39.28.42.42,0,0,0,.08.47l.37.37a.91.91,0,0,1,.27.64.9.9,0,0,1-.26.64l-.88.87a.91.91,0,0,1-.65.27,1,1,0,0,1-.65-.27l-.37-.37a.4.4,0,0,0-.29-.12.39.39,0,0,0-.18,0,.43.43,0,0,0-.28.39v.52a.92.92,0,0,1-.92.91ZM9.11,14.72a1.16,1.16,0,0,1,.37.07.93.93,0,0,1,.59.85v.52a.42.42,0,0,0,.42.42h1.23a.42.42,0,0,0,.42-.42v-.52a.91.91,0,0,1,.58-.84,1.08,1.08,0,0,1,.38-.08.94.94,0,0,1,.64.26l.37.37a.41.41,0,0,0,.6,0l.86-.86a.39.39,0,0,0,.13-.29.42.42,0,0,0-.12-.3l-.38-.37a.93.93,0,0,1-.2-1,.94.94,0,0,1,.87-.61h.52a.42.42,0,0,0,.43-.42V10.31a.42.42,0,0,0-.43-.42h-.52A.93.93,0,0,1,15,9.31a.91.91,0,0,1,.18-1l.37-.37a.42.42,0,0,0,.13-.3.4.4,0,0,0-.12-.29l-.87-.86a.41.41,0,0,0-.6,0l-.37.36a.91.91,0,0,1-.64.27A1.16,1.16,0,0,1,12.73,7a.94.94,0,0,1-.59-.86V5.67a.42.42,0,0,0-.42-.42H10.49a.42.42,0,0,0-.42.42v.51A.92.92,0,0,1,9.49,7a1,1,0,0,1-.38.08.91.91,0,0,1-.64-.27L8.1,6.48a.41.41,0,0,0-.6,0l-.86.86a.39.39,0,0,0-.13.29.42.42,0,0,0,.12.3L7,8.3a.92.92,0,0,1,.19,1,.94.94,0,0,1-.86.59H5.82a.42.42,0,0,0-.42.42v1.21a.42.42,0,0,0,.42.42h.52A.95.95,0,0,1,7,13.53l-.37.37a.41.41,0,0,0,0,.59l.87.86a.41.41,0,0,0,.6,0L8.47,15a.94.94,0,0,1,.64-.26Z"/><path class="cls-1" d="M9,20.16a9.72,9.72,0,0,1-7.4-7.31.23.23,0,0,0-.15-.15h0a.21.21,0,0,0-.19.08l-.62.85a.26.26,0,0,1-.2.1.24.24,0,0,1-.2-.39l1.29-1.76a.25.25,0,0,1,.2-.1.23.23,0,0,1,.15,0L3.6,12.78a.25.25,0,0,1,0,.35.25.25,0,0,1-.2.1.3.3,0,0,1-.15-.05l-.91-.66-.11,0a.2.2,0,0,0-.11,0,.2.2,0,0,0-.09.21,9.23,9.23,0,0,0,7,7,.23.23,0,0,1,.15.1.24.24,0,0,1-.2.38Z"/><path class="cls-1" d="M1.7,9.6a.24.24,0,0,1-.24-.24A9.78,9.78,0,0,1,8.28,1.45a.18.18,0,0,0,.14-.18.2.2,0,0,0-.13-.2L7.2.68A.2.2,0,0,1,7.06.55a.19.19,0,0,1,0-.18A.25.25,0,0,1,7.28.2L9.43,1a.25.25,0,0,1,.14.13.22.22,0,0,1,0,.18l-.73,2a.27.27,0,0,1-.24.16.28.28,0,0,1-.25-.25l.36-1a.2.2,0,0,0,0-.21.42.42,0,0,0-.14-.06A9.25,9.25,0,0,0,2,9.39a.24.24,0,0,1-.24.21Z"/><path class="cls-1" d="M14.12,21.63a.31.31,0,0,1-.16-.06l-1.68-1.4a.25.25,0,0,1,0-.35l1.38-1.64a.28.28,0,0,1,.2-.08.33.33,0,0,1,.16,0,.23.23,0,0,1,.08.17.24.24,0,0,1-.05.18l-.63.74a.21.21,0,0,0,0,.24.4.4,0,0,0,.17.09,9.29,9.29,0,0,0,6.75-7.7.26.26,0,0,1,.25-.22.35.35,0,0,1,.2.1.23.23,0,0,1,.05.18,9.76,9.76,0,0,1-7.31,8.17.21.21,0,0,0-.15.15.19.19,0,0,0,.07.2l.88.74a.25.25,0,0,1,0,.35A.29.29,0,0,1,14.12,21.63Z"/><path class="cls-1" d="M11.11,13.19a2.28,2.28,0,1,1,2.29-2.28A2.29,2.29,0,0,1,11.11,13.19Zm0-4.06a1.79,1.79,0,1,0,1.79,1.78A1.79,1.79,0,0,0,11.11,9.13Z"/><path class="cls-1" d="M20.7,9.81l-.12,0L18.71,8.72a.26.26,0,0,1-.12-.15.23.23,0,0,1,0-.18.24.24,0,0,1,.22-.13l.12,0,.85.49.1,0a.16.16,0,0,0,.12,0,.19.19,0,0,0,.08-.2,9.21,9.21,0,0,0-7.39-6.89.25.25,0,0,1-.2-.28.26.26,0,0,1,.25-.21,9.71,9.71,0,0,1,7.84,7.35.23.23,0,0,0,.17.16h0a.2.2,0,0,0,.19-.1l.6-1a.22.22,0,0,1,.21-.12.28.28,0,0,1,.13,0,.19.19,0,0,1,.11.15.22.22,0,0,1,0,.18l-1.09,1.9a.24.24,0,0,1-.21.12Z"/></svg>