<?xml version="1.0" encoding="utf-8"?>
<!-- Generator: Adobe Illustrator 24.3.0, SVG Export Plug-In . SVG Version: 6.00 Build 0)  -->
<svg version="1.1" id="Layer_1" xmlns="http://www.w3.org/2000/svg" xmlns:xlink="http://www.w3.org/1999/xlink" x="0px" y="0px"
	 width="20.5px" height="21.7px" viewBox="0 0 20.5 21.7" style="enable-background:new 0 0 20.5 21.7;" xml:space="preserve">
<style type="text/css">
	.st0{fill:#FFFFFF;}
	.st1{fill:none;}
</style>
<path class="st0" d="M79.5,21.2L79.5,21.2L79.5,21.2L79.5,21.2z"/>
<path class="st1" d="M58.9,21.1C58.9,21.2,58.9,21.2,58.9,21.1C58.9,21.2,58.9,21.2,58.9,21.1C58.9,21.2,58.9,21.2,58.9,21.1
	C58.9,21.2,58.9,21.1,58.9,21.1z"/>
<g>
	<path class="st1" d="M8.6,12.2H1.9c-0.1,0-0.2-0.1-0.2-0.2c0,0,0,0,0,0c0-0.1,0.1-0.2,0.2-0.2h6.9c0.2-0.3,0.4-0.6,0.7-0.9
		c0.8-0.8,1.8-1.2,2.8-1.2V5H9.4C8.6,5,7.9,4.3,7.9,3.5V0.6H1.7c-0.6,0-1.1,0.5-1.1,1.1v13.1c0,0.6,0.5,1.1,1.1,1.1h7
		C8.1,14.8,8.1,13.4,8.6,12.2z M7.7,9.8c0,0.1-0.1,0.2-0.2,0.2H1.9c0,0,0,0,0,0c-0.1,0-0.2-0.1-0.2-0.2c0,0,0,0,0,0
		c0-0.1,0.1-0.2,0.2-0.2h5.6c0,0,0,0,0,0C7.6,9.6,7.7,9.7,7.7,9.8C7.7,9.8,7.7,9.8,7.7,9.8z M9.2,7.5c0.1,0,0.2,0.1,0.2,0.2
		c0,0.1-0.1,0.2-0.2,0.2H1.9c0,0,0,0,0,0c-0.1,0-0.2-0.1-0.2-0.2c0,0,0,0,0,0c0-0.1,0.1-0.2,0.2-0.2H9.2z M1.5,3.3
		c0-0.3,0.3-0.6,0.6-0.6h2.6c0.3,0,0.6,0.3,0.6,0.6v2.6c0,0.3-0.3,0.6-0.6,0.6H2.2c-0.3,0-0.6-0.3-0.6-0.6V3.3z M6.5,14.3H1.9
		c-0.1,0-0.2-0.1-0.2-0.2s0.1-0.2,0.2-0.2h4.6c0.1,0,0.2,0.1,0.2,0.2S6.6,14.3,6.5,14.3z"/>
	<path class="st1" d="M15.3,11.2c-1.5-1.5-4-1.5-5.5,0h0c-1.5,1.5-1.5,4,0,5.5c1.5,1.5,4,1.5,5.5,0C16.8,15.1,16.8,12.7,15.3,11.2z
		 M10.4,16c-1.2-1.2-1.2-3,0-4.2c1.2-1.2,3-1.2,4.2,0c0.6,0.6,0.9,1.3,0.9,2.1c0,0.8-0.3,1.5-0.9,2.1C13.5,17.2,11.6,17.2,10.4,16z"
		/>
	<path class="st1" d="M16.6,17.1L16,16.5c-0.1,0.1-0.3,0.3-0.4,0.5c-0.1,0.1-0.3,0.2-0.3,0.3l0.6,0.6C15.9,17.8,16.6,17.1,16.6,17.1
		z"/>
	<path class="st1" d="M14.3,12.1c-1-1-2.6-1-3.6,0c-1,1-1,2.6,0,3.6c1,1,2.6,1,3.6,0C15.4,14.7,15.3,13.1,14.3,12.1z"/>
	<path class="st1" d="M17.3,17.1c-0.3,0.3-0.5,0.5-0.6,0.6c0,0,0,0,0,0l0,0c0,0,0,0,0,0c0,0,0,0,0,0c0,0,0,0,0,0c0,0,0,0,0,0
		c0,0,0,0,0,0c0,0,0,0,0,0c-0.1,0.1-0.4,0.3-0.7,0.7l2.5,2.5c0.1,0.1,0.3,0.1,0.4,0l1.1-1.1c0.1-0.1,0.1-0.3,0-0.4L17.3,17.1z"/>
	<path class="st1" d="M9.4,4.6H12L8.3,0.9l0,2.6C8.3,4.1,8.8,4.6,9.4,4.6z"/>
	<path class="st1" d="M2.2,6.1h2.6c0,0,0,0,0,0c0.1,0,0.2-0.1,0.2-0.2V3.3c0,0,0,0,0,0c0-0.1-0.1-0.2-0.2-0.2H2.2c0,0,0,0,0,0
		C2,3.1,2,3.2,2,3.3v2.6c0,0,0,0,0,0C2,6,2.1,6.1,2.2,6.1z"/>
	<path class="st0" d="M1.7,7.7C1.7,7.7,1.7,7.7,1.7,7.7c0,0.1,0.1,0.2,0.2,0.2c0,0,0,0,0,0h7.3c0.1,0,0.2-0.1,0.2-0.2
		c0-0.1-0.1-0.2-0.2-0.2H1.9C1.8,7.5,1.7,7.6,1.7,7.7z"/>
	<path class="st0" d="M14.6,11.8c-1.2-1.2-3-1.2-4.2,0c-1.2,1.2-1.2,3,0,4.2c1.2,1.2,3.1,1.1,4.2,0c0.6-0.6,0.9-1.3,0.9-2.1
		C15.5,13.2,15.2,12.4,14.6,11.8z M14.3,15.7c-1,1-2.6,1-3.6,0c-1-1-1-2.6,0-3.6c1-1,2.6-1,3.6,0C15.3,13.1,15.4,14.7,14.3,15.7z"/>
	<path class="st0" d="M6.5,13.9H1.9c-0.1,0-0.2,0.1-0.2,0.2s0.1,0.2,0.2,0.2h4.6c0.1,0,0.2-0.1,0.2-0.2S6.6,13.9,6.5,13.9z"/>
	<path class="st0" d="M7.5,9.6C7.5,9.6,7.5,9.6,7.5,9.6H1.9c-0.1,0-0.2,0.1-0.2,0.2c0,0,0,0,0,0c0,0.1,0.1,0.2,0.2,0.2c0,0,0,0,0,0
		h5.6c0.1,0,0.2-0.1,0.2-0.2c0,0,0,0,0,0C7.7,9.7,7.6,9.6,7.5,9.6z"/>
	<path class="st0" d="M2.2,6.5h2.6c0.3,0,0.6-0.3,0.6-0.6V3.3c0-0.3-0.3-0.6-0.6-0.6H2.2C1.8,2.7,1.5,3,1.5,3.3v2.6
		C1.5,6.2,1.8,6.5,2.2,6.5z M2,5.9V3.3C2,3.2,2,3.1,2.2,3.1c0,0,0,0,0,0h2.6c0.1,0,0.2,0.1,0.2,0.2c0,0,0,0,0,0v2.6
		c0,0.1-0.1,0.2-0.2,0.2c0,0,0,0,0,0H2.2C2.1,6.1,2,6,2,5.9C2,5.9,2,5.9,2,5.9z"/>
	<path class="st0" d="M20.1,19.3l-2.7-2.7c-0.1-0.1-0.2-0.1-0.3,0c0,0,0,0,0,0l-0.2,0.2l-0.7-0.7c1-1.7,0.7-3.9-0.6-5.2
		c-0.8-0.8-1.8-1.2-2.8-1.2V4.8c0,0,0-0.1-0.1-0.1L8.2,0.2c0,0-0.1-0.1-0.1-0.1H1.7c-0.9,0-1.5,0.7-1.5,1.5v13.1
		c0,0.8,0.7,1.5,1.5,1.5H9c0.1,0.2,0.3,0.4,0.5,0.6c1.4,1.4,3.7,1.7,5.4,0.5l0.7,0.7l-0.2,0.2c0,0-0.1,0.1-0.1,0.1
		c0,0.1,0,0.1,0.1,0.1l2.7,2.7c0.3,0.3,0.7,0.3,1,0l1.1-1.1C20.4,20,20.4,19.6,20.1,19.3z M12,4.6H9.4c-0.6,0-1.1-0.5-1.1-1.1l0-2.6
		L12,4.6z M1.7,15.9c-0.6,0-1.1-0.5-1.1-1.1V1.7c0-0.6,0.5-1.1,1.1-1.1h6.1v2.9C7.9,4.3,8.6,5,9.4,5h2.9v4.6
		c-1.1,0.1-2.1,0.5-2.8,1.2c-0.3,0.3-0.5,0.5-0.7,0.9H1.9c-0.1,0-0.2,0.1-0.2,0.2c0,0,0,0,0,0c0,0.1,0.1,0.2,0.2,0.2h6.7
		c-0.6,1.2-0.5,2.6,0.1,3.8H1.7z M9.8,16.7c-1.5-1.5-1.5-4,0-5.5h0c1.5-1.5,4-1.5,5.5,0c1.5,1.5,1.5,3.9,0,5.5
		C13.8,18.2,11.3,18.2,9.8,16.7z M15.3,17.2c0,0,0.2-0.2,0.3-0.3c0.1-0.1,0.3-0.3,0.4-0.5l0.6,0.6c0,0-0.7,0.7-0.7,0.7L15.3,17.2z
		 M19.8,20L18.7,21c-0.1,0.1-0.3,0.1-0.4,0l-2.5-2.5c0.4-0.4,0.6-0.6,0.7-0.7c0,0,0,0,0,0c0,0,0,0,0,0c0,0,0,0,0,0c0,0,0,0,0,0
		c0,0,0,0,0,0c0,0,0,0,0,0c0,0,0,0,0,0c0,0,0,0,0,0l0,0c0,0,0,0,0,0c0.1-0.1,0.3-0.3,0.6-0.6l2.5,2.5C19.9,19.7,19.9,19.9,19.8,20z"
		/>
</g>
</svg>
