<svg id="Layer_1" data-name="Layer 1" xmlns="http://www.w3.org/2000/svg" viewBox="0 0 23.27 26.81"><defs><style>.cls-1{fill:#fff;}</style></defs><path class="cls-1" d="M9.24,26.37A.25.25,0,0,1,9,26.12V24a.24.24,0,0,1,.07-.18.25.25,0,0,1,.18-.08h1.89a.2.2,0,0,0,.2-.2v-1a.19.19,0,0,0-.19-.2,9,9,0,0,1-8.42-7.5.19.19,0,0,0-.19-.17H.61a.26.26,0,0,1-.26-.25V12.35a.26.26,0,0,1,.26-.25H2.53a.19.19,0,0,0,.19-.17,9,9,0,0,1,8.42-7.5.19.19,0,0,0,.19-.2v-1a.2.2,0,0,0-.2-.2H9.24A.26.26,0,0,1,9,2.8V.69A.25.25,0,0,1,9.24.44h4.69a.25.25,0,0,1,.25.25V2.8a.26.26,0,0,1-.25.26H12a.2.2,0,0,0-.2.2v1a.19.19,0,0,0,.19.2,9,9,0,0,1,8.42,7.5.19.19,0,0,0,.19.17h2a.25.25,0,0,1,.25.25v2.11a.25.25,0,0,1-.25.25h-2a.19.19,0,0,0-.19.17A9,9,0,0,1,12,22.38a.19.19,0,0,0-.19.2v1a.2.2,0,0,0,.2.2h1.89a.26.26,0,0,1,.25.26v2.11a.25.25,0,0,1-.25.25Zm.45-2.11a.2.2,0,0,0-.2.2v1.2a.2.2,0,0,0,.2.2h3.79a.2.2,0,0,0,.2-.2v-1.2a.2.2,0,0,0-.2-.2ZM3.44,14.71a.21.21,0,0,0-.15.07.21.21,0,0,0,0,.17,8.48,8.48,0,0,0,16.67,0,.21.21,0,0,0,0-.17.21.21,0,0,0-.15-.07H18a.25.25,0,0,1-.25-.25V12.35A.25.25,0,0,1,18,12.1h1.76a.21.21,0,0,0,.15-.07.21.21,0,0,0,0-.17,8.48,8.48,0,0,0-16.67,0,.21.21,0,0,0,0,.17.21.21,0,0,0,.15.07H5.1a.25.25,0,0,1,.25.25v2.11a.24.24,0,0,1-.25.25Zm15-2.11a.2.2,0,0,0-.2.2V14a.2.2,0,0,0,.2.2h3.79a.2.2,0,0,0,.2-.2V12.8a.2.2,0,0,0-.2-.2Zm-17.36,0a.2.2,0,0,0-.2.2V14a.2.2,0,0,0,.2.2H4.65a.2.2,0,0,0,.2-.2V12.8a.2.2,0,0,0-.2-.2ZM9.69.94a.2.2,0,0,0-.2.2V2.35a.2.2,0,0,0,.2.2h3.79a.2.2,0,0,0,.2-.2V1.14a.2.2,0,0,0-.2-.2Zm7.07,23.11a.2.2,0,0,1-.13,0l-.9-.52a.25.25,0,0,1-.16-.28l.11-1a.25.25,0,0,1,.44-.13.28.28,0,0,1,.06.18l0,.24a.2.2,0,0,0,.09.19.2.2,0,0,0,.11,0l.09,0a10.51,10.51,0,0,0,4.83-5.29.24.24,0,0,1,.23-.15c.15,0,.2.09.23.15a.31.31,0,0,1,0,.19,11,11,0,0,1-5,5.54.23.23,0,0,0-.11.17.22.22,0,0,0,.1.18l.2.11a.26.26,0,0,1,.12.15.25.25,0,0,1,0,.19A.23.23,0,0,1,16.76,24.05Zm-9.11-.42-.1,0a11,11,0,0,1-5.78-5.3.18.18,0,0,0-.16-.1h0a.22.22,0,0,0-.16.09l-.16.24a.26.26,0,0,1-.21.11.24.24,0,0,1-.14-.05.24.24,0,0,1-.07-.35l.61-.89a.26.26,0,0,1,.21-.11l1.07.19a.23.23,0,0,1,.16.1.26.26,0,0,1,.05.19.27.27,0,0,1-.25.21l-.26,0a.21.21,0,0,0-.16.08.22.22,0,0,0,0,.21,10.46,10.46,0,0,0,5.48,5,.25.25,0,0,1,.14.33A.25.25,0,0,1,7.65,23.63Zm3.68-4.86a.78.78,0,0,1-.78-.78c0-.23-.06-.31-.28-.37a1.7,1.7,0,0,1-.39-.14l-.43-.2a.33.33,0,0,0-.13,0,.32.32,0,0,0-.23.12.77.77,0,0,1-.57.25h0A.76.76,0,0,1,8,17.38L7.61,17a.77.77,0,0,1,0-1.1.3.3,0,0,0,.06-.45c0-.07-.09-.18-.17-.37a2.11,2.11,0,0,1-.13-.38c-.06-.2-.12-.28-.36-.28a.78.78,0,0,1-.79-.78v-.51A.78.78,0,0,1,7,12.37c.23,0,.31-.06.36-.28a3.44,3.44,0,0,1,.15-.4,4.09,4.09,0,0,1,.2-.42.29.29,0,0,0-.08-.36.77.77,0,0,1-.25-.57.75.75,0,0,1,.23-.55L8,9.43a.77.77,0,0,1,1.1,0,.35.35,0,0,0,.25.14.4.4,0,0,0,.21-.08l.36-.17a2.11,2.11,0,0,1,.38-.13c.2-.06.28-.12.28-.37A.78.78,0,0,1,11.33,8h.51a.78.78,0,0,1,.78.78c0,.25.08.31.27.36s.2.06.39.14a2.29,2.29,0,0,1,.35.17.47.47,0,0,0,.22.07.34.34,0,0,0,.25-.13l0,0a.78.78,0,0,1,.53-.21.76.76,0,0,1,.55.23l.36.36a.79.79,0,0,1,.23.56.77.77,0,0,1-.25.56.31.31,0,0,0-.08.37,4.08,4.08,0,0,1,.37.89.28.28,0,0,0,.29.2h0a.79.79,0,0,1,.83.78v.51a.78.78,0,0,1-.78.78h0c-.2,0-.27.08-.32.28a2.91,2.91,0,0,1-.15.39,3.36,3.36,0,0,1-.2.43.28.28,0,0,0,.08.36l0,0a.78.78,0,0,1,0,1.1l-.36.36a.76.76,0,0,1-.55.23.77.77,0,0,1-.57-.25.51.51,0,0,0-.23-.12.28.28,0,0,0-.13,0,4.16,4.16,0,0,1-.9.37.28.28,0,0,0-.2.32.79.79,0,0,1-.78.8Zm-2-2a1.05,1.05,0,0,1,.48.16l.27.13.29.1a1,1,0,0,1,.53.32.68.68,0,0,1,.15.47c0,.09,0,.35.28.35h.51c.27,0,.27-.26.28-.35a.68.68,0,0,1,.15-.47,1,1,0,0,1,.53-.32l.28-.1.28-.13a1.05,1.05,0,0,1,.48-.16H14a.75.75,0,0,1,.42.2s0,0,0,0a.4.4,0,0,0,.25.13.31.31,0,0,0,.19-.09l.36-.36a.27.27,0,0,0,0-.39.83.83,0,0,1-.27-.49.94.94,0,0,1,.14-.59l.14-.28.1-.29a1,1,0,0,1,.32-.53.82.82,0,0,1,.54-.15.46.46,0,0,0,.19-.08.27.27,0,0,0,.09-.2v-.51c0-.27-.26-.27-.35-.28a.68.68,0,0,1-.47-.15,1,1,0,0,1-.32-.53c0-.09-.06-.18-.1-.28a2.43,2.43,0,0,0-.14-.28,1,1,0,0,1-.14-.6.75.75,0,0,1,.2-.42l0,0a.36.36,0,0,0,.13-.25.3.3,0,0,0-.08-.19l-.36-.36a.33.33,0,0,0-.19-.08.26.26,0,0,0-.19.07.8.8,0,0,1-.5.28h-.12a1.16,1.16,0,0,1-.48-.15l-.28-.14-.28-.1a1,1,0,0,1-.53-.32.68.68,0,0,1-.15-.47c0-.09,0-.35-.28-.35h-.51c-.26,0-.28.27-.28.35a.71.71,0,0,1-.15.47,1,1,0,0,1-.53.32l-.29.1-.28.14a1,1,0,0,1-.47.15H9.21a.72.72,0,0,1-.44-.22.36.36,0,0,0-.26-.14.37.37,0,0,0-.19.09L8,10.15a.34.34,0,0,0-.09.19.37.37,0,0,0,.08.19.85.85,0,0,1,.28.5.93.93,0,0,1-.15.6L8,11.91c0,.1-.07.19-.1.28a1,1,0,0,1-.32.53.74.74,0,0,1-.47.15c-.09,0-.35,0-.35.28v.51c0,.27.26.27.35.28a.68.68,0,0,1,.47.15,1,1,0,0,1,.32.53l.1.29c0,.1.09.19.14.27a1,1,0,0,1,.14.6.72.72,0,0,1-.22.44.29.29,0,0,0,0,.44l.36.36a.33.33,0,0,0,.19.08h0A.37.37,0,0,0,8.77,17a.65.65,0,0,1,.44-.23Zm2.25-1.1a2.24,2.24,0,1,1,2.24-2.24A2.24,2.24,0,0,1,11.58,15.64Zm0-4a1.74,1.74,0,1,0,0,3.47,1.7,1.7,0,0,0,1.21-.51,1.73,1.73,0,0,0,0-2.45A1.7,1.7,0,0,0,11.6,11.67Zm8.83-2.21a.32.32,0,0,1-.17-.09.26.26,0,0,1,.2-.41l.3,0a.17.17,0,0,0,.16-.09.18.18,0,0,0,0-.2,10.48,10.48,0,0,0-5.22-4.91.26.26,0,0,1-.13-.34.25.25,0,0,1,.23-.15l.1,0a11,11,0,0,1,5.44,5.11.2.2,0,0,0,.18.11h0a.22.22,0,0,0,.18-.1l.1-.18A.26.26,0,0,1,22,8.13a.24.24,0,0,1,.12,0,.29.29,0,0,1,.12.15.27.27,0,0,1,0,.2l-.53.91a.26.26,0,0,1-.23.15ZM1.67,9.57l-.09,0a.26.26,0,0,1-.14-.13.23.23,0,0,1,0-.2,11,11,0,0,1,5.3-5.66.2.2,0,0,0,.11-.18.16.16,0,0,0-.1-.17l-.16-.1a.26.26,0,0,1-.1-.35.27.27,0,0,1,.22-.12.24.24,0,0,1,.12,0l.91.53a.23.23,0,0,1,.15.28l-.1,1a.25.25,0,0,1-.5-.06l0-.26A.22.22,0,0,0,7.23,4a.2.2,0,0,0-.11,0A.15.15,0,0,0,7,4,10.46,10.46,0,0,0,1.9,9.41.25.25,0,0,1,1.67,9.57Z"/></svg>