<svg id="Layer_1" data-name="Layer 1" xmlns="http://www.w3.org/2000/svg" viewBox="0 0 22.05 22.37"><defs><style>.cls-1{fill:#fff;}</style></defs><path class="cls-1" d="M10.77,7.71a.23.23,0,0,1-.23-.23.23.23,0,0,1,.23-.23.24.24,0,0,1,.23.23A.23.23,0,0,1,10.77,7.71Z"/><path class="cls-1" d="M10.77,9.44a.23.23,0,0,1-.23-.23A.23.23,0,0,1,10.77,9a.23.23,0,0,1,.23.23A.24.24,0,0,1,10.77,9.44Z"/><path class="cls-1" d="M11,3.41A.23.23,0,0,1,11,3h4.56a.23.23,0,0,1,0,.46Z"/><path class="cls-1" d="M11,5.13a.23.23,0,0,1,0-.46h4.56a.23.23,0,1,1,0,.46Z"/><path class="cls-1" d="M4.74,10.3A2.81,2.81,0,0,1,1.93,7.48a.23.23,0,0,1,.23-.23.24.24,0,0,1,.23.23A2.36,2.36,0,0,0,4.74,9.84a.23.23,0,0,1,.23.23A.23.23,0,0,1,4.74,10.3Z"/><path class="cls-1" d="M6.46,22a1.09,1.09,0,0,1-1.09-1.09V12.2a.3.3,0,0,0-.07-.15A.19.19,0,0,0,5.17,12l-.43,0A4.54,4.54,0,1,1,4.74,3l.41,0h0a.66.66,0,0,0,.15-.05.22.22,0,0,0,.06-.15V1.46A1.09,1.09,0,0,1,6.46.37h11l4.34,4.36.07.15v16A1.09,1.09,0,0,1,20.75,22ZM6.46.83a.63.63,0,0,0-.63.63V2.93A.19.19,0,0,0,6,3.12a4.54,4.54,0,0,1,0,8.73.19.19,0,0,0-.15.19v8.88a.63.63,0,0,0,.63.63H20.75a.64.64,0,0,0,.64-.63V5.33a.2.2,0,0,0-.2-.2H17.31a.23.23,0,0,1-.23-.23V1a.2.2,0,0,0-.2-.2ZM4.3,3.43a4.08,4.08,0,0,0,.44,8.13,4.36,4.36,0,0,0,.81-.08A4.08,4.08,0,0,0,8.79,7.94a.43.43,0,0,0,0-.16.21.21,0,0,0-.15-.07H4.74a.23.23,0,0,1-.23-.23V3.63a.51.51,0,0,0-.07-.15.19.19,0,0,0-.13,0Zm.87,0L5,3.48A.41.41,0,0,0,5,3.63V7.05a.2.2,0,0,0,.2.2H8.59a.39.39,0,0,0,.15-.06.24.24,0,0,0,0-.16A4.07,4.07,0,0,0,5.56,3.49l-.37-.06Zm12.49-2a.2.2,0,0,0-.12.19V4.47a.2.2,0,0,0,.2.2h2.84a.2.2,0,0,0,.14-.34L17.88,1.49a.35.35,0,0,0-.14-.06Z"/><path class="cls-1" d="M14.47,19.17a1.09,1.09,0,0,1-1.09-1.1,1.11,1.11,0,0,1,.12-.5.2.2,0,0,0,0-.21l-1.35-1.67a.35.35,0,0,0-.16-.08,1.42,1.42,0,0,1-.51.11,1,1,0,0,1-.46-.1h-.09a.15.15,0,0,0-.14.06L9.2,17.37a.2.2,0,0,0,0,.22,1,1,0,0,1,.12.48A1.1,1.1,0,1,1,8.18,17a1.19,1.19,0,0,1,.46.1h.09c.08,0,.12,0,.14-.05l1.58-1.7a.24.24,0,0,0,0-.23,1,1,0,0,1-.12-.48,1.1,1.1,0,1,1,2.07.5.2.2,0,0,0,0,.22L13.8,17a.35.35,0,0,0,.15.07,1.47,1.47,0,0,1,.52-.11,1.06,1.06,0,0,1,.31.05h.05A.22.22,0,0,0,15,17l3-3.21a.21.21,0,0,0,0-.25,1.09,1.09,0,0,1,.9-1.7,1.09,1.09,0,1,1,0,2.18,1.12,1.12,0,0,1-.31-.05h-.05a.2.2,0,0,0-.16.06l-3,3.21a.2.2,0,0,0,0,.24,1.07,1.07,0,0,1,.19.61A1.09,1.09,0,0,1,14.47,19.17Zm0-1.73a.64.64,0,0,0-.45.19.62.62,0,0,0-.18.44.63.63,0,0,0,1.26,0A.63.63,0,0,0,14.47,17.44Zm-6.29,0a.64.64,0,0,0-.63.63.63.63,0,0,0,.63.63.63.63,0,0,0,.63-.63.62.62,0,0,0-.18-.44A.64.64,0,0,0,8.18,17.44ZM11.46,14a.63.63,0,0,0-.63.63.59.59,0,0,0,.18.45.63.63,0,0,0,.45.18.67.67,0,0,0,.44-.18A.63.63,0,0,0,11.46,14Zm7.44-1.72a.63.63,0,0,0,0,1.26.63.63,0,0,0,0-1.26Z"/><path class="cls-1" d="M12.49,7.71a.23.23,0,0,1-.23-.23.23.23,0,0,1,.23-.23H19a.23.23,0,0,1,.23.23.23.23,0,0,1-.23.23Z"/><path class="cls-1" d="M12.49,9.44a.23.23,0,0,1-.23-.23A.23.23,0,0,1,12.49,9H19a.23.23,0,0,1,.23.23.23.23,0,0,1-.23.23Z"/></svg>