<svg width="33" height="32" viewBox="0 0 33 32" fill="none" xmlns="http://www.w3.org/2000/svg">
<g clip-path="url(#clip0_376_1683)">
<path d="M21.0399 13.7681C21.2517 13.7682 21.4555 13.8529 21.6053 14.0027C21.7548 14.1524 21.8388 14.3554 21.8389 14.567C21.8389 14.7789 21.755 14.9825 21.6053 15.1324C21.4555 15.2821 21.2517 15.3659 21.0399 15.366H6.57301C6.36122 15.366 6.1575 15.2821 6.00768 15.1324C5.85784 14.9825 5.77409 14.779 5.77409 14.567C5.77415 14.3553 5.85805 14.1525 6.00768 14.0027C6.1575 13.853 6.36121 13.7681 6.57301 13.7681H21.0399Z" fill="white"/>
<path d="M21.0399 7.36597C21.2516 7.36607 21.4555 7.44992 21.6053 7.59956C21.755 7.74938 21.8389 7.95307 21.8389 8.16489C21.8389 8.37668 21.755 8.58041 21.6053 8.73022C21.4556 8.87982 21.2516 8.9637 21.0399 8.96381H6.57301C6.36129 8.96381 6.15749 8.87982 6.00768 8.73022C5.85785 8.58044 5.77417 8.37674 5.77409 8.16489C5.77404 8.06019 5.79401 7.95642 5.83396 7.85965C5.87408 7.76272 5.93352 7.67375 6.00768 7.59956C6.08176 7.52557 6.17006 7.46689 6.26679 7.42682C6.36365 7.38677 6.46819 7.36593 6.57301 7.36597H21.0399Z" fill="white"/>
<path fill-rule="evenodd" clip-rule="evenodd" d="M23.3739 0C24.0749 0.000831203 24.7478 0.279723 25.2436 0.775364C25.6772 1.20907 25.9445 1.7781 26.0052 2.38302L26.019 2.64507V12.2517L27.1084 11.1623C27.1824 11.0881 27.2707 11.0288 27.3675 10.9886C27.4643 10.9485 27.5689 10.9278 27.6737 10.9277C27.7786 10.9278 27.8831 10.9484 27.98 10.9886C28.0769 11.0289 28.1659 11.088 28.24 11.1623L30.7291 13.6523C30.8781 13.8024 30.9621 14.0051 30.9617 14.2167C30.9613 14.4282 30.8768 14.6315 30.7271 14.781L30.7035 14.8055L26.019 19.4901V29.3559C26.018 30.0568 25.7391 30.729 25.2436 31.2246C24.7478 31.7203 24.0749 31.9992 23.3739 32H4.24005C3.53898 31.9992 2.86612 31.7203 2.37034 31.2246C1.93658 30.7909 1.66849 30.222 1.60773 29.617L1.59497 29.3549V2.64507C1.59577 1.94389 1.87452 1.27117 2.37034 0.775364C2.80407 0.341743 3.37303 0.0735017 3.97799 0.0127602L4.24005 0H23.3739ZM4.23906 1.59784C3.96193 1.59851 3.69604 1.70914 3.50001 1.90504C3.30396 2.10109 3.19348 2.36685 3.19281 2.64409V29.3559C3.19348 29.6332 3.30396 29.8989 3.50001 30.095C3.69604 30.2909 3.96193 30.4015 4.23906 30.4022H23.3739C23.651 30.4014 23.917 30.2909 24.1129 30.095C24.3089 29.8989 24.4195 29.6331 24.4201 29.3559V21.088L20.8505 24.6576C20.754 24.7544 20.6338 24.8249 20.5021 24.8617L20.0889 24.9776L20.1105 25.1356H21.0399C21.2516 25.1357 21.4556 25.2196 21.6053 25.3692C21.755 25.519 21.8388 25.7227 21.8389 25.9345C21.8389 26.1463 21.755 26.35 21.6053 26.4998C21.4555 26.6495 21.2517 26.7333 21.0399 26.7334H14.3375C14.1257 26.7334 13.922 26.6495 13.7721 26.4998C13.6223 26.35 13.5385 26.1464 13.5385 25.9345C13.5386 25.7226 13.6223 25.519 13.7721 25.3692C13.9219 25.2195 14.1257 25.1356 14.3375 25.1356H16.0256L16.0266 25.0561C16.0272 24.9858 16.0371 24.9157 16.056 24.848L16.8922 21.8692L16.9207 21.7671H6.57301C6.36121 21.7671 6.1575 21.6823 6.00768 21.5326C5.85789 21.3827 5.77409 21.1791 5.77409 20.9672C5.7742 20.7556 5.85803 20.5526 6.00768 20.4029C6.1575 20.2532 6.36121 20.1683 6.57301 20.1683H18.0072C18.0276 20.1683 18.0416 20.1685 18.0543 20.1703L18.0945 20.1762L18.122 20.1477L24.4201 13.8496V2.64409C24.4195 2.36694 24.3089 2.10107 24.1129 1.90504C23.9414 1.73355 23.7162 1.628 23.4769 1.60373L23.3739 1.59784H4.23906ZM18.5254 22.0056L18.5107 22.0214L18.5048 22.041L18.019 23.7733L17.9797 23.9107L18.1181 23.8724L19.8484 23.3856L19.8681 23.3797L19.8828 23.365L19.9564 23.2924L20.0133 23.2354L18.655 21.8761L18.5254 22.0056ZM19.8425 20.6885L19.7866 20.7454L21.145 22.1038L26.9995 16.2493L25.6401 14.8909L19.8425 20.6885ZM26.7698 13.7613L26.8267 13.8172L28.1291 15.1196L29.0321 14.2157L27.6737 12.8573L26.7698 13.7613Z" fill="white"/>
</g>
<defs>
<clipPath id="clip0_376_1683">
<rect width="32" height="32" fill="white" transform="translate(0.27832)"/>
</clipPath>
</defs>
</svg>
