<svg width="33" height="32" viewBox="0 0 33 32" fill="none" xmlns="http://www.w3.org/2000/svg">
<g clip-path="url(#clip0_376_1687)">
<path fill-rule="evenodd" clip-rule="evenodd" d="M22.5605 13.041C22.6656 13.0388 22.7703 13.0576 22.8682 13.0957C22.9659 13.1338 23.0551 13.1911 23.1309 13.2637C23.2066 13.3363 23.2674 13.4234 23.3096 13.5195C23.3517 13.6156 23.3747 13.7193 23.377 13.8242C23.3791 13.9291 23.3613 14.0341 23.3232 14.1318C23.2851 14.2295 23.2278 14.3189 23.1553 14.3945L15.2822 22.6064C15.138 22.7569 14.9397 22.8444 14.7314 22.8516C14.5233 22.8586 14.3202 22.7846 14.166 22.6445L10.4414 19.2578C10.2846 19.1152 10.1908 18.9158 10.1807 18.7041C10.1707 18.4924 10.2451 18.2848 10.3877 18.1279C10.5304 17.9711 10.7296 17.8773 10.9414 17.8672C11.1533 17.8571 11.3606 17.9316 11.5176 18.0742L14.666 20.9365L22 13.2871C22.0727 13.2114 22.1598 13.1506 22.2559 13.1084C22.352 13.0662 22.4556 13.0432 22.5605 13.041ZM14.4971 22.6514C14.5318 22.6634 14.5671 22.6738 14.6035 22.6797L14.7266 22.6875C14.6478 22.6902 14.5701 22.6767 14.4971 22.6514ZM10.3936 18.4229C10.3918 18.427 10.3903 18.4313 10.3887 18.4355C10.4016 18.4024 10.4172 18.3705 10.4355 18.3398L10.3936 18.4229Z" fill="white"/>
<path fill-rule="evenodd" clip-rule="evenodd" d="M16.7783 -0.165039C16.9017 -0.165039 17.0233 -0.135892 17.1338 -0.0810547C17.2443 -0.0261603 17.3414 0.0530586 17.416 0.151367L20.6436 4.40625H27.6143C27.7193 4.40624 27.8238 4.42758 27.9209 4.46777C28.0176 4.50792 28.1056 4.56659 28.1797 4.64062C28.2539 4.71488 28.3133 4.80339 28.3535 4.90039C28.3936 4.99726 28.414 5.10123 28.4141 5.20605V31.3652C28.414 31.4701 28.3936 31.574 28.3535 31.6709C28.3133 31.7679 28.2539 31.8564 28.1797 31.9307C28.1055 32.0048 28.0178 32.0644 27.9209 32.1045C27.8239 32.1447 27.7193 32.165 27.6143 32.165H5.94238C5.83756 32.165 5.73359 32.1445 5.63672 32.1045C5.53971 32.0643 5.45121 32.0049 5.37695 31.9307C5.30272 31.8564 5.24332 31.7679 5.20312 31.6709C5.16308 31.5741 5.14262 31.47 5.14258 31.3652V5.20605C5.14261 5.10128 5.1631 4.99722 5.20312 4.90039C5.2433 4.80339 5.30273 4.71488 5.37695 4.64062C5.4512 4.5664 5.53973 4.50796 5.63672 4.46777C5.7337 4.42762 5.83742 4.40626 5.94238 4.40625H12.9141L16.1416 0.151367C16.2161 0.0531895 16.3125 -0.026199 16.4229 -0.0810547C16.5333 -0.135922 16.655 -0.165009 16.7783 -0.165039ZM28.2012 31.6074C28.1693 31.6844 28.1224 31.7546 28.0635 31.8135C28.0045 31.8724 27.9344 31.9193 27.8574 31.9512C27.8959 31.9353 27.9324 31.9156 27.9668 31.8926L28.0635 31.8135C28.0929 31.784 28.1195 31.7523 28.1426 31.7178L28.2012 31.6074ZM6.74219 30.5654H26.8145V6.00586H21.8574L23.0029 7.5166C23.0928 7.63518 23.1481 7.77666 23.1621 7.9248C23.176 8.07292 23.1482 8.22222 23.082 8.35547C23.0158 8.48876 22.9136 8.60126 22.7871 8.67969C22.6607 8.75803 22.5149 8.79972 22.3662 8.7998H11.1914C11.0425 8.79979 10.8961 8.75811 10.7695 8.67969C10.6431 8.60127 10.5408 8.48867 10.4746 8.35547C10.4085 8.22226 10.3806 8.07286 10.3945 7.9248C10.4085 7.77668 10.4639 7.63518 10.5537 7.5166L11.6992 6.00586H6.74219V30.5654ZM12.8027 7.2002H20.7549L16.7783 1.95801L12.8027 7.2002Z" fill="white"/>
</g>
<defs>
<clipPath id="clip0_376_1687">
<rect width="32" height="32" fill="white" transform="translate(0.77832)"/>
</clipPath>
</defs>
</svg>
