<svg width="33" height="32" viewBox="0 0 33 32" fill="none" xmlns="http://www.w3.org/2000/svg">
<g clip-path="url(#clip0_376_1689)">
<path fill-rule="evenodd" clip-rule="evenodd" d="M18.4605 2.24322C19.5979 2.24322 20.5871 2.91857 21.2748 3.8048C21.9639 4.69295 22.3969 5.8485 22.3969 6.9232V8.28171H28.342C30.5128 8.28171 32.2783 10.0473 32.2783 12.2181V25.8204C32.2783 27.9912 30.5127 29.7568 28.342 29.7568H4.21468C2.0439 29.7568 0.27832 27.9912 0.27832 25.8204V12.2181C0.27832 10.0473 2.04394 8.28171 4.21468 8.28171H10.1578V6.92415C10.1579 5.84944 10.5917 4.69385 11.2809 3.80575C11.9686 2.91979 12.9571 2.24423 14.0942 2.24417L18.4605 2.24322ZM4.21468 9.83471C2.90081 9.83471 1.83132 10.9042 1.83132 12.2181V25.8204C1.83135 27.1343 2.90083 28.2028 4.21468 28.2028H28.342C29.6558 28.2028 30.7253 27.1343 30.7253 25.8204V12.2181C30.7253 10.9042 29.6558 9.83471 28.342 9.83471H4.21468ZM14.0942 3.79813C13.5028 3.79823 12.9122 4.18834 12.4487 4.82393C11.989 5.45449 11.7119 6.25392 11.7118 6.92415V8.28267H12.2609V7.86796C12.2611 6.10286 13.3821 4.49216 14.9532 4.49216H17.6025C18.3823 4.49231 19.0637 4.90432 19.5378 5.51892C20.0117 6.13323 20.2947 6.96541 20.2948 7.86796V8.28267H20.8439V6.92415C20.8438 6.25398 20.5666 5.45446 20.107 4.82393C19.6435 4.18826 19.052 3.79813 18.4605 3.79813H14.0942ZM14.9532 6.04516C14.7069 6.04517 14.4303 6.19852 14.1981 6.53518C13.9689 6.86765 13.8149 7.34132 13.8149 7.86796V8.28171H18.7408V7.86796C18.7408 7.34139 18.5867 6.86764 18.3576 6.53518C18.1254 6.19864 17.8487 6.04528 17.6025 6.04516H14.9532ZM13.812 3.43967C13.7315 3.45261 13.6521 3.47164 13.5737 3.49496C13.6971 3.45824 13.8235 3.43387 13.9522 3.42346L13.812 3.43967Z" fill="white"/>
<path d="M20.5742 18.9754C20.5742 16.6031 18.6507 14.6796 16.2784 14.6796C13.9061 14.6796 11.9826 16.6031 11.9826 18.9754C11.9826 21.3477 13.9061 23.2712 16.2784 23.2712V24.8327C13.0434 24.8327 10.421 22.2103 10.421 18.9754C10.421 15.7405 13.0434 13.118 16.2784 13.118C19.5133 13.118 22.1357 15.7405 22.1357 18.9754C22.1357 22.2103 19.5133 24.8327 16.2784 24.8327V23.2712C18.6507 23.2712 20.5742 21.3477 20.5742 18.9754Z" fill="white"/>
<path d="M18.8409 18.1946C19.2722 18.1946 19.6217 18.5441 19.6217 18.9754C19.6217 19.4067 19.2722 19.7562 18.8409 19.7562H13.7157C13.2844 19.7562 12.9349 19.4067 12.9349 18.9754C12.9349 18.5441 13.2844 18.1946 13.7157 18.1946H18.8409Z" fill="white"/>
</g>
<defs>
<clipPath id="clip0_376_1689">
<rect width="32" height="32" fill="white" transform="translate(0.27832)"/>
</clipPath>
</defs>
</svg>
