<svg width="33" height="32" viewBox="0 0 33 32" fill="none" xmlns="http://www.w3.org/2000/svg">
<g clip-path="url(#clip0_376_1691)">
<path d="M17.3184 28.1716C17.3184 28.3234 17.189 28.454 17.0342 28.454H13.4147C13.2591 28.4539 13.1314 28.3242 13.1314 28.1716V26.9225C13.1314 26.5567 12.8833 26.2377 12.5289 26.1471C11.5277 25.8912 10.5679 25.4927 9.67935 24.9651C9.36486 24.7786 8.96397 24.8291 8.70527 25.0875L7.82133 25.9714C7.71101 26.0816 7.52927 26.0799 7.42213 25.9723L4.86045 23.4106C4.76576 23.3163 4.75346 23.1643 4.82458 23.0556L4.86045 23.0124L5.74531 22.1275C6.00386 21.8687 6.05444 21.4671 5.86765 21.1525C5.3401 20.264 4.94159 19.305 4.68569 18.3038C4.59511 17.9494 4.27607 17.7014 3.91028 17.7014H2.66118C2.50962 17.7014 2.37904 17.5728 2.3788 17.4181V13.7977C2.37891 13.6421 2.50872 13.5144 2.66118 13.5144H3.91028L4.04458 13.5033C4.35215 13.4511 4.6064 13.2221 4.68569 12.9119C4.94159 11.9107 5.34004 10.9509 5.86765 10.0623C6.05411 9.74784 6.00364 9.34693 5.74531 9.08823L4.86137 8.20429C4.76493 8.10784 4.7537 7.95641 4.82458 7.84833L4.86045 7.8051L7.42213 5.24342C7.5293 5.13582 7.71102 5.13403 7.82133 5.24434L8.70435 6.12736L8.80829 6.21474C9.06277 6.39519 9.40399 6.41315 9.67935 6.24969C10.5679 5.72205 11.5277 5.32456 12.5289 5.06865C12.8833 4.97808 13.1313 4.65896 13.1314 4.29325V3.04414C13.1314 2.89162 13.2591 2.76181 13.4147 2.76176H17.0342C17.1891 2.76176 17.3184 2.89241 17.3184 3.04414V4.29325C17.3185 4.65884 17.5658 4.97796 17.92 5.06865C18.9211 5.32454 19.881 5.72211 20.7695 6.24969L20.891 6.30948C21.1822 6.42156 21.5181 6.35386 21.7445 6.12736L22.6276 5.24434L22.6294 5.24342C22.7372 5.13526 22.919 5.13522 23.0268 5.24342L25.5875 7.80418L25.5894 7.8051C25.6968 7.91232 25.6977 8.09412 25.5875 8.20429L24.7045 9.08823C24.4459 9.34698 24.3955 9.74772 24.5822 10.0623C25.1097 10.9509 25.5073 11.9107 25.7632 12.9119L25.8074 13.0398C25.9341 13.3245 26.2187 13.5142 26.5386 13.5144H27.7886C27.9409 13.5146 28.07 13.6422 28.0701 13.7977V17.4181C28.0699 17.5401 27.9879 17.6507 27.8723 17.6876C27.451 17.8218 27.2184 18.2716 27.3526 18.6929C27.4869 19.1142 27.9367 19.3468 28.358 19.2126C29.1158 18.9712 29.6713 18.26 29.6715 17.4181V13.7977C29.6714 12.7595 28.8268 11.9132 27.7886 11.913H27.1429C26.9159 11.1805 26.6214 10.4711 26.2636 9.79281L26.7198 9.33658C27.4539 8.60254 27.4549 7.40707 26.7189 6.67281L26.7198 6.67189L24.1609 4.11389C23.4273 3.3774 22.228 3.37648 21.4944 4.11296V4.11389L21.039 4.56919C20.3608 4.21136 19.6514 3.91692 18.9189 3.68985V3.04414C18.9189 2.00491 18.0702 1.16037 17.0342 1.16037H13.4147C12.3763 1.16042 11.53 2.00576 11.53 3.04414V3.68985C10.7973 3.91702 10.0874 4.21117 9.40893 4.56919L8.95362 4.11205C8.21959 3.37802 7.02323 3.37602 6.28892 4.11205L3.72908 6.67189V6.67281C2.9937 7.40712 2.99527 8.60276 3.72908 9.33658L4.18531 9.79281C3.82758 10.471 3.53392 11.1806 3.30689 11.913H2.66118C1.62292 11.913 0.778431 12.7593 0.77832 13.7977V17.4181C0.778556 18.4539 1.62218 19.3028 2.66118 19.3028H3.30689C3.53393 20.0351 3.82757 20.7448 4.18531 21.4229L3.72908 21.8792V21.8801C2.99443 22.6138 2.99424 23.8117 3.73 24.5448L6.28892 27.1037C7.0232 27.8396 8.21962 27.8376 8.95362 27.1037L9.40985 26.6475C10.088 27.0052 10.7977 27.2989 11.53 27.5259V28.1716C11.53 29.2099 12.3762 30.0544 13.4147 30.0545H17.0342C18.0703 30.0545 18.9189 29.2108 18.9189 28.1716V27.5277C19.5231 27.3403 20.1126 27.1074 20.6822 26.8305C21.0798 26.6372 21.2452 26.1575 21.0519 25.7598C20.8585 25.3625 20.3797 25.1969 19.9822 25.3901C19.322 25.711 18.631 25.9648 17.92 26.1471C17.5658 26.2379 17.3184 26.5569 17.3184 26.9225V28.1716Z" fill="white"/>
<path d="M18.7623 25.1256C20.1921 28.2815 23.9084 29.6808 27.0643 28.2512C28.0348 27.8115 28.8412 27.1529 29.4489 26.362C29.7181 26.0115 29.6525 25.5094 29.302 25.24C28.9514 24.9706 28.4486 25.0366 28.1792 25.3872C27.7274 25.9751 27.1282 26.4652 26.4038 26.7934C24.0535 27.858 21.285 26.8156 20.2201 24.4651C19.1555 22.1148 20.1975 19.3467 22.5476 18.2818C24.8979 17.217 27.6659 18.259 28.7309 20.6093C29.2228 21.695 29.2651 22.8691 28.9361 23.9264C28.8049 24.3484 29.0399 24.7968 29.4617 24.9283C29.8838 25.0596 30.333 24.8242 30.4645 24.4023C30.905 22.9864 30.8502 21.4066 30.1896 19.9484C28.7596 16.7927 25.0426 15.3934 21.8867 16.8231C18.7311 18.253 17.3328 21.9698 18.7623 25.1256Z" fill="white"/>
<path d="M18.2035 22.537C18.2035 26.0017 21.0111 28.8099 24.4757 28.8101C25.5412 28.8101 26.5475 28.543 27.4274 28.0733C27.8173 27.8651 27.9647 27.3807 27.7567 26.9907C27.5485 26.6007 27.0632 26.4532 26.6731 26.6614C26.019 27.0105 25.2709 27.2096 24.4757 27.2096C21.8955 27.2095 19.804 25.1174 19.804 22.537C19.8042 19.9568 21.8956 17.8654 24.4757 17.8653C27.056 17.8653 29.1472 19.9567 29.1474 22.537C29.1474 23.729 28.7015 24.8158 27.9655 25.6432C27.6718 25.9734 27.7008 26.4788 28.0308 26.7727C28.361 27.0665 28.8673 27.0375 29.1612 26.7074C30.1468 25.5995 30.7488 24.1379 30.7488 22.537C30.7486 19.0724 27.9404 16.2639 24.4757 16.2639C21.0112 16.264 18.2037 19.0725 18.2035 22.537Z" fill="white"/>
<path d="M24.1347 25.782C24.6321 25.7398 25.0671 25.5153 25.3893 25.1289L27.8259 22.2214L27.939 22.0714C28.4629 21.2999 28.3281 20.2405 27.5987 19.6293L27.5978 19.6284C26.8195 18.9789 25.6583 19.0806 25.0067 19.8584L23.7548 21.3503C22.9827 20.732 21.8494 20.8351 21.2041 21.5959L21.2023 21.5968C20.5495 22.37 20.643 23.5319 21.4175 24.1889L22.7881 25.3515L22.789 25.3524C23.1713 25.6756 23.6361 25.8243 24.1347 25.782ZM23.9995 24.1861C23.9258 24.1924 23.881 24.1799 23.8238 24.1318L23.8247 24.1309L22.4542 22.9673H22.4533C22.3547 22.8836 22.3413 22.7322 22.4247 22.6316C22.5093 22.5319 22.6633 22.52 22.7614 22.6031L23.3354 23.0897L23.3988 23.1384C23.5509 23.2432 23.7356 23.2931 23.9213 23.2773C24.1334 23.2592 24.3299 23.1571 24.4667 22.994L26.2337 20.8867C26.3166 20.7877 26.4693 20.7724 26.5713 20.8573C26.657 20.9298 26.679 21.0546 26.6264 21.1526L26.5988 21.193L24.1623 24.1006L24.1595 24.1033C24.1133 24.1588 24.0735 24.1798 23.9995 24.1861Z" fill="white"/>
</g>
<defs>
<clipPath id="clip0_376_1691">
<rect width="32" height="32" fill="white" transform="translate(0.77832)"/>
</clipPath>
</defs>
</svg>
