<svg width="40" height="40" viewBox="0 0 40 40" fill="none" xmlns="http://www.w3.org/2000/svg">
<path d="M28.2671 6.90024C29.6122 5.82454 31.5845 6.09242 32.593 7.49005L39.4502 16.9821C40.2326 18.066 40.1698 19.5351 39.3264 20.547L39.1475 20.7433C38.215 21.674 36.827 21.8297 35.7402 21.2615L32.9314 23.5086L33.3143 23.8915C34.4441 25.0217 34.4443 26.8543 33.3143 27.9844C32.5671 28.7315 31.5129 28.984 30.5577 28.7424C30.4355 29.2388 30.1815 29.7092 29.7938 30.097C28.8223 31.0667 27.3352 31.2041 26.2173 30.507C26.0762 30.8705 25.8612 31.213 25.5685 31.5058C24.5971 32.4753 23.1098 32.6127 21.9919 31.9158C21.8508 32.2793 21.6349 32.6218 21.3422 32.9146C20.3023 33.954 18.6701 34.0344 17.5345 33.1601C16.399 34.0339 14.7675 33.9538 13.7279 32.9146C13.1818 32.3685 12.9003 31.6581 12.8818 30.9431C12.1669 30.9246 11.4573 30.6428 10.9113 30.097C10.5235 29.7092 10.2687 29.2389 10.1465 28.7424C9.19256 28.9839 8.13689 28.7311 7.38988 27.9844C6.84375 27.4382 6.5622 26.7281 6.54384 26.0129C5.829 25.9944 5.11933 25.7135 4.57331 25.1678C3.54064 24.1351 3.45269 22.5171 4.30935 21.3824L4.21169 21.2847C3.20228 21.7901 1.94775 21.6798 1.03738 20.9135L0.852699 20.7433C-0.157823 19.7327 -0.284801 18.1383 0.550061 16.9821L7.40631 7.49005C8.41466 6.0921 10.3879 5.82449 11.7332 6.90024L11.8937 7.02884C13.0121 7.92457 13.3239 9.45628 12.7223 10.6963C13.1065 10.8233 13.5159 10.8616 13.9193 10.8046L16.6711 10.4101C17.5607 10.2831 18.469 10.4305 19.274 10.8336L19.3997 10.8955L19.5931 10.7417C20.592 9.94207 21.8897 9.61398 23.1483 9.8425L27.2267 10.5841C26.6963 9.36535 27.0212 7.89905 28.1056 7.02981L28.2671 6.90024ZM15.0661 31.9428C15.081 31.9527 15.0972 31.9607 15.1125 31.9699C15.0606 31.9387 15.0097 31.9047 14.9616 31.8655L15.0661 31.9428ZM17.2483 29.3931C16.8241 28.9674 16.1344 28.9668 15.7081 29.3931L15.0042 30.097C14.6049 30.4949 14.5794 31.1279 14.9288 31.5551L15.0042 31.6373L15.0873 31.7127C15.5159 32.0618 16.1469 32.037 16.5444 31.6383L17.2483 30.9334C17.6741 30.5092 17.6737 29.8176 17.2483 29.3931ZM19.2285 29.2597C19.5105 30.1217 19.3756 31.0889 18.8273 31.85C19.2321 32.0429 19.7321 31.9731 20.0659 31.6383C20.4859 31.2196 20.4912 30.5419 20.0833 30.1144L19.2285 29.2597ZM22.8128 30.5341C22.8341 30.5481 22.8566 30.5601 22.8786 30.5727C22.8197 30.5387 22.7624 30.5008 22.7084 30.4567L22.8128 30.5341ZM17.754 12.2124C17.482 12.1638 17.202 12.1568 16.9254 12.1959L16.9264 12.1969L14.1746 12.5914C13.3095 12.715 12.4276 12.576 11.6394 12.1979L5.53247 20.0529L5.58468 20.1051C6.71935 19.2496 8.3372 19.3372 9.37008 20.3701C9.66233 20.6624 9.87782 21.004 10.0189 21.3669C11.1355 20.6699 12.624 20.8085 13.5954 21.7779C13.8878 22.0704 14.1041 22.4125 14.2452 22.7757C15.363 22.0789 16.8493 22.2172 17.8207 23.1866C18.9503 24.3168 18.9516 26.1505 17.8217 27.2805L17.6042 27.4961C17.8874 27.6155 18.1558 27.7814 18.396 27.994C18.4092 27.7821 18.4955 27.5736 18.6571 27.412C19.0091 27.06 19.5824 27.0599 19.9344 27.412L22.7509 30.2295C23.1773 30.6552 23.8671 30.6549 24.2912 30.2295C24.717 29.8052 24.7167 29.1136 24.2912 28.6892L22.1785 26.5756C21.8268 26.2236 21.8267 25.6512 22.1785 25.2993C22.5304 24.9474 23.1028 24.9475 23.4548 25.2993L26.9763 28.8207C27.4026 29.2467 28.0924 29.2463 28.5165 28.8207C28.9422 28.3965 28.9428 27.7049 28.5175 27.2805L26.4039 25.1678C26.0519 24.8158 26.0519 24.2425 26.4039 23.8905C26.7558 23.5386 27.3292 23.5385 27.6811 23.8905L30.4977 26.7081C30.9241 27.1339 31.6139 27.1336 32.038 26.7081L32.1134 26.6249C32.4625 26.1979 32.4368 25.5656 32.038 25.1678L23.5873 16.7162L23.5825 16.7123C23.5682 16.6971 23.5547 16.6783 23.5399 16.661L23.4703 16.6436C22.7261 16.4575 21.9374 16.6077 21.3141 17.0526L19.83 18.1124C18.2461 19.2442 16.0762 19.0643 14.7015 17.6879C13.8007 16.789 13.8853 15.3089 14.8765 14.5136L17.754 12.2124ZM10.5526 29.2713C10.6152 29.3949 10.6882 29.5144 10.7711 29.629C10.8125 29.6863 10.8561 29.7427 10.9026 29.7973C10.9493 29.8521 10.9987 29.906 11.0505 29.9578C10.8439 29.7511 10.678 29.5184 10.5526 29.2713ZM24.4314 28.549C24.4628 28.5803 24.4919 28.6131 24.5194 28.6467C24.5743 28.7139 24.6223 28.7848 24.6615 28.8594C24.6025 28.7473 24.5258 28.6431 24.4314 28.549ZM16.5444 24.4629C16.1202 24.0373 15.4305 24.0367 15.0042 24.4629L12.1876 27.2805L12.1605 27.3066C11.7614 27.7345 11.7696 28.4051 12.1866 28.8207C12.613 29.2465 13.3038 29.2462 13.7279 28.8207L16.5444 26.0032C16.9697 25.579 16.9704 24.8882 16.5454 24.4639L16.5444 24.4629ZM16.3559 28.8807C16.2737 28.8885 16.192 28.9044 16.1122 28.928L16.2331 28.899C16.2738 28.8911 16.3147 28.8846 16.3559 28.8807ZM30.4068 28.492C30.6416 28.5711 30.8853 28.6176 31.1301 28.6302C31.3754 28.6429 31.6222 28.6225 31.863 28.5684C31.382 28.6765 30.877 28.6505 30.4068 28.492ZM33.6556 27.1925C33.5323 27.427 33.3713 27.6469 33.1741 27.8442C33.0805 27.9377 32.9822 28.0235 32.8792 28.1004C32.9822 28.0234 33.0815 27.9387 33.175 27.8451C33.3723 27.6478 33.5323 27.4271 33.6556 27.1925ZM26.3894 24.7946C26.4064 24.8367 26.4276 24.8776 26.4532 24.9164C26.479 24.9556 26.5096 24.9931 26.5441 25.0276L28.6567 27.1403C28.814 27.2971 28.9217 27.4846 28.9806 27.6837C29.0042 27.7632 29.0201 27.8444 29.028 27.9263C29.0005 27.639 28.877 27.3597 28.6567 27.1403L26.5441 25.0276C26.4753 24.9588 26.4237 24.8795 26.3894 24.7946ZM17.6805 27.1393L17.2425 27.5763L17.6815 27.1403L17.6805 27.1393ZM12.3191 23.0542C11.8948 22.6286 11.2051 22.6288 10.7788 23.0551L8.66618 25.1678C8.26703 25.5656 8.24162 26.1977 8.59076 26.6249L8.66618 26.7081L8.74933 26.7825C9.17792 27.1318 9.80883 27.107 10.2064 26.7081L10.8523 26.0631V26.0612L10.9113 26.0032L12.321 24.5954L12.3955 24.5122C12.7437 24.0837 12.7179 23.4519 12.3191 23.0542ZM32.1782 25.0266C32.2095 25.0579 32.2387 25.0916 32.2662 25.1252C32.3213 25.1927 32.3689 25.2641 32.4083 25.3389C32.3492 25.2266 32.2728 25.1209 32.1782 25.0266ZM27.042 23.8248C27.2225 23.8247 27.4026 23.8934 27.54 24.0307C27.4714 23.9622 27.3926 23.9104 27.3079 23.876C27.2229 23.8416 27.1325 23.8247 27.042 23.8248ZM15.7748 23.9456C15.9396 23.9457 16.1043 23.9774 16.2592 24.0404C16.3366 24.0719 16.4113 24.1112 16.4826 24.1584C16.5538 24.2056 16.6219 24.2608 16.6846 24.3237C16.716 24.355 16.7452 24.3877 16.7726 24.4214C16.8276 24.4886 16.8755 24.5595 16.9148 24.6341C16.8558 24.522 16.779 24.4178 16.6846 24.3237C16.4337 24.0719 16.1043 23.9456 15.7748 23.9456ZM8.09378 21.6464C7.66953 21.2206 6.97985 21.22 6.55351 21.6464L5.84865 22.3512C5.42325 22.7756 5.42312 23.4662 5.84865 23.8905C6.275 24.3165 6.96574 24.3161 7.38988 23.8905L8.09571 23.1866L8.17016 23.1044C8.49533 22.7046 8.49461 22.128 8.1692 21.7295L8.09378 21.6464ZM13.4552 21.9181C13.5813 22.0441 13.6929 22.1793 13.7888 22.3222C13.7249 22.2269 13.6543 22.1348 13.577 22.0467C13.5385 22.0027 13.4971 21.96 13.4552 21.9181ZM22.8254 11.6177C22.0786 11.4835 21.311 11.6769 20.7205 12.1495L16.0039 15.9223C15.8503 16.0463 15.8382 16.2748 15.9769 16.4126L15.9778 16.4135C16.7299 17.1649 17.9144 17.2636 18.7809 16.6456L20.2651 15.5839L20.4662 15.4486C21.4856 14.8024 22.7308 14.5971 23.9093 14.8926L27.9654 15.9069L28.0534 15.9339C28.4817 16.0894 28.7344 16.5464 28.621 16.9995L28.6219 17.0004C28.5096 17.4532 28.0698 17.7416 27.6173 17.6753L27.5274 17.657L26.9318 17.508L31.6483 22.2246L34.4272 19.9997L28.7457 12.6958L22.8254 11.6177ZM9.22988 20.5093C9.52404 20.8035 9.73631 21.1501 9.8661 21.5187L9.80615 21.3621C9.78417 21.3102 9.75996 21.2591 9.7346 21.2084C9.68412 21.1074 9.62734 21.0087 9.56346 20.9135C9.49956 20.8182 9.42901 20.726 9.35171 20.6379C9.31317 20.594 9.27175 20.5512 9.22988 20.5093ZM10.6058 8.30901C10.0639 7.87727 9.27349 7.98543 8.86826 8.5459L2.01394 18.0379C1.69608 18.4783 1.74516 19.0831 2.129 19.467L2.22086 19.5492C2.6935 19.9284 3.39933 19.8547 3.78142 19.3635L10.9664 10.1277L11.037 10.0272C11.3596 9.51147 11.2512 8.8265 10.7672 8.43954L10.7663 8.43857L10.6058 8.30901ZM31.132 8.5459C30.7265 7.98481 29.9355 7.87768 29.3954 8.30998L29.3945 8.31094L29.232 8.43954C28.7171 8.85266 28.6283 9.60422 29.0338 10.1277L36.2179 19.3635L36.2981 19.4563C36.7209 19.8915 37.4314 19.9074 37.8722 19.467C38.2556 19.0836 38.3033 18.4787 37.9853 18.0379L31.132 8.5459ZM38.1458 17.9219C38.1692 17.9543 38.1906 17.9877 38.2106 18.0215C38.2708 18.1231 38.3157 18.2303 38.346 18.3405L38.347 18.3396C38.3066 18.1928 38.2395 18.0516 38.1458 17.9219ZM21.873 16.5373C21.6356 16.6236 21.4086 16.7416 21.1991 16.8912C21.2409 16.8613 21.2835 16.8335 21.3267 16.8061C21.4998 16.6963 21.683 16.6065 21.873 16.5373ZM26.2878 17.1435L27.5757 17.4655L27.5748 17.4645L26.2869 17.1426L26.2878 17.1435ZM28.795 10.1316C28.8199 10.1715 28.8468 10.2106 28.8762 10.2486C28.8173 10.1725 28.7675 10.092 28.7264 10.0088L28.795 10.1316ZM28.6007 9.62012C28.6156 9.7088 28.639 9.7966 28.6712 9.88215L28.6297 9.75162C28.6178 9.7078 28.6081 9.66456 28.6007 9.62012ZM28.6123 9.08543C28.6028 9.12917 28.5963 9.17348 28.591 9.21789L28.6123 9.08543C28.6217 9.04182 28.6336 8.99849 28.6471 8.95586L28.6123 9.08543ZM10.89 8.28484C11.0404 8.40493 11.16 8.54935 11.2468 8.70834L11.1753 8.59134C11.0981 8.47801 11.0028 8.37485 10.89 8.28484ZM9.13416 8.04021C9.05268 8.08814 8.97577 8.14528 8.90403 8.21039L9.01523 8.1195C9.05382 8.0911 9.09329 8.06427 9.13416 8.04021ZM12.1451 7.54419C12.1623 7.56421 12.1778 7.58567 12.1944 7.60608C12.1241 7.51977 12.0498 7.43544 11.9681 7.35662L12.1451 7.54419ZM30.2521 6.43903C30.0665 6.43218 29.8799 6.44383 29.6952 6.47384C29.6028 6.48887 29.5107 6.50841 29.4196 6.53282C29.2377 6.58153 29.0592 6.6492 28.8869 6.73587C28.8436 6.75762 28.8007 6.78036 28.7583 6.80452C28.6429 6.87024 28.5316 6.94601 28.4237 7.02981C28.967 6.608 29.6153 6.4156 30.2521 6.43903ZM11.1134 6.73587C11.1996 6.77925 11.284 6.82788 11.3667 6.8809L11.241 6.80452C11.1989 6.7805 11.1564 6.7575 11.1134 6.73587Z" fill="white"/>
</svg>
