<svg width="40" height="40" viewBox="0 0 40 40" fill="none" xmlns="http://www.w3.org/2000/svg">
<g clip-path="url(#clip0_376_1672)">
<path d="M17.2744 0C15.7792 0 14.5472 1.23209 14.5472 2.72727V4.63068C12.5769 5.3308 10.7879 6.39121 9.24884 7.74148L7.58693 6.80398C6.28415 6.07525 4.60924 6.5365 3.87956 7.84091L1.20911 12.5995C0.474654 13.9123 0.952972 15.5898 2.2602 16.3211L3.92215 17.2586C3.77015 18.1535 3.63806 19.0619 3.63806 20C3.63806 20.9372 3.77047 21.8332 3.92215 22.7273L2.2602 23.6648C0.952972 24.396 0.474654 26.0735 1.20911 27.3864L3.87956 32.1449C4.6092 33.4493 6.28415 33.9105 7.58693 33.1818L9.24884 32.2585C10.7865 33.6064 12.5795 34.6558 14.5472 35.3551V37.2727C14.5472 38.7679 15.7792 40 17.2744 40H22.729C24.2242 40 25.4562 38.7679 25.4562 37.2727V35.3551C27.4192 34.656 29.2057 33.6034 30.7403 32.2585L32.4023 33.1818C33.705 33.9105 35.3942 33.4493 36.1238 32.1449C37.0276 30.4779 37.986 28.7973 38.7943 27.3864C39.5287 26.0735 39.0362 24.396 37.729 23.6648L36.067 22.7273C36.2188 21.8331 36.3653 20.9373 36.3653 20C36.3653 19.0617 36.2191 18.1536 36.067 17.2586L37.729 16.3211C39.0362 15.5898 39.5287 13.9123 38.7943 12.5995C37.8412 10.9579 36.8931 9.24079 36.1238 7.84091C35.3942 6.53649 33.705 6.07527 32.4023 6.80398L30.7403 7.72727C29.2057 6.38262 27.4191 5.32965 25.4562 4.63068V2.72727C25.4562 1.23209 24.2242 0 22.729 0H17.2744ZM17.2744 1.81818H22.729C23.2483 1.81818 23.6381 2.20792 23.6381 2.72727V5.22727C23.6381 5.61138 23.9105 5.97969 24.2773 6.09375C26.4617 6.76414 28.4157 7.93419 30.0301 9.47443C30.312 9.74164 30.7732 9.79625 31.1097 9.60227L33.2972 8.38068C33.7526 8.12592 34.2792 8.28205 34.5329 8.7358L37.2034 13.4943C37.4525 13.9396 37.2849 14.4921 36.8341 14.7443L34.6608 15.9659C34.3276 16.1551 34.1406 16.5713 34.2205 16.9461C34.4306 17.9303 34.5472 18.952 34.5472 20C34.5472 21.048 34.4306 22.0555 34.2205 23.0398C34.1406 23.4145 34.3276 23.8307 34.6608 24.0199L36.8341 25.2414C37.2849 25.4937 37.4525 26.0462 37.2034 26.4915L34.5329 31.25C34.2792 31.7037 33.7526 31.8599 33.2972 31.6051L31.1097 30.3835C30.7732 30.1896 30.312 30.2441 30.0301 30.5114C28.4157 32.0516 26.4617 33.2217 24.2773 33.892C23.9059 34.0075 23.6327 34.3839 23.6381 34.7727V37.2727C23.6381 37.792 23.2483 38.1818 22.729 38.1818H17.2744C16.7551 38.1818 16.3653 37.792 16.3653 37.2727V34.7727C16.3699 34.3804 16.0884 34.0024 15.7119 33.892C13.5275 33.2217 11.5736 32.0516 9.95911 30.5114C9.6772 30.2441 9.21602 30.1896 8.87956 30.3835L6.69202 31.6051C6.23665 31.8599 5.72425 31.7037 5.47047 31.25C4.51734 29.6085 3.56924 27.8914 2.80002 26.4915C2.55088 26.0462 2.7042 25.4937 3.15511 25.2414L5.32838 24.0199C5.66161 23.8307 5.84856 23.4145 5.76874 23.0398C5.55861 22.0555 5.45624 21.048 5.45624 20C5.45624 18.952 5.55861 17.9303 5.76874 16.9461C5.84856 16.5713 5.66165 16.1551 5.32838 15.9659L3.15511 14.7443C2.7042 14.4921 2.55088 13.9396 2.80002 13.4943C3.7037 11.8273 4.66206 10.1467 5.47047 8.7358C5.72425 8.28205 6.23665 8.12593 6.69202 8.38068L8.87956 9.60227C9.21602 9.79625 9.6772 9.74164 9.95911 9.47443C11.5735 7.93419 13.5275 6.76414 15.7119 6.09375C16.0839 5.98471 16.3627 5.6149 16.3653 5.22727V2.72727C16.3653 2.20792 16.7551 1.81818 17.2744 1.81818ZM20.0017 10.9091C14.9917 10.9091 10.9108 14.9899 10.9108 20C10.9108 25.01 14.9917 29.0909 20.0017 29.0909C25.0117 29.0909 29.0926 25.01 29.0926 20C29.0926 14.9899 25.0117 10.9091 20.0017 10.9091ZM20.0017 12.7273C24.0291 12.7273 27.2744 15.9726 27.2744 20C27.2744 24.0274 24.0291 27.2727 20.0017 27.2727C15.9743 27.2727 12.729 24.0274 12.729 20C12.729 15.9725 15.9743 12.7273 20.0017 12.7273Z" fill="white"/>
</g>
<defs>
<clipPath id="clip0_376_1672">
<rect width="40" height="40" fill="white"/>
</clipPath>
</defs>
</svg>
