<svg width="40" height="40" viewBox="0 0 40 40" fill="none" xmlns="http://www.w3.org/2000/svg">
<g clip-path="url(#clip0_376_1674)">
<path fill-rule="evenodd" clip-rule="evenodd" d="M27.511 11.6861C28.223 11.6862 28.9389 11.9578 29.4844 12.5032L29.5228 12.5416C30.041 13.0817 30.3035 13.7804 30.3035 14.4766C30.3035 15.1903 30.0321 15.9062 29.4863 16.4499L17.8834 28.0547C17.5394 28.3986 16.9819 28.3986 16.6379 28.0547L10.5114 21.9282C9.9654 21.3845 9.69426 20.6678 9.69426 19.9539C9.69437 19.2419 9.96601 18.526 10.5114 17.9806L10.5134 17.9787C11.0587 17.4333 11.7723 17.1616 12.4867 17.1615C13.2004 17.1615 13.9163 17.433 14.4601 17.9787L17.2592 20.7798C19.1314 18.9154 21.0512 17.0666 22.8624 15.1757L25.5425 12.4956L25.5511 12.4879L25.5857 12.4581C26.1243 11.9447 26.8179 11.6861 27.511 11.6861ZM27.511 13.4472C27.2552 13.4472 27.0019 13.5396 26.8052 13.7228L26.7937 13.7372L17.8834 22.6475C17.5394 22.9911 16.9818 22.9912 16.6379 22.6475L13.2146 19.2232C13.0163 19.0233 12.7527 18.9226 12.4867 18.9226C12.2223 18.9227 11.958 19.0246 11.7559 19.2251C11.5557 19.4259 11.4555 19.6887 11.4554 19.9539C11.4554 20.1867 11.5327 20.4172 11.6859 20.604L11.7559 20.6818L17.2602 26.1851L28.2418 15.2035C28.4416 15.0052 28.5423 14.7425 28.5424 14.4766C28.5424 14.2209 28.4464 13.9659 28.261 13.7689L28.2485 13.7583L28.238 13.7477C28.0397 13.548 27.7769 13.4473 27.511 13.4472ZM16.9596 22.4804C16.9899 22.5004 17.0218 22.517 17.0547 22.5303C16.9892 22.5037 16.9273 22.4635 16.8742 22.4103L16.9596 22.4804ZM13.6304 17.777C13.6951 17.811 13.7585 17.8482 13.8205 17.8884C13.69 17.8039 13.5536 17.7324 13.4124 17.6752L13.6304 17.777Z" fill="white"/>
<path fill-rule="evenodd" clip-rule="evenodd" d="M14.824 0.684283C19.5022 -0.569743 24.6349 -0.132135 29.2261 2.262L30.0884 0.767827C30.1644 0.634144 30.2745 0.521894 30.412 0.441336L30.4149 0.439416C30.8345 0.1989 31.3705 0.343095 31.6123 0.763025L35.2613 7.07485C37.973 10.2753 39.5459 14.164 39.9138 18.1698C40.2827 22.1748 39.4444 26.2971 37.3384 29.9599L37.3394 29.9609L37.3202 29.9954L37.3182 29.9983C34.5576 34.7794 30.1183 37.9919 25.1766 39.3158C20.498 40.5699 15.3651 40.132 10.7736 37.7371L9.91032 39.2332L9.90936 39.2322C9.83337 39.3657 9.72411 39.4783 9.58671 39.5587L9.58479 39.5606C9.16477 39.8016 8.627 39.657 8.38542 39.2361L4.74601 32.9319C2.0297 29.7285 0.453929 25.8345 0.0858379 21.8293C-0.28299 17.8103 0.561266 13.6756 2.68144 10.0017C5.44409 5.21867 9.88313 2.00825 14.824 0.684283ZM9.21317 39.3388C9.17826 39.3431 9.14317 39.3442 9.1085 39.3417C9.17814 39.3468 9.24928 39.3384 9.31783 39.3158L9.21317 39.3388ZM11.0761 37.5201C11.2205 37.5939 11.3656 37.6653 11.5111 37.7352C12.6746 38.2941 13.8702 38.7282 15.0814 39.0421L14.6281 38.9182C13.4213 38.5742 12.2322 38.1093 11.077 37.5191L10.6449 37.2925L11.0761 37.5201ZM32.4103 10.1967C34.1844 12.4419 35.2853 15.0917 35.6656 17.8423C36.1291 21.2109 35.5093 24.7337 33.7288 27.8473C33.7162 27.8724 33.6985 27.9032 33.6759 27.9376L33.6769 27.9386C31.4925 31.7016 27.9907 34.2289 24.0954 35.2731C20.1997 36.3172 15.9039 35.8794 12.1324 33.7146V33.7126C11.8502 33.5674 11.6532 33.2735 11.6532 32.931C11.6532 32.7547 11.7054 32.5885 11.7982 32.448L12.311 31.5607H5.98187L6.20561 31.9496H6.20369C6.2195 31.9738 6.233 31.9952 6.24114 32.011L9.14499 37.04L9.67889 36.1162C9.7798 35.9407 9.93263 35.813 10.1062 35.7417V35.6745H10.4404C10.6186 35.6745 10.7818 35.7277 10.9196 35.8166C15.2704 38.3146 20.2248 38.8201 24.7205 37.6171L25.1411 37.499C29.469 36.2281 33.3368 33.3588 35.777 29.1504C35.788 29.1292 35.8023 29.1054 35.8193 29.0793C37.7367 25.7393 38.4967 21.9819 38.1613 18.3311C37.8984 15.4721 36.9597 12.6783 35.3775 10.1967H32.4103ZM27.1144 33.7491C26.1232 34.2607 25.0813 34.663 24.0089 34.9504C24.2473 34.8865 24.4844 34.8172 24.7195 34.742C24.9547 34.6668 25.1881 34.5855 25.4196 34.4991C25.9978 34.2833 26.564 34.0333 27.1144 33.7491ZM15.5164 34.8169C15.6384 34.854 15.7607 34.8896 15.8832 34.9235C15.7604 34.8895 15.6377 34.8531 15.5154 34.816L15.5164 34.8169ZM23.0804 34.0497C22.115 34.2619 21.1269 34.3753 20.1324 34.3858C21.2373 34.3741 22.3343 34.2357 23.4011 33.9757L23.0804 34.0497ZM26.2483 7.40711C23.0827 5.83178 19.5714 5.561 16.3595 6.42091C12.8968 7.34849 9.78922 9.59149 7.84863 12.9286L7.84671 12.9267C7.83174 12.9564 7.81788 12.9821 7.80734 12.9987L7.8083 12.9997C6.31358 15.6023 5.73527 18.5219 6.00876 21.3482L6.07502 21.9129L6.16144 22.4641C6.64227 25.1694 7.91707 27.7378 9.9228 29.7986L14.1633 29.7976V29.8658C14.1985 29.8803 14.2333 29.8973 14.267 29.9167C14.6878 30.1584 14.8316 30.6962 14.5907 31.1161L13.7408 32.5834C16.9089 34.1613 20.4231 34.4315 23.6335 33.5715C27.1088 32.6396 30.2268 30.3863 32.1674 27.0263L32.1693 27.0225C33.772 24.2443 34.3288 21.0943 33.916 18.0795C33.5175 15.1704 32.2108 12.3891 30.0711 10.1928H26.1955V10.1909C26.0328 10.1971 25.8702 10.1607 25.723 10.0757L25.7221 10.0747C25.3039 9.83116 25.158 9.2939 25.4032 8.87247L26.2483 7.40711ZM24.0531 33.801C25.1572 33.4765 26.2228 33.0199 27.2249 32.4393C27.0243 32.5555 26.8215 32.6674 26.6161 32.7735C26.2053 32.9857 25.785 33.1773 25.3572 33.3487C24.8224 33.5629 24.2756 33.7451 23.7199 33.8941L24.0531 33.801ZM12.6471 33.6185C12.7627 33.6811 12.8791 33.7417 12.9957 33.801C12.7618 33.682 12.5296 33.5566 12.2995 33.4246L12.6471 33.6185ZM4.0671 31.5242C4.21706 31.7314 4.37114 31.9365 4.52995 32.1388L4.29564 31.8334C4.21838 31.7309 4.14215 31.6279 4.0671 31.5242ZM29.1214 4.20654C24.7603 1.68964 19.7892 1.17659 15.2792 2.38587C10.7952 3.58823 6.7687 6.48874 4.24859 10.8055L4.20346 10.8833C2.26917 14.2364 1.50013 18.0065 1.83544 21.6719C2.09841 24.531 3.03551 27.3223 4.61925 29.8034H7.58936C5.81334 27.556 4.71235 24.9058 4.33405 22.153C3.86972 18.7696 4.49821 15.229 6.30548 12.098L6.30644 12.0951L6.33429 12.0481C8.5209 8.29289 12.0159 5.77097 15.9081 4.727L16.2759 4.6329C19.9214 3.74917 23.8877 4.15528 27.4342 6.04641V5.98783L27.9547 6.33641C28.3513 6.60215 28.465 7.13461 28.2082 7.5377L28.2091 7.53866L27.6877 8.44035L34.0159 8.43939L33.7787 8.02744L33.7768 8.0236L33.7652 8.00343L30.8537 2.95915L30.3208 3.88389L30.3198 3.88293C30.0782 4.30337 29.5421 4.448 29.1224 4.2075L29.1214 4.20654ZM6.41015 24.7351C6.59857 25.2768 6.81921 25.8087 7.07273 26.3272C6.98826 26.1545 6.90803 25.9804 6.83075 25.8048C6.67605 25.4533 6.53581 25.0965 6.41015 24.7351ZM5.74373 21.958C5.79548 22.3355 5.86191 22.711 5.94346 23.0834L5.83303 22.5227C5.79968 22.335 5.76961 22.1468 5.74373 21.958ZM23.1745 5.95806C23.3941 6.00778 23.6131 6.06281 23.8313 6.12323C24.7039 6.36483 25.5642 6.69271 26.401 7.10942C25.3547 6.5883 24.2724 6.20661 23.1745 5.95806ZM24.8789 5.30988C25.0012 5.35061 25.1232 5.39269 25.2448 5.43664L24.8789 5.30988C24.7569 5.26922 24.6356 5.23019 24.5131 5.19273L24.8789 5.30988ZM20.4147 4.52535C20.6642 4.53186 20.9139 4.54506 21.1637 4.56376L20.7892 4.53975C20.6643 4.53346 20.5395 4.52861 20.4147 4.52535ZM28.9245 2.48094C29.0688 2.55462 29.2126 2.62998 29.3557 2.70756C29.0691 2.55221 28.7804 2.40459 28.4895 2.26488L28.9245 2.48094Z" fill="white"/>
</g>
<defs>
<clipPath id="clip0_376_1674">
<rect width="40" height="40" fill="white"/>
</clipPath>
</defs>
</svg>
