<svg width="40" height="40" viewBox="0 0 40 40" fill="none" xmlns="http://www.w3.org/2000/svg">
<g clip-path="url(#clip0_376_1676)">
<path fill-rule="evenodd" clip-rule="evenodd" d="M20.2601 0.433243C24.5824 0.433366 28.7282 2.15011 31.7845 5.20645C34.6194 8.04133 36.2993 11.8136 36.5284 15.7944C37.4094 15.8834 38.2379 16.2742 38.8696 16.9058C39.5925 17.6287 39.9989 18.6098 40 19.632V26.124C39.9989 27.1461 39.5922 28.1265 38.8696 28.8493C38.1467 29.5722 37.1656 29.9786 36.1434 29.9797H34.3083C34.0379 30.6788 33.499 31.7841 32.4836 32.931C31.5294 34.0087 30.3469 34.9113 28.9722 35.6146C27.475 36.3794 25.746 36.905 23.8254 37.1887C23.6956 37.7423 23.4181 38.2553 23.009 38.6643C22.4313 39.2421 21.6476 39.5668 20.8305 39.5668H19.6878C18.8708 39.5667 18.0871 39.2421 17.5093 38.6643C16.9316 38.0866 16.6069 37.3029 16.6069 36.4858C16.6069 35.6688 16.9316 34.8851 17.5093 34.3073C18.0871 33.7296 18.8708 33.4049 19.6878 33.4049H20.8305L20.9838 33.4087C21.7451 33.4466 22.4675 33.7658 23.009 34.3073C23.2913 34.5896 23.5104 34.9214 23.6627 35.2807C29.1458 34.4355 31.3728 31.597 32.2159 29.9797H30.3647C30.1113 29.9796 29.8683 29.8787 29.6893 29.6997C29.5104 29.5207 29.4093 29.2778 29.4093 29.0243V16.7318C29.4093 16.4784 29.51 16.2347 29.6893 16.0554C29.8682 15.8765 30.1113 15.7755 30.3647 15.7754H30.9265C30.4567 10.4859 26.1328 6.28792 20.787 6.02753L20.2601 6.01523C14.674 6.01523 10.078 10.3131 9.59277 15.7754H9.63723C9.89074 15.7755 10.1337 15.8766 10.3126 16.0554C10.4919 16.2347 10.5926 16.4784 10.5926 16.7318V29.0243L10.5879 29.1179C10.5789 29.2112 10.5561 29.3037 10.5198 29.3913C10.4712 29.5082 10.3997 29.6129 10.3117 29.7006C10.2232 29.7888 10.1173 29.8597 10.0005 29.9078C9.88396 29.9556 9.75914 29.979 9.63439 29.9787L3.85943 29.9797C2.83687 29.9795 1.85588 29.5738 1.13229 28.8512C0.408671 28.1283 0.00109461 27.1469 0 26.124V19.632C0.0010615 18.6098 0.407509 17.6287 1.1304 16.9058C1.85314 16.1832 2.83362 15.7766 3.85565 15.7754H3.99186C4.22517 11.8016 5.90443 8.03683 8.73481 5.20645C11.7913 2.14999 15.9377 0.433243 20.2601 0.433243ZM19.6878 35.3157C19.3779 35.3157 19.0807 35.4395 18.8611 35.6591C18.6418 35.8785 18.5187 36.1756 18.5187 36.4858L18.5243 36.6012C18.5509 36.8691 18.6691 37.1206 18.8611 37.3126C19.0804 37.5319 19.3776 37.655 19.6878 37.655H20.8305L20.9459 37.6493C21.2138 37.6228 21.4653 37.5046 21.6573 37.3126C21.8769 37.093 22.0007 36.7958 22.0007 36.4858C22.0007 36.1759 21.8769 35.8787 21.6573 35.6591C21.4651 35.4669 21.2135 35.3481 20.9459 35.3214L20.8305 35.3157H19.6878ZM3.85943 17.6872C3.3434 17.6873 2.84831 17.8921 2.48309 18.2566C2.11808 18.6211 1.91275 19.1159 1.91174 19.632V26.124L1.9212 26.316C1.96611 26.7608 2.1633 27.1786 2.48215 27.4975C2.84667 27.862 3.34044 28.0677 3.85565 28.0689H5.42402V17.6872H3.85943ZM7.33671 28.0689H8.679V17.6872H7.33955L7.33671 28.0689ZM31.321 28.0689H32.6633V17.6872H31.321V28.0689ZM34.576 28.0689H36.1434L36.3354 28.0594C36.7804 28.0144 37.1988 27.8166 37.5179 27.4975C37.8366 27.1786 38.0339 26.7608 38.0788 26.316L38.0883 26.124V19.632C38.0872 19.1164 37.8823 18.622 37.5179 18.2576C37.1989 17.9387 36.7806 17.7415 36.3354 17.6966L36.1434 17.6872H34.576V28.0689ZM19.9149 2.34972C16.3539 2.43511 12.9459 3.83963 10.3561 6.29712C7.73253 8.78692 6.14586 12.1715 5.9055 15.7754H7.66968C8.15971 9.2573 13.6173 4.10443 20.2601 4.10443C26.9028 4.10468 32.3596 9.25746 32.8496 15.7754H34.6138C34.3735 12.1715 32.7868 8.78692 30.1632 6.29712C27.49 3.76041 23.9453 2.34605 20.2601 2.34593L19.9149 2.34972Z" fill="white"/>
</g>
<defs>
<clipPath id="clip0_376_1676">
<rect width="40" height="40" fill="white"/>
</clipPath>
</defs>
</svg>
