<svg width="40" height="40" viewBox="0 0 40 40" fill="none" xmlns="http://www.w3.org/2000/svg">
<path d="M5.12564 19.1457C5.3161 19.142 5.5028 19.2026 5.65521 19.3169L11.0898 23.3964C11.2709 23.5323 11.391 23.7351 11.4231 23.9592C11.4549 24.1832 11.3967 24.4114 11.261 24.5924C11.1251 24.7735 10.9222 24.8926 10.6982 24.9247C10.5022 24.9527 10.3033 24.9115 10.1354 24.8099L10.0649 24.7626L5.85153 21.5973L6.25022 23.2655C6.92072 26.0751 8.43327 28.6138 10.5854 30.5405C12.7375 32.4669 15.427 33.6905 18.2933 34.0471C21.1597 34.4036 24.0669 33.8764 26.6254 32.5359C29.1839 31.1954 31.2712 29.1051 32.6097 26.5456L32.6108 26.5466C32.7161 26.3465 32.8962 26.196 33.1121 26.1288C33.3283 26.0615 33.5631 26.0829 33.7635 26.1882L33.7726 26.1932L33.7826 26.1982C33.8846 26.2474 33.9763 26.3159 34.0515 26.4006C34.1265 26.4853 34.184 26.5845 34.2206 26.6916C34.2571 26.7988 34.2716 26.9128 34.2639 27.0258C34.2562 27.1367 34.2274 27.2453 34.1783 27.345C32.6946 30.2266 30.3639 32.5852 27.5003 34.1035C24.6368 35.6217 21.3771 36.227 18.1594 35.8382C14.9418 35.4492 11.9204 34.0845 9.50111 31.9278C7.08184 29.7711 5.37976 26.9259 4.62527 23.7739L4.32223 22.5064L1.54452 26.1489L1.54251 26.1509C1.40519 26.3324 1.2011 26.4519 0.975692 26.4832C0.750443 26.5143 0.52187 26.4551 0.340414 26.318C0.158921 26.1808 0.0395623 25.9766 0.00817619 25.7512C-0.0230304 25.5264 0.0358204 25.2983 0.172281 25.117L4.17121 19.8595L4.20343 19.7528C4.25582 19.5799 4.36228 19.4279 4.50647 19.3189C4.64812 19.2119 4.8195 19.1518 4.99677 19.1467H5.11356L5.12564 19.1457Z" fill="white"/>
<path d="M12.5033 5.89651C15.3668 4.37832 18.6266 3.77297 21.8442 4.16182C25.062 4.55076 28.0842 5.91538 30.5036 8.07216C32.9228 10.2289 34.624 13.075 35.3784 16.2271L35.6814 17.4946L38.4602 13.8521C38.5973 13.6722 38.7998 13.5533 39.0239 13.5229C39.2479 13.4925 39.4751 13.5524 39.6552 13.689L39.6582 13.692C39.8392 13.8278 39.9594 14.0298 39.9915 14.2538C40.0232 14.4766 39.9656 14.7034 39.8314 14.884L35.8325 20.1414L35.8002 20.2482C35.7478 20.4211 35.6414 20.5732 35.4972 20.6821C35.3531 20.7908 35.1783 20.8511 34.9978 20.8542H34.8609C34.6762 20.8542 34.4953 20.7939 34.3475 20.6831L28.9139 16.6046C28.7328 16.4688 28.6137 16.2659 28.5816 16.0418C28.5496 15.8177 28.6079 15.5897 28.7437 15.4086C28.8795 15.2276 29.0815 15.1074 29.3055 15.0753C29.5295 15.0434 29.7577 15.1018 29.9388 15.2374L34.1099 18.443L33.7102 16.7506C33.045 13.9355 31.5345 11.3908 29.382 9.4585C27.2294 7.52623 24.5373 6.29845 21.667 5.9398C18.7966 5.5812 15.8848 6.10858 13.3229 7.45198C10.761 8.79541 8.67083 10.8903 7.33351 13.4554L7.32848 13.4665C7.27791 13.5684 7.20724 13.66 7.12108 13.7343C7.03491 13.8086 6.93435 13.8653 6.82609 13.9004C6.71793 13.9354 6.60312 13.9483 6.48983 13.9387C6.37667 13.9289 6.26621 13.8968 6.16565 13.844C6.06512 13.7912 5.97612 13.7182 5.90388 13.6306C5.83161 13.5427 5.77736 13.4406 5.74481 13.3316C5.71234 13.2227 5.70137 13.1083 5.7136 12.9953C5.72592 12.8824 5.76118 12.7725 5.81629 12.6731L5.82133 12.6641L5.82535 12.655C7.30906 9.77339 9.63976 7.41479 12.5033 5.89651Z" fill="white"/>
<path d="M22.9275 14.5695C23.247 14.1888 23.8146 14.1398 24.1954 14.4592C24.5761 14.7787 24.6264 15.3462 24.307 15.727L16.1648 25.4304C15.8453 25.8112 15.277 25.8609 14.8963 25.5414C14.5155 25.2219 14.4658 24.6537 14.7853 24.2729L22.9275 14.5695Z" fill="white"/>
<path d="M16.1638 14.5694C15.8443 14.1888 15.2767 14.1397 14.8959 14.4592C14.5152 14.7787 14.4649 15.3462 14.7843 15.727L22.9265 25.4304C23.246 25.8112 23.8143 25.8609 24.195 25.5414C24.5758 25.2219 24.6255 24.6537 24.306 24.2729L16.1638 14.5694Z" fill="white"/>
</svg>
