<?xml version="1.0" encoding="UTF-8"?>
<svg version="1.1" xmlns="http://www.w3.org/2000/svg" width="32" height="32">
<path d="M0 0 C10.56 0 21.12 0 32 0 C32 10.56 32 21.12 32 32 C21.44 32 10.88 32 0 32 C0 21.44 0 10.88 0 0 Z " fill="#FDFCFC" transform="translate(0,0)"/>
<path d="M0 0 C0 0.99 0 1.98 0 3 C0.598125 3.268125 1.19625 3.53625 1.8125 3.8125 C4.14126747 5.07668805 5.49243283 5.8140276 7 8 C7.1875 11.6875 7.1875 11.6875 7 15 C7.99 15.33 8.98 15.66 10 16 C9.67 16.99 9.34 17.98 9 19 C7.824375 19.12375 7.824375 19.12375 6.625 19.25 C3.85250896 19.72806339 3.85250896 19.72806339 2.6875 22.0625 C2.460625 22.701875 2.23375 23.34125 2 24 C1.01 24 0.02 24 -1 24 C-1.33 24.99 -1.66 25.98 -2 27 C-2.99 26.67 -3.98 26.34 -5 26 C-5 25.34 -5 24.68 -5 24 C-5.598125 23.896875 -6.19625 23.79375 -6.8125 23.6875 C-9.33391022 22.89505679 -10.19465768 21.88056492 -12 20 C-14.09989652 18.82425289 -14.09989652 18.82425289 -16 18 C-15.505 16.515 -15.505 16.515 -15 15 C-14.34 15 -13.68 15 -13 15 C-13.103125 13.948125 -13.20625 12.89625 -13.3125 11.8125 C-13 8 -13 8 -10.625 5.0625 C-8 3 -8 3 -6 3 C-6 2.01 -6 1.02 -6 0 C-3.50907189 -1.24546405 -2.58919267 -0.7767578 0 0 Z " fill="#FAF5F7" transform="translate(19,3)"/>
<path d="M0 0 C0.66 0 1.32 0 2 0 C2 1.32 2 2.64 2 4 C2.99 4.33 3.98 4.66 5 5 C4.67 5.99 4.34 6.98 4 8 C2.824375 8.12375 2.824375 8.12375 1.625 8.25 C-1.14749104 8.72806339 -1.14749104 8.72806339 -2.3125 11.0625 C-2.6528125 12.0215625 -2.6528125 12.0215625 -3 13 C-3.99 13 -4.98 13 -6 13 C-6.33 13.99 -6.66 14.98 -7 16 C-7.99 15.67 -8.98 15.34 -10 15 C-10 14.34 -10 13.68 -10 13 C-10.639375 12.87625 -11.27875 12.7525 -11.9375 12.625 C-12.618125 12.41875 -13.29875 12.2125 -14 12 C-14.33 11.34 -14.66 10.68 -15 10 C-12.43532873 9.21087038 -10.65877645 9.02089124 -7.9375 9.1875 C-4.94878364 9.31471875 -4.94878364 9.31471875 -3.25 7.3125 C-1.96008976 4.92616606 -0.92104116 2.55057552 0 0 Z " fill="#9175FE" transform="translate(24,14)"/>
<path d="M0 0 C0 0.99 0 1.98 0 3 C0.598125 3.268125 1.19625 3.53625 1.8125 3.8125 C3.99847854 4.99917406 5.41332594 6.09599113 7 8 C7 8.66 7 9.32 7 10 C2.25 9.25 2.25 9.25 0 7 C-4.26472726 6.50670415 -4.26472726 6.50670415 -7.875 8.5 C-8.24625 8.995 -8.6175 9.49 -9 10 C-9.99 9.67 -10.98 9.34 -12 9 C-10.95125002 6.37812506 -10.35068687 5.20628639 -7.875 3.75 C-7.25625 3.5025 -6.6375 3.255 -6 3 C-6 2.01 -6 1.02 -6 0 C-3.50907189 -1.24546405 -2.58919267 -0.7767578 0 0 Z " fill="#EA2D71" transform="translate(19,3)"/>
<path d="M0 0 C0.66 0 1.32 0 2 0 C2 1.32 2 2.64 2 4 C2.99 4.33 3.98 4.66 5 5 C4.67 5.99 4.34 6.98 4 8 C0.4375 9.1875 0.4375 9.1875 -3 10 C-3.33 9.34 -3.66 8.68 -4 8 C-3.22265625 6.0546875 -3.22265625 6.0546875 -2.0625 3.875 C-1.49208984 2.78832031 -1.49208984 2.78832031 -0.91015625 1.6796875 C-0.60980469 1.12539062 -0.30945313 0.57109375 0 0 Z " fill="#77CEC4" transform="translate(24,14)"/>
<path d="M0 0 C3 1 3 1 4.1875 3.375 C5 6 5 6 5 9 C2.69 8.67 0.38 8.34 -2 8 C-2 6.68 -2 5.36 -2 4 C-1.34 4 -0.68 4 0 4 C0 2.68 0 1.36 0 0 Z " fill="#E1CF6D" transform="translate(6,14)"/>
<path d="M0 0 C0 0.99 0 1.98 0 3 C0.66 3.33 1.32 3.66 2 4 C-4.625 5.25 -4.625 5.25 -8 3 C-7.34 3 -6.68 3 -6 3 C-6 2.01 -6 1.02 -6 0 C-3.50907189 -1.24546405 -2.58919267 -0.7767578 0 0 Z " fill="#F174A0" transform="translate(19,3)"/>
<path d="M0 0 C1.67542976 0.28604898 3.34385343 0.61781233 5 1 C3.35 2.65 1.7 4.3 0 6 C-0.99 5.67 -1.98 5.34 -3 5 C-1.125 1.125 -1.125 1.125 0 0 Z " fill="#E91D66" transform="translate(10,7)"/>
<path d="M0 0 C0.99 0.33 1.98 0.66 3 1 C3.33 3.31 3.66 5.62 4 8 C3.34 8 2.68 8 2 8 C0.74335022 5.09399739 0 3.20395416 0 0 Z " fill="#D2B621" transform="translate(6,14)"/>
<path d="M0 0 C0.66 0 1.32 0 2 0 C1 4 1 4 0 8 C-0.66 8 -1.32 8 -2 8 C-1.125 1.125 -1.125 1.125 0 0 Z " fill="#1BB799" transform="translate(24,14)"/>
</svg>
