<svg width="32" height="32" viewBox="0 0 32 32" fill="none" xmlns="http://www.w3.org/2000/svg">
<g clip-path="url(#clip0_469_2042)">
<path fill-rule="evenodd" clip-rule="evenodd" d="M22.8617 2.98862C23.887 2.7756 24.9458 2.7756 25.9712 2.98862C26.1332 3.02318 26.2797 3.1126 26.384 3.24131C26.4882 3.37004 26.5449 3.53094 26.5451 3.69656V5.27543L27.66 4.16048C27.7775 4.0432 27.9318 3.96928 28.0969 3.95215C28.2209 3.9393 28.3454 3.95924 28.4586 4.00809L28.5676 4.06596C29.4424 4.64036 30.1893 5.38996 30.7618 6.26597C30.8527 6.40501 30.8937 6.57144 30.8766 6.73664C30.8594 6.90173 30.7856 7.05616 30.6683 7.17356L29.5591 8.28273H31.1312C31.297 8.28281 31.4576 8.34051 31.5865 8.44476C31.7153 8.54906 31.8046 8.69453 31.8392 8.8566C31.9459 9.35833 32.0002 9.88415 32.0002 10.4172C32.0002 10.947 31.9459 11.4713 31.8392 11.9729C31.8046 12.1349 31.7152 12.2804 31.5865 12.3847C31.4576 12.489 31.297 12.5457 31.1312 12.5458H29.5581L30.6683 13.6559C30.7855 13.7734 30.8584 13.9278 30.8756 14.0928C30.8928 14.258 30.8525 14.4244 30.7618 14.5635C30.2611 15.3303 29.6268 15.9999 28.8897 16.5398L28.5676 16.7626C28.4285 16.8535 28.2622 16.8945 28.0969 16.8773C27.9318 16.8602 27.7775 16.7864 27.66 16.669L26.5451 15.5541V17.132C26.545 17.2976 26.4882 17.4584 26.384 17.5872C26.2797 17.716 26.1342 17.8053 25.9722 17.8399H25.9702C25.6963 17.8956 25.4191 17.9346 25.1408 17.9585V22.6537C25.1399 23.4651 24.8165 24.2433 24.2428 24.8171C23.669 25.3908 22.8909 25.7141 22.0795 25.715H21.0474V28.4465C21.0476 28.5897 21.0054 28.7305 20.9259 28.8496C20.8465 28.9686 20.733 29.0609 20.6009 29.1158C20.4686 29.1707 20.3228 29.1851 20.1823 29.1573C20.0418 29.1294 19.9123 29.0608 19.811 28.9596L16.5625 25.715H2.86383V25.7063C2.12461 25.6578 1.42525 25.3439 0.898189 24.8171C0.32454 24.2433 0.00117926 23.465 0.000244141 22.6537V12.7483C0.000405093 11.0631 1.37432 9.69282 3.06155 9.69282H16.877C16.9014 9.41131 16.9353 9.13012 16.9937 8.8566C17.0282 8.69449 17.1166 8.54814 17.2454 8.4438C17.3743 8.33946 17.5358 8.28275 17.7016 8.28273H19.2747L18.1646 7.17259C18.0473 7.05509 17.9734 6.90081 17.9562 6.73568C17.9392 6.57061 17.9794 6.404 18.07 6.26501C18.6425 5.38909 19.3896 4.64034 20.2643 4.06596C20.4033 3.97494 20.5706 3.93404 20.7359 3.95118C20.9008 3.96834 21.0546 4.04234 21.1719 4.15951L22.2868 5.2735V3.69656C22.287 3.53091 22.3446 3.37006 22.4489 3.24131C22.5532 3.11256 22.6995 3.02312 22.8617 2.98862ZM17.0631 24.5055C17.127 24.5319 17.1859 24.5714 17.2348 24.6203C17.2104 24.5959 17.1833 24.5728 17.1547 24.5538L17.0631 24.5055ZM3.06155 11.1425C2.6348 11.1423 2.22471 11.3119 1.92248 11.6131C1.65817 11.8767 1.49518 12.223 1.4576 12.5911L1.44891 12.7503V22.6556C1.44941 23.0831 1.61932 23.4934 1.92152 23.7957C2.22382 24.098 2.63403 24.2678 3.06155 24.2683H16.8615C16.9567 24.268 17.0514 24.2869 17.1393 24.3232C17.2266 24.3594 17.3058 24.4128 17.3727 24.4795L19.5988 26.7007V24.9916C19.5989 24.7998 19.6753 24.6152 19.811 24.4795C19.9468 24.3439 20.1312 24.2673 20.3231 24.2673H22.0795C22.507 24.2668 22.9172 24.097 23.2195 23.7947C23.5214 23.4925 23.6915 23.0828 23.6921 22.6556V17.9634C23.4132 17.9385 23.1358 17.8989 22.8617 17.8418C22.6995 17.8073 22.5532 17.7179 22.4489 17.5891C22.3445 17.4602 22.2868 17.2988 22.2868 17.1329V15.556L21.1728 16.67C21.0554 16.7873 20.901 16.8611 20.7359 16.8783C20.5707 16.8954 20.4044 16.8552 20.2652 16.7645C19.3905 16.1903 18.6423 15.4415 18.07 14.5654C17.9793 14.4265 17.9392 14.2599 17.9562 14.0948C17.9734 13.9296 18.0471 13.7743 18.1646 13.6569L19.2737 12.5477H17.7016C17.5357 12.5477 17.3743 12.4901 17.2454 12.3857C17.1168 12.2813 17.0281 12.1359 16.9937 11.9738C16.9456 11.7487 16.9118 11.5194 16.8857 11.292L16.8702 11.1425H3.06155ZM19.9508 24.6193L19.8852 24.6994C19.8689 24.7238 19.8548 24.7499 19.8428 24.7765C19.8687 24.7187 19.9051 24.665 19.9508 24.6193ZM20.3231 24.465L20.2199 24.4756C20.1909 24.4814 20.1626 24.4902 20.135 24.5007C20.1946 24.4779 20.2582 24.465 20.3231 24.465ZM0.247155 23.1803C0.248307 23.1864 0.24982 23.1925 0.251013 23.1986C0.234144 23.1121 0.221276 23.0245 0.212433 22.9363L0.247155 23.1803ZM28.4596 16.5976L28.7345 16.4086C28.7411 16.4038 28.7471 16.398 28.7538 16.3932C28.6573 16.4634 28.5596 16.532 28.4596 16.5976ZM25.0964 4.31866C24.6439 4.26907 24.188 4.26906 23.7355 4.31866V5.79337C23.7355 5.94901 23.6855 6.10148 23.5927 6.22643C23.4999 6.35119 23.3693 6.44294 23.2204 6.4878C22.9654 6.56448 22.7187 6.66742 22.4884 6.79258C22.3513 6.86741 22.1935 6.89588 22.0389 6.8736C21.9227 6.85682 21.813 6.81155 21.7187 6.74339L21.63 6.66816L20.5874 5.62555C20.2326 5.91053 19.9105 6.23329 19.6267 6.58908L20.6655 7.62784C20.7759 7.73831 20.8476 7.88221 20.87 8.03678C20.8922 8.19128 20.8635 8.34911 20.789 8.48624C20.6641 8.7156 20.5624 8.96239 20.4851 9.21829C20.3925 9.52364 20.1101 9.73236 19.7907 9.73236H18.3189C18.3019 9.8861 18.2896 10.0424 18.2842 10.2001L18.2803 10.4181C18.28 10.6452 18.2931 10.8725 18.3179 11.0981H19.7907C19.9461 11.098 20.0979 11.1483 20.2228 11.2408C20.3164 11.3103 20.3921 11.4014 20.4427 11.5051L20.4851 11.6131C20.5611 11.8666 20.6635 12.1127 20.7899 12.3452C20.8646 12.4823 20.8922 12.6401 20.87 12.7946C20.8477 12.9492 20.7759 13.0931 20.6655 13.2036L19.6267 14.2414C19.9104 14.5972 20.2316 14.9208 20.5864 15.2059L21.63 14.1633C21.7405 14.0529 21.8843 13.9811 22.0389 13.9588C22.1935 13.9365 22.3512 13.9652 22.4884 14.0398L22.6649 14.1295C22.8442 14.2151 23.03 14.2873 23.2204 14.3446C23.5255 14.4373 23.7354 14.7189 23.7355 15.038V16.5128C24.188 16.562 24.6439 16.562 25.0964 16.5128V15.038C25.0965 14.8826 25.1465 14.7308 25.2391 14.606C25.3318 14.4812 25.4627 14.3896 25.6114 14.3446C25.8665 14.2679 26.113 14.1648 26.3425 14.0398C26.4797 13.9651 26.6383 13.9365 26.7929 13.9588C26.9473 13.9811 27.0905 14.053 27.2009 14.1633L28.2435 15.2059C28.5983 14.9208 28.9203 14.5981 29.2042 14.2423L28.1654 13.2036C28.0551 13.0931 27.9832 12.9492 27.9609 12.7946C27.9388 12.6401 27.9674 12.4823 28.042 12.3452C28.167 12.1155 28.2701 11.8692 28.3467 11.6141C28.3916 11.4652 28.4833 11.3346 28.6081 11.2418C28.733 11.149 28.8846 11.0981 29.0402 11.0981H30.513C30.5375 10.8749 30.5506 10.6475 30.5506 10.4181C30.5506 10.1861 30.5376 9.95674 30.513 9.73236H29.0402C28.8847 9.7324 28.733 9.68231 28.6081 9.58962C28.4836 9.49699 28.3917 9.36687 28.3467 9.21829C28.27 8.96322 28.167 8.71573 28.042 8.48624C27.9674 8.34914 27.9387 8.19126 27.9609 8.03678C27.9833 7.8823 28.0551 7.73828 28.1654 7.62784L29.2042 6.58908C28.9202 6.23321 28.5985 5.90973 28.2435 5.62458L27.2009 6.66816C27.0905 6.77873 26.9476 6.85122 26.7929 6.8736C26.6382 6.89594 26.4798 6.86752 26.3425 6.79258C26.1123 6.66749 25.8664 6.56445 25.6114 6.4878C25.3064 6.39507 25.0966 6.11345 25.0964 5.79433V4.31866ZM29.3334 14.4015C29.241 14.5157 29.145 14.6268 29.045 14.7342C29.195 14.5731 29.3366 14.405 29.4694 14.2288L29.4684 14.2279C29.4243 14.2865 29.3795 14.3445 29.3334 14.4015ZM23.1635 14.5336C23.2167 14.5497 23.2661 14.5737 23.3101 14.604C23.2891 14.5895 23.2669 14.5759 23.2436 14.5645L23.1635 14.5336ZM18.1925 14.3764C18.2046 14.4045 18.2191 14.4316 18.2359 14.4574L18.1935 14.3783L18.1925 14.3764ZM30.5969 14.4555L30.6297 14.3967C30.6311 14.3937 30.6312 14.39 30.6326 14.387C30.6219 14.4104 30.6111 14.4338 30.5969 14.4555ZM21.9849 14.1729C21.9618 14.1801 21.9393 14.1896 21.9174 14.1999C21.9645 14.1777 22.0148 14.1621 22.0669 14.1546L21.9849 14.1729ZM26.764 14.1546C26.8161 14.1621 26.8665 14.1778 26.9135 14.1999C26.8919 14.1897 26.8698 14.1801 26.847 14.1729L26.764 14.1546ZM30.6799 14.1131L30.6683 14.0465C30.667 14.0413 30.6649 14.0363 30.6635 14.0311C30.6707 14.0579 30.6769 14.0852 30.6799 14.1131ZM28.2156 12.4397L28.3101 12.2555C28.3211 12.2324 28.3303 12.2084 28.341 12.1851C28.3016 12.2715 28.2606 12.3569 28.2156 12.4397ZM31.6463 11.9314L31.6993 11.6556C31.7029 11.6344 31.7055 11.6131 31.709 11.5919C31.6905 11.7061 31.6701 11.8194 31.6463 11.9314ZM20.2961 11.671L20.2739 11.6122C20.2728 11.6095 20.2713 11.6071 20.2701 11.6044C20.2799 11.626 20.2892 11.6481 20.2961 11.671ZM20.2961 9.16138C20.2795 9.21606 20.2534 9.26687 20.2218 9.31184C20.2375 9.28962 20.2521 9.26524 20.2643 9.24047L20.2961 9.16138ZM20.4369 8.76594C20.4271 8.78951 20.4183 8.81352 20.4089 8.83731C20.4438 8.74877 20.481 8.66119 20.5218 8.57593L20.4369 8.76594ZM31.1312 8.48141C31.1897 8.48145 31.2474 8.49066 31.302 8.50938C31.2753 8.50019 31.2479 8.49295 31.22 8.48817L31.1312 8.48141ZM17.5463 8.5036C17.5424 8.50478 17.5386 8.50618 17.5348 8.50746C17.5599 8.49906 17.5857 8.49269 17.6119 8.48817L17.5463 8.5036ZM28.1567 8.21232C28.1571 8.2152 28.1573 8.21813 28.1577 8.221C28.154 8.19741 28.1523 8.17357 28.1519 8.14963L28.1567 8.21232ZM30.5284 7.03371L30.5728 6.98355C30.5756 6.97988 30.5778 6.97572 30.5805 6.97198C30.5647 6.99366 30.5476 7.01452 30.5284 7.03371ZM30.6799 6.71639L30.6827 6.64887C30.6826 6.64467 30.681 6.64053 30.6808 6.63634C30.6821 6.66287 30.6826 6.68969 30.6799 6.71639ZM18.2359 6.37303L18.1935 6.45212C18.1833 6.47582 18.1751 6.50057 18.1684 6.52542C18.1827 6.47203 18.2053 6.42 18.2359 6.37303ZM22.7691 6.43958C22.7483 6.44822 22.7279 6.45761 22.7073 6.46658C22.7915 6.4299 22.8771 6.3954 22.9639 6.36435L22.7691 6.43958ZM23.2957 6.23607C23.2547 6.26245 23.2108 6.28451 23.1635 6.29876L23.2233 6.27754C23.2489 6.26627 23.2724 6.25119 23.2957 6.23607ZM20.3733 4.23089L20.0598 4.44886C19.9658 4.51773 19.8735 4.58892 19.783 4.66202C19.9721 4.5092 20.1692 4.36487 20.3733 4.23089C20.3986 4.21429 20.4249 4.20034 20.4524 4.18845L20.3733 4.23089ZM22.5231 3.50076C22.5216 3.50464 22.5198 3.50843 22.5183 3.51234C22.5276 3.48743 22.539 3.46329 22.5521 3.44L22.5231 3.50076ZM20.6163 8.39172L20.6433 8.33481C20.6456 8.32895 20.646 8.32241 20.6481 8.31649C20.639 8.34208 20.6294 8.36762 20.6163 8.39172Z" fill="white"/>
<path d="M14.2034 15.4795C14.6176 15.4795 14.9534 15.8153 14.9534 16.2295C14.9534 16.6437 14.6176 16.9795 14.2034 16.9795H3.76587C3.35166 16.9795 3.01587 16.6437 3.01587 16.2295C3.01587 15.8153 3.35166 15.4795 3.76587 15.4795H14.2034Z" fill="white"/>
<path d="M19.8127 19.4482C20.227 19.4482 20.5627 19.784 20.5627 20.1982C20.5627 20.6125 20.227 20.9482 19.8127 20.9482H3.76587C3.35166 20.9482 3.01587 20.6125 3.01587 20.1982C3.01587 19.784 3.35166 19.4482 3.76587 19.4482H19.8127Z" fill="white"/>
</g>
<defs>
<clipPath id="clip0_469_2042">
<rect width="32" height="32" fill="white" transform="translate(0.000244141)"/>
</clipPath>
</defs>
</svg>
