<svg width="33" height="32" viewBox="0 0 33 32" fill="none" xmlns="http://www.w3.org/2000/svg">
<g clip-path="url(#clip0_469_2044)">
<path fill-rule="evenodd" clip-rule="evenodd" d="M16.2783 4.06349C21.1788 4.06349 25.1672 8.05188 25.1672 12.9524C25.1672 17.8529 21.1788 21.8413 16.2783 21.8413C11.3778 21.8413 7.38943 17.8529 7.38943 12.9524C7.38943 8.05188 11.3778 4.06349 16.2783 4.06349ZM16.2783 5.5873C12.2168 5.5873 8.91324 8.89085 8.91324 12.9524C8.91324 17.0139 12.2168 20.3175 16.2783 20.3175C20.3399 20.3175 23.6434 17.0139 23.6434 12.9524C23.6434 8.89085 20.3399 5.5873 16.2783 5.5873Z" fill="white"/>
<path fill-rule="evenodd" clip-rule="evenodd" d="M28.4688 0C30.5696 0 32.2783 1.70877 32.2783 3.80952V22.0952C32.2783 24.196 30.5696 25.9048 28.4688 25.9048H14.7257L14.6553 25.9633L7.62257 31.8234L7.62157 31.8244C7.48475 31.9402 7.312 32 7.13546 32C7.02631 32 6.91404 31.9752 6.81106 31.9276C6.5431 31.8002 6.37356 31.5326 6.37356 31.2381V25.9048H4.08784C1.98709 25.9048 0.27832 24.196 0.27832 22.0952V3.80952C0.27832 1.70877 1.98709 0 4.08784 0H28.4688ZM4.08784 1.52381C2.82809 1.52381 1.80213 2.54977 1.80213 3.80952V22.0952C1.80213 23.3572 2.82825 24.381 4.08784 24.381H7.13546C7.55596 24.381 7.89737 24.7224 7.89737 25.1429V29.6121L13.9619 24.5595L13.9638 24.5585C14.1006 24.4432 14.2721 24.381 14.4499 24.381H28.4688C29.7306 24.381 30.7545 23.357 30.7545 22.0952V3.80952C30.7545 2.54993 29.7307 1.52381 28.4688 1.52381H4.08784Z" fill="white"/>
<path d="M19.6905 14.3076C19.3932 14.6049 18.9103 14.6049 18.613 14.3076L16.2784 11.973L13.9439 14.3076C13.6465 14.6049 13.1637 14.6049 12.8664 14.3076C12.569 14.0102 12.569 13.5274 12.8664 13.2301L15.7397 10.3568C16.037 10.0594 16.5198 10.0594 16.8172 10.3568L19.6905 13.2301C19.9878 13.5274 19.9878 14.0102 19.6905 14.3076Z" fill="white"/>
</g>
<defs>
<clipPath id="clip0_469_2044">
<rect width="32" height="32" fill="white" transform="translate(0.27832)"/>
</clipPath>
</defs>
</svg>
