<svg width="33" height="32" viewBox="0 0 33 32" fill="none" xmlns="http://www.w3.org/2000/svg">
<g clip-path="url(#clip0_469_2050)">
<path fill-rule="evenodd" clip-rule="evenodd" d="M28.8787 1.64175C31.0167 1.64205 32.7783 3.40571 32.7783 5.54441V20.6029C32.7781 22.7415 31.0166 24.5043 28.8787 24.5046H16.9361L16.8312 24.6104L11.8833 29.5674C11.0643 30.3888 9.85528 30.5431 8.92109 30.1564C7.98731 29.7697 7.24085 28.8031 7.24182 27.6425V24.5046H4.668C2.53098 24.5045 0.778542 22.7427 0.77832 20.6029V5.54441C0.77832 3.40448 2.53085 1.64185 4.668 1.64175H28.8787ZM4.668 3.51671C3.51936 3.5168 2.65028 4.40148 2.65028 5.54441V20.6029C2.65048 21.745 3.5188 22.6336 4.668 22.6336H8.1763C8.2997 22.6332 8.4226 22.6565 8.53671 22.7035C8.65077 22.7506 8.75498 22.82 8.84222 22.9072C8.9294 22.9945 8.9989 23.0986 9.04589 23.2127C9.09281 23.3268 9.11625 23.4498 9.11577 23.5731V27.6415C9.1156 27.8254 9.15315 28.003 9.26154 28.1537C9.36808 28.3015 9.51264 28.3804 9.63293 28.4302C9.75292 28.4798 9.91053 28.526 10.0902 28.4971C10.2736 28.4675 10.4251 28.3682 10.5554 28.2375L15.8848 22.9092C15.9717 22.8218 16.0754 22.7529 16.1893 22.7055C16.3031 22.6582 16.4254 22.6337 16.5487 22.6336H28.8787C30.0248 22.6334 30.9062 21.7477 30.9064 20.6029V5.54441C30.9064 4.39873 30.0243 3.51699 28.8787 3.51671H4.668Z" fill="white"/>
<path d="M5.5625 18.16H18.625" stroke="white" stroke-width="1.5" stroke-linecap="round"/>
<path d="M21.9375 18.16H28.125" stroke="white" stroke-width="1.5" stroke-linecap="round"/>
<path d="M5.5625 14.3293H13.5" stroke="white" stroke-width="1.5" stroke-linecap="round"/>
<path d="M16.2 14.3293H16.3" stroke="white" stroke-width="1.5" stroke-linecap="round"/>
<path d="M19 14.3293H19.1" stroke="white" stroke-width="1.5" stroke-linecap="round"/>
<path d="M21.8374 14.3293H21.9374" stroke="white" stroke-width="1.5" stroke-linecap="round"/>
<path d="M20.2881 6.86051C21.2386 6.60967 22.6711 6.49604 23.2876 7.19717C24.2641 8.3078 22.2847 9.61017 21.7556 10.9912C21.6057 11.3824 21.6242 11.7048 21.6943 11.8918" stroke="white" stroke-width="1.5" stroke-linecap="round"/>
</g>
<defs>
<clipPath id="clip0_469_2050">
<rect width="32" height="32" fill="white" transform="translate(0.77832)"/>
</clipPath>
</defs>
</svg>
