<svg width="33" height="32" viewBox="0 0 33 32" fill="none" xmlns="http://www.w3.org/2000/svg">
<g clip-path="url(#clip0_469_2052)">
<path d="M25.0783 2.40002H7.47832C3.50832 2.40002 0.27832 5.62962 0.27832 9.60002V17.6C0.27832 21.5704 3.50832 24.8 7.47832 24.8H9.87832V28.8C9.87832 29.1236 10.0731 29.4156 10.3719 29.5392C10.4711 29.5804 10.5751 29.6 10.6783 29.6C10.8867 29.6 11.0907 29.5188 11.2439 29.3656L15.8095 24.8H25.0783C29.0483 24.8 32.2783 21.5704 32.2783 17.6V9.60002C32.2783 5.62962 29.0483 2.40002 25.0783 2.40002ZM30.6783 17.6C30.6783 20.6876 28.1663 23.2 25.0783 23.2H15.4783C15.2663 23.2 15.0627 23.2844 14.9127 23.4344L11.4783 26.8688V24C11.4783 23.558 11.1199 23.2 10.6783 23.2H7.47832C4.39032 23.2 1.87832 20.6876 1.87832 17.6V9.60002C1.87832 6.51242 4.39032 4.00002 7.47832 4.00002H25.0783C28.1663 4.00002 30.6783 6.51242 30.6783 9.60002V17.6ZM7.15249 16.5776C7.46609 16.8884 7.46849 17.3948 7.15769 17.7088C7.0009 17.8668 6.79529 17.9456 6.58929 17.9456C6.38569 17.9456 6.18209 17.8684 6.02609 17.7136C4.96529 16.6624 4.38129 15.2564 4.38129 13.7532C4.38129 10.772 6.72489 8.33401 9.66609 8.16921L9.41569 7.91881C9.10329 7.60641 9.10329 7.10001 9.41569 6.78761C9.72809 6.47521 10.2345 6.47521 10.5469 6.78761L12.1469 8.38761C12.4593 8.70001 12.4593 9.20641 12.1469 9.51881L10.5469 11.1188C10.3905 11.2752 10.1861 11.3532 9.98129 11.3532C9.77649 11.3532 9.57209 11.2752 9.41569 11.1188C9.10329 10.8064 9.10329 10.3 9.41569 9.9876L9.61289 9.7904C7.58209 9.98 5.98129 11.674 5.98129 13.7532C5.98129 14.826 6.39729 15.8288 7.15249 16.5776ZM26.7277 9.64002C27.7881 10.6908 28.3721 12.0968 28.3721 13.6C28.3721 16.5812 26.0285 19.0192 23.0873 19.184L23.3377 19.4344C23.6501 19.7468 23.6501 20.2532 23.3377 20.5656C23.1813 20.722 22.9769 20.8 22.7721 20.8C22.5673 20.8 22.3629 20.722 22.2065 20.5656L20.6065 18.9656C20.2941 18.6532 20.2941 18.1468 20.6065 17.8344L22.2065 16.2344C22.5189 15.922 23.0253 15.922 23.3377 16.2344C23.6501 16.5468 23.6501 17.0532 23.3377 17.3656L23.1405 17.5628C25.1713 17.3732 26.7721 15.6792 26.7721 13.6C26.7721 12.5272 26.3561 11.5244 25.6009 10.7756C25.2873 10.4648 25.2849 9.95842 25.5957 9.64442C25.9069 9.32962 26.4129 9.32802 26.7277 9.64002Z" fill="white"/>
<path d="M18.4283 15.9895C18.1281 16.2897 17.6414 16.2897 17.3412 15.9895L14.1283 12.7766C13.8281 12.4764 13.8281 11.9897 14.1283 11.6895C14.4285 11.3893 14.9152 11.3893 15.2155 11.6895L18.4283 14.9024C18.7286 15.2026 18.7286 15.6893 18.4283 15.9895ZM15.2155 15.9895C14.9152 16.2897 14.4285 16.2897 14.1283 15.9895C13.8281 15.6893 13.8281 15.2026 14.1283 14.9024L17.3412 11.6895C17.6414 11.3893 18.1281 11.3893 18.4283 11.6895C18.7286 11.9897 18.7286 12.4764 18.4283 12.7766L15.2155 15.9895Z" fill="white"/>
</g>
<defs>
<clipPath id="clip0_469_2052">
<rect width="32" height="32" fill="white" transform="translate(0.27832)"/>
</clipPath>
</defs>
</svg>
