<svg width="33" height="32" viewBox="0 0 33 32" fill="none" xmlns="http://www.w3.org/2000/svg">
<path fill-rule="evenodd" clip-rule="evenodd" d="M20.9815 7.03895C21.2289 7.03902 21.4611 7.1606 21.6019 7.36463L21.6494 7.44315C21.7491 7.63263 21.7637 7.85664 21.6872 8.05961L20.6151 10.8967C20.3187 11.6758 19.7949 12.3275 19.1389 12.7907L19.3589 12.9545C19.9277 13.4136 20.3605 14.0066 20.6151 14.6847L21.6872 17.5208C21.7748 17.7528 21.7433 18.0127 21.6019 18.2168C21.4611 18.4207 21.2289 18.5424 20.9815 18.5424H12.5749C12.3275 18.5424 12.0943 18.4208 11.9536 18.2168C11.8127 18.0128 11.7808 17.7524 11.8683 17.5208L12.9403 14.6847L13.0654 14.39C13.3727 13.7356 13.8358 13.191 14.4001 12.7907C13.7392 12.314 13.2369 11.6633 12.9432 10.9016L12.9423 10.9006L11.8683 8.05961C11.781 7.82793 11.8125 7.56848 11.9536 7.36463C12.0943 7.16054 12.3274 7.039 12.5749 7.03895H20.9815ZM11.9798 17.5635L11.9662 17.609C11.9707 17.5938 11.9741 17.5785 11.9798 17.5635ZM16.7739 13.5487C15.6883 13.5489 14.7378 14.204 14.3516 15.2197L13.6663 17.0333H19.8891L19.2077 15.2284L19.2019 15.2168C19.043 14.793 18.7708 14.4189 18.4071 14.1264L18.2452 14.0052C17.8249 13.7103 17.3029 13.5487 16.7739 13.5487ZM16.1545 12.0851L16.1564 12.0841C16.1461 12.0817 16.1357 12.0798 16.1254 12.0773C16.1351 12.0797 16.1447 12.0828 16.1545 12.0851ZM14.3516 10.3626L14.4301 10.5449C14.6275 10.9624 14.9279 11.3206 15.3073 11.5859L15.4702 11.6886C15.8615 11.9151 16.3189 12.0394 16.7739 12.0395C17.8451 12.0395 18.8218 11.365 19.2039 10.3617L19.8891 8.54813H13.6663L14.3516 10.3626ZM19.3153 10.4033C19.1406 10.8625 18.8468 11.2557 18.4779 11.5529C18.425 11.5955 18.3709 11.6365 18.315 11.675C18.2037 11.7519 18.0867 11.8207 17.9651 11.8805C18.5733 11.5817 19.0656 11.0596 19.3153 10.4033ZM15.5904 11.8864C15.618 11.8997 15.6466 11.9108 15.6747 11.9232C15.6389 11.9074 15.6031 11.892 15.5681 11.8747L15.5904 11.8864Z" fill="white"/>
<path fill-rule="evenodd" clip-rule="evenodd" d="M27.3459 0C28.5734 0.000193603 29.5723 0.998921 29.5723 2.22645V23.3549C29.5722 24.5824 28.5733 25.5812 27.3459 25.5814H11.4699L5.27231 31.779C5.12798 31.9233 4.93409 31.9999 4.73824 32C4.64163 32 4.54391 31.9808 4.45036 31.9418C4.16809 31.8254 3.98431 31.5505 3.98413 31.2459V2.22645C3.98417 0.998477 4.9864 6.29607e-05 6.21737 0H27.3459ZM5.18701 31.6947C5.12996 31.7517 5.06328 31.7944 4.99219 31.8255C5.02541 31.811 5.05853 31.7954 5.08912 31.7751L5.18701 31.6947ZM6.21737 1.50918C5.81705 1.50924 5.49335 1.83168 5.49331 2.22645V29.4236L10.6237 24.2932C10.765 24.152 10.9567 24.0723 11.1568 24.0722H27.3459C27.7414 24.072 28.063 23.7505 28.0631 23.3549V2.22645C28.0631 1.83085 27.7414 1.50937 27.3459 1.50918H6.21737ZM27.8131 1.53244C27.8577 1.5626 27.8992 1.5972 27.9371 1.63519C27.9938 1.69194 28.0419 1.75704 28.0806 1.82807C28.0161 1.70931 27.9245 1.60778 27.8131 1.53244ZM6.04774 1.40643C6.02612 1.41082 6.00476 1.41594 5.98377 1.42194C6.03122 1.40837 6.08063 1.39894 6.1311 1.39383L6.04774 1.40643Z" fill="white"/>
</svg>
