<svg width="32" height="32" viewBox="0 0 32 32" fill="none" xmlns="http://www.w3.org/2000/svg">
<path d="M15.8144 25.4218C15.6376 25.4218 15.4679 25.3518 15.3424 25.2271L6.7731 16.6578C6.65241 16.5374 6.58239 16.3755 6.57743 16.2051C6.57247 16.0347 6.63295 15.8689 6.74643 15.7418L13.1691 8.54712C17.6584 3.29512 24.9691 -0.103546 31.3438 0.00445387C31.5151 0.00851777 31.6782 0.0783745 31.7994 0.199528C31.9205 0.320682 31.9904 0.483831 31.9944 0.655121C32.1424 7.03379 28.7051 14.3405 23.4398 18.8391L16.2571 25.2525C16.1356 25.3618 15.9779 25.4221 15.8144 25.4218ZM8.1611 16.1605L15.8398 23.8391L22.5638 17.8365C27.3718 13.7271 30.5651 7.17779 30.6638 1.33645C24.8224 1.43379 18.2744 4.62712 14.1731 9.42445L8.1611 16.1605Z" fill="#EEEBFF"/>
<path d="M18.3678 30.3019C18.3031 30.3021 18.2388 30.2922 18.1772 30.2725C17.9372 30.1925 17.7398 30.0085 17.7052 29.7579L16.7905 23.3752C16.7767 23.2056 16.8281 23.0372 16.9342 22.9042C17.0402 22.7713 17.1931 22.6838 17.3615 22.6596C17.5298 22.6355 17.7011 22.6765 17.8403 22.7743C17.9795 22.8721 18.0761 23.0193 18.1105 23.1859L18.8252 28.1725C21.1617 25.384 22.4476 21.8652 22.4598 18.2272C22.4598 18.0504 22.5301 17.8808 22.6551 17.7558C22.7801 17.6308 22.9497 17.5605 23.1265 17.5605C23.3033 17.5605 23.4729 17.6308 23.5979 17.7558C23.7229 17.8808 23.7932 18.0504 23.7932 18.2272C23.7932 22.6445 22.0038 26.9685 18.8838 30.0872C18.7505 30.2205 18.5558 30.3019 18.3678 30.3019ZM8.72118 15.2165C8.68949 15.2169 8.65783 15.2147 8.62651 15.2099L2.24385 14.2952C2.12093 14.2775 2.00538 14.2259 1.91022 14.1461C1.81506 14.0664 1.74408 13.9616 1.70527 13.8436C1.66646 13.7257 1.66137 13.5992 1.69056 13.4785C1.71976 13.3578 1.78208 13.2477 1.87051 13.1605C5.02941 10.0033 9.30834 8.22277 13.7745 8.20719C13.9513 8.20719 14.1209 8.27742 14.2459 8.40245C14.3709 8.52747 14.4412 8.69704 14.4412 8.87385C14.4412 9.05066 14.3709 9.22023 14.2459 9.34526C14.1209 9.47028 13.9513 9.54052 13.7745 9.54052C10.1465 9.54052 6.58651 10.8512 3.82251 13.1739L8.81585 13.8899C8.98286 13.9137 9.13465 13.9999 9.2406 14.1312C9.34655 14.2625 9.39879 14.429 9.38678 14.5973C9.37477 14.7656 9.29941 14.923 9.17589 15.038C9.05238 15.1529 8.88988 15.2167 8.72118 15.2165ZM22.8438 12.4885C22.4061 12.4894 21.9725 12.4037 21.5679 12.2364C21.1634 12.0692 20.7959 11.8236 20.4865 11.5139C19.8628 10.8878 19.5126 10.0402 19.5126 9.15652C19.5126 8.27285 19.8628 7.4252 20.4865 6.79919C21.1122 6.17485 21.96 5.82422 22.8438 5.82422C23.7277 5.82422 24.5755 6.17485 25.2012 6.79919C25.8249 7.4252 26.175 8.27285 26.175 9.15652C26.175 10.0402 25.8249 10.8878 25.2012 11.5139C24.8919 11.8237 24.5244 12.0693 24.1198 12.2365C23.7153 12.4038 23.2816 12.4894 22.8438 12.4885ZM22.8438 7.15785C22.3318 7.15785 21.8185 7.35252 21.4292 7.74185C21.0551 8.11765 20.8451 8.6263 20.8451 9.15652C20.8451 9.68674 21.0551 10.1954 21.4292 10.5712C21.8052 10.9449 22.3137 11.1547 22.8438 11.1547C23.374 11.1547 23.8825 10.9449 24.2585 10.5712C24.6326 10.1954 24.8426 9.68674 24.8426 9.15652C24.8426 8.6263 24.6326 8.11765 24.2585 7.74185C23.8828 7.3677 23.3741 7.1577 22.8438 7.15785ZM0.666514 32.0005C0.562678 32.0005 0.460283 31.9762 0.36749 31.9296C0.274696 31.883 0.194071 31.8154 0.132039 31.7321C0.0700072 31.6489 0.0282838 31.5522 0.0101945 31.45C-0.00789491 31.3477 -0.00185015 31.2427 0.027847 31.1432C0.246514 30.4139 2.20518 23.9685 3.63185 22.5419C4.40525 21.7701 5.45324 21.3366 6.54585 21.3366C7.63846 21.3366 8.68645 21.7701 9.45985 22.5419C10.2316 23.3153 10.6651 24.3632 10.6651 25.4559C10.6651 26.5485 10.2316 27.5965 9.45985 28.3699C8.03318 29.7965 1.58785 31.7552 0.858514 31.9739C0.795976 31.9912 0.731412 32.0002 0.666514 32.0005ZM6.54651 22.6685C5.83185 22.6685 5.11851 22.9405 4.57451 23.4832C3.80518 24.2539 2.52518 27.6952 1.67985 30.3205C4.30385 29.4752 7.74651 28.1952 8.51585 27.4259C9.03767 26.9025 9.3307 26.1936 9.3307 25.4545C9.3307 24.7155 9.03767 24.0065 8.51585 23.4832C8.2574 23.2244 7.95038 23.0192 7.61243 22.8794C7.27448 22.7396 6.91224 22.668 6.54651 22.6685Z" fill="#EEEBFF"/>
</svg>
