<svg width="32" height="32" viewBox="0 0 32 32" fill="none" xmlns="http://www.w3.org/2000/svg">
<path d="M27.3333 17.333H4.66667C4.48986 17.333 4.32029 17.2628 4.19526 17.1377C4.07024 17.0127 4 16.8432 4 16.6663C4 16.4895 4.07024 16.32 4.19526 16.1949C4.32029 16.0699 4.48986 15.9997 4.66667 15.9997H27.3333C27.5101 15.9997 27.6797 16.0699 27.8047 16.1949C27.9298 16.32 28 16.4895 28 16.6663C28 16.8432 27.9298 17.0127 27.8047 17.1377C27.6797 17.2628 27.5101 17.333 27.3333 17.333ZM27.3333 10.6663H4.66667C4.48986 10.6663 4.32029 10.5961 4.19526 10.4711C4.07024 10.3461 4 10.1765 4 9.99967C4 9.82286 4.07024 9.65329 4.19526 9.52827C4.32029 9.40325 4.48986 9.33301 4.66667 9.33301H27.3333C27.5101 9.33301 27.6797 9.40325 27.8047 9.52827C27.9298 9.65329 28 9.82286 28 9.99967C28 10.1765 27.9298 10.3461 27.8047 10.4711C27.6797 10.5961 27.5101 10.6663 27.3333 10.6663ZM27.3333 23.9997H4.66667C4.48986 23.9997 4.32029 23.9294 4.19526 23.8044C4.07024 23.6794 4 23.5098 4 23.333C4 23.1562 4.07024 22.9866 4.19526 22.8616C4.32029 22.7366 4.48986 22.6663 4.66667 22.6663H27.3333C27.5101 22.6663 27.6797 22.7366 27.8047 22.8616C27.9298 22.9866 28 23.1562 28 23.333C28 23.5098 27.9298 23.6794 27.8047 23.8044C27.6797 23.9294 27.5101 23.9997 27.3333 23.9997Z" fill="#EEEBFF"/>
<path d="M24.6667 30.6663H7.33333C6.4496 30.6653 5.60237 30.3138 4.97748 29.6889C4.35259 29.064 4.00106 28.2167 4 27.333V9.99968C3.99992 9.94527 4.00664 9.89108 4.02 9.83834L5.768 2.84768C5.87579 2.41483 6.12538 2.03053 6.47697 1.75602C6.82857 1.48151 7.26194 1.33259 7.708 1.33301H24.292C24.7382 1.33276 25.1716 1.48171 25.5234 1.75617C25.8752 2.03063 26.1251 2.41484 26.2333 2.84768L27.9813 9.83834C27.9933 9.89034 28 9.94501 28 9.99968V27.333C28 29.1703 26.5053 30.6663 24.6667 30.6663ZM5.33333 10.0823V27.333C5.33333 28.4357 6.23067 29.333 7.33333 29.333H24.6667C25.7693 29.333 26.6667 28.4357 26.6667 27.333V10.0823L24.9387 3.17168C24.9027 3.02739 24.8195 2.89927 24.7023 2.80771C24.5851 2.71614 24.4407 2.66638 24.292 2.66634H7.708C7.40133 2.66634 7.13467 2.87434 7.06133 3.17168L5.33333 10.0823Z" fill="#EEEBFF"/>
<path d="M23.3335 14H19.3335C19.1567 14 18.9871 13.9298 18.8621 13.8047C18.737 13.6797 18.6668 13.5101 18.6668 13.3333C18.6668 13.1565 18.737 12.987 18.8621 12.8619C18.9871 12.7369 19.1567 12.6667 19.3335 12.6667H23.3335C23.5103 12.6667 23.6798 12.7369 23.8049 12.8619C23.9299 12.987 24.0001 13.1565 24.0001 13.3333C24.0001 13.5101 23.9299 13.6797 23.8049 13.8047C23.6798 13.9298 23.5103 14 23.3335 14ZM23.3335 20.6667H19.3335C19.1567 20.6667 18.9871 20.5964 18.8621 20.4714C18.737 20.3464 18.6668 20.1768 18.6668 20C18.6668 19.8232 18.737 19.6536 18.8621 19.5286C18.9871 19.4036 19.1567 19.3333 19.3335 19.3333H23.3335C23.5103 19.3333 23.6798 19.4036 23.8049 19.5286C23.9299 19.6536 24.0001 19.8232 24.0001 20C24.0001 20.1768 23.9299 20.3464 23.8049 20.4714C23.6798 20.5964 23.5103 20.6667 23.3335 20.6667ZM23.3335 27.3333H19.3335C19.1567 27.3333 18.9871 27.2631 18.8621 27.1381C18.737 27.013 18.6668 26.8435 18.6668 26.6667C18.6668 26.4899 18.737 26.3203 18.8621 26.1953C18.9871 26.0702 19.1567 26 19.3335 26H23.3335C23.5103 26 23.6798 26.0702 23.8049 26.1953C23.9299 26.3203 24.0001 26.4899 24.0001 26.6667C24.0001 26.8435 23.9299 27.013 23.8049 27.1381C23.6798 27.2631 23.5103 27.3333 23.3335 27.3333ZM8.7028 14.6667C8.52599 14.6667 8.35642 14.5964 8.2314 14.4714C8.10637 14.3464 8.03613 14.1768 8.03613 14V12.6667C8.03613 12.4899 8.10637 12.3203 8.2314 12.1953C8.35642 12.0702 8.52599 12 8.7028 12C8.87961 12 9.04918 12.0702 9.1742 12.1953C9.29923 12.3203 9.36947 12.4899 9.36947 12.6667V14C9.36947 14.1768 9.29923 14.3464 9.1742 14.4714C9.04918 14.5964 8.87961 14.6667 8.7028 14.6667ZM11.3695 14.6667C11.1927 14.6667 11.0231 14.5964 10.8981 14.4714C10.773 14.3464 10.7028 14.1768 10.7028 14V12.6667C10.7028 12.4899 10.773 12.3203 10.8981 12.1953C11.0231 12.0702 11.1927 12 11.3695 12C11.5463 12 11.7158 12.0702 11.8409 12.1953C11.9659 12.3203 12.0361 12.4899 12.0361 12.6667V14C12.0361 14.1768 11.9659 14.3464 11.8409 14.4714C11.7158 14.5964 11.5463 14.6667 11.3695 14.6667ZM14.0361 14.6667C13.8593 14.6667 13.6898 14.5964 13.5647 14.4714C13.4397 14.3464 13.3695 14.1768 13.3695 14V12.6667C13.3695 12.4899 13.4397 12.3203 13.5647 12.1953C13.6898 12.0702 13.8593 12 14.0361 12C14.2129 12 14.3825 12.0702 14.5075 12.1953C14.6326 12.3203 14.7028 12.4899 14.7028 12.6667V14C14.7028 14.1768 14.6326 14.3464 14.5075 14.4714C14.3825 14.5964 14.2129 14.6667 14.0361 14.6667ZM8.7028 21.3333C8.52599 21.3333 8.35642 21.2631 8.2314 21.1381C8.10637 21.013 8.03613 20.8435 8.03613 20.6667V19.3333C8.03613 19.1565 8.10637 18.987 8.2314 18.8619C8.35642 18.7369 8.52599 18.6667 8.7028 18.6667C8.87961 18.6667 9.04918 18.7369 9.1742 18.8619C9.29923 18.987 9.36947 19.1565 9.36947 19.3333V20.6667C9.36947 20.8435 9.29923 21.013 9.1742 21.1381C9.04918 21.2631 8.87961 21.3333 8.7028 21.3333ZM11.3695 21.3333C11.1927 21.3333 11.0231 21.2631 10.8981 21.1381C10.773 21.013 10.7028 20.8435 10.7028 20.6667V19.3333C10.7028 19.1565 10.773 18.987 10.8981 18.8619C11.0231 18.7369 11.1927 18.6667 11.3695 18.6667C11.5463 18.6667 11.7158 18.7369 11.8409 18.8619C11.9659 18.987 12.0361 19.1565 12.0361 19.3333V20.6667C12.0361 20.8435 11.9659 21.013 11.8409 21.1381C11.7158 21.2631 11.5463 21.3333 11.3695 21.3333ZM14.0361 21.3333C13.8593 21.3333 13.6898 21.2631 13.5647 21.1381C13.4397 21.013 13.3695 20.8435 13.3695 20.6667V19.3333C13.3695 19.1565 13.4397 18.987 13.5647 18.8619C13.6898 18.7369 13.8593 18.6667 14.0361 18.6667C14.2129 18.6667 14.3825 18.7369 14.5075 18.8619C14.6326 18.987 14.7028 19.1565 14.7028 19.3333V20.6667C14.7028 20.8435 14.6326 21.013 14.5075 21.1381C14.3825 21.2631 14.2129 21.3333 14.0361 21.3333ZM8.7028 28C8.52599 28 8.35642 27.9298 8.2314 27.8047C8.10637 27.6797 8.03613 27.5101 8.03613 27.3333V26C8.03613 25.8232 8.10637 25.6536 8.2314 25.5286C8.35642 25.4036 8.52599 25.3333 8.7028 25.3333C8.87961 25.3333 9.04918 25.4036 9.1742 25.5286C9.29923 25.6536 9.36947 25.8232 9.36947 26V27.3333C9.36947 27.5101 9.29923 27.6797 9.1742 27.8047C9.04918 27.9298 8.87961 28 8.7028 28ZM11.3695 28C11.1927 28 11.0231 27.9298 10.8981 27.8047C10.773 27.6797 10.7028 27.5101 10.7028 27.3333V26C10.7028 25.8232 10.773 25.6536 10.8981 25.5286C11.0231 25.4036 11.1927 25.3333 11.3695 25.3333C11.5463 25.3333 11.7158 25.4036 11.8409 25.5286C11.9659 25.6536 12.0361 25.8232 12.0361 26V27.3333C12.0361 27.5101 11.9659 27.6797 11.8409 27.8047C11.7158 27.9298 11.5463 28 11.3695 28ZM14.0361 28C13.8593 28 13.6898 27.9298 13.5647 27.8047C13.4397 27.6797 13.3695 27.5101 13.3695 27.3333V26C13.3695 25.8232 13.4397 25.6536 13.5647 25.5286C13.6898 25.4036 13.8593 25.3333 14.0361 25.3333C14.2129 25.3333 14.3825 25.4036 14.5075 25.5286C14.6326 25.6536 14.7028 25.8232 14.7028 26V27.3333C14.7028 27.5101 14.6326 27.6797 14.5075 27.8047C14.3825 27.9298 14.2129 28 14.0361 28Z" fill="#EEEBFF"/>
</svg>
