<svg width="32" height="32" viewBox="0 0 32 32" fill="none" xmlns="http://www.w3.org/2000/svg">
<path fill-rule="evenodd" clip-rule="evenodd" d="M15.5524 3.83974C13.8894 3.83903 12.2726 4.38729 10.953 5.39943C9.63341 6.41157 8.68482 7.83098 8.25445 9.43737C7.82407 11.0438 7.93598 12.7473 8.5728 14.2836C9.20963 15.8199 10.3358 17.103 11.7764 17.9338C11.8737 17.99 11.9545 18.0708 12.0107 18.1681C12.0668 18.2654 12.0964 18.3757 12.0964 18.4881V20.4797H19.0084V18.4881C19.0084 18.3757 19.038 18.2654 19.0941 18.1681C19.1503 18.0708 19.2311 17.99 19.3284 17.9338C20.7691 17.103 21.8952 15.8199 22.532 14.2836C23.1688 12.7473 23.2807 11.0438 22.8504 9.43737C22.42 7.83098 21.4714 6.41157 20.1518 5.39943C18.8322 4.38729 17.2154 3.83903 15.5524 3.83974ZM6.7204 11.3917C6.7206 9.8573 7.12057 8.3494 7.88089 7.01659C8.64121 5.68377 9.73566 4.57204 11.0564 3.79093C12.3771 3.00981 13.8786 2.58626 15.4128 2.56201C16.9471 2.53776 18.4611 2.91364 19.8059 3.65262C21.1507 4.39161 22.2797 5.4682 23.0818 6.77631C23.8838 8.08443 24.3313 9.57894 24.38 11.1126C24.4287 12.6463 24.0769 14.1661 23.3595 15.5225C22.642 16.8789 21.5836 18.0249 20.2884 18.8477V21.1197C20.2884 21.2895 20.221 21.4523 20.1009 21.5723C19.9809 21.6923 19.8181 21.7597 19.6484 21.7597H11.4564C11.2867 21.7597 11.1239 21.6923 11.0039 21.5723C10.8838 21.4523 10.8164 21.2895 10.8164 21.1197V18.8477C9.56074 18.0507 8.52686 16.9493 7.81077 15.6458C7.09468 14.3423 6.71961 12.879 6.7204 11.3917ZM14.9124 7.82054C14.9124 7.6508 14.9798 7.48801 15.0999 7.36799C15.2199 7.24797 15.3827 7.18054 15.5524 7.18054C16.7745 7.18054 17.9466 7.66602 18.8107 8.53019C19.6749 9.39436 20.1604 10.5664 20.1604 11.7885C20.1604 11.9583 20.093 12.1211 19.973 12.2411C19.8529 12.3611 19.6901 12.4285 19.5204 12.4285C19.3507 12.4285 19.1879 12.3611 19.0679 12.2411C18.9478 12.1211 18.8804 11.9583 18.8804 11.7885C18.8804 10.9059 18.5298 10.0594 17.9057 9.43529C17.2815 8.81117 16.435 8.46054 15.5524 8.46054C15.3827 8.46054 15.2199 8.39311 15.0999 8.27309C14.9798 8.15306 14.9124 7.99028 14.9124 7.82054ZM11.2004 24.9597C11.2004 24.79 11.2678 24.6272 11.3879 24.5072C11.5079 24.3872 11.6707 24.3197 11.8404 24.3197H19.5204C19.6901 24.3197 19.8529 24.3872 19.973 24.5072C20.093 24.6272 20.1604 24.79 20.1604 24.9597C20.1604 25.1295 20.093 25.2923 19.973 25.4123C19.8529 25.5323 19.6901 25.5997 19.5204 25.5997H11.8404C11.6707 25.5997 11.5079 25.5323 11.3879 25.4123C11.2678 25.2923 11.2004 25.1295 11.2004 24.9597ZM12.4804 28.7997C12.4804 28.63 12.5478 28.4672 12.6679 28.3472C12.7879 28.2272 12.9507 28.1597 13.1204 28.1597H18.2404C18.4101 28.1597 18.5729 28.2272 18.693 28.3472C18.813 28.4672 18.8804 28.63 18.8804 28.7997C18.8804 28.9695 18.813 29.1323 18.693 29.2523C18.5729 29.3723 18.4101 29.4397 18.2404 29.4397H13.1204C12.9507 29.4397 12.7879 29.3723 12.6679 29.2523C12.5478 29.1323 12.4804 28.9695 12.4804 28.7997ZM28.9335 2.74662C28.9931 2.80607 29.0404 2.87669 29.0727 2.95445C29.1049 3.0322 29.1215 3.11556 29.1215 3.19974C29.1215 3.28392 29.1049 3.36728 29.0727 3.44503C29.0404 3.52278 28.9931 3.59341 28.9335 3.65286L26.3735 6.21286C26.2533 6.33303 26.0904 6.40055 25.9204 6.40055C25.7504 6.40055 25.5875 6.33303 25.4673 6.21286C25.3471 6.09268 25.2796 5.92969 25.2796 5.75974C25.2796 5.58978 25.3471 5.42679 25.4673 5.30662L28.0273 2.74662C28.0867 2.68702 28.1574 2.63973 28.2351 2.60747C28.3129 2.5752 28.3962 2.55859 28.4804 2.55859C28.5646 2.55859 28.6479 2.5752 28.7257 2.60747C28.8034 2.63973 28.8741 2.68702 28.9335 2.74662ZM2.42728 2.74662C2.36768 2.80607 2.32039 2.87669 2.28813 2.95445C2.25587 3.0322 2.23926 3.11556 2.23926 3.19974C2.23926 3.28392 2.25587 3.36728 2.28813 3.44503C2.32039 3.52278 2.36768 3.59341 2.42728 3.65286L4.98728 6.21286C5.10746 6.33303 5.27045 6.40055 5.4404 6.40055C5.61035 6.40055 5.77335 6.33303 5.89352 6.21286C6.0137 6.09268 6.08121 5.92969 6.08121 5.75974C6.08121 5.58978 6.0137 5.42679 5.89352 5.30662L3.33352 2.74662C3.27407 2.68702 3.20345 2.63973 3.12569 2.60747C3.04794 2.5752 2.96458 2.55859 2.8804 2.55859C2.79622 2.55859 2.71286 2.5752 2.63511 2.60747C2.55736 2.63973 2.48673 2.68702 2.42728 2.74662ZM28.9335 21.5729C28.9931 21.5134 29.0404 21.4428 29.0727 21.365C29.1049 21.2873 29.1215 21.2039 29.1215 21.1197C29.1215 21.0356 29.1049 20.9522 29.0727 20.8744C29.0404 20.7967 28.9931 20.7261 28.9335 20.6666L26.3735 18.1066C26.2533 17.9864 26.0904 17.9189 25.9204 17.9189C25.7504 17.9189 25.5875 17.9864 25.4673 18.1066C25.3471 18.2268 25.2796 18.3898 25.2796 18.5597C25.2796 18.7297 25.3471 18.8927 25.4673 19.0129L28.0273 21.5729C28.0867 21.6325 28.1574 21.6797 28.2351 21.712C28.3129 21.7443 28.3962 21.7609 28.4804 21.7609C28.5646 21.7609 28.6479 21.7443 28.7257 21.712C28.8034 21.6797 28.8741 21.6325 28.9335 21.5729ZM2.42728 21.5729C2.36768 21.5134 2.32039 21.4428 2.28813 21.365C2.25587 21.2873 2.23926 21.2039 2.23926 21.1197C2.23926 21.0356 2.25587 20.9522 2.28813 20.8744C2.32039 20.7967 2.36768 20.7261 2.42728 20.6666L4.98728 18.1066C5.04679 18.0471 5.11743 17.9999 5.19517 17.9677C5.27292 17.9355 5.35625 17.9189 5.4404 17.9189C5.52455 17.9189 5.60788 17.9355 5.68563 17.9677C5.76338 17.9999 5.83402 18.0471 5.89352 18.1066C5.95303 18.1661 6.00023 18.2368 6.03243 18.3145C6.06464 18.3923 6.08121 18.4756 6.08121 18.5597C6.08121 18.6439 6.06464 18.7272 6.03243 18.805C6.00023 18.8827 5.95303 18.9534 5.89352 19.0129L3.33352 21.5729C3.27407 21.6325 3.20345 21.6797 3.12569 21.712C3.04794 21.7443 2.96458 21.7609 2.8804 21.7609C2.79622 21.7609 2.71286 21.7443 2.63511 21.712C2.55736 21.6797 2.48673 21.6325 2.42728 21.5729Z" fill="#EEEBFF"/>
</svg>
