<svg width="48" height="48" viewBox="0 0 48 48" fill="none" xmlns="http://www.w3.org/2000/svg">
<path d="M41 26H7C6.73478 26 6.48043 25.8946 6.29289 25.7071C6.10536 25.5196 6 25.2652 6 25C6 24.7348 6.10536 24.4804 6.29289 24.2929C6.48043 24.1054 6.73478 24 7 24H41C41.2652 24 41.5196 24.1054 41.7071 24.2929C41.8946 24.4804 42 24.7348 42 25C42 25.2652 41.8946 25.5196 41.7071 25.7071C41.5196 25.8946 41.2652 26 41 26ZM41 16H7C6.73478 16 6.48043 15.8946 6.29289 15.7071C6.10536 15.5196 6 15.2652 6 15C6 14.7348 6.10536 14.4804 6.29289 14.2929C6.48043 14.1054 6.73478 14 7 14H41C41.2652 14 41.5196 14.1054 41.7071 14.2929C41.8946 14.4804 42 14.7348 42 15C42 15.2652 41.8946 15.5196 41.7071 15.7071C41.5196 15.8946 41.2652 16 41 16ZM41 36H7C6.73478 36 6.48043 35.8946 6.29289 35.7071C6.10536 35.5196 6 35.2652 6 35C6 34.7348 6.10536 34.4804 6.29289 34.2929C6.48043 34.1054 6.73478 34 7 34H41C41.2652 34 41.5196 34.1054 41.7071 34.2929C41.8946 34.4804 42 34.7348 42 35C42 35.2652 41.8946 35.5196 41.7071 35.7071C41.5196 35.8946 41.2652 36 41 36Z" fill="#EEEBFF"/>
<path d="M37 46H11C9.67441 45.9984 8.40356 45.4711 7.46622 44.5338C6.52888 43.5964 6.00159 42.3256 6 41V15C5.99989 14.9184 6.00996 14.8371 6.03 14.758L8.652 4.272C8.81369 3.62273 9.18807 3.04628 9.71546 2.63451C10.2429 2.22275 10.8929 1.99938 11.562 2H36.438C37.1073 1.99963 37.7574 2.22306 38.2851 2.63475C38.8127 3.04644 39.1876 3.62274 39.35 4.272L41.972 14.758C41.99 14.836 42 14.918 42 15V41C42 43.756 39.758 46 37 46ZM8 15.124V41C8 42.654 9.346 44 11 44H37C38.654 44 40 42.654 40 41V15.124L37.408 4.758C37.354 4.54157 37.2292 4.3494 37.0535 4.21205C36.8777 4.0747 36.6611 4.00006 36.438 4H11.562C11.102 4 10.702 4.312 10.592 4.758L8 15.124Z" fill="#EEEBFF"/>
<path d="M35.0002 21H29.0002C28.735 21 28.4806 20.8946 28.2931 20.7071C28.1056 20.5196 28.0002 20.2652 28.0002 20C28.0002 19.7348 28.1056 19.4804 28.2931 19.2929C28.4806 19.1054 28.735 19 29.0002 19H35.0002C35.2654 19 35.5198 19.1054 35.7073 19.2929C35.8948 19.4804 36.0002 19.7348 36.0002 20C36.0002 20.2652 35.8948 20.5196 35.7073 20.7071C35.5198 20.8946 35.2654 21 35.0002 21ZM35.0002 31H29.0002C28.735 31 28.4806 30.8946 28.2931 30.7071C28.1056 30.5196 28.0002 30.2652 28.0002 30C28.0002 29.7348 28.1056 29.4804 28.2931 29.2929C28.4806 29.1054 28.735 29 29.0002 29H35.0002C35.2654 29 35.5198 29.1054 35.7073 29.2929C35.8948 29.4804 36.0002 29.7348 36.0002 30C36.0002 30.2652 35.8948 30.5196 35.7073 30.7071C35.5198 30.8946 35.2654 31 35.0002 31ZM35.0002 41H29.0002C28.735 41 28.4806 40.8946 28.2931 40.7071C28.1056 40.5196 28.0002 40.2652 28.0002 40C28.0002 39.7348 28.1056 39.4804 28.2931 39.2929C28.4806 39.1054 28.735 39 29.0002 39H35.0002C35.2654 39 35.5198 39.1054 35.7073 39.2929C35.8948 39.4804 36.0002 39.7348 36.0002 40C36.0002 40.2652 35.8948 40.5196 35.7073 40.7071C35.5198 40.8946 35.2654 41 35.0002 41ZM13.0542 22C12.789 22 12.5346 21.8946 12.3471 21.7071C12.1596 21.5196 12.0542 21.2652 12.0542 21V19C12.0542 18.7348 12.1596 18.4804 12.3471 18.2929C12.5346 18.1054 12.789 18 13.0542 18C13.3194 18 13.5738 18.1054 13.7613 18.2929C13.9488 18.4804 14.0542 18.7348 14.0542 19V21C14.0542 21.2652 13.9488 21.5196 13.7613 21.7071C13.5738 21.8946 13.3194 22 13.0542 22ZM17.0542 22C16.789 22 16.5346 21.8946 16.3471 21.7071C16.1596 21.5196 16.0542 21.2652 16.0542 21V19C16.0542 18.7348 16.1596 18.4804 16.3471 18.2929C16.5346 18.1054 16.789 18 17.0542 18C17.3194 18 17.5738 18.1054 17.7613 18.2929C17.9488 18.4804 18.0542 18.7348 18.0542 19V21C18.0542 21.2652 17.9488 21.5196 17.7613 21.7071C17.5738 21.8946 17.3194 22 17.0542 22ZM21.0542 22C20.789 22 20.5346 21.8946 20.3471 21.7071C20.1596 21.5196 20.0542 21.2652 20.0542 21V19C20.0542 18.7348 20.1596 18.4804 20.3471 18.2929C20.5346 18.1054 20.789 18 21.0542 18C21.3194 18 21.5738 18.1054 21.7613 18.2929C21.9488 18.4804 22.0542 18.7348 22.0542 19V21C22.0542 21.2652 21.9488 21.5196 21.7613 21.7071C21.5738 21.8946 21.3194 22 21.0542 22ZM13.0542 32C12.789 32 12.5346 31.8946 12.3471 31.7071C12.1596 31.5196 12.0542 31.2652 12.0542 31V29C12.0542 28.7348 12.1596 28.4804 12.3471 28.2929C12.5346 28.1054 12.789 28 13.0542 28C13.3194 28 13.5738 28.1054 13.7613 28.2929C13.9488 28.4804 14.0542 28.7348 14.0542 29V31C14.0542 31.2652 13.9488 31.5196 13.7613 31.7071C13.5738 31.8946 13.3194 32 13.0542 32ZM17.0542 32C16.789 32 16.5346 31.8946 16.3471 31.7071C16.1596 31.5196 16.0542 31.2652 16.0542 31V29C16.0542 28.7348 16.1596 28.4804 16.3471 28.2929C16.5346 28.1054 16.789 28 17.0542 28C17.3194 28 17.5738 28.1054 17.7613 28.2929C17.9488 28.4804 18.0542 28.7348 18.0542 29V31C18.0542 31.2652 17.9488 31.5196 17.7613 31.7071C17.5738 31.8946 17.3194 32 17.0542 32ZM21.0542 32C20.789 32 20.5346 31.8946 20.3471 31.7071C20.1596 31.5196 20.0542 31.2652 20.0542 31V29C20.0542 28.7348 20.1596 28.4804 20.3471 28.2929C20.5346 28.1054 20.789 28 21.0542 28C21.3194 28 21.5738 28.1054 21.7613 28.2929C21.9488 28.4804 22.0542 28.7348 22.0542 29V31C22.0542 31.2652 21.9488 31.5196 21.7613 31.7071C21.5738 31.8946 21.3194 32 21.0542 32ZM13.0542 42C12.789 42 12.5346 41.8946 12.3471 41.7071C12.1596 41.5196 12.0542 41.2652 12.0542 41V39C12.0542 38.7348 12.1596 38.4804 12.3471 38.2929C12.5346 38.1054 12.789 38 13.0542 38C13.3194 38 13.5738 38.1054 13.7613 38.2929C13.9488 38.4804 14.0542 38.7348 14.0542 39V41C14.0542 41.2652 13.9488 41.5196 13.7613 41.7071C13.5738 41.8946 13.3194 42 13.0542 42ZM17.0542 42C16.789 42 16.5346 41.8946 16.3471 41.7071C16.1596 41.5196 16.0542 41.2652 16.0542 41V39C16.0542 38.7348 16.1596 38.4804 16.3471 38.2929C16.5346 38.1054 16.789 38 17.0542 38C17.3194 38 17.5738 38.1054 17.7613 38.2929C17.9488 38.4804 18.0542 38.7348 18.0542 39V41C18.0542 41.2652 17.9488 41.5196 17.7613 41.7071C17.5738 41.8946 17.3194 42 17.0542 42ZM21.0542 42C20.789 42 20.5346 41.8946 20.3471 41.7071C20.1596 41.5196 20.0542 41.2652 20.0542 41V39C20.0542 38.7348 20.1596 38.4804 20.3471 38.2929C20.5346 38.1054 20.789 38 21.0542 38C21.3194 38 21.5738 38.1054 21.7613 38.2929C21.9488 38.4804 22.0542 38.7348 22.0542 39V41C22.0542 41.2652 21.9488 41.5196 21.7613 41.7071C21.5738 41.8946 21.3194 42 21.0542 42Z" fill="#EEEBFF"/>
</svg>
