<svg width="48" height="48" viewBox="0 0 48 48" fill="none" xmlns="http://www.w3.org/2000/svg">
<g clip-path="url(#clip0_198_1724)">
<path d="M8.99979 34.0004C8.80216 34.0003 8.60897 33.9417 8.44462 33.832C8.28027 33.7222 8.15213 33.5662 8.07638 33.3837C8.00063 33.2012 7.98066 33.0003 8.019 32.8064C8.05734 32.6125 8.15226 32.4343 8.29179 32.2944L18.2918 22.2944C18.4134 22.1714 18.5651 22.0825 18.7318 22.0365C18.8985 21.9905 19.0744 21.9891 19.2418 22.0324L34.6938 25.8944L46.2938 14.2944C46.4824 14.1122 46.735 14.0114 46.9972 14.0137C47.2594 14.016 47.5102 14.1212 47.6956 14.3066C47.881 14.492 47.9862 14.7428 47.9885 15.005C47.9907 15.2672 47.8899 15.5198 47.7078 15.7084L35.7078 27.7084C35.5859 27.8309 35.4341 27.9195 35.2675 27.9654C35.1009 28.0113 34.9252 28.0131 34.7578 27.9704L19.3058 24.1084L9.70579 33.7084C9.61312 33.8011 9.50305 33.8747 9.3819 33.9248C9.26075 33.9749 9.13089 34.0006 8.99979 34.0004Z" fill="#EEEBFF"/>
<path d="M47 24C46.7348 24 46.4804 23.8946 46.2929 23.7071C46.1054 23.5196 46 23.2652 46 23V16H39C38.7348 16 38.4804 15.8946 38.2929 15.7071C38.1054 15.5196 38 15.2652 38 15C38 14.7348 38.1054 14.4804 38.2929 14.2929C38.4804 14.1054 38.7348 14 39 14H47C47.2652 14 47.5196 14.1054 47.7071 14.2929C47.8946 14.4804 48 14.7348 48 15V23C48 23.2652 47.8946 23.5196 47.7071 23.7071C47.5196 23.8946 47.2652 24 47 24ZM47 46H1C0.734784 46 0.48043 45.8946 0.292893 45.7071C0.105357 45.5196 0 45.2652 0 45C0 44.7348 0.105357 44.4804 0.292893 44.2929C0.48043 44.1054 0.734784 44 1 44H47C47.2652 44 47.5196 44.1054 47.7071 44.2929C47.8946 44.4804 48 44.7348 48 45C48 45.2652 47.8946 45.5196 47.7071 45.7071C47.5196 45.8946 47.2652 46 47 46Z" fill="#EEEBFF"/>
<path d="M3 48C2.73478 48 2.48043 47.8946 2.29289 47.7071C2.10536 47.5196 2 47.2652 2 47V1C2 0.734784 2.10536 0.48043 2.29289 0.292893C2.48043 0.105357 2.73478 0 3 0C3.26522 0 3.51957 0.105357 3.70711 0.292893C3.89464 0.48043 4 0.734784 4 1V47C4 47.2652 3.89464 47.5196 3.70711 47.7071C3.51957 47.8946 3.26522 48 3 48Z" fill="#EEEBFF"/>
</g>
<defs>
<clipPath id="clip0_198_1724">
<rect width="48" height="48" fill="white"/>
</clipPath>
</defs>
</svg>
