<svg width="48" height="48" viewBox="0 0 48 48" fill="none" xmlns="http://www.w3.org/2000/svg">
<path fill-rule="evenodd" clip-rule="evenodd" d="M12.8939 17.5517C14.3699 20.5037 17.0039 24.0757 20.4639 27.5357C23.9239 30.9957 27.4959 33.6297 30.4479 35.1057C31.9279 35.8457 33.1999 36.2677 34.1939 36.3857C35.2019 36.5057 35.7439 36.2977 36.0199 36.0197C36.2959 35.7437 36.5059 35.1997 36.3859 34.1937C36.2679 33.1997 35.8459 31.9277 35.1059 30.4477C33.6299 27.4957 30.9959 23.9237 27.5359 20.4637C24.0759 17.0037 20.5039 14.3697 17.5519 12.8937C16.0719 12.1537 14.7999 11.7317 13.8059 11.6137C12.7979 11.4937 12.2559 11.7017 11.9799 11.9797C11.7019 12.2557 11.4939 12.7997 11.6139 13.8057C11.7319 14.7997 12.1539 16.0717 12.8939 17.5517ZM9.62789 14.0417C9.47389 12.7457 9.66789 11.4617 10.5639 10.5637C11.4599 9.66969 12.7439 9.47369 14.0419 9.62769C15.3519 9.78369 16.8559 10.3097 18.4479 11.1057C21.6379 12.6997 25.3799 15.4797 28.9479 19.0497C32.5199 22.6197 35.2979 26.3617 36.8939 29.5517C37.6899 31.1437 38.2159 32.6477 38.3739 33.9577C38.5259 35.2537 38.3299 36.5377 37.4339 37.4357C36.5399 38.3297 35.2539 38.5257 33.9579 38.3717C32.6479 38.2157 31.1439 37.6897 29.5519 36.8937C26.3619 35.2977 22.6199 32.5197 19.0519 28.9497C15.4799 25.3797 12.6999 21.6377 11.1039 18.4477C10.3079 16.8557 9.78189 15.3517 9.62389 14.0417H9.62789Z" fill="#EEEBFF"/>
<path fill-rule="evenodd" clip-rule="evenodd" d="M23.1819 5.78352C23.307 5.82331 23.4231 5.88737 23.5235 5.97202C23.6239 6.05667 23.7067 6.16027 23.767 6.2769C23.8274 6.39353 23.8642 6.52091 23.8753 6.65176C23.8864 6.78261 23.8717 6.91438 23.8319 7.03953C22.8419 10.1395 20.6959 13.6095 17.0279 17.2795C13.3679 20.9395 9.73388 23.2535 6.62788 24.2455C6.37513 24.3264 6.1006 24.3036 5.86468 24.1821C5.74786 24.1219 5.64404 24.0393 5.55914 23.939C5.47425 23.8387 5.40994 23.7227 5.36988 23.5975C5.32983 23.4724 5.31482 23.3406 5.32571 23.2096C5.3366 23.0787 5.37317 22.9511 5.43334 22.8343C5.55487 22.5984 5.76513 22.4204 6.01788 22.3395C8.73188 21.4735 12.1019 19.3775 15.6139 15.8635C19.1219 12.3575 21.0579 9.15153 21.9259 6.43153C22.0067 6.17914 22.1843 5.96913 22.4198 5.84763C22.6553 5.72613 22.9294 5.70308 23.1819 5.78352ZM42.4399 25.0395C42.3591 24.7871 42.1815 24.5771 41.946 24.4556C41.7105 24.3341 41.4364 24.3111 41.1839 24.3915C38.0839 25.3815 34.6139 27.5275 30.9459 31.1955C27.2859 34.8555 24.9699 38.4895 23.9799 41.5955C23.9359 41.7216 23.9175 41.8551 23.926 41.9884C23.9344 42.1216 23.9694 42.2518 24.029 42.3713C24.0885 42.4908 24.1714 42.5971 24.2727 42.6841C24.374 42.771 24.4917 42.8368 24.6189 42.8775C24.746 42.9182 24.88 42.9331 25.013 42.9212C25.146 42.9093 25.2752 42.871 25.3931 42.8083C25.511 42.7457 25.6152 42.6601 25.6995 42.5566C25.7838 42.453 25.8465 42.3337 25.8839 42.2055C26.7499 39.4915 28.8479 36.1215 32.3599 32.6095C35.8679 29.1015 39.0719 27.1655 41.7919 26.2975C41.917 26.2577 42.0331 26.1937 42.1335 26.109C42.2339 26.0244 42.3167 25.9208 42.377 25.8041C42.4374 25.6875 42.4742 25.5601 42.4853 25.4293C42.4964 25.2984 42.4817 25.1667 42.4419 25.0415L42.4399 25.0395ZM10.5659 37.4355C10.3784 37.248 10.2731 36.9937 10.2731 36.7285C10.2731 36.4634 10.3784 36.2091 10.5659 36.0215L36.0199 10.5655C36.1127 10.4725 36.223 10.3988 36.3443 10.3484C36.4657 10.298 36.5958 10.2721 36.7272 10.272C36.8586 10.2719 36.9887 10.2977 37.1101 10.3479C37.2316 10.3981 37.3419 10.4717 37.4349 10.5645C37.5279 10.6574 37.6016 10.7676 37.652 10.889C37.7024 11.0103 37.7283 11.1404 37.7284 11.2718C37.7285 11.4032 37.7027 11.5333 37.6525 11.6548C37.6023 11.7762 37.5287 11.8865 37.4359 11.9795L11.9799 37.4355C11.7924 37.623 11.538 37.7283 11.2729 37.7283C11.0077 37.7283 10.7534 37.623 10.5659 37.4355Z" fill="#EEEBFF"/>
<path fill-rule="evenodd" clip-rule="evenodd" d="M11.98 11.9795C10.3712 13.5513 9.09028 15.4267 8.21146 17.497C7.33263 19.5673 6.87337 21.7915 6.86027 24.0405C6.84717 26.2896 7.2805 28.519 8.13516 30.5994C8.98981 32.6798 10.2488 34.57 11.8392 36.1604C13.4295 37.7507 15.3197 39.0097 17.4001 39.8644C19.4805 40.719 21.7099 41.1524 23.959 41.1393C26.2081 41.1262 28.4322 40.6669 30.5025 39.7881C32.5729 38.9092 34.4482 37.6283 36.02 36.0195C39.1468 32.819 40.8858 28.5149 40.8597 24.0405C40.8336 19.5662 39.0447 15.2826 35.8808 12.1187C32.7169 8.95486 28.4333 7.16589 23.959 7.13983C19.4847 7.11377 15.1805 8.85274 11.98 11.9795ZM10.566 37.4335C8.79567 35.6705 7.39045 33.5757 6.43075 31.269C5.47106 28.9622 4.97574 26.4888 4.97315 23.9904C4.97057 21.492 5.46076 19.0176 6.41567 16.7088C7.37058 14.4001 8.77146 12.3023 10.5381 10.5357C12.3048 8.76902 14.4025 7.36814 16.7113 6.41323C19.02 5.45832 21.4944 4.96812 23.9928 4.97071C26.4913 4.9733 28.9646 5.46862 31.2714 6.42831C33.5782 7.38801 35.673 8.79323 37.436 10.5635C40.9992 14.1267 43.0009 18.9594 43.0009 23.9985C43.0009 29.0376 40.9992 33.8704 37.436 37.4335C33.8728 40.9967 29.0401 42.9985 24.001 42.9985C18.9619 42.9985 14.1292 40.9967 10.566 37.4335Z" fill="#EEEBFF"/>
</svg>
