<svg width="48" height="48" viewBox="0 0 48 48" fill="none" xmlns="http://www.w3.org/2000/svg">
<g clip-path="url(#clip0_198_1748)">
<path d="M24 30C23.448 30 23 29.552 23 29V22C23 20.898 22.104 20 21 20C19.896 20 19 20.898 19 22V29C19 29.552 18.552 30 18 30C17.448 30 17 29.552 17 29V22C17 19.794 18.794 18 21 18C23.206 18 25 19.794 25 22V29C25 29.552 24.552 30 24 30Z" fill="#EEEBFF"/>
<path d="M24 26H18C17.448 26 17 25.552 17 25C17 24.448 17.448 24 18 24H24C24.552 24 25 24.448 25 25C25 25.552 24.552 26 24 26Z" fill="#EEEBFF"/>
<path d="M30 30C29.448 30 29 29.552 29 29V19C29 18.448 29.448 18 30 18C30.552 18 31 18.448 31 19V29C31 29.552 30.552 30 30 30Z" fill="#EEEBFF"/>
<path d="M33 38H15C12.242 38 10 35.756 10 33V15C10 12.244 12.242 10 15 10H33C35.758 10 38 12.244 38 15V33C38 35.756 35.758 38 33 38ZM15 12C13.346 12 12 13.346 12 15V33C12 34.654 13.346 36 15 36H33C34.654 36 36 34.654 36 33V15C36 13.346 34.654 12 33 12H15Z" fill="#EEEBFF"/>
<path d="M41 20H37C36.448 20 36 19.552 36 19C36 18.448 36.448 18 37 18H41C41.55 18 42 17.552 42 17V9C42 8.448 42.448 8 43 8C43.552 8 44 8.448 44 9V17C44 18.654 42.654 20 41 20Z" fill="#EEEBFF"/>
<path d="M43 10C40.242 10 38 7.756 38 5C38 2.244 40.242 0 43 0C45.758 0 48 2.244 48 5C48 7.756 45.758 10 43 10ZM43 2C41.346 2 40 3.346 40 5C40 6.654 41.346 8 43 8C44.654 8 46 6.654 46 5C46 3.346 44.654 2 43 2Z" fill="#EEEBFF"/>
<path d="M43 40C42.448 40 42 39.552 42 39V31C42 30.448 41.55 30 41 30H37C36.448 30 36 29.552 36 29C36 28.448 36.448 28 37 28H41C42.654 28 44 29.346 44 31V39C44 39.552 43.552 40 43 40Z" fill="#EEEBFF"/>
<path d="M43 48C40.242 48 38 45.756 38 43C38 40.244 40.242 38 43 38C45.758 38 48 40.244 48 43C48 45.756 45.758 48 43 48ZM43 40C41.346 40 40 41.346 40 43C40 44.654 41.346 46 43 46C44.654 46 46 44.654 46 43C46 41.346 44.654 40 43 40Z" fill="#EEEBFF"/>
<path d="M11 20H7C5.346 20 4 18.654 4 17V9C4 8.448 4.448 8 5 8C5.552 8 6 8.448 6 9V17C6 17.552 6.45 18 7 18H11C11.552 18 12 18.448 12 19C12 19.552 11.552 20 11 20Z" fill="#EEEBFF"/>
<path d="M5 10C2.242 10 0 7.756 0 5C0 2.244 2.242 0 5 0C7.758 0 10 2.244 10 5C10 7.756 7.758 10 5 10ZM5 2C3.346 2 2 3.346 2 5C2 6.654 3.346 8 5 8C6.654 8 8 6.654 8 5C8 3.346 6.654 2 5 2Z" fill="#EEEBFF"/>
<path d="M5 40C4.448 40 4 39.552 4 39V31C4 29.346 5.346 28 7 28H11C11.552 28 12 28.448 12 29C12 29.552 11.552 30 11 30H7C6.45 30 6 30.448 6 31V39C6 39.552 5.552 40 5 40Z" fill="#EEEBFF"/>
<path d="M5 48C2.242 48 0 45.756 0 43C0 40.244 2.242 38 5 38C7.758 38 10 40.244 10 43C10 45.756 7.758 48 5 48ZM5 40C3.346 40 2 41.346 2 43C2 44.654 3.346 46 5 46C6.654 46 8 44.654 8 43C8 41.346 6.654 40 5 40Z" fill="#EEEBFF"/>
</g>
<defs>
<clipPath id="clip0_198_1748">
<rect width="48" height="48" fill="white"/>
</clipPath>
</defs>
</svg>
