<svg width="48" height="48" viewBox="0 0 48 48" fill="none" xmlns="http://www.w3.org/2000/svg">
<path fill-rule="evenodd" clip-rule="evenodd" d="M24 3C24.1344 3 24.2675 3.02709 24.3912 3.07967C24.5149 3.13225 24.6267 3.20922 24.72 3.306L28.494 7.226L33.724 5.718C33.8531 5.68099 33.9884 5.67037 34.1217 5.68677C34.255 5.70317 34.3836 5.74625 34.4999 5.81345C34.6162 5.88065 34.7177 5.97058 34.7985 6.07788C34.8793 6.18519 34.9376 6.30766 34.97 6.438L36.28 11.718L41.56 13.03C41.6904 13.0624 41.8128 13.1207 41.9201 13.2015C42.0274 13.2823 42.1174 13.3838 42.1846 13.5001C42.2518 13.6164 42.2949 13.745 42.3113 13.8784C42.3277 14.0117 42.317 14.1469 42.28 14.276L40.776 19.504L44.694 23.28C44.7908 23.3733 44.8678 23.4851 44.9204 23.6088C44.973 23.7325 45.0001 23.8656 45.0001 24C45.0001 24.1344 44.973 24.2675 44.9204 24.3912C44.8678 24.5149 44.7908 24.6267 44.694 24.72L40.774 28.494L42.282 33.724C42.319 33.8531 42.3297 33.9883 42.3133 34.1216C42.2969 34.2549 42.2538 34.3836 42.1866 34.4999C42.1194 34.6162 42.0294 34.7177 41.9221 34.7985C41.8148 34.8793 41.6924 34.9376 41.562 34.97L36.282 36.28L34.97 41.56C34.9376 41.6903 34.8793 41.8128 34.7985 41.9201C34.7177 42.0274 34.6162 42.1174 34.4999 42.1846C34.3836 42.2517 34.255 42.2948 34.1217 42.3112C33.9884 42.3276 33.8531 42.317 33.724 42.28L28.496 40.776L24.72 44.694C24.6267 44.7908 24.5149 44.8678 24.3912 44.9203C24.2675 44.9729 24.1344 45 24 45C23.8656 45 23.7326 44.9729 23.6089 44.9203C23.4851 44.8678 23.3733 44.7908 23.28 44.694L19.504 40.774L14.276 42.282C14.1469 42.319 14.0117 42.3296 13.8784 42.3132C13.7451 42.2968 13.6164 42.2537 13.5002 42.1866C13.3839 42.1194 13.2823 42.0294 13.2015 41.9221C13.1208 41.8148 13.0624 41.6923 13.03 41.562L11.72 36.282L6.44003 34.97C6.30969 34.9376 6.18721 34.8793 6.07991 34.7985C5.97261 34.7177 5.88267 34.6162 5.81548 34.4999C5.74828 34.3836 5.7052 34.2549 5.6888 34.1216C5.6724 33.9883 5.68302 33.8531 5.72003 33.724L7.22403 28.496L3.30603 24.72C3.20924 24.6267 3.13226 24.5149 3.07968 24.3912C3.0271 24.2675 3 24.1344 3 24C3 23.8656 3.0271 23.7325 3.07968 23.6088C3.13226 23.4851 3.20924 23.3733 3.30603 23.28L7.22603 19.504L5.71803 14.276C5.68102 14.1469 5.6704 14.0117 5.6868 13.8784C5.7032 13.745 5.74628 13.6164 5.81348 13.5001C5.88067 13.3838 5.97061 13.2823 6.07791 13.2015C6.18521 13.1207 6.30769 13.0624 6.43803 13.03L11.718 11.72L13.03 6.44C13.0624 6.30966 13.1208 6.18719 13.2015 6.07988C13.2823 5.97258 13.3839 5.88265 13.5002 5.81545C13.6164 5.74825 13.7451 5.70517 13.8784 5.68877C14.0117 5.67237 14.1469 5.68299 14.276 5.72L19.504 7.224L23.28 3.306C23.3733 3.20922 23.4852 3.13225 23.6089 3.07967C23.7326 3.02709 23.8656 3 24 3ZM24 5.44L20.528 9.046C20.4016 9.17696 20.2419 9.27094 20.066 9.31782C19.8902 9.36469 19.7048 9.36268 19.53 9.312L14.72 7.928L13.516 12.786C13.4723 12.9626 13.3811 13.1239 13.2525 13.2525C13.1239 13.3811 12.9626 13.4722 12.786 13.516L7.92603 14.72L9.31203 19.53C9.36271 19.7048 9.36472 19.8901 9.31784 20.066C9.27097 20.2419 9.17699 20.4016 9.04603 20.528L5.44003 24L9.04403 27.472C9.17499 27.5984 9.26897 27.7581 9.31584 27.934C9.36272 28.1099 9.36071 28.2952 9.31003 28.47L7.92603 33.28L12.784 34.484C12.9606 34.5278 13.1219 34.6189 13.2505 34.7475C13.3791 34.8761 13.4703 35.0374 13.514 35.214L14.718 40.074L19.528 38.686C19.703 38.6356 19.8884 38.6339 20.0643 38.6811C20.2402 38.7283 20.3998 38.8227 20.526 38.954L24 42.56L27.472 38.956C27.5982 38.8247 27.7578 38.7303 27.9337 38.6831C28.1096 38.6359 28.295 38.6376 28.47 38.688L33.28 40.074L34.484 35.216C34.5278 35.0394 34.6189 34.8781 34.7475 34.7495C34.8762 34.6209 35.0375 34.5298 35.214 34.486L40.074 33.282L38.686 28.472C38.6356 28.297 38.6339 28.1116 38.6811 27.9357C38.7284 27.7598 38.8227 27.6002 38.954 27.474L42.56 24L38.956 20.528C38.8247 20.4018 38.7304 20.2422 38.6831 20.0663C38.6359 19.8904 38.6376 19.705 38.688 19.53L40.074 14.72L35.216 13.516C35.0395 13.4722 34.8782 13.3811 34.7495 13.2525C34.6209 13.1239 34.5298 12.9626 34.486 12.786L33.282 7.926L28.472 9.312C28.2972 9.36268 28.1119 9.36469 27.936 9.31782C27.7602 9.27094 27.6004 9.17696 27.474 9.046L24 5.44Z" fill="#EEEBFF"/>
<path fill-rule="evenodd" clip-rule="evenodd" d="M30.7078 19.2918C30.8009 19.3847 30.8748 19.4951 30.9252 19.6166C30.9756 19.7381 31.0016 19.8683 31.0016 19.9998C31.0016 20.1314 30.9756 20.2616 30.9252 20.3831C30.8748 20.5046 30.8009 20.6149 30.7078 20.7078L22.7078 28.7078C22.6149 28.801 22.5046 28.8748 22.3831 28.9253C22.2616 28.9757 22.1313 29.0016 21.9998 29.0016C21.8683 29.0016 21.738 28.9757 21.6165 28.9253C21.495 28.8748 21.3847 28.801 21.2918 28.7078L17.2918 24.7078C17.1988 24.6149 17.1251 24.5045 17.0748 24.383C17.0244 24.2615 16.9985 24.1313 16.9985 23.9998C16.9985 23.8683 17.0244 23.7381 17.0748 23.6167C17.1251 23.4952 17.1988 23.3848 17.2918 23.2918C17.3848 23.1989 17.4952 23.1251 17.6166 23.0748C17.7381 23.0245 17.8683 22.9986 17.9998 22.9986C18.1313 22.9986 18.2615 23.0245 18.383 23.0748C18.5044 23.1251 18.6148 23.1989 18.7078 23.2918L21.9998 26.5858L29.2918 19.2918C29.3847 19.1987 29.495 19.1248 29.6165 19.0744C29.738 19.024 29.8683 18.998 29.9998 18.998C30.1313 18.998 30.2616 19.024 30.3831 19.0744C30.5046 19.1248 30.6149 19.1987 30.7078 19.2918Z" fill="#EEEBFF"/>
</svg>
