<svg width="48" height="48" viewBox="0 0 48 48" fill="none" xmlns="http://www.w3.org/2000/svg">
<g clip-path="url(#clip0_198_1082)">
<path d="M39 48H9C7.67441 47.9984 6.40356 47.4711 5.46622 46.5338C4.52888 45.5964 4.00159 44.3256 4 43V5C4 2.244 6.244 0 9 0H39C41.756 0 44 2.244 44 5V43C44 45.756 41.756 48 39 48ZM9 2C7.346 2 6 3.346 6 5V43C6 44.654 7.346 46 9 46H39C40.654 46 42 44.654 42 43V5C42 3.346 40.654 2 39 2H9Z" fill="#EEEBFF"/>
<path d="M23 20C22.7348 20 22.4804 19.8946 22.2929 19.7071C22.1054 19.5196 22 19.2652 22 19V18H12V19C12 19.2652 11.8946 19.5196 11.7071 19.7071C11.5196 19.8946 11.2652 20 11 20C10.7348 20 10.4804 19.8946 10.2929 19.7071C10.1054 19.5196 10 19.2652 10 19V17C10 16.7348 10.1054 16.4804 10.2929 16.2929C10.4804 16.1054 10.7348 16 11 16H23C23.2652 16 23.5196 16.1054 23.7071 16.2929C23.8946 16.4804 24 16.7348 24 17V19C24 19.2652 23.8946 19.5196 23.7071 19.7071C23.5196 19.8946 23.2652 20 23 20Z" fill="#EEEBFF"/>
<path d="M17 30C16.7348 30 16.4804 29.8946 16.2929 29.7071C16.1054 29.5196 16 29.2652 16 29V17C16 16.7348 16.1054 16.4804 16.2929 16.2929C16.4804 16.1054 16.7348 16 17 16C17.2652 16 17.5196 16.1054 17.7071 16.2929C17.8946 16.4804 18 16.7348 18 17V29C18 29.2652 17.8946 29.5196 17.7071 29.7071C17.5196 29.8946 17.2652 30 17 30Z" fill="#EEEBFF"/>
<path d="M19 30H15C14.7348 30 14.4804 29.8946 14.2929 29.7071C14.1054 29.5196 14 29.2652 14 29C14 28.7348 14.1054 28.4804 14.2929 28.2929C14.4804 28.1054 14.7348 28 15 28H19C19.2652 28 19.5196 28.1054 19.7071 28.2929C19.8946 28.4804 20 28.7348 20 29C20 29.2652 19.8946 29.5196 19.7071 29.7071C19.5196 29.8946 19.2652 30 19 30ZM37 18H29C28.7348 18 28.4804 17.8946 28.2929 17.7071C28.1054 17.5196 28 17.2652 28 17C28 16.7348 28.1054 16.4804 28.2929 16.2929C28.4804 16.1054 28.7348 16 29 16H37C37.2652 16 37.5196 16.1054 37.7071 16.2929C37.8946 16.4804 38 16.7348 38 17C38 17.2652 37.8946 17.5196 37.7071 17.7071C37.5196 17.8946 37.2652 18 37 18ZM37 24H29C28.7348 24 28.4804 23.8946 28.2929 23.7071C28.1054 23.5196 28 23.2652 28 23C28 22.7348 28.1054 22.4804 28.2929 22.2929C28.4804 22.1054 28.7348 22 29 22H37C37.2652 22 37.5196 22.1054 37.7071 22.2929C37.8946 22.4804 38 22.7348 38 23C38 23.2652 37.8946 23.5196 37.7071 23.7071C37.5196 23.8946 37.2652 24 37 24ZM37 30H29C28.7348 30 28.4804 29.8946 28.2929 29.7071C28.1054 29.5196 28 29.2652 28 29C28 28.7348 28.1054 28.4804 28.2929 28.2929C28.4804 28.1054 28.7348 28 29 28H37C37.2652 28 37.5196 28.1054 37.7071 28.2929C37.8946 28.4804 38 28.7348 38 29C38 29.2652 37.8946 29.5196 37.7071 29.7071C37.5196 29.8946 37.2652 30 37 30ZM37 36H11C10.7348 36 10.4804 35.8946 10.2929 35.7071C10.1054 35.5196 10 35.2652 10 35C10 34.7348 10.1054 34.4804 10.2929 34.2929C10.4804 34.1054 10.7348 34 11 34H37C37.2652 34 37.5196 34.1054 37.7071 34.2929C37.8946 34.4804 38 34.7348 38 35C38 35.2652 37.8946 35.5196 37.7071 35.7071C37.5196 35.8946 37.2652 36 37 36ZM37 42H11C10.7348 42 10.4804 41.8946 10.2929 41.7071C10.1054 41.5196 10 41.2652 10 41C10 40.7348 10.1054 40.4804 10.2929 40.2929C10.4804 40.1054 10.7348 40 11 40H37C37.2652 40 37.5196 40.1054 37.7071 40.2929C37.8946 40.4804 38 40.7348 38 41C38 41.2652 37.8946 41.5196 37.7071 41.7071C37.5196 41.8946 37.2652 42 37 42Z" fill="#EEEBFF"/>
</g>
<defs>
<clipPath id="clip0_198_1082">
<rect width="48" height="48" fill="white"/>
</clipPath>
</defs>
</svg>
