<svg width="32" height="32" viewBox="0 0 32 32" fill="none" xmlns="http://www.w3.org/2000/svg">
<g clip-path="url(#clip0_155_1644)">
<path d="M11.3333 20H3.33333C2.4496 19.9989 1.60237 19.6474 0.97748 19.0225C0.352588 18.3976 0.00105857 17.5504 0 16.6667L0 3.33333C0 1.496 1.49467 0 3.33333 0H11.3333C13.172 0 14.6667 1.496 14.6667 3.33333V16.6667C14.6667 18.504 13.172 20 11.3333 20ZM3.33333 1.33333C2.23067 1.33333 1.33333 2.23067 1.33333 3.33333V16.6667C1.33333 17.7693 2.23067 18.6667 3.33333 18.6667H11.3333C12.436 18.6667 13.3333 17.7693 13.3333 16.6667V3.33333C13.3333 2.23067 12.436 1.33333 11.3333 1.33333H3.33333Z" fill="#EEEBFF"/>
<path d="M10 5.33333H4.66667C4.48986 5.33333 4.32029 5.2631 4.19526 5.13807C4.07024 5.01305 4 4.84348 4 4.66667C4 4.48986 4.07024 4.32029 4.19526 4.19526C4.32029 4.07024 4.48986 4 4.66667 4H10C10.1768 4 10.3464 4.07024 10.4714 4.19526C10.5964 4.32029 10.6667 4.48986 10.6667 4.66667C10.6667 4.84348 10.5964 5.01305 10.4714 5.13807C10.3464 5.2631 10.1768 5.33333 10 5.33333ZM10 10.6667H4.66667C4.48986 10.6667 4.32029 10.5964 4.19526 10.4714C4.07024 10.3464 4 10.1768 4 10C4 9.82319 4.07024 9.65362 4.19526 9.5286C4.32029 9.40357 4.48986 9.33333 4.66667 9.33333H10C10.1768 9.33333 10.3464 9.40357 10.4714 9.5286C10.5964 9.65362 10.6667 9.82319 10.6667 10C10.6667 10.1768 10.5964 10.3464 10.4714 10.4714C10.3464 10.5964 10.1768 10.6667 10 10.6667ZM10 16H4.66667C4.48986 16 4.32029 15.9298 4.19526 15.8047C4.07024 15.6797 4 15.5101 4 15.3333C4 15.1565 4.07024 14.987 4.19526 14.8619C4.32029 14.7369 4.48986 14.6667 4.66667 14.6667H10C10.1768 14.6667 10.3464 14.7369 10.4714 14.8619C10.5964 14.987 10.6667 15.1565 10.6667 15.3333C10.6667 15.5101 10.5964 15.6797 10.4714 15.8047C10.3464 15.9298 10.1768 16 10 16ZM28.6667 20H20.6667C19.7829 19.9989 18.9357 19.6474 18.3108 19.0225C17.6859 18.3976 17.3344 17.5504 17.3333 16.6667V3.33333C17.3333 1.496 18.828 0 20.6667 0H28.6667C30.5053 0 32 1.496 32 3.33333V16.6667C32 18.504 30.5053 20 28.6667 20ZM20.6667 1.33333C19.564 1.33333 18.6667 2.23067 18.6667 3.33333V16.6667C18.6667 17.7693 19.564 18.6667 20.6667 18.6667H28.6667C29.7693 18.6667 30.6667 17.7693 30.6667 16.6667V3.33333C30.6667 2.23067 29.7693 1.33333 28.6667 1.33333H20.6667Z" fill="#EEEBFF"/>
<path d="M27.3337 5.33333H22.0003C21.8235 5.33333 21.6539 5.2631 21.5289 5.13807C21.4039 5.01305 21.3337 4.84348 21.3337 4.66667C21.3337 4.48986 21.4039 4.32029 21.5289 4.19526C21.6539 4.07024 21.8235 4 22.0003 4H27.3337C27.5105 4 27.68 4.07024 27.8051 4.19526C27.9301 4.32029 28.0003 4.48986 28.0003 4.66667C28.0003 4.84348 27.9301 5.01305 27.8051 5.13807C27.68 5.2631 27.5105 5.33333 27.3337 5.33333ZM27.3337 10.6667H22.0003C21.8235 10.6667 21.6539 10.5964 21.5289 10.4714C21.4039 10.3464 21.3337 10.1768 21.3337 10C21.3337 9.82319 21.4039 9.65362 21.5289 9.5286C21.6539 9.40357 21.8235 9.33333 22.0003 9.33333H27.3337C27.5105 9.33333 27.68 9.40357 27.8051 9.5286C27.9301 9.65362 28.0003 9.82319 28.0003 10C28.0003 10.1768 27.9301 10.3464 27.8051 10.4714C27.68 10.5964 27.5105 10.6667 27.3337 10.6667ZM27.3337 16H22.0003C21.8235 16 21.6539 15.9298 21.5289 15.8047C21.4039 15.6797 21.3337 15.5101 21.3337 15.3333C21.3337 15.1565 21.4039 14.987 21.5289 14.8619C21.6539 14.7369 21.8235 14.6667 22.0003 14.6667H27.3337C27.5105 14.6667 27.68 14.7369 27.8051 14.8619C27.9301 14.987 28.0003 15.1565 28.0003 15.3333C28.0003 15.5101 27.9301 15.6797 27.8051 15.8047C27.68 15.9298 27.5105 16 27.3337 16ZM12.667 28.6667H10.0003C9.1166 28.6656 8.26936 28.3141 7.64447 27.6892C7.01958 27.0643 6.66805 26.2171 6.66699 25.3333V19.3333H8.00033V25.3333C8.00033 26.436 8.89766 27.3333 10.0003 27.3333H12.667V28.6667ZM22.0003 28.6667H19.3337V27.3333H22.0003C23.103 27.3333 24.0003 26.436 24.0003 25.3333V19.3333H25.3337V25.3333C25.3337 27.1707 23.839 28.6667 22.0003 28.6667Z" fill="#EEEBFF"/>
<path d="M18 32H14C12.8973 32 12 31.1027 12 30V26C12 24.8973 12.8973 24 14 24H18C19.1027 24 20 24.8973 20 26V30C20 31.1027 19.1027 32 18 32ZM14 25.3333C13.8232 25.3333 13.6536 25.4036 13.5286 25.5286C13.4036 25.6536 13.3333 25.8232 13.3333 26V30C13.3333 30.1768 13.4036 30.3464 13.5286 30.4714C13.6536 30.5964 13.8232 30.6667 14 30.6667H18C18.1768 30.6667 18.3464 30.5964 18.4714 30.4714C18.5964 30.3464 18.6667 30.1768 18.6667 30V26C18.6667 25.8232 18.5964 25.6536 18.4714 25.5286C18.3464 25.4036 18.1768 25.3333 18 25.3333H14Z" fill="#EEEBFF"/>
</g>
<defs>
<clipPath id="clip0_155_1644">
<rect width="32" height="32" fill="white"/>
</clipPath>
</defs>
</svg>
