<svg width="32" height="32" viewBox="0 0 32 32" fill="none" xmlns="http://www.w3.org/2000/svg">
<g clip-path="url(#clip0_155_1875)">
<path d="M15.9997 20C15.8229 20 15.6533 19.9298 15.5283 19.8047C15.4032 19.6797 15.333 19.5101 15.333 19.3333V14.6667C15.3177 14.3234 15.1705 13.9992 14.9221 13.7617C14.6737 13.5242 14.3433 13.3916 13.9997 13.3916C13.656 13.3916 13.3256 13.5242 13.0773 13.7617C12.8289 13.9992 12.6817 14.3234 12.6663 14.6667V19.3333C12.6663 19.5101 12.5961 19.6797 12.4711 19.8047C12.3461 19.9298 12.1765 20 11.9997 20C11.8229 20 11.6533 19.9298 11.5283 19.8047C11.4032 19.6797 11.333 19.5101 11.333 19.3333V14.6667C11.333 13.196 12.529 12 13.9997 12C15.4703 12 16.6663 13.196 16.6663 14.6667V19.3333C16.6663 19.5101 16.5961 19.6797 16.4711 19.8047C16.3461 19.9298 16.1765 20 15.9997 20Z" fill="#EEEBFF"/>
<path d="M16 17.3333H12C11.8232 17.3333 11.6536 17.2631 11.5286 17.1381C11.4036 17.013 11.3333 16.8435 11.3333 16.6667C11.3333 16.4899 11.4036 16.3203 11.5286 16.1953C11.6536 16.0702 11.8232 16 12 16H16C16.1768 16 16.3464 16.0702 16.4714 16.1953C16.5964 16.3203 16.6667 16.4899 16.6667 16.6667C16.6667 16.8435 16.5964 17.013 16.4714 17.1381C16.3464 17.2631 16.1768 17.3333 16 17.3333ZM20 20C19.8232 20 19.6536 19.9298 19.5286 19.8047C19.4036 19.6797 19.3333 19.5101 19.3333 19.3333V12.6667C19.3333 12.4899 19.4036 12.3203 19.5286 12.1953C19.6536 12.0702 19.8232 12 20 12C20.1768 12 20.3464 12.0702 20.4714 12.1953C20.5964 12.3203 20.6667 12.4899 20.6667 12.6667V19.3333C20.6667 19.5101 20.5964 19.6797 20.4714 19.8047C20.3464 19.9298 20.1768 20 20 20ZM31.3333 12H24.6667C24.4899 12 24.3203 11.9298 24.1953 11.8047C24.0702 11.6797 24 11.5101 24 11.3333C24 11.1565 24.0702 10.987 24.1953 10.8619C24.3203 10.7369 24.4899 10.6667 24.6667 10.6667H30.6667V4.66667C30.6667 4.48986 30.7369 4.32029 30.8619 4.19526C30.987 4.07024 31.1565 4 31.3333 4C31.5101 4 31.6797 4.07024 31.8047 4.19526C31.9298 4.32029 32 4.48986 32 4.66667V11.3333C32 11.5101 31.9298 11.6797 31.8047 11.8047C31.6797 11.9298 31.5101 12 31.3333 12ZM0.666667 28C0.489856 28 0.320286 27.9298 0.195262 27.8047C0.0702379 27.6797 0 27.5101 0 27.3333V20.6667C0 20.4899 0.0702379 20.3203 0.195262 20.1953C0.320286 20.0702 0.489856 20 0.666667 20H7.33333C7.51014 20 7.67971 20.0702 7.80474 20.1953C7.92976 20.3203 8 20.4899 8 20.6667C8 20.8435 7.92976 21.013 7.80474 21.1381C7.67971 21.2631 7.51014 21.3333 7.33333 21.3333H1.33333V27.3333C1.33333 27.5101 1.2631 27.6797 1.13807 27.8047C1.01305 27.9298 0.843478 28 0.666667 28Z" fill="#EEEBFF"/>
<path d="M0.800771 14.6667C0.705897 14.6665 0.612148 14.6461 0.525741 14.6069C0.439333 14.5678 0.362243 14.5107 0.29958 14.4394C0.236918 14.3682 0.190115 14.2844 0.162276 14.1937C0.134437 14.103 0.126198 14.0075 0.138105 13.9133C1.16477 5.98133 7.98344 0 15.9994 0C22.8221 0 29.4261 4.388 31.7021 10.432C31.7643 10.5975 31.7583 10.7809 31.6853 10.942C31.6491 11.0217 31.5976 11.0935 31.5337 11.1534C31.4698 11.2132 31.3947 11.2599 31.3128 11.2907C31.1473 11.3529 30.9638 11.3469 30.8028 11.2738C30.6418 11.2008 30.5163 11.0668 30.4541 10.9013C28.3661 5.35733 22.2874 1.33333 15.9994 1.33333C8.65144 1.33333 2.4021 6.816 1.46077 14.0853C1.44006 14.2458 1.36167 14.3933 1.24023 14.5003C1.1188 14.6072 0.962599 14.6664 0.800771 14.6667ZM15.9994 32C9.16344 32 2.55944 27.612 0.295438 21.5667C0.233377 21.4008 0.239742 21.2171 0.313131 21.056C0.38652 20.8948 0.520923 20.7694 0.686771 20.7073C0.85262 20.6453 1.03633 20.6516 1.19749 20.725C1.35864 20.7984 1.48404 20.9328 1.5461 21.0987C3.61944 26.6427 9.69811 30.6667 15.9994 30.6667C23.3474 30.6667 29.5968 25.184 30.5381 17.9147C30.5609 17.7391 30.6525 17.5798 30.7928 17.4718C30.9331 17.3637 31.1105 17.3159 31.2861 17.3387C31.4617 17.3615 31.621 17.4531 31.729 17.5934C31.837 17.7337 31.8849 17.9111 31.8621 18.0867C30.8341 26.0187 24.0154 32 15.9994 32Z" fill="#EEEBFF"/>
</g>
<defs>
<clipPath id="clip0_155_1875">
<rect width="32" height="32" fill="white"/>
</clipPath>
</defs>
</svg>
