<svg width="32" height="32" viewBox="0 0 32 32" fill="none" xmlns="http://www.w3.org/2000/svg">
<g clip-path="url(#clip0_155_1246)">
<path d="M15.9997 19.9997C15.8229 19.9997 15.6533 19.9295 15.5283 19.8044C15.4032 19.6794 15.333 19.5099 15.333 19.333V18.3317C15.333 18.1549 15.4032 17.9853 15.5283 17.8603C15.6533 17.7353 15.8229 17.665 15.9997 17.665C16.1765 17.665 16.3461 17.7353 16.4711 17.8603C16.5961 17.9853 16.6663 18.1549 16.6663 18.3317V19.333C16.6663 19.5099 16.5961 19.6794 16.4711 19.8044C16.3461 19.9295 16.1765 19.9997 15.9997 19.9997Z" fill="#EEEBFF"/>
<path d="M16.333 18.667H13.9997C13.8229 18.667 13.6533 18.5968 13.5283 18.4717C13.4032 18.3467 13.333 18.1771 13.333 18.0003C13.333 17.8235 13.4032 17.6539 13.5283 17.5289C13.6533 17.4039 13.8229 17.3337 13.9997 17.3337H16.333C16.5982 17.3337 16.8526 17.2283 17.0401 17.0408C17.2277 16.8532 17.333 16.5989 17.333 16.3337C17.333 16.0684 17.2277 15.8141 17.0401 15.6266C16.8526 15.439 16.5982 15.3337 16.333 15.3337H15.6663C14.3797 15.3337 13.333 14.287 13.333 13.0003C13.333 11.7137 14.3797 10.667 15.6663 10.667H17.9997C18.1765 10.667 18.3461 10.7372 18.4711 10.8623C18.5961 10.9873 18.6663 11.1568 18.6663 11.3337C18.6663 11.5105 18.5961 11.68 18.4711 11.8051C18.3461 11.9301 18.1765 12.0003 17.9997 12.0003H15.6663C15.4011 12.0003 15.1468 12.1057 14.9592 12.2932C14.7717 12.4808 14.6663 12.7351 14.6663 13.0003C14.6663 13.2655 14.7717 13.5199 14.9592 13.7074C15.1468 13.895 15.4011 14.0003 15.6663 14.0003H16.333C17.6197 14.0003 18.6663 15.047 18.6663 16.3337C18.6663 17.6203 17.6197 18.667 16.333 18.667Z" fill="#EEEBFF"/>
<path d="M15.9997 11.6687C15.8229 11.6687 15.6533 11.5984 15.5283 11.4734C15.4032 11.3484 15.333 11.1788 15.333 11.002V10.0007C15.333 9.82384 15.4032 9.65427 15.5283 9.52925C15.6533 9.40422 15.8229 9.33398 15.9997 9.33398C16.1765 9.33398 16.3461 9.40422 16.4711 9.52925C16.5961 9.65427 16.6663 9.82384 16.6663 10.0007V11.002C16.6663 11.1788 16.5961 11.3484 16.4711 11.4734C16.3461 11.5984 16.1765 11.6687 15.9997 11.6687Z" fill="#EEEBFF"/>
<path d="M16 22.667C11.588 22.667 8 19.079 8 14.667C8 10.255 11.588 6.66699 16 6.66699C20.412 6.66699 24 10.255 24 14.667C24 19.079 20.412 22.667 16 22.667ZM16 8.00033C12.324 8.00033 9.33333 10.991 9.33333 14.667C9.33333 18.343 12.324 21.3337 16 21.3337C19.676 21.3337 22.6667 18.343 22.6667 14.667C22.6667 10.991 19.676 8.00033 16 8.00033ZM16 29.3337C15.8232 29.3337 15.6536 29.2634 15.5286 29.1384C15.4036 29.0134 15.3333 28.8438 15.3333 28.667C15.3333 28.4902 15.4036 28.3206 15.5286 28.1956C15.6536 28.0706 15.8232 28.0003 16 28.0003C23.352 28.0003 29.3333 22.019 29.3333 14.667C29.3333 14.4902 29.4036 14.3206 29.5286 14.1956C29.6536 14.0706 29.8232 14.0003 30 14.0003C30.1768 14.0003 30.3464 14.0706 30.4714 14.1956C30.5964 14.3206 30.6667 14.4902 30.6667 14.667C30.6667 22.7537 24.0867 29.3337 16 29.3337Z" fill="#EEEBFF"/>
<path d="M29.213 10.7335C29.0744 10.7333 28.9394 10.6901 28.8264 10.6098C28.7134 10.5296 28.6282 10.4163 28.5823 10.2855C27.6748 7.67115 25.9756 5.40435 23.7206 3.80007C21.4657 2.19578 18.7671 1.33367 15.9997 1.33351C13.0092 1.31843 10.1051 2.33515 7.77701 4.21218C7.70925 4.27074 7.63039 4.31505 7.54513 4.34247C7.45987 4.36988 7.36996 4.37984 7.28077 4.37174C7.19158 4.36364 7.10494 4.33765 7.02601 4.29533C6.94708 4.25301 6.87749 4.19521 6.82139 4.1254C6.76529 4.05559 6.72384 3.97519 6.69949 3.88901C6.67515 3.80282 6.66842 3.71261 6.67971 3.62377C6.691 3.53493 6.72007 3.44927 6.7652 3.37191C6.81032 3.29455 6.87057 3.22707 6.94234 3.17351C9.50614 1.10464 12.7053 -0.0162166 15.9997 0.000177315C22.2397 0.000177315 27.8037 3.95884 29.8437 9.84818C29.8783 9.9487 29.8884 10.056 29.8731 10.1612C29.8579 10.2664 29.8178 10.3665 29.7561 10.4531C29.6944 10.5397 29.613 10.6103 29.5185 10.6591C29.424 10.7078 29.3193 10.7334 29.213 10.7335ZM11.333 28.5202C11.2577 28.5201 11.1829 28.5075 11.1117 28.4828C8.25259 27.4747 5.77666 25.6044 4.02524 23.1299C2.27383 20.6554 1.33319 17.6985 1.33301 14.6668C1.33301 11.7068 2.21301 8.86551 3.87701 6.44951C3.92451 6.37278 3.9871 6.30648 4.06098 6.25465C4.13486 6.20282 4.2185 6.16653 4.30682 6.14798C4.39514 6.12943 4.48631 6.12901 4.5748 6.14674C4.66329 6.16446 4.74726 6.19997 4.82162 6.25111C4.89598 6.30225 4.95919 6.36796 5.0074 6.44425C5.05562 6.52054 5.08784 6.60582 5.10212 6.69493C5.1164 6.78405 5.11244 6.87513 5.09047 6.96266C5.06851 7.0502 5.029 7.13236 4.97434 7.20418C3.46446 9.39936 2.65937 12.0025 2.66634 14.6668C2.66613 17.4224 3.52096 20.1101 5.1129 22.3593C6.70485 24.6085 8.95548 26.3082 11.5543 27.2242C11.7031 27.2762 11.8286 27.3792 11.9087 27.5149C11.9887 27.6507 12.0181 27.8104 11.9915 27.9657C11.965 28.1211 11.8843 28.262 11.7638 28.3635C11.6432 28.465 11.4906 28.5205 11.333 28.5202ZM17.9997 32.0002C17.8228 32.0002 17.6531 31.9302 17.5277 31.8055L14.861 29.1388C14.736 29.0138 14.6658 28.8443 14.6658 28.6675C14.6658 28.4907 14.736 28.3212 14.861 28.1962L17.5277 25.5295C17.6534 25.4081 17.8218 25.3409 17.9966 25.3424C18.1714 25.3439 18.3386 25.414 18.4622 25.5376C18.5858 25.6612 18.6559 25.8284 18.6575 26.0032C18.659 26.178 18.5918 26.3464 18.4703 26.4722L16.2757 28.6668L18.4703 30.8615C18.5637 30.9547 18.6274 31.0734 18.6533 31.2028C18.6791 31.3322 18.666 31.4663 18.6156 31.5882C18.5653 31.7101 18.4798 31.8143 18.3702 31.8877C18.2605 31.961 18.1316 32.0002 17.9997 32.0002Z" fill="#EEEBFF"/>
<path d="M5.5653 10.6668C5.41864 10.6668 5.27605 10.6185 5.15962 10.5293C5.0432 10.4402 4.95943 10.3151 4.9213 10.1734L4.05863 6.95344L0.838633 7.81611C0.668945 7.8584 0.489433 7.83232 0.338793 7.7435C0.188152 7.65467 0.0784453 7.51021 0.0333202 7.34125C-0.0118048 7.1723 0.0112653 6.99237 0.0975578 6.84027C0.18385 6.68816 0.326455 6.57605 0.494633 6.52811L4.35863 5.49344C4.52921 5.4489 4.71046 5.47331 4.86318 5.56139C5.01589 5.64948 5.12778 5.79415 5.17463 5.96411L6.2093 9.82678C6.23591 9.9256 6.23941 10.0292 6.21952 10.1296C6.19964 10.23 6.1569 10.3245 6.09463 10.4057C6.03236 10.487 5.95222 10.5528 5.86043 10.598C5.76863 10.6433 5.66765 10.6668 5.5653 10.6668ZM29.3333 11.4641C29.2162 11.4645 29.1012 11.4336 29 11.3748L25.536 9.37478C25.4595 9.33132 25.3925 9.27318 25.3386 9.20369C25.2847 9.13421 25.2451 9.05475 25.2221 8.9699C25.1991 8.88505 25.193 8.79649 25.2044 8.7093C25.2157 8.62211 25.2442 8.53803 25.2881 8.46189C25.3321 8.38575 25.3907 8.31906 25.4605 8.26565C25.5304 8.21225 25.6101 8.17318 25.6951 8.15071C25.7801 8.12824 25.8687 8.1228 25.9558 8.13471C26.0429 8.14662 26.1268 8.17564 26.2026 8.22011L29.0893 9.88678L30.756 7.00011C30.7994 6.92368 30.8576 6.8566 30.9271 6.80273C30.9965 6.74886 31.076 6.70927 31.1608 6.68624C31.2457 6.6632 31.3343 6.65717 31.4214 6.66851C31.5086 6.67984 31.5927 6.70831 31.6689 6.75227C31.745 6.79623 31.8117 6.85481 31.8651 6.92466C31.9185 6.9945 31.9576 7.07421 31.98 7.15921C32.0025 7.24421 32.0079 7.33282 31.996 7.41993C31.9841 7.50703 31.9551 7.59093 31.9106 7.66678L29.9106 11.1308C29.852 11.232 29.7678 11.3161 29.6665 11.3746C29.5652 11.4331 29.4503 11.464 29.3333 11.4641Z" fill="#EEEBFF"/>
</g>
<defs>
<clipPath id="clip0_155_1246">
<rect width="32" height="32" fill="white"/>
</clipPath>
</defs>
</svg>
