<svg width="32" height="32" viewBox="0 0 32 32" fill="none" xmlns="http://www.w3.org/2000/svg">
<g clip-path="url(#clip0_155_69)">
<path d="M16 8C13.7947 8 12 6.20533 12 4C12 1.79467 13.7947 0 16 0C18.2053 0 20 1.79467 20 4C20 6.20533 18.2053 8 16 8ZM16 1.33333C14.5293 1.33333 13.3333 2.52933 13.3333 4C13.3333 5.47067 14.5293 6.66667 16 6.66667C17.4707 6.66667 18.6667 5.47067 18.6667 4C18.6667 2.52933 17.4707 1.33333 16 1.33333ZM16 32C13.7947 32 12 30.2053 12 28C12 25.7947 13.7947 24 16 24C18.2053 24 20 25.7947 20 28C20 30.2053 18.2053 32 16 32ZM16 25.3333C14.5293 25.3333 13.3333 26.5293 13.3333 28C13.3333 29.4707 14.5293 30.6667 16 30.6667C17.4707 30.6667 18.6667 29.4707 18.6667 28C18.6667 26.5293 17.4707 25.3333 16 25.3333ZM16 20C13.7947 20 12 18.2053 12 16C12 13.7947 13.7947 12 16 12C18.2053 12 20 13.7947 20 16C20 18.2053 18.2053 20 16 20ZM16 13.3333C14.5293 13.3333 13.3333 14.5293 13.3333 16C13.3333 17.4707 14.5293 18.6667 16 18.6667C17.4707 18.6667 18.6667 17.4707 18.6667 16C18.6667 14.5293 17.4707 13.3333 16 13.3333ZM28 14C25.7947 14 24 12.2053 24 10C24 7.79467 25.7947 6 28 6C30.2053 6 32 7.79467 32 10C32 12.2053 30.2053 14 28 14ZM28 7.33333C26.5293 7.33333 25.3333 8.52933 25.3333 10C25.3333 11.4707 26.5293 12.6667 28 12.6667C29.4707 12.6667 30.6667 11.4707 30.6667 10C30.6667 8.52933 29.4707 7.33333 28 7.33333ZM4 14C1.79467 14 0 12.2053 0 10C0 7.79467 1.79467 6 4 6C6.20533 6 8 7.79467 8 10C8 12.2053 6.20533 14 4 14ZM4 7.33333C2.52933 7.33333 1.33333 8.52933 1.33333 10C1.33333 11.4707 2.52933 12.6667 4 12.6667C5.47067 12.6667 6.66667 11.4707 6.66667 10C6.66667 8.52933 5.47067 7.33333 4 7.33333ZM28 26C25.7947 26 24 24.2053 24 22C24 19.7947 25.7947 18 28 18C30.2053 18 32 19.7947 32 22C32 24.2053 30.2053 26 28 26ZM28 19.3333C26.5293 19.3333 25.3333 20.5293 25.3333 22C25.3333 23.4707 26.5293 24.6667 28 24.6667C29.4707 24.6667 30.6667 23.4707 30.6667 22C30.6667 20.5293 29.4707 19.3333 28 19.3333ZM4 26C1.79467 26 0 24.2053 0 22C0 19.7947 1.79467 18 4 18C6.20533 18 8 19.7947 8 22C8 24.2053 6.20533 26 4 26ZM4 19.3333C2.52933 19.3333 1.33333 20.5293 1.33333 22C1.33333 23.4707 2.52933 24.6667 4 24.6667C5.47067 24.6667 6.66667 23.4707 6.66667 22C6.66667 20.5293 5.47067 19.3333 4 19.3333Z" fill="#EEEBFF"/>
<path d="M6.67773 7.90679L12.7311 4.89746L13.3244 6.09213L7.27107 9.10146L6.67773 7.90679ZM18.6777 13.9068L24.7311 10.8975L25.3244 12.0908L19.2711 15.1015L18.6777 13.9068ZM18.6777 6.09079L19.2724 4.89746L25.3244 7.91079L24.7297 9.10413L18.6777 6.09079ZM6.67773 12.0908L7.2724 10.8975L13.3231 13.9108L12.7297 15.1041L6.67773 12.0908ZM18.6777 25.9068L24.7311 22.8975L25.3244 24.0908L19.2711 27.1015L18.6777 25.9068ZM6.67773 19.9068L12.7311 16.8975L13.3244 18.0921L7.27107 21.1015L6.67773 19.9068ZM6.67773 24.0908L7.2724 22.8975L13.3231 25.9108L12.7297 27.1041L6.67773 24.0908ZM18.6777 18.0908L19.2724 16.8975L25.3244 19.9108L24.7297 21.1041L18.6777 18.0908Z" fill="#EEEBFF"/>
</g>
<defs>
<clipPath id="clip0_155_69">
<rect width="32" height="32" fill="white"/>
</clipPath>
</defs>
</svg>
