<svg width="32" height="32" viewBox="0 0 32 32" fill="none" xmlns="http://www.w3.org/2000/svg">
<g clip-path="url(#clip0_155_1161)">
<path d="M18.2665 32H13.7332C13.2803 31.9973 12.8417 31.8414 12.4887 31.5577C12.1357 31.2739 11.8892 30.8791 11.7892 30.4373L11.1745 27.7067C10.1344 27.2818 9.15803 26.7151 8.27319 26.0227L5.61319 26.8613C5.17774 26.9996 4.70812 26.9847 4.28225 26.8193C3.85638 26.6539 3.49987 26.3479 3.27186 25.952L1.01053 22.04C0.786548 21.6459 0.701462 21.1879 0.768922 20.7397C0.836381 20.2914 1.05247 19.8788 1.38253 19.568L3.43853 17.6787C3.29978 16.5639 3.29978 15.4361 3.43853 14.3213L1.38919 12.4373C1.05742 12.1279 0.839307 11.7159 0.769905 11.2676C0.700502 10.8192 0.78384 10.3606 1.00653 9.96533L3.27586 6.04C3.72519 5.23733 4.70653 4.86 5.61053 5.13733L8.27319 5.97733C9.1577 5.28443 10.1341 4.71768 11.1745 4.29333L11.7905 1.56C11.8903 1.11866 12.1367 0.724147 12.4895 0.440834C12.8423 0.157521 13.2807 0.00212613 13.7332 0L18.2665 0C19.1919 0 20.0105 0.657333 20.2105 1.56267L20.8252 4.29333C21.8653 4.71821 22.8417 5.28491 23.7265 5.97733L26.3865 5.13867C26.822 5.0007 27.2915 5.01564 27.7173 5.18102C28.1431 5.34639 28.4997 5.65228 28.7279 6.048L30.9892 9.96133C31.2132 10.3555 31.2983 10.8134 31.2308 11.2617C31.1633 11.71 30.9472 12.1226 30.6172 12.4333L28.5612 14.3227C28.7002 15.437 28.7002 16.5643 28.5612 17.6787L30.6105 19.5627C30.9425 19.872 31.1608 20.284 31.2302 20.7324C31.2996 21.1808 31.2161 21.6395 30.9932 22.0347L28.7239 25.96C28.2732 26.7627 27.2892 27.14 26.3892 26.864L23.7265 26.024C22.8414 26.7159 21.8651 27.2826 20.8252 27.708L20.2092 30.4413C20.1092 30.8824 19.8627 31.2766 19.5099 31.5597C19.1571 31.8427 18.7188 31.9979 18.2665 32ZM8.41319 24.6133C8.56519 24.6133 8.71719 24.6653 8.83719 24.7653C9.77346 25.5451 10.8346 26.1613 11.9759 26.588C12.1892 26.6667 12.3465 26.8467 12.3959 27.0667L13.0905 30.1467C13.1572 30.4493 13.4265 30.6667 13.7332 30.6667H18.2665C18.4164 30.6657 18.5614 30.6138 18.678 30.5196C18.7945 30.4253 18.8755 30.2943 18.9079 30.148L19.6025 27.0653C19.6267 26.957 19.6777 26.8566 19.7508 26.7731C19.824 26.6897 19.917 26.6261 20.0212 26.588C21.1385 26.1747 22.1945 25.5613 23.1599 24.7653C23.2457 24.6945 23.3479 24.6463 23.4571 24.6251C23.5663 24.604 23.6791 24.6104 23.7852 24.644L26.7852 25.5907C26.9289 25.6377 27.0842 25.6344 27.2258 25.5813C27.3673 25.5282 27.4865 25.4286 27.5639 25.2987L29.8332 21.3733C29.9067 21.2398 29.9337 21.0856 29.91 20.935C29.8864 20.7844 29.8134 20.6459 29.7025 20.5413L27.3985 18.424C27.3178 18.3507 27.2565 18.2584 27.2202 18.1556C27.1839 18.0527 27.1737 17.9424 27.1905 17.8347C27.3795 16.619 27.3808 15.3815 27.1945 14.1653C27.1779 14.0576 27.1882 13.9474 27.2245 13.8445C27.2608 13.7417 27.322 13.6495 27.4025 13.576L29.7092 11.456C29.8195 11.35 29.8914 11.2104 29.9136 11.059C29.9358 10.9076 29.9071 10.7532 29.8319 10.62L27.5705 6.70667C27.4936 6.57457 27.3735 6.47294 27.2306 6.41881C27.0876 6.36468 26.9303 6.36133 26.7852 6.40933L23.7879 7.35467C23.6818 7.38799 23.569 7.39434 23.4598 7.37316C23.3507 7.35197 23.2485 7.30392 23.1625 7.23333C22.2263 6.45357 21.1651 5.83737 20.0239 5.41067C19.9194 5.3728 19.8261 5.30921 19.7527 5.22578C19.6793 5.14236 19.6281 5.04178 19.6039 4.93333L18.9092 1.85333C18.8769 1.70665 18.7957 1.57531 18.6789 1.48083C18.5621 1.38635 18.4167 1.33435 18.2665 1.33333H13.7332C13.5832 1.33428 13.4379 1.38609 13.3212 1.48031C13.2044 1.57453 13.1231 1.70557 13.0905 1.852L12.3959 4.93333C12.3715 5.04187 12.3202 5.14256 12.2468 5.22618C12.1735 5.3098 12.0803 5.37369 11.9759 5.412C10.8585 5.82533 9.80253 6.43867 8.83719 7.23467C8.75125 7.30525 8.64906 7.35331 8.53988 7.37449C8.4307 7.39568 8.31797 7.38932 8.21186 7.356L5.21186 6.40933C5.06829 6.36318 4.91335 6.36677 4.77207 6.4195C4.63079 6.47224 4.5114 6.57106 4.43319 6.7L2.16386 10.6267C2.09028 10.7609 2.06345 10.9157 2.08759 11.0668C2.11173 11.218 2.18547 11.3567 2.29719 11.4613L4.59853 13.576C4.67928 13.6493 4.74057 13.7416 4.77687 13.8444C4.81318 13.9473 4.82337 14.0576 4.80653 14.1653C4.71319 14.7853 4.66653 15.4027 4.66653 16C4.66653 16.5973 4.71319 17.2147 4.80519 17.8347C4.82179 17.9424 4.81149 18.0526 4.7752 18.1555C4.73891 18.2583 4.67776 18.3505 4.59719 18.424L2.29053 20.544C2.18022 20.65 2.1083 20.7897 2.08609 20.941C2.06388 21.0924 2.09265 21.2468 2.16786 21.38L4.42919 25.2933C4.50616 25.4254 4.62619 25.5271 4.76916 25.5812C4.91214 25.6353 5.06938 25.6387 5.21453 25.5907L8.21186 24.6453C8.27687 24.6241 8.34481 24.6133 8.41319 24.6133Z" fill="#EEEBFF"/>
<path d="M16 24C11.588 24 8 20.412 8 16C8 11.588 11.588 8 16 8C20.412 8 24 11.588 24 16C24 20.412 20.412 24 16 24ZM16 9.33333C12.324 9.33333 9.33333 12.324 9.33333 16C9.33333 19.676 12.324 22.6667 16 22.6667C19.676 22.6667 22.6667 19.676 22.6667 16C22.6667 12.324 19.676 9.33333 16 9.33333Z" fill="#EEEBFF"/>
<path d="M18.6663 19.333C18.4895 19.333 18.3198 19.263 18.1943 19.1383L15.5277 16.4717C15.4032 16.3461 15.3333 16.1765 15.333 15.9997V11.9997C15.333 11.8229 15.4032 11.6533 15.5283 11.5283C15.6533 11.4032 15.8229 11.333 15.9997 11.333C16.1765 11.333 16.3461 11.4032 16.4711 11.5283C16.5961 11.6533 16.6663 11.8229 16.6663 11.9997V15.7237L19.1383 18.1957C19.2314 18.289 19.2946 18.4078 19.3202 18.537C19.3458 18.6663 19.3324 18.8002 19.2819 18.9219C19.2314 19.0436 19.146 19.1476 19.0365 19.2207C18.9269 19.2939 18.7981 19.333 18.6663 19.333Z" fill="#EEEBFF"/>
</g>
<defs>
<clipPath id="clip0_155_1161">
<rect width="32" height="32" fill="white"/>
</clipPath>
</defs>
</svg>
