<svg width="32" height="32" viewBox="0 0 32 32" fill="none" xmlns="http://www.w3.org/2000/svg">
<g clip-path="url(#clip0_155_2138)">
<path d="M16.0006 30.6663C15.9033 30.6662 15.8073 30.6449 15.7191 30.6039C15.6309 30.5629 15.5527 30.5032 15.4899 30.429L0.156552 12.217C0.0700341 12.1142 0.01661 11.9876 0.00328573 11.8539C-0.0100386 11.7202 0.0173589 11.5856 0.0818854 11.4677L5.45789 1.67967C5.51523 1.57486 5.59969 1.48739 5.70243 1.4264C5.80517 1.36542 5.92241 1.33316 6.04189 1.33301H25.9592C26.2032 1.33301 26.4272 1.46634 26.5432 1.67967L31.9179 11.4677C32.0512 11.709 32.0206 12.0063 31.8432 12.217L16.5099 30.429C16.4474 30.5033 16.3694 30.563 16.2814 30.604C16.1935 30.645 16.0976 30.6662 16.0006 30.6663ZM1.47255 11.7077L16.0006 28.965L30.5286 11.7077L25.5646 2.66634H6.43655L1.47255 11.7077Z" fill="#EEEBFF"/>
<path d="M31.0007 12.6663H1.00065C0.82384 12.6663 0.654271 12.5961 0.529247 12.4711C0.404222 12.3461 0.333984 12.1765 0.333984 11.9997C0.333984 11.8229 0.404222 11.6533 0.529247 11.5283C0.654271 11.4032 0.82384 11.333 1.00065 11.333H31.0007C31.1775 11.333 31.347 11.4032 31.4721 11.5283C31.5971 11.6533 31.6673 11.8229 31.6673 11.9997C31.6673 12.1765 31.5971 12.3461 31.4721 12.4711C31.347 12.5961 31.1775 12.6663 31.0007 12.6663Z" fill="#EEEBFF"/>
<path d="M22.7501 12.2917C22.6431 12.2918 22.5375 12.266 22.4426 12.2166C22.3476 12.1671 22.2661 12.0955 22.2048 12.0077L16.0034 3.16367L9.88078 11.961C9.83079 12.0328 9.76715 12.094 9.69349 12.1412C9.61984 12.1884 9.53761 12.2207 9.45149 12.2361C9.36538 12.2515 9.27708 12.2498 9.19163 12.2311C9.10617 12.2124 9.02524 12.177 8.95345 12.127C8.80846 12.026 8.70952 11.8716 8.67839 11.6977C8.66298 11.6116 8.66467 11.5233 8.68339 11.4379C8.7021 11.3524 8.73746 11.2715 8.78745 11.1997L15.4541 1.61834C15.5152 1.5303 15.5968 1.45836 15.6917 1.40867C15.7867 1.35899 15.8923 1.33303 15.9994 1.33301H16.0008C16.2181 1.33301 16.4208 1.43834 16.5461 1.61701L23.2954 11.2423C23.3659 11.3421 23.4076 11.4593 23.4159 11.5811C23.4242 11.703 23.3988 11.8248 23.3425 11.9332C23.2862 12.0415 23.2011 12.1323 23.0966 12.1955C22.9921 12.2588 22.8722 12.292 22.7501 12.2917Z" fill="#EEEBFF"/>
<path d="M16.0007 30.6664C15.8631 30.6664 15.7289 30.6239 15.6165 30.5447C15.504 30.4654 15.4189 30.3533 15.3727 30.2238L5.41399 2.22376C5.36673 2.06035 5.3836 1.88507 5.46114 1.73367C5.53868 1.58227 5.67106 1.46616 5.83128 1.40901C5.99149 1.35186 6.16748 1.35799 6.32333 1.42614C6.47918 1.49429 6.60317 1.61933 6.66999 1.77576L16.0007 28.0104L25.3313 1.77576C25.3907 1.60921 25.5139 1.47307 25.6737 1.39731C25.8334 1.32154 26.0168 1.31235 26.1833 1.37176C26.3499 1.43117 26.486 1.55431 26.5618 1.71409C26.6375 1.87387 26.6467 2.05721 26.5873 2.22376L16.6287 30.2238C16.5824 30.3533 16.4973 30.4654 16.3848 30.5447C16.2724 30.6239 16.1382 30.6664 16.0007 30.6664Z" fill="#EEEBFF"/>
</g>
<defs>
<clipPath id="clip0_155_2138">
<rect width="32" height="32" fill="white"/>
</clipPath>
</defs>
</svg>
