<svg width="32" height="32" viewBox="0 0 32 32" fill="none" xmlns="http://www.w3.org/2000/svg">
<g clip-path="url(#clip0_155_151)">
<path fill-rule="evenodd" clip-rule="evenodd" d="M4.57129 7.08552C4.57129 6.47931 4.8121 5.89793 5.24076 5.46927C5.66941 5.04062 6.25079 4.7998 6.857 4.7998H25.1427C25.7489 4.7998 26.3303 5.04062 26.759 5.46927C27.1876 5.89793 27.4284 6.47931 27.4284 7.08552V25.3712C27.4284 25.9774 27.1876 26.5588 26.759 26.9875C26.3303 27.4161 25.7489 27.6569 25.1427 27.6569H6.857C6.25079 27.6569 5.66941 27.4161 5.24076 26.9875C4.8121 26.5588 4.57129 25.9774 4.57129 25.3712V7.08552ZM6.857 6.32361C6.65493 6.32361 6.46114 6.40389 6.31826 6.54677C6.17537 6.68966 6.0951 6.88345 6.0951 7.08552V25.3712C6.0951 25.5733 6.17537 25.7671 6.31826 25.91C6.46114 26.0529 6.65493 26.1331 6.857 26.1331H25.1427C25.3448 26.1331 25.5386 26.0529 25.6815 25.91C25.8244 25.7671 25.9046 25.5733 25.9046 25.3712V7.08552C25.9046 6.88345 25.8244 6.68966 25.6815 6.54677C25.5386 6.40389 25.3448 6.32361 25.1427 6.32361H6.857Z" fill="#EEEBFF"/>
<path fill-rule="evenodd" clip-rule="evenodd" d="M11.4286 22.3235C11.4286 22.5255 11.5088 22.7193 11.6517 22.8622C11.7946 23.0051 11.9884 23.0854 12.1905 23.0854H19.8095C20.0116 23.0854 20.2054 23.0051 20.3483 22.8622C20.4912 22.7193 20.5714 22.5255 20.5714 22.3235V20.0378C20.5714 19.8357 20.4912 19.6419 20.3483 19.499C20.2054 19.3561 20.0116 19.2759 19.8095 19.2759C19.6075 19.2759 19.4137 19.3561 19.2708 19.499C19.1279 19.6419 19.0476 19.8357 19.0476 20.0378V21.5616H12.9524V20.0378C12.9524 19.8357 12.8721 19.6419 12.7292 19.499C12.5863 19.3561 12.3925 19.2759 12.1905 19.2759C11.9884 19.2759 11.7946 19.3561 11.6517 19.499C11.5088 19.6419 11.4286 19.8357 11.4286 20.0378V22.3235ZM26.2217 9.51433C26.3197 9.44404 26.4329 9.398 26.5521 9.37998C26.6713 9.36197 26.7931 9.3725 26.9074 9.41071L30.4366 10.5871C30.8915 10.7386 31.2873 11.0294 31.5679 11.4183C31.8485 11.8072 31.9996 12.2744 32 12.754V19.6995C32 20.1793 31.8489 20.6469 31.5683 21.0361C31.2877 21.4252 30.8918 21.7162 30.4366 21.8679L26.9074 23.0442C26.7931 23.0823 26.6713 23.0927 26.5521 23.0746C26.433 23.0565 26.3198 23.0104 26.222 22.94C26.1241 22.8697 26.0443 22.7771 25.9892 22.6699C25.934 22.5627 25.9051 22.444 25.9048 22.3235V10.133C25.9047 10.0121 25.9335 9.89299 25.9886 9.78541C26.0437 9.67784 26.1236 9.58492 26.2217 9.51433ZM27.4286 11.1905V21.266L29.955 20.4248C30.1069 20.3742 30.239 20.2771 30.3326 20.1471C30.4261 20.0172 30.4764 19.8611 30.4762 19.701V12.7555C30.4764 12.5954 30.4261 12.4393 30.3326 12.3093C30.239 12.1794 30.1069 12.0823 29.955 12.0317L27.4286 11.1905ZM5.77829 9.51433C5.68034 9.44404 5.56711 9.398 5.4479 9.37998C5.3287 9.36197 5.20692 9.3725 5.09257 9.41071L1.56343 10.5871C1.10847 10.7386 0.712694 11.0294 0.432114 11.4183C0.151534 11.8072 0.000364099 12.2744 0 12.754V19.6995C4.43922e-05 20.1793 0.151066 20.6469 0.431669 21.0361C0.712271 21.4252 1.10822 21.7162 1.56343 21.8679L5.09257 23.0442C5.20693 23.0823 5.32869 23.0927 5.44785 23.0746C5.56702 23.0565 5.68018 23.0104 5.77805 22.94C5.87592 22.8697 5.9557 22.7771 6.01084 22.6699C6.06598 22.5627 6.09491 22.444 6.09524 22.3235V10.133C6.09527 10.0121 6.06654 9.89299 6.01143 9.78541C5.95632 9.67784 5.8764 9.58492 5.77829 9.51433ZM4.57143 11.1905V21.266L2.04495 20.4248C1.89305 20.3742 1.76095 20.2771 1.6674 20.1471C1.57385 20.0172 1.52361 19.8611 1.52381 19.701V12.7555C1.52361 12.5954 1.57385 12.4393 1.6674 12.3093C1.76095 12.1794 1.89305 12.0823 2.04495 12.0317L4.57143 11.1905ZM11.4286 10.8949C11.0244 10.8949 10.6368 11.0554 10.3511 11.3412C10.0653 11.627 9.90476 12.0146 9.90476 12.4187C9.90476 12.8229 10.0653 13.2104 10.3511 13.4962C10.6368 13.782 11.0244 13.9425 11.4286 13.9425C11.8327 13.9425 12.2203 13.782 12.5061 13.4962C12.7918 13.2104 12.9524 12.8229 12.9524 12.4187C12.9524 12.0146 12.7918 11.627 12.5061 11.3412C12.2203 11.0554 11.8327 10.8949 11.4286 10.8949ZM8.38095 12.4187C8.38095 11.6104 8.70204 10.8353 9.27358 10.2637C9.84512 9.69218 10.6203 9.37109 11.4286 9.37109C12.2369 9.37109 13.012 9.69218 13.5836 10.2637C14.1551 10.8353 14.4762 11.6104 14.4762 12.4187C14.4762 13.227 14.1551 14.0022 13.5836 14.5737C13.012 15.1452 12.2369 15.4663 11.4286 15.4663C10.6203 15.4663 9.84512 15.1452 9.27358 14.5737C8.70204 14.0022 8.38095 13.227 8.38095 12.4187ZM20.5714 10.8949C20.1673 10.8949 19.7797 11.0554 19.4939 11.3412C19.2082 11.627 19.0476 12.0146 19.0476 12.4187C19.0476 12.8229 19.2082 13.2104 19.4939 13.4962C19.7797 13.782 20.1673 13.9425 20.5714 13.9425C20.9756 13.9425 21.3632 13.782 21.6489 13.4962C21.9347 13.2104 22.0952 12.8229 22.0952 12.4187C22.0952 12.0146 21.9347 11.627 21.6489 11.3412C21.3632 11.0554 20.9756 10.8949 20.5714 10.8949ZM17.5238 12.4187C17.5238 11.6104 17.8449 10.8353 18.4164 10.2637C18.988 9.69218 19.7632 9.37109 20.5714 9.37109C21.3797 9.37109 22.1549 9.69218 22.7264 10.2637C23.298 10.8353 23.619 11.6104 23.619 12.4187C23.619 13.227 23.298 14.0022 22.7264 14.5737C22.1549 15.1452 21.3797 15.4663 20.5714 15.4663C19.7632 15.4663 18.988 15.1452 18.4164 14.5737C17.8449 14.0022 17.5238 13.227 17.5238 12.4187Z" fill="#EEEBFF"/>
</g>
<defs>
<clipPath id="clip0_155_151">
<rect width="32" height="32" fill="white"/>
</clipPath>
</defs>
</svg>
