<svg width="32" height="32" viewBox="0 0 32 32" fill="none" xmlns="http://www.w3.org/2000/svg">
<g clip-path="url(#clip0_155_2068)">
<path fill-rule="evenodd" clip-rule="evenodd" d="M0 2.28571C0 1.02095 1.02095 0 2.28571 0H29.7143C30.979 0 32 1.02095 32 2.28571V29.7143C32 30.979 30.979 32 29.7143 32H2.28571C1.02095 32 0 30.979 0 29.7143V2.28571ZM2.28571 1.52381C1.85905 1.52381 1.52381 1.85905 1.52381 2.28571V29.7143C1.52381 30.141 1.85905 30.4762 2.28571 30.4762H29.7143C30.141 30.4762 30.4762 30.141 30.4762 29.7143V2.28571C30.4762 1.85905 30.141 1.52381 29.7143 1.52381H2.28571Z" fill="#EEEBFF"/>
<path fill-rule="evenodd" clip-rule="evenodd" d="M16.0005 7.61914C16.4271 7.61914 16.7624 7.95438 16.7624 8.38105V23.6191C16.7624 24.0458 16.4271 24.381 16.0005 24.381C15.5738 24.381 15.2386 24.0458 15.2386 23.6191V8.38105C15.2386 7.95438 15.5738 7.61914 16.0005 7.61914ZM20.5719 12.1906C20.9986 12.1906 21.3338 12.5258 21.3338 12.9525V20.5715C21.3338 20.9982 20.9986 21.3334 20.5719 21.3334C20.1452 21.3334 19.81 20.9982 19.81 20.5715V12.9525C19.81 12.5258 20.1452 12.1906 20.5719 12.1906ZM11.429 12.1906C11.0024 12.1906 10.6671 12.5258 10.6671 12.9525V20.5715C10.6671 20.9982 11.0024 21.3334 11.429 21.3334C11.8557 21.3334 12.1909 20.9982 12.1909 20.5715V12.9525C12.1909 12.5258 11.8557 12.1906 11.429 12.1906ZM25.1433 13.7144C25.57 13.7144 25.9052 14.0496 25.9052 14.4763V17.5239C25.9052 17.9506 25.57 18.2858 25.1433 18.2858C24.7167 18.2858 24.3814 17.9506 24.3814 17.5239V14.4763C24.3814 14.0496 24.7167 13.7144 25.1433 13.7144ZM6.85761 13.7144C6.43094 13.7144 6.0957 14.0496 6.0957 14.4763V17.5239C6.0957 17.9506 6.43094 18.2858 6.85761 18.2858C7.28427 18.2858 7.61951 17.9506 7.61951 17.5239V14.4763C7.61951 14.0496 7.28427 13.7144 6.85761 13.7144Z" fill="#EEEBFF"/>
</g>
<defs>
<clipPath id="clip0_155_2068">
<rect width="32" height="32" fill="white"/>
</clipPath>
</defs>
</svg>
