<svg width="32" height="32" viewBox="0 0 32 32" fill="none" xmlns="http://www.w3.org/2000/svg">
<path fill-rule="evenodd" clip-rule="evenodd" d="M16 2C16.0896 2 16.1783 2.01806 16.2608 2.05311C16.3433 2.08816 16.4178 2.13948 16.48 2.204L18.996 4.81733L22.4827 3.812C22.5688 3.78733 22.6589 3.78025 22.7478 3.79118C22.8367 3.80211 22.9224 3.83083 22.9999 3.87563C23.0775 3.92043 23.1452 3.98039 23.199 4.05192C23.2529 4.12346 23.2917 4.20511 23.3134 4.292L24.1867 7.812L27.7067 8.68667C27.7936 8.70827 27.8752 8.74716 27.9468 8.80101C28.0183 8.85485 28.0783 8.92256 28.1231 9.00009C28.1679 9.07761 28.1966 9.16337 28.2075 9.25223C28.2184 9.3411 28.2114 9.43126 28.1867 9.51733L27.184 13.0027L29.796 15.52C29.8605 15.5822 29.9119 15.6567 29.9469 15.7392C29.982 15.8217 30 15.9104 30 16C30 16.0896 29.982 16.1783 29.9469 16.2608C29.9119 16.3433 29.8605 16.4178 29.796 16.48L27.1827 18.996L28.188 22.4827C28.2127 22.5687 28.2198 22.6589 28.2088 22.7478C28.1979 22.8366 28.1692 22.9224 28.1244 22.9999C28.0796 23.0774 28.0196 23.1451 27.9481 23.199C27.8766 23.2528 27.7949 23.2917 27.708 23.3133L24.188 24.1867L23.3134 27.7067C23.2917 27.7936 23.2529 27.8752 23.199 27.9467C23.1452 28.0183 23.0775 28.0782 22.9999 28.123C22.9224 28.1678 22.8367 28.1966 22.7478 28.2075C22.6589 28.2184 22.5688 28.2113 22.4827 28.1867L18.9974 27.184L16.48 29.796C16.4178 29.8605 16.3433 29.9118 16.2608 29.9469C16.1783 29.9819 16.0896 30 16 30C15.9104 30 15.8217 29.9819 15.7392 29.9469C15.6568 29.9118 15.5822 29.8605 15.52 29.796L13.0027 27.1827L9.51735 28.188C9.43128 28.2127 9.34112 28.2198 9.25225 28.2088C9.16338 28.1979 9.07763 28.1692 9.0001 28.1244C8.92258 28.0796 8.85487 28.0196 8.80102 27.9481C8.74718 27.8765 8.70829 27.7949 8.68668 27.708L7.81335 24.188L4.29335 23.3133C4.20646 23.2917 4.12481 23.2528 4.05327 23.199C3.98174 23.1451 3.92178 23.0774 3.87698 22.9999C3.83219 22.9224 3.80346 22.8366 3.79253 22.7478C3.7816 22.6589 3.78868 22.5687 3.81335 22.4827L4.81602 18.9973L2.20402 16.48C2.1395 16.4178 2.08817 16.3433 2.05312 16.2608C2.01807 16.1783 2 16.0896 2 16C2 15.9104 2.01807 15.8217 2.05312 15.7392C2.08817 15.6567 2.1395 15.5822 2.20402 15.52L4.81735 13.0027L3.81202 9.51733C3.78735 9.43126 3.78026 9.3411 3.7912 9.25223C3.80213 9.16337 3.83085 9.07761 3.87565 9.00009C3.92045 8.92256 3.9804 8.85485 4.05194 8.80101C4.12348 8.74716 4.20513 8.70827 4.29202 8.68667L7.81202 7.81333L8.68668 4.29333C8.70829 4.20644 8.74718 4.12479 8.80102 4.05326C8.85487 3.98172 8.92258 3.92176 9.0001 3.87697C9.07763 3.83217 9.16338 3.80345 9.25225 3.79251C9.34112 3.78158 9.43128 3.78866 9.51735 3.81333L13.0027 4.816L15.52 2.204C15.5822 2.13948 15.6568 2.08816 15.7392 2.05311C15.8217 2.01806 15.9104 2 16 2ZM16 3.62667L13.6854 6.03067C13.6011 6.11797 13.4946 6.18063 13.3774 6.21188C13.2601 6.24313 13.1366 6.24179 13.02 6.208L9.81335 5.28533L9.01068 8.524C8.9815 8.64171 8.92076 8.74924 8.83501 8.83499C8.74925 8.92075 8.64173 8.98148 8.52402 9.01067L5.28402 9.81333L6.20802 13.02C6.2418 13.1365 6.24315 13.2601 6.2119 13.3773C6.18065 13.4946 6.11799 13.6011 6.03068 13.6853L3.62668 16L6.02935 18.3147C6.11666 18.3989 6.17931 18.5054 6.21056 18.6227C6.24181 18.7399 6.24047 18.8635 6.20668 18.98L5.28402 22.1867L8.52268 22.9893C8.6404 23.0185 8.74792 23.0793 8.83368 23.165C8.91943 23.2508 8.98017 23.3583 9.00935 23.476L9.81202 26.716L13.0187 25.7907C13.1353 25.757 13.259 25.7559 13.3762 25.7874C13.4935 25.8189 13.5999 25.8818 13.684 25.9693L16 28.3733L18.3147 25.9707C18.3988 25.8831 18.5052 25.8202 18.6225 25.7887C18.7397 25.7572 18.8634 25.7584 18.98 25.792L22.1867 26.716L22.9894 23.4773C23.0185 23.3596 23.0793 23.2521 23.165 23.1663C23.2508 23.0806 23.3583 23.0198 23.476 22.9907L26.716 22.188L25.7907 18.9813C25.7571 18.8647 25.7559 18.7411 25.7874 18.6238C25.8189 18.5065 25.8818 18.4001 25.9694 18.316L28.3734 16L25.9707 13.6853C25.8831 13.6012 25.8202 13.4948 25.7888 13.3775C25.7573 13.2603 25.7584 13.1367 25.792 13.02L26.716 9.81333L23.4774 9.01067C23.3596 8.98148 23.2521 8.92075 23.1664 8.83499C23.0806 8.74924 23.0199 8.64171 22.9907 8.524L22.188 5.284L18.9814 6.208C18.8648 6.24179 18.7413 6.24313 18.624 6.21188C18.5068 6.18063 18.4003 6.11797 18.316 6.03067L16 3.62667Z" fill="#EEEBFF"/>
<path fill-rule="evenodd" clip-rule="evenodd" d="M20.472 12.8609C20.5341 12.9228 20.5834 12.9964 20.617 13.0774C20.6506 13.1584 20.6679 13.2452 20.6679 13.3329C20.6679 13.4206 20.6506 13.5074 20.617 13.5884C20.5834 13.6694 20.5341 13.743 20.472 13.8049L15.1387 19.1382C15.0768 19.2003 15.0032 19.2496 14.9222 19.2832C14.8412 19.3168 14.7544 19.3341 14.6667 19.3341C14.579 19.3341 14.4922 19.3168 14.4112 19.2832C14.3302 19.2496 14.2566 19.2003 14.1947 19.1382L11.528 16.4716C11.466 16.4096 11.4169 16.336 11.3833 16.255C11.3498 16.174 11.3325 16.0872 11.3325 15.9996C11.3325 15.9119 11.3498 15.8251 11.3833 15.7441C11.4169 15.6631 11.466 15.5895 11.528 15.5276C11.59 15.4656 11.6636 15.4164 11.7446 15.3829C11.8256 15.3493 11.9124 15.3321 12 15.3321C12.0877 15.3321 12.1745 15.3493 12.2555 15.3829C12.3365 15.4164 12.41 15.4656 12.472 15.5276L14.6667 17.7236L19.528 12.8609C19.59 12.7988 19.6635 12.7496 19.7445 12.7159C19.8255 12.6823 19.9123 12.665 20 12.665C20.0877 12.665 20.1745 12.6823 20.2555 12.7159C20.3365 12.7496 20.4101 12.7988 20.472 12.8609Z" fill="#EEEBFF"/>
</svg>
