<svg width="33" height="32" viewBox="0 0 33 32" fill="none" xmlns="http://www.w3.org/2000/svg">
<g clip-path="url(#clip0_458_1608)">
<path d="M26.241 20.4313C26.6528 20.4314 26.9863 20.7657 26.9863 21.1776V23.7634H28.6563C29.068 23.7636 29.4015 24.0979 29.4015 24.5097C29.4014 24.9213 29.0679 25.2547 28.6563 25.255H26.241C25.8291 25.255 25.4949 24.9215 25.4947 24.5097V21.1776C25.4947 20.7656 25.829 20.4313 26.241 20.4313Z" fill="white"/>
<path fill-rule="evenodd" clip-rule="evenodd" d="M21.786 1.23129C22.3568 1.23129 22.8797 1.46515 23.2598 1.84448L23.2628 1.84744C23.6431 2.22931 23.876 2.75133 23.876 3.32125V4.69057H24.8608C25.7389 4.69057 26.541 5.05151 27.1233 5.63302L27.1262 5.63598C27.7087 6.22003 28.0687 7.02118 28.0687 7.89845V18.5208L28.1732 18.5543C29.1225 18.863 29.9733 19.3942 30.6644 20.0853C31.799 21.2166 32.5 22.7816 32.5 24.5097C32.4999 26.2354 31.7986 27.799 30.6664 28.9321L30.6634 28.9351C29.5303 30.0673 27.9668 30.7686 26.241 30.7687C24.5159 30.7687 22.9507 30.0674 21.8176 28.9351L21.8146 28.9321C21.0553 28.1723 20.4899 27.2189 20.1998 26.153L20.1693 26.0416H2.65305C2.06094 26.0416 1.52158 25.7993 1.13192 25.4097C0.741786 25.0196 0.500004 24.4807 0.5 23.8886V7.89845C0.5 7.02038 0.860036 6.21828 1.44147 5.63598L1.44541 5.63302C2.02945 5.05067 2.83068 4.69057 3.70789 4.69057H4.69076V3.32125C4.69076 2.75046 4.9256 2.22755 5.30493 1.84744L5.30789 1.84448L5.45773 1.70942C5.82107 1.41005 6.28216 1.23134 6.78071 1.23129C7.35144 1.23129 7.87341 1.46516 8.25354 1.84448L8.2565 1.84744C8.63679 2.22931 8.87067 2.75133 8.87067 3.32125V4.69057H19.697V3.32125C19.697 2.75049 19.9309 2.22755 20.3102 1.84744L20.3142 1.84448C20.6959 1.46446 21.2165 1.23141 21.786 1.23129ZM26.241 19.7412C24.9435 19.7412 23.7679 20.2573 22.9118 21.0928L22.9069 21.0967L22.8694 21.1371L22.7117 21.3028C21.9427 22.1489 21.4735 23.2749 21.4735 24.5097C21.4736 25.8276 22.0068 27.0212 22.8675 27.8832C23.7295 28.7437 24.923 29.2771 26.241 29.2771C27.559 29.2771 28.7525 28.7438 29.6145 27.8832C30.4751 27.0212 31.0084 25.8276 31.0084 24.5097C31.0084 23.1928 30.4742 21.9997 29.6125 21.1362C28.753 20.2744 27.5597 19.7413 26.241 19.7412ZM1.99156 10.7534V23.8886C1.99156 24.0703 2.0668 24.2357 2.18577 24.3549C2.3047 24.4738 2.4714 24.5491 2.65305 24.5491H19.979L19.9819 24.4002C20.0109 22.7174 20.7041 21.1959 21.8107 20.0872L21.8629 20.0389L21.8659 20.036C22.996 18.9307 24.5409 18.2498 26.24 18.2497L26.4234 18.2516L26.5762 18.2536V10.7534H1.99156ZM3.70789 6.18311C3.23433 6.18311 2.80475 6.37504 2.4963 6.68391L2.49236 6.68687C2.18352 6.99531 1.99156 7.42492 1.99156 7.89845V9.26185H26.5762V7.89845C26.5762 7.42485 26.3843 6.99532 26.0754 6.68687L26.0724 6.68391C25.7639 6.375 25.3344 6.18312 24.8608 6.18311H3.70789ZM6.78071 2.72285C6.65751 2.72289 6.54181 2.7597 6.44652 2.82341L6.35878 2.89537L6.35582 2.89833C6.24825 3.00532 6.1833 3.15694 6.1833 3.32125V4.69057H7.37813V3.32125C7.37813 3.15694 7.31318 3.00532 7.20561 2.89833L7.20265 2.89537C7.09578 2.78805 6.94505 2.72285 6.78071 2.72285ZM21.786 2.72285C21.6217 2.72296 21.4709 2.788 21.3641 2.89537L21.3611 2.89833C21.2537 3.00531 21.1886 3.15706 21.1886 3.32125V4.69057H22.3844V3.32125C22.3844 3.19788 22.3477 3.08145 22.2839 2.98607L22.2119 2.89833L22.2089 2.89537C22.1019 2.78784 21.9503 2.72285 21.786 2.72285Z" fill="white"/>
</g>
<defs>
<clipPath id="clip0_458_1608">
<rect width="32" height="32" fill="white" transform="translate(0.5)"/>
</clipPath>
</defs>
</svg>
