<svg width="33" height="32" viewBox="0 0 33 32" fill="none" xmlns="http://www.w3.org/2000/svg">
<g clip-path="url(#clip0_458_1612)">
<path fill-rule="evenodd" clip-rule="evenodd" d="M16.778 8.80939C18.9775 8.80949 20.7682 10.6001 20.7682 12.7996C20.7682 14.9992 18.9776 16.7898 16.778 16.7899C14.5784 16.7898 12.7878 14.9992 12.7878 12.7996C12.7879 10.6001 14.5785 8.80947 16.778 8.80939ZM15.4089 16.3865C15.601 16.4601 15.8002 16.5192 16.0056 16.5613L15.82 16.5184C15.6797 16.4822 15.5426 16.4378 15.4089 16.3865ZM16.778 10.3895C15.4498 10.3895 14.368 11.4714 14.3679 12.7996C14.3679 14.1279 15.4497 15.2097 16.778 15.2098C18.1063 15.2097 19.1882 14.1279 19.1882 12.7996C19.1881 11.4714 18.1062 10.3896 16.778 10.3895Z" fill="white"/>
<path fill-rule="evenodd" clip-rule="evenodd" d="M16.78 5.60626C22.5088 5.60663 27.1696 10.268 27.1696 15.9969C27.1695 19.1728 25.7326 22.0138 23.4831 23.9207L23.4841 23.9217C23.4814 23.924 23.4807 23.9251 23.4704 23.9354C23.4637 23.942 23.4518 23.9511 23.4382 23.9617L23.4391 23.9627C21.6346 25.4738 19.3126 26.3884 16.78 26.3885C14.2458 26.3885 11.9238 25.4738 10.1188 23.9627C10.1077 23.9542 10.0982 23.9455 10.0915 23.9393C10.0803 23.9287 10.0792 23.9274 10.0739 23.9227L9.99579 23.8533L9.99677 23.8494C7.79176 21.9432 6.38942 19.1335 6.38934 15.9969C6.38939 10.2678 11.0508 5.60626 16.78 5.60626ZM16.779 19.3494C14.4007 19.3494 12.3052 20.8459 11.5095 23.0428C12.9818 24.1473 14.8032 24.8094 16.779 24.8094C18.7508 24.8092 20.5665 24.1491 22.0368 23.0496C21.7613 22.2844 21.3285 21.5777 20.7448 20.994C19.6851 19.9342 18.2764 19.3497 16.779 19.3494ZM22.2155 23.1033C21.7436 23.4652 21.236 23.7829 20.6979 24.0477L21.0173 23.8826C21.438 23.6544 21.8389 23.3939 22.2165 23.1043L22.2155 23.1033ZM11.3307 23.0975C11.3553 23.0252 11.3806 22.9534 11.4079 22.8826L11.3307 23.0975ZM23.2419 22.1873L23.2429 22.1863L23.1218 21.9207C23.1193 21.9155 23.1165 21.9103 23.114 21.9051C23.1587 21.9981 23.2012 22.0925 23.2419 22.1873ZM16.7546 7.18927C11.907 7.20148 7.96752 11.1496 7.96747 15.9998C7.96758 18.2771 8.84318 20.3504 10.2682 21.9158C11.4305 19.4249 13.9472 17.7694 16.777 17.7693C18.6965 17.7695 20.5034 18.5182 21.861 19.8758C22.458 20.4714 22.9341 21.1662 23.2849 21.9178C24.7117 20.3525 25.5886 18.2789 25.5886 15.9998C25.5885 11.1422 21.6363 7.19074 16.779 7.19025H16.7565L16.7546 7.18927ZM10.5319 21.7166C10.5069 21.7649 10.4836 21.8141 10.4597 21.8631C10.5215 21.7366 10.586 21.6119 10.655 21.4901L10.5319 21.7166ZM12.4431 21.1678C12.3944 21.2234 12.347 21.2802 12.3005 21.3377C12.3933 21.2229 12.4904 21.1117 12.5915 21.0047L12.4431 21.1678ZM21.7536 19.9822C21.9055 20.1337 22.0493 20.2921 22.1852 20.4559C22.1207 20.3782 22.0551 20.3014 21.987 20.2264L21.7536 19.9822ZM13.6003 20.1561C13.5392 20.1965 13.4791 20.2383 13.4196 20.2811L13.6003 20.1561C13.6614 20.1156 13.7241 20.076 13.7868 20.0379L13.6003 20.1561ZM15.864 19.2723C15.1925 19.3799 14.5554 19.6044 13.9772 19.9266L14.1725 19.8231C14.2382 19.7897 14.3048 19.7582 14.3718 19.7274C14.4388 19.6965 14.5065 19.6668 14.5749 19.6385C14.7115 19.5819 14.8505 19.5303 14.9919 19.4842C15.2747 19.3919 15.5653 19.3201 15.864 19.2723ZM15.2155 18.0945C15.1664 18.1057 15.1178 18.1185 15.069 18.1307C15.2013 18.0976 15.3346 18.0673 15.4694 18.0418L15.2155 18.0945ZM17.9841 7.12286C17.8874 7.1098 17.7906 7.0957 17.6931 7.08575L17.6784 7.08478C17.7809 7.09505 17.8826 7.10915 17.9841 7.12286ZM16.78 5.75665C17.0024 5.75667 17.2231 5.76603 17.4421 5.78009C17.3969 5.77719 17.3517 5.77264 17.3063 5.77032L16.78 5.75665Z" fill="white"/>
<path d="M29.578 0.000213623C27.8132 0.000213623 26.378 1.43541 26.378 3.20021C26.378 3.85139 26.5764 4.4562 26.9108 4.96181L24.6452 7.22739C24.3956 7.47699 24.3956 7.8818 24.6452 8.13297C24.77 8.25777 24.9332 8.32017 25.098 8.32017C25.2612 8.32017 25.426 8.25777 25.5508 8.13297L27.8164 5.86739C28.322 6.20339 28.9268 6.4002 29.578 6.4002C31.3428 6.4002 32.778 4.96501 32.778 3.20021C32.778 1.43541 31.3428 0.000213623 29.578 0.000213623ZM29.578 5.1202C28.5188 5.1202 27.658 4.25939 27.658 3.20021C27.658 2.14102 28.5188 1.28021 29.578 1.28021C30.6372 1.28021 31.498 2.14102 31.498 3.20021C31.498 4.25939 30.6372 5.1202 29.578 5.1202Z" fill="white"/>
<path d="M3.97801 31.9997C5.74281 31.9997 7.178 30.5645 7.178 28.7997C7.178 28.1486 6.9796 27.5437 6.6452 27.0381L8.91077 24.7726C9.16037 24.523 9.16037 24.1181 8.91077 23.867C8.66117 23.6174 8.25635 23.6174 8.00519 23.867L5.73961 26.1326C5.234 25.7966 4.62923 25.5997 3.97801 25.5997C2.21321 25.5997 0.778015 27.0349 0.778015 28.7997C0.778015 30.5645 2.21321 31.9997 3.97801 31.9997ZM3.97801 26.8797C5.03719 26.8797 5.89801 27.7406 5.89801 28.7997C5.89801 29.8589 5.03719 30.7197 3.97801 30.7197C2.91883 30.7197 2.05801 29.8589 2.05801 28.7997C2.05801 27.7406 2.91883 26.8797 3.97801 26.8797Z" fill="white"/>
<path d="M3.97809 6.3998C4.62927 6.3998 5.23409 6.2014 5.73969 5.867L8.00527 8.13257C8.13007 8.25737 8.29327 8.31977 8.45808 8.31977C8.62128 8.31977 8.78608 8.25737 8.91089 8.13257C9.16049 7.88297 9.16049 7.47816 8.91089 7.22699L6.64532 4.96142C6.98132 4.45581 7.17812 3.85103 7.17812 3.19981C7.17812 1.43501 5.74293 -0.000183105 3.97813 -0.000183105C2.21333 -0.000183105 0.778137 1.43501 0.778137 3.19981C0.778137 4.96461 2.21329 6.3998 3.97809 6.3998ZM3.97809 1.27981C5.03727 1.27981 5.89809 2.14063 5.89809 3.19981C5.89809 4.25899 5.03727 5.11981 3.97809 5.11981C2.91891 5.11981 2.05809 4.25899 2.05809 3.19981C2.05809 2.14063 2.91891 1.27981 3.97809 1.27981Z" fill="white"/>
<path d="M29.578 25.6002C28.9268 25.6002 28.322 25.7986 27.8164 26.133L25.5508 23.8674C25.3012 23.6178 24.8964 23.6178 24.6452 23.8674C24.3956 24.117 24.3956 24.5219 24.6452 24.773L26.9108 27.0386C26.5748 27.5442 26.378 28.149 26.378 28.8002C26.378 30.565 27.8132 32.0002 29.578 32.0002C31.3428 32.0002 32.778 30.565 32.778 28.8002C32.778 27.0354 31.3428 25.6002 29.578 25.6002ZM29.578 30.7202C28.5188 30.7202 27.658 29.8594 27.658 28.8002C27.658 27.741 28.5188 26.8802 29.578 26.8802C30.6372 26.8802 31.498 27.741 31.498 28.8002C31.498 29.8594 30.6372 30.7202 29.578 30.7202Z" fill="white"/>
</g>
<defs>
<clipPath id="clip0_458_1612">
<rect width="32" height="32" fill="white" transform="translate(0.778015)"/>
</clipPath>
</defs>
</svg>
