<svg width="33" height="32" viewBox="0 0 33 32" fill="none" xmlns="http://www.w3.org/2000/svg">
<g clip-path="url(#clip0_458_1620)">
<path fill-rule="evenodd" clip-rule="evenodd" d="M28.2972 8.62656C28.7418 8.62682 29.1057 8.99067 29.1059 9.4353V27.2847H31.4693C31.9139 27.285 32.2778 27.6488 32.278 28.0935C32.2778 28.5381 31.9139 28.901 31.4693 28.9012H1.08676C0.641913 28.9012 0.278265 28.5382 0.278015 28.0935C0.278279 27.6487 0.641905 27.2847 1.08676 27.2847H3.45011V18.2824C3.45037 17.8376 3.814 17.4736 4.25885 17.4736H11.4619V13.8564C11.4623 13.4118 11.825 13.0487 12.2697 13.0486H19.4727V9.4353C19.473 8.99063 19.8358 8.62674 20.2805 8.62656H28.2972ZM5.07055 19.096V27.2906H11.4648V19.096H5.07055ZM13.0814 14.6681V27.2886H19.4757V14.6681H13.0814ZM21.0922 10.247V27.2886H27.4924V10.247H21.0922Z" fill="white"/>
<path d="M9.3131 11.6058C9.19565 12.0391 8.75384 12.2971 8.32256 12.1807L5.4099 11.4034C4.97766 11.2863 4.72232 10.8458 4.83503 10.4138L5.61233 7.50019C5.70852 7.14103 6.03763 6.90294 6.39258 6.90272C6.46135 6.90273 6.53318 6.91055 6.59993 6.93023L6.60189 6.93121L6.68149 6.95676C7.0668 7.10333 7.28701 7.51617 7.17774 7.92077L6.90161 8.95062L16.8257 3.20783L16.9259 3.15968C17.0261 3.11867 17.1296 3.09882 17.2315 3.09876H17.3485C17.5835 3.13384 17.7997 3.27189 17.9283 3.49379C18.1507 3.87741 18.0212 4.37511 17.6335 4.59735L7.70839 10.3401L8.73725 10.6163C9.17109 10.7334 9.42967 11.1742 9.3131 11.6058Z" fill="white"/>
</g>
<defs>
<clipPath id="clip0_458_1620">
<rect width="32" height="32" fill="white" transform="translate(0.278015)"/>
</clipPath>
</defs>
</svg>
