<svg width="33" height="32" viewBox="0 0 33 32" fill="none" xmlns="http://www.w3.org/2000/svg">
<path d="M24.2996 16.1173V22.8887C24.2996 24.3819 23.0891 25.5925 21.5958 25.5925H13.4844L8.07702 31V25.5925H5.37326C3.88004 25.5925 2.66949 24.3819 2.66949 22.8887V12.0737C2.66949 10.5804 3.88004 9.3699 5.37326 9.3699H13.4845H17.5402H19.568" stroke="white" stroke-width="1.5" stroke-miterlimit="10" stroke-linecap="round" stroke-linejoin="round"/>
<circle cx="23.2943" cy="5.49453" r="4.49453" stroke="white" stroke-width="1.5" stroke-linecap="round" stroke-dasharray="1 2"/>
<path d="M30.8865 16.154C30.8865 14.1405 30.0866 12.2093 28.6628 10.7855C27.239 9.36173 25.3079 10.1141 23.2943 10.1141C21.2808 10.1141 19.3497 9.36173 17.9258 10.7855C16.502 12.2093 15.7021 14.1404 15.7021 16.154L23.2943 16.154H30.8865Z" stroke="white" stroke-width="1.5" stroke-linecap="round" stroke-dasharray="1 2"/>
</svg>
