<svg width="33" height="32" viewBox="0 0 33 32" fill="none" xmlns="http://www.w3.org/2000/svg">
<g clip-path="url(#clip0_460_1676)">
<path fill-rule="evenodd" clip-rule="evenodd" d="M20.9667 3.8909C23.0917 3.89115 24.8159 5.61632 24.8161 7.74135V14.2142C27.4478 15.0428 29.3561 17.5031 29.3561 20.4086C29.3561 21.6107 29.0277 22.7355 28.4583 23.7011L31.9299 26.6493C32.2786 26.9457 32.3211 27.4682 32.0249 27.817C31.7286 28.1658 31.2061 28.2082 30.8572 27.912L27.4417 25.0112C26.2678 26.1788 24.6503 26.9008 22.8639 26.9008C19.5176 26.9008 16.7632 24.369 16.4105 21.1165H10.9834L6.33328 25.7331C6.17755 25.8889 5.96581 25.9705 5.76132 25.9706C5.65209 25.9705 5.54625 25.9452 5.4516 25.9058L5.44945 25.9047C5.15219 25.7762 4.94656 25.4848 4.94656 25.1547V21.1165H4.07243C1.94716 21.1165 0.222078 19.3924 0.221985 17.2671V7.74135C0.222167 5.61617 1.94721 3.8909 4.07243 3.8909H20.9667ZM22.8639 15.5739C20.1938 15.5739 18.0292 17.7385 18.0292 20.4086C18.0292 23.0787 20.1938 25.2432 22.8639 25.2432C25.534 25.2432 27.6985 23.0787 27.6985 20.4086C27.6985 18.1199 26.108 16.2034 23.9722 15.7023C23.8815 15.6991 23.7952 15.6802 23.7143 15.6494C23.4381 15.6004 23.1541 15.5739 22.8639 15.5739ZM4.07243 5.52259C2.85157 5.52259 1.85386 6.52048 1.85368 7.74135V17.2671C1.85377 18.488 2.85147 19.4859 4.07243 19.4859H5.76132C6.20998 19.4861 6.57699 19.8531 6.57717 20.3017V23.196L10.0769 19.7222C10.2317 19.5679 10.4362 19.486 10.6478 19.4859H16.4375C16.8855 16.3374 19.5916 13.9163 22.8639 13.9163C22.9717 13.9163 23.0789 13.9187 23.1855 13.9239V7.74135C23.1853 6.52068 22.1874 5.52285 20.9667 5.52259H4.07243ZM3.82962 5.36935C3.81926 5.37041 3.80865 5.37248 3.79833 5.37367C3.81236 5.37205 3.82631 5.36964 3.84041 5.36827L3.82962 5.36935ZM3.8825 4.06141C3.86048 4.06253 3.8386 4.06529 3.81667 4.0668C3.90122 4.06099 3.98646 4.05709 4.07243 4.05709L3.8825 4.06141ZM21.2182 4.06572C21.1973 4.06431 21.1765 4.06247 21.1556 4.06141L20.9667 4.05709C21.0512 4.0571 21.1351 4.06006 21.2182 4.06572Z" fill="white"/>
</g>
<defs>
<clipPath id="clip0_460_1676">
<rect width="32" height="32" fill="white" transform="translate(0.221985)"/>
</clipPath>
</defs>
</svg>
