<svg width="33" height="32" viewBox="0 0 33 32" fill="none" xmlns="http://www.w3.org/2000/svg">
<g clip-path="url(#clip0_460_1680)">
<path fill-rule="evenodd" clip-rule="evenodd" d="M19.4302 0C20.7239 0.000104077 21.7934 0.97572 21.9353 2.23463L21.9513 2.49005V4.83486C21.9563 5.18688 22.1449 5.50848 22.4461 5.68624L22.4501 5.68925C22.7579 5.86539 23.1359 5.86533 23.4437 5.68925L23.4477 5.68724L25.451 4.51434C26.0277 4.1797 26.7144 4.08877 27.3591 4.25992L27.5955 4.33605C28.1376 4.54033 28.5959 4.92744 28.8866 5.43283L31.8173 10.5201L31.8204 10.5251C32.1183 11.0235 32.2249 11.6108 32.1258 12.1778L32.0708 12.4192L32.0678 12.4292C31.9034 13.0753 31.4832 13.6259 30.9039 13.9547L30.8989 13.9577L28.8946 15.1306C28.5845 15.3051 28.3919 15.6325 28.3918 15.988C28.3918 16.3434 28.5846 16.6718 28.8946 16.8464L30.8989 18.0183L30.9039 18.0213C31.4791 18.3466 31.8994 18.8894 32.0688 19.5277L32.0708 19.5347C32.251 20.1735 32.1607 20.8584 31.8204 21.4278L31.8173 21.4338L28.8866 26.5211C28.5971 27.0252 28.1415 27.4099 27.6025 27.6129L27.3661 27.689C26.7202 27.86 26.0333 27.7696 25.452 27.4376L23.4477 26.2657L23.4437 26.2637C23.1359 26.0876 22.7579 26.0875 22.4501 26.2637L22.4441 26.2677C22.1385 26.4501 21.9513 26.7806 21.9513 27.1361V29.4799C21.9513 30.1475 21.6847 30.7892 21.2121 31.2618C20.7396 31.7343 20.0977 31.9999 19.4302 32H13.5697C12.2795 32 11.2118 31.0301 11.0656 29.7754L11.0496 29.521V27.1822C11.0494 26.8271 10.862 26.4972 10.5568 26.3148L10.5498 26.3108C10.2419 26.1345 9.86407 26.1345 9.55617 26.3108L9.55317 26.3128L7.55191 27.4827C6.96993 27.8159 6.27982 27.9065 5.6328 27.7351C4.99179 27.5638 4.44501 27.1438 4.11433 26.5682L4.11333 26.5672L1.18357 21.4799L1.17956 21.4749L1.06437 21.2555C0.821565 20.7342 0.772349 20.1398 0.930154 19.5808L0.932158 19.5708C1.09658 18.9244 1.5174 18.3741 2.09705 18.0453L2.10206 18.0423L4.10632 16.8704L4.10531 16.8684C4.41525 16.6939 4.60798 16.3674 4.60813 16.012C4.60813 15.6563 4.4167 15.3282 4.10632 15.1536L2.10206 13.9817L2.09705 13.9787L1.88671 13.8455C1.41575 13.511 1.07605 13.0177 0.932158 12.4522L0.929153 12.4422L0.874063 12.2008C0.77518 11.6341 0.881837 11.0474 1.17956 10.5491L1.18357 10.5431L4.11132 5.45787L4.11233 5.45887C4.44694 4.89056 4.99403 4.47805 5.63179 4.31201L5.6338 4.31101C6.27957 4.13996 6.96767 4.23066 7.54891 4.56241L9.55317 5.73432L9.55617 5.73632C9.86401 5.91242 10.242 5.91245 10.5498 5.73632L10.5568 5.73232C10.8622 5.54986 11.0496 5.21924 11.0496 4.8639V2.5201C11.0496 1.12758 12.1772 0 13.5697 0H19.4302ZM13.5697 1.48842C13.0193 1.48842 12.5731 1.93464 12.5731 2.48504V4.82985C12.5742 5.73117 12.0955 6.56556 11.316 7.0164C10.5358 7.46765 9.57243 7.46811 8.79293 7.0174L6.79068 5.8465L6.78767 5.8455L6.70053 5.80043C6.4927 5.70642 6.25641 5.68497 6.03044 5.74634L6.02343 5.74834C5.80868 5.81069 5.62078 5.94191 5.48856 6.11995L5.43548 6.19907L5.43047 6.20709L2.4997 11.2944C2.22847 11.7672 2.38767 12.3726 2.85929 12.6496L4.86455 13.8225L4.86855 13.8245C5.6477 14.2675 6.12918 15.0962 6.1266 15.991C6.1077 16.8713 5.62894 17.6786 4.86655 18.1184L4.86455 18.1194L2.85929 19.2924C2.38778 19.5693 2.22872 20.1738 2.4997 20.6466L2.50071 20.6476L5.43047 25.7348L5.43548 25.7428C5.55126 25.9335 5.7269 26.081 5.93328 26.1625L6.02343 26.1936C6.25509 26.2771 6.5111 26.2727 6.73959 26.1785L6.76564 26.1675L6.79068 26.1535L8.79594 24.9816C9.57178 24.5265 10.5352 24.5264 11.311 24.9816L11.315 24.9836C12.098 25.432 12.5794 26.2666 12.5731 27.1681V29.515C12.5731 30.0653 13.0193 30.5116 13.5697 30.5116H19.4312C19.6944 30.5114 19.9482 30.4072 20.1354 30.2201C20.3226 30.0329 20.4268 29.7784 20.4268 29.515V27.1772C20.4394 26.2823 20.9257 25.4616 21.7029 25.0207C22.4793 24.5791 23.4319 24.5829 24.205 25.0287L26.2343 26.2146L26.2603 26.2256C26.4887 26.3197 26.745 26.324 26.9765 26.2406C27.2217 26.1695 27.4331 26.0078 27.5654 25.7899L27.5694 25.7819L30.5002 20.6946L30.5032 20.6886C30.7629 20.2192 30.603 19.6285 30.1456 19.3524L30.1406 19.3504L28.1364 18.1775L28.1324 18.1755L27.9891 18.0874C27.2926 17.6269 26.8696 16.8423 26.8743 16.001C26.8756 15.1029 27.3553 14.2735 28.1344 13.8235L28.1364 13.8225L30.1416 12.6496C30.613 12.3725 30.7713 11.767 30.5002 11.2944L27.5694 6.20709L27.5644 6.19907L27.5113 6.11995C27.3979 5.96728 27.2438 5.8483 27.0666 5.77839L26.9705 5.74634L26.8723 5.7253C26.6441 5.68744 26.4112 5.73093 26.2122 5.8455L26.2102 5.8465L24.207 7.0174C23.4276 7.4681 22.4651 7.46736 21.6849 7.0164C20.9054 6.56557 20.4257 5.73124 20.4268 4.82985V2.48504C20.4268 2.22162 20.3226 1.96717 20.1354 1.77989C19.9483 1.59286 19.6944 1.4886 19.4312 1.48842H13.5697Z" fill="white"/>
<path d="M25.8786 16.6049L28.016 16.4697L27.9484 15.1182L25.169 15.2872L21.7903 15.3885C21.52 15.3885 21.2497 15.5575 21.1483 15.794L18.648 21.0649L17.4654 5.82663C17.4317 5.45496 17.1614 5.18466 16.7897 5.15088C16.418 5.11709 16.0802 5.3536 16.0126 5.72527L13.242 18.1253L11.7215 13.7329C11.6202 13.4626 11.3499 13.2599 11.0458 13.2261C10.7417 13.2261 10.4714 13.3951 10.37 13.6654L9.05232 16.7063L5.13295 16.5035L5.06538 17.855L9.42398 18.0915C9.72807 18.1253 9.99837 17.9226 10.1335 17.6523L11.012 15.6588L12.7352 20.5918C12.8365 20.8959 13.1406 21.0987 13.4785 21.0987C13.8164 21.0649 14.0867 20.8621 14.1543 20.5243L16.4856 10.0501L17.533 23.4976C17.5668 23.8355 17.8033 24.1058 18.1412 24.1733C18.175 24.1733 18.2426 24.1733 18.2764 24.1733C18.5467 24.1733 18.817 24.0044 18.9521 23.7679L22.2971 16.74L25.2366 16.6387H25.338L25.8786 16.6049Z" fill="white"/>
</g>
<defs>
<clipPath id="clip0_460_1680">
<rect width="32" height="32" fill="white" transform="translate(0.5)"/>
</clipPath>
</defs>
</svg>
