<svg width="33" height="32" viewBox="0 0 33 32" fill="none" xmlns="http://www.w3.org/2000/svg">
<g clip-path="url(#clip0_460_1691)">
<path d="M25.3 2.39999H7.7C3.73 2.39999 0.5 5.62959 0.5 9.59999V17.6C0.5 21.5704 3.73 24.8 7.7 24.8H10.1V28.8C10.1 29.1236 10.2948 29.4156 10.5936 29.5392C10.6928 29.5804 10.7968 29.6 10.9 29.6C11.1084 29.6 11.3124 29.5188 11.4656 29.3656L16.0312 24.8H25.3C29.27 24.8 32.5 21.5704 32.5 17.6V9.59999C32.5 5.62959 29.27 2.39999 25.3 2.39999ZM30.9 17.6C30.9 20.6876 28.388 23.2 25.3 23.2H15.7C15.488 23.2 15.2844 23.2844 15.1344 23.4344L11.7 26.8688V24C11.7 23.558 11.3416 23.2 10.9 23.2H7.7C4.612 23.2 2.1 20.6876 2.1 17.6V9.59999C2.1 6.51239 4.612 3.99999 7.7 3.99999H25.3C28.388 3.99999 30.9 6.51239 30.9 9.59999V17.6Z" fill="white"/>
<path d="M7.67249 12.625C8.13848 12.625 8.51624 13.0028 8.51624 13.4688C8.51624 13.9347 8.13848 14.3125 7.67249 14.3125H7.56042C7.09443 14.3125 6.71667 13.9347 6.71667 13.4688C6.71667 13.0028 7.09443 12.625 7.56042 12.625H7.67249Z" fill="white"/>
<path d="M10.597 12.625C11.063 12.625 11.4408 13.0028 11.4408 13.4688C11.4408 13.9347 11.063 14.3125 10.597 14.3125H10.485C10.019 14.3125 9.64124 13.9347 9.64124 13.4688C9.64124 13.0028 10.019 12.625 10.485 12.625H10.597Z" fill="white"/>
<path d="M13.5216 12.625C13.9876 12.625 14.3654 13.0028 14.3654 13.4688C14.3654 13.9347 13.9876 14.3125 13.5216 14.3125H13.4095C12.9436 14.3125 12.5658 13.9347 12.5658 13.4688C12.5658 13.0028 12.9436 12.625 13.4095 12.625H13.5216Z" fill="white"/>
<path d="M25.4396 12.625C25.9056 12.625 26.2833 13.0028 26.2833 13.4688C26.2833 13.9347 25.9056 14.3125 25.4396 14.3125H16.3341C15.8681 14.3125 15.4904 13.9347 15.4904 13.4688C15.4904 13.0028 15.8681 12.625 16.3341 12.625H25.4396Z" fill="white"/>
</g>
<defs>
<clipPath id="clip0_460_1691">
<rect width="32" height="32" fill="white" transform="translate(0.5)"/>
</clipPath>
</defs>
</svg>
