<svg width="33" height="32" viewBox="0 0 33 32" fill="none" xmlns="http://www.w3.org/2000/svg">
<path d="M22.7925 21.7927C22.9899 21.7928 23.1788 21.8721 23.3184 22.0114C23.4232 22.1163 23.4939 22.2491 23.5225 22.3925L23.5371 22.5383V24.3841H25.3839C25.5813 24.3842 25.7702 24.4635 25.9098 24.6028C26.0146 24.7077 26.0853 24.8405 26.1139 24.9839L26.1285 25.1297C26.1285 25.3272 26.0495 25.5167 25.9098 25.6565C25.7702 25.7959 25.5813 25.8751 25.3839 25.8752H23.5371V27.7211C23.537 27.9186 23.4581 28.1082 23.3184 28.2479C23.1788 28.3872 22.9899 28.4665 22.7925 28.4666C22.595 28.4666 22.4054 28.3875 22.2657 28.2479C22.1259 28.1082 22.047 27.9186 22.047 27.7211V25.8752H20.2011C20.0035 25.8752 19.814 25.7962 19.6742 25.6565C19.5694 25.5516 19.4987 25.4189 19.4701 25.2755L19.4555 25.1297C19.4555 24.9321 19.5345 24.7426 19.6742 24.6028C19.814 24.4632 20.0035 24.3841 20.2011 24.3841H22.047V22.5383C22.047 22.3407 22.1259 22.1512 22.2657 22.0114C22.4054 21.8718 22.595 21.7927 22.7925 21.7927Z" fill="white"/>
<path fill-rule="evenodd" clip-rule="evenodd" d="M13.8907 0.00680415C15.1562 0.0695201 16.3566 0.59965 17.2568 1.49983C18.157 2.40001 18.688 3.60043 18.7508 4.86594L18.7576 5.11964V7.47484H22.7556C22.9531 7.47488 23.1427 7.55382 23.2824 7.69355C23.3873 7.79841 23.4579 7.93121 23.4865 8.07458L23.5011 8.22038V18.2857C24.6327 18.4027 25.7187 18.7965 26.6602 19.4365C27.6205 20.0895 28.3994 20.976 28.925 22.0114C29.4506 23.0472 29.7066 24.2002 29.6666 25.361C29.6266 26.5213 29.2928 27.6526 28.6975 28.6494C28.102 29.6464 27.2626 30.4765 26.2597 31.0619C25.2567 31.6473 24.1217 31.9697 22.9607 31.998C21.7997 32.0262 20.6501 31.7602 19.6198 31.2242C18.6016 30.6945 17.7327 29.9177 17.0916 28.9662H6.53057C5.7997 28.9662 5.09857 28.6751 4.58167 28.1585C4.06486 27.6417 3.77307 26.9405 3.77295 26.2096V8.22038C3.773 8.02262 3.85309 7.83309 3.99263 7.69355C4.13216 7.55427 4.32109 7.47492 4.51849 7.47484H8.51739V5.11964C8.51739 3.76177 9.05706 2.46 10.0172 1.49983C10.9774 0.53967 12.2792 1.65822e-05 13.637 0L13.8907 0.00680415ZM24.8542 20.1539C23.87 19.7462 22.7865 19.639 21.7417 19.8467C20.6969 20.0546 19.7364 20.5671 18.9831 21.3203C18.2299 22.0736 17.7174 23.0341 17.5096 24.0789C17.3017 25.1237 17.4081 26.2072 17.8157 27.1913C18.2234 28.1754 18.9149 29.016 19.8006 29.6078C20.6863 30.1995 21.7273 30.5156 22.7925 30.5156C24.2202 30.5138 25.5893 29.9465 26.5989 28.9371C27.5455 27.9905 28.104 26.7276 28.1717 25.397L28.1785 25.1297C28.1785 24.0645 27.8623 23.0235 27.2706 22.1378C26.6789 21.2522 25.8381 20.5616 24.8542 20.1539ZM5.26403 26.2096C5.26414 26.5452 5.39703 26.8675 5.63437 27.1048C5.87182 27.3423 6.1947 27.4752 6.53057 27.4752H16.3373C15.9847 26.5193 15.8476 25.4969 15.9397 24.4813C16.0352 23.4303 16.3717 22.4154 16.9234 21.5157C17.4754 20.6158 18.2273 19.8543 19.1212 19.2927C19.996 18.7431 20.9839 18.4002 22.01 18.2857V8.96593H18.7576V12.4108C18.7576 12.6083 18.6785 12.7979 18.5389 12.9376C18.3992 13.0773 18.2096 13.1562 18.0121 13.1563C17.8145 13.1563 17.625 13.0774 17.4853 12.9376C17.3455 12.7978 17.2666 12.6083 17.2666 12.4108V8.96593H10.0075V12.4108C10.0075 12.6083 9.92855 12.7978 9.78879 12.9376C9.68392 13.0424 9.55114 13.1131 9.40776 13.1417L9.26195 13.1563C9.06451 13.1562 8.87566 13.077 8.73609 12.9376C8.59633 12.7978 8.51739 12.6083 8.51739 12.4108V8.96593H5.26403V26.2096ZM13.637 1.49011C12.6744 1.49013 11.7506 1.87186 11.0699 2.55253C10.3892 3.23321 10.0075 4.15699 10.0075 5.11964V7.47484H17.2666V5.11964C17.2665 4.15698 16.8848 3.23321 16.2041 2.55253C15.5234 1.87186 14.5997 1.49011 13.637 1.49011Z" fill="white"/>
</svg>
