<svg width="32" height="32" viewBox="0 0 32 32" fill="none" xmlns="http://www.w3.org/2000/svg">
<path d="M21.5985 11.6424C21.8956 11.3452 22.3757 11.3452 22.6728 11.6424C22.9699 11.9395 22.9699 12.4196 22.6728 12.7167L20.1663 15.2233L22.6728 17.7291C22.9699 18.0262 22.9699 18.5063 22.6728 18.8034C22.5205 18.9482 22.33 19.0244 22.1319 19.0244C21.9339 19.0244 21.7434 18.9558 21.591 18.8034L19.0845 16.2969L16.5779 18.8034C16.4256 18.9482 16.2351 19.0244 16.037 19.0244C15.839 19.0244 15.6485 18.9558 15.4961 18.8034C15.1991 18.5063 15.1987 18.0262 15.511 17.7291L18.0176 15.2233L15.511 12.7167C15.214 12.4197 15.2142 11.9395 15.511 11.6424C15.8081 11.3452 16.2882 11.3452 16.5854 11.6424L19.0919 14.1489L21.5985 11.6424Z" fill="white"/>
<path fill-rule="evenodd" clip-rule="evenodd" d="M3.04745 3.81021C4.7464 3.81021 6.23994 4.89226 6.78087 6.49979L7.40509 8.38138H31.2363C31.4725 8.38138 31.6935 8.48798 31.8382 8.6708C31.983 8.85365 32.0361 9.09771 31.9751 9.32627L28.9277 21.5161C28.8438 21.8588 28.5393 22.0949 28.1889 22.0949H25.1414H12.9516H9.9042C9.55382 22.0949 9.24928 21.8588 9.1654 21.5161L6.1254 9.35677L5.33303 6.97967C5.00543 5.99687 4.08358 5.33393 3.04745 5.33393C2.2094 5.33393 1.52372 6.01961 1.52372 6.85766C1.52372 7.27668 1.18089 7.61952 0.761862 7.61952C0.342838 7.61952 0 7.27668 0 6.85766C0 5.17394 1.36373 3.81021 3.04745 3.81021ZM12.9516 22.0949C14.6354 22.0949 15.9991 23.4586 15.9991 25.1423C15.9991 26.8261 14.6354 28.1898 12.9516 28.1898C11.2679 28.1898 9.9042 26.8261 9.9042 25.1423C9.9042 23.4586 11.2679 22.0949 12.9516 22.0949ZM25.1414 22.0949C26.8251 22.0949 28.1889 23.4586 28.1889 25.1423C28.1889 26.8261 26.8251 28.1898 25.1414 28.1898C23.4577 28.1898 22.094 26.8261 22.094 25.1423C22.094 23.4586 23.4577 22.0949 25.1414 22.0949ZM10.4987 20.5712H27.5944L30.2609 9.9051H7.83215L10.4987 20.5712ZM25.1414 23.6186C24.3034 23.6186 23.6177 24.3043 23.6177 25.1423C23.6177 25.9804 24.3034 26.6661 25.1414 26.6661C25.9795 26.6661 26.6652 25.9804 26.6652 25.1423C26.6652 24.3043 25.9795 23.6186 25.1414 23.6186ZM11.4279 25.1423C11.4279 24.3043 12.1136 23.6186 12.9516 23.6186C13.7897 23.6186 14.4754 24.3043 14.4754 25.1423C14.4754 25.9804 13.7897 26.6661 12.9516 26.6661C12.1136 26.6661 11.4279 25.9804 11.4279 25.1423Z" fill="white"/>
</svg>
