<svg width="33" height="32" viewBox="0 0 33 32" fill="none" xmlns="http://www.w3.org/2000/svg">
<path fill-rule="evenodd" clip-rule="evenodd" d="M17.6403 0C20.5986 1.79648e-05 23.2913 0.74636 25.2501 1.96082C27.2056 3.17332 28.4571 4.87344 28.4571 6.78233C28.4569 7.88118 28.0393 8.93496 27.2823 9.8716L28.5391 9.15595C28.7845 9.0148 29.0901 9.03133 29.3194 9.19549C29.5509 9.36049 29.6629 9.64436 29.6087 9.92272L29.0493 12.8114C30.6367 14.1148 31.4195 15.7099 31.123 17.2452C30.9928 17.908 30.6753 18.513 30.1855 19.043L30.1845 19.0439C30.0415 19.1976 29.846 19.2753 29.6531 19.2754C29.4783 19.2754 29.3007 19.2119 29.1612 19.0835C28.8681 18.8121 28.8491 18.3537 29.1207 18.0602C29.4321 17.7241 29.6252 17.3573 29.7003 16.9703C29.8983 15.9506 29.2625 14.7495 27.8263 13.6891L27.8253 13.6881C27.6014 13.5217 27.4934 13.2428 27.5456 12.9686L27.889 11.192L25.9349 12.3079C25.7713 12.4016 25.5759 12.4274 25.3939 12.3803L25.3167 12.3552C24.9442 12.2116 24.563 12.0883 24.1892 11.9887H24.1873C24.041 11.9476 23.9083 11.9235 23.7436 11.8845C23.5657 11.8417 23.407 11.7991 23.245 11.7688L23.244 11.7678C22.9696 11.7148 22.6945 11.6727 22.4203 11.6376C22.3835 11.6333 22.346 11.6289 22.3075 11.6251C22.2687 11.6211 22.228 11.6173 22.1869 11.6125C21.9897 11.5905 21.7941 11.5724 21.6005 11.5595H21.5986C21.5125 11.5531 21.4269 11.549 21.3372 11.545C21.1506 11.5372 20.9652 11.5334 20.7826 11.5334C20.6981 11.5334 20.6138 11.5321 20.5328 11.5334L20.5338 11.5344C20.3355 11.5382 20.1368 11.5491 19.9406 11.5633L19.9416 11.5643C19.9087 11.5673 19.8757 11.5694 19.847 11.571C19.8175 11.5727 19.7917 11.5736 19.767 11.5759C19.5146 11.5992 19.2677 11.6305 19.0282 11.6704C19.0152 11.6729 19.0019 11.6758 18.9867 11.6791C18.9703 11.6826 18.9504 11.6869 18.9308 11.6906H18.9289C18.8287 11.7087 18.73 11.7287 18.6328 11.7495L18.3453 11.816C18.3115 11.8245 18.2825 11.8324 18.2527 11.8411C18.4426 11.9793 18.6267 12.1199 18.8015 12.2655C19.1299 12.5417 19.4267 12.8298 19.6995 13.121L26.2494 14.3922L26.3207 14.4095C26.6715 14.5154 26.8926 14.8727 26.8213 15.2409C26.7542 15.5866 26.452 15.8273 26.1114 15.8274C26.0667 15.8273 26.0207 15.8241 25.9726 15.8148L20.9022 14.8301C21.0518 15.1386 21.1679 15.4501 21.2485 15.7637L25.8086 16.652C26.2019 16.7283 26.4564 17.1087 26.3805 17.5008C26.3134 17.8464 26.0112 18.0871 25.6707 18.0872L25.5318 18.0746L21.369 17.2635C21.3621 17.3264 21.3531 17.3953 21.3401 17.4612C21.2633 17.8541 20.8807 18.108 20.4904 18.0322C20.2248 17.9802 20.0391 17.789 19.957 17.5673L19.956 17.5654C19.956 17.5654 19.9546 17.5611 19.9522 17.5557C19.9479 17.5464 19.939 17.5263 19.9319 17.5017L19.93 17.4969C19.9145 17.4371 19.9165 17.3612 19.9165 17.3445C19.9165 17.3445 19.9151 17.34 19.9146 17.3368C19.9141 17.3338 19.9133 17.3289 19.9126 17.3243C19.9099 17.3055 19.9062 17.2704 19.9117 17.2288C19.9238 17.1333 19.9285 17.089 19.9319 17.0417C19.9361 16.9694 19.9406 16.9122 19.9406 16.8536C19.9406 16.7312 19.9335 16.6056 19.9165 16.4813C19.8243 15.7806 19.4404 15.0122 18.7871 14.2639C18.5206 13.9643 18.21 13.6645 17.8698 13.3785C17.4075 12.9949 16.8749 12.631 16.291 12.3021L16.29 12.3012C16.1522 12.2221 16.0095 12.1533 15.8531 12.0716C15.7173 11.9996 15.5999 11.9325 15.4711 11.87C15.335 11.8046 15.1987 11.7512 15.0458 11.6839C14.8892 11.6144 14.7522 11.5488 14.6041 11.4891L14.6031 11.4881C14.6031 11.4881 14.5985 11.4865 14.5954 11.4852L14.145 11.3135C13.6896 11.1487 13.2202 11.0043 12.7455 10.8824L12.7445 10.8814C11.3914 10.5302 10.0611 10.3725 8.79491 10.4088C7.32148 10.4484 6.05024 10.7497 5.09993 11.2393C4.14894 11.7293 3.5352 12.3983 3.33394 13.1702C3.04751 14.3013 3.61606 15.6559 5.00444 16.9201L5.29379 17.1719C5.48056 17.3287 5.57488 17.568 5.54938 17.8065L5.53106 17.9087L4.74017 20.9816L4.77875 21.0482L4.77972 21.0491C4.94419 21.3852 4.82374 21.788 4.51255 21.9818L4.44793 22.0184L4.17884 22.1496C4.07657 22.2004 3.96769 22.2239 3.86055 22.2239C3.69666 22.2239 3.53532 22.1676 3.40435 22.0618L3.40338 22.0609C3.18517 21.8823 3.08869 21.5923 3.15937 21.3182L4.01873 17.9762C2.28608 16.3919 1.49614 14.5287 1.93349 12.8085C2.45978 10.7849 4.56264 9.44238 7.43979 9.06818C7.03412 8.34426 6.81973 7.57095 6.81962 6.78233C6.81962 4.8734 8.07218 3.17335 10.0285 1.96082C11.9879 0.746378 14.6808 6.47154e-05 17.6403 0ZM30.0398 18.9089L30.1874 18.7401C30.1896 18.7375 30.191 18.7341 30.1932 18.7314C30.144 18.7912 30.0935 18.8509 30.0398 18.9089ZM26.1867 17.4631L26.1963 17.3696C26.1964 17.367 26.1954 17.3644 26.1954 17.3619C26.1953 17.3952 26.1932 17.4292 26.1867 17.4631ZM30.986 16.6539C30.9844 16.7467 30.9792 16.8394 30.9696 16.9317C30.9888 16.7471 30.9919 16.5614 30.9792 16.3752L30.986 16.6539ZM26.1114 15.6306L26.2031 15.6219C26.1732 15.6272 26.1425 15.6306 26.1114 15.6306C26.0773 15.6306 26.0443 15.6275 26.0102 15.621L26.1114 15.6306ZM27.943 13.5299C28.034 13.5971 28.1222 13.6649 28.2073 13.7334C28.2928 13.8023 28.3756 13.8716 28.4552 13.9418C28.6137 14.0816 28.7599 14.2242 28.894 14.3681C28.6257 14.0801 28.3077 13.7991 27.943 13.5299ZM14.6687 11.3019L14.6735 11.3039L14.6677 11.301L14.6687 11.3019ZM21.613 11.3627C21.5236 11.3561 21.4354 11.3512 21.3459 11.3473L21.613 11.3627ZM20.5289 11.3367C20.325 11.3406 20.1219 11.3531 19.9232 11.3675C20.1219 11.3531 20.326 11.3416 20.5299 11.3376L20.5289 11.3367ZM17.6422 1.44867C15.0315 1.44867 12.6736 2.06272 10.9756 3.04394C9.27274 4.02814 8.26847 5.35722 8.26829 6.78136C8.26837 7.51947 8.55339 8.2641 9.1074 8.95437C9.123 8.95432 9.13867 8.95437 9.1537 8.95437C9.27508 8.95438 9.42664 8.96467 9.52889 8.96691H9.53082C9.67038 8.97078 9.81543 8.97329 9.96098 8.98137C10.1706 8.99348 10.382 9.01378 10.5879 9.03346C10.7172 9.04612 10.8578 9.05739 10.9968 9.07493C11.232 9.1045 11.468 9.14461 11.7 9.18392C11.7971 9.20085 11.9315 9.21887 12.0443 9.24082C12.3837 9.30606 12.7262 9.38247 13.0686 9.47037L13.0985 9.47712L13.1072 9.47905L13.1371 9.48773C13.1422 9.48937 13.1454 9.4909 13.1477 9.49159C13.4779 9.57682 13.8042 9.67118 14.1228 9.77515C14.1703 9.79056 14.224 9.81103 14.2617 9.82434C14.4045 9.87196 14.5454 9.921 14.686 9.97191L15.1066 10.1311L15.1095 10.132C15.1758 10.1596 15.2549 10.1957 15.3139 10.2207C15.551 10.3195 15.7898 10.421 16.0219 10.5323C16.1341 10.585 16.2477 10.647 16.3469 10.6972C16.4458 10.7476 16.5608 10.8038 16.67 10.8602C16.6859 10.854 16.7013 10.8475 16.7163 10.8419C16.7615 10.8248 16.801 10.8102 16.8388 10.7946L17.1783 10.6596L17.6085 10.5217L17.9711 10.4165C18.1238 10.3771 18.2804 10.3463 18.4302 10.3153C18.5481 10.2914 18.6795 10.2618 18.8102 10.24C18.9736 10.2128 19.1417 10.1939 19.3011 10.1745C19.4269 10.159 19.5588 10.1413 19.6947 10.1291C19.8668 10.1142 20.0469 10.1079 20.2136 10.1002L20.6138 10.0828C20.7997 10.0801 20.9885 10.0883 21.1674 10.0934C21.285 10.097 21.4277 10.0962 21.561 10.104C21.7685 10.1149 21.9786 10.1382 22.1802 10.159L22.5322 10.1928L22.9952 10.2584L23.46 10.3394L23.4649 10.3403L23.4793 10.3423C23.4875 10.3435 23.5028 10.3465 23.5189 10.35L23.5179 10.3519C23.5206 10.3524 23.5232 10.3524 23.5256 10.3529L23.5266 10.351C23.7757 10.3969 24.0252 10.4536 24.2731 10.5159C26.0474 9.49221 27.0102 8.13486 27.0104 6.78136C27.0101 5.35723 26.0061 4.02814 24.304 3.04394C22.6069 2.06274 20.2507 1.44871 17.6422 1.44867ZM29.4226 9.74429C29.4259 9.79033 29.424 9.83728 29.4148 9.88414L29.4235 9.81759C29.4251 9.79299 29.4243 9.76852 29.4226 9.74429ZM8.18245 7.60215C8.2175 7.73423 8.25809 7.86633 8.30977 7.99662L8.2056 7.6957C8.19645 7.66482 8.19068 7.63312 8.18245 7.60215ZM7.01734 6.78233L7.02892 7.09772C7.03642 7.19643 7.04818 7.29476 7.06267 7.39285C7.03278 7.1904 7.01734 6.98712 7.01734 6.78233ZM27.9247 5.13786C28.1433 5.66339 28.2603 6.21408 28.2603 6.78136C28.2603 6.94614 28.2489 7.11035 28.2295 7.27325C28.2381 7.20076 28.2459 7.12817 28.2507 7.05528L28.2603 6.78136C28.2603 6.21437 28.144 5.66411 27.9257 5.13883L27.9247 5.13786ZM13.9193 1.68594C13.8525 1.70228 13.7866 1.72083 13.7206 1.73802C13.9282 1.68394 14.1392 1.63218 14.3543 1.58659L13.9193 1.68594ZM12.5805 0.993429C12.5413 1.00665 12.5028 1.02139 12.4638 1.0349C12.6522 0.969486 12.8435 0.906164 13.0387 0.847791L12.5805 0.993429ZM16.5552 0.231479C16.5424 0.232292 16.5295 0.23353 16.5167 0.234372C16.7078 0.221858 16.9004 0.212521 17.0944 0.206402L16.5552 0.231479Z" fill="white"/>
<path fill-rule="evenodd" clip-rule="evenodd" d="M6.90932 15.6537C6.9096 15.656 6.90997 15.6582 6.91028 15.6605L6.90932 15.6537Z" fill="white"/>
<path fill-rule="evenodd" clip-rule="evenodd" d="M21.7751 5.27868C21.7689 5.27983 21.7627 5.28094 21.7564 5.28198L21.7751 5.27868Z" fill="white"/>
<path fill-rule="evenodd" clip-rule="evenodd" d="M14.8662 7.97366C14.8605 7.97269 14.8547 7.97166 14.849 7.97058L14.8662 7.97366Z" fill="white"/>
<path fill-rule="evenodd" clip-rule="evenodd" d="M7.6134 14.8879L14.5771 16.6848C14.9641 16.7846 15.1974 17.179 15.0979 17.5663C15.0127 17.8915 14.7192 18.1093 14.3967 18.1094C14.3371 18.1093 14.2768 18.1024 14.2154 18.0862L7.25268 16.2903C6.86555 16.1908 6.63173 15.7961 6.73089 15.4088L6.73185 15.4078C6.83304 15.021 7.22719 14.7882 7.6134 14.8879ZM6.91028 15.6605L6.90932 15.6537C6.90574 15.6243 6.90494 15.5933 6.90643 15.5631L6.90932 15.6537C6.9096 15.656 6.90997 15.6582 6.91028 15.6605Z" fill="white"/>
<path d="M7.38771 12.8471C7.48897 12.4609 7.88385 12.2275 8.27022 12.3272L15.9544 14.3073C16.3415 14.407 16.5746 14.8015 16.4752 15.1889C16.3915 15.5156 16.0966 15.7326 15.775 15.7328C15.7155 15.7328 15.655 15.7249 15.5936 15.7087L7.90854 13.7296C7.52129 13.63 7.28731 13.2355 7.38674 12.848L7.38771 12.8471Z" fill="white"/>
<path fill-rule="evenodd" clip-rule="evenodd" d="M20.3312 6.73024C20.7328 6.73046 21.0545 7.05497 21.0565 7.45361C21.0564 7.85356 20.7322 8.17886 20.3322 8.17891H14.9474C14.5474 8.1789 14.2232 7.85455 14.2231 7.45458C14.2232 7.0546 14.5474 6.73026 14.9474 6.73024H20.3312ZM14.8539 7.97251L14.849 7.97058L14.8662 7.97366L14.9474 7.98119C14.9197 7.98119 14.8927 7.97811 14.8662 7.97366L14.8539 7.97251ZM14.4594 7.6523L14.4575 7.64748L14.4314 7.56067C14.4379 7.59239 14.4475 7.62294 14.4594 7.6523Z" fill="white"/>
<path fill-rule="evenodd" clip-rule="evenodd" d="M21.6777 4.03834C22.0776 4.0384 22.4018 4.36271 22.402 4.76267C22.4018 5.16262 22.0776 5.48695 21.6777 5.48701H13.6019C13.2003 5.48701 12.8778 5.16233 12.8776 4.76267C12.8778 4.36268 13.2019 4.03834 13.6019 4.03834H21.6777ZM21.7751 5.27868L21.7712 5.28061L21.7564 5.28198C21.7307 5.28624 21.7044 5.28929 21.6777 5.28929L21.7564 5.28198L21.7751 5.27868ZM13.1072 4.94303C13.0984 4.91907 13.0911 4.89425 13.0859 4.86877L13.1072 4.94303Z" fill="white"/>
<path fill-rule="evenodd" clip-rule="evenodd" d="M17.8091 18.4402H17.8158C17.8198 18.4399 17.819 18.4397 17.8264 18.4392C17.835 18.4386 17.8554 18.4372 17.8785 18.4392L28.4233 19.4934L28.5072 19.5069C28.6725 19.5437 28.8203 19.6365 28.9239 19.7702L28.9721 19.8406L30.552 22.4747C30.6853 22.6984 30.6895 22.978 30.5607 23.2048C30.4322 23.4305 30.1918 23.5722 29.9308 23.5722H29.0753V30.2224C29.075 30.5931 28.7925 30.9056 28.4224 30.9419L17.8882 31.9961L17.8833 31.9971C17.8667 31.9984 17.8413 32 17.8158 32C17.789 32 17.7646 31.9974 17.7483 31.9961H17.7435L7.20831 30.9429C6.83838 30.9064 6.55668 30.593 6.55631 30.2224V23.5722H5.70081C5.43814 23.5722 5.19829 23.4304 5.07003 23.2048C4.94123 22.9779 4.9462 22.6985 5.07967 22.4747L6.65952 19.8406C6.77655 19.6462 6.9791 19.5156 7.20831 19.4934L17.7531 18.4392H17.8033C17.8054 18.4394 17.8091 18.4402 17.8091 18.4402ZM15.7094 23.5722C15.9696 23.5721 16.2086 23.4323 16.3373 23.2067L17.0915 21.8873V30.4751L8.00499 29.5666V23.5722H15.7094ZM27.6267 29.5666L18.5402 30.4751V21.8873L19.2944 23.2067L19.2954 23.2077C19.3227 23.2545 19.3564 23.2937 19.3783 23.3192L19.3802 23.3215L19.3773 23.3186C19.3818 23.325 19.394 23.3394 19.4111 23.3562L19.4101 23.3581C19.4123 23.3602 19.4158 23.3619 19.4179 23.3639C19.4199 23.3658 19.4214 23.3688 19.4236 23.3707V23.3687C19.4599 23.4024 19.4966 23.429 19.5191 23.444C19.5261 23.4498 19.5398 23.4582 19.5567 23.4681V23.47C19.5613 23.4728 19.5666 23.475 19.5712 23.4777C19.5737 23.479 19.5763 23.4804 19.5789 23.4816C19.6837 23.5403 19.8021 23.5722 19.9232 23.5722H27.6267V29.5666ZM6.76368 30.3208C6.75756 30.2889 6.75408 30.256 6.75404 30.2224C6.75404 30.2873 6.76605 30.3489 6.78779 30.4067C6.77741 30.379 6.76934 30.3503 6.76368 30.3208ZM28.8776 30.2224C28.8776 30.2534 28.8744 30.2836 28.8687 30.313L28.868 30.3208C28.8623 30.3505 28.8524 30.3788 28.8419 30.4067C28.8533 30.3765 28.8625 30.3452 28.8687 30.313L28.8776 30.2224ZM30.389 23.1064C30.3815 23.1196 30.3732 23.1322 30.3645 23.1444L30.3504 23.1662C30.3471 23.1705 30.3422 23.1736 30.3388 23.1778C30.3476 23.1669 30.3562 23.1559 30.3645 23.1444L30.389 23.1064ZM6.97973 22.1236L7.71274 20.8977L16.4887 20.02L15.2888 22.1236H6.97973ZM28.651 22.1236H20.3428L19.142 20.021L27.916 20.8967L28.651 22.1236Z" fill="white"/>
</svg>
