<svg width="32" height="32" viewBox="0 0 32 32" fill="none" xmlns="http://www.w3.org/2000/svg">
<g clip-path="url(#clip0_485_2643)">
<path d="M13.1763 14.3056C13.4871 13.9916 13.4847 13.4852 13.1711 13.1744C12.4159 12.4256 11.9999 11.4228 11.9999 10.35C11.9999 8.27079 13.6007 6.57678 15.6315 6.38718L15.4343 6.58438C15.1219 6.89678 15.1219 7.40319 15.4343 7.71559C15.5907 7.87199 15.7951 7.94999 15.9999 7.94999C16.2047 7.94999 16.4091 7.87199 16.5655 7.71559L18.1655 6.11559C18.4779 5.80319 18.4779 5.29679 18.1655 4.98439L16.5655 3.38439C16.2531 3.07199 15.7467 3.07199 15.4343 3.38439C15.1219 3.69679 15.1219 4.20319 15.4343 4.51559L15.6847 4.76599C12.7435 4.93079 10.3999 7.36878 10.3999 10.35C10.3999 11.8532 10.9839 13.2592 12.0447 14.3104C12.2007 14.4652 12.4043 14.5424 12.6079 14.5424C12.8139 14.5424 13.0195 14.4636 13.1763 14.3056Z" fill="white"/>
<path d="M21.5999 10.35C21.5999 8.84679 21.0159 7.44078 19.9555 6.38998C19.6407 6.07798 19.1347 6.07959 18.8235 6.39439C18.5127 6.70838 18.5151 7.21479 18.8287 7.52559C19.5839 8.27438 19.9999 9.27718 19.9999 10.35C19.9999 12.4292 18.3991 14.1232 16.3683 14.3128L16.5655 14.1156C16.8779 13.8032 16.8779 13.2968 16.5655 12.9844C16.2531 12.672 15.7467 12.672 15.4343 12.9844L13.8343 14.5844C13.5219 14.8968 13.5219 15.4032 13.8343 15.7156L15.4343 17.3156C15.5907 17.472 15.7951 17.55 15.9999 17.55C16.2047 17.55 16.4091 17.472 16.5655 17.3156C16.8779 17.0032 16.8779 16.4968 16.5655 16.1844L16.3151 15.934C19.2563 15.7692 21.5999 13.3312 21.5999 10.35Z" fill="white"/>
<path d="M5.59384 9.40083L3.0491 11.0272C2.82332 11.1726 2.62688 11.341 2.46233 11.5298L5.59381 14.1038L5.59384 9.40083ZM7.09248 15.336L13.1897 20.3491L13.404 20.173C14.1667 19.5454 15.0826 19.2329 15.9985 19.2329C16.9143 19.2329 17.8314 19.5467 18.5929 20.173L18.8072 20.3491L24.9044 15.336V3.91221C24.9044 3.24763 24.6327 2.64558 24.1965 2.20805C23.759 1.77055 23.1569 1.5001 22.4923 1.5001H9.50344C8.84017 1.5001 8.23681 1.7718 7.79928 2.20805C7.36178 2.64555 7.09134 3.24763 7.09134 3.91221V15.336H7.09248ZM26.4058 14.1025L29.5373 11.5285C29.3728 11.3397 29.1763 11.1713 28.9506 11.0259L26.4058 9.39953L26.4058 14.1025ZM26.4058 7.62653L29.7529 9.76565C30.355 10.1509 30.8282 10.6547 31.1496 11.2415C31.1649 11.2695 31.179 11.2976 31.1943 11.3244L31.1955 11.3269L31.2045 11.3435C31.4927 11.9073 31.6446 12.5387 31.6446 13.2096V27.9093C31.6446 29.0356 31.1854 30.0586 30.4442 30.7997C29.7032 31.5408 28.6814 32 27.5538 32H4.44571C3.3194 32 2.29641 31.5408 1.55529 30.7997C0.814197 30.0586 0.35498 29.0369 0.35498 27.9093V13.2096C0.35498 12.54 0.50677 11.9073 0.795062 11.3435L0.803991 11.3269L0.805266 11.3244C0.820573 11.2963 0.834604 11.2682 0.849911 11.2415C1.17263 10.6534 1.64331 10.1496 2.24663 9.76565L5.59369 7.62653V3.91211C5.59369 2.83426 6.0325 1.85718 6.74169 1.14799C7.44963 0.440049 8.42926 0 9.5058 0H22.4947C23.5725 0 24.5496 0.438808 25.2588 1.14799C25.9668 1.85594 26.4068 2.83429 26.4068 3.91211L26.4058 7.62653ZM5.91921 16.3041C5.88349 16.2798 5.85033 16.2518 5.81972 16.2224L1.86561 12.9711C1.85923 13.0489 1.85541 13.1292 1.85541 13.2096V27.9092C1.85541 28.4284 2.00975 28.9131 2.27508 29.32L12.0126 21.3158L5.91799 16.3053L5.91921 16.3041ZM26.1789 16.2224C26.1483 16.2531 26.1151 16.2798 26.0794 16.3041L19.9848 21.3145L29.7223 29.3188C29.9876 28.9119 30.142 28.4284 30.142 27.908V13.2084C30.142 13.128 30.1382 13.0489 30.1318 12.9698L26.1777 16.2212L26.1789 16.2224ZM13.6746 21.8834L13.6529 21.9012L3.44193 30.2957C3.75061 30.4258 4.08992 30.4985 4.44451 30.4985H27.5526C27.9085 30.4985 28.2478 30.4258 28.5552 30.2957L18.3442 21.9012L18.3225 21.8834L17.6452 21.326C17.1618 20.9293 16.5814 20.7316 15.9985 20.7316C15.4168 20.7316 14.8352 20.9306 14.3517 21.326L13.6746 21.8834Z" fill="white"/>
</g>
<defs>
<clipPath id="clip0_485_2643">
<rect width="32" height="32" fill="white"/>
</clipPath>
</defs>
</svg>
