<svg width="33" height="32" viewBox="0 0 33 32" fill="none" xmlns="http://www.w3.org/2000/svg">
<path d="M26.6577 28.1836C27.0015 28.5269 27.0062 29.0805 26.6651 29.423L24.3692 31.7406C24.0268 32.0836 23.4759 32.0866 23.1308 31.7485L20.8122 29.4521C20.5266 29.1687 20.4799 28.7316 20.6705 28.3981C20.7075 28.3335 20.7535 28.2703 20.8078 28.2182L20.8098 28.2168L20.8766 28.1558C21.2214 27.8727 21.7275 27.8879 22.0488 28.208L22.8675 29.021L22.8093 25.2104L22.8179 25.0904C22.8333 24.9743 22.8703 24.8664 22.925 24.7706L22.9879 24.6608C23.1472 24.4589 23.3931 24.3301 23.6706 24.3287C24.1505 24.326 24.5483 24.7152 24.5485 25.1988L24.6063 29.0103L25.4187 28.1925C25.762 27.848 26.315 27.8421 26.6577 28.1836Z" fill="white"/>
<path d="M12.1837 28.1836C12.5275 28.5269 12.5322 29.0805 12.1911 29.423L9.89516 31.7406C9.55278 32.0836 9.00186 32.0866 8.65673 31.7485L6.33815 29.4521C6.05256 29.1687 6.00587 28.7316 6.19649 28.3981C6.23347 28.3335 6.27944 28.2703 6.3338 28.2182L6.33578 28.2168L6.40257 28.1558C6.74737 27.8727 7.25349 27.8879 7.57474 28.208L8.39351 29.021L8.33524 25.2104L8.34391 25.0904C8.35925 24.9743 8.39625 24.8664 8.45099 24.7706L8.51385 24.6608C8.67317 24.4589 8.91903 24.3301 9.19656 24.3287C9.67643 24.326 10.0742 24.7152 10.0745 25.1988L10.1323 29.0103L10.9447 28.1925C11.288 27.848 11.841 27.8421 12.1837 28.1836Z" fill="white"/>
<path fill-rule="evenodd" clip-rule="evenodd" d="M16.4999 22.5049H13.9527C14.7623 24.9533 18.2374 24.9533 19.047 22.5049H16.4999ZM14.0265 2.82539C14.3727 -0.492218 17.3291 -0.636692 18.4274 1.09326C18.7258 1.56427 18.9038 2.16445 18.9733 2.82539C22.8249 3.93239 25.5718 7.50938 25.5718 11.6096V17.6678C25.5718 18.1204 27.3354 18.6869 27.3354 20.4396C27.3354 21.6823 26.4042 22.506 25.1399 22.506H20.7674C20.1075 25.8736 15.915 27.2303 13.4287 24.7439C12.8285 24.1437 12.402 23.3699 12.2327 22.506H7.86014C6.59794 22.506 5.66787 21.6899 5.66787 20.4396L5.66461 20.4385C5.66461 18.689 7.42821 18.1193 7.42821 17.6667V11.6097C7.42821 7.5094 10.1748 3.93227 14.0265 2.82539ZM17.2335 2.50741C16.9503 1.38957 16.0484 1.38957 15.7651 2.50741C16.2557 2.46834 16.744 2.46834 17.2335 2.50741ZM7.86 20.838H25.1409C25.6185 20.838 25.7661 20.6123 25.6239 20.1608C25.4676 19.6626 23.9048 19.0744 23.9048 17.6668V11.6097C23.9048 5.03733 15.9582 1.61331 11.2709 6.33536C9.92841 7.68763 9.09491 9.55434 9.09491 11.6097V17.6679C9.09491 19.235 7.33131 19.5574 7.33131 20.4397H7.32805C7.32805 20.7653 7.5496 20.838 7.86 20.838Z" fill="white"/>
</svg>
