<svg width="33" height="32" viewBox="0 0 33 32" fill="none" xmlns="http://www.w3.org/2000/svg">
<g clip-path="url(#clip0_460_1754)">
<path d="M19.3664 5.34991C20.8618 5.34991 22.0782 6.56626 22.0782 8.06173V9.24909C22.0782 9.65056 21.7529 9.97682 21.3514 9.97682C20.9499 9.97681 20.6246 9.65056 20.6246 9.24909V8.06173C20.6246 7.36878 20.0606 6.80442 19.3664 6.80442H3.48984C2.79693 6.80442 2.23252 7.36882 2.23252 8.06173V19.9691C2.23252 20.6633 2.79688 21.2274 3.48984 21.2274H5.47487C5.87594 21.2276 6.20165 21.553 6.20165 21.9542V24.3721L9.77172 21.3974L9.79237 21.3795L9.8074 21.372C9.93217 21.2789 10.0818 21.2274 10.2375 21.2274H19.3664C20.0606 21.2274 20.6246 20.6634 20.6246 19.9691V18.9499C20.6249 18.5486 20.9501 18.2231 21.3514 18.2231C21.7527 18.2231 22.0779 18.5486 22.0782 18.9499V19.9691C22.0782 21.4646 20.8618 22.681 19.3664 22.681H10.5013L5.93967 26.482L5.93874 26.4811C5.80623 26.5929 5.64135 26.65 5.47487 26.6501C5.3696 26.6501 5.26271 26.6263 5.16594 26.5815L5.16406 26.5806C4.90972 26.4597 4.74715 26.2048 4.74715 25.9233V22.681H3.48984C1.99436 22.681 0.778015 21.4646 0.778015 19.9691V8.06173C0.778015 6.56626 1.99436 5.34991 3.48984 5.34991H19.3664ZM3.48984 5.58091C2.12181 5.58091 1.00901 6.69371 1.00901 8.06173V19.9691C1.00901 21.3372 2.12181 22.45 3.48984 22.45H4.97814V25.9233C4.97814 26.1151 5.0891 26.2892 5.2636 26.3722C5.33058 26.4031 5.4039 26.4191 5.47487 26.4191C5.58968 26.419 5.70233 26.3808 5.79131 26.3055L10.3717 22.4885L10.4168 22.45H19.3664C20.7344 22.45 21.8472 21.3372 21.8472 19.9691V18.9499C21.847 18.6761 21.6253 18.4541 21.3514 18.4541C21.0776 18.4541 20.8559 18.6761 20.8556 18.9499V19.9691C20.8556 20.7908 20.1881 21.4574 19.3664 21.4574H10.2375C10.1217 21.4575 10.01 21.4988 9.92102 21.5739L5.97066 24.8641V21.9542C5.97066 21.6805 5.74849 21.4577 5.47487 21.4574H3.48984C2.66958 21.4574 2.00153 20.7909 2.00153 19.9691V8.06173C2.00153 7.24138 2.66948 6.57343 3.48984 6.57343H19.3664C20.1882 6.57343 20.8556 7.24148 20.8556 8.06173V9.24909C20.8556 9.52311 21.0774 9.74582 21.3514 9.74582C21.6254 9.74582 21.8472 9.52311 21.8472 9.24909V8.06173C21.8472 6.69371 20.7344 5.58091 19.3664 5.58091H3.48984Z" fill="white"/>
<path d="M3.48984 5.58091C2.12181 5.58091 1.00901 6.69371 1.00901 8.06173V19.9691C1.00901 21.3372 2.12181 22.45 3.48984 22.45H4.97814V25.9233C4.97814 26.1151 5.0891 26.2892 5.2636 26.3722C5.33058 26.4031 5.4039 26.4191 5.47487 26.4191C5.58968 26.419 5.70233 26.3808 5.79131 26.3055L10.3717 22.4885L10.4168 22.45H19.3664C20.7344 22.45 21.8472 21.3372 21.8472 19.9691V18.9499C21.847 18.6761 21.6253 18.4541 21.3514 18.4541C21.0776 18.4541 20.8559 18.6761 20.8556 18.9499V19.9691C20.8556 20.7908 20.1881 21.4574 19.3664 21.4574H10.2375C10.1217 21.4575 10.01 21.4988 9.92102 21.5739L5.97066 24.8641V21.9542C5.97066 21.6805 5.74849 21.4577 5.47487 21.4574H3.48984C2.66958 21.4574 2.00153 20.7909 2.00153 19.9691V8.06173C2.00153 7.24138 2.66948 6.57343 3.48984 6.57343H19.3664C20.1882 6.57343 20.8556 7.24148 20.8556 8.06173V9.24909C20.8556 9.52311 21.0774 9.74582 21.3514 9.74582C21.6254 9.74582 21.8472 9.52311 21.8472 9.24909V8.06173C21.8472 6.69371 20.7344 5.58091 19.3664 5.58091H3.48984Z" fill="white"/>
<path d="M24.334 8.18164L23.4234 11.7201L27.0244 12.4937" stroke="white" stroke-width="1.5" stroke-linecap="round" stroke-linejoin="round"/>
<path d="M23.4234 11.7202C25.6511 9.60736 27.5119 9.73245 27.5119 9.73245C28.6433 9.73269 29.7282 10.1822 30.5282 10.9822C31.3282 11.7822 31.7778 12.8672 31.778 13.9985C31.7478 15.1205 31.2887 16.1883 30.4951 16.982C29.7016 17.7757 28.6339 18.2351 27.5119 18.2655C25.8094 18.3906 24.3717 17.3273 23.2504 16.2199C21.9342 14.9202 19.8766 12.1672 18.2623 10.9153C17.3536 10.1617 16.2133 9.74369 15.0329 9.73153C14.4673 9.72323 13.9057 9.82745 13.3808 10.0381C12.8559 10.2488 12.3781 10.5618 11.9752 10.9588C11.5723 11.3558 11.2524 11.8289 11.034 12.3507C10.8157 12.8725 10.7032 13.4324 10.7032 13.9981C10.7032 14.5637 10.8157 15.1237 11.034 15.6454C11.2524 16.1672 11.5723 16.6404 11.9752 17.0374C12.3781 17.4344 12.8559 17.7473 13.3808 17.958C13.9057 18.1687 14.4673 18.2729 15.0329 18.2646C15.0329 18.2646 16.8099 18.4762 19.0671 16.3772" stroke="white" stroke-width="1.5" stroke-linecap="round" stroke-linejoin="round"/>
</g>
<defs>
<clipPath id="clip0_460_1754">
<rect width="32" height="32" fill="white" transform="translate(0.778015)"/>
</clipPath>
</defs>
</svg>
