<svg width="33" height="32" viewBox="0 0 33 32" fill="none" xmlns="http://www.w3.org/2000/svg">
<path d="M6.61712 23.1594C6.96869 22.8078 7.53786 22.8095 7.88576 23.1583L7.8869 23.1594C8.23773 23.5103 8.23785 24.0782 7.8869 24.4292L5.93365 26.3825L7.8869 28.3357C8.23776 28.6866 8.23782 29.2545 7.8869 29.6055C7.71102 29.7814 7.48297 29.8684 7.25144 29.8684C7.02014 29.8683 6.79296 29.7813 6.61712 29.6055L5.61477 28.6043L4.66386 27.6522L2.81119 29.5049C2.63531 29.6808 2.40723 29.7678 2.17572 29.7678C1.94449 29.7676 1.7172 29.6806 1.5414 29.5049C1.19052 29.154 1.19052 28.5862 1.5414 28.2351L3.39408 26.3825L1.57683 24.5652C1.22595 24.2143 1.22582 23.6465 1.57683 23.2954C1.9284 22.9439 2.49759 22.9455 2.84547 23.2943L4.66386 25.1127L5.61477 24.1606L6.61712 23.1594Z" fill="white"/>
<path d="M30.3796 25.499C30.8766 25.499 31.2779 25.9003 31.278 26.3973C31.278 26.8944 30.8767 27.2957 30.3796 27.2957H11.8791C11.3821 27.2956 10.9808 26.8944 10.9808 26.3973C10.9808 25.9003 11.3821 25.499 11.8791 25.499H30.3796Z" fill="white"/>
<path d="M6.6194 12.7783C6.97028 12.4274 7.53814 12.4272 7.88919 12.7783C8.23995 13.1292 8.24008 13.6971 7.88919 14.048L5.93594 16.0013L7.88919 17.9545C8.23998 18.3054 8.24005 18.8733 7.88919 19.2243C7.71331 19.4002 7.48525 19.4872 7.25372 19.4872C7.02242 19.4871 6.79526 19.4001 6.6194 19.2243L4.66386 17.2688L2.81119 19.1215C2.63531 19.2973 2.40724 19.3843 2.17572 19.3843C1.94448 19.3842 1.7172 19.2972 1.5414 19.1215C1.18997 18.77 1.19187 18.2041 1.5414 17.8563L3.39636 16.0013L1.57911 14.184C1.22824 13.8332 1.22811 13.2653 1.57911 12.9143C1.93069 12.5628 2.49989 12.5644 2.84776 12.9131L4.66615 14.7315L5.61706 13.7795L6.6194 12.7783Z" fill="white"/>
<path d="M30.3796 15.1361C30.8767 15.1361 31.278 15.5374 31.278 16.0344C31.2778 16.5314 30.8766 16.9328 30.3796 16.9328H11.8791C11.383 16.9327 10.9809 16.53 10.9808 16.0344C10.9808 15.5374 11.3821 15.1361 11.8791 15.1361H30.3796Z" fill="white"/>
<path d="M6.6194 2.3948C6.97028 2.04399 7.53815 2.04381 7.88919 2.3948C8.23996 2.74569 8.24005 3.31361 7.88919 3.66459L5.93594 5.61784L7.88919 7.5711L7.95091 7.63967C8.23849 7.99244 8.21802 8.51189 7.88919 8.84088C7.7133 9.01678 7.48525 9.10376 7.25372 9.10376C7.0224 9.10367 6.79527 9.01669 6.6194 8.84088L5.61477 7.8374L4.66386 6.88534L2.81119 8.73802C2.6353 8.91391 2.40725 9.00089 2.17572 9.00089C1.94446 9.00074 1.71721 8.9138 1.5414 8.73802L1.54026 8.73688L1.47854 8.66945C1.19225 8.31906 1.21173 7.79796 1.5414 7.46823L3.39408 5.61556L1.57683 3.79831C1.22595 3.44744 1.22582 2.87958 1.57683 2.52852C1.92841 2.17706 2.49761 2.17867 2.84547 2.52738L4.66615 4.34806L5.61706 3.396L6.6194 2.3948Z" fill="white"/>
<path d="M30.3796 4.76979C30.8766 4.76979 31.2779 5.17112 31.278 5.66813C31.278 6.16518 30.8767 6.56647 30.3796 6.56647H11.8791C11.3821 6.56644 10.9808 6.16517 10.9808 5.66813C10.9808 5.17113 11.3821 4.76982 11.8791 4.76979H30.3796Z" fill="white"/>
</svg>
