<svg width="33" height="32" viewBox="0 0 33 32" fill="none" xmlns="http://www.w3.org/2000/svg">
<g clip-path="url(#clip0_460_1760)">
<path fill-rule="evenodd" clip-rule="evenodd" d="M16.778 21.948C17.3023 21.9486 17.8053 22.1568 18.176 22.5275C18.5467 22.8982 18.7549 23.4012 18.7555 23.9255L18.7497 24.0716C18.7246 24.4113 18.6129 24.74 18.4227 25.0245C18.2054 25.3497 17.8959 25.6024 17.5346 25.7521C17.1732 25.9018 16.7756 25.9416 16.392 25.8653C16.0085 25.789 15.6565 25.6 15.38 25.3235C15.1035 25.047 14.9146 24.6951 14.8382 24.3115C14.7619 23.9279 14.8018 23.5303 14.9514 23.1689C15.1011 22.8076 15.3538 22.4981 15.679 22.2808C16.0042 22.0635 16.3869 21.948 16.778 21.948ZM16.688 23.4737C16.5986 23.4915 16.5164 23.535 16.452 23.5995C16.3875 23.6639 16.344 23.7461 16.3262 23.8355C16.3084 23.9249 16.3175 24.0174 16.3523 24.1016C16.3872 24.1857 16.4459 24.258 16.5216 24.3086C16.5975 24.3593 16.6868 24.387 16.778 24.387L16.868 24.3773C16.9567 24.3596 17.0391 24.3164 17.1041 24.2515C17.1905 24.1651 17.2394 24.0478 17.2395 23.9255L17.2337 23.8578C17.2237 23.7907 17.1991 23.726 17.1611 23.6691C17.1105 23.5934 17.0382 23.5347 16.9541 23.4998C16.8699 23.465 16.7774 23.4559 16.688 23.4737Z" fill="white"/>
<path fill-rule="evenodd" clip-rule="evenodd" d="M16.778 6.13956C17.1879 6.13956 17.594 6.22159 17.9719 6.38046C18.3025 6.51948 18.6059 6.7151 18.8687 6.95804L18.979 7.06542L18.9829 7.06833L18.9819 7.06929C19.2612 7.37587 19.4746 7.73659 19.6069 8.12964C19.7227 8.47372 19.7744 8.83579 19.7607 9.19773L19.751 9.35252L18.8629 19.122C18.8156 19.6422 18.5753 20.1261 18.1896 20.4784C17.8038 20.8306 17.3004 21.026 16.778 21.026C16.2557 21.026 15.7522 20.8306 15.3665 20.4784C14.9808 20.1261 14.7404 19.6422 14.6931 19.122L13.805 9.35252C13.7679 8.93942 13.8168 8.52273 13.9491 8.12964C14.0815 7.7366 14.2948 7.37587 14.5741 7.06929L14.577 7.06446C14.8637 6.77165 15.2064 6.53931 15.5842 6.38046C15.962 6.22159 16.3681 6.13956 16.778 6.13956ZM16.778 7.61301C16.5739 7.61301 16.3717 7.65545 16.185 7.73782C15.9984 7.82015 15.831 7.94039 15.6935 8.09094C15.5559 8.24167 15.4509 8.41993 15.3858 8.61337C15.3208 8.80676 15.2967 9.01196 15.3152 9.21514L16.2043 18.9846C16.2173 19.1279 16.283 19.261 16.3891 19.3581C16.4953 19.4552 16.6341 19.509 16.778 19.509C16.922 19.509 17.0607 19.4552 17.1669 19.3581C17.2731 19.261 17.3388 19.1279 17.3517 18.9846L18.2408 9.21514C18.2594 9.01196 18.2352 8.80676 18.1702 8.61337C18.1051 8.41993 18.0002 8.24167 17.8625 8.09094C17.725 7.94039 17.5576 7.82014 17.3711 7.73782C17.1843 7.65545 16.9821 7.61301 16.778 7.61301ZM17.7213 7.76781C17.7668 7.80045 17.81 7.83603 17.8519 7.87326C17.8937 7.91056 17.9339 7.94976 17.9719 7.99129C17.8962 7.90838 17.812 7.83299 17.7213 7.76781Z" fill="white"/>
<path fill-rule="evenodd" clip-rule="evenodd" d="M16.778 0C20.9984 0 25.0466 1.67163 28.0384 4.64772L28.0916 4.68642L28.1293 4.73866C31.106 7.73054 32.778 11.7791 32.778 16C32.778 20.2206 31.1057 24.2685 28.1293 27.2604C28.1247 27.2689 28.1126 27.2926 28.0916 27.3136C28.0706 27.3346 28.047 27.3467 28.0384 27.3513C25.0466 30.3277 20.9987 32 16.778 32C12.5571 32 8.50856 30.328 5.51668 27.3513C5.50756 27.3463 5.48486 27.334 5.46443 27.3136C5.44308 27.2922 5.43016 27.2686 5.42574 27.2604C2.44965 24.2686 0.778015 20.2204 0.778015 16C0.778015 11.7794 2.44934 7.7305 5.42574 4.73866C5.43052 4.72984 5.4437 4.70716 5.46443 4.68642C5.48517 4.66568 5.50785 4.6525 5.51668 4.64772C8.50851 1.67133 12.5574 5.61096e-07 16.778 0ZM17.5365 3.19748C17.5365 3.39851 17.4561 3.59131 17.314 3.73346C17.1718 3.87559 16.9791 3.95598 16.778 3.95598C16.577 3.95598 16.3842 3.8756 16.242 3.73346C16.0999 3.59131 16.0196 3.39851 16.0195 3.19748V1.55666C12.7109 1.7273 9.56339 3.03315 7.10526 5.25432L8.26235 6.41142C8.40217 6.55409 8.48008 6.74667 8.47907 6.94643C8.47804 7.14616 8.39778 7.3373 8.25655 7.47853C8.11532 7.61976 7.92417 7.70002 7.72444 7.70105C7.52468 7.70206 7.3321 7.62416 7.18943 7.48434L6.03234 6.32725C3.81117 8.78536 2.50629 11.9329 2.33564 15.2415H3.9755C4.17652 15.2416 4.36933 15.3219 4.51148 15.464C4.65361 15.6062 4.73399 15.7989 4.734 16C4.734 16.201 4.65361 16.3938 4.51148 16.536C4.36933 16.6781 4.17652 16.7584 3.9755 16.7585H2.33564C2.50628 20.0669 3.81147 23.2137 6.03234 25.6718L7.18943 24.5157C7.3321 24.3758 7.52468 24.2979 7.72444 24.2989C7.92417 24.3 8.11531 24.3802 8.25655 24.5215C8.39778 24.6627 8.47803 24.8539 8.47907 25.0536C8.48008 25.2533 8.40217 25.4459 8.26235 25.5886L7.10526 26.7447C9.56345 28.9661 12.7107 30.2717 16.0195 30.4424V28.8025C16.0196 28.6015 16.0999 28.4087 16.242 28.2665C16.3842 28.1244 16.577 28.044 16.778 28.044C16.9791 28.044 17.1718 28.1244 17.314 28.2665C17.4561 28.4087 17.5364 28.6015 17.5365 28.8025V30.4424C20.8451 30.2717 23.9917 28.9658 26.4498 26.7447L25.2937 25.5886C25.1539 25.4459 25.076 25.2533 25.077 25.0536C25.078 24.8538 25.1583 24.6627 25.2995 24.5215C25.4407 24.3802 25.6319 24.3 25.8316 24.2989C25.9813 24.2982 26.127 24.342 26.2505 24.4228L26.3666 24.5157L27.5227 25.6718C29.7439 23.2137 31.0497 20.0671 31.2204 16.7585H29.5805C29.3795 16.7584 29.1867 16.6781 29.0446 16.536C28.9024 16.3938 28.822 16.201 28.822 16C28.822 15.799 28.9024 15.6062 29.0446 15.464C29.1867 15.3219 29.3795 15.2416 29.5805 15.2415H31.2204C31.0497 11.9327 29.7442 8.78543 27.5227 6.32725L26.3676 7.48337L26.3666 7.4824C26.2967 7.55346 26.2136 7.61093 26.1218 7.64978C26.0297 7.6887 25.9307 7.70925 25.8306 7.70976C25.7305 7.71027 25.6311 7.69076 25.5384 7.65268C25.4458 7.61456 25.3616 7.5581 25.2908 7.48724C25.2199 7.41638 25.1635 7.33225 25.1253 7.23957C25.0872 7.14692 25.0678 7.04756 25.0683 6.94739C25.0688 6.84735 25.0893 6.74835 25.1282 6.65619C25.1671 6.56438 25.2236 6.48037 25.2946 6.41045L26.4498 5.25432C23.9917 3.03344 20.8449 1.72728 17.5365 1.55666V3.19748ZM7.37325 27.1801C8.3595 28.0127 9.44656 28.7047 10.6027 29.2446C10.2173 29.0646 9.83951 28.868 9.47072 28.6545C9.10183 28.441 8.742 28.2107 8.39199 27.9647C8.0422 27.7188 7.70189 27.4575 7.37325 27.1801ZM26.1828 27.1791C25.854 27.4567 25.514 27.7186 25.164 27.9647C24.814 28.2107 24.4542 28.441 24.0853 28.6545C23.7164 28.8681 23.3389 29.0655 22.9534 29.2456C24.1098 28.7055 25.1963 28.012 26.1828 27.1791ZM3.53337 22.1754C4.07336 23.3315 4.76532 24.4185 5.59794 25.4048C5.32049 25.0761 5.05925 24.7358 4.81333 24.386C4.56727 24.036 4.33705 23.6762 4.12352 23.3073C3.91003 22.9385 3.7134 22.5607 3.53337 22.1754ZM27.9581 6.59523C28.2355 6.92387 28.4968 7.26419 28.7427 7.61398C28.9888 7.96399 29.219 8.32382 29.4325 8.69271C29.646 9.06149 29.8426 9.43929 30.0227 9.82465C29.4827 8.66855 28.7907 7.58148 27.9581 6.59523ZM5.59794 6.59523C4.76542 7.58136 4.07236 8.66774 3.5324 9.82368C3.71238 9.43847 3.91011 9.06136 4.12352 8.69271C4.33705 8.32382 4.56727 7.96399 4.81333 7.61398C5.05937 7.26402 5.32034 6.92402 5.59794 6.59523ZM25.2627 7.18346C25.2779 7.22044 25.2967 7.2558 25.3188 7.28891C25.341 7.32229 25.3668 7.35328 25.3953 7.38179C25.4236 7.41012 25.455 7.43607 25.4881 7.45822C25.5216 7.48071 25.5573 7.49994 25.5946 7.5153C25.5201 7.48465 25.4522 7.43871 25.3953 7.38179C25.3386 7.32497 25.2933 7.25768 25.2627 7.18346ZM22.9534 2.75535C23.3387 2.93538 23.7165 3.13201 24.0853 3.34551C24.4542 3.55903 24.814 3.78926 25.164 4.03531C25.5138 4.28124 25.8541 4.54248 26.1828 4.81993C25.1965 3.98731 24.1095 3.29534 22.9534 2.75535ZM10.6027 2.75535C9.25374 3.38541 7.99919 4.22299 6.88855 5.24852C7.3645 4.80904 7.86711 4.40434 8.39199 4.03531C8.742 3.78926 9.10183 3.55903 9.47072 3.34551C9.83951 3.13201 10.2173 2.93538 10.6027 2.75535Z" fill="white"/>
</g>
<defs>
<clipPath id="clip0_460_1760">
<rect width="32" height="32" fill="white" transform="translate(0.778015)"/>
</clipPath>
</defs>
</svg>
