<svg id="Layer_1" data-name="Layer 1" xmlns="http://www.w3.org/2000/svg" viewBox="0 0 25.5 33.96"><defs><style>.cls-1{fill:#fff;}</style></defs><path class="cls-1" d="M12.75,33.76a16.54,16.54,0,0,1-6.5-1.2c-1.83-.81-2.84-1.92-2.84-3.13V14.22c0-1.21,1-2.32,2.84-3.13a16.54,16.54,0,0,1,6.5-1.2,16.54,16.54,0,0,1,6.5,1.2c1.83.81,2.84,1.92,2.84,3.13V29.43c0,1.21-1,2.32-2.84,3.13A16.54,16.54,0,0,1,12.75,33.76ZM4.31,27.59H4.23a.2.2,0,0,0-.12.19v1.64c0,.9.88,1.81,2.42,2.5a15.92,15.92,0,0,0,6.22,1.13A15.89,15.89,0,0,0,19,31.93c1.54-.69,2.43-1.6,2.43-2.5V27.79a.21.21,0,0,0-.12-.19H21.2a.19.19,0,0,0-.14.05,6.76,6.76,0,0,1-1.81,1.12,16.54,16.54,0,0,1-6.5,1.2,16.54,16.54,0,0,1-6.5-1.2,7.09,7.09,0,0,1-1.81-1.12A.17.17,0,0,0,4.31,27.59Zm0-3.81-.08,0a.19.19,0,0,0-.12.18v1.65c0,.9.88,1.81,2.42,2.5a15.92,15.92,0,0,0,6.22,1.13A15.89,15.89,0,0,0,19,28.13c1.54-.69,2.43-1.6,2.43-2.5V24a.21.21,0,0,0-.12-.18l-.08,0a.2.2,0,0,0-.14.06A6.76,6.76,0,0,1,19.25,25a16.54,16.54,0,0,1-6.5,1.2A16.54,16.54,0,0,1,6.25,25a7.09,7.09,0,0,1-1.81-1.12A.18.18,0,0,0,4.31,23.78Zm0-3.8-.08,0a.18.18,0,0,0-.12.18v1.65c0,.9.88,1.81,2.42,2.49a15.74,15.74,0,0,0,6.22,1.14A15.7,15.7,0,0,0,19,24.32c1.54-.68,2.43-1.59,2.43-2.49V20.18a.2.2,0,0,0-.12-.18l-.08,0a.24.24,0,0,0-.14.05,6.77,6.77,0,0,1-1.81,1.13,16.54,16.54,0,0,1-6.5,1.2,16.54,16.54,0,0,1-6.5-1.2A7.11,7.11,0,0,1,4.44,20,.21.21,0,0,0,4.31,20Zm0-3.8-.08,0a.18.18,0,0,0-.12.18V18c0,.91.88,1.82,2.42,2.5a15.74,15.74,0,0,0,6.22,1.14A15.7,15.7,0,0,0,19,20.52c1.54-.68,2.43-1.59,2.43-2.5V16.38a.2.2,0,0,0-.12-.18l-.08,0a.24.24,0,0,0-.14.05,6.77,6.77,0,0,1-1.81,1.13,16.54,16.54,0,0,1-6.5,1.19,16.54,16.54,0,0,1-6.5-1.19,7.11,7.11,0,0,1-1.81-1.13A.21.21,0,0,0,4.31,16.18Zm8.44-5.59a15.74,15.74,0,0,0-6.22,1.14c-1.54.68-2.42,1.59-2.42,2.49S5,16,6.53,16.72a15.74,15.74,0,0,0,6.22,1.14A15.7,15.7,0,0,0,19,16.72c1.54-.68,2.43-1.59,2.43-2.5s-.89-1.81-2.43-2.5A15.89,15.89,0,0,0,12.75,10.59Zm0,6.71A.35.35,0,0,1,12.4,17v-.11a.2.2,0,0,0-.16-.2,1.86,1.86,0,0,1-1.57-1.16.35.35,0,0,1,.23-.44l.1,0a.34.34,0,0,1,.33.25,1.46,1.46,0,0,0,1.44.72,1.88,1.88,0,0,0,1.29-.41.33.33,0,0,0,.09-.3c-.06-.38-.53-.62-1.44-.74-1.18-.15-1.83-.61-1.87-1.32A1.41,1.41,0,0,1,12,11.85l.21,0a.2.2,0,0,0,.16-.2v-.12a.35.35,0,0,1,.7,0v.12a.2.2,0,0,0,.16.19,1.91,1.91,0,0,1,1.4.95.3.3,0,0,1,0,.26.36.36,0,0,1-.17.21.32.32,0,0,1-.16,0,.35.35,0,0,1-.31-.18,1.4,1.4,0,0,0-1.29-.63,2.42,2.42,0,0,0-.54.07c-.35.1-.71.33-.69.67s.71.6,1.27.67,1.87.25,2,1.32a1.11,1.11,0,0,1-.24.86,2.15,2.15,0,0,1-1.33.61.2.2,0,0,0-.17.2V17A.35.35,0,0,1,12.75,17.3Zm10.79-4.93a.33.33,0,0,1-.19-.06.38.38,0,0,1-.09-.09l-1.42-2.08a.35.35,0,0,1,.1-.48.36.36,0,0,1,.2-.06.32.32,0,0,1,.28.15l.41.6a.22.22,0,0,0,.16.09h.06a.2.2,0,0,0,.14-.19V4.3a.35.35,0,0,1,.7,0v5.94a.21.21,0,0,0,.14.19h.06a.24.24,0,0,0,.17-.09l.41-.6A.33.33,0,0,1,25,9.59a.36.36,0,0,1,.2.06.35.35,0,0,1,.14.23.34.34,0,0,1-.05.26l-1.41,2.07A.34.34,0,0,1,23.54,12.37ZM2,12.37a.31.31,0,0,1-.19-.06l-.1-.09L.26,10.14a.36.36,0,0,1-.05-.27.3.3,0,0,1,.14-.22.36.36,0,0,1,.2-.06.32.32,0,0,1,.28.15l.42.61a.22.22,0,0,0,.16.09h.06a.2.2,0,0,0,.14-.19V4.3a.35.35,0,0,1,.7,0v5.94a.21.21,0,0,0,.14.19h.06a.2.2,0,0,0,.16-.09l.41-.6a.35.35,0,0,1,.49-.1.35.35,0,0,1,.14.23.34.34,0,0,1,0,.26L2.25,12.21A.35.35,0,0,1,2,12.37ZM12.75,8.61a.31.31,0,0,1-.19-.06.43.43,0,0,1-.1-.09L11.05,6.38a.35.35,0,0,1,.1-.48.33.33,0,0,1,.19-.06.35.35,0,0,1,.29.15l.41.6a.19.19,0,0,0,.16.09h.06a.18.18,0,0,0,.14-.19V.55a.35.35,0,0,1,.7,0V6.48a.2.2,0,0,0,.14.19h.06a.21.21,0,0,0,.17-.09l.4-.6a.35.35,0,0,1,.29-.15.36.36,0,0,1,.2.06.34.34,0,0,1,.09.48L13,8.46A.36.36,0,0,1,12.75,8.61Z"/></svg>