<svg id="Layer_1" data-name="Layer 1" xmlns="http://www.w3.org/2000/svg" viewBox="0 0 33.58 29.02"><defs><style>.cls-1{fill:#fff;}</style></defs><path class="cls-1" d="M7,8.11A2.49,2.49,0,1,0,9.51,10.6,2.5,2.5,0,0,0,7,8.11Zm0,4.14A1.65,1.65,0,1,1,8.68,10.6,1.65,1.65,0,0,1,7,12.25Zm6.91-4.14a2.49,2.49,0,1,0,2.48,2.49A2.49,2.49,0,0,0,13.94,8.11Zm0,4.14a1.65,1.65,0,1,1,1.65-1.65A1.65,1.65,0,0,1,13.94,12.25Zm6.91.83a2.48,2.48,0,1,0-2.48-2.48A2.49,2.49,0,0,0,20.85,13.08Zm0-4.13a1.65,1.65,0,1,1-1.64,1.65A1.65,1.65,0,0,1,20.85,9Zm7,4.64V2.87A2.88,2.88,0,0,0,25,0H2.87A2.88,2.88,0,0,0,0,2.87V18.33A2.88,2.88,0,0,0,2.87,21.2h2v5.21a.85.85,0,0,0,.54.8.8.8,0,0,0,.34.07A.9.9,0,0,0,6.32,27l5.87-5.83h5.66a7.87,7.87,0,1,0,10-7.61ZM12,20.36a.47.47,0,0,0-.3.12l-6,5.95s0,0,0,0,0,0,0,0V20.78a.42.42,0,0,0-.42-.42H2.87a2,2,0,0,1-2-2V2.87a2,2,0,0,1,2-2H25a2,2,0,0,1,2,2V13.4a8.42,8.42,0,0,0-1.33-.11,7.88,7.88,0,0,0-7.83,7.07Zm13.7,7.82a7,7,0,1,1,7-7,7,7,0,0,1-7,7Zm0-13.12a6.1,6.1,0,1,0,6.1,6.09A6.1,6.1,0,0,0,25.72,15.06Zm0,11.36A5.27,5.27,0,1,1,31,21.15,5.28,5.28,0,0,1,25.72,26.42Zm2.2-3.65a.42.42,0,0,1,0,.59.4.4,0,0,1-.29.12.42.42,0,0,1-.3-.12l-1.91-1.91a.42.42,0,0,1-.12-.3V17.27a.42.42,0,0,1,.42-.42.41.41,0,0,1,.41.42V21Z"/></svg>