<svg id="Layer_1" data-name="Layer 1" xmlns="http://www.w3.org/2000/svg" viewBox="0 0 29.02 29.02"><defs><style>.cls-1{fill:#fff;}</style></defs><path class="cls-1" d="M14.41,28.92a.4.4,0,0,1-.4-.4V27a.11.11,0,0,0-.1-.1A12.47,12.47,0,0,1,2,15a.1.1,0,0,0-.1-.09H.4a.4.4,0,0,1,0-.8H1.9A.1.1,0,0,0,2,14,12.47,12.47,0,0,1,13.91,2.1.1.1,0,0,0,14,2V.5a.4.4,0,0,1,.8,0V2a.1.1,0,0,0,.09.1A12.47,12.47,0,0,1,26.81,14a.11.11,0,0,0,.1.1h1.51a.4.4,0,1,1,0,.8H26.91a.11.11,0,0,0-.1.09A12.46,12.46,0,0,1,14.9,26.91a.11.11,0,0,0-.09.1v1.51A.4.4,0,0,1,14.41,28.92Zm8-14a.11.11,0,0,0-.1.09,7.91,7.91,0,0,1-7.41,7.41.11.11,0,0,0-.09.1V26a.11.11,0,0,0,0,.08l.07,0h0A11.52,11.52,0,0,0,26,15s0,0,0-.07a.11.11,0,0,0-.08,0Zm-19.51,0a.09.09,0,0,0-.07,0,.11.11,0,0,0,0,.07,11.53,11.53,0,0,0,11.1,11.1h0l.07,0A.11.11,0,0,0,14,26v-3.5a.11.11,0,0,0-.1-.1A7.92,7.92,0,0,1,6.5,15a.09.09,0,0,0-.1-.09Zm11.91,6.6a.08.08,0,0,0,0,.07.09.09,0,0,0,.07,0h0A7.13,7.13,0,0,0,21.51,15a.11.11,0,0,0,0-.08.08.08,0,0,0-.07,0H17a2.68,2.68,0,0,0,0-.8h4.43a.08.08,0,0,0,.07,0,.11.11,0,0,0,0-.08,7.14,7.14,0,0,0-6.59-6.6h0a.09.09,0,0,0-.07,0,.11.11,0,0,0,0,.07v4.44a1.81,1.81,0,0,0-.4,0,1.75,1.75,0,0,0-.4,0V7.5a.1.1,0,0,0-.1-.1h0A7.15,7.15,0,0,0,7.3,14a.11.11,0,0,0,0,.08.11.11,0,0,0,.07,0h4.44a2.6,2.6,0,0,0,0,.4,2.69,2.69,0,0,0,0,.4H7.4a.11.11,0,0,0-.07,0,.11.11,0,0,0,0,.08,7.14,7.14,0,0,0,6.6,6.59h0a.11.11,0,0,0,.07,0,.08.08,0,0,0,0-.07V17.08a2.6,2.6,0,0,0,.4,0,2.69,2.69,0,0,0,.4,0Zm.1-18.61a.1.1,0,0,0-.1.1V6.5a.09.09,0,0,0,.09.1A7.92,7.92,0,0,1,22.31,14a.11.11,0,0,0,.1.1h3.5a.11.11,0,0,0,.08,0A.11.11,0,0,0,26,14,11.53,11.53,0,0,0,14.91,2.9Zm-1,0A11.54,11.54,0,0,0,2.8,14a.11.11,0,0,0,0,.08.09.09,0,0,0,.07,0H6.4a.09.09,0,0,0,.1-.1A7.93,7.93,0,0,1,13.91,6.6a.09.09,0,0,0,.1-.1V3a.09.09,0,0,0,0-.07.11.11,0,0,0-.07,0Z"/><path class="cls-1" d="M14.41,15.86a1.35,1.35,0,1,1,0-2.7,1.32,1.32,0,0,1,1.4,1.35,1.28,1.28,0,0,1-.43,1,1.49,1.49,0,0,1-1,.34Z"/></svg>