<svg id="Layer_1" data-name="Layer 1" xmlns="http://www.w3.org/2000/svg" viewBox="0 0 29.88 33.96"><defs><style>.cls-1{fill:#fff;}</style></defs><path class="cls-1" d="M3.53,10.67a.34.34,0,0,1-.34-.33A.33.33,0,0,1,3.53,10H9.81a.32.32,0,0,1,.33.33.33.33,0,0,1-.33.33Z"/><path class="cls-1" d="M3.53,7.29A.33.33,0,0,1,3.19,7a.34.34,0,0,1,.34-.33H16.1a.33.33,0,0,1,.33.33.33.33,0,0,1-.33.33Z"/><path class="cls-1" d="M3.53,3.92a.33.33,0,1,1,0-.66H16.1a.33.33,0,0,1,0,.66Z"/><path class="cls-1" d="M18.7,22.63a6,6,0,0,1,0-11.92h0a6,6,0,1,1,.07,11.92Zm0-11.26a5.31,5.31,0,1,0,3.76,1.53,5.27,5.27,0,0,0-3.76-1.53Z"/><path class="cls-1" d="M17.74,19a.34.34,0,0,1-.23-.1l-2.15-2.15a.33.33,0,0,1,0-.47.33.33,0,0,1,.23-.1.37.37,0,0,1,.24.1L17.6,18.1a.19.19,0,0,0,.14,0,.2.2,0,0,0,.15,0l3.69-3.7a.37.37,0,0,1,.24-.1.33.33,0,0,1,.23.1.33.33,0,0,1,0,.47L18,18.94A.35.35,0,0,1,17.74,19Z"/><path class="cls-1" d="M27.36,33.76a2.47,2.47,0,0,1-.6-.08,2.33,2.33,0,0,1-1.42-1.07l-3-5.13a.8.8,0,0,1,.24-1.06.2.2,0,0,0,.06-.27l-1.11-1.91a.2.2,0,0,0-.17-.09h-.07a8.06,8.06,0,0,1-2.58.42,7.9,7.9,0,0,1-7.56-10.25.19.19,0,0,0,0-.18.21.21,0,0,0-.16-.08H6.72a.24.24,0,0,0-.14,0L3,17.47a.32.32,0,0,1-.23.09.31.31,0,0,1-.13,0,.33.33,0,0,1-.2-.3v-3a.2.2,0,0,0-.2-.2H1.37A1.17,1.17,0,0,1,.2,12.9V1.37A1.17,1.17,0,0,1,1.37.2H18.26a1.17,1.17,0,0,1,1.17,1.17V8.6a.2.2,0,0,0,.17.2,7.92,7.92,0,0,1,4.74,13.43l-.36.35a.19.19,0,0,0,0,.25l1.11,1.9a.19.19,0,0,0,.17.1.15.15,0,0,0,.09,0,.8.8,0,0,1,.36-.09.64.64,0,0,1,.2,0,.76.76,0,0,1,.49.37l3,5.13a2.33,2.33,0,0,1-2,3.51Zm-1.71-8.35a.17.17,0,0,0-.1,0L23,26.93a.2.2,0,0,0-.07.27l3,5.07a1.66,1.66,0,0,0,1,.77,1.54,1.54,0,0,0,.43.06,1.62,1.62,0,0,0,.83-.23,1.7,1.7,0,0,0,.78-1,1.65,1.65,0,0,0-.18-1.27l-3-5.07A.21.21,0,0,0,25.65,25.41Zm-2.39-2.22a.15.15,0,0,0-.11,0,8.08,8.08,0,0,1-.9.52.24.24,0,0,0-.11.13.19.19,0,0,0,0,.15l1,1.78a.22.22,0,0,0,.13.1h.05a.19.19,0,0,0,.1,0l.93-.54a.21.21,0,0,0,.07-.27l-1-1.78a.2.2,0,0,0-.13-.09ZM18.66,9.41a7.3,7.3,0,1,0,.05,0ZM1.37.86a.51.51,0,0,0-.51.51V12.9a.52.52,0,0,0,.51.51H2.81a.32.32,0,0,1,.33.33V16a.19.19,0,0,0,.13.18l.07,0a.18.18,0,0,0,.14-.06l2.8-2.64a.32.32,0,0,1,.23-.09h4.85a.2.2,0,0,0,.18-.12,8,8,0,0,1,7-4.54.19.19,0,0,0,.19-.2V1.37a.5.5,0,0,0-.5-.51Z"/></svg>