<svg width="33" height="32" viewBox="0 0 33 32" fill="none" xmlns="http://www.w3.org/2000/svg">
<g clip-path="url(#clip0_470_2202)">
<path fill-rule="evenodd" clip-rule="evenodd" d="M23.8053 2.98865C24.8306 2.77563 25.8894 2.77563 26.9148 2.98865C27.0768 3.02321 27.2233 3.11263 27.3276 3.24135C27.4318 3.37007 27.4885 3.53097 27.4887 3.69659V5.27546L28.6036 4.16051C28.7211 4.04323 28.8754 3.96931 29.0405 3.95218C29.1645 3.93933 29.289 3.95927 29.4022 4.00812L29.5112 4.06599C30.386 4.64039 31.1329 5.38999 31.7054 6.266C31.7963 6.40504 31.8373 6.57147 31.8202 6.73667C31.803 6.90176 31.7292 7.05619 31.6119 7.17359L30.5027 8.28276H32.0748C32.2406 8.28284 32.4012 8.34054 32.5301 8.44479C32.6589 8.54909 32.7482 8.69456 32.7828 8.85663C32.8895 9.35836 32.9438 9.88418 32.9438 10.4172C32.9438 10.9471 32.8895 11.4713 32.7828 11.9729C32.7482 12.1349 32.6588 12.2805 32.5301 12.3848C32.4012 12.489 32.2406 12.5457 32.0748 12.5458H30.5017L31.6119 13.656C31.7291 13.7734 31.802 13.9278 31.8192 14.0929C31.8364 14.258 31.7961 14.4245 31.7054 14.5635C31.2047 15.3303 30.5704 15.9999 29.8334 16.5398L29.5112 16.7626C29.3721 16.8535 29.2058 16.8945 29.0405 16.8774C28.8754 16.8602 28.7211 16.7864 28.6036 16.669L27.4887 15.5541V17.132C27.4886 17.2977 27.4318 17.4584 27.3276 17.5872C27.2233 17.716 27.0778 17.8053 26.9158 17.8399H26.9138C26.6399 17.8956 26.3627 17.9346 26.0844 17.9586V22.6537C26.0835 23.4651 25.7601 24.2433 25.1864 24.8171C24.6126 25.3908 23.8345 25.7141 23.0231 25.715H21.991V28.4465C21.9912 28.5897 21.949 28.7305 21.8695 28.8496C21.7901 28.9686 21.6766 29.0609 21.5445 29.1158C21.4122 29.1707 21.2664 29.1852 21.1259 29.1573C20.9854 29.1294 20.8559 29.0609 20.7546 28.9596L17.5061 25.715H3.80743V25.7064C3.06821 25.6579 2.36885 25.344 1.84179 24.8171C1.26814 24.2434 0.944783 23.465 0.943848 22.6537V12.7484C0.944009 11.0631 2.31792 9.69285 4.00515 9.69285H17.8206C17.845 9.41135 17.8789 9.13016 17.9373 8.85663C17.9718 8.69452 18.0602 8.54817 18.189 8.44383C18.3179 8.33949 18.4794 8.28278 18.6452 8.28276H20.2183L19.1082 7.17263C18.9909 7.05512 18.917 6.90084 18.8998 6.73571C18.8828 6.57064 18.923 6.40403 19.0137 6.26504C19.5861 5.38912 20.3332 4.64037 21.2079 4.06599C21.3469 3.97497 21.5142 3.93407 21.6795 3.95121C21.8444 3.96837 21.9982 4.04237 22.1155 4.15954L23.2304 5.27354V3.69659C23.2306 3.53094 23.2882 3.37009 23.3925 3.24135C23.4968 3.11259 23.6431 3.02315 23.8053 2.98865ZM18.0067 24.5056C18.0706 24.532 18.1295 24.5714 18.1784 24.6203C18.154 24.5959 18.1269 24.5729 18.0983 24.5538L18.0067 24.5056ZM4.00515 11.1425C3.5784 11.1424 3.16832 11.3119 2.86609 11.6132C2.60177 11.8767 2.43879 12.223 2.4012 12.5912L2.39252 12.7503V22.6557C2.39302 23.0831 2.56292 23.4934 2.86512 23.7957C3.16742 24.098 3.57764 24.2678 4.00515 24.2683H17.8051C17.9003 24.2681 17.995 24.287 18.0829 24.3233C18.1702 24.3594 18.2494 24.4128 18.3163 24.4795L20.5424 26.7007V24.9917C20.5425 24.7998 20.6189 24.6152 20.7546 24.4795C20.8904 24.3439 21.0748 24.2673 21.2667 24.2673H23.0231C23.4506 24.2668 23.8608 24.097 24.1631 23.7947C24.465 23.4926 24.6351 23.0828 24.6357 22.6557V17.9634C24.3568 17.9386 24.0794 17.8989 23.8053 17.8419C23.6431 17.8074 23.4968 17.7179 23.3925 17.5892C23.2881 17.4603 23.2304 17.2988 23.2304 17.133V15.556L22.1164 16.67C21.999 16.7873 21.8446 16.8611 21.6795 16.8783C21.5143 16.8955 21.348 16.8553 21.2088 16.7645C20.3341 16.1903 19.5859 15.4415 19.0137 14.5655C18.9229 14.4265 18.8828 14.2599 18.8998 14.0948C18.917 13.9296 18.9907 13.7743 19.1082 13.6569L20.2173 12.5478H18.6452C18.4793 12.5477 18.3179 12.4901 18.189 12.3857C18.0604 12.2813 17.9717 12.1359 17.9373 11.9739C17.8892 11.7488 17.8554 11.5194 17.8293 11.292L17.8138 11.1425H4.00515ZM20.8944 24.6194L20.8288 24.6994C20.8125 24.7239 20.7984 24.7499 20.7864 24.7766C20.8124 24.7188 20.8487 24.665 20.8944 24.6194ZM21.2667 24.465L21.1635 24.4757C21.1345 24.4815 21.1062 24.4902 21.0786 24.5007C21.1382 24.478 21.2018 24.465 21.2667 24.465ZM1.19076 23.1803C1.19191 23.1865 1.19342 23.1925 1.19462 23.1987C1.17775 23.1121 1.16488 23.0246 1.15604 22.9363L1.19076 23.1803ZM29.4032 16.5977L29.6781 16.4086C29.6847 16.4038 29.6907 16.398 29.6974 16.3932C29.6009 16.4634 29.5032 16.5321 29.4032 16.5977ZM26.04 4.31869C25.5875 4.2691 25.1316 4.26909 24.6791 4.31869V5.7934C24.6792 5.94904 24.6291 6.10151 24.5363 6.22646C24.4436 6.35122 24.3129 6.44297 24.1641 6.48783C23.909 6.56451 23.6623 6.66745 23.432 6.79261C23.2949 6.86744 23.1371 6.89591 22.9825 6.87363C22.8663 6.85685 22.7566 6.81158 22.6623 6.74343L22.5736 6.66819L21.531 5.62558C21.1762 5.91056 20.8541 6.23332 20.5703 6.58911L21.6091 7.62787C21.7195 7.73834 21.7912 7.88224 21.8136 8.03681C21.8358 8.19131 21.8071 8.34914 21.7326 8.48627C21.6077 8.71563 21.506 8.96242 21.4287 9.21832C21.3361 9.52367 21.0537 9.73239 20.7343 9.73239H19.2625C19.2455 9.88613 19.2332 10.0424 19.2278 10.2002L19.2239 10.4181C19.2236 10.6452 19.2367 10.8725 19.2615 11.0981H20.7343C20.8897 11.098 21.0415 11.1484 21.1664 11.2409C21.26 11.3103 21.3357 11.4014 21.3863 11.5051L21.4287 11.6132C21.5047 11.8666 21.6071 12.1127 21.7335 12.3452C21.8082 12.4823 21.8358 12.6401 21.8136 12.7947C21.7913 12.9493 21.7195 13.0931 21.6091 13.2036L20.5703 14.2414C20.854 14.5973 21.1753 14.9208 21.53 15.2059L22.5736 14.1633C22.6841 14.0529 22.8279 13.9811 22.9825 13.9588C23.1371 13.9365 23.2948 13.9652 23.432 14.0398L23.6085 14.1295C23.7878 14.2152 23.9736 14.2873 24.1641 14.3446C24.4691 14.4373 24.679 14.7189 24.6791 15.0381V16.5128C25.1316 16.5621 25.5875 16.562 26.04 16.5128V15.0381C26.0401 14.8826 26.0901 14.7308 26.1827 14.606C26.2754 14.4812 26.4063 14.3896 26.555 14.3446C26.8101 14.2679 27.0566 14.1648 27.2861 14.0398C27.4233 13.9652 27.5819 13.9365 27.7365 13.9588C27.8909 13.9812 28.0341 14.0531 28.1445 14.1633L29.1871 15.2059C29.5419 14.9208 29.8639 14.5981 30.1478 14.2424L29.109 13.2036C28.9987 13.0931 28.9268 12.9492 28.9045 12.7947C28.8824 12.6402 28.911 12.4823 28.9856 12.3452C29.1106 12.1156 29.2137 11.8692 29.2903 11.6141C29.3352 11.4652 29.4269 11.3346 29.5517 11.2418C29.6766 11.1491 29.8282 11.0981 29.9838 11.0981H31.4566C31.4811 10.8749 31.4942 10.6475 31.4942 10.4181C31.4942 10.1861 31.4813 9.95677 31.4566 9.73239H29.9838C29.8283 9.73243 29.6766 9.68234 29.5517 9.58965C29.4272 9.49702 29.3353 9.3669 29.2903 9.21832C29.2136 8.96325 29.1106 8.71576 28.9856 8.48627C28.911 8.34917 28.8823 8.19129 28.9045 8.03681C28.9269 7.88233 28.9987 7.73831 29.109 7.62787L30.1478 6.58911C29.8638 6.23324 29.5421 5.90977 29.1871 5.62461L28.1445 6.66819C28.0341 6.77876 27.8912 6.85125 27.7365 6.87363C27.5818 6.89597 27.4234 6.86755 27.2861 6.79261C27.0559 6.66752 26.81 6.56448 26.555 6.48783C26.25 6.39511 26.0402 6.11348 26.04 5.79436V4.31869ZM30.277 14.4015C30.1846 14.5157 30.0886 14.6268 29.9886 14.7343C30.1386 14.5731 30.2802 14.405 30.413 14.2289L30.412 14.2279C30.3679 14.2865 30.3231 14.3445 30.277 14.4015ZM24.1071 14.5336C24.1603 14.5498 24.2097 14.5737 24.2538 14.6041C24.2327 14.5895 24.2105 14.576 24.1872 14.5645L24.1071 14.5336ZM19.1361 14.3764C19.1482 14.4045 19.1627 14.4316 19.1795 14.4575L19.1371 14.3784L19.1361 14.3764ZM31.5405 14.4555L31.5733 14.3967C31.5747 14.3937 31.5748 14.3901 31.5762 14.387C31.5655 14.4104 31.5547 14.4338 31.5405 14.4555ZM22.9285 14.1729C22.9054 14.1802 22.8829 14.1896 22.861 14.1999C22.9081 14.1777 22.9584 14.1621 23.0105 14.1546L22.9285 14.1729ZM27.7076 14.1546C27.7597 14.1621 27.8101 14.1778 27.8571 14.1999C27.8355 14.1897 27.8134 14.1801 27.7906 14.1729L27.7076 14.1546ZM31.6235 14.1131L31.6119 14.0466C31.6106 14.0413 31.6085 14.0363 31.6071 14.0311C31.6143 14.058 31.6205 14.0852 31.6235 14.1131ZM29.1592 12.4397L29.2537 12.2555C29.2647 12.2324 29.2739 12.2084 29.2846 12.1851C29.2452 12.2716 29.2043 12.3569 29.1592 12.4397ZM32.5899 11.9314L32.6429 11.6556C32.6465 11.6345 32.6491 11.6131 32.6526 11.5919C32.6342 11.7061 32.6137 11.8194 32.5899 11.9314ZM21.2397 11.671L21.2175 11.6122C21.2164 11.6096 21.2149 11.6071 21.2137 11.6045C21.2235 11.626 21.2328 11.6482 21.2397 11.671ZM21.2397 9.16141C21.2231 9.21609 21.1971 9.26691 21.1654 9.31187C21.1811 9.28965 21.1957 9.26527 21.2079 9.2405L21.2397 9.16141ZM21.3805 8.76597C21.3707 8.78954 21.3619 8.81355 21.3526 8.83734C21.3874 8.7488 21.4246 8.66122 21.4654 8.57596L21.3805 8.76597ZM32.0748 8.48144C32.1333 8.48148 32.191 8.49069 32.2456 8.50941C32.2189 8.50022 32.1915 8.49298 32.1636 8.4882L32.0748 8.48144ZM18.4899 8.50363C18.486 8.50481 18.4822 8.50621 18.4784 8.50749C18.5035 8.49909 18.5293 8.49273 18.5555 8.4882L18.4899 8.50363ZM29.1003 8.21235C29.1007 8.21523 29.1009 8.21816 29.1013 8.22103C29.0976 8.19744 29.0959 8.1736 29.0955 8.14966L29.1003 8.21235ZM31.472 7.03374L31.5164 6.98358C31.5192 6.97991 31.5214 6.97575 31.5241 6.97201C31.5083 6.99369 31.4912 7.01455 31.472 7.03374ZM31.6235 6.71642L31.6263 6.6489C31.6262 6.6447 31.6246 6.64056 31.6244 6.63637C31.6257 6.6629 31.6262 6.68972 31.6235 6.71642ZM19.1795 6.37306L19.1371 6.45215C19.1269 6.47585 19.1187 6.5006 19.112 6.52545C19.1263 6.47206 19.1489 6.42003 19.1795 6.37306ZM23.7127 6.43961C23.6919 6.44825 23.6715 6.45764 23.6509 6.46662C23.7351 6.42993 23.8207 6.39544 23.9075 6.36438L23.7127 6.43961ZM24.2393 6.2361C24.1983 6.26248 24.1544 6.28454 24.1071 6.29879L24.1669 6.27757C24.1925 6.2663 24.216 6.25122 24.2393 6.2361ZM21.3169 4.23092L21.0034 4.44889C20.9094 4.51776 20.8171 4.58895 20.7266 4.66205C20.9157 4.50923 21.1128 4.3649 21.3169 4.23092C21.3422 4.21432 21.3685 4.20037 21.396 4.18848L21.3169 4.23092ZM23.4667 3.50079C23.4652 3.50467 23.4634 3.50846 23.4619 3.51237C23.4712 3.48746 23.4826 3.46332 23.4957 3.44003L23.4667 3.50079ZM21.5599 8.39175L21.5869 8.33484C21.5892 8.32898 21.5896 8.32244 21.5917 8.31652C21.5826 8.34211 21.573 8.36765 21.5599 8.39175Z" fill="white"/>
<path d="M15.147 15.4795C15.5612 15.4795 15.897 15.8153 15.897 16.2295C15.897 16.6437 15.5612 16.9795 15.147 16.9795H4.70947C4.29526 16.9795 3.95947 16.6437 3.95947 16.2295C3.95947 15.8153 4.29526 15.4795 4.70947 15.4795H15.147Z" fill="white"/>
<path d="M20.7563 19.4483C21.1706 19.4483 21.5063 19.7841 21.5063 20.1983C21.5063 20.6125 21.1706 20.9483 20.7563 20.9483H4.70947C4.29526 20.9483 3.95947 20.6125 3.95947 20.1983C3.95947 19.7841 4.29526 19.4483 4.70947 19.4483H20.7563Z" fill="white"/>
</g>
<defs>
<clipPath id="clip0_470_2202">
<rect width="32" height="32" fill="white" transform="translate(0.943848)"/>
</clipPath>
</defs>
</svg>
