<svg width="33" height="32" viewBox="0 0 33 32" fill="none" xmlns="http://www.w3.org/2000/svg">
<g clip-path="url(#clip0_470_2204)">
<path fill-rule="evenodd" clip-rule="evenodd" d="M11.5848 20.8919C11.7866 20.892 11.9798 20.9729 12.1224 21.1151C12.2652 21.2579 12.3455 21.452 12.3457 21.6538V23.8967C12.3452 24.0981 12.2652 24.2917 12.1224 24.4343C11.9798 24.5766 11.7866 24.6574 11.5848 24.6575C11.3829 24.6575 11.189 24.5769 11.0461 24.4343C10.9034 24.2915 10.8231 24.0975 10.8229 23.8957V21.6538C10.8231 21.452 10.9034 21.2579 11.0461 21.1151C11.189 20.9726 11.3829 20.8919 11.5848 20.8919ZM11.5848 20.9909C11.4972 20.9909 11.411 21.0085 11.3315 21.0414C11.2516 21.0744 11.1782 21.123 11.116 21.185C11.2402 21.0609 11.4092 20.9909 11.5848 20.9909Z" fill="white"/>
<path fill-rule="evenodd" clip-rule="evenodd" d="M11.5848 15.2862C11.7867 15.2863 11.9797 15.3669 12.1224 15.5094C12.2651 15.652 12.3454 15.8453 12.3457 16.0471V18.2909C12.3454 18.4927 12.2651 18.686 12.1224 18.8286C11.9797 18.9711 11.7867 19.0517 11.5848 19.0518C11.3828 19.0518 11.189 18.9713 11.0461 18.8286C10.9036 18.686 10.8232 18.4927 10.8229 18.2909V16.0471C10.8232 15.8453 10.9036 15.652 11.0461 15.5094C11.189 15.3667 11.3829 15.2862 11.5848 15.2862ZM11.5848 15.3852C11.4971 15.3852 11.411 15.4028 11.3315 15.4357C11.2516 15.4687 11.1782 15.5172 11.116 15.5793C11.2403 15.455 11.4091 15.3852 11.5848 15.3852C11.7604 15.3853 11.9284 15.4561 12.0526 15.5803C11.9905 15.5183 11.9175 15.4687 11.8381 15.4357C11.7586 15.4027 11.6725 15.3852 11.5848 15.3852Z" fill="white"/>
<path fill-rule="evenodd" clip-rule="evenodd" d="M24.4354 2.7791C25.5125 2.37505 26.7744 2.97796 27.1422 4.0631L29.3715 10.6442C30.9862 10.9128 32.2216 12.3185 32.2219 14.008V16.6595C32.2218 16.8613 32.1415 17.0554 31.9987 17.1981C31.8561 17.3404 31.6628 17.4212 31.461 17.4213H30.7982C30.2943 17.4227 29.8016 17.5728 29.3832 17.8532C28.9649 18.1336 28.6394 18.5321 28.4466 18.9975C28.2538 19.4629 28.2024 19.9754 28.3001 20.4697C28.3978 20.9639 28.6398 21.4181 28.9949 21.7751C29.4758 22.2571 30.116 22.5224 30.7972 22.5224H31.4591C31.661 22.5224 31.8549 22.6029 31.9977 22.7456C32.1404 22.8884 32.2208 23.0824 32.221 23.2843V25.9347C32.2201 26.8389 31.8604 27.706 31.2213 28.3455C30.582 28.985 29.7149 29.346 28.8105 29.3471H3.63427C2.72987 29.346 1.86214 28.9859 1.22253 28.3465C0.582996 27.7069 0.223106 26.8392 0.221924 25.9347V23.2843C0.22207 23.0825 0.302542 22.8883 0.445144 22.7456C0.588023 22.6029 0.781862 22.5224 0.983782 22.5224H1.64665C3.05295 22.5222 4.19691 21.3782 4.19718 19.9719L4.18359 19.7108C4.06134 18.5119 3.10568 17.557 1.90675 17.4349L1.64665 17.4213H0.983782C0.781877 17.4213 0.587996 17.3408 0.445144 17.1981C0.302395 17.0554 0.222094 16.8613 0.221924 16.6595V14.008C0.222305 12.1761 1.67508 10.6759 3.4887 10.5996L24.4354 2.7791ZM3.63427 12.1204C2.5934 12.1204 1.74577 12.9681 1.74564 14.009V15.8986C3.94625 15.9516 5.72051 17.7579 5.72089 19.9709C5.72089 22.1842 3.94647 23.9902 1.74564 24.0432V25.9338C1.74564 26.9747 2.59332 27.8224 3.63427 27.8224H10.8229V27.2595C10.8231 27.0577 10.9034 26.8636 11.0461 26.7209C11.189 26.5781 11.3829 26.4976 11.5848 26.4976C11.7866 26.4977 11.9797 26.5784 12.1224 26.7209C12.2652 26.8636 12.3455 27.0577 12.3457 27.2595V27.8224H28.8105C29.8515 27.8224 30.6992 26.9747 30.6992 25.9338V24.0432C30.1979 24.0323 29.7014 23.9305 29.2376 23.7385C28.7432 23.5337 28.294 23.2326 27.9167 22.8533C27.5376 22.476 27.2363 22.0267 27.0316 21.5325C26.8266 21.0377 26.7225 20.5064 26.7239 19.9709C26.7243 17.7578 28.4984 15.9514 30.6992 15.8986V14.009L30.6895 13.8159C30.599 12.9286 29.8909 12.2207 29.0037 12.1301L28.8105 12.1204H12.3457V12.6842C12.3455 12.886 12.2652 13.0801 12.1224 13.2229C11.9798 13.3651 11.7866 13.446 11.5848 13.4461C11.3829 13.4461 11.189 13.3654 11.0461 13.2229C10.9034 13.0801 10.8231 12.886 10.8229 12.6842V12.1204H3.63427ZM2.68802 27.6817C2.74431 27.7123 2.80234 27.74 2.86174 27.7651L2.68802 27.6817C2.63176 27.6511 2.57682 27.6174 2.524 27.5817L2.68802 27.6817ZM1.64665 25.9347C1.64676 26.4824 1.87026 26.9783 2.22993 27.3381C2.13988 27.2481 2.05789 27.1499 1.98633 27.0441C1.77205 26.7269 1.64665 26.3454 1.64665 25.9347ZM11.5848 26.5966C11.4971 26.5966 11.411 26.6143 11.3315 26.6471C11.2516 26.6801 11.1782 26.7286 11.116 26.7907C11.2403 26.6665 11.4091 26.5966 11.5848 26.5966C11.7603 26.5967 11.9284 26.6676 12.0526 26.7917C11.9905 26.7298 11.9175 26.6801 11.8381 26.6471C11.7586 26.6141 11.6725 26.5967 11.5848 26.5966ZM1.64665 22.6214H0.983782C0.896113 22.6214 0.810027 22.639 0.730477 22.6719C0.650652 22.7049 0.577214 22.7534 0.515021 22.8155C0.639272 22.6912 0.808065 22.6214 0.983782 22.6214H1.64665ZM31.4591 22.6224C31.6348 22.6224 31.8036 22.6922 31.9279 22.8165C31.8657 22.7543 31.7922 22.7049 31.7124 22.6719C31.6328 22.639 31.5468 22.6224 31.4591 22.6224ZM29.5501 22.3118C29.7017 22.3929 29.861 22.458 30.0256 22.5078C29.7785 22.433 29.5435 22.3223 29.3278 22.1779L29.5501 22.3118ZM27.7323 17.4437C27.6511 17.542 27.5749 17.6445 27.5033 17.7503L27.6139 17.5951C27.6523 17.5437 27.6915 17.493 27.7323 17.4437ZM1.64665 15.9966C2.12605 15.9967 2.58619 16.081 3.01217 16.2373C2.76874 16.1479 2.51418 16.0816 2.25128 16.0413C2.05412 16.011 1.85211 15.9966 1.64665 15.9966ZM29.2968 10.7315C29.7954 10.8053 30.2586 10.9898 30.6594 11.2605C30.3388 11.0438 29.9784 10.8817 29.5918 10.7878C29.4951 10.7643 29.3966 10.7463 29.2968 10.7315ZM25.0585 2.75289C24.9267 2.75815 24.7947 2.77693 24.6645 2.81016C24.5993 2.8268 24.5345 2.84727 24.4704 2.8713L3.50811 10.6976C3.39766 10.7017 3.28851 10.7109 3.18104 10.7257C3.12725 10.7331 3.07385 10.742 3.0209 10.7519C2.91512 10.7718 2.81139 10.7979 2.70937 10.8276C2.96442 10.7533 3.23195 10.7079 3.50811 10.6976L24.4704 2.8713C24.8544 2.72724 25.2638 2.71784 25.6437 2.81695C25.5169 2.78385 25.3868 2.76282 25.2555 2.75484C25.1901 2.75087 25.1243 2.75026 25.0585 2.75289ZM25.404 4.22906C25.2666 4.16393 25.1093 4.15492 24.9663 4.20479L24.9653 4.20382L7.8473 10.5966H27.7478L25.6991 4.55127C25.6468 4.40998 25.5405 4.29382 25.404 4.22906Z" fill="white"/>
</g>
<defs>
<clipPath id="clip0_470_2204">
<rect width="32" height="32" fill="white" transform="translate(0.221924)"/>
</clipPath>
</defs>
</svg>
