<svg width="33" height="32" viewBox="0 0 33 32" fill="none" xmlns="http://www.w3.org/2000/svg">
<path fill-rule="evenodd" clip-rule="evenodd" d="M20.9251 7.03895C21.1725 7.03902 21.4048 7.1606 21.5455 7.36463L21.593 7.44315C21.6927 7.63263 21.7073 7.85664 21.6308 8.05961L20.5587 10.8967C20.2623 11.6758 19.7385 12.3275 19.0825 12.7907L19.3025 12.9545C19.8713 13.4136 20.3041 14.0066 20.5587 14.6847L21.6308 17.5208C21.7184 17.7528 21.6869 18.0127 21.5455 18.2168C21.4047 18.4207 21.1725 18.5424 20.9251 18.5424H12.5185C12.2711 18.5424 12.0379 18.4208 11.8972 18.2168C11.7563 18.0128 11.7244 17.7524 11.8119 17.5208L12.8839 14.6847L13.009 14.39C13.3163 13.7356 13.7794 13.191 14.3437 12.7907C13.6828 12.314 13.1805 11.6633 12.8868 10.9016L12.8859 10.9006L11.8119 8.05961C11.7246 7.82793 11.7561 7.56848 11.8972 7.36463C12.0379 7.16054 12.271 7.039 12.5185 7.03895H20.9251ZM11.9234 17.5635L11.9098 17.609C11.9143 17.5938 11.9177 17.5785 11.9234 17.5635ZM16.7175 13.5487C15.6319 13.5489 14.6814 14.204 14.2952 15.2197L13.6099 17.0333H19.8327L19.1513 15.2284L19.1455 15.2168C18.9866 14.793 18.7144 14.4189 18.3507 14.1264L18.1888 14.0052C17.7685 13.7103 17.2465 13.5487 16.7175 13.5487ZM16.0981 12.0851L16.1 12.0841C16.0897 12.0817 16.0793 12.0798 16.069 12.0773C16.0787 12.0797 16.0883 12.0828 16.0981 12.0851ZM14.2952 10.3626L14.3737 10.5449C14.5711 10.9624 14.8715 11.3206 15.2509 11.5859L15.4138 11.6886C15.8051 11.9151 16.2625 12.0394 16.7175 12.0395C17.7887 12.0395 18.7654 11.365 19.1475 10.3617L19.8327 8.54813H13.6099L14.2952 10.3626ZM19.2589 10.4033C19.0842 10.8625 18.7904 11.2557 18.4215 11.5529C18.3686 11.5955 18.3145 11.6365 18.2586 11.675C18.1473 11.7519 18.0303 11.8207 17.9087 11.8805C18.5169 11.5817 19.0092 11.0596 19.2589 10.4033ZM15.534 11.8864C15.5616 11.8997 15.5902 11.9108 15.6183 11.9232C15.5825 11.9074 15.5467 11.892 15.5117 11.8747L15.534 11.8864Z" fill="white"/>
<path fill-rule="evenodd" clip-rule="evenodd" d="M27.2895 0C28.517 0.000193603 29.5159 0.998921 29.5159 2.22645V23.3549C29.5158 24.5824 28.5169 25.5812 27.2895 25.5814H11.4135L5.21592 31.779C5.07159 31.9233 4.8777 31.9999 4.68184 32C4.58523 32 4.48751 31.9808 4.39396 31.9418C4.1117 31.8254 3.92791 31.5505 3.92773 31.2459V2.22645C3.92778 0.998477 4.93001 6.29607e-05 6.16097 0H27.2895ZM5.13062 31.6947C5.07356 31.7517 5.00688 31.7944 4.93579 31.8255C4.96901 31.811 5.00213 31.7954 5.03272 31.7751L5.13062 31.6947ZM6.16097 1.50918C5.76065 1.50924 5.43695 1.83168 5.43691 2.22645V29.4236L10.5673 24.2932C10.7086 24.152 10.9003 24.0723 11.1004 24.0722H27.2895C27.685 24.072 28.0066 23.7505 28.0067 23.3549V2.22645C28.0067 1.83085 27.685 1.50937 27.2895 1.50918H6.16097ZM27.7567 1.53244C27.8013 1.5626 27.8428 1.5972 27.8807 1.63519C27.9374 1.69194 27.9855 1.75704 28.0242 1.82807C27.9597 1.70931 27.8681 1.60778 27.7567 1.53244ZM5.99134 1.40643C5.96972 1.41082 5.94836 1.41594 5.92737 1.42194C5.97482 1.40837 6.02423 1.39894 6.0747 1.39383L5.99134 1.40643Z" fill="white"/>
</svg>
