<svg width="33" height="32" viewBox="0 0 33 32" fill="none" xmlns="http://www.w3.org/2000/svg">
<g clip-path="url(#clip0_470_2210)">
<path d="M16.3504 20.0777C16.0642 20.3638 15.6003 20.3638 15.3142 20.0777L12.2519 17.0154C11.9657 16.7293 11.9657 16.2653 12.2519 15.9792C12.538 15.6931 13.0019 15.6931 13.2881 15.9792L16.3504 19.0415C16.6365 19.3276 16.6365 19.7915 16.3504 20.0777ZM13.2881 20.0777C13.0019 20.3638 12.538 20.3638 12.2519 20.0777C11.9657 19.7915 11.9657 19.3276 12.2519 19.0415L15.3142 15.9792C15.6003 15.6931 16.0642 15.6931 16.3504 15.9792C16.6365 16.2653 16.6365 16.7293 16.3504 17.0154L13.2881 20.0777Z" fill="white"/>
<path d="M31.0894 4.29829C31.0894 6.18979 29.5561 7.72308 27.6645 7.72308C25.773 7.72308 24.2397 6.18979 24.2397 4.29829C24.2397 2.40678 25.773 0.873428 27.6645 0.873428C29.5561 0.873428 31.0894 2.40678 31.0894 4.29829Z" stroke="white" stroke-width="1.5" stroke-miterlimit="10" stroke-linecap="round" stroke-linejoin="round"/>
<path d="M31.472 20.6102C31.472 22.5017 29.9386 24.035 28.0471 24.035C26.1556 24.035 24.6223 22.5017 24.6223 20.6102C24.6223 18.7187 26.1556 17.1853 28.0471 17.1853C29.9386 17.1853 31.472 18.7187 31.472 20.6102Z" stroke="white" stroke-width="1.5" stroke-miterlimit="10" stroke-linecap="round" stroke-linejoin="round"/>
<path d="M7.82164 4.84486C7.82164 6.73636 6.28829 8.26971 4.39678 8.26971C2.50528 8.26971 0.971924 6.73636 0.971924 4.84486C0.971924 2.95335 2.50528 1.42 4.39678 1.42C6.28829 1.42 7.82164 2.95335 7.82164 4.84486Z" stroke="white" stroke-width="1.5" stroke-miterlimit="10" stroke-linecap="round" stroke-linejoin="round"/>
<path d="M24.5972 28.7049C24.5972 30.0424 23.5129 31.1266 22.1754 31.1266C20.8379 31.1266 19.7537 30.0424 19.7537 28.7049C19.7537 27.3674 20.8379 26.2832 22.1754 26.2832C23.5129 26.2832 24.5972 27.3674 24.5972 28.7049Z" stroke="white" stroke-width="1.5" stroke-miterlimit="10" stroke-linecap="round" stroke-linejoin="round"/>
<path d="M20.3207 4.48811C20.3207 5.82562 19.2365 6.90982 17.899 6.90982C16.5616 6.90982 15.4773 5.82562 15.4773 4.48811C15.4773 3.1506 16.5616 2.06639 17.899 2.06639C19.2365 2.06639 20.3207 3.1506 20.3207 4.48811Z" stroke="white" stroke-width="1.5" stroke-miterlimit="10" stroke-linecap="round" stroke-linejoin="round"/>
<path d="M5.81535 25.2799C5.81535 26.6174 4.73108 27.7016 3.39364 27.7016C2.05613 27.7016 0.971924 26.6174 0.971924 25.2799C0.971924 23.9424 2.05613 22.8582 3.39364 22.8582C4.73108 22.8582 5.81535 23.9424 5.81535 25.2799Z" stroke="white" stroke-width="1.5" stroke-miterlimit="10" stroke-linecap="round" stroke-linejoin="round"/>
<path d="M20.9695 18.0287C20.9695 21.7111 17.9839 24.697 14.3013 24.697C10.6147 24.697 7.63232 21.7075 7.63232 18.0287C7.63232 14.3464 10.6181 11.3599 14.3013 11.3599C17.9813 11.3599 20.9695 14.3449 20.9695 18.0287Z" stroke="white" stroke-width="1.5" stroke-miterlimit="10" stroke-linecap="round" stroke-linejoin="round"/>
<path d="M10.2961 12.6969L6.45386 7.58343" stroke="white" stroke-width="1.5" stroke-miterlimit="10" stroke-linecap="round" stroke-linejoin="round"/>
<path d="M17.2767 6.82977L16.0137 11.5825" stroke="white" stroke-width="1.5" stroke-miterlimit="10" stroke-linecap="round" stroke-linejoin="round"/>
<path d="M20.7381 26.756L18.2595 23.3954" stroke="white" stroke-width="1.5" stroke-miterlimit="10" stroke-linecap="round" stroke-linejoin="round"/>
<path d="M8.74744 21.7204L5.41016 23.939" stroke="white" stroke-width="1.5" stroke-miterlimit="10" stroke-linecap="round" stroke-linejoin="round"/>
<path d="M24.681 19.9783L20.856 19.2595" stroke="white" stroke-width="1.5" stroke-miterlimit="10" stroke-linecap="round" stroke-linejoin="round"/>
<path d="M25.2757 6.75259L18.9517 13.2506" stroke="white" stroke-width="1.5" stroke-miterlimit="10" stroke-linecap="round" stroke-linejoin="round"/>
</g>
<defs>
<clipPath id="clip0_470_2210">
<rect width="32" height="32" fill="white" transform="translate(0.221924)"/>
</clipPath>
</defs>
</svg>
