<svg width="33" height="32" viewBox="0 0 33 32" fill="none" xmlns="http://www.w3.org/2000/svg">
<g clip-path="url(#clip0_482_2483)">
<path fill-rule="evenodd" clip-rule="evenodd" d="M16.93 0.349823C20.3879 0.349922 23.7045 1.72304 26.1495 4.16761C28.4174 6.43504 29.7614 9.45223 29.9446 12.6362C30.6495 12.7074 31.3123 13.0199 31.8176 13.5252C32.3959 14.1034 32.7211 14.8881 32.7219 15.7057V20.8982C32.721 21.7157 32.3957 22.4999 31.8176 23.078C31.2393 23.6562 30.4544 23.9813 29.6366 23.9821H28.1685C27.9523 24.5413 27.5211 25.4254 26.7088 26.3427C25.9455 27.2047 24.9995 27.9266 23.8997 28.4891C22.702 29.1009 21.3187 29.5212 19.7822 29.7481C19.6784 30.1909 19.4564 30.6013 19.1292 30.9284C18.667 31.3905 18.04 31.6502 17.3864 31.6502H16.4722C15.8185 31.6502 15.1916 31.3905 14.7294 30.9284C14.2672 30.4663 14.0075 29.8395 14.0075 29.186C14.0075 28.5324 14.2672 27.9056 14.7294 27.4435C15.1916 26.9814 15.8185 26.7218 16.4722 26.7217H17.3864L17.5089 26.7248C18.118 26.7551 18.6959 27.0104 19.1292 27.4435C19.355 27.6693 19.5303 27.9347 19.6521 28.2221C24.0386 27.546 25.8202 25.2757 26.4946 23.9821H25.0137C24.8109 23.982 24.6165 23.9013 24.4733 23.7582C24.3302 23.615 24.2493 23.4208 24.2493 23.2179V13.386C24.2493 13.1833 24.3299 12.9884 24.4733 12.845C24.6165 12.7019 24.8109 12.6211 25.0137 12.6211H25.4632C25.0873 8.39033 21.6281 5.03261 17.3515 4.82433L16.93 4.8145C12.4611 4.8145 8.78431 8.25206 8.39614 12.6211H8.43171C8.63452 12.6211 8.82886 12.702 8.97203 12.845C9.11542 12.9884 9.19603 13.1833 9.19603 13.386V23.2179L9.19224 23.2928C9.18502 23.3675 9.16684 23.4415 9.13776 23.5115C9.09887 23.605 9.04165 23.6887 8.97127 23.7589C8.9005 23.8294 8.81577 23.8861 8.7223 23.9246C8.62909 23.9629 8.52923 23.9816 8.42944 23.9813L3.80947 23.9821C2.99142 23.982 2.20663 23.6575 1.62776 23.0795C1.04886 22.5013 0.7228 21.7164 0.721924 20.8982V15.7057C0.722773 14.8881 1.04793 14.1034 1.62624 13.5252C2.20443 12.9472 2.98882 12.622 3.80644 12.6211H3.91542C4.10206 9.44266 5.44547 6.43144 7.70977 4.16761C10.1549 1.72294 13.4721 0.349823 16.93 0.349823ZM16.4722 28.2501C16.2243 28.2501 15.9865 28.3491 15.8108 28.5247C15.6353 28.7002 15.5369 28.9378 15.5369 29.186L15.5414 29.2783C15.5626 29.4925 15.6572 29.6937 15.8108 29.8472C15.9863 30.0227 16.224 30.1211 16.4722 30.1211H17.3864L17.4787 30.1166C17.6929 30.0954 17.8942 30.0008 18.0478 29.8472C18.2234 29.6716 18.3224 29.4339 18.3225 29.186C18.3225 28.9381 18.2234 28.7004 18.0478 28.5247C17.894 28.371 17.6928 28.2759 17.4787 28.2546L17.3864 28.2501H16.4722ZM3.80947 14.1501C3.39664 14.1502 3.00057 14.3141 2.7084 14.6056C2.41638 14.8972 2.25213 15.2929 2.25132 15.7057V20.8982L2.25889 21.0518C2.29481 21.4076 2.45256 21.7417 2.70764 21.9968C2.99926 22.2884 3.39428 22.4529 3.80644 22.4538H5.06114V14.1501H3.80947ZM6.59129 22.4538H7.66512V14.1501H6.59356L6.59129 22.4538ZM25.7787 22.4538H26.8526V14.1501H25.7787V22.4538ZM28.3827 22.4538H29.6366L29.7903 22.4462C30.1463 22.4102 30.481 22.252 30.7362 21.9968C30.9912 21.7417 31.149 21.4076 31.185 21.0518L31.1925 20.8982V15.7057C31.1917 15.2933 31.0278 14.8979 30.7362 14.6064C30.4811 14.3513 30.1464 14.1936 29.7903 14.1577L29.6366 14.1501H28.3827V22.4538ZM16.6538 1.88269C13.805 1.95099 11.0786 3.07437 9.00684 5.03996C6.90795 7.03139 5.63861 9.73848 5.44632 12.6211H6.85767C7.24969 7.40762 11.6157 3.28617 16.93 3.28617C22.2442 3.28637 26.6096 7.40775 27.0016 12.6211H28.413C28.2207 9.73848 26.9514 7.03139 24.8525 5.03996C22.7139 3.01101 19.8782 1.87975 16.93 1.87966L16.6538 1.88269Z" fill="white"/>
</g>
<defs>
<clipPath id="clip0_482_2483">
<rect width="32" height="32" fill="white" transform="translate(0.721924)"/>
</clipPath>
</defs>
</svg>
