<svg width="33" height="32" viewBox="0 0 33 32" fill="none" xmlns="http://www.w3.org/2000/svg">
<g clip-path="url(#clip0_485_2586)">
<path d="M25.5217 2.39999H7.92168C3.95168 2.39999 0.72168 5.62959 0.72168 9.59999V17.6C0.72168 21.5704 3.95168 24.8 7.92168 24.8H10.3217V28.8C10.3217 29.1236 10.5165 29.4156 10.8153 29.5392C10.9145 29.5804 11.0185 29.6 11.1217 29.6C11.3301 29.6 11.5341 29.5188 11.6873 29.3656L16.2529 24.8H25.5217C29.4917 24.8 32.7217 21.5704 32.7217 17.6V9.59999C32.7217 5.62959 29.4917 2.39999 25.5217 2.39999ZM31.1217 17.6C31.1217 20.6876 28.6097 23.2 25.5217 23.2H15.9217C15.7097 23.2 15.5061 23.2844 15.3561 23.4344L11.9217 26.8688V24C11.9217 23.558 11.5633 23.2 11.1217 23.2H7.92168C4.83368 23.2 2.32168 20.6876 2.32168 17.6V9.59999C2.32168 6.51239 4.83368 3.99999 7.92168 3.99999H25.5217C28.6097 3.99999 31.1217 6.51239 31.1217 9.59999V17.6ZM13.8929 16.4244C14.2065 16.7352 14.2089 17.2416 13.8981 17.5556C13.7413 17.7136 13.5357 17.7924 13.3297 17.7924C13.1261 17.7924 12.9225 17.7152 12.7665 17.5604C11.7057 16.5092 11.1217 15.1032 11.1217 13.6C11.1217 10.6188 13.4653 8.18079 16.4065 8.01599L16.1561 7.76559C15.8437 7.45319 15.8437 6.94679 16.1561 6.63439C16.4685 6.32199 16.9749 6.32199 17.2873 6.63439L18.8873 8.23439C19.1997 8.54679 19.1997 9.05319 18.8873 9.36559L17.2873 10.9656C17.1309 11.122 16.9265 11.2 16.7217 11.2C16.5169 11.2 16.3125 11.122 16.1561 10.9656C15.8437 10.6532 15.8437 10.1468 16.1561 9.83439L16.3533 9.63719C14.3225 9.82679 12.7217 11.5208 12.7217 13.6C12.7217 14.6728 13.1377 15.6756 13.8929 16.4244ZM20.6773 9.63999C21.7377 10.6908 22.3217 12.0968 22.3217 13.6C22.3217 16.5812 19.9781 19.0192 17.0369 19.184L17.2873 19.4344C17.5997 19.7468 17.5997 20.2532 17.2873 20.5656C17.1309 20.722 16.9265 20.8 16.7217 20.8C16.5169 20.8 16.3125 20.722 16.1561 20.5656L14.5561 18.9656C14.2437 18.6532 14.2437 18.1468 14.5561 17.8344L16.1561 16.2344C16.4685 15.922 16.9749 15.922 17.2873 16.2344C17.5997 16.5468 17.5997 17.0532 17.2873 17.3656L17.0901 17.5628C19.1209 17.3732 20.7217 15.6792 20.7217 13.6C20.7217 12.5272 20.3057 11.5244 19.5505 10.7756C19.2369 10.4648 19.2345 9.95839 19.5453 9.64439C19.8565 9.32959 20.3625 9.32799 20.6773 9.63999Z" fill="white"/>
</g>
<defs>
<clipPath id="clip0_485_2586">
<rect width="32" height="32" fill="white" transform="translate(0.72168)"/>
</clipPath>
</defs>
</svg>
