<svg width="32" height="32" viewBox="0 0 32 32" fill="none" xmlns="http://www.w3.org/2000/svg">
<g clip-path="url(#clip0_485_2588)">
<path fill-rule="evenodd" clip-rule="evenodd" d="M16 21.948C16.5243 21.9486 17.0273 22.1568 17.398 22.5275C17.7687 22.8982 17.9769 23.4012 17.9775 23.9255L17.9717 24.0716C17.9465 24.4113 17.8348 24.74 17.6447 25.0245C17.4274 25.3497 17.1179 25.6024 16.7566 25.7521C16.3952 25.9018 15.9976 25.9416 15.614 25.8653C15.2304 25.789 14.8785 25.6 14.602 25.3235C14.3255 25.047 14.1365 24.6951 14.0602 24.3115C13.9839 23.9279 14.0238 23.5303 14.1734 23.1689C14.3231 22.8076 14.5758 22.4981 14.901 22.2808C15.2262 22.0635 15.6089 21.948 16 21.948ZM15.91 23.4737C15.8206 23.4915 15.7384 23.535 15.674 23.5995C15.6095 23.6639 15.566 23.7461 15.5482 23.8355C15.5304 23.9249 15.5395 24.0174 15.5743 24.1016C15.6092 24.1857 15.6679 24.258 15.7436 24.3086C15.8194 24.3593 15.9088 24.387 16 24.387L16.09 24.3773C16.1787 24.3596 16.2611 24.3164 16.326 24.2515C16.4125 24.1651 16.4614 24.0478 16.4615 23.9255L16.4557 23.8578C16.4457 23.7907 16.4211 23.726 16.3831 23.6691C16.3325 23.5934 16.2602 23.5347 16.1761 23.4998C16.0919 23.465 15.9994 23.4559 15.91 23.4737Z" fill="white"/>
<path fill-rule="evenodd" clip-rule="evenodd" d="M16 6.13956C16.4099 6.13956 16.816 6.22159 17.1939 6.38046C17.5245 6.51948 17.8279 6.7151 18.0907 6.95804L18.201 7.06542L18.2049 7.06833L18.2039 7.06929C18.4832 7.37587 18.6966 7.73659 18.8289 8.12964C18.9447 8.47372 18.9964 8.83579 18.9827 9.19773L18.973 9.35252L18.0849 19.122C18.0376 19.6422 17.7972 20.1261 17.4115 20.4784C17.0258 20.8306 16.5223 21.026 16 21.026C15.4777 21.026 14.9742 20.8306 14.5885 20.4784C14.2028 20.1261 13.9624 19.6422 13.9151 19.122L13.027 9.35252C12.9899 8.93942 13.0388 8.52273 13.1711 8.12964C13.3034 7.7366 13.5168 7.37587 13.7961 7.06929L13.799 7.06446C14.0857 6.77165 14.4284 6.53931 14.8061 6.38046C15.184 6.22159 15.5901 6.13956 16 6.13956ZM16 7.61301C15.7959 7.61301 15.5937 7.65545 15.4069 7.73782C15.2204 7.82015 15.053 7.94039 14.9155 8.09094C14.7779 8.24167 14.6729 8.41993 14.6078 8.61337C14.5428 8.80676 14.5187 9.01196 14.5372 9.21514L15.4263 18.9846C15.4392 19.1279 15.5049 19.261 15.6111 19.3581C15.7173 19.4552 15.856 19.509 16 19.509C16.144 19.509 16.2827 19.4552 16.3889 19.3581C16.4951 19.261 16.5608 19.1279 16.5737 18.9846L17.4628 9.21514C17.4813 9.01196 17.4572 8.80676 17.3922 8.61337C17.3271 8.41993 17.2221 8.24167 17.0845 8.09094C16.947 7.94039 16.7796 7.82014 16.5931 7.73782C16.4063 7.65545 16.2041 7.61301 16 7.61301ZM16.9433 7.76781C16.9887 7.80045 17.032 7.83603 17.0739 7.87326C17.1157 7.91056 17.1559 7.94976 17.1939 7.99129C17.1181 7.90838 17.034 7.83299 16.9433 7.76781Z" fill="white"/>
<path fill-rule="evenodd" clip-rule="evenodd" d="M16 0C20.2204 0 24.2686 1.67163 27.2604 4.64772L27.3136 4.68642L27.3513 4.73866C30.328 7.73054 32 11.7791 32 16C32 20.2206 30.3277 24.2685 27.3513 27.2604C27.3467 27.2689 27.3346 27.2926 27.3136 27.3136C27.2926 27.3346 27.269 27.3467 27.2604 27.3513C24.2685 30.3277 20.2206 32 16 32C11.7791 32 7.73054 30.328 4.73866 27.3513C4.72954 27.3463 4.70684 27.334 4.68642 27.3136C4.66506 27.2922 4.65215 27.2686 4.64772 27.2604C1.67163 24.2686 0 20.2204 0 16C1.55862e-07 11.7794 1.67133 7.7305 4.64772 4.73866C4.6525 4.72984 4.66568 4.70716 4.68642 4.68642C4.70716 4.66568 4.72984 4.6525 4.73866 4.64772C7.7305 1.67133 11.7794 5.61096e-07 16 0ZM16.7585 3.19748C16.7584 3.39851 16.6781 3.59131 16.536 3.73346C16.3938 3.87559 16.201 3.95598 16 3.95598C15.799 3.95598 15.6062 3.8756 15.464 3.73346C15.3219 3.59131 15.2416 3.39851 15.2415 3.19748V1.55666C11.9329 1.7273 8.78537 3.03315 6.32725 5.25432L7.48434 6.41142C7.62416 6.55409 7.70206 6.74667 7.70105 6.94643C7.70003 7.14616 7.61976 7.3373 7.47853 7.47853C7.3373 7.61976 7.14615 7.70002 6.94643 7.70105C6.74667 7.70206 6.55409 7.62416 6.41142 7.48434L5.25432 6.32725C3.03316 8.78536 1.72828 11.9329 1.55762 15.2415H3.19748C3.39851 15.2416 3.59131 15.3219 3.73346 15.464C3.8756 15.6062 3.95598 15.7989 3.95598 16C3.95598 16.201 3.87559 16.3938 3.73346 16.536C3.59131 16.6781 3.39851 16.7584 3.19748 16.7585H1.55762C1.72826 20.0669 3.03345 23.2137 5.25432 25.6718L6.41142 24.5157C6.55409 24.3758 6.74667 24.2979 6.94643 24.2989C7.14615 24.3 7.3373 24.3802 7.47853 24.5215C7.61976 24.6627 7.70002 24.8539 7.70105 25.0536C7.70206 25.2533 7.62416 25.4459 7.48434 25.5886L6.32725 26.7447C8.78543 28.9661 11.9327 30.2717 15.2415 30.4424V28.8025C15.2416 28.6015 15.3219 28.4087 15.464 28.2665C15.6062 28.1244 15.799 28.044 16 28.044C16.201 28.044 16.3938 28.1244 16.536 28.2665C16.6781 28.4087 16.7584 28.6015 16.7585 28.8025V30.4424C20.0671 30.2717 23.2137 28.9658 25.6718 26.7447L24.5157 25.5886C24.3758 25.4459 24.2979 25.2533 24.2989 25.0536C24.3 24.8538 24.3802 24.6627 24.5215 24.5215C24.6627 24.3802 24.8539 24.3 25.0536 24.2989C25.2033 24.2982 25.3489 24.342 25.4725 24.4228L25.5886 24.5157L26.7447 25.6718C28.9659 23.2137 30.2717 20.0671 30.4424 16.7585H28.8025C28.6015 16.7584 28.4087 16.6781 28.2665 16.536C28.1244 16.3938 28.044 16.201 28.044 16C28.044 15.799 28.1244 15.6062 28.2665 15.464C28.4087 15.3219 28.6015 15.2416 28.8025 15.2415H30.4424C30.2717 11.9327 28.9661 8.78543 26.7447 6.32725L25.5896 7.48337L25.5886 7.4824C25.5187 7.55346 25.4356 7.61093 25.3438 7.64978C25.2517 7.6887 25.1527 7.70925 25.0526 7.70976C24.9524 7.71027 24.8531 7.69076 24.7604 7.65268C24.6678 7.61456 24.5836 7.5581 24.5128 7.48724C24.4419 7.41638 24.3854 7.33225 24.3473 7.23957C24.3092 7.14692 24.2897 7.04756 24.2902 6.94739C24.2907 6.84735 24.3113 6.74835 24.3502 6.65619C24.3891 6.56438 24.4456 6.48037 24.5166 6.41045L25.6718 5.25432C23.2137 3.03344 20.0669 1.72728 16.7585 1.55666V3.19748ZM6.59523 27.1801C7.58148 28.0127 8.66855 28.7047 9.82465 29.2446C9.43929 29.0646 9.06149 28.868 8.69271 28.6545C8.32382 28.441 7.96399 28.2107 7.61398 27.9647C7.26419 27.7188 6.92387 27.4575 6.59523 27.1801ZM25.4048 27.1791C25.076 27.4567 24.736 27.7186 24.386 27.9647C24.036 28.2107 23.6762 28.441 23.3073 28.6545C22.9384 28.8681 22.5608 29.0655 22.1754 29.2456C23.3318 28.7055 24.4183 28.012 25.4048 27.1791ZM2.75535 22.1754C3.29534 23.3315 3.98731 24.4185 4.81993 25.4048C4.54248 25.0761 4.28124 24.7358 4.03531 24.386C3.78926 24.036 3.55903 23.6762 3.34551 23.3073C3.13201 22.9385 2.93538 22.5607 2.75535 22.1754ZM27.1801 6.59523C27.4575 6.92387 27.7188 7.26419 27.9647 7.61398C28.2107 7.96399 28.441 8.32382 28.6545 8.69271C28.868 9.06149 29.0646 9.43929 29.2446 9.82465C28.7047 8.66855 28.0127 7.58148 27.1801 6.59523ZM4.81993 6.59523C3.98741 7.58136 3.29434 8.66774 2.75438 9.82368C2.93436 9.43847 3.13209 9.06136 3.34551 8.69271C3.55903 8.32382 3.78926 7.96399 4.03531 7.61398C4.28136 7.26402 4.54233 6.92402 4.81993 6.59523ZM24.4847 7.18346C24.4999 7.22044 24.5187 7.2558 24.5408 7.28891C24.563 7.32229 24.5888 7.35328 24.6172 7.38179C24.6456 7.41012 24.677 7.43607 24.7101 7.45822C24.7436 7.48071 24.7792 7.49994 24.8165 7.5153C24.7421 7.48465 24.6742 7.43871 24.6172 7.38179C24.5606 7.32497 24.5153 7.25768 24.4847 7.18346ZM22.1754 2.75535C22.5607 2.93538 22.9385 3.13201 23.3073 3.34551C23.6762 3.55903 24.036 3.78926 24.386 4.03531C24.7358 4.28124 25.0761 4.54248 25.4048 4.81993C24.4185 3.98731 23.3315 3.29534 22.1754 2.75535ZM9.82465 2.75535C8.47572 3.38541 7.22118 4.22299 6.11053 5.24852C6.58649 4.80904 7.0891 4.40434 7.61398 4.03531C7.96399 3.78926 8.32382 3.55903 8.69271 3.34551C9.06149 3.13201 9.43929 2.93538 9.82465 2.75535Z" fill="white"/>
</g>
<defs>
<clipPath id="clip0_485_2588">
<rect width="32" height="32" fill="white"/>
</clipPath>
</defs>
</svg>
