<svg width="33" height="32" viewBox="0 0 33 32" fill="none" xmlns="http://www.w3.org/2000/svg">
<g clip-path="url(#clip0_485_2600)">
<path fill-rule="evenodd" clip-rule="evenodd" d="M27.937 12.3904C28.1361 12.3904 28.3273 12.4692 28.4681 12.6099C28.6088 12.7507 28.6877 12.9419 28.6877 13.141V30.4988H31.7494C31.9485 30.4988 32.1397 30.5786 32.2805 30.7193C32.421 30.86 32.4999 31.0505 32.5 31.2494C32.5 31.4485 32.4212 31.6397 32.2805 31.7805C32.1397 31.9212 31.9485 32 31.7494 32H1.2506C1.05154 32 0.860302 31.9212 0.719544 31.7805C0.578785 31.6397 0.5 31.4485 0.5 31.2494C0.500062 31.0505 0.579004 30.86 0.719544 30.7193C0.860302 30.5786 1.05154 30.4988 1.2506 30.4988H4.31235V23.6247C4.31238 23.4257 4.39116 23.2344 4.53189 23.0936C4.67264 22.953 4.86396 22.8741 5.06295 22.8741H11.937V19.8123C11.9371 19.6133 12.0158 19.422 12.1566 19.2813C12.2973 19.1406 12.4886 19.0617 12.6877 19.0617H19.5617V13.141C19.5617 12.942 19.6406 12.7507 19.7813 12.6099C19.922 12.4692 20.1133 12.3904 20.3123 12.3904H27.937ZM5.81355 24.3753V30.4988H11.937V24.3753H5.81355ZM13.4383 20.563V30.4988H19.5617V20.563H13.4383ZM21.063 13.8916V30.4988H27.1864V13.8916H21.063Z" fill="white"/>
<path fill-rule="evenodd" clip-rule="evenodd" d="M24.1247 0C26.9079 0 29.1643 2.25596 29.1643 5.03962C29.1642 7.82269 26.9083 10.0792 24.1247 10.0792C21.3416 10.0792 19.0852 7.8231 19.0851 5.03962C19.0851 2.25646 21.3411 6.29211e-05 24.1247 0ZM22.2032 8.02324L22.4415 8.15279C23.112 8.51617 23.8823 8.65309 24.637 8.54342C25.3916 8.43368 26.0905 8.08281 26.6297 7.54361C27.1689 7.00438 27.5198 6.30553 27.6295 5.5509C27.7392 4.79614 27.6023 4.02594 27.2389 3.35546L27.1093 3.11713L22.2032 8.02324ZM25.8079 1.92645C25.1376 1.56312 24.368 1.42527 23.6134 1.53483C22.8587 1.64451 22.159 1.99537 21.6197 2.53464C21.0804 3.07394 20.7296 3.77359 20.6199 4.52834C20.5103 5.28289 20.6482 6.05246 21.0115 6.72279L21.1401 6.96211L21.3329 6.77026L26.0472 2.056L25.8079 1.92645Z" fill="white"/>
</g>
<defs>
<clipPath id="clip0_485_2600">
<rect width="32" height="32" fill="white" transform="translate(0.5)"/>
</clipPath>
</defs>
</svg>
