<svg width="32" height="32" viewBox="0 0 32 32" fill="none" xmlns="http://www.w3.org/2000/svg">
<path fill-rule="evenodd" clip-rule="evenodd" d="M21.7733 13.8609C21.9974 13.861 22.2126 13.9495 22.3711 14.108C22.5296 14.2665 22.6191 14.4817 22.6192 14.7059V16.0256H25.3808C25.6051 16.0256 25.8211 16.1142 25.9797 16.2727C26.1382 16.4313 26.2267 16.6473 26.2267 16.8716C26.2266 17.0956 26.1381 17.311 25.9797 17.4694C25.8211 17.628 25.6051 17.7165 25.3808 17.7165H25.0862C24.904 19.1308 24.2687 20.4465 23.2762 21.4685C23.8324 21.6836 24.4239 21.7966 25.0213 21.7989C25.2475 21.7978 25.4641 21.885 25.6269 22.0421C25.7898 22.1993 25.8855 22.4138 25.8924 22.64L25.8905 22.7223C25.8849 22.8044 25.8669 22.8856 25.8372 22.9626C25.7977 23.0651 25.738 23.1588 25.6618 23.2378C25.5854 23.317 25.4936 23.3806 25.3924 23.4239C25.2914 23.4671 25.1826 23.4892 25.0727 23.4898C23.921 23.4866 22.7896 23.1852 21.7878 22.6187C20.9215 23.1149 19.9561 23.4086 18.9632 23.4752L18.5262 23.4898C18.2997 23.4909 18.0815 23.4038 17.9186 23.2466C17.7557 23.0893 17.6609 22.8741 17.6541 22.6477C17.6507 22.5379 17.6697 22.4285 17.7093 22.326C17.7489 22.2235 17.8084 22.1299 17.8847 22.0508C17.9611 21.9717 18.0529 21.908 18.1541 21.8648C18.2552 21.8216 18.3649 21.7994 18.4748 21.7989C19.0929 21.8004 19.7048 21.6861 20.281 21.4656C19.7729 20.9529 19.3517 20.3597 19.0378 19.7088C18.988 19.609 18.9582 19.4993 18.9506 19.388C18.9429 19.2758 18.9578 19.1631 18.9942 19.0566C19.0307 18.95 19.0887 18.851 19.1638 18.7669C19.2387 18.683 19.3296 18.6146 19.4312 18.5663C19.533 18.518 19.6442 18.491 19.7568 18.4859C19.8692 18.4809 19.9816 18.4983 20.0872 18.5373C20.1928 18.5763 20.2898 18.6357 20.3721 18.7126C20.4537 18.789 20.519 18.8812 20.5649 18.983L20.6851 19.2175C20.9629 19.7271 21.3305 20.1822 21.7684 20.5644C22.6139 19.8261 23.1806 18.8216 23.3731 17.7165H18.1647C17.9406 17.7165 17.7254 17.6279 17.5669 17.4694C17.4084 17.3109 17.3189 17.0957 17.3188 16.8716C17.3188 16.6473 17.4083 16.4313 17.5669 16.2727C17.7254 16.1143 17.9406 16.0257 18.1647 16.0256H20.9273V14.7059C20.9274 14.4817 21.0169 14.2665 21.1754 14.108C21.334 13.9496 21.5491 13.8609 21.7733 13.8609ZM19.3798 23.3086C19.0978 23.3464 18.8126 23.3656 18.5262 23.3657C18.6697 23.3657 18.8128 23.3608 18.9554 23.3512C19.0978 23.3416 19.2388 23.3275 19.3798 23.3086ZM19.7616 18.609C19.6656 18.6133 19.5713 18.6375 19.4845 18.6787C19.528 18.6581 19.5736 18.642 19.6202 18.6303C19.6664 18.6188 19.7138 18.6111 19.7616 18.609ZM17.4855 17.1148C17.4875 17.1205 17.491 17.1256 17.4932 17.1313C17.4783 17.0928 17.4655 17.0536 17.4574 17.013L17.4855 17.1148ZM26.1027 16.8716L26.095 16.765C26.094 16.7584 26.0913 16.7521 26.0901 16.7456C26.0974 16.7869 26.1027 16.8291 26.1027 16.8716ZM17.5126 16.5625C17.5096 16.5687 17.5076 16.5755 17.5048 16.5818C17.5218 16.5432 17.5414 16.5057 17.5649 16.4704L17.5126 16.5625ZM22.4952 14.7059L22.4874 14.5993C22.4861 14.5907 22.4822 14.5826 22.4806 14.5741C22.4887 14.6174 22.4951 14.6612 22.4952 14.7059ZM21.4399 14.0702C21.3757 14.1038 21.3147 14.144 21.2626 14.1962L21.3731 14.1061C21.3942 14.092 21.4175 14.0819 21.4399 14.0702ZM22.2829 14.1962L22.2025 14.1264C22.1967 14.1221 22.19 14.1189 22.1841 14.1148C22.219 14.139 22.2525 14.1657 22.2829 14.1962Z" fill="white"/>
<path fill-rule="evenodd" clip-rule="evenodd" d="M16.7219 2.31439C17.7112 2.31561 18.6599 2.70891 19.3595 3.40838C20.059 4.10789 20.4522 5.05675 20.4535 6.04598V10.6128H28.2684C29.2577 10.6142 30.2065 11.0083 30.906 11.7078C31.5617 12.3637 31.9484 13.2384 31.9952 14.1603L32 14.3454V23.0053C31.9988 23.9946 31.6055 24.9433 30.906 25.6429C30.2356 26.3133 29.336 26.7006 28.3915 26.733V28.1187C28.3914 28.4284 28.2999 28.7313 28.1279 28.9888C27.9557 29.2465 27.7107 29.4477 27.4244 29.5663C27.1381 29.6849 26.8224 29.7159 26.5184 29.6555C26.2146 29.595 25.9352 29.4452 25.7161 29.2262L23.2267 26.7369H15.2781C14.2887 26.7357 13.3401 26.3425 12.6405 25.6429C11.9409 24.9433 11.5477 23.9947 11.5465 23.0053V18.4384H8.12888L6.37015 20.8289C6.34479 20.8634 6.31562 20.8951 6.28488 20.9249L6.28585 20.9258C6.06646 21.146 5.78645 21.2963 5.48159 21.357C5.17672 21.4177 4.86064 21.3853 4.57364 21.2659C4.28767 21.1482 4.04298 20.9485 3.87112 20.6913C3.69929 20.4342 3.60794 20.1314 3.60853 19.8221V18.4345C2.66398 18.4022 1.76445 18.0149 1.09399 17.3444C0.394496 16.6449 0.00130854 15.6961 0 14.7068V6.04598L0.00484496 5.86187C0.0515533 4.93971 0.438007 4.06437 1.09399 3.40838C1.79352 2.70889 2.74234 2.3157 3.73159 2.31439H16.7219ZM15.2781 12.3047C14.7369 12.3048 14.2179 12.5199 13.8353 12.9026C13.4526 13.2853 13.2374 13.8042 13.2374 14.3454V23.0053C13.2375 23.5464 13.4526 24.0654 13.8353 24.4481C14.2179 24.8308 14.7369 25.0459 15.2781 25.046H23.5775C23.8016 25.0461 24.0169 25.1355 24.1754 25.294L26.7006 27.8192V25.8919C26.7006 25.6677 26.7901 25.4526 26.9486 25.294C27.1072 25.1355 27.3223 25.046 27.5465 25.046H28.2674C28.8087 25.046 29.3285 24.8309 29.7112 24.4481C30.0938 24.0655 30.309 23.5464 30.3091 23.0053V14.3454C30.3091 13.8043 30.0938 13.2853 29.7112 12.9026C29.3285 12.5199 28.8087 12.3047 28.2674 12.3047H15.2781ZM27.3033 25.2117C27.295 25.2147 27.2873 25.2191 27.2791 25.2223C27.3199 25.2061 27.3617 25.1922 27.405 25.1836L27.3033 25.2117ZM3.73256 4.00528C3.19131 4.00528 2.67149 4.22045 2.28876 4.60315C1.90605 4.98587 1.69092 5.50571 1.69089 6.04695V14.7059C1.69089 15.2471 1.90605 15.7669 2.28876 16.1497C2.6715 16.5324 3.19128 16.7475 3.73256 16.7475H4.45349C4.6776 16.7475 4.8928 16.8363 5.05136 16.9946C5.20986 17.1531 5.29932 17.3683 5.29942 17.5925V19.4278L7.02422 17.0915C7.10237 16.9854 7.20427 16.8984 7.32171 16.8386C7.43907 16.779 7.56893 16.7482 7.70058 16.7475H11.5465V14.3444C11.5507 13.7588 11.6955 13.1837 11.9661 12.6652H8.47577L7.38857 15.0566C7.3214 15.2042 7.21286 15.3293 7.07655 15.4171C6.94021 15.5049 6.78135 15.5517 6.61919 15.5518C6.49915 15.5514 6.37926 15.5247 6.27035 15.4743C6.16983 15.4286 6.0785 15.3639 6.00291 15.2834C5.92692 15.2025 5.86774 15.1072 5.82849 15.0033C5.78924 14.8994 5.77067 14.7879 5.77422 14.6768C5.77785 14.5659 5.80308 14.4562 5.84884 14.3551L9.45736 6.41711L9.5155 6.31149C9.58076 6.20981 9.66699 6.12251 9.76938 6.05664C9.90576 5.96893 10.0646 5.92198 10.2267 5.92195C10.3889 5.92195 10.5477 5.969 10.6841 6.05664C10.8204 6.14434 10.9288 6.26964 10.9961 6.41711L13.1996 11.2621C13.8113 10.8434 14.5345 10.615 15.2781 10.6128H18.7626V6.04695C18.7626 5.50571 18.5474 4.98587 18.1647 4.60315C17.7821 4.22062 17.263 4.00535 16.7219 4.00528H3.73256ZM4.96415 17.0828L4.88275 17.013C4.87807 17.0096 4.87298 17.0067 4.86822 17.0033C4.902 17.0271 4.93455 17.0532 4.96415 17.0828ZM7.37791 16.9491L7.30523 16.9917C7.32845 16.9763 7.35293 16.9618 7.37791 16.9491ZM28.8973 12.2747C28.9646 12.2951 29.031 12.3185 29.0959 12.3454L28.8973 12.2747C28.8298 12.2542 28.7612 12.2362 28.6919 12.2223L28.8973 12.2747ZM9.24419 10.9743H11.2112L10.2267 8.81149L9.24419 10.9743ZM9.69864 6.2766C9.69505 6.28044 9.69149 6.28431 9.68798 6.28823C9.70849 6.2652 9.73054 6.24357 9.75388 6.22331L9.69864 6.2766Z" fill="white"/>
</svg>
