<svg width="33" height="32" viewBox="0 0 33 32" fill="none" xmlns="http://www.w3.org/2000/svg">
<g clip-path="url(#clip0_389_2071)">
<path fill-rule="evenodd" clip-rule="evenodd" d="M16.278 7.38835C21.0267 7.38835 24.8897 11.2513 24.8897 16C24.8897 20.7487 21.0267 24.6116 16.278 24.6116C11.5293 24.6116 7.66637 20.7487 7.66637 16C7.66637 11.2513 11.5293 7.38835 16.278 7.38835ZM16.278 9.05371C12.4484 9.05371 9.33173 12.1703 9.33173 16C9.33173 19.8297 12.4483 22.9463 16.278 22.9463C20.1077 22.9463 23.2243 19.8297 23.2243 16C23.2243 12.1703 20.1077 9.05371 16.278 9.05371ZM12.7844 9.55103C12.2647 9.83371 11.7822 10.1764 11.3477 10.5714C11.6085 10.3343 11.8865 10.1168 12.1794 9.91878C12.3746 9.78681 12.5765 9.6641 12.7844 9.55103Z" fill="white"/>
<path fill-rule="evenodd" clip-rule="evenodd" d="M18.5722 0C18.9747 0 19.3182 0.288237 19.3915 0.682148L19.3925 0.684054L19.8507 3.20972C20.8775 3.49589 21.8632 3.9057 22.7937 4.43111L24.9068 2.96868C25.2378 2.73929 25.685 2.78009 25.9691 3.06395L29.2131 6.30797C29.4983 6.59253 29.5385 7.04046 29.3093 7.3712L27.846 9.48339C28.3714 10.4138 28.7802 11.3997 29.0664 12.4263L31.594 12.8865C31.9896 12.9586 32.278 13.3033 32.278 13.7058V18.2942C32.278 18.6964 31.9901 19.0406 31.5959 19.1135H31.594L29.0673 19.5718C28.7809 20.5995 28.3717 21.5859 27.846 22.5166L29.3093 24.6288C29.5386 24.9596 29.4984 25.4064 29.2141 25.6911L25.9691 28.936C25.6845 29.2207 25.2373 29.2603 24.9068 29.0313L22.7937 27.5679C21.863 28.0936 20.8771 28.5022 19.8507 28.7884L19.3915 31.3159C19.3194 31.7115 18.9747 32 18.5722 32H13.9839C13.5813 32 13.2372 31.7116 13.1645 31.3169L12.7053 28.7893C11.6777 28.5028 10.6911 28.0937 9.76045 27.5679L7.64922 29.0313C7.31808 29.2607 6.87102 29.2192 6.58694 28.9351L3.34197 25.6911C3.05714 25.4065 3.01759 24.9584 3.24669 24.6278L4.70912 22.5157C4.18334 21.5848 3.77485 20.5984 3.48869 19.5718L0.962069 19.1135C0.566481 19.0414 0.278015 18.6967 0.278015 18.2942V13.7058C0.278015 13.3033 0.566407 12.9592 0.961116 12.8865L3.48773 12.4273C3.77421 11.3997 4.18342 10.4131 4.70912 9.48243L3.24669 7.3712C3.0175 7.04028 3.05832 6.59352 3.34292 6.30892L6.58694 3.06395C6.87153 2.77913 7.31959 2.73957 7.65017 2.96868L9.7614 4.43111C10.6923 3.90528 11.6787 3.4969 12.7053 3.21067L13.1645 0.684054C13.2366 0.288466 13.5813 0 13.9839 0H18.5722ZM14.2497 4.03192C14.1903 4.35718 13.9432 4.61747 13.6199 4.6931C12.3981 4.97928 11.2352 5.4611 10.1635 6.126C9.88173 6.30051 9.52353 6.29213 9.25074 6.10313L7.27194 4.73217L5.01018 6.99393L6.38115 8.97178C6.54663 9.21049 6.57426 9.51557 6.46118 9.77682L6.40401 9.88544C5.8224 10.8218 5.38062 11.8289 5.08735 12.8856L4.97112 13.3419C4.90474 13.6242 4.69735 13.8487 4.42807 13.9402L4.30898 13.9717L1.94337 14.3994V17.5987L4.30898 18.0283C4.63467 18.0876 4.89555 18.3345 4.97112 18.6581L5.08735 19.1135C5.38016 20.169 5.82209 21.176 6.40401 22.1136C6.55722 22.3602 6.57005 22.6662 6.44403 22.9215L6.38115 23.0273L5.01018 25.0051L7.27194 27.2669L9.24979 25.8969C9.52252 25.7078 9.88168 25.699 10.1635 25.874L10.5693 26.1141C11.5258 26.6554 12.5496 27.0562 13.6199 27.3069L13.7371 27.3441C14.0016 27.4489 14.1977 27.6837 14.2497 27.969L14.6784 30.3346H17.8767L18.3064 27.9681C18.3658 27.6421 18.613 27.3824 18.9361 27.3069L19.3915 27.1907C20.447 26.8978 21.4549 26.4551 22.3926 25.8731C22.6743 25.6987 23.0326 25.7078 23.3053 25.8969L25.2822 27.2669L27.5439 25.0051L26.1749 23.0282C25.9858 22.7555 25.9769 22.3963 26.152 22.1146C26.8168 21.0444 27.2987 19.8812 27.5849 18.6581L27.6221 18.5409C27.7271 18.2766 27.9615 18.0803 28.2471 18.0283L30.6117 17.5987V14.3994L28.2461 13.9717C27.9209 13.9122 27.6595 13.6652 27.584 13.3419L27.4677 12.8865C27.1749 11.8309 26.7328 10.8238 26.1511 9.88639C25.976 9.60468 25.985 9.24545 26.1739 8.97273L27.5439 6.99393L25.2822 4.73217L23.3053 6.10313C23.0325 6.29221 22.6734 6.30107 22.3916 6.126C21.4546 5.54438 20.4474 5.10238 19.3915 4.80934L18.9361 4.6931C18.613 4.61765 18.3658 4.35792 18.3064 4.03192L17.8767 1.66536H14.6784L14.2497 4.03192ZM4.05365 20.0919C4.14844 20.3751 4.25366 20.6546 4.36805 20.9303L4.20418 20.514C4.15185 20.3741 4.10106 20.2336 4.05365 20.0919ZM0.885851 13.3248C0.869914 13.3342 0.855601 13.3459 0.841073 13.3572C0.875621 13.3303 0.913427 13.3072 0.9554 13.2914L0.885851 13.3248ZM12.1861 3.77563C11.9029 3.87042 11.6235 3.97564 11.3477 4.09003L11.764 3.92616C11.9039 3.87383 12.0444 3.82304 12.1861 3.77563ZM13.6028 0.607836C13.5767 0.651798 13.5581 0.700936 13.5485 0.753603L13.5694 0.678338C13.5786 0.653708 13.5896 0.630053 13.6028 0.607836Z" fill="white"/>
<path fill-rule="evenodd" clip-rule="evenodd" d="M19.3237 13.1514C19.6378 13.1715 19.9268 13.3131 20.1346 13.5496C20.5377 14.0079 20.5212 14.6931 20.1147 15.1316L20.0283 15.2156L16.2357 18.558C16.0123 18.7549 15.7333 18.8511 15.4567 18.8511C15.1745 18.8511 14.8916 18.7505 14.6693 18.552L14.5781 18.4613L12.851 16.5463L12.7767 16.4551C12.6153 16.236 12.5349 15.9693 12.5495 15.6943C12.5661 15.3799 12.7045 15.0896 12.9386 14.8791L13.0293 14.8047C13.2172 14.6662 13.4401 14.5882 13.6729 14.5775H13.7901C14.1044 14.5941 14.3954 14.7328 14.6059 14.9667L15.5498 16.0139L18.468 13.4432C18.7045 13.235 19.0092 13.1312 19.3237 13.1514ZM19.2566 14.2047C19.2229 14.2025 19.1915 14.2136 19.1659 14.2361L15.8568 17.1518C15.6397 17.3428 15.3096 17.3236 15.1159 17.1089L13.8209 15.6737C13.798 15.6483 13.7684 15.6344 13.7351 15.6326C13.7021 15.6308 13.6702 15.6414 13.6451 15.664C13.6262 15.6811 13.6134 15.7021 13.6076 15.7257L13.604 15.7498C13.6022 15.7834 13.6136 15.8143 13.636 15.8393L15.3631 17.7543C15.4086 17.8049 15.4879 17.8091 15.5377 17.7652L19.3303 14.4228C19.3817 14.3776 19.3875 14.2985 19.3418 14.2463C19.3196 14.2213 19.2901 14.2068 19.2566 14.2047Z" fill="white"/>
<path d="M19.2566 14.2047C19.2229 14.2025 19.1915 14.2136 19.1659 14.2361L15.8568 17.1518C15.6397 17.3428 15.3096 17.3236 15.1159 17.1089L13.8209 15.6737C13.798 15.6483 13.7684 15.6344 13.7351 15.6326C13.7021 15.6308 13.6702 15.6414 13.6451 15.664C13.6262 15.6811 13.6134 15.7021 13.6076 15.7257L13.604 15.7498C13.6022 15.7834 13.6136 15.8143 13.636 15.8393L15.3631 17.7543C15.4086 17.8049 15.4879 17.8091 15.5377 17.7652L19.3303 14.4228C19.3817 14.3776 19.3875 14.2985 19.3418 14.2463C19.3196 14.2213 19.2901 14.2068 19.2566 14.2047Z" fill="white"/>
</g>
<defs>
<clipPath id="clip0_389_2071">
<rect width="32" height="32" fill="white" transform="translate(0.278015)"/>
</clipPath>
</defs>
</svg>
