<svg width="33" height="32" viewBox="0 0 33 32" fill="none" xmlns="http://www.w3.org/2000/svg">
<g clip-path="url(#clip0_389_2075)">
<path d="M20.5681 4.2207C23.4211 4.2207 25.7418 6.5425 25.7419 9.39551V10.6953C27.3549 11.0158 28.8958 11.7937 30.1452 13.043C31.7763 14.6742 32.6771 16.845 32.6784 19.1504C32.6789 21.4556 31.7808 23.6241 30.152 25.2529C28.4677 26.9372 26.255 27.7793 24.0436 27.7793C21.8329 27.7793 19.6205 26.9371 17.9362 25.2529C17.038 24.3547 16.3714 23.2891 15.947 22.1309H11.2761L7.98993 26.3203C7.75879 26.6154 7.4141 26.7803 7.05145 26.7803C6.91894 26.7803 6.78639 26.7576 6.6579 26.7139H6.65594C6.16806 26.5455 5.84853 26.0968 5.84833 25.5801V22.125C3.08903 22.0176 0.877883 19.7416 0.877625 16.957V9.39551C0.877683 6.54247 3.19881 4.2207 6.05243 4.2207H20.5681ZM18.2184 24.9697C17.7566 24.5078 17.3577 24.0002 17.0251 23.457C17.1914 23.7286 17.374 23.9915 17.5729 24.2441C17.7719 24.4969 17.9874 24.7387 18.2184 24.9697C18.3187 25.0699 18.4211 25.1678 18.5251 25.2617C18.7336 25.45 18.9493 25.6259 19.1716 25.7891C18.8384 25.5444 18.5196 25.2709 18.2184 24.9697ZM11.0817 21.7314H16.2272C16.3264 22.033 16.4429 22.3283 16.5759 22.6162L16.3893 22.1787C16.3312 22.0309 16.2769 21.8825 16.2272 21.7314H11.0817ZM24.0446 12.2988C22.2896 12.2988 20.5362 12.9662 19.2009 14.3008C16.5266 16.9759 16.5242 21.3246 19.194 23.9951C21.868 26.6688 26.22 26.6672 28.8942 23.9951C31.5641 21.3246 31.5617 16.9759 28.8874 14.3008C27.5521 12.9662 25.7989 12.2989 24.0446 12.2988ZM29.8698 24.9697C29.6705 25.1691 29.4626 25.3557 29.2487 25.5303C29.3547 25.4438 29.4597 25.3552 29.5622 25.2627L29.8698 24.9697C29.967 24.8726 30.0614 24.7739 30.153 24.6729L29.8698 24.9697ZM19.4616 24.7754C19.5022 24.8084 19.5445 24.839 19.5856 24.8711C19.5415 24.8366 19.4964 24.8032 19.4528 24.7676L19.4616 24.7754ZM24.0436 13.7988C25.4467 13.7988 26.5876 14.9402 26.5876 16.3428V16.6074H26.8522C28.2548 16.6074 29.3962 17.7483 29.3962 19.1514C29.3958 20.5535 28.2545 21.6943 26.8522 21.6943H26.5876V21.959C26.5873 23.3619 25.4466 24.5029 24.0436 24.5029C22.6414 24.5027 21.5009 23.3617 21.5007 21.959V21.6943H21.236C19.8332 21.6943 18.6925 20.5536 18.6921 19.1514C18.6921 17.7482 19.8329 16.6074 21.236 16.6074H21.5007V16.3428C21.5007 14.9404 22.6413 13.799 24.0436 13.7988ZM23.6266 24.0605C23.6918 24.0735 23.7578 24.0849 23.8249 24.0918C23.8968 24.0991 23.9698 24.1035 24.0436 24.1035C23.9009 24.1035 23.7616 24.0873 23.6266 24.0605ZM6.05243 6.00098C4.18037 6.00098 2.65698 7.52419 2.65692 9.39551V16.957C2.65719 18.8282 4.18049 20.3525 6.05243 20.3525H6.737C7.22803 20.3525 7.62648 20.7502 7.62665 21.2412V23.8994L10.1432 20.6924C10.3121 20.4765 10.5705 20.3527 10.8425 20.3525H15.4938C15.439 19.9577 15.4098 19.556 15.4099 19.1504C15.41 18.965 15.4185 18.7813 15.4313 18.6006H7.59735C7.1066 18.6004 6.70904 18.2017 6.70868 17.7109C6.70868 17.2199 7.10637 16.8215 7.59735 16.8213H15.738C16.0144 15.8316 16.467 14.9012 17.0788 14.0664H7.59735C7.10654 14.0662 6.70894 13.6676 6.70868 13.1768C6.70873 12.6858 7.10641 12.2873 7.59735 12.2871H18.8181C20.335 11.13 22.1464 10.5466 23.9636 10.5303V9.39551C23.9635 7.52414 22.4394 6.00098 20.5681 6.00098H6.05243ZM24.9421 22.6992C24.9183 22.728 24.8933 22.7558 24.8669 22.7822C24.7878 22.8613 24.6973 22.9286 24.5983 22.9824C24.5322 23.0184 24.4624 23.0485 24.3893 23.0713C24.6449 22.9918 24.8626 22.8265 25.0095 22.6094L24.9421 22.6992ZM24.0436 15.5781C23.623 15.5783 23.28 15.922 23.28 16.3428V17.4971C23.2795 17.9877 22.8811 18.3857 22.3903 18.3857H21.236C20.8145 18.3857 20.4714 18.7299 20.4714 19.1514C20.4718 19.5718 20.8146 19.915 21.236 19.915H22.3903C22.8813 19.9151 23.2798 20.3137 23.28 20.8047V21.959C23.2802 22.3803 23.6233 22.7244 24.0436 22.7246C24.465 22.7246 24.809 22.3803 24.8093 21.959V20.8047C24.8094 20.3137 25.2079 19.915 25.6989 19.915H26.8522C27.2729 19.915 27.6165 19.5719 27.6169 19.1514C27.6169 18.7297 27.273 18.3857 26.8522 18.3857H25.6989C25.2081 18.3857 24.8098 17.9878 24.8093 17.4971V16.3428C24.8093 15.922 24.4653 15.5781 24.0436 15.5781ZM25.1559 22.3047C25.1445 22.3413 25.1317 22.3772 25.1169 22.4121C25.1465 22.3424 25.1697 22.2692 25.1852 22.1934L25.1559 22.3047ZM6.05243 21.7314C5.97031 21.7314 5.88842 21.7287 5.80731 21.7246L6.05243 21.7314ZM26.8522 21.2939L27.0573 21.2842L27.0593 21.2832C26.9913 21.2897 26.9219 21.2939 26.8522 21.2939ZM25.5192 20.3486C25.5162 20.3498 25.5134 20.3513 25.5104 20.3525C25.5391 20.3406 25.5692 20.3315 25.6003 20.3252L25.5192 20.3486ZM19.0925 19.1514L19.1032 19.3701C19.1099 19.4355 19.1201 19.4999 19.1325 19.5635C19.1063 19.4298 19.0925 19.2926 19.0925 19.1514ZM28.9958 19.1514C28.9957 19.2688 28.9838 19.3837 28.9655 19.4961C28.9723 19.4543 28.9807 19.4126 28.985 19.3701L28.9958 19.1514ZM27.987 19.4102C27.989 19.4016 27.9921 19.3934 27.9938 19.3848L27.9948 19.377C27.9926 19.3881 27.9895 19.3991 27.987 19.4102ZM25.5173 17.9492C25.5441 17.96 25.5714 17.9707 25.6003 17.9766L25.6989 17.9863C25.6347 17.9863 25.5735 17.9717 25.5173 17.9492ZM7.51044 18.1924L7.59735 18.2002C7.56388 18.2002 7.53128 18.1959 7.49969 18.1895C7.50332 18.1902 7.50679 18.1917 7.51044 18.1924ZM22.571 17.9492C22.5149 17.9716 22.4544 17.9853 22.3903 17.9854H21.236C21.1958 17.9854 21.1561 17.9882 21.1169 17.9922L21.236 17.9854H22.3903L22.489 17.9766C22.5175 17.9707 22.5444 17.9598 22.571 17.9492ZM22.8796 17.4971C22.8795 17.5617 22.8664 17.6232 22.8434 17.6797C22.8544 17.6527 22.8638 17.6248 22.8698 17.5957L22.8796 17.4971ZM25.2087 17.4971L25.2194 17.5957C25.2254 17.6247 25.2339 17.6528 25.2448 17.6797C25.2218 17.623 25.2087 17.562 25.2087 17.4971ZM2.26141 17.1523C2.26216 17.167 2.2644 17.1816 2.26532 17.1963C2.26426 17.1794 2.26225 17.1625 2.26141 17.1455V17.1523ZM24.8679 15.5195C24.8941 15.5458 24.9184 15.5729 24.9421 15.6016C25.0135 15.688 25.0725 15.785 25.1169 15.8896C25.1316 15.9243 25.1446 15.9598 25.1559 15.9961C25.1901 16.1055 25.2087 16.2223 25.2087 16.3428C25.2087 16.0221 25.0786 15.7304 24.8679 15.5195ZM29.8923 14.8584C30.0358 15.0539 30.1682 15.2551 30.2897 15.4609L30.0993 15.1553C30.0331 15.0549 29.964 14.956 29.8923 14.8584ZM24.278 15.2012C24.2879 15.2032 24.2976 15.2057 24.3073 15.208C24.2601 15.1971 24.2119 15.1886 24.1628 15.1836L24.278 15.2012ZM20.9899 12.5693C20.2393 12.9171 19.5359 13.3996 18.9177 14.0176C18.7992 14.1361 18.6874 14.2593 18.5788 14.3838C18.6062 14.3524 18.6328 14.3201 18.6608 14.2891L18.9177 14.0176C19.3593 13.5761 19.8445 13.204 20.3591 12.9004C20.5649 12.779 20.7755 12.6687 20.9899 12.5693ZM29.6198 13.0928C29.6496 13.1202 29.6783 13.1488 29.7077 13.1768C29.5972 13.0719 29.4856 12.9695 29.3708 12.8721L29.6198 13.0928ZM24.0446 11.8975L24.3923 11.9062C24.2765 11.9007 24.1605 11.8975 24.0446 11.8975ZM19.0222 7.75391C19.5132 7.75391 19.9116 8.15158 19.9118 8.64258C19.9115 9.13349 19.5131 9.53223 19.0222 9.53223H7.59833C7.10735 9.53223 6.70894 9.13349 6.70868 8.64258C6.70884 8.15158 7.10729 7.75391 7.59833 7.75391H19.0222ZM7.41473 9.0957C7.44196 9.10671 7.47031 9.11607 7.49969 9.12207L7.59833 9.13281H19.0222C19.0558 9.13281 19.0891 9.12853 19.1208 9.12207C19.1462 9.11689 19.1702 9.10758 19.194 9.09863C19.1405 9.11879 19.0828 9.13281 19.0222 9.13281H7.59833C7.53346 9.13281 7.4714 9.11864 7.41473 9.0957ZM7.41864 8.18652C7.41566 8.1877 7.41281 8.1892 7.40985 8.19043C7.43851 8.17848 7.46859 8.16943 7.49969 8.16309L7.41864 8.18652ZM5.57294 4.64551C5.33156 4.66967 5.09542 4.71161 4.86591 4.77051C5.09292 4.71227 5.32649 4.67077 5.56512 4.64648L5.57294 4.64551Z" fill="white"/>
</g>
<defs>
<clipPath id="clip0_389_2075">
<rect width="32" height="32" fill="white" transform="translate(0.778015)"/>
</clipPath>
</defs>
</svg>
