<svg width="33" height="32" viewBox="0 0 33 32" fill="none" xmlns="http://www.w3.org/2000/svg">
<path d="M28.9472 13.5591C28.9471 21.411 23.7836 28.3764 16.2776 30.6107C8.7719 28.3763 3.60819 21.4109 3.60807 13.5591V5.06841L16.2776 1.38871L28.9472 5.06841V13.5591ZM30.3073 4.55747C30.3073 4.25505 30.1072 3.98871 29.8167 3.90434L16.4675 0.0269917C16.3436 -0.00899693 16.2117 -0.00899693 16.0878 0.0269917L2.73853 3.90434C2.44813 3.98873 2.24877 4.25507 2.24869 4.55747V13.5591C2.24881 22.0776 7.89479 29.6321 16.0909 31.9739L16.1839 31.9935C16.2774 32.0065 16.3729 32 16.4643 31.9739C24.6606 29.6322 30.3072 22.0777 30.3073 13.5591V4.55747Z" fill="white"/>
<path d="M23.2262 16.0001C23.2261 19.8306 20.1083 22.9485 16.2777 22.9485C12.4472 22.9485 9.32931 19.8306 9.32926 16.0001C9.32926 12.1695 12.4472 9.05168 16.2777 9.05163C20.1083 9.05163 23.2262 12.1695 23.2262 16.0001ZM24.5863 16.0001C24.5863 11.4184 20.8594 7.69147 16.2777 7.69147C11.6961 7.69152 7.96988 11.4184 7.96988 16.0001C7.96993 20.5817 11.6961 24.3079 16.2777 24.3079C20.8594 24.3079 24.5863 20.5817 24.5863 16.0001Z" fill="white"/>
<path d="M15.3242 18.5867C15.5046 18.5867 15.6772 18.515 15.8047 18.3875L19.6195 14.5735C19.8848 14.3079 19.885 13.8772 19.6195 13.6117C19.3541 13.3463 18.9234 13.3465 18.6578 13.6117L15.3234 16.9461L13.8977 15.5195C13.6321 15.254 13.2023 15.254 12.9367 15.5195C12.6712 15.7851 12.6712 16.2149 12.9367 16.4805L14.8437 18.3875L14.893 18.4328C15.014 18.5321 15.1663 18.5867 15.3242 18.5867Z" fill="white"/>
</svg>
