<svg width="33" height="32" viewBox="0 0 33 32" fill="none" xmlns="http://www.w3.org/2000/svg">
<g clip-path="url(#clip0_389_2084)">
<g clip-path="url(#clip1_389_2084)">
<path fill-rule="evenodd" clip-rule="evenodd" d="M4.87079 0.149414C5.39817 0.149414 5.83754 0.588874 5.83759 1.11621L5.83173 1.21387C5.78159 1.69669 5.36524 2.08301 4.87079 2.08301H3.38251C3.09142 2.08309 2.86111 2.31341 2.86102 2.60449V10.0469L2.87079 10.4414C2.96839 12.4098 3.79296 14.2776 5.19305 15.6777C6.68655 17.1712 8.71268 18.0098 10.8249 18.0098L11.2194 18C13.1879 17.9024 15.0556 17.0779 16.4557 15.6777C17.8559 14.2776 18.6804 12.4098 18.778 10.4414L18.7878 10.0469V2.60449C18.7877 2.31331 18.5574 2.08301 18.2663 2.08301H16.778C16.2506 2.08301 15.8112 1.6436 15.8112 1.11621L15.8171 1.01855C15.8672 0.535774 16.2836 0.149414 16.778 0.149414H18.2663C19.6122 0.149414 20.7213 1.25859 20.7214 2.60449V10.0469C20.7212 15.1341 16.8647 19.3423 11.9245 19.8848L11.7907 19.8994V21.9531C11.7907 24.0653 12.6302 26.0914 14.1237 27.585C15.6172 29.0783 17.6426 29.9169 19.7546 29.917C21.8666 29.917 23.892 29.0782 25.3854 27.585C26.879 26.0914 27.7184 24.0653 27.7184 21.9531V13.8477L27.61 13.8174C25.9597 13.3437 24.7421 11.8368 24.7419 10.0469C24.7419 7.86739 26.5058 6.10352 28.6852 6.10352C30.8646 6.10366 32.6286 7.86747 32.6286 10.0469C32.6284 11.8369 31.4099 13.3428 29.7595 13.8164L29.7604 13.8174L29.652 13.8486V21.9531C29.652 27.2367 25.4816 31.5713 20.2624 31.8369L19.7546 31.8506C14.3007 31.8505 9.85809 27.4069 9.85809 21.9531V19.8994L9.72528 19.8848C4.78423 19.3276 0.927616 15.1338 0.927429 10.0469V2.60449C0.927522 1.25863 2.03665 0.149507 3.38251 0.149414H4.87079ZM28.6852 8.03613C28.152 8.03613 27.6404 8.24799 27.2634 8.625C26.8864 9.002 26.6745 9.51366 26.6745 10.0469L26.6843 10.2451C26.73 10.7053 26.9335 11.1379 27.2634 11.4678C27.6404 11.8448 28.152 12.0566 28.6852 12.0566L28.8835 12.0469C29.3438 12.0012 29.7762 11.7977 30.1061 11.4678C30.4831 11.0908 30.6949 10.5799 30.695 10.0469L30.6852 9.84766C30.6394 9.38745 30.4359 8.95476 30.1061 8.625C29.7762 8.29514 29.3437 8.09159 28.8835 8.0459L28.6852 8.03613Z" fill="white"/>
<path fill-rule="evenodd" clip-rule="evenodd" d="M15.2059 6.13154C15.2682 6.19367 15.3176 6.2675 15.3513 6.34875C15.385 6.43 15.4024 6.51707 15.4024 6.60502C15.4024 6.69302 15.385 6.7801 15.3513 6.86135C15.3176 6.9426 15.2682 7.01637 15.2059 7.07849L9.85589 12.4285C9.79377 12.4908 9.72 12.5402 9.63875 12.574C9.5575 12.6077 9.47036 12.625 9.38242 12.625C9.29448 12.625 9.20734 12.6077 9.12608 12.574C9.04483 12.5402 8.97107 12.4908 8.90894 12.4285L6.23393 9.75351C6.17173 9.69138 6.12244 9.61755 6.08881 9.5363C6.0551 9.45504 6.03778 9.36797 6.03778 9.28003C6.03778 9.19209 6.0551 9.10502 6.08881 9.02383C6.12244 8.94258 6.17173 8.86875 6.23393 8.80655C6.29612 8.74442 6.36995 8.69507 6.45114 8.66143C6.53239 8.62779 6.61946 8.61047 6.7074 8.61047C6.79534 8.61047 6.88242 8.62779 6.96367 8.66143C7.04486 8.69507 7.11869 8.74442 7.18088 8.80655L9.38242 11.0094L14.259 6.13154C14.3211 6.06928 14.3949 6.01986 14.4761 5.98615C14.5574 5.95245 14.6445 5.93506 14.7324 5.93506C14.8204 5.93506 14.9075 5.95245 14.9888 5.98615C15.07 6.01986 15.1438 6.06928 15.2059 6.13154Z" fill="white"/>
</g>
</g>
<defs>
<clipPath id="clip0_389_2084">
<rect width="32" height="32" fill="white" transform="translate(0.778015)"/>
</clipPath>
<clipPath id="clip1_389_2084">
<rect width="32" height="32" fill="white" transform="translate(0.778015)"/>
</clipPath>
</defs>
</svg>
