<svg width="40" height="40" viewBox="0 0 40 40" fill="none" xmlns="http://www.w3.org/2000/svg">
<path fill-rule="evenodd" clip-rule="evenodd" d="M15.6488 27.2137C15.8838 27.1968 16.1159 27.2735 16.2942 27.4275C16.4722 27.5818 16.5819 27.8011 16.5989 28.0361C16.6157 28.2711 16.5393 28.5042 16.3851 28.6824L12.2036 33.5015C12.1824 33.5258 12.1586 33.5483 12.1349 33.5702L12.1359 33.5711C12.0503 33.6503 11.9491 33.7126 11.8398 33.753C11.7307 33.7933 11.6145 33.8116 11.4983 33.8072C11.3818 33.8027 11.2665 33.7756 11.1606 33.7269C11.0549 33.6782 10.9592 33.6082 10.8801 33.5228L8.95667 31.4446L8.9557 31.4455C8.79605 31.2726 8.71137 31.0422 8.7206 30.807C8.73007 30.5718 8.83313 30.3495 9.00601 30.1897C9.17913 30.0299 9.40914 29.9453 9.64456 29.9546C9.87988 29.9641 10.102 30.067 10.2618 30.24L11.5109 31.5907L15.0403 27.5185C15.1946 27.3402 15.4137 27.2307 15.6488 27.2137ZM12.0169 33.338C12.0014 33.3558 11.9849 33.3733 11.9675 33.3892C11.9059 33.4463 11.8334 33.4907 11.7547 33.5199C11.7152 33.5344 11.6741 33.5452 11.6328 33.5518L11.7547 33.5199C11.8334 33.4907 11.9059 33.4463 11.9675 33.3892L12.0169 33.338ZM9.07857 31.2027L9.13759 31.2772C9.1111 31.2485 9.08852 31.2169 9.06793 31.1843C9.07171 31.1903 9.0746 31.1968 9.07857 31.2027ZM8.96828 30.8167L8.97602 30.9434C8.98182 30.9797 8.99126 31.0152 9.00311 31.0498C8.97766 30.9756 8.9651 30.8966 8.96828 30.8167ZM16.3522 28.0545C16.358 28.1358 16.3473 28.2162 16.3232 28.2925C16.3348 28.2558 16.3445 28.2185 16.3493 28.1802L16.3522 28.0545Z" fill="white"/>
<path fill-rule="evenodd" clip-rule="evenodd" d="M32.2656 19.6189C32.3826 19.6189 32.499 19.6418 32.6071 19.6866C32.7151 19.7314 32.8137 19.7965 32.8964 19.8791C32.979 19.9618 33.0451 20.0604 33.0899 20.1684C33.1346 20.2764 33.1576 20.393 33.1576 20.5099C33.1575 20.6266 33.1345 20.7427 33.0899 20.8505C33.0451 20.9584 32.979 21.0572 32.8964 21.1398C32.8137 21.2224 32.7151 21.2885 32.6071 21.3333C32.499 21.378 32.3826 21.401 32.2656 21.401H16.6637C16.4275 21.401 16.201 21.3067 16.0339 21.1398C15.8669 20.9728 15.7729 20.7461 15.7727 20.5099C15.7727 20.2737 15.8669 20.0463 16.0339 19.8791C16.201 19.7122 16.4275 19.6189 16.6637 19.6189H32.2656ZM32.9099 20.509C32.9099 20.5935 32.8929 20.6776 32.8606 20.7557C32.8766 20.717 32.8892 20.6766 32.8973 20.6357L32.9099 20.509ZM16.0204 20.5099L16.0329 20.6357C16.0399 20.6705 16.0504 20.7043 16.0629 20.7373C16.0355 20.665 16.0204 20.5887 16.0204 20.5099ZM16.447 19.9033C16.4405 19.9057 16.4341 19.9085 16.4277 19.9111C16.4634 19.897 16.5002 19.8857 16.538 19.8782L16.447 19.9033Z" fill="white"/>
<path fill-rule="evenodd" clip-rule="evenodd" d="M32.2656 14.2164C32.3825 14.214 32.4991 14.2348 32.6081 14.2773C32.7188 14.3207 32.8199 14.386 32.9051 14.4689C32.9901 14.5517 33.0582 14.6508 33.1044 14.7601C33.1506 14.8697 33.175 14.9885 33.175 15.1074C33.1749 15.2263 33.1506 15.3443 33.1044 15.4538C33.0581 15.5633 32.9903 15.663 32.9051 15.746C32.8199 15.8289 32.7188 15.8943 32.6081 15.9376C32.4991 15.9801 32.3824 15.9999 32.2656 15.9975L16.6637 15.9985C16.5471 16.0008 16.4309 15.98 16.3222 15.9376C16.2114 15.8943 16.1095 15.8289 16.0242 15.746C15.9391 15.6631 15.8712 15.5633 15.8249 15.4538C15.7787 15.3444 15.7554 15.2262 15.7553 15.1074C15.7553 14.9885 15.7787 14.8697 15.8249 14.7601C15.8711 14.6508 15.9393 14.5517 16.0242 14.4689C16.1095 14.3859 16.2114 14.3207 16.3222 14.2773C16.431 14.2348 16.547 14.2141 16.6637 14.2164H32.2656ZM16.0029 15.1074L16.0155 15.2352C16.024 15.2768 16.0366 15.3186 16.0533 15.358C16.07 15.3975 16.091 15.435 16.1152 15.4703C16.1393 15.5055 16.1667 15.5391 16.1974 15.5689C16.1358 15.509 16.0867 15.4372 16.0533 15.358C16.0198 15.2788 16.0029 15.1934 16.0029 15.1074ZM32.9273 15.1065C32.9273 15.1925 32.9095 15.2778 32.8761 15.3571C32.8426 15.4362 32.7935 15.508 32.7319 15.568C32.7626 15.5381 32.791 15.5055 32.8151 15.4703L32.8761 15.3571C32.8927 15.3177 32.9053 15.2768 32.9138 15.2352L32.9273 15.1065Z" fill="white"/>
<path fill-rule="evenodd" clip-rule="evenodd" d="M24.4647 8.81388C24.5813 8.81158 24.6974 8.83146 24.8062 8.87387C24.917 8.91719 25.0189 8.98244 25.1042 9.06543C25.1893 9.1484 25.2572 9.24808 25.3035 9.35762C25.3497 9.4672 25.3731 9.58602 25.3731 9.70495C25.373 9.82371 25.3497 9.9419 25.3035 10.0513C25.2572 10.1608 25.1894 10.2606 25.1042 10.3435C25.0189 10.4264 24.917 10.4918 24.8062 10.5351C24.6975 10.5774 24.5813 10.5964 24.4647 10.5941V10.596H16.6637V10.5941C16.5471 10.5964 16.4309 10.5775 16.3222 10.5351C16.2114 10.4918 16.1095 10.4264 16.0242 10.3435C15.939 10.2606 15.8712 10.1608 15.8249 10.0513C15.7787 9.9419 15.7554 9.82371 15.7553 9.70495C15.7553 9.58602 15.7787 9.4672 15.8249 9.35762C15.8712 9.24808 15.9391 9.14841 16.0242 9.06543C16.1095 8.98242 16.2114 8.9172 16.3222 8.87387C16.431 8.83144 16.5471 8.8116 16.6637 8.81388H24.4647ZM16.0155 9.57724C16.0071 9.61889 16.0029 9.66226 16.0029 9.70495L16.0155 9.83266C16.024 9.87418 16.0367 9.91532 16.0533 9.95456C16.0198 9.87535 16.0029 9.79093 16.0029 9.70495C16.0029 9.61919 16.02 9.5334 16.0533 9.45437L16.0155 9.57724Z" fill="white"/>
<path fill-rule="evenodd" clip-rule="evenodd" d="M15.4244 0.373453H16.4596V0H16.5863V0.124807H16.7073V0.373453H27.9651C28.38 0.374346 28.7905 0.459775 29.1715 0.624035L29.3118 0.688857C29.5901 0.825429 29.8455 1.0046 30.0684 1.22001L30.1768 1.33031L30.1835 1.33805L30.2096 1.36804L35.8917 7.50777C36.1413 7.77579 36.3347 8.0917 36.4606 8.43559L36.4616 8.43656C36.5865 8.78277 36.649 9.1492 36.6464 9.51725V30.0282C36.6484 30.7201 36.4151 31.39 35.9895 31.9283L35.796 32.1499C35.5257 32.4315 35.2012 32.656 34.842 32.8087C34.5726 32.9233 34.2876 32.9956 33.9974 33.0245L33.7062 33.039H21.4606C20.7825 34.4971 19.8127 35.8017 18.6103 36.8713C16.9845 38.3125 15.0522 39.367 12.9602 39.9537L12.9592 39.9527C12.7739 40.012 12.5756 40.0159 12.3884 39.9624C10.4162 39.4089 8.58503 38.4435 7.01684 37.1305L6.70724 36.8635C5.19572 35.5285 4.06036 33.8206 3.41292 31.9109L3.3868 31.8412C3.36423 31.7699 3.353 31.6948 3.35294 31.6197V26.2946C3.35528 25.9356 3.45798 25.5836 3.64899 25.2797L3.72736 25.1636C3.91646 24.9003 4.15896 24.6789 4.43943 24.5144L7.45125 22.711L7.45221 22.71C7.66188 22.5868 7.88864 22.494 8.12462 22.4353C8.36268 22.3751 8.6076 22.345 8.85315 22.3453H11.7827L11.8166 3.61069H11.8127L11.8137 3.36301C11.8141 2.5706 12.129 1.81038 12.6893 1.25C13.2497 0.689712 14.0098 0.374829 14.8023 0.374421H15.1767V0.124807H15.2986V0H15.4244V0.373453ZM12.6748 23.9562H8.85218C8.81121 23.9558 8.76994 23.9583 8.72931 23.9629L8.6074 23.9842C8.54817 23.9984 8.49077 24.0214 8.43809 24.0519L5.42821 25.8544L5.42531 25.8563C5.33761 25.9074 5.26282 25.9785 5.20859 26.0643C5.16465 26.134 5.14065 26.2151 5.1399 26.2975V31.5084C5.66756 33.0339 6.55541 34.4086 7.72795 35.5139L7.96886 35.7325C9.32611 36.9367 10.9284 37.8325 12.6641 38.3593C14.3963 37.8361 15.995 36.9438 17.3487 35.7422C18.5234 34.6996 19.4391 33.3971 20.0229 31.939L20.0268 31.9283C20.0439 31.8626 20.0676 31.7988 20.0993 31.7387C20.1256 31.6632 20.1524 31.5872 20.1787 31.5113V26.3014C20.178 26.2187 20.1546 26.1375 20.1109 26.0672C20.0566 25.981 19.9821 25.9089 19.8942 25.8573L19.8923 25.8563L16.8795 24.0519C16.8156 24.0134 16.7459 23.983 16.6744 23.962L16.5786 23.9416C16.5466 23.9373 16.5142 23.9358 16.4819 23.9358H16.4306L12.6748 23.9562ZM18.4459 36.6855C17.956 37.1198 17.4373 37.518 16.895 37.8784C17.3267 37.5915 17.744 37.2817 18.143 36.9477L18.4459 36.6855ZM17.5132 35.927C17.8895 35.593 18.2399 35.2328 18.562 34.8502C18.3042 35.1562 18.0283 35.4475 17.7357 35.7228C17.6625 35.7917 17.5885 35.8602 17.5132 35.927C17.3383 36.0822 17.1589 36.2318 16.9762 36.3769C16.8849 36.4494 16.7927 36.5208 16.6995 36.5907C16.5131 36.7306 16.3233 36.8658 16.1297 36.9951C16.6135 36.672 17.0758 36.3152 17.5132 35.927ZM8.07044 36.1476C8.10328 36.1751 8.137 36.2016 8.1701 36.2288C8.13136 36.197 8.09238 36.1654 8.054 36.1331L8.07044 36.1476ZM3.64028 31.8122C3.75889 32.1641 3.8949 32.5097 4.04663 32.8465C4.14769 33.0707 4.25552 33.2915 4.37074 33.5082C4.48602 33.7251 4.60841 33.9381 4.73742 34.1468C4.28569 33.416 3.91699 32.6332 3.64028 31.8122ZM33.9732 32.7778C33.8847 32.7866 33.7955 32.7905 33.7062 32.7904L33.9732 32.7778C34.0616 32.769 34.1494 32.7559 34.2364 32.7381L33.9732 32.7778ZM34.7453 32.5804L34.9262 32.4943C34.9356 32.4894 34.944 32.4828 34.9533 32.4779C34.8851 32.5142 34.8166 32.5501 34.7453 32.5804ZM35.617 31.9777C35.5006 32.0989 35.3723 32.2071 35.2358 32.3037C35.2996 32.2585 35.3628 32.2122 35.4225 32.1615C35.4902 32.1039 35.5552 32.042 35.617 31.9777ZM14.8023 2.15655C14.6439 2.15646 14.4872 2.18787 14.3408 2.24846C14.1944 2.30906 14.0609 2.39767 13.9489 2.50968C13.8371 2.62166 13.7482 2.75527 13.6877 2.90152C13.6274 3.04772 13.5966 3.20484 13.5968 3.36301V3.61069H13.5939L13.561 22.3433L16.4103 22.3279L16.4702 22.3259H16.4819C16.7273 22.3273 16.9715 22.362 17.2075 22.4294C17.4398 22.495 17.6618 22.5905 17.8692 22.7139L17.8702 22.7149L20.8811 24.5173C21.202 24.7051 21.4731 24.968 21.6715 25.2826C21.862 25.5857 21.9658 25.9366 21.9685 26.2946V31.2617H33.7042C33.8553 31.262 34.0053 31.2317 34.1444 31.1727C34.2834 31.1137 34.4093 31.0269 34.514 30.9183C34.74 30.6798 34.8646 30.3625 34.8623 30.034V10.4083H30.0839C29.2872 10.4035 28.5237 10.0844 27.9602 9.52112C27.397 8.95789 27.0782 8.19494 27.073 7.39844V2.15655H14.8023ZM29.5576 10.1055C29.6418 10.1223 29.727 10.1362 29.813 10.1452L30.0848 10.1606H35.111L35.1119 10.1597L30.0848 10.1606C29.9064 10.1595 29.73 10.1399 29.5576 10.1055ZM34.9881 8.87097L34.9891 8.87193C34.972 8.83458 34.9517 8.7989 34.931 8.76357C34.9516 8.79849 34.9712 8.83405 34.9881 8.87097ZM34.7733 8.55073L34.8362 8.62426C34.8161 8.59879 34.7955 8.57455 34.7733 8.55073ZM28.8552 7.39167C28.8589 7.71712 28.9898 8.02935 29.2199 8.25951C29.4502 8.48965 29.7621 8.62078 30.0877 8.62426H34.5053L28.9055 2.57451L28.8793 2.54742L28.8745 2.54355C28.8683 2.53698 28.8615 2.53061 28.8552 2.5242V7.39167ZM12.072 3.12501L12.0614 3.36301C12.0614 3.27778 12.0661 3.19273 12.0739 3.10856C12.0734 3.11406 12.0725 3.11951 12.072 3.12501Z" fill="white"/>
</svg>
