<svg width="40" height="40" viewBox="0 0 40 40" fill="none" xmlns="http://www.w3.org/2000/svg">
<g clip-path="url(#clip0_389_2062)">
<path fill-rule="evenodd" clip-rule="evenodd" d="M6.28857 0.276317C6.65767 -0.0926595 7.25686 -0.0918809 7.62606 0.277308L12.4971 5.14836H31.2377C38.1925 5.14856 41.8143 13.6284 36.8167 18.6263C34.2385 21.2043 31.7592 20.9453 28.4101 20.9453H28.2841L23.4111 25.8174C23.0647 26.1636 22.5166 26.1843 22.147 25.8818L22.0756 25.8174L17.2036 20.9453H8.76128C3.49149 20.9453 0.700793 27.3788 4.51882 31.197C5.60684 32.285 7.11059 32.9628 8.76128 32.9628H32.0963V28.758C32.0963 27.9199 33.1177 27.4916 33.7193 28.0997L38.8591 33.2394C39.2283 33.6088 39.2275 34.2078 38.8591 34.5749L33.7104 39.7236C33.1162 40.3173 32.0985 39.8899 32.0983 39.0553V34.8516H8.76128C1.80524 34.8515 -1.81392 26.3716 3.18233 21.3736C4.61429 19.9417 6.58862 19.0546 8.76128 19.0546H17.2026L22.0736 14.1826C22.443 13.8133 23.042 13.8141 23.4091 14.1826L28.2812 19.0546H28.4071C31.0463 19.0546 33.3581 19.4079 35.4782 17.2898C39.2944 13.4736 36.5075 7.03808 31.2357 7.03808H12.4971L7.62606 11.9111C7.25674 12.2803 6.65772 12.2794 6.29056 11.9111L1.13992 6.76246C0.770679 6.39313 0.771632 5.79412 1.13992 5.42696L6.28857 0.276317ZM33.987 36.776L36.8543 33.9067L34.5075 31.5589L33.987 31.0394V36.776ZM19.1458 19.7853L18.9297 20.0005L22.7439 23.8146L26.3419 20.2166L26.557 20.0005L22.7439 16.1873L19.1458 19.7853ZM6.74068 2.49521L3.14267 6.09322L6.74068 9.69123L6.95682 9.90638L10.77 6.09322L6.95682 2.28006L6.74068 2.49521Z" fill="white"/>
</g>
<defs>
<clipPath id="clip0_389_2062">
<rect width="40" height="40" fill="white" transform="translate(-0.000305176)"/>
</clipPath>
</defs>
</svg>
