<svg width="40" height="40" viewBox="0 0 40 40" fill="none" xmlns="http://www.w3.org/2000/svg">
<path d="M7.21229 31.8655C7.33231 31.8651 7.45175 31.8874 7.56282 31.9329C7.67376 31.9783 7.77472 32.0455 7.85988 32.1299C7.94509 32.2145 8.01351 32.3153 8.0599 32.426C8.10624 32.5366 8.12969 32.6556 8.1302 32.7755C8.13067 32.8962 8.10784 33.0165 8.06188 33.128C8.01592 33.2395 7.94812 33.3408 7.86285 33.4261C7.77757 33.5114 7.67629 33.5792 7.5648 33.6251C7.45322 33.6711 7.33296 33.6939 7.21229 33.6934C7.09233 33.6929 6.9734 33.6695 6.86275 33.6231C6.75203 33.5768 6.65123 33.5083 6.56668 33.4231C6.48229 33.338 6.41507 33.237 6.36963 33.1261C6.32415 33.015 6.30183 32.8955 6.3023 32.7755C6.30332 32.5344 6.39913 32.3034 6.56965 32.1329C6.74016 31.9624 6.97115 31.8666 7.21229 31.8655Z" fill="white"/>
<path d="M7.21229 23.3271C7.33231 23.3266 7.45174 23.3489 7.56282 23.3944C7.67376 23.4398 7.77472 23.5071 7.85988 23.5914C7.94509 23.676 8.01351 23.7768 8.0599 23.8875C8.10624 23.9982 8.12969 24.1171 8.1302 24.2371C8.13067 24.3577 8.10784 24.478 8.06188 24.5896C8.01592 24.701 7.94812 24.8023 7.86285 24.8876C7.77757 24.9729 7.67629 25.0407 7.5648 25.0866C7.45322 25.1326 7.33296 25.1554 7.21229 25.155C7.09233 25.1545 6.9734 25.131 6.86275 25.0847C6.75203 25.0383 6.65123 24.9699 6.56668 24.8846C6.48229 24.7995 6.41508 24.6985 6.36963 24.5876C6.32415 24.4765 6.30183 24.3571 6.3023 24.2371C6.30332 23.9959 6.39914 23.7649 6.56965 23.5944C6.74016 23.4239 6.97115 23.3281 7.21229 23.3271Z" fill="white"/>
<path d="M7.21229 15.2104C7.33231 15.2099 7.45174 15.2323 7.56282 15.2778C7.67377 15.3232 7.77472 15.3904 7.85988 15.4748C7.9451 15.5594 8.01351 15.6601 8.0599 15.7709C8.10624 15.8815 8.1297 16.0004 8.1302 16.1204C8.13067 16.2411 8.10784 16.3613 8.06188 16.4729C8.01592 16.5844 7.94811 16.6857 7.86285 16.771C7.77757 16.8562 7.67628 16.924 7.5648 16.97C7.45322 17.016 7.33296 17.0388 7.21229 17.0383C7.09233 17.0378 6.9734 17.0144 6.86275 16.968C6.75202 16.9216 6.65123 16.8532 6.56668 16.768C6.48228 16.6828 6.41508 16.5819 6.36963 16.4709C6.32414 16.3599 6.30183 16.2404 6.3023 16.1204C6.30331 15.8793 6.39914 15.6483 6.56965 15.4778C6.74016 15.3073 6.97115 15.2114 7.21229 15.2104Z" fill="white"/>
<path fill-rule="evenodd" clip-rule="evenodd" d="M19.9987 0C24.9094 4.6872e-05 29.3344 0.824294 32.6277 2.222C34.2758 2.92152 35.6387 3.74897 36.633 4.74998C37.3909 5.51301 37.9355 6.40748 38.15 7.36707L38.153 7.37994L38.1569 7.39182C38.1815 7.46814 38.1956 7.54742 38.1995 7.62749L38.2005 7.64135L38.2025 7.6562C38.2337 7.86231 38.253 8.06595 38.253 8.27112V31.7358C38.253 31.989 38.2268 32.2387 38.1807 32.4864L38.1411 32.6973C37.5975 35.0217 35.3064 36.7382 32.1405 37.985C31.9056 38.0774 31.6646 38.1675 31.4196 38.2543L31.1968 38.3305C31.0248 38.3895 30.8505 38.4468 30.674 38.5028L30.1363 38.6672C29.9865 38.7113 29.8357 38.7541 29.6838 38.7959C29.5874 38.8224 29.4898 38.848 29.3907 38.8741C29.2777 38.9039 29.1643 38.9338 29.0501 38.9623C28.9082 38.9978 28.766 39.0329 28.6233 39.0662C28.53 39.0883 28.4372 39.1098 28.3451 39.1306L27.8737 39.2326C27.7605 39.2562 27.6464 39.2789 27.5301 39.3019C27.4144 39.3247 27.2977 39.3463 27.1806 39.3683C27.0264 39.3969 26.871 39.4246 26.7142 39.4514C26.6177 39.4678 26.5291 39.4811 26.4251 39.498L25.9419 39.5742C25.8348 39.5903 25.7367 39.6066 25.6349 39.6208C24.9355 39.7187 24.2173 39.7977 23.4832 39.8584C23.3658 39.8682 23.2456 39.8781 23.1257 39.8871C22.9492 39.9003 22.7742 39.9122 22.598 39.9228L22.5742 39.9238C22.2947 39.9407 22.013 39.9541 21.7286 39.9653C21.6425 39.969 21.5771 39.9689 21.48 39.9723C21.2865 39.9787 21.1017 39.9872 20.9127 39.9911C20.6102 39.9975 20.3053 40 19.9987 40C19.6919 40 19.3886 39.9974 19.0857 39.9911C18.5477 39.9799 18.0159 39.9567 17.4905 39.9257C17.4733 39.9247 17.4575 39.925 17.447 39.9247C17.4348 39.9245 17.4285 39.9241 17.4232 39.9238C17.2385 39.9126 17.056 39.8996 16.8726 39.8861C16.7532 39.8771 16.6331 39.8682 16.5162 39.8584C16.3246 39.8424 16.1343 39.8245 15.9419 39.8059L15.723 39.7841C15.5342 39.7647 15.3466 39.7424 15.1566 39.7198H15.1547C15.0551 39.7083 14.9768 39.7013 14.8873 39.6901C14.7221 39.6694 14.5591 39.6459 14.3922 39.6227C14.2731 39.6063 14.1536 39.5897 14.0357 39.5722C13.8851 39.5497 13.7378 39.5246 13.5852 39.5C13.4796 39.4828 13.3844 39.4684 13.2852 39.4514C13.1283 39.4245 12.9724 39.3969 12.8178 39.3683C12.7013 39.3466 12.585 39.3237 12.4692 39.3009C12.3531 39.278 12.2384 39.2552 12.1247 39.2316C11.9661 39.1985 11.8089 39.1654 11.6533 39.1306C11.561 39.1099 11.4721 39.0877 11.3761 39.0653C11.2336 39.0318 11.0907 38.9976 10.9493 38.9623C10.8346 38.9336 10.7212 38.9039 10.6087 38.8741C10.5097 38.8481 10.4117 38.8224 10.3156 38.7959C10.164 38.7542 10.0133 38.7102 9.86304 38.6662C9.71898 38.6239 9.57893 38.5828 9.44023 38.5395C9.42167 38.5336 9.4026 38.5275 9.38181 38.5206C9.36083 38.5137 9.33766 38.5053 9.31448 38.4979C9.14113 38.4427 8.96996 38.3879 8.80254 38.3305C8.7206 38.3024 8.65328 38.2805 8.57876 38.2543C8.39583 38.1895 8.21625 38.1232 8.0391 38.0553C8.03104 38.0521 8.02225 38.0484 8.01237 38.0444C8.00298 38.0405 7.99194 38.0359 7.98068 38.0315L7.97771 38.0305L7.85988 37.985C4.80931 36.7836 2.57303 35.1427 1.93157 32.9429V32.9399L1.9276 32.932L1.92661 32.929L1.92463 32.925C1.80916 32.5398 1.74644 32.1425 1.7464 31.7358V8.27112C1.7464 6.96903 2.38181 5.75015 3.37527 4.74998C4.37003 3.74856 5.72408 2.92128 7.37171 2.222C10.6651 0.824248 15.0879 0 19.9987 0ZM35.9666 27.6206C34.9405 28.459 33.6139 29.1702 32.0949 29.7683C28.8589 31.0426 24.6264 31.7922 19.9561 31.7923C15.4086 31.7923 11.2757 31.0757 8.07376 29.8624C6.48335 29.2597 5.09962 28.5439 4.0288 27.6889L3.57628 27.3275V31.7358C3.57631 31.8775 3.59115 32.018 3.61589 32.1557C3.74492 32.8516 4.25862 33.5963 5.07643 34.2984C5.90044 35.0059 7.05995 35.6949 8.53519 36.2759C10.3767 37.001 12.6502 37.5628 15.1834 37.883C15.1937 37.8842 15.2036 37.8847 15.2091 37.8849C15.9588 37.9791 16.7317 38.0541 17.5242 38.1038H17.5341L18.3451 38.1454C18.6172 38.1567 18.8913 38.1644 19.1669 38.1701C19.4416 38.1759 19.7186 38.181 19.9977 38.181C20.2776 38.181 20.5578 38.177 20.8334 38.1711C21.3643 38.1601 21.8859 38.137 22.4009 38.1058C22.4051 38.1055 22.4114 38.105 22.4227 38.1048C22.4323 38.1045 22.4487 38.1048 22.4653 38.1038L22.4643 38.1028C22.9394 38.0731 23.4069 38.0337 23.8664 37.9879L24.1338 37.9622C24.3153 37.9427 24.4958 37.9203 24.6714 37.8988C24.7228 37.8925 24.7922 37.8856 24.8507 37.878L24.8497 37.877C25.2877 37.8214 25.7167 37.7595 26.1379 37.6899C26.2438 37.6724 26.3513 37.6542 26.4578 37.6354C26.5795 37.6141 26.7005 37.5921 26.8192 37.5701C26.9374 37.548 27.0573 37.5256 27.1766 37.5017L27.5391 37.4265C27.6474 37.4036 27.7585 37.3804 27.8678 37.3562L28.3074 37.2552L28.3084 37.2542C28.3881 37.235 28.4803 37.2115 28.552 37.1938C28.6622 37.1664 28.7789 37.138 28.8917 37.1086C29.0172 37.0757 29.1427 37.0403 29.261 37.0076C29.3695 36.9775 29.4868 36.9463 29.5987 36.9136C29.7146 36.8796 29.8332 36.8392 29.9383 36.8066L29.9393 36.8076C29.9705 36.7981 30.0623 36.772 30.1066 36.7581C30.2462 36.7139 30.381 36.6684 30.5136 36.6234L30.8532 36.5076C30.9382 36.4773 31.0317 36.441 31.1057 36.4135C31.1724 36.3888 31.2621 36.3574 31.3374 36.3284C31.5141 36.2603 31.6839 36.1885 31.8484 36.1194H31.8504C31.8523 36.1186 31.8556 36.1167 31.8672 36.1125C31.8761 36.1092 31.8922 36.1022 31.9098 36.0947L31.9108 36.0957C32.035 36.0429 32.153 35.9894 32.2682 35.9372C33.4952 35.3774 34.4617 34.7418 35.1507 34.0974C35.8352 33.4573 36.2674 32.788 36.3845 32.1567L36.3855 32.1547C36.4102 32.0146 36.4221 31.8748 36.4221 31.7358V27.2492L35.9666 27.6206ZM3.57727 24.0558L3.60203 24.1113C3.61007 24.1291 3.61693 24.1474 3.62381 24.1658C3.81641 24.8417 4.37752 25.5632 5.22496 26.2442C6.08197 26.9328 7.25809 27.6 8.72333 28.1553C11.6478 29.2635 15.6068 29.9614 19.9561 29.9614C24.4222 29.9614 28.4732 29.2259 31.4186 28.0661C32.894 27.4852 34.0534 26.794 34.8774 26.0848C35.6948 25.3811 36.2086 24.6364 36.3379 23.941C36.3507 23.8736 36.3709 23.8078 36.3983 23.7449L36.4221 23.6915V19.0771L35.9686 19.4425C34.947 20.2643 33.6351 20.9617 32.1395 21.5506C28.9035 22.8249 24.6691 23.5726 19.9987 23.5726C15.3279 23.5726 11.095 22.8251 7.85889 21.5506C6.36112 20.9608 5.05104 20.2611 4.03078 19.4376L3.57727 19.0712V24.0558ZM3.57727 15.6075L3.59411 15.654L3.62084 15.7402C3.75576 16.4302 4.26627 17.1691 5.07643 17.8671C5.90035 18.5769 7.05993 19.2675 8.53519 19.8485C11.4807 21.0084 15.5322 21.7447 19.9987 21.7447C24.4648 21.7447 28.5277 21.0084 31.4731 19.8485C32.9485 19.2674 34.1053 18.5761 34.9269 17.8661C35.735 17.1678 36.2437 16.4298 36.3785 15.7402C36.3861 15.7112 36.395 15.6821 36.4053 15.654L36.4221 15.6075V10.8605L35.9686 11.2249C34.9472 12.0466 33.6354 12.7429 32.1395 13.332C28.9035 14.6063 24.6689 15.3559 19.9987 15.356C15.328 15.356 11.0951 14.6065 7.85889 13.332C6.36076 12.742 5.05092 12.0443 4.03078 11.2209L3.57727 10.8545V15.6075ZM19.9987 1.8279C15.3041 1.8279 11.0631 2.639 8.08861 3.90138C6.60229 4.53218 5.42469 5.27987 4.66946 6.0402C4.14836 6.56481 3.82448 7.07807 3.67431 7.59085L3.65055 7.67106L3.6753 7.75126C3.8775 8.41385 4.41079 9.11273 5.21902 9.77423C6.03185 10.4395 7.14282 11.0835 8.53519 11.6318C11.4807 12.7918 15.5322 13.5271 19.9987 13.5271C24.4648 13.527 28.5277 12.7918 31.4731 11.6318C32.8655 11.0835 33.9737 10.4386 34.7843 9.77324C35.5906 9.1115 36.1224 8.41357 36.3241 7.75126L36.3478 7.67106L36.3241 7.59085C36.1739 7.07819 35.8508 6.56468 35.3299 6.0402C34.5747 5.27992 33.397 4.53216 31.9108 3.90138C28.9363 2.639 24.6932 1.82795 19.9987 1.8279Z" fill="white"/>
</svg>
