<svg width="40" height="40" viewBox="0 0 40 40" fill="none" xmlns="http://www.w3.org/2000/svg">
<g clip-path="url(#clip0_389_2067)">
<path fill-rule="evenodd" clip-rule="evenodd" d="M35.0236 11.2851C35.5794 11.2854 36.0342 11.7402 36.0346 12.296V34.6078H38.9887C39.5445 34.6081 39.9994 35.063 39.9997 35.6187C39.9994 36.1746 39.5446 36.6281 38.9887 36.6284H1.01061C0.454552 36.6284 -8.7033e-06 36.1747 -0.000320435 35.6187C9.04992e-06 35.0628 0.454542 34.6078 1.01061 34.6078H3.96479V23.3549C3.96512 22.7989 4.41966 22.344 4.97573 22.344H13.9795V17.8224C13.9801 17.2666 14.4334 16.8128 14.9892 16.8127H23.993V12.296C23.9934 11.7402 24.4469 11.2853 25.0028 11.2851H35.0236ZM5.99034 24.372V34.6152H13.9832V24.372H5.99034ZM16.0039 18.837V34.6127H23.9967V18.837H16.0039ZM26.0174 13.3107V34.6127H34.0176V13.3107H26.0174Z" fill="white"/>
<path d="M18.2861 4.12505C18.433 3.58346 18.9852 3.26102 19.5243 3.40647L23.1651 4.37809C23.7054 4.52451 24.0246 5.07504 23.8837 5.61504L22.9121 9.2571C22.7919 9.70604 22.3805 10.0037 21.9368 10.0039C21.8508 10.0039 21.761 9.99414 21.6776 9.96954L21.6751 9.96832L21.5757 9.93638C21.094 9.75317 20.8187 9.23712 20.9553 8.73137L21.3005 7.44406L8.89539 14.6225L8.7701 14.6827C8.64487 14.734 8.5155 14.7588 8.38808 14.7589H8.24191C7.94809 14.715 7.67791 14.5425 7.51718 14.2651C7.23913 13.7856 7.40102 13.1634 7.88569 12.8856L20.292 5.70717L19.0059 5.362C18.4636 5.21558 18.1404 4.66457 18.2861 4.12505Z" fill="white"/>
</g>
<defs>
<clipPath id="clip0_389_2067">
<rect width="40" height="40" fill="white" transform="translate(-0.000320435)"/>
</clipPath>
</defs>
</svg>
