<svg width="40" height="40" viewBox="0 0 40 40" fill="none" xmlns="http://www.w3.org/2000/svg">
<g clip-path="url(#clip0_389_2069)">
<path fill-rule="evenodd" clip-rule="evenodd" d="M17.729 17.2584C21.6781 17.2584 25.2436 18.3293 27.8893 20.108C30.0006 21.5276 31.5357 23.4369 32.0679 25.5857L32.1228 25.8102L32.3413 25.8901L36.2156 27.2939C36.5666 27.4231 36.8265 27.8002 36.8233 28.1739V33.9261C36.823 35.3684 35.9469 36.5098 34.8866 37.4302C33.8248 38.3519 32.5677 39.0949 31.4014 39.8488L31.3944 39.8538C31.1093 40.0466 30.7021 40.0515 30.4026 39.8518L30.3976 39.8488L29.5096 39.2821C28.616 38.713 27.7117 38.123 26.9164 37.4332C26.9136 37.4302 26.9099 37.4258 26.9065 37.4222C26.8982 37.4138 26.8861 37.4021 26.8715 37.3893L26.7488 37.2816H4.10449C3.85847 37.2815 3.62201 37.183 3.44796 37.0092C3.27399 36.8352 3.17572 36.5986 3.17557 36.3526V27.27C3.17557 24.439 4.91853 21.8893 7.56774 20.108C10.2135 18.3291 13.7797 17.2584 17.729 17.2584ZM26.8316 28.8245V33.9261C26.8319 34.6322 27.2917 35.2999 28.1307 36.0284C28.7933 36.6034 29.7719 37.2089 30.665 37.7824L30.8995 37.9331L31.134 37.7824C32.0269 37.2091 33.0048 36.6033 33.6673 36.0284C34.5063 35.2999 34.9661 34.6322 34.9664 33.9261V28.8245L31.0472 27.4007L30.8995 27.3468L26.8316 28.8245ZM17.729 19.1152C14.1308 19.1152 10.8823 20.1109 8.60242 21.6436C6.32865 23.1725 5.03241 25.179 5.03241 27.27V35.4247H25.2542L25.1015 34.8739C25.0198 34.5798 24.9758 34.2597 24.9758 33.9261V28.1739C24.9726 27.8003 25.2319 27.4233 25.5824 27.2939L25.5834 27.2949L30.1691 25.6356L29.9945 25.2156C29.4774 23.9742 28.502 22.8162 27.1339 21.8371L26.8556 21.6436C24.5757 20.1109 21.3273 19.1153 17.729 19.1152Z" fill="white"/>
<path fill-rule="evenodd" clip-rule="evenodd" d="M17.729 0C21.9877 0.000113115 25.4696 3.48192 25.4697 7.74068C25.4694 11.9993 21.9876 15.4812 17.729 15.4814C13.4703 15.4814 9.98859 11.9993 9.98832 7.74068C9.98841 3.48185 13.4701 0 17.729 0ZM17.729 1.85684C14.4632 1.85684 11.8442 4.47492 11.8442 7.74068C11.8444 11.0063 14.4633 13.6245 17.729 13.6245C20.9946 13.6244 23.6126 11.0063 23.6128 7.74068C23.6127 4.47499 20.9947 1.85696 17.729 1.85684Z" fill="white"/>
</g>
<defs>
<clipPath id="clip0_389_2069">
<rect width="40" height="40" fill="white" transform="translate(-0.000320435)"/>
</clipPath>
</defs>
</svg>
