<svg width="32" height="32" viewBox="0 0 32 32" fill="none" xmlns="http://www.w3.org/2000/svg">
<path d="M24.8 2.39999H7.2C3.23 2.39999 0 5.62959 0 9.59999V17.6C0 21.5704 3.23 24.8 7.2 24.8H9.6V28.8C9.6 29.1236 9.7948 29.4156 10.0936 29.5392C10.1928 29.5804 10.2968 29.6 10.4 29.6C10.6084 29.6 10.8124 29.5188 10.9656 29.3656L15.5312 24.8H24.8C28.77 24.8 32 21.5704 32 17.6V9.59999C32 5.62959 28.77 2.39999 24.8 2.39999ZM30.4 17.6C30.4 20.6876 27.888 23.2 24.8 23.2H15.2C14.988 23.2 14.7844 23.2844 14.6344 23.4344L11.2 26.8688V24C11.2 23.558 10.8416 23.2 10.4 23.2H7.2C4.112 23.2 1.6 20.6876 1.6 17.6V9.59999C1.6 6.51239 4.112 3.99999 7.2 3.99999H24.8C27.888 3.99999 30.4 6.51239 30.4 9.59999V17.6ZM13.1712 16.4244C13.4848 16.7352 13.4872 17.2416 13.1764 17.5556C13.0196 17.7136 12.814 17.7924 12.608 17.7924C12.4044 17.7924 12.2008 17.7152 12.0448 17.5604C10.984 16.5092 10.4 15.1032 10.4 13.6C10.4 10.6188 12.7436 8.18079 15.6848 8.01599L15.4344 7.76559C15.122 7.45319 15.122 6.94679 15.4344 6.63439C15.7468 6.32199 16.2532 6.32199 16.5656 6.63439L18.1656 8.23439C18.478 8.54679 18.478 9.05319 18.1656 9.36559L16.5656 10.9656C16.4092 11.122 16.2048 11.2 16 11.2C15.7952 11.2 15.5908 11.122 15.4344 10.9656C15.122 10.6532 15.122 10.1468 15.4344 9.83439L15.6316 9.63719C13.6008 9.82679 12 11.5208 12 13.6C12 14.6728 12.416 15.6756 13.1712 16.4244ZM19.9556 9.63999C21.016 10.6908 21.6 12.0968 21.6 13.6C21.6 16.5812 19.2564 19.0192 16.3152 19.184L16.5656 19.4344C16.878 19.7468 16.878 20.2532 16.5656 20.5656C16.4092 20.722 16.2048 20.8 16 20.8C15.7952 20.8 15.5908 20.722 15.4344 20.5656L13.8344 18.9656C13.522 18.6532 13.522 18.1468 13.8344 17.8344L15.4344 16.2344C15.7468 15.922 16.2532 15.922 16.5656 16.2344C16.878 16.5468 16.878 17.0532 16.5656 17.3656L16.3684 17.5628C18.3992 17.3732 20 15.6792 20 13.6C20 12.5272 19.584 11.5244 18.8288 10.7756C18.5152 10.4648 18.5128 9.95839 18.8236 9.64439C19.1348 9.32959 19.6408 9.32799 19.9556 9.63999Z" fill="white"/>
</svg>
