<svg width="33" height="32" viewBox="0 0 33 32" fill="none" xmlns="http://www.w3.org/2000/svg">
<g clip-path="url(#clip0_456_1494)">
<path d="M0.278015 31.5831L4.4474 22.0977C3.19658 19.9088 2.57117 17.4072 2.57117 14.9056C2.57117 6.77526 9.24218 0.104248 17.3725 0.104248C25.607 0.104248 32.1738 6.67102 32.1738 14.9056C32.1738 16.7818 31.7568 18.7622 31.0272 20.5342L30.4018 21.9935L29.7764 20.5342C28.6298 18.5538 26.5451 17.4072 24.252 17.4072C20.708 17.4072 17.7894 20.3257 17.7894 23.8697C17.7894 25.5375 18.4148 27.101 19.5614 28.2476L20.6037 29.3942L19.0402 29.6026C18.4148 29.7069 17.7894 29.7069 17.2682 29.7069C14.6624 29.7069 12.1608 28.9772 9.97183 27.7264L0.278015 31.5831ZM17.3725 1.66777C10.0761 1.66777 4.13469 7.60913 4.13469 14.9056C4.13469 17.3029 4.7601 19.5961 6.01091 21.5766L6.21938 21.8893L3.19658 28.6645L10.1803 25.9544L10.493 26.1629C12.5777 27.4137 14.9751 28.1433 17.3725 28.1433H17.4767C16.6428 26.8925 16.2259 25.4332 16.2259 23.8697C16.2259 19.4919 19.7699 15.8437 24.252 15.8437C26.5451 15.8437 28.6298 16.7818 30.1933 18.4495C30.506 17.3029 30.7145 16.0521 30.7145 14.8013C30.6103 7.60913 24.6689 1.66777 17.3725 1.66777Z" fill="white"/>
<path d="M19.482 29.2863L20.7661 30.1783L28.9724 18.3644L27.6883 17.4724L19.482 29.2863Z" fill="white"/>
<path d="M24.252 31.8957C19.8741 31.8957 16.2259 28.3518 16.2259 23.8697C16.2259 19.4918 19.7699 15.8436 24.252 15.8436C28.6298 15.8436 32.278 19.3876 32.278 23.8697C32.1738 28.2475 28.6298 31.8957 24.252 31.8957ZM24.252 17.4071C20.708 17.4071 17.7894 20.3257 17.7894 23.8697C17.7894 27.4137 20.708 30.3322 24.252 30.3322C27.7959 30.3322 30.7145 27.4137 30.7145 23.8697C30.6103 20.3257 27.7959 17.4071 24.252 17.4071Z" fill="white"/>
</g>
<defs>
<clipPath id="clip0_456_1494">
<rect width="32" height="32" fill="white" transform="translate(0.278015)"/>
</clipPath>
</defs>
</svg>
