<svg width="33" height="32" viewBox="0 0 33 32" fill="none" xmlns="http://www.w3.org/2000/svg">
<g clip-path="url(#clip0_456_1496)">
<path fill-rule="evenodd" clip-rule="evenodd" d="M20.7532 18.1513C20.9551 18.1514 21.149 18.2317 21.2918 18.3745C21.4345 18.5173 21.515 18.7112 21.515 18.9131C21.515 19.1149 21.4344 19.3089 21.2918 19.4517C21.1491 19.5944 20.9551 19.6748 20.7532 19.6749H8.82771C8.6257 19.6749 8.43195 19.5945 8.28908 19.4517C8.14627 19.3089 8.06593 19.1151 8.06586 18.9131C8.06593 18.7112 8.14633 18.5173 8.28908 18.3745C8.43194 18.2317 8.62574 18.1513 8.82771 18.1513H20.7532Z" fill="white"/>
<path fill-rule="evenodd" clip-rule="evenodd" d="M22.0779 14.1761C22.2799 14.1761 22.4737 14.2565 22.6166 14.3993C22.7593 14.5421 22.8397 14.736 22.8398 14.9379C22.8397 15.1398 22.7592 15.3338 22.6166 15.4766C22.4737 15.6193 22.2799 15.6997 22.0779 15.6998H7.50297C7.30096 15.6998 7.10625 15.6194 6.96338 15.4766C6.82081 15.3338 6.74023 15.1397 6.74016 14.9379C6.74025 14.7361 6.8207 14.5421 6.96338 14.3993C7.10626 14.2564 7.30091 14.1761 7.50297 14.1761H22.0779ZM22.0779 15.6008L22.176 15.593C22.1829 15.592 22.1895 15.5894 22.1963 15.5882L22.0779 15.6008ZM7.26326 15.5542C7.29892 15.5681 7.33522 15.5806 7.37293 15.5882L7.50297 15.6008C7.42015 15.6008 7.339 15.5836 7.26326 15.5542ZM22.5467 15.4067L22.6107 15.332C22.6151 15.3261 22.6183 15.3195 22.6224 15.3135C22.5998 15.3463 22.5752 15.3781 22.5467 15.4067ZM22.7408 14.9379L22.733 14.8399C22.732 14.833 22.7294 14.8264 22.7282 14.8195C22.7353 14.8584 22.7408 14.8979 22.7408 14.9379Z" fill="white"/>
<path fill-rule="evenodd" clip-rule="evenodd" d="M25.3902 9.82631C25.5923 9.82631 25.786 9.90664 25.9289 10.0495C26.0716 10.1924 26.1521 10.3862 26.1521 10.5882C26.152 10.79 26.0716 10.984 25.9289 11.1268C25.786 11.2695 25.5922 11.35 25.3902 11.35C25.1883 11.35 24.9945 11.2695 24.8516 11.1268C24.7089 10.984 24.6285 10.79 24.6284 10.5882C24.6284 10.3862 24.7089 10.1924 24.8516 10.0495C24.9945 9.90667 25.1882 9.82634 25.3902 9.82631ZM25.859 11.0559C25.7985 11.1165 25.7266 11.1628 25.6494 11.1957C25.687 11.1798 25.7239 11.1621 25.7581 11.1394L25.859 11.0559ZM26.0531 10.5882L26.0453 10.4901C26.0446 10.4852 26.0423 10.4805 26.0415 10.4756C26.0478 10.5125 26.0531 10.5502 26.0531 10.5882Z" fill="white"/>
<path fill-rule="evenodd" clip-rule="evenodd" d="M25.3902 3.42392C25.5922 3.42392 25.786 3.50349 25.9289 3.64617C26.0717 3.78904 26.1521 3.98375 26.1521 4.18576V8.35406C26.152 8.55604 26.0717 8.75083 25.9289 8.89366C25.786 9.03627 25.5921 9.11687 25.3902 9.11687C25.1884 9.11684 24.9944 9.03632 24.8516 8.89366C24.7088 8.75083 24.6285 8.55604 24.6284 8.35406V4.18576C24.6284 3.98376 24.7088 3.78904 24.8516 3.64617C24.9945 3.50345 25.1883 3.42395 25.3902 3.42392ZM25.3902 9.01691L25.4883 9.00915C25.4929 9.00845 25.4972 9.00606 25.5019 9.00527C25.4652 9.01155 25.428 9.01691 25.3902 9.01691ZM25.859 8.82281L25.9231 8.74808C25.9268 8.74297 25.9291 8.7368 25.9328 8.73158C25.9105 8.76357 25.8869 8.79488 25.859 8.82281ZM24.74 8.48411C24.7476 8.52179 24.7601 8.55809 24.774 8.59377C24.7445 8.51799 24.7274 8.43694 24.7274 8.35406L24.74 8.48411ZM25.859 3.71701L25.7843 3.65296C25.7802 3.64991 25.7758 3.64717 25.7717 3.64423C25.8024 3.6659 25.832 3.69006 25.859 3.71701Z" fill="white"/>
<path fill-rule="evenodd" clip-rule="evenodd" d="M25.3902 0C29.4621 0 32.7776 3.31466 32.7777 7.38647C32.7776 10.3869 30.9766 12.9736 28.4007 14.1285C28.463 14.6557 28.4968 15.1915 28.4968 15.7357C28.4965 23.3921 22.285 29.6125 14.6381 29.6129C14.6361 29.6129 14.6333 29.6129 14.6313 29.6129C13.1791 29.6027 11.7537 29.3133 10.3815 28.8568L4.26248 31.9178C4.1464 31.9761 4.01764 32.0049 3.88786 31.9993C3.75799 31.9936 3.63165 31.954 3.52101 31.8858C3.41039 31.8175 3.31841 31.7217 3.2551 31.6082C3.19204 31.4949 3.15901 31.3671 3.15902 31.2375V23.3939C1.64171 21.1259 0.788299 18.4749 0.778383 15.7386C0.778381 15.7377 0.778381 15.7358 0.778383 15.7347C0.778739 8.07822 6.99007 1.85581 14.6371 1.8556C16.3928 1.8556 18.0715 2.18763 19.6177 2.7863C20.9723 1.09008 23.0561 3.54847e-05 25.3902 0ZM4.14019 31.8625C4.13449 31.8645 4.12848 31.8655 4.12272 31.8673C4.1555 31.8569 4.18791 31.845 4.2188 31.8295L4.14019 31.8625ZM14.6371 3.37928C7.92454 3.37949 2.47598 8.73042 2.30595 15.4135L2.30207 15.7328C2.31126 18.2605 3.09482 20.7242 4.54586 22.7922C4.63504 22.9203 4.68298 23.0738 4.6827 23.2299V30.004L9.9166 27.3826C10.0097 27.3362 10.1116 27.3097 10.2155 27.304C10.3194 27.2984 10.4237 27.3136 10.5212 27.3496C11.8432 27.8303 13.2364 28.0793 14.6429 28.0892C21.4604 28.0861 26.9728 22.5659 26.9731 15.7357C26.9731 15.3572 26.948 14.9832 26.9139 14.6118C26.422 14.7156 25.9124 14.7739 25.3902 14.7739C21.3185 14.7739 18.0039 11.4582 18.0038 7.38647C18.0038 6.20447 18.2859 5.08742 18.7821 4.09551C17.487 3.63349 16.092 3.37928 14.6371 3.37928ZM13.5987 29.4585C13.7617 29.4741 13.925 29.4875 14.0888 29.4964L14.6323 29.5139C14.2862 29.5114 13.9416 29.4914 13.5987 29.4585ZM15.5659 28.1532C15.365 28.168 15.1628 28.1791 14.9593 28.1843L14.6429 28.1882C14.9534 28.188 15.2612 28.1757 15.5659 28.1532ZM27.0517 16.449C27.0531 16.4247 27.0554 16.4005 27.0566 16.3762V16.3714C27.0553 16.3973 27.0532 16.4231 27.0517 16.449ZM24.6633 14.6371C24.7839 14.6491 24.9051 14.6592 25.0273 14.6652L25.3902 14.674C25.1449 14.6739 24.9025 14.6609 24.6633 14.6371ZM25.3902 1.52368C22.1443 1.52375 19.5276 4.14057 19.5275 7.38647C19.5276 10.6323 22.1444 13.2502 25.3902 13.2502C28.6362 13.2502 31.2539 10.6324 31.254 7.38647C31.2539 4.14053 28.6362 1.52368 25.3902 1.52368Z" fill="white"/>
</g>
<defs>
<clipPath id="clip0_456_1496">
<rect width="32" height="32" fill="white" transform="translate(0.778015)"/>
</clipPath>
</defs>
</svg>
