<svg width="33" height="32" viewBox="0 0 33 32" fill="none" xmlns="http://www.w3.org/2000/svg">
<g clip-path="url(#clip0_456_1498)">
<path fill-rule="evenodd" clip-rule="evenodd" d="M21.0227 3.8909C23.1478 3.89115 24.8719 5.61632 24.8721 7.74135V14.2142C27.5039 15.0428 29.4121 17.5031 29.4121 20.4086C29.4121 21.6107 29.0838 22.7355 28.5143 23.7011L31.986 26.6493C32.3346 26.9457 32.3772 27.4682 32.0809 27.817C31.7846 28.1658 31.2621 28.2082 30.9133 27.912L27.4977 25.0112C26.3238 26.1788 24.7064 26.9008 22.9199 26.9008C19.5736 26.9008 16.8193 24.369 16.4665 21.1165H11.0394L6.38931 25.7331C6.23358 25.8889 6.02184 25.9705 5.81735 25.9706C5.70812 25.9705 5.60228 25.9452 5.50763 25.9058L5.50548 25.9047C5.20822 25.7762 5.00259 25.4848 5.00259 25.1547V21.1165H4.12846C2.00319 21.1165 0.278108 19.3924 0.278015 17.2671V7.74135C0.278198 5.61617 2.00324 3.8909 4.12846 3.8909H21.0227ZM22.9199 15.5739C20.2498 15.5739 18.0853 17.7385 18.0853 20.4086C18.0853 23.0787 20.2498 25.2432 22.9199 25.2432C25.59 25.2432 27.7546 23.0787 27.7546 20.4086C27.7546 18.1199 26.1641 16.2034 24.0282 15.7023C23.9375 15.6991 23.8513 15.6802 23.7703 15.6494C23.4942 15.6004 23.2101 15.5739 22.9199 15.5739ZM4.12846 5.52259C2.9076 5.52259 1.90989 6.52048 1.90971 7.74135V17.2671C1.9098 18.488 2.9075 19.4859 4.12846 19.4859H5.81735C6.26601 19.4861 6.63302 19.8531 6.6332 20.3017V23.196L10.1329 19.7222C10.2878 19.5679 10.4923 19.486 10.7038 19.4859H16.4935C16.9415 16.3374 19.6476 13.9163 22.9199 13.9163C23.0277 13.9163 23.135 13.9187 23.2415 13.9239V7.74135C23.2413 6.52068 22.2434 5.52285 21.0227 5.52259H4.12846ZM3.88565 5.36935C3.87529 5.37041 3.86468 5.37248 3.85436 5.37367C3.86839 5.37205 3.88234 5.36964 3.89645 5.36827L3.88565 5.36935ZM3.93853 4.06141C3.91651 4.06253 3.89463 4.06529 3.8727 4.0668C3.95725 4.06099 4.04249 4.05709 4.12846 4.05709L3.93853 4.06141ZM21.2742 4.06572C21.2534 4.06431 21.2325 4.06247 21.2116 4.06141L21.0227 4.05709C21.1073 4.0571 21.1911 4.06006 21.2742 4.06572Z" fill="white"/>
</g>
<defs>
<clipPath id="clip0_456_1498">
<rect width="32" height="32" fill="white" transform="translate(0.278015)"/>
</clipPath>
</defs>
</svg>
