<svg width="33" height="32" viewBox="0 0 33 32" fill="none" xmlns="http://www.w3.org/2000/svg">
<g clip-path="url(#clip0_482_2507)">
<path fill-rule="evenodd" clip-rule="evenodd" d="M16.2217 4.11195C19.1761 4.11195 21.6005 6.65759 21.6007 9.82079C21.6007 11.259 21.0983 12.5732 20.2764 13.5727C19.4752 14.5485 19.0371 15.7726 19.037 17.0352V17.0381L19.0361 17.0892C19.029 17.5165 18.8159 17.8916 18.495 18.1251V18.67C18.495 19.67 17.6837 20.4804 16.6837 20.4804H15.7597C14.7597 20.4804 13.9484 19.6701 13.9484 18.67V18.1251C13.6217 17.8874 13.4073 17.5035 13.4073 17.068V17.0352C13.4073 15.7725 12.9692 14.5484 12.1689 13.5736C11.3457 12.5737 10.8427 11.2594 10.8427 9.82079C10.8429 6.65759 13.2672 4.11195 16.2217 4.11195ZM17.0386 19.025C16.9932 19.0704 16.9395 19.1075 16.8795 19.133L16.9653 19.0867C16.9919 19.0687 17.016 19.0475 17.0386 19.025ZM15.4549 18.67C15.4549 18.8382 15.5915 18.9748 15.7597 18.9748H16.6837C16.8519 18.9748 16.9885 18.8382 16.9885 18.67V18.3768H15.4549V18.67ZM15.2668 18.7713C15.2735 18.8041 15.284 18.8357 15.2967 18.8658C15.2712 18.8057 15.2572 18.7394 15.2572 18.67L15.2668 18.7713ZM16.2217 5.61849C14.0984 5.61849 12.3485 7.48679 12.3483 9.82079C12.3483 10.8957 12.7214 11.8752 13.3321 12.6169L13.5182 12.8541C14.3894 14.0141 14.8758 15.4187 14.91 16.8712H17.5344C17.5709 15.3183 18.1245 13.8198 19.1123 12.6169C19.7224 11.8749 20.0951 10.8955 20.0951 9.82079C20.0949 7.48679 18.345 5.61849 16.2217 5.61849ZM20.1231 13.4483C20.1728 13.3877 20.2214 13.326 20.2687 13.2631L20.1231 13.4483ZM11.6075 12.3275C11.3505 11.7933 11.1709 11.2084 11.0896 10.5895C11.1116 10.757 11.1406 10.922 11.1764 11.0843C11.2123 11.2466 11.2547 11.4063 11.3037 11.5627C11.3867 11.8275 11.4896 12.0826 11.6075 12.3275ZM12.7485 12.1163C12.7599 12.1363 12.7726 12.1554 12.7842 12.1751C12.7402 12.1002 12.6968 12.0245 12.6569 11.9465L12.7485 12.1163ZM21.3962 10.0957C21.3924 10.1765 21.3878 10.2569 21.3808 10.3368C21.3436 10.7615 21.261 11.1719 21.1387 11.5627C21.1875 11.4066 21.2312 11.2473 21.267 11.0852C21.3029 10.9227 21.3317 10.7573 21.3538 10.5895C21.3751 10.4271 21.3885 10.2623 21.3962 10.0957ZM20.1915 10.7959C20.1748 10.8758 20.1563 10.955 20.1356 11.0332L20.1829 10.8393C20.186 10.8249 20.1885 10.8103 20.1915 10.7959ZM12.3955 6.10749C12.2836 6.23763 12.1772 6.3733 12.0772 6.5145L12.2316 6.30714C12.2847 6.23912 12.3395 6.17267 12.3955 6.10749ZM20.0478 6.10749C20.1597 6.23763 20.2662 6.37329 20.3661 6.5145L20.2118 6.30617C20.1588 6.23837 20.1037 6.17248 20.0478 6.10749ZM12.7476 5.73423C12.686 5.79337 12.626 5.85432 12.5672 5.91652C12.6849 5.79205 12.8082 5.67361 12.9366 5.56158L12.7476 5.73423ZM19.6948 5.73423C19.7565 5.79353 19.8172 5.85415 19.8762 5.91652C19.7584 5.79205 19.6351 5.67361 19.5067 5.56158L19.6948 5.73423ZM16.486 4.31738C16.6612 4.32683 16.8343 4.34564 17.0048 4.37333C16.7491 4.33182 16.4875 4.30967 16.2217 4.30967C16.3103 4.30967 16.3984 4.31266 16.486 4.31738Z" fill="white"/>
<path fill-rule="evenodd" clip-rule="evenodd" d="M23.3821 0.198029C25.7263 0.198029 27.9753 1.12909 29.633 2.78673C31.2906 4.44438 32.2217 6.69341 32.2217 9.03762V15.3454C32.2217 17.6895 31.2904 19.9377 29.633 21.5953C28.1533 23.075 26.2025 23.9744 24.1334 24.1503L17.165 31.4004C16.7949 31.7853 16.228 31.9066 15.7327 31.7071C15.2376 31.5076 14.9129 31.0276 14.9129 30.4938V24.184H9.06127C6.71697 24.184 4.46804 23.253 2.81038 21.5953C1.15297 19.9377 0.221707 17.6895 0.22168 15.3454V9.03762C0.221696 6.69342 1.15276 4.44437 2.81038 2.78673C4.46804 1.12909 6.71699 0.198029 9.06127 0.198029H23.3821ZM16.7589 31.466C16.6564 31.5226 16.5458 31.5607 16.4319 31.5827C16.5994 31.5505 16.7594 31.4814 16.8978 31.3753L16.7589 31.466ZM9.06127 1.70457C7.11645 1.70457 5.25132 2.47734 3.87615 3.8525C2.50094 5.22772 1.72824 7.09283 1.72822 9.03762V15.3454C1.72825 17.2902 2.50096 19.1554 3.87615 20.5305C5.25131 21.9056 7.11651 22.6785 9.06127 22.6785H16.4194V30.0019L23.4043 22.7373L23.4602 22.6785L23.5422 22.6765C25.429 22.6354 27.2297 21.8679 28.5672 20.5305C29.9423 19.1554 30.7151 17.2902 30.7151 15.3454V9.03762C30.7151 7.09281 29.9424 5.22773 28.5672 3.8525C27.192 2.47734 25.3269 1.70457 23.3821 1.70457H9.06127ZM29.2125 21.7236C29.1591 21.7724 29.1039 21.819 29.0495 21.8664C29.2012 21.7345 29.3501 21.5985 29.4931 21.4555L29.2125 21.7236ZM4.00636 20.9279C4.08882 21.0026 4.17368 21.0742 4.25905 21.1449C4.07844 20.9954 3.9035 20.8376 3.7363 20.6704L4.00636 20.9279Z" fill="white"/>
</g>
<defs>
<clipPath id="clip0_482_2507">
<rect width="32" height="32" fill="white" transform="translate(0.22168)"/>
</clipPath>
</defs>
</svg>
