<svg width="33" height="32" viewBox="0 0 33 32" fill="none" xmlns="http://www.w3.org/2000/svg">
<g clip-path="url(#clip0_482_2509)">
<path fill-rule="evenodd" clip-rule="evenodd" d="M28.6003 1.64175C30.7384 1.64205 32.5 3.40571 32.5 5.54441V20.6029C32.4998 22.7415 30.7383 24.5043 28.6003 24.5046H16.6577L16.5529 24.6104L11.605 29.5674C10.786 30.3888 9.57696 30.5431 8.64277 30.1564C7.70898 29.7697 6.96253 28.8031 6.9635 27.6425V24.5046H4.38968C2.25266 24.5045 0.500221 22.7427 0.5 20.6029V5.54441C0.5 3.40448 2.25253 1.64185 4.38968 1.64175H28.6003ZM4.38968 3.51671C3.24104 3.5168 2.37196 4.40148 2.37196 5.54441V20.6029C2.37216 21.745 3.24048 22.6336 4.38968 22.6336H7.89798C8.02138 22.6332 8.14428 22.6565 8.25839 22.7035C8.37245 22.7506 8.47666 22.82 8.5639 22.9072C8.65108 22.9945 8.72058 23.0986 8.76757 23.2127C8.81449 23.3268 8.83792 23.4498 8.83745 23.5731V27.6415C8.83728 27.8254 8.87483 28.003 8.98322 28.1537C9.08976 28.3015 9.23432 28.3804 9.35461 28.4302C9.4746 28.4798 9.63221 28.526 9.81187 28.4971C9.99524 28.4675 10.1468 28.3682 10.2771 28.2375L15.6065 22.9092C15.6934 22.8218 15.7971 22.7529 15.911 22.7055C16.0248 22.6582 16.1471 22.6337 16.2704 22.6336H28.6003C29.7465 22.6334 30.6278 21.7477 30.628 20.6029V5.54441C30.628 4.39873 29.7459 3.51699 28.6003 3.51671H4.38968Z" fill="white"/>
<path d="M5.28418 18.16H18.3467" stroke="white" stroke-width="1.5" stroke-linecap="round"/>
<path d="M21.6592 18.16H27.8467" stroke="white" stroke-width="1.5" stroke-linecap="round"/>
<path d="M5.28418 14.3293H13.2217" stroke="white" stroke-width="1.5" stroke-linecap="round"/>
<path d="M15.9219 14.3293H16.0219" stroke="white" stroke-width="1.5" stroke-linecap="round"/>
<path d="M18.7217 14.3293H18.8217" stroke="white" stroke-width="1.5" stroke-linecap="round"/>
<path d="M21.5591 14.3293H21.6591" stroke="white" stroke-width="1.5" stroke-linecap="round"/>
<path d="M20.0098 6.86051C20.9603 6.60967 22.3928 6.49604 23.0093 7.19717C23.9858 8.3078 22.0064 9.61017 21.4773 10.9912C21.3274 11.3824 21.3459 11.7048 21.416 11.8918" stroke="white" stroke-width="1.5" stroke-linecap="round"/>
</g>
<defs>
<clipPath id="clip0_482_2509">
<rect width="32" height="32" fill="white" transform="translate(0.5)"/>
</clipPath>
</defs>
</svg>
