<svg width="33" height="32" viewBox="0 0 33 32" fill="none" xmlns="http://www.w3.org/2000/svg">
<g clip-path="url(#clip0_482_2529)">
<path fill-rule="evenodd" clip-rule="evenodd" d="M19.4304 0C20.7241 0.000104077 21.7936 0.97572 21.9355 2.23463L21.9515 2.49005V4.83486C21.9565 5.18688 22.1451 5.50848 22.4463 5.68624L22.4503 5.68925C22.7581 5.86539 23.1361 5.86533 23.4439 5.68925L23.4479 5.68724L25.4512 4.51434C26.0279 4.1797 26.7146 4.08877 27.3593 4.25992L27.5957 4.33605C28.1378 4.54033 28.5961 4.92744 28.8868 5.43283L31.8175 10.5201L31.8205 10.5251C32.1185 11.0235 32.2251 11.6108 32.126 12.1778L32.071 12.4192L32.068 12.4292C31.9035 13.0753 31.4834 13.6259 30.9041 13.9547L30.8991 13.9577L28.8948 15.1306C28.5847 15.3051 28.3921 15.6325 28.392 15.988C28.392 16.3434 28.5848 16.6718 28.8948 16.8464L30.8991 18.0183L30.9041 18.0213C31.4793 18.3466 31.8996 18.8894 32.069 19.5277L32.071 19.5347C32.2512 20.1735 32.1609 20.8584 31.8205 21.4278L31.8175 21.4338L28.8868 26.5211C28.5973 27.0252 28.1417 27.4099 27.6027 27.6129L27.3663 27.689C26.7204 27.86 26.0335 27.7696 25.4522 27.4376L23.4479 26.2657L23.4439 26.2637C23.1361 26.0876 22.7581 26.0875 22.4503 26.2637L22.4443 26.2677C22.1387 26.4501 21.9515 26.7806 21.9515 27.1361V29.4799C21.9515 30.1475 21.6849 30.7892 21.2123 31.2618C20.7398 31.7343 20.0979 31.9999 19.4304 32H13.5699C12.2797 32 11.212 31.0301 11.0658 29.7754L11.0498 29.521V27.1822C11.0496 26.8271 10.8622 26.4972 10.557 26.3148L10.55 26.3108C10.2421 26.1345 9.86427 26.1345 9.55637 26.3108L9.55336 26.3128L7.55211 27.4827C6.97013 27.8159 6.28002 27.9065 5.63299 27.7351C4.99199 27.5638 4.44521 27.1438 4.11453 26.5682L4.11353 26.5672L1.18376 21.4799L1.17976 21.4749L1.06457 21.2555C0.821763 20.7342 0.772547 20.1398 0.930353 19.5808L0.932356 19.5708C1.09678 18.9244 1.51759 18.3741 2.09725 18.0453L2.10226 18.0423L4.10651 16.8704L4.10551 16.8684C4.41544 16.6939 4.60818 16.3674 4.60833 16.012C4.60833 15.6563 4.4169 15.3282 4.10651 15.1536L2.10226 13.9817L2.09725 13.9787L1.88691 13.8455C1.41595 13.511 1.07625 13.0177 0.932356 12.4522L0.929351 12.4422L0.874262 12.2008C0.775379 11.6341 0.882035 11.0474 1.17976 10.5491L1.18376 10.5431L4.11152 5.45787L4.11252 5.45887C4.44714 4.89056 4.99423 4.47805 5.63199 4.31201L5.634 4.31101C6.27977 4.13996 6.96787 4.23066 7.54911 4.56241L9.55336 5.73432L9.55637 5.73632C9.86421 5.91242 10.2422 5.91245 10.55 5.73632L10.557 5.73232C10.8624 5.54986 11.0498 5.21924 11.0498 4.8639V2.5201C11.0498 1.12758 12.1774 0 13.5699 0H19.4304ZM13.5699 1.48842C13.0195 1.48842 12.5733 1.93464 12.5733 2.48504V4.82985C12.5744 5.73117 12.0957 6.56556 11.3162 7.0164C10.536 7.46765 9.57263 7.46811 8.79313 7.0174L6.79088 5.8465L6.78787 5.8455L6.70073 5.80043C6.4929 5.70642 6.25661 5.68497 6.03064 5.74634L6.02363 5.74834C5.80888 5.81069 5.62098 5.94191 5.48876 6.11995L5.43567 6.19907L5.43067 6.20709L2.4999 11.2944C2.22867 11.7672 2.38787 12.3726 2.85949 12.6496L4.86475 13.8225L4.86875 13.8245C5.6479 14.2675 6.12938 15.0962 6.1268 15.991C6.10789 16.8713 5.62914 17.6786 4.86675 18.1184L4.86475 18.1194L2.85949 19.2924C2.38798 19.5693 2.22892 20.1738 2.4999 20.6466L2.5009 20.6476L5.43067 25.7348L5.43567 25.7428C5.55146 25.9335 5.7271 26.081 5.93348 26.1625L6.02363 26.1936C6.25529 26.2771 6.5113 26.2727 6.73979 26.1785L6.76584 26.1675L6.79088 26.1535L8.79613 24.9816C9.57198 24.5265 10.5354 24.5264 11.3112 24.9816L11.3152 24.9836C12.0981 25.432 12.5796 26.2666 12.5733 27.1681V29.515C12.5733 30.0653 13.0195 30.5116 13.5699 30.5116H19.4314C19.6946 30.5114 19.9484 30.4072 20.1356 30.2201C20.3228 30.0329 20.427 29.7784 20.427 29.515V27.1772C20.4396 26.2823 20.9259 25.4616 21.7031 25.0207C22.4795 24.5791 23.4321 24.5829 24.2052 25.0287L26.2345 26.2146L26.2605 26.2256C26.4889 26.3197 26.7451 26.324 26.9767 26.2406C27.2219 26.1695 27.4333 26.0078 27.5656 25.7899L27.5696 25.7819L30.5004 20.6946L30.5034 20.6886C30.7631 20.2192 30.6032 19.6285 30.1458 19.3524L30.1408 19.3504L28.1366 18.1775L28.1326 18.1755L27.9893 18.0874C27.2928 17.6269 26.8698 16.8423 26.8745 16.001C26.8758 15.1029 27.3555 14.2735 28.1346 13.8235L28.1366 13.8225L30.1418 12.6496C30.6132 12.3725 30.7715 11.767 30.5004 11.2944L27.5696 6.20709L27.5646 6.19907L27.5115 6.11995C27.3981 5.96728 27.244 5.8483 27.0668 5.77839L26.9707 5.74634L26.8725 5.7253C26.6443 5.68744 26.4114 5.73093 26.2124 5.8455L26.2104 5.8465L24.2072 7.0174C23.4278 7.4681 22.4653 7.46736 21.6851 7.0164C20.9056 6.56557 20.4259 5.73124 20.427 4.82985V2.48504C20.427 2.22162 20.3228 1.96717 20.1356 1.77989C19.9485 1.59286 19.6946 1.4886 19.4314 1.48842H13.5699Z" fill="white"/>
<path d="M25.8786 16.6049L28.016 16.4697L27.9485 15.1182L25.1691 15.2872L21.7903 15.3885C21.52 15.3885 21.2497 15.5575 21.1484 15.794L18.6481 21.0649L17.4655 5.82663C17.4317 5.45496 17.1614 5.18466 16.7897 5.15088C16.4181 5.11709 16.0802 5.3536 16.0126 5.72527L13.242 18.1253L11.7216 13.7329C11.6202 13.4626 11.3499 13.2599 11.0458 13.2261C10.7418 13.2261 10.4715 13.3951 10.3701 13.6654L9.05237 16.7063L5.13301 16.5035L5.06543 17.855L9.42404 18.0915C9.72813 18.1253 9.99843 17.9226 10.1336 17.6523L11.0121 15.6588L12.7352 20.5918C12.8366 20.8959 13.1407 21.0987 13.4786 21.0987C13.8164 21.0649 14.0867 20.8621 14.1543 20.5243L16.4857 10.0501L17.5331 23.4976C17.5669 23.8355 17.8034 24.1058 18.1413 24.1733C18.175 24.1733 18.2426 24.1733 18.2764 24.1733C18.5467 24.1733 18.817 24.0044 18.9522 23.7679L22.2971 16.74L25.2367 16.6387H25.338L25.8786 16.6049Z" fill="white"/>
</g>
<defs>
<clipPath id="clip0_482_2529">
<rect width="32" height="32" fill="white" transform="translate(0.5)"/>
</clipPath>
</defs>
</svg>
