<svg width="32" height="32" viewBox="0 0 32 32" fill="none" xmlns="http://www.w3.org/2000/svg">
<g clip-path="url(#clip0_482_2532)">
<path fill-rule="evenodd" clip-rule="evenodd" d="M16 4.06349C20.9005 4.06349 24.8889 8.05188 24.8889 12.9524C24.8889 17.8529 20.9005 21.8413 16 21.8413C11.0995 21.8413 7.11111 17.8529 7.11111 12.9524C7.11111 8.05188 11.0995 4.06349 16 4.06349ZM16 5.5873C11.9385 5.5873 8.63492 8.89085 8.63492 12.9524C8.63492 17.0139 11.9385 20.3175 16 20.3175C20.0615 20.3175 23.3651 17.0139 23.3651 12.9524C23.3651 8.89085 20.0615 5.5873 16 5.5873Z" fill="white"/>
<path fill-rule="evenodd" clip-rule="evenodd" d="M28.1905 0C30.2912 0 32 1.70877 32 3.80952V22.0952C32 24.196 30.2912 25.9048 28.1905 25.9048H14.4474L14.377 25.9633L7.34425 31.8234L7.34325 31.8244C7.20643 31.9402 7.03368 32 6.85714 32C6.74799 32 6.63572 31.9752 6.53274 31.9276C6.26478 31.8002 6.09524 31.5326 6.09524 31.2381V25.9048H3.80952C1.70877 25.9048 0 24.196 0 22.0952V3.80952C0 1.70877 1.70877 0 3.80952 0H28.1905ZM3.80952 1.52381C2.54977 1.52381 1.52381 2.54977 1.52381 3.80952V22.0952C1.52381 23.3572 2.54993 24.381 3.80952 24.381H6.85714C7.27764 24.381 7.61905 24.7224 7.61905 25.1429V29.6121L13.6835 24.5595L13.6855 24.5585C13.8223 24.4432 13.9938 24.381 14.1716 24.381H28.1905C29.4523 24.381 30.4762 23.357 30.4762 22.0952V3.80952C30.4762 2.54993 29.4524 1.52381 28.1905 1.52381H3.80952Z" fill="white"/>
<path d="M19.4124 14.3076C19.1151 14.6049 18.6323 14.6049 18.3349 14.3076L16.0004 11.973L13.6658 14.3076C13.3684 14.6049 12.8856 14.6049 12.5883 14.3076C12.2909 14.0102 12.2909 13.5274 12.5883 13.2301L15.4616 10.3568C15.7589 10.0594 16.2418 10.0594 16.5391 10.3568L19.4124 13.2301C19.7098 13.5274 19.7098 14.0102 19.4124 14.3076Z" fill="white"/>
</g>
<defs>
<clipPath id="clip0_482_2532">
<rect width="32" height="32" fill="white"/>
</clipPath>
</defs>
</svg>
