<svg width="33" height="32" viewBox="0 0 33 32" fill="none" xmlns="http://www.w3.org/2000/svg">
<g clip-path="url(#clip0_482_2536)">
<path fill-rule="evenodd" clip-rule="evenodd" d="M13.288 13.1782C13.6351 13.1782 13.9167 13.4598 13.9169 13.807C13.9169 15.905 12.2103 17.6114 10.1126 17.6114C9.76548 17.6112 9.48447 17.3297 9.48447 16.9825C9.48475 16.6356 9.76565 16.3546 10.1126 16.3544C11.5158 16.3544 12.6599 15.2115 12.6599 13.807C12.6602 13.4601 12.9411 13.1784 13.288 13.1782ZM9.58385 16.9825L9.59394 17.0897C9.60019 17.1202 9.60985 17.1498 9.62112 17.1782C9.59718 17.1178 9.58388 17.0514 9.58385 16.9825ZM10.1126 16.4538L10.0062 16.4639C9.97279 16.4707 9.94072 16.4813 9.90994 16.4942C9.97247 16.4682 10.0406 16.4538 10.1126 16.4538ZM12.7174 14.2675C12.7284 14.2049 12.7388 14.142 12.7453 14.078L12.7298 14.2015C12.7265 14.2236 12.7213 14.2455 12.7174 14.2675ZM13.288 13.2775C13.2151 13.2776 13.1455 13.2927 13.0823 13.3195C13.1456 13.2927 13.2157 13.2783 13.2888 13.2783L13.288 13.2775Z" fill="white"/>
<path fill-rule="evenodd" clip-rule="evenodd" d="M11.993 0.0228882C13.1953 0.0229366 14.3003 0.438557 15.1778 1.13003C15.1889 1.1276 15.2028 1.12389 15.2182 1.12382H20.0241C20.3712 1.12382 20.6528 1.40558 20.653 1.7527V4.78065C21.6107 5.03966 22.532 5.42283 23.4037 5.92429L25.5497 3.7791L25.5978 3.73562C25.8452 3.53523 26.2088 3.54965 26.4387 3.7791L29.837 7.17662C30.0815 7.42288 30.082 7.82108 29.837 8.06637L27.6925 10.21C28.192 11.074 28.5748 11.9984 28.8362 12.9685H31.8975L31.9014 12.9701C32.2345 12.9858 32.4997 13.2605 32.5 13.5974V18.4033C32.5 18.7506 32.2184 19.0322 31.8711 19.0322H28.837C28.5756 20.0008 28.1925 20.9254 27.6933 21.7892L29.8377 23.9336C30.0825 24.1799 30.083 24.578 29.8377 24.8234L26.4402 28.2209C26.1939 28.4657 25.7958 28.4662 25.5505 28.2209L23.4045 26.0749C22.5329 26.5764 21.6122 26.9595 20.6545 27.2185V30.248C20.6544 30.5952 20.3728 30.8761 20.0256 30.8762H15.2197C15.2042 30.8761 15.1905 30.8716 15.1793 30.8692C14.3016 31.5611 13.1966 31.9771 11.9938 31.9771C9.18444 31.9768 6.89447 29.7226 6.84006 26.9305C4.28183 26.6114 2.30998 24.4447 2.30978 21.8241C2.30982 21.2462 2.40534 20.6824 2.59394 20.1432C1.29175 19.1797 0.500021 17.6473 0.5 16.0035C0.500117 14.3599 1.29122 12.819 2.59394 11.8614C2.40544 11.3178 2.30903 10.7534 2.30901 10.1766C2.30919 7.54992 4.29017 5.37652 6.83851 5.06714C6.89523 2.27585 9.18546 0.022992 11.993 0.0228882ZM11.9984 1.28298C9.84906 1.28309 8.09978 3.02865 8.09938 5.17351C8.09938 5.31599 8.10545 5.45867 8.11957 5.59354C8.24983 6.81841 8.96872 7.92286 10.0419 8.54618C10.342 8.72057 10.4445 9.10625 10.2702 9.40643L10.2694 9.40565C10.1529 9.60699 9.94295 9.71844 9.72671 9.71854C9.62017 9.71851 9.51089 9.69227 9.41149 9.63391C8.1691 8.91263 7.292 7.70125 6.97593 6.32335C5.05037 6.5761 3.57329 8.20858 3.57298 10.1789C3.57298 10.7528 3.69826 11.3109 3.94488 11.8404C4.16941 12.3228 4.49827 12.7495 4.89441 13.0951C5.38949 12.1735 6.35436 11.5408 7.47205 11.5407C7.81907 11.5408 8.10057 11.8219 8.10093 12.1689C8.10093 12.5161 7.8193 12.7977 7.47205 12.7977C6.66308 12.7978 5.98593 13.374 5.82842 14.137C5.82727 14.1518 5.82628 14.1686 5.82376 14.1852V14.1867C5.80702 14.2833 5.79428 14.3793 5.79425 14.4755C5.79429 14.8101 5.89301 15.1349 6.07997 15.4119L6.08075 15.4126C6.2737 15.7002 6.19798 16.0899 5.91071 16.2845C5.80271 16.3565 5.67976 16.3916 5.55901 16.3917C5.35675 16.3916 5.15835 16.2938 5.03727 16.1145C4.70856 15.6295 4.53571 15.0611 4.53571 14.474C4.53575 14.4449 4.53968 14.4177 4.5427 14.3963V14.394C4.00434 14.0268 3.53692 13.5565 3.17391 13.0074C2.29136 13.7362 1.76176 14.8354 1.76165 16.005C1.76169 17.1652 2.29016 18.2608 3.17003 18.9934C3.65761 18.251 4.337 17.6351 5.14208 17.2286L5.20109 17.203C5.49784 17.0896 5.83852 17.2153 5.98602 17.5066C6.13173 17.7968 6.03187 18.1468 5.76398 18.3187L5.70807 18.3505C4.93551 18.74 4.31187 19.3793 3.95109 20.1502V20.1525L3.94177 20.1727C3.69664 20.6927 3.57149 21.2474 3.57143 21.8226C3.57143 23.8013 5.06078 25.4387 6.97904 25.6805C7.14522 24.937 7.47413 24.2458 7.95186 23.6425C7.74482 23.2315 7.62504 22.7679 7.625 22.2768C7.62511 21.3595 8.03172 20.4977 8.73835 19.9126C9.00539 19.6928 9.40117 19.7302 9.62267 19.9965L9.62345 19.9973C9.84333 20.2644 9.80546 20.6602 9.53882 20.8816C9.12118 21.2265 8.88132 21.735 8.88121 22.2768C8.88134 23.2617 9.68105 24.0608 10.6646 24.0609C11.0117 24.0609 11.2932 24.3427 11.2935 24.6898C11.2935 25.0371 11.0119 25.3187 10.6646 25.3187C9.95047 25.3187 9.29576 25.0678 8.7764 24.6533C8.41823 25.1779 8.19104 25.7719 8.125 26.4072V26.4088C8.12367 26.4194 8.12087 26.4288 8.11879 26.4352C8.1173 26.4397 8.1152 26.4442 8.11413 26.4468C8.10381 26.5616 8.09805 26.6803 8.09705 26.7993L8.09938 26.8032V26.8319C8.09938 28.977 9.84891 30.7231 11.9984 30.7232C14.1481 30.7231 15.8975 28.9771 15.8975 26.8319V25.8342C15.8972 24.5465 14.8487 23.4996 13.5621 23.4996C13.215 23.4994 12.934 23.2178 12.934 22.8707C12.9342 22.5237 13.2151 22.2421 13.5621 22.2418C14.4545 22.2418 15.2693 22.5693 15.8975 23.1091V8.97398C15.2709 9.50838 14.4607 9.83422 13.573 9.83422C13.2258 9.83412 12.9441 9.55257 12.9441 9.20534C12.9443 8.85831 13.2259 8.57656 13.573 8.57646C14.8261 8.57645 15.8442 7.58208 15.8975 6.34044V5.17351C15.8971 3.02872 14.1478 1.28305 11.9984 1.28298ZM9.31134 29.7853C9.33742 29.809 9.3646 29.8314 9.3913 29.8544C9.316 29.7896 9.24264 29.7227 9.17236 29.6525L9.31134 29.7853ZM19.5062 26.6285C19.5001 26.6606 19.4962 26.6935 19.4961 26.7271L19.4969 26.7279C19.4969 26.6941 19.5 26.6607 19.5062 26.6285ZM16.3214 2.3777C16.8431 3.18265 17.1505 4.13964 17.1506 5.16807V6.17662C17.1511 6.1784 17.1517 6.1808 17.153 6.18516C17.1558 6.19521 17.1614 6.21419 17.1615 6.23717C17.1615 6.30959 17.1543 6.38459 17.1506 6.4468V9.10053C17.3046 9.09003 17.4622 9.08191 17.6227 9.08189C21.4337 9.08189 24.5332 12.1844 24.5334 15.998C24.5334 19.8118 21.434 22.9142 17.6227 22.9142C17.4625 22.9142 17.3051 22.9065 17.1506 22.8956V26.828C17.1506 27.856 16.8454 28.8143 16.323 29.6184H19.3967V26.7271C19.397 26.4332 19.6019 26.1789 19.889 26.1145C21.0433 25.8551 22.1464 25.3973 23.1661 24.7512C23.4157 24.5927 23.7403 24.6291 23.948 24.8381L25.9953 26.8855L28.5039 24.3769L26.4557 22.3296C26.2484 22.122 26.2125 21.7952 26.3711 21.547C27.0118 20.5433 27.47 19.438 27.7321 18.2651C27.7955 17.9776 28.0522 17.7738 28.3455 17.7737H31.2415V14.2224H28.3455C28.0515 14.2223 27.7965 14.0182 27.7321 13.731C27.47 12.5582 27.0118 11.4541 26.3711 10.4491C26.2127 10.2009 26.2468 9.8755 26.4557 9.66652L28.5039 7.61839L25.9953 5.10984L23.9472 7.15876C23.7396 7.36611 23.4162 7.4017 23.1669 7.24494C22.1472 6.59883 21.043 6.13965 19.889 5.88158C19.6011 5.81842 19.3968 5.56251 19.3967 5.26901V2.3777H16.3214ZM6.93711 26.8435C6.93736 26.9301 6.93952 27.0166 6.9441 27.1021C6.96212 27.438 7.0138 27.7656 7.09472 28.0811C6.99319 27.6852 6.93833 27.2703 6.93711 26.8435ZM15.9915 27.0369C15.9828 27.207 15.9619 27.3745 15.9325 27.5384C15.9737 27.3092 15.9969 27.0736 15.9969 26.8327C15.9969 26.9012 15.9949 26.9691 15.9915 27.0369ZM10.6646 24.1611C10.7348 24.1611 10.8021 24.1743 10.8634 24.1991C10.8339 24.1872 10.8028 24.1777 10.771 24.1712C10.7367 24.1642 10.7009 24.1611 10.6646 24.1611ZM29.7679 24.0043C29.818 24.0547 29.8554 24.1132 29.8812 24.1751C29.8687 24.145 29.8537 24.1152 29.8354 24.0873L29.7679 24.0043ZM13.5621 23.4002C13.6458 23.4002 13.729 23.4051 13.8106 23.4134C13.8923 23.4217 13.9729 23.4337 14.052 23.4499L13.9325 23.4282C13.8119 23.4097 13.6877 23.4002 13.5621 23.4002ZM15.0512 22.6758C15.1013 22.6996 15.1508 22.7243 15.1995 22.7504C15.102 22.6983 15.0019 22.6503 14.8991 22.6075L15.0512 22.6758ZM14.5831 22.4942C14.6232 22.5065 14.6631 22.5193 14.7026 22.533C14.6101 22.5009 14.5159 22.4727 14.42 22.4484L14.5831 22.4942ZM13.5621 22.3412C13.492 22.3413 13.4253 22.356 13.3641 22.3808C13.4255 22.356 13.4926 22.342 13.5629 22.342L13.5621 22.3412ZM17.6227 10.3404C17.4611 10.3404 17.3045 10.3496 17.1506 10.363V21.6355C17.3045 21.6488 17.4611 21.6587 17.6227 21.6588C20.7404 21.6588 23.2764 19.1203 23.2764 15.9996C23.2762 12.8791 20.7404 10.3404 17.6227 10.3404ZM27.8571 18.2007C27.8458 18.2283 27.8358 18.2569 27.8292 18.2869L27.83 18.2876C27.8366 18.2575 27.8458 18.2285 27.8571 18.2007ZM28.2547 17.8808C28.2262 17.8858 28.1984 17.8932 28.1716 17.9025C28.2264 17.8835 28.285 17.8731 28.3455 17.873L28.2547 17.8808ZM5.18711 17.3171L5.04736 17.3909C5.09345 17.3658 5.14015 17.3409 5.18711 17.3171ZM1.68866 16.4616C1.68879 16.4626 1.68932 16.4636 1.68944 16.4647C1.68877 16.459 1.68776 16.4533 1.68711 16.4476L1.68866 16.4616ZM8.00155 12.1696C8.00154 12.2419 7.98583 12.3103 7.95963 12.373C7.9726 12.342 7.98379 12.3097 7.99068 12.276L8.00155 12.1696ZM3.49767 10.6176C3.50014 10.64 3.50414 10.6621 3.50699 10.6844C3.503 10.6531 3.49859 10.6218 3.49534 10.5904L3.49767 10.6176ZM26.4224 9.88469C26.4477 9.83121 26.4826 9.78102 26.5264 9.73717L26.4674 9.80705C26.45 9.83172 26.4351 9.85791 26.4224 9.88469ZM15.6211 9.0687C15.3999 9.22975 15.159 9.36549 14.903 9.47165C15.0054 9.42918 15.1054 9.38201 15.2026 9.33034C15.2512 9.30454 15.2991 9.27759 15.3463 9.2496C15.4408 9.19351 15.5326 9.13315 15.6211 9.0687ZM13.0536 9.10596C13.0474 9.13818 13.0435 9.17134 13.0435 9.20534C13.0435 9.23923 13.0475 9.27261 13.0536 9.30472C13.0475 9.27275 13.0443 9.23985 13.0443 9.20612C13.0443 9.17198 13.0474 9.1383 13.0536 9.10596ZM13.3843 8.71155C13.4429 8.68915 13.5065 8.67664 13.573 8.67661L13.4666 8.68671C13.4382 8.6925 13.4109 8.70141 13.3843 8.71155ZM19.9107 5.78531C20.3478 5.88306 20.7779 6.00948 21.1988 6.16342L20.7748 6.01823C20.4904 5.92798 20.2021 5.85047 19.9107 5.78531ZM19.4961 5.26901L19.5047 5.35984C19.5078 5.3777 19.513 5.39537 19.5179 5.41264C19.5049 5.3667 19.4961 5.31854 19.4961 5.26901ZM16.1359 2.2791C16.2793 2.48402 16.4083 2.69982 16.521 2.92506C16.4364 2.75599 16.3428 2.5922 16.2407 2.43438C16.2068 2.38204 16.1716 2.33011 16.1359 2.2791ZM11.5901 1.20457C11.523 1.21138 11.4565 1.22009 11.3905 1.23019L11.5901 1.20457C11.6571 1.19775 11.7255 1.19248 11.7935 1.18904L11.5901 1.20457Z" fill="white"/>
</g>
<defs>
<clipPath id="clip0_482_2536">
<rect width="32" height="32" fill="white" transform="translate(0.5)"/>
</clipPath>
</defs>
</svg>
