<svg width="33" height="32" viewBox="0 0 33 32" fill="none" xmlns="http://www.w3.org/2000/svg">
<g clip-path="url(#clip0_472_2320)">
<path d="M26.6843 20.4313C27.0961 20.4314 27.4296 20.7657 27.4296 21.1776V23.7634H29.0996C29.5114 23.7636 29.8449 24.0979 29.8449 24.5097C29.8447 24.9213 29.5113 25.2547 29.0996 25.255H26.6843C26.2725 25.255 25.9382 24.9215 25.9381 24.5097V21.1776C25.9381 20.7656 26.2724 20.4313 26.6843 20.4313Z" fill="white"/>
<path fill-rule="evenodd" clip-rule="evenodd" d="M22.2294 1.23129C22.8002 1.23129 23.3231 1.46515 23.7032 1.84448L23.7061 1.84744C24.0864 2.22931 24.3193 2.75133 24.3193 3.32125V4.69057H25.3042C26.1823 4.69057 26.9843 5.05151 27.5666 5.63302L27.5696 5.63598C28.152 6.22003 28.5121 7.02118 28.5121 7.89845V18.5208L28.6166 18.5543C29.5658 18.863 30.4167 19.3942 31.1077 20.0853C32.2424 21.2166 32.9434 22.7816 32.9434 24.5097C32.9433 26.2354 32.242 27.799 31.1097 28.9321L31.1068 28.9351C29.9737 30.0673 28.4101 30.7686 26.6843 30.7687C24.9593 30.7687 23.3941 30.0674 22.2609 28.9351L22.258 28.9321C21.4986 28.1723 20.9332 27.2189 20.6432 26.153L20.6126 26.0416H3.09641C2.50429 26.0416 1.96494 25.7993 1.57528 25.4097C1.18515 25.0196 0.943364 24.4807 0.943359 23.8886V7.89845C0.943359 7.02038 1.3034 6.21828 1.88483 5.63598L1.88877 5.63302C2.47281 5.05067 3.27404 4.69057 4.15125 4.69057H5.13412V3.32125C5.13412 2.75046 5.36896 2.22755 5.74829 1.84744L5.75125 1.84448L5.90109 1.70942C6.26443 1.41005 6.72552 1.23134 7.22407 1.23129C7.7948 1.23129 8.31677 1.46516 8.6969 1.84448L8.69986 1.84744C9.08015 2.22931 9.31403 2.75133 9.31403 3.32125V4.69057H20.1404V3.32125C20.1404 2.75049 20.3743 2.22755 20.7536 1.84744L20.7575 1.84448C21.1393 1.46446 21.6598 1.23141 22.2294 1.23129ZM26.6843 19.7412C25.3869 19.7412 24.2113 20.2573 23.3552 21.0928L23.3503 21.0967L23.3128 21.1371L23.1551 21.3028C22.386 22.1489 21.9169 23.2749 21.9169 24.5097C21.917 25.8276 22.4502 27.0212 23.3108 27.8832C24.1728 28.7437 25.3663 29.2771 26.6843 29.2771C28.0023 29.2771 29.1959 28.7438 30.0578 27.8832C30.9185 27.0212 31.4517 25.8276 31.4518 24.5097C31.4518 23.1928 30.9176 21.9997 30.0559 21.1362C29.1963 20.2744 28.0031 19.7413 26.6843 19.7412ZM2.43492 10.7534V23.8886C2.43492 24.0703 2.51016 24.2357 2.62913 24.3549C2.74806 24.4738 2.91476 24.5491 3.09641 24.5491H20.4223L20.4253 24.4002C20.4543 22.7174 21.1474 21.1959 22.254 20.0872L22.3063 20.0389L22.3092 20.036C23.4394 18.9307 24.9843 18.2498 26.6833 18.2497L26.8667 18.2516L27.0195 18.2536V10.7534H2.43492ZM4.15125 6.18311C3.67768 6.18311 3.24811 6.37504 2.93966 6.68391L2.93572 6.68687C2.62688 6.99531 2.43492 7.42492 2.43492 7.89845V9.26185H27.0195V7.89845C27.0195 7.42485 26.8276 6.99532 26.5187 6.68687L26.5158 6.68391C26.2073 6.375 25.7778 6.18312 25.3042 6.18311H4.15125ZM7.22407 2.72285C7.10087 2.72289 6.98517 2.7597 6.88988 2.82341L6.80214 2.89537L6.79918 2.89833C6.69161 3.00532 6.62666 3.15694 6.62666 3.32125V4.69057H7.82149V3.32125C7.82149 3.15694 7.75654 3.00532 7.64897 2.89833L7.64601 2.89537C7.53914 2.78805 7.38841 2.72285 7.22407 2.72285ZM22.2294 2.72285C22.0651 2.72296 21.9142 2.788 21.8074 2.89537L21.8045 2.89833C21.697 3.00531 21.632 3.15706 21.632 3.32125V4.69057H22.8278V3.32125C22.8278 3.19788 22.791 3.08145 22.7272 2.98607L22.6553 2.89833L22.6523 2.89537C22.5453 2.78784 22.3936 2.72285 22.2294 2.72285Z" fill="white"/>
</g>
<defs>
<clipPath id="clip0_472_2320">
<rect width="32" height="32" fill="white" transform="translate(0.943359)"/>
</clipPath>
</defs>
</svg>
