<svg width="33" height="32" viewBox="0 0 33 32" fill="none" xmlns="http://www.w3.org/2000/svg">
<g clip-path="url(#clip0_472_2323)">
<path d="M19.6508 16.5198C19.8404 16.5385 20.0183 16.6214 20.154 16.7563L20.1654 16.7677C20.2252 16.8253 20.2762 16.8924 20.3165 16.9656L20.354 17.0417C20.3974 17.1442 20.4196 17.2545 20.4196 17.3656C20.4196 17.4771 20.3973 17.5875 20.354 17.6896C20.3107 17.7913 20.2464 17.8845 20.1654 17.9625L17.3977 20.7302L20.1415 23.551L20.1477 23.5583L20.155 23.5646C20.2712 23.6799 20.3514 23.8276 20.3842 23.9885L20.3988 24.1104C20.4031 24.1921 20.3963 24.274 20.3769 24.3531L20.3383 24.4688C20.2765 24.6195 20.1708 24.7495 20.0342 24.8417C19.8994 24.9324 19.7407 24.9809 19.5779 24.9823C19.469 24.9811 19.3624 24.96 19.2644 24.9188C19.1635 24.8761 19.0705 24.8129 18.9936 24.7344L16.2321 21.8958L13.4508 24.6781C13.3945 24.7356 13.3287 24.7855 13.2561 24.825L13.18 24.8615C13.0791 24.904 12.972 24.925 12.8654 24.926C12.7028 24.9244 12.5437 24.8761 12.4092 24.7854C12.2736 24.6939 12.1683 24.5635 12.1061 24.4115C12.0441 24.2602 12.0275 24.0926 12.0602 23.9313C12.093 23.7709 12.1731 23.6237 12.2894 23.5083L15.0467 20.751L12.3404 17.9688C12.2111 17.8124 12.142 17.6132 12.1498 17.4083C12.158 17.1981 12.2449 16.9997 12.3915 16.8531C12.538 16.7066 12.7364 16.6196 12.9467 16.6115C13.1483 16.6038 13.3436 16.6715 13.4988 16.7969L16.2217 19.5969L18.9842 16.7563C19.139 16.6025 19.3496 16.5156 19.5696 16.5156L19.6508 16.5198Z" fill="white"/>
<path fill-rule="evenodd" clip-rule="evenodd" d="M23.8894 0.00416667C24.0792 0.0231147 24.2577 0.10686 24.3936 0.242708C24.5488 0.397913 24.6362 0.608894 24.6363 0.829167V1.89583H28.7186L28.8925 1.9C29.7581 1.94309 30.5798 2.30613 31.1956 2.92188C31.8525 3.57876 32.2217 4.47065 32.2217 5.4V28.4969L32.2175 28.6708C32.1744 29.5366 31.8115 30.3581 31.1956 30.974C30.5387 31.6309 29.6476 31.9999 28.7186 32H3.7248C2.79576 31.9999 1.90467 31.6309 1.24772 30.974C0.590786 30.317 0.221763 29.4259 0.22168 28.4969V5.4C0.22168 4.47065 0.590839 3.57876 1.24772 2.92188C1.9047 2.26501 2.79592 1.89591 3.7248 1.89583H7.8071V0.829167C7.80721 0.608894 7.8946 0.397913 8.04981 0.242708C8.20519 0.0873763 8.41617 6.12437e-05 8.63626 0L8.71856 0.00416667C8.90812 0.0230821 9.08662 0.106761 9.22272 0.242708L9.27793 0.304167C9.39928 0.452271 9.46637 0.637804 9.46647 0.829167V1.89583H15.3925V0.829167C15.3926 0.608894 15.48 0.397913 15.6352 0.242708L15.6956 0.1875C15.8433 0.0665247 16.0292 2.94393e-08 16.2217 0L16.304 0.00416667C16.4936 0.0230726 16.6721 0.106747 16.8081 0.242708L16.8633 0.303125C16.9841 0.450492 17.0507 0.636392 17.0508 0.829167V1.89583H22.9769V0.829167C22.977 0.610393 23.0644 0.398974 23.2206 0.242708L23.2811 0.1875C23.4288 0.0665193 23.6147 0 23.8071 0L23.8894 0.00416667ZM1.88105 11.1406V28.4969C1.88125 28.9845 2.07455 29.4531 2.4196 29.799L2.42064 29.8C2.76585 30.1452 3.23528 30.3404 3.7248 30.3406H28.7186L28.9008 30.3313C29.3235 30.2892 29.7205 30.1022 30.0227 29.8L30.0238 29.799C30.3688 29.4531 30.5621 28.9845 30.5623 28.4969V11.1406H1.88105ZM3.7248 3.55521C3.29669 3.55536 2.88372 3.70456 2.55605 3.97292L2.42064 4.09583C2.07387 4.44299 1.88105 4.9132 1.88105 5.4V9.48125H30.5623V5.4C30.5623 4.9132 30.3695 4.44299 30.0227 4.09583L29.8873 3.97292C29.5596 3.70456 29.1467 3.55536 28.7186 3.55521H24.6363V4.62188C24.6363 4.81509 24.5695 5.00156 24.4488 5.14896L24.3936 5.20938C24.2381 5.3647 24.027 5.45202 23.8071 5.45208C23.6149 5.45208 23.4288 5.38557 23.2811 5.26458L23.2206 5.20938C23.0645 5.05327 22.9769 4.84117 22.9769 4.62188V3.55521H17.0508V4.62188C17.0508 4.81509 16.984 5.00156 16.8633 5.14896L16.8081 5.20938C16.6525 5.36485 16.4414 5.45208 16.2217 5.45208C16.0294 5.45208 15.8434 5.38557 15.6956 5.26458L15.6352 5.20938C15.4802 5.05433 15.3925 4.84267 15.3925 4.62188V3.55521H9.46647V4.62188C9.46647 4.81368 9.39921 4.99979 9.27793 5.14792L9.22272 5.20938C9.06699 5.36485 8.8558 5.45208 8.63626 5.45208C8.44378 5.45203 8.25779 5.38545 8.11022 5.26458L8.04981 5.20938C7.89476 5.05433 7.8071 4.84267 7.8071 4.62188V3.55521H3.7248Z" fill="white"/>
</g>
<defs>
<clipPath id="clip0_472_2323">
<rect width="32" height="32" fill="white" transform="translate(0.22168)"/>
</clipPath>
</defs>
</svg>
