<svg width="33" height="32" viewBox="0 0 33 32" fill="none" xmlns="http://www.w3.org/2000/svg">
<path d="M9.06409 4.79126C9.06409 5.49614 8.49236 6.06744 7.7879 6.06744C7.08345 6.06744 6.51172 5.49614 6.51172 4.79126V2.02619C6.51172 1.32131 7.08345 0.75 7.7879 0.75C8.49236 0.75 9.06409 1.32131 9.06409 2.02619V4.79126Z" stroke="white" stroke-width="1.5" stroke-miterlimit="10"/>
<path d="M17.9977 4.79126C17.9977 5.49614 17.426 6.06744 16.7215 6.06744C16.017 6.06744 15.4453 5.49614 15.4453 4.79126V2.02619C15.4453 1.32131 16.017 0.75 16.7215 0.75C17.426 0.75 17.9977 1.32131 17.9977 2.02619V4.79126Z" stroke="white" stroke-width="1.5" stroke-miterlimit="10"/>
<path d="M26.9313 4.79126C26.9313 5.49614 26.3595 6.06744 25.6551 6.06744C24.9506 6.06744 24.3789 5.49614 24.3789 4.79126V2.02619C24.3789 1.32131 24.9506 0.75 25.6551 0.75C26.3595 0.75 26.9313 1.32131 26.9313 2.02619V4.79126Z" stroke="white" stroke-width="1.5" stroke-miterlimit="10"/>
<path d="M6.5122 3.28027H4.4384C3.4987 3.28027 2.73682 4.04216 2.73682 4.98186V29.5484C2.73682 30.4881 3.4987 31.25 4.4384 31.25H29.005C29.9447 31.25 30.7066 30.4881 30.7066 29.5484V4.98186C30.7066 4.04216 29.9447 3.28027 29.005 3.28027H26.9312" stroke="white" stroke-width="1.5" stroke-miterlimit="10"/>
<path d="M15.4459 3.28027H9.06494" stroke="white" stroke-width="1.5" stroke-miterlimit="10"/>
<path d="M24.379 3.28027H17.998" stroke="white" stroke-width="1.5" stroke-miterlimit="10"/>
<path d="M2.73682 9.052H30.7066" stroke="white" stroke-width="1.5" stroke-miterlimit="10"/>
<path d="M19.8756 13.9445H10.0767V23.4261H19.8756V13.9445Z" stroke="white" stroke-width="1.5" stroke-miterlimit="10" stroke-linecap="round" stroke-linejoin="round"/>
<path d="M23.3667 17.3221H13.5669V26.8038H23.3667V17.3221Z" stroke="white" stroke-width="1.5" stroke-miterlimit="10" stroke-linecap="round" stroke-linejoin="round"/>
</svg>
