<svg width="33" height="32" viewBox="0 0 33 32" fill="none" xmlns="http://www.w3.org/2000/svg">
<g clip-path="url(#clip0_472_2333)">
<path fill-rule="evenodd" clip-rule="evenodd" d="M23.8894 0.00416667C24.0792 0.0231147 24.2577 0.10686 24.3936 0.242708C24.5488 0.397913 24.6362 0.608894 24.6363 0.829167V1.89583H28.7186L28.8925 1.9C29.7581 1.94309 30.5798 2.30613 31.1956 2.92188C31.8525 3.57876 32.2217 4.47065 32.2217 5.4V28.4969L32.2175 28.6708C32.1744 29.5366 31.8115 30.3581 31.1956 30.974C30.5387 31.6309 29.6476 31.9999 28.7186 32H3.7248C2.79576 31.9999 1.90467 31.6309 1.24772 30.974C0.590786 30.317 0.221763 29.4259 0.22168 28.4969V5.4C0.22168 4.47065 0.590839 3.57876 1.24772 2.92188C1.9047 2.26501 2.79592 1.89591 3.7248 1.89583H7.8071V0.829167C7.80721 0.608894 7.8946 0.397913 8.04981 0.242708C8.20519 0.0873763 8.41617 6.12437e-05 8.63626 0L8.71856 0.00416667C8.90813 0.0230821 9.08662 0.106761 9.22272 0.242708L9.27793 0.304167C9.39928 0.452271 9.46637 0.637804 9.46647 0.829167V1.89583H15.3925V0.829167C15.3926 0.608894 15.48 0.397913 15.6352 0.242708L15.6956 0.1875C15.8433 0.0665247 16.0292 2.94393e-08 16.2217 0L16.304 0.00416667C16.4936 0.0230726 16.6721 0.106747 16.8081 0.242708L16.8633 0.303125C16.9841 0.450493 17.0507 0.636392 17.0508 0.829167V1.89583H22.9769V0.829167C22.977 0.610393 23.0644 0.398974 23.2206 0.242708L23.2811 0.1875C23.4288 0.0665193 23.6147 0 23.8071 0L23.8894 0.00416667ZM1.88105 11.1406V28.4969C1.88125 28.9845 2.07455 29.4531 2.4196 29.799L2.42064 29.8C2.76585 30.1452 3.23528 30.3404 3.7248 30.3406H28.7186L28.9008 30.3313C29.3235 30.2892 29.7205 30.1022 30.0227 29.8L30.0238 29.799C30.3688 29.4531 30.5621 28.9845 30.5623 28.4969V11.1406H1.88105ZM3.7248 3.55521C3.29669 3.55536 2.88372 3.70456 2.55605 3.97292L2.42064 4.09583C2.07387 4.44299 1.88105 4.9132 1.88105 5.4V9.48125H30.5623V5.4C30.5623 4.9132 30.3695 4.44299 30.0227 4.09583L29.8873 3.97292C29.5596 3.70456 29.1467 3.55536 28.7186 3.55521H24.6363V4.62188C24.6363 4.81509 24.5695 5.00156 24.4488 5.14896L24.3936 5.20938C24.2381 5.3647 24.027 5.45202 23.8071 5.45208C23.6149 5.45208 23.4288 5.38557 23.2811 5.26458L23.2206 5.20938C23.0645 5.05327 22.9769 4.84117 22.9769 4.62188V3.55521H17.0508V4.62188C17.0508 4.81509 16.984 5.00156 16.8633 5.14896L16.8081 5.20938C16.6525 5.36485 16.4414 5.45208 16.2217 5.45208C16.0294 5.45208 15.8434 5.38557 15.6956 5.26458L15.6352 5.20938C15.4802 5.05433 15.3925 4.84267 15.3925 4.62188V3.55521H9.46647V4.62188C9.46647 4.81368 9.39921 4.99979 9.27793 5.14792L9.22272 5.20938C9.06699 5.36485 8.8558 5.45208 8.63626 5.45208C8.44378 5.45203 8.25779 5.38545 8.11022 5.26458L8.04981 5.20938C7.89476 5.05433 7.8071 4.84267 7.8071 4.62188V3.55521H3.7248Z" fill="white"/>
<path d="M13.3985 24.5805C13.7093 24.2665 13.7069 23.7601 13.3933 23.4493C12.6381 22.7005 12.2221 21.6977 12.2221 20.6249C12.2221 18.5457 13.8229 16.8517 15.8537 16.6621L15.6565 16.8593C15.3441 17.1717 15.3441 17.6781 15.6565 17.9905C15.8129 18.1469 16.0173 18.2249 16.2221 18.2249C16.4269 18.2249 16.6313 18.1469 16.7877 17.9905L18.3877 16.3905C18.7001 16.0781 18.7001 15.5717 18.3877 15.2593L16.7877 13.6593C16.4753 13.3469 15.9689 13.3469 15.6565 13.6593C15.3441 13.9717 15.3441 14.4781 15.6565 14.7905L15.9069 15.0409C12.9657 15.2057 10.6221 17.6437 10.6221 20.6249C10.6221 22.1281 11.2061 23.5341 12.2669 24.5853C12.4229 24.7401 12.6265 24.8173 12.8301 24.8173C13.0361 24.8173 13.2417 24.7385 13.3985 24.5805Z" fill="white"/>
<path d="M21.8221 20.6249C21.8221 19.1217 21.2381 17.7157 20.1777 16.6649C19.8629 16.3529 19.3569 16.3545 19.0457 16.6693C18.7349 16.9833 18.7373 17.4897 19.0509 17.8005C19.8061 18.5493 20.2221 19.5521 20.2221 20.6249C20.2221 22.7041 18.6213 24.3981 16.5905 24.5877L16.7877 24.3905C17.1001 24.0781 17.1001 23.5717 16.7877 23.2593C16.4753 22.9469 15.9689 22.9469 15.6565 23.2593L14.0565 24.8593C13.7441 25.1717 13.7441 25.6782 14.0565 25.9906L15.6565 27.5906C15.8129 27.747 16.0173 27.8249 16.2221 27.8249C16.4269 27.8249 16.6313 27.747 16.7877 27.5906C17.1001 27.2782 17.1001 26.7717 16.7877 26.4593L16.5373 26.2089C19.4785 26.0441 21.8221 23.6061 21.8221 20.6249Z" fill="white"/>
</g>
<defs>
<clipPath id="clip0_472_2333">
<rect width="32" height="32" fill="white" transform="translate(0.22168)"/>
</clipPath>
</defs>
</svg>
