<svg width="33" height="32" viewBox="0 0 33 32" fill="none" xmlns="http://www.w3.org/2000/svg">
<g clip-path="url(#clip0_475_2379)">
<path fill-rule="evenodd" clip-rule="evenodd" d="M24.3894 0.00416667C24.5792 0.0231147 24.7577 0.10686 24.8936 0.242708C25.0488 0.397913 25.1362 0.608894 25.1363 0.829167V1.89583H29.2186L29.3925 1.9C30.2581 1.94309 31.0798 2.30613 31.6956 2.92188C32.3525 3.57876 32.7217 4.47065 32.7217 5.4V28.4969L32.7175 28.6708C32.6744 29.5366 32.3115 30.3581 31.6956 30.974C31.0387 31.6309 30.1476 31.9999 29.2186 32H4.2248C3.29576 31.9999 2.40467 31.6309 1.74772 30.974C1.09079 30.317 0.721763 29.4259 0.72168 28.4969V5.4C0.72168 4.47065 1.09084 3.57876 1.74772 2.92188C2.4047 2.26501 3.29592 1.89591 4.2248 1.89583H8.3071V0.829167C8.30721 0.608894 8.3946 0.397913 8.54981 0.242708C8.70519 0.0873763 8.91617 6.12437e-05 9.13626 0L9.21856 0.00416667C9.40813 0.0230821 9.58662 0.106761 9.72272 0.242708L9.77793 0.304167C9.89928 0.452271 9.96637 0.637804 9.96647 0.829167V1.89583H15.8925V0.829167C15.8926 0.608894 15.98 0.397913 16.1352 0.242708L16.1956 0.1875C16.3433 0.0665247 16.5292 2.94393e-08 16.7217 0L16.804 0.00416667C16.9936 0.0230726 17.1721 0.106747 17.3081 0.242708L17.3633 0.303125C17.4841 0.450493 17.5507 0.636392 17.5508 0.829167V1.89583H23.4769V0.829167C23.477 0.610393 23.5644 0.398974 23.7206 0.242708L23.7811 0.1875C23.9288 0.0665193 24.1147 0 24.3071 0L24.3894 0.00416667ZM2.38105 11.1406V28.4969C2.38125 28.9845 2.57455 29.4531 2.9196 29.799L2.92064 29.8C3.26585 30.1452 3.73528 30.3404 4.2248 30.3406H29.2186L29.4008 30.3313C29.8235 30.2892 30.2205 30.1022 30.5227 29.8L30.5238 29.799C30.8688 29.4531 31.0621 28.9845 31.0623 28.4969V11.1406H2.38105ZM4.2248 3.55521C3.79669 3.55536 3.38372 3.70456 3.05605 3.97292L2.92064 4.09583C2.57387 4.44299 2.38105 4.9132 2.38105 5.4V9.48125H31.0623V5.4C31.0623 4.9132 30.8695 4.44299 30.5227 4.09583L30.3873 3.97292C30.0596 3.70456 29.6467 3.55536 29.2186 3.55521H25.1363V4.62188C25.1363 4.81509 25.0695 5.00156 24.9488 5.14896L24.8936 5.20938C24.7381 5.3647 24.527 5.45202 24.3071 5.45208C24.1149 5.45208 23.9288 5.38557 23.7811 5.26458L23.7206 5.20938C23.5645 5.05327 23.4769 4.84117 23.4769 4.62188V3.55521H17.5508V4.62188C17.5508 4.81509 17.484 5.00156 17.3633 5.14896L17.3081 5.20938C17.1525 5.36485 16.9414 5.45208 16.7217 5.45208C16.5294 5.45208 16.3434 5.38557 16.1956 5.26458L16.1352 5.20938C15.9802 5.05433 15.8925 4.84267 15.8925 4.62188V3.55521H9.96647V4.62188C9.96647 4.81368 9.89921 4.99979 9.77793 5.14792L9.72272 5.20938C9.56699 5.36485 9.3558 5.45208 9.13626 5.45208C8.94378 5.45203 8.75779 5.38545 8.61022 5.26458L8.54981 5.20938C8.39476 5.05433 8.3071 4.84267 8.3071 4.62188V3.55521H4.2248Z" fill="white"/>
<path d="M21.2199 19.6643L20.786 20.0215C20.291 20.429 20.291 21.1869 20.786 21.5944L21.2199 21.9516C21.3737 22.0782 21.4134 22.2974 21.3138 22.4699L20.457 23.954C20.3574 24.1265 20.1477 24.2017 19.9612 24.1318L19.4349 23.9347C18.8345 23.7097 18.1781 24.0887 18.0727 24.7211L17.9803 25.2755C17.9476 25.472 17.7776 25.616 17.5784 25.616H15.8647C15.6656 25.616 15.4956 25.472 15.4628 25.2755L15.3704 24.7211C15.265 24.0887 14.6086 23.7097 14.0083 23.9347L13.482 24.1318C13.2954 24.2017 13.0857 24.1265 12.9861 23.954L12.1293 22.4699C12.0297 22.2974 12.0694 22.0782 12.2232 21.9516L12.6572 21.5944C13.1521 21.1869 13.1521 20.429 12.6572 20.0215L12.2232 19.6643C12.0694 19.5377 12.0297 19.3185 12.1293 19.146L12.9861 17.662C13.0857 17.4895 13.2954 17.4142 13.482 17.4841L14.0083 17.6813C14.6086 17.9062 15.265 17.5272 15.3704 16.8949L15.4628 16.3404C15.4956 16.144 15.6656 16 15.8647 16H17.5784C17.7776 16 17.9476 16.144 17.9803 16.3404L18.0727 16.8949C18.1781 17.5272 18.8345 17.9062 19.4349 17.6813L19.9612 17.4841C20.1477 17.4142 20.3574 17.4895 20.457 17.662L21.3138 19.146C21.4134 19.3185 21.3737 19.5377 21.2199 19.6643Z" stroke="white" stroke-width="1.5" stroke-miterlimit="10" stroke-linecap="round" stroke-linejoin="round"/>
</g>
<defs>
<clipPath id="clip0_475_2379">
<rect width="32" height="32" fill="white" transform="translate(0.72168)"/>
</clipPath>
</defs>
</svg>
