<svg width="33" height="32" viewBox="0 0 33 32" fill="none" xmlns="http://www.w3.org/2000/svg">
<g clip-path="url(#clip0_475_2382)">
<path d="M16.1584 23.6566C16.1584 27.8503 12.7587 31.25 8.56504 31.25C4.37135 31.25 0.97168 27.8503 0.97168 23.6566C0.97168 19.463 4.37135 16.0633 8.56504 16.0633C12.7587 16.0633 16.1584 19.463 16.1584 23.6566Z" stroke="white" stroke-width="1.5" stroke-miterlimit="10" stroke-linecap="round" stroke-linejoin="round"/>
<path d="M10.4632 21.7583C10.4632 22.8067 9.61323 23.6566 8.56484 23.6566C7.51645 23.6566 6.6665 22.8067 6.6665 21.7583C6.6665 20.7099 7.51645 19.86 8.56484 19.86C9.61323 19.86 10.4632 20.7099 10.4632 21.7583Z" stroke="white" stroke-width="1.5" stroke-miterlimit="10" stroke-linecap="round" stroke-linejoin="round"/>
<path d="M3.28467 29.1132C4.12975 27.0267 6.17565 25.555 8.56528 25.555C10.9548 25.555 13.0008 27.0267 13.8458 29.1132" stroke="white" stroke-width="1.5" stroke-miterlimit="10" stroke-linecap="round" stroke-linejoin="round"/>
<path d="M12.4249 4.54667C12.4249 6.64352 10.7251 8.34335 8.62822 8.34335C6.53138 8.34335 4.83154 6.64352 4.83154 4.54667C4.83154 2.44983 6.53138 0.749993 8.62822 0.749993C10.7251 0.749993 12.4249 2.44983 12.4249 4.54667Z" stroke="white" stroke-width="1.5" stroke-miterlimit="10" stroke-linecap="round" stroke-linejoin="round"/>
<path d="M31.4716 14.165C31.4716 17.3103 28.9219 19.86 25.7766 19.86C22.6313 19.86 20.0815 17.3103 20.0815 14.165C20.0815 11.0197 22.6313 8.46994 25.7766 8.46994C28.9219 8.46994 31.4716 11.0197 31.4716 14.165Z" stroke="white" stroke-width="1.5" stroke-miterlimit="10" stroke-linecap="round" stroke-linejoin="round"/>
<path d="M11.9478 6.39086L20.7974 11.3987" stroke="white" stroke-width="1.5" stroke-miterlimit="10" stroke-linecap="round" stroke-linejoin="round"/>
<path d="M20.7975 16.9312L15.2041 19.9684" stroke="white" stroke-width="1.5" stroke-miterlimit="10" stroke-linecap="round" stroke-linejoin="round"/>
</g>
<defs>
<clipPath id="clip0_475_2382">
<rect width="32" height="32" fill="white" transform="translate(0.22168)"/>
</clipPath>
</defs>
</svg>
