<svg width="33" height="32" viewBox="0 0 33 32" fill="none" xmlns="http://www.w3.org/2000/svg">
<g clip-path="url(#clip0_463_1829)">
<path d="M31.472 19.1552V12.8449H27.3553C27.1101 11.979 26.7641 11.1449 26.3243 10.3598L29.2364 7.4477L24.7743 2.98565L21.8623 5.89772C21.0771 5.45799 20.2431 5.11196 19.3772 4.86672V0.750061H13.0669V4.86672C12.2011 5.11194 11.367 5.45798 10.5819 5.89772L7.6698 2.98565L3.20775 7.4477L6.11982 10.3598C5.68008 11.1449 5.33404 11.979 5.08883 12.8449H0.971985V19.1552H5.08865C5.33387 20.0211 5.6799 20.8551 6.11964 21.6403L3.20757 24.5523L7.66962 29.0144L10.5817 26.1023C11.3669 26.5421 12.2009 26.8881 13.0668 27.1333V31.25H19.3772V27.1333C20.243 26.8881 21.077 26.5421 21.8622 26.1023L24.7743 29.0144L29.2363 24.5523L26.3242 21.6403C26.764 20.8551 27.11 20.0211 27.3552 19.1552H31.472Z" stroke="white" stroke-width="1.6" stroke-miterlimit="10" stroke-linecap="round" stroke-linejoin="round"/>
<path d="M16.222 23.7148C20.4827 23.7148 23.9367 20.2608 23.9367 16.0001C23.9367 11.7394 20.4827 8.28537 16.222 8.28537C11.9613 8.28537 8.50732 11.7394 8.50732 16.0001C8.50732 20.2608 11.9613 23.7148 16.222 23.7148Z" stroke="white" stroke-width="1.6" stroke-miterlimit="10" stroke-linecap="round" stroke-linejoin="round"/>
</g>
<defs>
<clipPath id="clip0_463_1829">
<rect width="32" height="32" fill="white" transform="translate(0.221985)"/>
</clipPath>
</defs>
</svg>
