<svg width="33" height="32" viewBox="0 0 33 32" fill="none" xmlns="http://www.w3.org/2000/svg">
<path d="M24.0216 16.1173V22.8887C24.0216 24.3819 22.811 25.5925 21.3178 25.5925H13.2064L7.799 31V25.5925H5.09524C3.60202 25.5925 2.39148 24.3819 2.39148 22.8887V12.0737C2.39148 10.5804 3.60202 9.3699 5.09524 9.3699H13.2065H17.2622H19.29" stroke="white" stroke-width="1.5" stroke-miterlimit="10" stroke-linecap="round" stroke-linejoin="round"/>
<circle cx="23.0163" cy="5.49453" r="4.49453" stroke="white" stroke-width="1.5" stroke-linecap="round"/>
<path d="M30.6085 16.154C30.6085 14.1405 29.8086 12.2093 28.3848 10.7855C26.961 9.36173 25.0299 10.1141 23.0163 10.1141C21.0027 10.1141 19.0716 9.36173 17.6478 10.7855C16.224 12.2093 15.4241 14.1404 15.4241 16.154L23.0163 16.154H30.6085Z" stroke="white" stroke-width="1.5" stroke-linecap="round"/>
</svg>
