<svg width="32" height="32" viewBox="0 0 32 32" fill="none" xmlns="http://www.w3.org/2000/svg">
<path d="M16.0091 18.3274C16.9599 18.2969 17.7393 19.062 17.7394 20.0664C17.7394 20.7211 17.3981 21.2803 16.8679 21.5923L16.7272 21.675V25.1633C16.7272 25.5775 16.3917 25.8906 16.0004 25.8909C15.586 25.8909 15.2728 25.5548 15.2728 25.1633V21.675L15.1321 21.5923C14.6019 21.2803 14.2606 20.7211 14.2606 20.0664C14.2607 19.1033 15.0373 18.3274 16.0004 18.3274H16.0091Z" fill="white"/>
<path fill-rule="evenodd" clip-rule="evenodd" d="M15.9638 0C20.6042 0.000119558 23.8485 3.51379 23.8485 8.02942V12.2183H25.1454C27.2324 12.2184 28.9453 13.9014 28.9454 15.9817V28.2C28.9094 30.3237 27.2252 31.9999 25.1454 32H6.85936C4.7334 31.9663 3.05459 30.2813 3.05457 28.2V15.9865C3.08831 13.8605 4.77326 12.1825 6.85459 12.1825H7.86681V11.9241H8.15147V8.02942C8.15147 3.58092 11.3283 4.85388e-05 15.9638 0ZM6.85459 13.6726C5.57669 13.6726 4.54559 14.7038 4.54547 15.9817V28.2C4.54549 29.4779 5.57663 30.5091 6.85459 30.5091H25.1454C26.4233 30.509 27.4545 29.4779 27.4545 28.2V15.9817C27.4544 14.7039 26.4232 13.6727 25.1454 13.6726H6.85459ZM15.9638 1.45433C12.0998 1.45438 9.6058 4.42211 9.6058 8.02942V11.9336H9.89126V12.1825H22.1087V11.9241H22.3942V8.02942C22.3942 4.34182 19.784 1.45445 15.9638 1.45433Z" fill="white"/>
</svg>
