<svg width="33" height="32" viewBox="0 0 33 32" fill="none" xmlns="http://www.w3.org/2000/svg">
<g clip-path="url(#clip0_463_1847)">
<path fill-rule="evenodd" clip-rule="evenodd" d="M19.335 0C20.4672 0 21.5537 0.449489 22.3552 1.24917C23.1567 2.04884 23.6082 3.13401 23.6108 4.26618V5.67079H29.0392L29.2108 5.67482C30.0657 5.71828 30.877 6.07738 31.4852 6.68559C32.0934 7.29396 32.452 8.10576 32.4952 8.96084L32.5 9.13239V15.3017L32.496 15.375C32.4888 15.4473 32.4715 15.5187 32.4436 15.586C32.4064 15.676 32.3514 15.758 32.2825 15.8268C32.2137 15.8956 32.1316 15.9499 32.0417 15.9871C31.9518 16.0243 31.8555 16.0435 31.7582 16.0435H29.6086C28.8699 16.0459 28.1618 16.341 27.6402 16.8642C27.1188 17.3874 26.8261 18.0963 26.826 18.835C26.826 19.5737 27.1188 20.2826 27.6402 20.8058C28.1618 21.3291 28.8698 21.6241 29.6086 21.6265H31.7582C31.8555 21.6265 31.9519 21.6457 32.0417 21.6829C32.1317 21.7201 32.2137 21.7751 32.2825 21.844C32.3514 21.9128 32.4064 21.9948 32.4436 22.0848C32.4808 22.1746 32.5 22.2711 32.5 22.3683V28.54C32.4987 29.4571 32.1337 30.3367 31.4852 30.9852C30.8365 31.6339 29.9566 31.9989 29.0392 32H22.8691C22.7718 32 22.6746 31.9808 22.5848 31.9436C22.4948 31.9064 22.4128 31.8514 22.344 31.7825C22.2751 31.7137 22.2201 31.6317 22.1829 31.5417C22.1458 31.4519 22.1265 31.3554 22.1265 31.2582V29.1086C22.124 28.3699 21.829 27.6617 21.3058 27.1402C20.7826 26.6188 20.0737 26.326 19.335 26.326C18.5963 26.326 17.8874 26.6188 17.3642 27.1402C16.841 27.6617 16.546 28.3699 16.5435 29.1086V31.2582C16.5435 31.3555 16.5243 31.4519 16.4871 31.5417C16.4499 31.6316 16.3956 31.7137 16.3268 31.7825C16.258 31.8514 16.176 31.9064 16.086 31.9436C15.996 31.9809 15.8991 32.0001 15.8017 32H9.63239C8.71481 31.9991 7.83452 31.6339 7.18559 30.9852C6.57738 30.377 6.21828 29.5657 6.17482 28.7108L6.17079 28.5392V23.1108H4.76618C3.63394 23.1082 2.54889 22.6568 1.74917 21.8552C0.949489 21.0537 0.5 19.9672 0.5 18.835C0.500111 17.7029 0.949623 16.617 1.74917 15.8156C2.54888 15.0141 3.63397 14.5618 4.76618 14.5591H6.17079V9.13239C6.17183 8.21471 6.53669 7.3345 7.18559 6.68559C7.79402 6.07722 8.60556 5.71806 9.46084 5.67482L9.63239 5.67079H15.0591V4.26618C15.0618 3.134 15.5141 2.04884 16.3156 1.24917C17.1171 0.449638 18.2029 5.74531e-05 19.335 0ZM19.335 1.48112C18.5963 1.48118 17.8874 1.77394 17.3642 2.29538C16.841 2.81687 16.546 3.52509 16.5435 4.26377V6.41337C16.5435 6.5106 16.5243 6.60701 16.4871 6.69687C16.4499 6.78677 16.3956 6.86885 16.3268 6.93768C16.258 7.00653 16.176 7.06151 16.086 7.09876C15.996 7.13602 15.8991 7.15519 15.8017 7.15514H9.63158C9.10752 7.1555 8.60481 7.36368 8.23422 7.73422C7.86366 8.10478 7.65555 8.60754 7.65514 9.13158V15.3017L7.65111 15.375C7.64399 15.4473 7.62662 15.5187 7.59876 15.586C7.56152 15.676 7.5065 15.758 7.43768 15.8268C7.36885 15.8956 7.28678 15.9499 7.19687 15.9871C7.10696 16.0243 7.01067 16.0435 6.91337 16.0435H4.76377C4.02507 16.0459 3.31691 16.341 2.79538 16.8642C2.27393 17.3874 1.98123 18.0963 1.98112 18.835C1.98112 19.5737 2.27397 20.2826 2.79538 20.8058C3.31693 21.3291 4.02497 21.6241 4.76377 21.6265H6.91337C7.0106 21.6265 7.10703 21.6457 7.19687 21.6829C7.28684 21.7201 7.36881 21.7751 7.43768 21.844C7.50652 21.9128 7.56151 21.9948 7.59876 22.0848C7.6359 22.1746 7.65513 22.2711 7.65514 22.3683V28.5408C7.6559 29.0644 7.86399 29.5664 8.23422 29.9366C8.60481 30.3069 9.1077 30.5154 9.63158 30.5157H15.0591V29.111C15.0618 27.9789 15.5141 26.8937 16.3156 26.094C17.1171 25.2945 18.2029 24.8449 19.335 24.8449C20.4672 24.8449 21.5537 25.2943 22.3552 26.094C23.1567 26.8937 23.6082 27.9789 23.6108 29.111V30.5157H29.0408C29.5644 30.515 30.0664 30.3068 30.4366 29.9366C30.8067 29.5664 31.015 29.0643 31.0157 28.5408V23.1108H29.611C28.4788 23.1082 27.3937 22.6568 26.594 21.8552C25.7943 21.0537 25.3449 19.9672 25.3449 18.835C25.345 17.7029 25.7945 16.617 26.594 15.8156C27.3937 15.0141 28.4788 14.5618 29.611 14.5591H31.0157V9.13158L31.006 8.93587C30.9608 8.48389 30.7604 8.05836 30.4366 7.73422C30.0664 7.36399 29.5644 7.1559 29.0408 7.15514H22.8683C22.771 7.15516 22.6746 7.13592 22.5848 7.09876C22.4948 7.06151 22.4128 7.00655 22.344 6.93768C22.2751 6.86881 22.2201 6.78684 22.1829 6.69687C22.1458 6.60706 22.1265 6.51056 22.1265 6.41337V4.26377C22.124 3.52505 21.829 2.81688 21.3058 2.29538C20.7826 1.77397 20.0737 1.48112 19.335 1.48112Z" fill="white"/>
</g>
<defs>
<clipPath id="clip0_463_1847">
<rect width="32" height="32" fill="white" transform="translate(0.5)"/>
</clipPath>
</defs>
</svg>
