<svg width="33" height="32" viewBox="0 0 33 32" fill="none" xmlns="http://www.w3.org/2000/svg">
<g clip-path="url(#clip0_482_2442)">
<path d="M25.578 2.39999H7.97802C4.00802 2.39999 0.778015 5.62959 0.778015 9.59999V17.6C0.778015 21.5704 4.00802 24.8 7.97802 24.8H10.378V28.8C10.378 29.1236 10.5728 29.4156 10.8716 29.5392C10.9708 29.5804 11.0748 29.6 11.178 29.6C11.3864 29.6 11.5904 29.5188 11.7436 29.3656L16.3092 24.8H25.578C29.548 24.8 32.778 21.5704 32.778 17.6V9.59999C32.778 5.62959 29.548 2.39999 25.578 2.39999ZM31.178 17.6C31.178 20.6876 28.666 23.2 25.578 23.2H15.978C15.766 23.2 15.5624 23.2844 15.4124 23.4344L11.978 26.8688V24C11.978 23.558 11.6196 23.2 11.178 23.2H7.97802C4.89002 23.2 2.37802 20.6876 2.37802 17.6V9.59999C2.37802 6.51239 4.89002 3.99999 7.97802 3.99999H25.578C28.666 3.99999 31.178 6.51239 31.178 9.59999V17.6ZM13.9492 16.4244C14.2628 16.7352 14.2652 17.2416 13.9544 17.5556C13.7976 17.7136 13.592 17.7924 13.386 17.7924C13.1824 17.7924 12.9788 17.7152 12.8228 17.5604C11.762 16.5092 11.178 15.1032 11.178 13.6C11.178 10.6188 13.5216 8.18079 16.4628 8.01599L16.2124 7.76559C15.9 7.45319 15.9 6.94679 16.2124 6.63439C16.5248 6.32199 17.0312 6.32199 17.3436 6.63439L18.9436 8.23439C19.256 8.54679 19.256 9.05319 18.9436 9.36559L17.3436 10.9656C17.1872 11.122 16.9828 11.2 16.778 11.2C16.5732 11.2 16.3688 11.122 16.2124 10.9656C15.9 10.6532 15.9 10.1468 16.2124 9.83439L16.4096 9.63719C14.3788 9.82679 12.778 11.5208 12.778 13.6C12.778 14.6728 13.194 15.6756 13.9492 16.4244ZM20.7336 9.63999C21.794 10.6908 22.378 12.0968 22.378 13.6C22.378 16.5812 20.0344 19.0192 17.0932 19.184L17.3436 19.4344C17.656 19.7468 17.656 20.2532 17.3436 20.5656C17.1872 20.722 16.9828 20.8 16.778 20.8C16.5732 20.8 16.3688 20.722 16.2124 20.5656L14.6124 18.9656C14.3 18.6532 14.3 18.1468 14.6124 17.8344L16.2124 16.2344C16.5248 15.922 17.0312 15.922 17.3436 16.2344C17.656 16.5468 17.656 17.0532 17.3436 17.3656L17.1464 17.5628C19.1772 17.3732 20.778 15.6792 20.778 13.6C20.778 12.5272 20.362 11.5244 19.6068 10.7756C19.2932 10.4648 19.2908 9.95839 19.6016 9.64439C19.9128 9.32959 20.4188 9.32799 20.7336 9.63999Z" fill="white"/>
</g>
<defs>
<clipPath id="clip0_482_2442">
<rect width="32" height="32" fill="white" transform="translate(0.778015)"/>
</clipPath>
</defs>
</svg>
