<svg width="33" height="32" viewBox="0 0 33 32" fill="none" xmlns="http://www.w3.org/2000/svg">
<path d="M12.6221 15.5343C16.9627 15.5343 20.4814 19.0524 20.4814 23.3921C20.4814 25.6804 19.5028 27.7399 17.9416 29.176V31.2478L16.0675 30.4562C15.0271 30.9644 13.858 31.25 12.6221 31.25C8.28152 31.25 4.76282 27.7319 4.76282 23.3921C4.76282 19.0524 8.28152 15.5343 12.6221 15.5343Z" stroke="white" stroke-width="1.5" stroke-miterlimit="10" stroke-linecap="round" stroke-linejoin="round"/>
<path d="M11.1223 20.247H14.1219" stroke="white" stroke-width="1.5" stroke-miterlimit="10" stroke-linecap="round" stroke-linejoin="round"/>
<path d="M11.1223 26.5372H14.1219" stroke="white" stroke-width="1.5" stroke-miterlimit="10" stroke-linecap="round" stroke-linejoin="round"/>
<path d="M9.51746 23.3921H15.7266" stroke="white" stroke-width="1.5" stroke-miterlimit="10" stroke-linecap="round" stroke-linejoin="round"/>
<path d="M20.6625 0.749985C16.9695 0.749985 13.9758 3.74317 13.9758 7.43548C13.9758 9.38234 14.8084 11.1346 16.1367 12.3564V14.1192L17.7311 13.4456C18.6163 13.878 19.611 14.121 20.6625 14.121C24.3555 14.121 27.3492 11.1278 27.3492 7.43548C27.3492 3.74317 24.3555 0.749985 20.6625 0.749985Z" stroke="white" stroke-width="1.5" stroke-miterlimit="10" stroke-linecap="round" stroke-linejoin="round"/>
<path d="M18.8281 5.55093C18.8281 5.46405 18.8342 5.37867 18.8458 5.29509C18.972 4.39096 19.7571 3.6979 20.7004 3.71689C21.6545 3.73618 22.4448 4.50027 22.4943 5.45336C22.5492 6.50948 21.708 7.38535 20.6625 7.38535V9.3035" stroke="white" stroke-width="1.5" stroke-miterlimit="10" stroke-linecap="round" stroke-linejoin="round"/>
<path d="M20.8357 11.05C20.8273 11.0553 20.818 11.06 20.8113 11.0676C20.8092 11.0699 20.8078 11.0724 20.8064 11.0744C20.8079 11.0764 20.8092 11.0789 20.8113 11.0812C20.8181 11.0889 20.8272 11.0944 20.8357 11.0998M20.8357 11.05V11.0998M20.8357 11.05C20.844 11.0553 20.8534 11.06 20.8601 11.0676C20.8622 11.07 20.8625 11.0733 20.864 11.0754C20.8627 11.077 20.8618 11.0793 20.8601 11.0812C20.8533 11.0889 20.8442 11.0944 20.8357 11.0998M20.8357 11.05V11.0998" fill="white" stroke="white" stroke-width="1.5"/>
</svg>
