<svg width="33" height="32" viewBox="0 0 33 32" fill="none" xmlns="http://www.w3.org/2000/svg">
<g clip-path="url(#clip0_463_1870)">
<path d="M16.2219 16.0001C18.0468 16.0001 19.5261 14.5207 19.5261 12.6959C19.5261 10.871 18.0468 9.39166 16.2219 9.39166C14.3971 9.39166 12.9177 10.871 12.9177 12.6959C12.9177 14.5207 14.3971 16.0001 16.2219 16.0001Z" stroke="white" stroke-width="1.5" stroke-miterlimit="10" stroke-linecap="round" stroke-linejoin="round"/>
<path d="M22.8303 22.6083C22.8303 18.9585 19.8717 16 16.222 16C12.5723 16 9.61365 18.9585 9.61365 22.6083" stroke="white" stroke-width="1.5" stroke-miterlimit="10" stroke-linecap="round" stroke-linejoin="round"/>
<path d="M29.4387 22.6084V7.35833C29.4387 7.09134 29.3861 6.82696 29.2839 6.5803C29.1817 6.33364 29.0319 6.10953 28.8431 5.92078C28.6544 5.73185 28.4302 5.58199 28.1835 5.47977C27.9368 5.37754 27.6724 5.32495 27.4054 5.32501H5.03862C4.77158 5.32494 4.50714 5.37752 4.26043 5.47975C4.01373 5.58198 3.7896 5.73184 3.60088 5.92078C3.41205 6.10953 3.26225 6.33364 3.16006 6.5803C3.05787 6.82696 3.00528 7.09134 3.0053 7.35833V22.6084M19.272 22.6084C18.9465 22.9338 18.5051 23.1166 18.0448 23.1167H14.3992C13.9389 23.1166 13.4975 22.9338 13.1721 22.6084H0.971924V24.6417C0.971905 24.9087 1.02449 25.173 1.12668 25.4197C1.22887 25.6664 1.37867 25.8905 1.5675 26.0792C1.75623 26.2682 1.98036 26.418 2.22706 26.5202C2.47376 26.6225 2.7382 26.6751 3.00524 26.675H29.4386C29.7057 26.6751 29.9701 26.6225 30.2168 26.5203C30.4635 26.418 30.6876 26.2682 30.8763 26.0792C31.0652 25.8905 31.215 25.6664 31.3172 25.4197C31.4194 25.173 31.4719 24.9087 31.4719 24.6417V22.6084H19.272Z" stroke="white" stroke-width="1.5" stroke-miterlimit="10" stroke-linecap="round" stroke-linejoin="round"/>
</g>
<defs>
<clipPath id="clip0_463_1870">
<rect width="32" height="32" fill="white" transform="translate(0.221924)"/>
</clipPath>
</defs>
</svg>
