<svg width="33" height="32" viewBox="0 0 33 32" fill="none" xmlns="http://www.w3.org/2000/svg">
<path fill-rule="evenodd" clip-rule="evenodd" d="M21.7232 0.00558993C23.958 0.0861245 26.0748 1.03035 27.6273 2.63984C29.1796 4.24919 30.0476 6.39805 30.0478 8.634L30.0391 9.04044C29.9536 10.9665 29.2176 12.8075 27.9523 14.2648L29.7851 15.9031C29.9037 16.009 29.9881 16.1483 30.0257 16.3028C30.0633 16.4574 30.0527 16.6201 29.996 16.7687C29.9393 16.9173 29.8385 17.0456 29.7075 17.1359C29.5766 17.2259 29.4215 17.2738 29.2627 17.2739H28.5092C29.5729 18.341 30.344 19.6702 30.736 21.1342C31.1944 22.8461 31.1146 24.6581 30.5079 26.3231C29.9011 27.9881 28.7967 29.4266 27.3445 30.4423C25.8924 31.4578 24.1624 32.0013 22.3904 32H14.5366C14.3776 32 14.2218 31.9521 14.0908 31.862C13.9598 31.7717 13.859 31.6434 13.8023 31.4948C13.7456 31.3462 13.7359 31.1835 13.7735 31.0289C13.8112 30.8745 13.8946 30.7351 14.0132 30.6292L15.8451 28.9909C14.641 27.6008 13.9182 25.8601 13.7831 24.0282C12.576 24.5067 11.2752 24.7094 9.97649 24.6149C8.53503 24.51 7.14234 24.044 5.92734 23.2614C4.71256 22.4787 3.7132 21.4033 3.02181 20.1344C2.33052 18.8654 1.96917 17.443 1.97022 15.998V8.14415C1.97021 7.9851 2.01807 7.82941 2.10826 7.6984C2.19851 7.56737 2.32676 7.46657 2.4754 7.40986C2.62406 7.35317 2.7867 7.34346 2.94128 7.3811C3.09569 7.41873 3.23513 7.50224 3.34102 7.62075L4.97736 9.45264C6.04728 8.52806 7.33059 7.88057 8.71305 7.56899C10.0753 7.262 11.4898 7.29243 12.835 7.65334C13.0744 5.55989 14.0713 3.62141 15.6457 2.20846C17.3099 0.714894 19.4885 -0.0748223 21.7232 0.00558993ZM23.7689 16.4284C22.3979 16.1557 20.9767 16.2952 19.6852 16.8301C18.3938 17.365 17.2899 18.2714 16.5132 19.4336C15.7366 20.596 15.3217 21.9631 15.3217 23.361C15.3192 24.3167 15.5123 25.2638 15.8892 26.142C16.266 27.0201 16.8187 27.812 17.513 28.4685L17.514 28.4695C17.5925 28.5443 17.6552 28.635 17.6971 28.735C17.7389 28.835 17.7593 28.943 17.7575 29.0513C17.7557 29.1596 17.7316 29.2664 17.6866 29.3648C17.6414 29.4634 17.5767 29.5524 17.4958 29.6246L16.5937 30.4298H22.3904C23.7882 30.4297 25.1546 30.0148 26.3169 29.2383C27.4792 28.4616 28.3854 27.3577 28.9204 26.0662C29.4554 24.7747 29.5958 23.3527 29.3231 21.9816C29.0503 20.6107 28.3769 19.3513 27.3886 18.3629C26.4001 17.3743 25.14 16.7012 23.7689 16.4284ZM17.4191 29.2421C17.4116 29.2586 17.4006 29.2736 17.3913 29.2891L17.4191 29.2421ZM17.4517 28.9344C17.4596 28.971 17.4638 29.0088 17.4632 29.0465C17.4637 29.0128 17.4609 28.9788 17.4546 28.9459L17.4517 28.9344ZM15.0418 22.9124C15.0327 23.0614 15.0274 23.2112 15.0274 23.361L15.0322 23.1051C15.0344 23.0408 15.0378 22.9766 15.0418 22.9124ZM12.8015 9.28489C11.5676 8.87706 10.2435 8.81844 8.97666 9.11905C7.64808 9.43436 6.43997 10.1304 5.50076 11.1216L5.49884 11.1245C5.42409 11.2013 5.33413 11.2622 5.23523 11.3037C5.13622 11.3452 5.0291 11.3667 4.92176 11.366H4.91889C4.81073 11.364 4.7038 11.3391 4.60542 11.2941C4.50705 11.2491 4.41886 11.1839 4.3466 11.1034L3.54041 10.2013V15.998C3.54268 17.8719 4.28881 19.6682 5.61388 20.9933C6.93898 22.3183 8.73523 23.0645 10.6092 23.0668C11.7281 23.0662 12.8285 22.7964 13.8234 22.2874C13.9827 21.0324 14.4137 19.8263 15.0906 18.7559C15.7029 17.7879 16.5002 16.9523 17.4354 16.2971C16.1843 15.6426 15.108 14.6923 14.3046 13.5248C13.4393 12.2672 12.9217 10.8044 12.8015 9.28489ZM15.7511 20.1766C15.8254 20.0216 15.9055 19.8692 15.9908 19.7193L15.9822 19.7337C15.9 19.8789 15.823 20.0266 15.7511 20.1766ZM29.7209 16.6633C29.712 16.6867 29.7015 16.7097 29.6892 16.7313L29.7209 16.6633ZM23.8264 16.1389C23.38 16.0501 22.9285 16.0043 22.4777 15.999C22.7482 16.0022 23.0189 16.0204 23.2886 16.0536C23.4685 16.0757 23.6479 16.1034 23.8264 16.1389ZM21.4079 1.5662C19.7215 1.56851 18.0916 2.17385 16.8123 3.27252C15.5328 4.37156 14.6878 5.89233 14.4311 7.5594C14.1746 9.22652 14.5229 10.931 15.4127 12.3639C16.2848 13.7681 17.6213 14.8195 19.1877 15.3404C20.3351 14.8807 21.5681 14.6721 22.8036 14.7317C24.0516 14.792 25.2707 15.1249 26.3773 15.7037H27.2055L26.3025 14.8975C26.2218 14.8254 26.1568 14.7371 26.1117 14.6387C26.0666 14.5401 26.0426 14.4327 26.0408 14.3243C26.0391 14.2162 26.0595 14.1087 26.1012 14.0089C26.1431 13.9089 26.2058 13.8182 26.2843 13.7434L26.2852 13.7424C26.9799 13.0861 27.5331 12.294 27.9101 11.4159C28.2869 10.5378 28.4793 9.59146 28.4766 8.63591C28.4744 6.76206 27.729 4.96476 26.4041 3.63966C25.0789 2.31445 23.282 1.56832 21.4079 1.5662ZM6.02991 9.02511C5.95395 9.07519 5.87898 9.12684 5.80464 9.17944L6.02991 9.02511C6.10587 8.97502 6.18246 8.92693 6.25998 8.8794L6.02991 9.02511ZM14.9363 5.14371C14.8488 5.30626 14.7661 5.47145 14.6909 5.64027L14.8299 5.34694C14.864 5.27849 14.9001 5.21105 14.9363 5.14371ZM27.4154 2.84402L27.1461 2.57753C27.1429 2.57457 27.1396 2.57185 27.1365 2.5689C27.2313 2.65836 27.3246 2.7498 27.4154 2.84402ZM15.5479 2.70406L15.2852 2.97535C15.2808 2.98017 15.2763 2.9849 15.2718 2.98973C15.3613 2.89241 15.4536 2.79736 15.5479 2.70406Z" fill="white"/>
<path d="M25.6816 5.737C26.0956 5.73726 26.4316 6.07295 26.4316 6.487C26.4316 6.90105 26.0956 7.23674 25.6816 7.237H16.8438C16.4295 7.237 16.0938 6.90121 16.0938 6.487C16.0938 6.07279 16.4295 5.737 16.8438 5.737H25.6816Z" fill="white"/>
<path d="M17.9688 21.112C17.5548 21.1123 17.2188 21.4479 17.2188 21.862C17.2188 22.2761 17.5548 22.6117 17.9688 22.612H26.8066C27.2209 22.612 27.5566 22.2762 27.5566 21.862C27.5566 21.4478 27.2209 21.112 26.8066 21.112H17.9688Z" fill="white"/>
<path d="M14.3691 18.25C14.7831 18.2497 15.1191 17.9141 15.1191 17.5C15.1191 17.0859 14.7831 16.7503 14.3691 16.75H5.53125C5.11704 16.75 4.78125 17.0858 4.78125 17.5C4.78125 17.9142 5.11704 18.25 5.53125 18.25H14.3691Z" fill="white"/>
<path d="M23.5249 8.737C23.9389 8.73726 24.2749 9.07295 24.2749 9.487C24.2749 9.90105 23.9389 10.2367 23.5249 10.237H16.8438C16.4295 10.237 16.0938 9.90121 16.0938 9.487C16.0938 9.07279 16.4295 8.737 16.8438 8.737H23.5249Z" fill="white"/>
<path d="M20.1255 24.112C19.7115 24.1123 19.3755 24.4479 19.3755 24.862C19.3755 25.2761 19.7115 25.6117 20.1255 25.612H26.8066C27.2209 25.612 27.5566 25.2762 27.5566 24.862C27.5566 24.4478 27.2209 24.112 26.8066 24.112H20.1255Z" fill="white"/>
<path d="M12.2124 15.25C12.6264 15.2497 12.9624 14.9141 12.9624 14.5C12.9624 14.0859 12.6264 13.7503 12.2124 13.75H5.53125C5.11704 13.75 4.78125 14.0858 4.78125 14.5C4.78125 14.9142 5.11704 15.25 5.53125 15.25H12.2124Z" fill="white"/>
</svg>
