<svg width="32" height="32" viewBox="0 0 32 32" fill="none" xmlns="http://www.w3.org/2000/svg">
<g clip-path="url(#clip0_463_1884)">
<path fill-rule="evenodd" clip-rule="evenodd" d="M18.9302 0C20.2238 0.000104077 21.2934 0.97572 21.4352 2.23463L21.4513 2.49005V4.83486C21.4563 5.18688 21.6449 5.50848 21.9461 5.68624L21.9501 5.68925C22.2579 5.86539 22.6358 5.86533 22.9437 5.68925L22.9477 5.68724L24.951 4.51434C25.5276 4.1797 26.2144 4.08877 26.8591 4.25992L27.0954 4.33605C27.6376 4.54033 28.0958 4.92744 28.3865 5.43283L31.3173 10.5201L31.3203 10.5251C31.6182 11.0235 31.7248 11.6108 31.6258 12.1778L31.5707 12.4192L31.5677 12.4292C31.4033 13.0753 30.9832 13.6259 30.4038 13.9547L30.3988 13.9577L28.3946 15.1306C28.0845 15.3051 27.8919 15.6325 27.8917 15.988C27.8918 16.3434 28.0845 16.6718 28.3946 16.8464L30.3988 18.0183L30.4038 18.0213C30.979 18.3466 31.3993 18.8894 31.5687 19.5277L31.5707 19.5347C31.7509 20.1735 31.6607 20.8584 31.3203 21.4278L31.3173 21.4338L28.3865 26.5211C28.097 27.0252 27.6415 27.4099 27.1025 27.6129L26.8661 27.689C26.2202 27.86 25.5332 27.7696 24.952 27.4376L22.9477 26.2657L22.9437 26.2637C22.6358 26.0876 22.2579 26.0875 21.9501 26.2637L21.9441 26.2677C21.6384 26.4501 21.4513 26.7806 21.4513 27.1361V29.4799C21.4512 30.1475 21.1846 30.7892 20.7121 31.2618C20.2395 31.7343 19.5977 31.9999 18.9302 32H13.0696C11.7795 32 10.7117 31.0301 10.5656 29.7754L10.5496 29.521V27.1822C10.5494 26.8271 10.3619 26.4972 10.0568 26.3148L10.0497 26.3108C9.74184 26.1345 9.36403 26.1345 9.05613 26.3108L9.05312 26.3128L7.05187 27.4827C6.46988 27.8159 5.77978 27.9065 5.13275 27.7351C4.49175 27.5638 3.94496 27.1438 3.61428 26.5682L3.61328 26.5672L0.68352 21.4799L0.679514 21.4749L0.564327 21.2555C0.321519 20.7342 0.272303 20.1398 0.430109 19.5808L0.432112 19.5708C0.596535 18.9244 1.01735 18.3741 1.597 18.0453L1.60201 18.0423L3.60627 16.8704L3.60527 16.8684C3.9152 16.6939 4.10793 16.3674 4.10809 16.012C4.10809 15.6563 3.91665 15.3282 3.60627 15.1536L1.60201 13.9817L1.597 13.9787L1.38666 13.8455C0.915705 13.511 0.576002 13.0177 0.432112 12.4522L0.429107 12.4422L0.374017 12.2008C0.275135 11.6341 0.381791 11.0474 0.679514 10.5491L0.68352 10.5431L3.61128 5.45787L3.61228 5.45887C3.9469 4.89056 4.49399 4.47805 5.13175 4.31201L5.13375 4.31101C5.77953 4.13996 6.46762 4.23066 7.04886 4.56241L9.05312 5.73432L9.05613 5.73632C9.36396 5.91242 9.74191 5.91245 10.0497 5.73632L10.0568 5.73232C10.3621 5.54986 10.5495 5.21924 10.5496 4.8639V2.5201C10.5496 1.12758 11.6771 0 13.0696 0H18.9302ZM13.0696 1.48842C12.5192 1.48842 12.073 1.93464 12.073 2.48504V4.82985C12.0742 5.73117 11.5954 6.56556 10.816 7.0164C10.0357 7.46765 9.07239 7.46811 8.29289 7.0174L6.29063 5.8465L6.28763 5.8455L6.20049 5.80043C5.99266 5.70642 5.75637 5.68497 5.5304 5.74634L5.52339 5.74834C5.30864 5.81069 5.12074 5.94191 4.98852 6.11995L4.93543 6.19907L4.93042 6.20709L1.99966 11.2944C1.72842 11.7672 1.88762 12.3726 2.35924 12.6496L4.3645 13.8225L4.36851 13.8245C5.14766 14.2675 5.62913 15.0962 5.62655 15.991C5.60765 16.8713 5.12889 17.6786 4.36651 18.1184L4.3645 18.1194L2.35924 19.2924C1.88773 19.5693 1.72867 20.1738 1.99966 20.6466L2.00066 20.6476L4.93042 25.7348L4.93543 25.7428C5.05122 25.9335 5.22686 26.081 5.43324 26.1625L5.52339 26.1936C5.75505 26.2771 6.01105 26.2727 6.23955 26.1785L6.26559 26.1675L6.29063 26.1535L8.29589 24.9816C9.07173 24.5265 10.0352 24.5264 10.811 24.9816L10.815 24.9836C11.5979 25.432 12.0793 26.2666 12.073 27.1681V29.515C12.0731 30.0653 12.5193 30.5116 13.0696 30.5116H18.9312C19.1944 30.5114 19.4482 30.4072 19.6353 30.2201C19.8225 30.0329 19.9268 29.7784 19.9268 29.515V27.1772C19.9394 26.2823 20.4257 25.4616 21.2029 25.0207C21.9793 24.5791 22.9319 24.5829 23.7049 25.0287L25.7342 26.2146L25.7603 26.2256C25.9886 26.3197 26.2449 26.324 26.4764 26.2406C26.7217 26.1695 26.9331 26.0078 27.0654 25.7899L27.0694 25.7819L30.0002 20.6946L30.0032 20.6886C30.2628 20.2192 30.1029 19.6285 29.6456 19.3524L29.6406 19.3504L27.6363 18.1775L27.6323 18.1755L27.4891 18.0874C26.7925 17.6269 26.3696 16.8423 26.3743 16.001C26.3755 15.1029 26.8553 14.2735 27.6343 13.8235L27.6363 13.8225L29.6416 12.6496C30.1129 12.3725 30.2712 11.767 30.0002 11.2944L27.0694 6.20709L27.0644 6.19907L27.0113 6.11995C26.8979 5.96728 26.7437 5.8483 26.5666 5.77839L26.4704 5.74634L26.3723 5.7253C26.1441 5.68744 25.9111 5.73093 25.7122 5.8455L25.7102 5.8465L23.7069 7.0174C22.9276 7.4681 21.9651 7.46736 21.1848 7.0164C20.4053 6.56557 19.9256 5.73124 19.9268 4.82985V2.48504C19.9268 2.22162 19.8225 1.96717 19.6353 1.77989C19.4482 1.59286 19.1944 1.4886 18.9312 1.48842H13.0696Z" fill="white"/>
<path d="M25.3785 16.6049L27.5159 16.4697L27.4483 15.1182L24.669 15.2872L21.2902 15.3885C21.0199 15.3885 20.7496 15.5575 20.6482 15.794L18.1479 21.0649L16.9654 5.82663C16.9316 5.45496 16.6613 5.18466 16.2896 5.15088C15.918 5.11709 15.5801 5.3536 15.5125 5.72527L12.7419 18.1253L11.2215 13.7329C11.1201 13.4626 10.8498 13.2599 10.5457 13.2261C10.2416 13.2261 9.97133 13.3951 9.86997 13.6654L8.55225 16.7063L4.63288 16.5035L4.56531 17.855L8.92392 18.0915C9.228 18.1253 9.49831 17.9226 9.63346 17.6523L10.5119 15.6588L12.2351 20.5918C12.3365 20.8959 12.6406 21.0987 12.9784 21.0987C13.3163 21.0649 13.5866 20.8621 13.6542 20.5243L15.9855 10.0501L17.033 23.4976C17.0667 23.8355 17.3033 24.1058 17.6411 24.1733C17.6749 24.1733 17.7425 24.1733 17.7763 24.1733C18.0466 24.1733 18.3169 24.0044 18.452 23.7679L21.797 16.74L24.7365 16.6387H24.8379L25.3785 16.6049Z" fill="white"/>
</g>
<defs>
<clipPath id="clip0_463_1884">
<rect width="32" height="32" fill="white"/>
</clipPath>
</defs>
</svg>
