<svg width="33" height="32" viewBox="0 0 33 32" fill="none" xmlns="http://www.w3.org/2000/svg">
<path fill-rule="evenodd" clip-rule="evenodd" d="M20.7033 7.03895C20.9507 7.03902 21.1829 7.1606 21.3237 7.36463L21.3712 7.44315C21.4709 7.63263 21.4855 7.85664 21.409 8.05961L20.3369 10.8967C20.0405 11.6758 19.5167 12.3275 18.8607 12.7907L19.0807 12.9545C19.6495 13.4136 20.0823 14.0066 20.3369 14.6847L21.409 17.5208C21.4966 17.7528 21.4651 18.0127 21.3237 18.2168C21.1829 18.4207 20.9507 18.5424 20.7033 18.5424H12.2967C12.0493 18.5424 11.8161 18.4208 11.6754 18.2168C11.5345 18.0128 11.5026 17.7524 11.5901 17.5208L12.6621 14.6847L12.7872 14.39C13.0945 13.7356 13.5576 13.191 14.1219 12.7907C13.461 12.314 12.9587 11.6633 12.665 10.9016L12.6641 10.9006L11.5901 8.05961C11.5028 7.82793 11.5343 7.56848 11.6754 7.36463C11.8161 7.16054 12.0492 7.039 12.2967 7.03895H20.7033ZM11.7016 17.5635L11.688 17.609C11.6925 17.5938 11.6959 17.5785 11.7016 17.5635ZM16.4957 13.5487C15.4101 13.5489 14.4596 14.204 14.0734 15.2197L13.3881 17.0333H19.6109L18.9295 15.2284L18.9237 15.2168C18.7648 14.793 18.4926 14.4189 18.1289 14.1264L17.967 14.0052C17.5467 13.7103 17.0247 13.5487 16.4957 13.5487ZM15.8763 12.0851L15.8782 12.0841C15.8679 12.0817 15.8575 12.0798 15.8472 12.0773C15.8569 12.0797 15.8665 12.0828 15.8763 12.0851ZM14.0734 10.3626L14.1519 10.5449C14.3493 10.9624 14.6497 11.3206 15.0291 11.5859L15.192 11.6886C15.5833 11.9151 16.0407 12.0394 16.4957 12.0395C17.5669 12.0395 18.5436 11.365 18.9257 10.3617L19.6109 8.54813H13.3881L14.0734 10.3626ZM19.0371 10.4033C18.8624 10.8625 18.5686 11.2557 18.1997 11.5529C18.1468 11.5955 18.0927 11.6365 18.0368 11.675C17.9255 11.7519 17.8085 11.8207 17.6869 11.8805C18.2951 11.5817 18.7874 11.0596 19.0371 10.4033ZM15.3122 11.8864C15.3398 11.8997 15.3684 11.9108 15.3965 11.9232C15.3607 11.9074 15.3249 11.892 15.2899 11.8747L15.3122 11.8864Z" fill="white"/>
<path fill-rule="evenodd" clip-rule="evenodd" d="M27.0677 0C28.2952 0.000193603 29.2941 0.998921 29.2941 2.22645V23.3549C29.294 24.5824 28.2951 25.5812 27.0677 25.5814H11.1917L4.99411 31.779C4.84979 31.9233 4.65589 31.9999 4.46004 32C4.36343 32 4.26571 31.9808 4.17216 31.9418C3.88989 31.8254 3.70611 31.5505 3.70593 31.2459V2.22645C3.70597 0.998477 4.70821 6.29607e-05 5.93917 0H27.0677ZM4.90882 31.6947C4.85176 31.7517 4.78508 31.7944 4.71399 31.8255C4.74721 31.811 4.78033 31.7954 4.81092 31.7751L4.90882 31.6947ZM5.93917 1.50918C5.53885 1.50924 5.21515 1.83168 5.21511 2.22645V29.4236L10.3455 24.2932C10.4868 24.152 10.6785 24.0723 10.8786 24.0722H27.0677C27.4632 24.072 27.7848 23.7505 27.7849 23.3549V2.22645C27.7849 1.83085 27.4632 1.50937 27.0677 1.50918H5.93917ZM27.5349 1.53244C27.5795 1.5626 27.621 1.5972 27.6589 1.63519C27.7156 1.69194 27.7637 1.75704 27.8024 1.82807C27.7379 1.70931 27.6463 1.60778 27.5349 1.53244ZM5.76954 1.40643C5.74792 1.41082 5.72656 1.41594 5.70557 1.42194C5.75302 1.40837 5.80243 1.39894 5.8529 1.39383L5.76954 1.40643Z" fill="white"/>
</svg>
