<svg width="32" height="32" viewBox="0 0 32 32" fill="none" xmlns="http://www.w3.org/2000/svg">
<path fill-rule="evenodd" clip-rule="evenodd" d="M24.8076 2.93997C26.7366 2.93997 28.5418 3.68606 29.8959 5.04017C32.7013 7.84578 32.7014 12.4092 29.8959 15.2148L23.6945 21.4172C22.2928 22.8192 20.4509 23.5212 18.6072 23.5213C17.8278 23.5213 17.0485 23.3879 16.2997 23.1354L16.1499 23.0848L12.2789 26.9559C10.8766 28.358 9.03434 29.06 7.19056 29.06C5.34765 29.0599 3.50503 28.358 2.10326 26.9559C-0.701144 24.1503 -0.701026 19.584 2.10326 16.7793L8.30564 10.5789C9.65985 9.22466 11.4654 8.47777 13.3929 8.47768C14.1907 8.47771 14.9663 8.61294 15.7005 8.85962L15.8503 8.90922L19.7203 5.04017C21.0745 3.68604 22.8804 2.94005 24.8076 2.93997ZM13.3929 10.0471C11.8868 10.0472 10.473 10.6309 9.41576 11.688L3.21338 17.8894C1.02044 20.0826 1.02058 23.6514 3.21338 25.8457C5.40859 28.0396 8.97753 28.038 11.1687 25.8457L14.6668 22.3477L14.4237 22.1731C14.1053 21.945 13.8 21.6982 13.5189 21.4172C10.7143 18.612 10.7144 14.0449 13.5189 11.2406L14.2164 10.5432L14.5854 10.1731L14.0666 10.1116C13.8713 10.0884 13.6317 10.0472 13.3929 10.0471ZM24.8076 4.50942C23.3016 4.5095 21.8878 5.092 20.8305 6.1493L17.3334 9.64633L17.5765 9.82093C17.8967 10.0505 18.202 10.2993 18.4812 10.5789C21.2865 13.384 21.2865 17.9479 18.4812 20.7535L17.4088 21.8259L17.9277 21.8884C19.5821 22.0889 21.313 21.5787 22.5844 20.3071L28.7858 14.1057C30.9791 11.9124 30.9791 8.34254 28.7858 6.1493C27.7283 5.09206 26.3141 4.50942 24.8076 4.50942ZM14.6281 12.3507C12.4353 14.5439 12.4354 18.1131 14.6281 20.3071C14.9418 20.6208 15.2866 20.8766 15.641 21.0967L15.8126 21.2029L15.9545 21.06L17.3711 19.6444C19.5643 17.4512 19.5641 13.8823 17.3711 11.689C17.0594 11.3773 16.7132 11.1221 16.3562 10.9003L16.1856 10.7941L14.6281 12.3507Z" fill="white"/>
</svg>
