<svg width="33" height="32" viewBox="0 0 33 32" fill="none" xmlns="http://www.w3.org/2000/svg">
<g clip-path="url(#clip0_470_2242)">
<path fill-rule="evenodd" clip-rule="evenodd" d="M17.3076 17.8823C17.596 17.594 18.065 17.5948 18.3535 17.8823L18.4042 17.939C18.6408 18.2293 18.6238 18.6577 18.3535 18.9282L17.4101 19.8726C17.1215 20.1611 16.6528 20.161 16.3642 19.8726C16.0761 19.584 16.0758 19.1151 16.3642 18.8267L17.3076 17.8823Z" fill="white"/>
<path fill-rule="evenodd" clip-rule="evenodd" d="M19.83 15.3667C20.1202 15.1308 20.5489 15.1475 20.8193 15.4175C21.1078 15.706 21.1073 16.1749 20.8193 16.4634L19.8749 17.4077C19.5864 17.6963 19.1176 17.6963 18.829 17.4077C18.5409 17.1191 18.5406 16.6503 18.829 16.3618L19.7734 15.4175L19.83 15.3667ZM20.8408 15.7163C20.8266 15.6818 20.81 15.6475 20.789 15.6157C20.7675 15.5833 20.7424 15.5525 20.7138 15.5239C20.6565 15.4667 20.5902 15.4237 20.5195 15.395C20.484 15.3806 20.4473 15.37 20.4101 15.3628C20.5218 15.3843 20.6275 15.4377 20.7138 15.5239C20.7705 15.5806 20.812 15.6465 20.8408 15.7163Z" fill="white"/>
<path fill-rule="evenodd" clip-rule="evenodd" d="M13.0029 6.86378C14.1585 5.70826 16.0384 5.7084 17.1943 6.86378L26.08 15.7485C27.2357 16.9043 27.2357 18.7851 26.08 19.9409L25.9511 20.0708L25.9482 20.0669L25.2441 20.772C24.9555 21.0603 24.4868 21.0605 24.1982 20.772C23.5128 20.0871 22.3993 20.0887 21.7158 20.772C21.0325 21.4553 21.0336 22.5697 21.7167 23.2534C22.0053 23.542 22.0052 24.0107 21.7167 24.2993L20.8828 25.1333C19.727 26.2891 17.8472 26.289 16.6914 25.1333L7.80756 16.2505C6.6522 15.0947 6.65187 13.2148 7.80756 12.0591L8.64155 11.2251C8.92995 10.937 9.39889 10.937 9.68745 11.2251C10.373 11.9104 11.4855 11.9095 12.1689 11.2261C12.852 10.5426 12.8521 9.42709 12.1689 8.74366C11.8807 8.45505 11.8805 7.98619 12.1689 7.69776L13.0029 6.86378ZM16.1513 7.90675C15.5727 7.32857 14.6292 7.32836 14.0507 7.90675L13.6777 8.27979C14.4503 9.52729 14.2988 11.1879 13.2167 12.27C12.1345 13.3519 10.476 13.5012 9.22944 12.728L8.85639 13.1021C8.27802 13.6806 8.27824 14.6231 8.85639 15.2017L14.4218 20.7671L14.8427 20.3482L14.8994 20.2974C15.1896 20.0612 15.6182 20.0781 15.8886 20.3482C16.1771 20.6367 16.177 21.1055 15.8886 21.394L15.4677 21.813L17.7421 24.0864C18.3208 24.6651 19.2631 24.6651 19.8417 24.0864L20.2138 23.7134C19.4424 22.4661 19.594 20.8059 20.6738 19.7261C21.7533 18.6468 23.4136 18.4933 24.6601 19.2632L25.0341 18.8911L25.1357 18.7788C25.6104 18.1963 25.5766 17.333 25.0341 16.7905L22.7626 14.5181L22.3408 14.9419C22.0522 15.2305 21.5834 15.2305 21.2949 14.9419C21.0068 14.6533 21.0064 14.1844 21.2949 13.896L21.7167 13.4722L16.1513 7.90675ZM17.6367 24.1929C17.6953 24.2515 17.7584 24.3032 17.8232 24.3511C17.8024 24.3357 17.7809 24.3207 17.7607 24.3042L17.6367 24.1929ZM15.7831 20.4546C15.84 20.5115 15.8814 20.5778 15.9101 20.648C15.8958 20.6132 15.8795 20.5785 15.8583 20.5464C15.8369 20.5139 15.8117 20.4832 15.7831 20.4546ZM23.4999 20.187C22.9104 20.013 22.2528 20.1299 21.7548 20.5357C21.9043 20.4138 22.0681 20.3192 22.2402 20.2495C22.3547 20.2031 22.4727 20.1683 22.5927 20.145C22.713 20.1217 22.8349 20.1099 22.957 20.1099C23.1399 20.1098 23.3231 20.1348 23.4999 20.187ZM24.6962 19.4399L24.6953 19.4409L24.6835 19.4536L25.1406 18.9976L24.6962 19.4399ZM8.54194 13.2524C8.53106 13.2689 8.52188 13.2864 8.51166 13.3032C8.52356 13.2837 8.535 13.2638 8.5478 13.2446L8.54194 13.2524ZM13.4648 11.7417C13.4131 11.8162 13.3578 11.8889 13.2988 11.9595C13.4169 11.8181 13.5205 11.6688 13.6093 11.5132L13.4648 11.7417ZM9.27729 11.1704C9.36157 11.1866 9.44165 11.2227 9.51362 11.2759C9.47369 11.2464 9.43225 11.2207 9.38764 11.2026C9.35214 11.1882 9.31449 11.1776 9.27729 11.1704ZM14.0693 7.68897C14.0442 7.70939 14.0211 7.73228 13.997 7.7544C14.062 7.69466 14.1294 7.63957 14.2011 7.59229L14.0693 7.68897ZM14.9443 7.33057C14.8401 7.34054 14.7368 7.36127 14.6357 7.39112L14.789 7.35401C14.8405 7.34407 14.8922 7.33556 14.9443 7.33057Z" fill="white"/>
<path d="M32.0464 15.1207C31.5556 15.1207 31.158 15.5183 31.158 16.0091C31.158 23.8468 24.7815 30.2232 16.9438 30.2232C9.10613 30.2232 2.72965 23.8468 2.72965 16.0091C2.72965 8.17137 9.10613 1.79489 16.9438 1.79489C20.2045 1.79489 23.2961 2.88832 25.8053 4.89714L23.1025 5.62135C22.6284 5.74821 22.3473 6.23576 22.4742 6.70944C22.5804 7.10637 22.9397 7.36827 23.332 7.36827C23.4081 7.36827 23.4855 7.35832 23.5623 7.33806L27.8528 6.18849C28.2324 6.08686 28.5113 5.72298 28.5113 5.33031V0.888385C28.5113 0.397641 28.1137 0 27.6229 0C27.1322 0 26.7345 0.397641 26.7345 0.888385V3.36911C23.9443 1.19825 20.5357 0.0181231 16.9438 0.0181231C8.12642 0.0181231 0.952881 7.19166 0.952881 16.0091C0.952881 24.8265 8.12642 32 16.9438 32C25.7612 32 32.9348 24.8265 32.9348 16.0091C32.9348 15.5183 32.5371 15.1207 32.0464 15.1207Z" fill="white"/>
</g>
<defs>
<clipPath id="clip0_470_2242">
<rect width="32" height="32" fill="white" transform="translate(0.943848)"/>
</clipPath>
</defs>
</svg>
