<svg width="33" height="32" viewBox="0 0 33 32" fill="none" xmlns="http://www.w3.org/2000/svg">
<g clip-path="url(#clip0_470_2247)">
<path fill-rule="evenodd" clip-rule="evenodd" d="M16.2219 1.60062C16.0097 1.60062 15.8063 1.6849 15.6562 1.83493C15.5062 1.98495 15.4219 2.18843 15.4219 2.4006C15.4219 2.61276 15.5062 2.81624 15.6562 2.96626C15.8063 3.11629 16.0097 3.20057 16.2219 3.20057C16.4341 3.20057 16.6375 3.11629 16.7876 2.96626C16.9376 2.81624 17.0219 2.61276 17.0219 2.4006C17.0219 2.18843 16.9376 1.98495 16.7876 1.83493C16.6375 1.6849 16.4341 1.60062 16.2219 1.60062ZM18.6218 2.4006C18.622 2.89707 18.4682 3.38138 18.1816 3.78683C17.8951 4.19228 17.4899 4.49892 17.0219 4.66452V8.00041H25.0216C26.2946 8.00041 27.5155 8.50611 28.4156 9.40626C29.3158 10.3064 29.8215 11.5273 29.8215 12.8003V13.6002C30.458 13.6002 31.0684 13.8531 31.5185 14.3032C31.9685 14.7532 32.2214 15.3637 32.2214 16.0002V19.2001C32.2214 19.8366 31.9685 20.447 31.5185 20.8971C31.0684 21.3471 30.458 21.6 29.8215 21.6V30.3997C29.8215 30.7431 29.7111 31.0774 29.5065 31.3532C29.3019 31.629 29.014 31.8317 28.6854 31.9313C28.3567 32.0308 28.0048 32.022 27.6815 31.9061C27.3583 31.7902 27.0809 31.5734 26.8903 31.2877L24.64 27.9118C24.4939 27.6928 24.2961 27.5133 24.064 27.3891C23.832 27.2649 23.5729 27.1999 23.3097 27.1998H7.42218C6.14918 27.1998 4.92832 26.6941 4.02818 25.794C3.12803 24.8938 2.62233 23.6729 2.62233 22.3999V21.6C1.98584 21.6 1.37541 21.3471 0.925333 20.8971C0.47526 20.447 0.222412 19.8366 0.222412 19.2001V16.0002C0.222412 15.3637 0.47526 14.7532 0.925333 14.3032C1.37541 13.8531 1.98584 13.6002 2.62233 13.6002V12.8003C2.62233 11.5273 3.12803 10.3064 4.02818 9.40626C4.92832 8.50611 6.14918 8.00041 7.42218 8.00041H15.4219V4.66452C15.0069 4.51799 14.6401 4.26017 14.3616 3.91924C14.0832 3.57831 13.9039 3.1674 13.8433 2.73142C13.7826 2.29544 13.843 1.85119 14.0178 1.44722C14.1927 1.04326 14.4752 0.695132 14.8345 0.440905C15.1939 0.186677 15.6162 0.0361342 16.0553 0.00573347C16.4944 -0.0246672 16.9334 0.0662446 17.3244 0.268531C17.7153 0.470816 18.0431 0.776689 18.2719 1.15271C18.5008 1.52873 18.6218 1.96042 18.6218 2.4006ZM16.2219 9.60036H7.42218C6.57351 9.60036 5.75961 9.9375 5.15951 10.5376C4.55941 11.1377 4.22228 11.9516 4.22228 12.8003V22.3999C4.22228 23.2486 4.55941 24.0625 5.15951 24.6626C5.75961 25.2627 6.57351 25.5998 7.42218 25.5998H23.3097C23.8364 25.5999 24.355 25.7299 24.8194 25.9784C25.2839 26.227 25.6798 26.5863 25.972 27.0246L26.6216 27.9998L28.2215 30.3997V12.8003C28.2215 11.9516 27.8844 11.1377 27.2843 10.5376C26.6842 9.9375 25.8703 9.60036 25.0216 9.60036H16.2219ZM2.62233 15.2002V20C2.41017 20 2.20669 19.9157 2.05667 19.7657C1.90664 19.6157 1.82236 19.4122 1.82236 19.2001V16.0002C1.82236 15.788 1.90664 15.5845 2.05667 15.4345C2.20669 15.2845 2.41017 15.2002 2.62233 15.2002ZM29.8215 20V15.2002C30.0336 15.2002 30.2371 15.2845 30.3871 15.4345C30.5371 15.5845 30.6214 15.788 30.6214 16.0002V19.2001C30.6214 19.4122 30.5371 19.6157 30.3871 19.7657C30.2371 19.9157 30.0336 20 29.8215 20Z" fill="white"/>
<path d="M18.3719 19.8224C18.0717 20.1226 17.585 20.1226 17.2848 19.8224L14.0719 16.6095C13.7717 16.3093 13.7717 15.8225 14.0719 15.5223C14.3721 15.2221 14.8588 15.2221 15.1591 15.5223L18.3719 18.7352C18.6722 19.0354 18.6722 19.5221 18.3719 19.8224ZM15.1591 19.8224C14.8588 20.1226 14.3721 20.1226 14.0719 19.8224C13.7717 19.5221 13.7717 19.0354 14.0719 18.7352L17.2848 15.5223C17.585 15.2221 18.0717 15.2221 18.3719 15.5223C18.6722 15.8225 18.6722 16.3093 18.3719 16.6095L15.1591 19.8224Z" fill="white"/>
<circle cx="16.2219" cy="17.6723" r="5.43483" stroke="white" stroke-width="1.6"/>
</g>
<defs>
<clipPath id="clip0_470_2247">
<rect width="32" height="32" fill="white" transform="translate(0.221924)"/>
</clipPath>
</defs>
</svg>
