<svg width="33" height="32" viewBox="0 0 33 32" fill="none" xmlns="http://www.w3.org/2000/svg">
<g clip-path="url(#clip0_470_2249)">
<path d="M14.3692 19.9314C14.7897 19.9314 15.1304 20.2721 15.1304 20.6926C15.1304 21.1132 14.7897 21.4539 14.3692 21.4539C13.9491 21.4537 13.6089 21.1134 13.6089 20.6926C13.609 20.2719 13.9491 19.9316 14.3692 19.9314Z" fill="white"/>
<path d="M11.6217 6.86415C12.5607 6.08018 13.7778 5.73461 15.0082 5.91361L15.0162 5.92262L15.1545 5.94666C16.8702 6.24517 18.2945 7.66952 18.593 9.38525L18.594 9.38625C18.9475 11.3899 17.8879 13.3335 16.0179 14.1029C15.4597 14.3307 15.1426 14.913 15.1424 15.5132V17.1769C15.1424 17.5948 14.7991 17.9382 14.3812 17.9382C13.9633 17.9381 13.62 17.5947 13.62 17.1769V15.5132C13.6201 14.2386 14.3387 13.1427 15.4279 12.6946L15.4289 12.6936C16.5532 12.2281 17.2265 11.0954 17.1146 9.88406L17.0816 9.64067C16.8871 8.54587 15.9705 7.62931 14.876 7.43508C14.0472 7.28571 13.2303 7.48941 12.5933 8.02905C11.9737 8.55247 11.6157 9.32381 11.6157 10.1355L11.6117 10.2126C11.5723 10.5942 11.2464 10.8956 10.8545 10.8957C10.4364 10.8957 10.0935 10.5529 10.0932 10.1355L10.0992 9.90009C10.1638 8.72589 10.7099 7.62568 11.6217 6.86415Z" fill="white"/>
<path fill-rule="evenodd" clip-rule="evenodd" d="M14.3692 0C21.8997 0 28.0203 6.11974 28.0204 13.6502C28.0204 16.1295 27.3499 18.4499 26.1894 20.4522L26.0311 20.7247L26.2535 20.948L31.7745 26.468C33.0412 27.7247 33.0424 29.7836 31.7725 31.0535C31.1388 31.687 30.3084 32 29.4737 32C28.6391 32 27.8086 31.687 27.175 31.0535L21.4447 25.3242L21.1712 25.4814C19.1564 26.6424 16.8478 27.3124 14.3692 27.3124C6.83885 27.3122 0.719068 21.1925 0.718994 13.6622L0.723001 13.3106C0.909944 5.94145 6.95678 0.00022201 14.3692 0ZM24.8682 22.3533C24.3224 23.0128 23.7197 23.6155 23.0603 24.1613L22.7127 24.4487L23.0313 24.7682L28.2337 29.9707C28.9095 30.6465 30.0029 30.6465 30.6787 29.9707C31.3541 29.295 31.3539 28.2024 30.6787 27.5267L25.4752 22.3243L25.1557 22.0058L24.8682 22.3533ZM14.3692 1.53349C7.6863 1.53373 2.24147 6.97932 2.24147 13.6622C2.24154 20.345 7.68634 25.7907 14.3692 25.7909L14.6817 25.7869C21.2211 25.6203 26.4978 20.2407 26.4979 13.6622C26.4979 7.08363 21.2212 1.70407 14.6817 1.5375L14.3692 1.53349Z" fill="white"/>
</g>
<defs>
<clipPath id="clip0_470_2249">
<rect width="32" height="32" fill="white" transform="translate(0.721924)"/>
</clipPath>
</defs>
</svg>
