<svg width="33" height="32" viewBox="0 0 33 32" fill="none" xmlns="http://www.w3.org/2000/svg">
<g clip-path="url(#clip0_470_2255)">
<path fill-rule="evenodd" clip-rule="evenodd" d="M28.2978 11.6446C28.7361 11.6449 29.0948 12.0035 29.095 12.4418V30.0369H31.4247C31.863 30.0371 32.2217 30.3958 32.2219 30.8341C32.2217 31.2724 31.863 31.6301 31.4247 31.6303H1.4752C1.03669 31.6303 0.678224 31.2725 0.677979 30.8341C0.678238 30.3956 1.03668 30.0369 1.4752 30.0369H3.80486V21.1628C3.80512 20.7244 4.16357 20.3656 4.60208 20.3656H11.7025V16.7999C11.7029 16.3616 12.0604 16.0037 12.4987 16.0037H19.5991V12.4418C19.5994 12.0035 19.957 11.6448 20.3954 11.6446H28.2978ZM5.40221 21.9649V30.0427H11.7054V21.9649H5.40221ZM13.2989 17.6V30.0407H19.602V17.6H13.2989ZM21.1955 13.242V30.0407H27.5045V13.242H21.1955Z" fill="white"/>
<path d="M10.4295 0.369629C3.32565 0.369629 0.416805 6.65823 0.296695 6.92601C0.197 7.14786 0.197 7.40169 0.296695 7.62353C0.417145 7.89131 3.32565 14.1799 10.4295 14.1799C17.5333 14.1799 20.4422 7.89131 20.5623 7.62353C20.662 7.40169 20.662 7.14786 20.5623 6.92601C20.4422 6.65823 17.5333 0.369629 10.4295 0.369629ZM10.4295 12.4786C5.25796 12.4786 2.69379 8.50207 2.02553 7.27511C2.69482 6.04577 5.25932 2.07091 10.4295 2.07091C15.5993 2.07091 18.1638 6.04543 18.8335 7.27477C18.1638 8.50411 15.5993 12.4786 10.4295 12.4786Z" fill="white"/>
<path d="M10.4292 3.87225C8.553 3.87225 7.02661 5.39864 7.02661 7.27481C7.02661 9.15098 8.553 10.6774 10.4292 10.6774C12.3053 10.6774 13.8317 9.15098 13.8317 7.27481C13.8317 5.39864 12.3053 3.87225 10.4292 3.87225ZM10.4292 8.97608C9.49108 8.97608 8.72789 8.21289 8.72789 7.27481C8.72789 6.33672 9.49108 5.57353 10.4292 5.57353C11.3672 5.57353 12.1304 6.33672 12.1304 7.27481C12.1304 8.21289 11.3672 8.97608 10.4292 8.97608Z" fill="white"/>
</g>
<defs>
<clipPath id="clip0_470_2255">
<rect width="32" height="32" fill="white" transform="translate(0.221924)"/>
</clipPath>
</defs>
</svg>
